<svg width="24" height="24" viewBox="0 0 24 24" fill="none" xmlns="http://www.w3.org/2000/svg">
<path fill-rule="evenodd" clip-rule="evenodd" d="M2.25 1.5C2.25 1.08579 2.58579 0.75 3 0.75H13.5C13.6989 0.75 13.8897 0.829018 14.0303 0.96967L20.0303 6.96967C20.171 7.11032 20.25 7.30109 20.25 7.5V12.75C20.25 13.1642 19.9142 13.5 19.5 13.5C19.0858 13.5 18.75 13.1642 18.75 12.75V7.81066L13.1893 2.25H3.75V21.75H14.25C14.6642 21.75 15 22.0858 15 22.5C15 22.9142 14.6642 23.25 14.25 23.25H3C2.58579 23.25 2.25 22.9142 2.25 22.5V1.5Z" fill="#535353"/>
<path fill-rule="evenodd" clip-rule="evenodd" d="M13.5 0.75C13.9142 0.75 14.25 1.08579 14.25 1.5V6.75H19.5C19.9142 6.75 20.25 7.08579 20.25 7.5C20.25 7.91421 19.9142 8.25 19.5 8.25H13.5C13.0858 8.25 12.75 7.91421 12.75 7.5V1.5C12.75 1.08579 13.0858 0.75 13.5 0.75Z" fill="#535353"/>
<path fill-rule="evenodd" clip-rule="evenodd" d="M19.5 15.75C19.9142 15.75 20.25 16.0858 20.25 16.5V22.5C20.25 22.9142 19.9142 23.25 19.5 23.25C19.0858 23.25 18.75 22.9142 18.75 22.5V16.5C18.75 16.0858 19.0858 15.75 19.5 15.75Z" fill="#535353"/>
<path fill-rule="evenodd" clip-rule="evenodd" d="M15.75 19.5C15.75 19.0858 16.0858 18.75 16.5 18.75H22.5C22.9142 18.75 23.25 19.0858 23.25 19.5C23.25 19.9142 22.9142 20.25 22.5 20.25H16.5C16.0858 20.25 15.75 19.9142 15.75 19.5Z" fill="#535353"/>
</svg>
