<svg width="20" height="20" viewBox="0 0 20 20" fill="none" xmlns="http://www.w3.org/2000/svg">
<circle cx="10" cy="10" r="10" fill="#828282"/>
<path d="M8.40569 5.21729H5.85497C5.50278 5.21729 5.21729 5.50278 5.21729 5.85497V8.40569C5.21729 8.75787 5.50278 9.04337 5.85497 9.04337H8.40569C8.75787 9.04337 9.04337 8.75787 9.04337 8.40569V5.85497C9.04337 5.50278 8.75787 5.21729 8.40569 5.21729Z" stroke="white" stroke-linecap="round" stroke-linejoin="round"/>
<path d="M14.1449 5.21729H11.5942C11.242 5.21729 10.9565 5.50278 10.9565 5.85497V8.40569C10.9565 8.75787 11.242 9.04337 11.5942 9.04337H14.1449C14.4971 9.04337 14.7826 8.75787 14.7826 8.40569V5.85497C14.7826 5.50278 14.4971 5.21729 14.1449 5.21729Z" stroke="white" stroke-linecap="round" stroke-linejoin="round"/>
<path d="M8.40569 10.9565H5.85497C5.50278 10.9565 5.21729 11.242 5.21729 11.5942V14.1449C5.21729 14.4971 5.50278 14.7826 5.85497 14.7826H8.40569C8.75787 14.7826 9.04337 14.4971 9.04337 14.1449V11.5942C9.04337 11.242 8.75787 10.9565 8.40569 10.9565Z" stroke="white" stroke-linecap="round" stroke-linejoin="round"/>
<path d="M14.1449 10.9565H11.5942C11.242 10.9565 10.9565 11.242 10.9565 11.5942V14.1449C10.9565 14.4971 11.242 14.7826 11.5942 14.7826H14.1449C14.4971 14.7826 14.7826 14.4971 14.7826 14.1449V11.5942C14.7826 11.242 14.4971 10.9565 14.1449 10.9565Z" stroke="white" stroke-linecap="round" stroke-linejoin="round"/>
</svg>
