<svg width="272" height="170" viewBox="0 0 272 170" xmlns="http://www.w3.org/2000/svg" xmlns:xlink="http://www.w3.org/1999/xlink">
    <defs>
        <path d="M67.638 0c-.85.006-1.64.434-2.108 1.145L.417 100.066A2.54 2.54 0 0 0 2.54 104h131.918c.94 0 1.801-.519 2.245-1.347.192-.362.29-.757.296-1.15v-.076a2.535 2.535 0 0 0-.435-1.385L69.761 1.12C69.285.415 68.474.053 67.638 0z" id="zvq0h4yked"/>
        <path id="aizjvx2zye" d="M0 0h15v59H0z"/>
        <path id="1vz7ftr94g" d="M0 0h34v30H0z"/>
        <path id="t3r1uwle1i" d="M0 .24h236v1.52H0z"/>
        <path id="79mdy9xadk" d="M0 0h40.388v42.129H0z"/>
        <filter x="-1.5%" y="-1.7%" width="103.1%" height="104.2%" filterUnits="objectBoundingBox" id="1puubavkla">
            <feOffset dy="2" in="SourceAlpha" result="shadowOffsetOuter1"/>
            <feGaussianBlur stdDeviation="3.5" in="shadowOffsetOuter1" result="shadowBlurOuter1"/>
            <feColorMatrix values="0 0 0 0 0 0 0 0 0 0 0 0 0 0 0 0 0 0 0.296137456 0" in="shadowBlurOuter1"/>
        </filter>
        <filter x="-2.2%" y="-1.9%" width="103.6%" height="107.7%" filterUnits="objectBoundingBox" id="833jz4gaec">
            <feOffset dx="-1" dy="4" in="SourceAlpha" result="shadowOffsetOuter1"/>
            <feColorMatrix values="0 0 0 0 0 0 0 0 0 0 0 0 0 0 0 0 0 0 0.0659418706 0" in="shadowOffsetOuter1"/>
        </filter>
        <rect id="dw44hl8isb" x="491" y="152" width="743.306" height="553" rx="8"/>
    </defs>
    <g fill="none" fill-rule="evenodd">
        <path fill-opacity=".476" fill="#000" d="M-737-196H703V966H-737z"/>
        <g transform="translate(-737 -196)">
            <use fill="#000" filter="url(#1puubavkla)" xlink:href="#dw44hl8isb"/>
            <use fill="#FFF" xlink:href="#dw44hl8isb"/>
        </g>
        <path d="M272 50c0 .014-45.447.026-101.495.026C114.437 50.026 69 50.014 69 50c0-.014 45.437-.026 101.505-.026 56.048 0 101.495.012 101.495.026" fill="#263238"/>
        <path d="M244.975 115c-.015 0-.015-25.747-.001-57.498.014-31.763.037-57.502.051-57.502.015 0 .015 25.74.001 57.503-.014 31.752-.037 57.497-.051 57.497M214.975 115c-.015 0-.015-25.747-.001-57.498.014-31.763.037-57.502.051-57.502.015 0 .015 25.74.001 57.503-.014 31.752-.037 57.497-.051 57.497M153.975 115c-.015 0-.015-25.747-.001-57.498.014-31.763.037-57.502.051-57.502.015 0 .015 25.74.001 57.503-.014 31.752-.037 57.497-.051 57.497" fill="#263238"/>
        <path d="M272 28c0 .014-45.447.026-101.495.026C114.437 28.026 69 28.014 69 28c0-.014 45.437-.026 101.505-.026 56.048 0 101.495.012 101.495.026" fill="#263238"/>
        <path d="M124.975 115c-.015 0-.015-25.747-.001-57.498.014-31.763.037-57.502.051-57.502.015 0 .015 25.74.001 57.503-.014 31.752-.037 57.497-.051 57.497M94.975 115c-.015 0-.015-25.747-.001-57.498C94.988 25.74 95.011 0 95.025 0c.015 0 .015 25.74.001 57.503C95.012 89.255 94.99 115 94.975 115M184.975 115c-.015 0-.015-25.747-.001-57.498.014-31.763.037-57.502.051-57.502.015 0 .015 25.74.001 57.503-.014 31.752-.037 57.497-.051 57.497" fill="#263238"/>
        <path d="M272 79c0 .014-45.447.026-101.495.026C114.437 79.026 69 79.014 69 79c0-.014 45.437-.026 101.505-.026 56.048 0 101.495.012 101.495.026" fill="#263238"/>
        <g transform="translate(65 26)">
            <use fill="#000" filter="url(#833jz4gaec)" xlink:href="#zvq0h4yked"/>
            <use fill="#FDA228" xlink:href="#zvq0h4yked"/>
        </g>
        <g transform="translate(126 59)">
            <mask id="3gwwq4uvcf" fill="#fff">
                <use xlink:href="#aizjvx2zye"/>
            </mask>
            <text mask="url(#3gwwq4uvcf)" font-family="Montserrat-SemiBold, Montserrat" font-size="52.009" font-weight="500" fill="#FFF">
                        <tspan x="0" y="45.644">!</tspan>
                    </text>
        </g>
        <g transform="translate(183 56)">
            <mask id="e9c4napzgh" fill="#fff">
                <use xlink:href="#1vz7ftr94g"/>
            </mask>
            <path d="M2.876 13.644s-.06-.321-.11-.956c-.045-.634-.036-1.592.216-2.811.136-.606.323-1.28.627-1.985a11.13 11.13 0 0 1 1.207-2.199A11.396 11.396 0 0 1 9.58 1.756a12.487 12.487 0 0 1 3.57-.992 13.663 13.663 0 0 1 4.083.084c2.823.46 5.727 1.94 8.083 4.325 1.187 1.183 2.224 2.596 3.075 4.174.826 1.59 1.463 3.357 1.74 5.247.27 1.883.292 3.883-.17 5.85-.2.991-.573 1.95-1 2.89-.474.92-1.04 1.81-1.753 2.596-1.422 1.573-3.345 2.729-5.46 3.345-2.117.632-4.389.808-6.673.691-2.284-.135-4.614-.487-6.88-1.253-2.25-.762-4.441-2.093-5.915-4.134C.821 22.552.02 20.012.003 17.431c-.03-1.295.19-2.59.527-3.854.37-1.26.928-2.464 1.604-3.606a17.372 17.372 0 0 1 2.508-3.11 16.945 16.945 0 0 1 3.254-2.402 14.91 14.91 0 0 1 3.831-1.436c1.348-.297 2.748-.338 4.135-.221 5.547.55 10.849 4.319 13.16 9.753 1.14 2.708 1.447 5.812.768 8.742-.345 1.46-.96 2.876-1.856 4.1-.906 1.218-2.083 2.245-3.444 2.936-1.35.717-2.847 1.128-4.367 1.296-1.522.182-3.072.081-4.588-.193-3.025-.587-5.92-2.06-8.152-4.284-1.111-1.111-2.056-2.413-2.71-3.868-.673-1.448-.958-3.072-.897-4.678.174-3.239 1.884-6.253 4.252-8.423 2.383-2.178 5.442-3.586 8.614-3.886 1.582-.145 3.193-.024 4.714.418.763.21 1.5.506 2.204.859.709.348 1.38.768 2.005 1.247a11.754 11.754 0 0 1 3.112 3.502c.387.682.72 1.399.944 2.15.134.368.203.755.3 1.133.06.386.147.769.171 1.158.322 3.106-.566 6.283-2.388 8.739-1.822 2.47-4.53 4.15-7.407 4.903-2.883.792-5.963.573-8.701-.43C6.11 25.972 1.867 21.04.956 15.46c-.489-2.773.03-5.673 1.386-8.05A14.04 14.04 0 0 1 8.06 1.873C10.404.64 13.008.056 15.56.005a19.41 19.41 0 0 1 7.385 1.292c4.613 1.765 8.425 5.306 10.092 9.648 1.651 4.341 1.108 9.207-1.09 12.821a11.99 11.99 0 0 1-4.392 4.264c-1.75.985-3.662 1.537-5.542 1.74-3.792.402-7.367-.63-10.33-2.116-2.976-1.508-5.471-3.469-7.305-5.676-1.84-2.2-2.997-4.658-3.387-6.995a11.529 11.529 0 0 1 .693-6.17 10.313 10.313 0 0 1 2.56-3.768c.916-.84 1.777-1.26 2.35-1.522.593-.217.903-.31.903-.31s-.075.032-.225.087c-.149.058-.376.13-.668.248-.567.27-1.42.695-2.325 1.537a10.301 10.301 0 0 0-2.521 3.757c-.664 1.669-1.055 3.801-.664 6.122.395 2.317 1.55 4.751 3.382 6.931 1.827 2.187 4.312 4.131 7.273 5.624 2.948 1.471 6.498 2.485 10.246 2.08 1.86-.204 3.747-.753 5.472-1.728a11.806 11.806 0 0 0 4.319-4.205c2.161-3.563 2.691-8.372 1.059-12.645-1.649-4.277-5.416-7.773-9.98-9.515a19.2 19.2 0 0 0-7.3-1.27C13.043.29 10.475.87 8.17 2.084a13.804 13.804 0 0 0-5.617 5.444 11.898 11.898 0 0 0-1.352 7.89c.894 5.482 5.08 10.346 10.481 12.316 2.696.984 5.717 1.197 8.55.419 2.824-.742 5.48-2.393 7.261-4.809 1.782-2.4 2.65-5.517 2.336-8.552-.025-.382-.11-.755-.167-1.132-.096-.369-.163-.746-.294-1.106-.22-.733-.544-1.43-.921-2.096a11.479 11.479 0 0 0-3.043-3.422 12.409 12.409 0 0 0-8.737-2.47c-3.11.293-6.118 1.678-8.458 3.817-2.327 2.13-3.997 5.088-4.165 8.237-.06 1.562.216 3.14.873 4.554.638 1.42 1.563 2.695 2.654 3.787 2.192 2.183 5.039 3.634 8.014 4.212 1.49.27 3.016.37 4.509.191 1.492-.165 2.959-.567 4.275-1.266a9.693 9.693 0 0 0 3.355-2.857c.874-1.193 1.474-2.574 1.813-4.004.666-2.87.368-5.923-.75-8.582-2.267-5.34-7.497-9.063-12.949-9.605-1.362-.116-2.737-.077-4.06.214-1.319.298-2.59.77-3.766 1.41a16.695 16.695 0 0 0-3.206 2.36 17.095 17.095 0 0 0-2.472 3.063c-.665 1.124-1.216 2.307-1.58 3.546-.333 1.242-.55 2.514-.522 3.785.014 2.536.801 5.033 2.229 7.018 1.438 1.997 3.582 3.305 5.805 4.062 2.236.76 4.555 1.114 6.82 1.25 2.267.119 4.518-.054 6.606-.675 2.088-.605 3.978-1.74 5.377-3.282.701-.772 1.26-1.646 1.727-2.55.421-.925.792-1.868.99-2.847.46-1.94.441-3.92.178-5.784-.561-3.751-2.427-6.988-4.753-9.34-2.33-2.369-5.203-3.843-7.998-4.304A13.541 13.541 0 0 0 13.166.88a12.405 12.405 0 0 0-3.543.972A11.335 11.335 0 0 0 4.88 5.739a11.092 11.092 0 0 0-1.21 2.18 11.11 11.11 0 0 0-.636 1.97c-.259 1.21-.278 2.165-.24 2.798.005.318.05.555.06.716.017.16.021.241.021.241" fill="#CA515B" mask="url(#e9c4napzgh)"/>
        </g>
        <path d="M206 67.004c.022.074-3.318 1.252-7.46 2.63-4.143 1.379-7.517 2.436-7.54 2.362-.022-.074 3.318-1.251 7.46-2.63 4.142-1.379 7.518-2.436 7.54-2.362M207 69.003c.024.072-3.091 1.248-6.956 2.627-3.867 1.379-7.02 2.439-7.044 2.367-.023-.072 3.09-1.248 6.957-2.627 3.866-1.379 7.019-2.439 7.043-2.367M200.997 74.001c.08.127-1.5.873-3.433 1.682-.972.406-1.857.753-2.502.99-.645.235-1.05.36-1.062.32-.012-.041.372-.239 1.001-.528.63-.289 1.504-.669 2.475-1.074.97-.406 1.853-.76 2.493-1.01.635-.25 1.051-.396 1.028-.38" fill="#CC2B2B"/>
        <g>
            <g transform="translate(14 162.95)">
                <mask id="eml9oog3pj" fill="#fff">
                    <use xlink:href="#t3r1uwle1i"/>
                </mask>
                <path d="M290 .31c0 .072-64.924.13-144.993.13C64.91.44 0 .382 0 .31 0 .238 64.91.18 145.007.18 225.077.18 290 .238 290 .31" fill="#263238" mask="url(#eml9oog3pj)"/>
            </g>
            <path d="M55 137.58c2.966 1.008 6.835.107 9.372-1.696 2.537-1.804 4.362-4.388 5.98-7.009.69-1.118 1.365-2.285 1.583-3.572.218-1.288-.103-2.736-1.129-3.577-1.594-1.305-4.036-.643-5.847.36-5.666 3.142-9.534 9.16-9.959 15.494M58 144.56c1.788 2.28 4.859 3.294 7.815 3.425 2.957.133 5.878-.656 8.641-1.68 1.002-.372 2.1-.882 2.443-1.864.26-.744-.007-1.591-.523-2.198s-1.248-1.006-1.995-1.314c-2.72-1.119-5.836-1.172-8.698-.455-2.861.717-5.361 2.32-7.683 4.087M55.176 125c2.35.046 4.129-2.018 5.193-4.119a15.297 15.297 0 0 0 1.4-9.517c-.215-1.204-.67-2.502-1.744-3.081-1.092-.589-2.513-.201-3.429.637-.916.838-1.417 2.034-1.783 3.221-1.261 4.093-.99 8.795.363 12.858M47.073 139c4.282-6.975 4.995-15.509 2.466-23.228-.41-1.252-1.184-2.686-2.552-2.768-1.516-.092-2.466 1.525-2.884 2.922-1.468 4.902-1.156 10.108-.832 15.197.2 3.136 1.326 5.816 3.802 7.877M43 141.343c-1.513-4.963-5.362-9.126-10.132-10.957-1.109-.426-2.518-.668-3.345.197-.811.848-.562 2.267-.041 3.326.84 1.712 2.205 3.087 3.565 4.407 1.237 1.2 2.522 2.405 4.086 3.103 1.564.698 4.437.875 5.867-.076" fill="#E5E5E5"/>
            <path d="M68 124a.345.345 0 0 1-.072.063l-.223.169-.868.633-.629.453c-.226.17-.462.368-.721.573-.512.418-1.118.868-1.727 1.433l-.975.866c-.338.302-.663.644-1.014.983-.712.668-1.402 1.448-2.144 2.254a48.761 48.761 0 0 0-4.267 5.677 48.308 48.308 0 0 0-3.296 6.265c-.407 1.009-.813 1.96-1.108 2.88-.153.458-.32.895-.447 1.325l-.357 1.238c-.246.785-.387 1.515-.54 2.148-.073.319-.148.613-.204.887l-.134.752-.192 1.04-.055.27a.379.379 0 0 1-.025.091.33.33 0 0 1 .005-.094l.036-.273.156-1.047.118-.756c.05-.275.12-.572.187-.891.144-.638.277-1.372.515-2.161l.346-1.246c.123-.433.288-.872.438-1.333.289-.926.69-1.883 1.095-2.897a47.048 47.048 0 0 1 3.296-6.298 47.525 47.525 0 0 1 4.297-5.692c.749-.806 1.446-1.585 2.165-2.251.355-.337.684-.677 1.026-.978l.987-.86c.617-.56 1.23-1.004 1.75-1.415.263-.201.503-.395.733-.562l.64-.441.89-.605.234-.153A.39.39 0 0 1 68 124" fill="#263238"/>
            <path d="M73 142.78c-.002.006-.098-.011-.28-.049-.183-.033-.448-.106-.796-.165a21.894 21.894 0 0 0-2.958-.37c-2.5-.163-6.053.14-9.608 1.654-3.556 1.514-6.27 3.88-7.918 5.81a22.895 22.895 0 0 0-1.829 2.409c-.204.294-.34.537-.446.694-.102.159-.159.24-.164.237-.006-.004.04-.092.13-.258.096-.163.222-.414.418-.715.373-.615.963-1.475 1.788-2.459 1.632-1.965 4.357-4.372 7.948-5.9 3.588-1.53 7.177-1.811 9.69-1.611a19.51 19.51 0 0 1 2.964.434c.347.07.61.156.79.202.18.05.273.08.271.086M58 111a.457.457 0 0 1-.017.108l-.064.311-.266 1.195a307.114 307.114 0 0 1-1.036 4.38c-.892 3.694-2.188 8.78-3.539 14.418-.67 2.82-1.278 5.514-1.802 7.97a207.17 207.17 0 0 0-1.277 6.55c-.175.933-.306 1.782-.431 2.527a74.273 74.273 0 0 0-.302 1.912l-.187 1.209-.053.314a.508.508 0 0 1-.024.106.458.458 0 0 1 .005-.109l.034-.316.152-1.215c.065-.528.152-1.172.27-1.918.114-.746.236-1.598.403-2.534.309-1.876.734-4.1 1.238-6.562a300.64 300.64 0 0 1 1.789-7.98c1.35-5.639 2.668-10.72 3.593-14.405l1.094-4.365c.128-.504.23-.9.301-1.186l.083-.307A.456.456 0 0 1 58 111M48.998 152c-.003 0-.013-.028-.027-.085-.017-.068-.037-.151-.06-.253l-.214-.976c-.184-.847-.427-2.078-.705-3.603a130.248 130.248 0 0 1-1.62-11.995 112.174 112.174 0 0 1-.354-6.653 91.339 91.339 0 0 1 .05-5.438c.02-.774.074-1.473.11-2.087.032-.614.078-1.142.12-1.573l.096-.992.03-.258c.008-.058.014-.087.018-.087.003 0 .004.03.003.089l-.01.259-.058.995c-.03.431-.063.959-.086 1.573-.024.614-.068 1.312-.079 2.085a102.398 102.398 0 0 0-.006 5.43c.058 2.044.173 4.289.37 6.641.404 4.703 1.04 8.935 1.559 11.988.259 1.527.48 2.76.64 3.613l.176.982.04.256c.009.058.01.088.007.089" fill="#263238"/>
            <path d="M49.999 153c-.006.002-.044-.08-.11-.239l-.277-.696-.198-.503-.27-.585-.31-.672c-.109-.238-.25-.478-.383-.737l-.43-.806-.513-.85c-.338-.597-.776-1.19-1.198-1.836a43.737 43.737 0 0 0-3.174-3.913 49.047 49.047 0 0 0-3.642-3.517c-.605-.493-1.16-.986-1.72-1.399l-.798-.614-.757-.538c-.478-.35-.927-.643-1.323-.898-.392-.262-.734-.48-1.022-.647l-.653-.399c-.148-.093-.224-.145-.221-.15.004-.006.086.034.241.117l.673.369c.295.157.644.366 1.043.62.403.248.86.534 1.344.878l.768.53.808.608c.566.409 1.127.9 1.739 1.39a46.411 46.411 0 0 1 3.669 3.523 41.547 41.547 0 0 1 3.176 3.942c.421.651.855 1.25 1.19 1.853l.504.86.421.817c.13.261.268.505.373.746l.297.681c.09.212.177.41.256.593l.182.511.243.71c.054.163.078.25.072.251M67 131.074c0 .035-.518.036-1.349.088-.831.05-1.977.174-3.224.438a22.953 22.953 0 0 0-3.143.922c-.79.295-1.271.508-1.284.475-.005-.015.11-.084.321-.197.211-.114.524-.261.916-.429a17.578 17.578 0 0 1 3.152-.993 17.09 17.09 0 0 1 3.257-.376c.419-.006.758.003.992.022.234.017.362.034.362.05M69.997 147c-.057.027-.508-1.183-1.644-2.304-1.12-1.136-2.386-1.643-2.352-1.694.008-.018.332.082.812.334.479.25 1.103.667 1.678 1.24a6.648 6.648 0 0 1 1.208 1.647c.234.463.318.77.298.777M58.999 117.002c.039.045-.716.859-1.54 1.962-.827 1.1-1.408 2.068-1.456 2.035-.044-.026.47-1.055 1.307-2.168.833-1.116 1.656-1.87 1.689-1.83M56.027 113c.09-.008.374.657.635 1.485.262.829.4 1.507.31 1.515-.088.008-.373-.656-.634-1.485-.261-.829-.4-1.507-.31-1.515M48.997 126c.055.025-.57 1.164-1.397 2.545-.827 1.38-1.541 2.48-1.597 2.455-.055-.025.57-1.164 1.397-2.545.826-1.38 1.541-2.48 1.597-2.455M44.004 121c.052-.025.539.85 1.089 1.954.55 1.104.954 2.02.903 2.045-.052.026-.538-.848-1.089-1.953-.55-1.104-.954-2.02-.903-2.045" fill="#263238"/>
            <path d="M38 137.047c-.014.014-.897-.026-1.997-.043-1.1-.019-1.998-.008-2.003-.022-.007-.013.897-.045 2.018-.026 1.12.018 1.996.079 1.982.091M42 151l2.23 11.67c.149.771.827 1.33 1.616 1.33h6.592c.804 0 1.49-.579 1.622-1.368L56 151H42z" fill="#263238"/>
            <path fill="#455A64" d="M42.725 155H55.33l.67-4H42z"/>
            <path fill="#FAFAFA" d="m43 155 .273 1H55.8l.199-1z"/>
        </g>
        <g>
            <g transform="translate(56 34.926)">
                <mask id="kk8gjioc8l" fill="#fff">
                    <use xlink:href="#79mdy9xadk"/>
                </mask>
                <path d="M1.201 0S-2 26.353 2.051 42.129l38.337-1.957s-8.038-25.689-2.972-38.28L1.201 0z" fill-opacity=".132" fill="#000" mask="url(#kk8gjioc8l)"/>
            </g>
            <path d="M57.354 34s.264 31.108 1.845 40.599l39.017-1.846S94.79 42.172 96.107 34H57.354z" fill="#3BD55A"/>
            <path d="M90.227 47.066c.01.144-5.846.614-13.075 1.047-7.23.436-13.099.672-13.107.529-.009-.145 5.844-.613 13.076-1.049 7.23-.434 13.097-.67 13.106-.527M90.238 53.656c.009.143-5.846.613-13.075 1.047-7.231.434-13.1.67-13.107.527-.01-.143 5.844-.612 13.076-1.047 7.229-.434 13.097-.672 13.106-.527M83.606 60.125c.004.072-.827.187-2.173.315-1.347.129-3.21.27-5.27.394-2.06.124-3.926.207-5.28.24-1.351.035-2.19.02-2.194-.052-.004-.071.826-.187 2.173-.315s3.21-.27 5.27-.393c2.06-.124 3.926-.207 5.278-.241 1.353-.034 2.192-.02 2.196.052" fill="#5C5C5C"/>
        </g>
    </g>
</svg>