<svg width="28" height="28" viewBox="0 0 28 28" fill="none" xmlns="http://www.w3.org/2000/svg">
<path d="M28 14C28 17.713 26.525 21.274 23.8995 23.8995C21.274 26.525 17.713 28 14 28C10.287 28 6.72601 26.525 4.10051 23.8995C1.475 21.274 0 17.713 0 14C0 10.287 1.475 6.72601 4.10051 4.10051C6.72601 1.475 10.287 0 14 0C17.713 0 21.274 1.475 23.8995 4.10051C26.525 6.72601 28 10.287 28 14ZM14 7C13.7788 7.00013 13.5601 7.04658 13.358 7.13637C13.1558 7.22617 12.9747 7.35731 12.8264 7.52135C12.678 7.68538 12.5656 7.87868 12.4965 8.08879C12.4274 8.2989 12.403 8.52116 12.425 8.74125L13.0375 14.8785C13.0581 15.1196 13.1684 15.3442 13.3466 15.5079C13.5249 15.6715 13.758 15.7623 14 15.7623C14.242 15.7623 14.4751 15.6715 14.6534 15.5079C14.8316 15.3442 14.9419 15.1196 14.9625 14.8785L15.575 8.74125C15.597 8.52116 15.5726 8.2989 15.5035 8.08879C15.4344 7.87868 15.322 7.68538 15.1736 7.52135C15.0253 7.35731 14.8442 7.22617 14.642 7.13637C14.4399 7.04658 14.2212 7.00013 14 7ZM14.0035 17.5C13.5394 17.5 13.0943 17.6844 12.7661 18.0126C12.4379 18.3408 12.2535 18.7859 12.2535 19.25C12.2535 19.7141 12.4379 20.1592 12.7661 20.4874C13.0943 20.8156 13.5394 21 14.0035 21C14.4676 21 14.9127 20.8156 15.2409 20.4874C15.5691 20.1592 15.7535 19.7141 15.7535 19.25C15.7535 18.7859 15.5691 18.3408 15.2409 18.0126C14.9127 17.6844 14.4676 17.5 14.0035 17.5Z" fill="#FF5E53"/>
</svg>
