<svg width="176" height="52" viewBox="0 0 176 52" fill="none" xmlns="http://www.w3.org/2000/svg">
<path d="M174.769 45.2399C174.769 47.9364 172.543 50.1207 169.789 50.1207H6.81658C4.0642 50.1207 1.83008 47.9364 1.83008 45.2399V6.31688C1.83008 3.6216 4.0642 1.42969 6.81658 1.42969H169.788C172.543 1.42969 174.768 3.6216 174.768 6.31688L174.769 45.2399Z" fill="black"/>
<path d="M169.264 1.48737C172.263 1.48737 174.704 3.87034 174.704 6.79884V44.7492C174.704 47.6777 172.263 50.0606 169.264 50.0606H7.33649C4.33759 50.0606 1.89733 47.6777 1.89733 44.7492V6.79884C1.89733 3.87034 4.33759 1.48737 7.33649 1.48737H169.264ZM169.264 0.473785H7.33649C3.7757 0.473785 0.859375 3.32164 0.859375 6.79884V44.7492C0.859375 48.2264 3.7757 51.0742 7.33649 51.0742H169.264C172.825 51.0742 175.742 48.2264 175.742 44.7492V6.79884C175.742 3.32164 172.825 0.473785 169.264 0.473785Z" fill="#A6A6A6"/>
<path d="M39.8892 25.5022C39.8517 21.4251 43.3079 19.4416 43.4659 19.3492C41.5085 16.5624 38.4746 16.1816 37.4085 16.1513C34.8604 15.8894 32.3887 17.6402 31.0907 17.6402C29.7668 17.6402 27.768 16.1766 25.6137 16.2196C22.8415 16.2613 20.248 17.8287 18.8256 20.2626C15.8902 25.2252 18.0795 32.518 20.8918 36.5293C22.2987 38.4939 23.9426 40.6874 26.0943 40.6103C28.1993 40.5255 28.9857 39.2997 31.526 39.2997C34.043 39.2997 34.7814 40.6103 36.9758 40.5609C39.235 40.5255 40.6574 38.5875 42.015 36.6052C43.6408 34.3535 44.2937 32.136 44.3196 32.0221C44.2665 32.0044 39.932 30.389 39.8892 25.5022Z" fill="white"/>
<path d="M35.7439 13.5125C36.8761 12.1298 37.6507 10.2487 37.4357 8.33984C35.797 8.41068 33.7476 9.44673 32.5675 10.799C31.5234 11.9907 30.5907 13.9438 30.8316 15.7806C32.6724 15.9147 34.5624 14.8736 35.7439 13.5125Z" fill="white"/>
<path d="M64.3991 13.136C64.3991 14.6249 63.9418 15.7457 63.0286 16.4984C62.1826 17.1929 60.9805 17.5408 59.4234 17.5408C58.6513 17.5408 57.9906 17.5079 57.4375 17.4421V9.30681C58.1591 9.19296 58.9363 9.13477 59.7757 9.13477C61.259 9.13477 62.377 9.44975 63.1309 10.0797C63.9755 10.7919 64.3991 11.8103 64.3991 13.136ZM62.9677 13.1727C62.9677 12.2075 62.706 11.4674 62.1826 10.9513C61.6593 10.4365 60.895 10.1784 59.8884 10.1784C59.461 10.1784 59.0969 10.2062 58.7951 10.2644V16.4491C58.9622 16.4744 59.2679 16.4857 59.7123 16.4857C60.7512 16.4857 61.5531 16.2036 62.1179 15.6395C62.6827 15.0753 62.9677 14.253 62.9677 13.1727Z" fill="white"/>
<path d="M71.9888 14.4365C71.9888 15.3537 71.7206 16.1051 71.1843 16.6946C70.6221 17.3005 69.8772 17.6029 68.9471 17.6029C68.0507 17.6029 67.3369 17.3132 66.8045 16.7313C66.2734 16.1506 66.0078 15.4182 66.0078 14.5352C66.0078 13.6118 66.2811 12.854 66.8304 12.2658C67.3797 11.6776 68.1181 11.3828 69.0482 11.3828C69.9446 11.3828 70.6649 11.6725 71.2102 12.2531C71.7284 12.8173 71.9888 13.546 71.9888 14.4365ZM70.5807 14.4796C70.5807 13.9293 70.4589 13.4574 70.2166 13.064C69.9317 12.5884 69.5262 12.3505 68.999 12.3505C68.4536 12.3505 68.039 12.5884 67.754 13.064C67.5105 13.4574 67.39 13.9369 67.39 14.5036C67.39 15.0539 67.5118 15.5257 67.754 15.9191C68.0481 16.3948 68.4575 16.6326 68.986 16.6326C69.5042 16.6326 69.9109 16.391 70.2037 15.9065C70.455 15.5055 70.5807 15.0298 70.5807 14.4796Z" fill="white"/>
<path d="M82.1661 11.5039L80.2554 17.4672H79.0117L78.2202 14.8777C78.0195 14.2313 77.8562 13.5886 77.7293 12.9511H77.7047C77.5868 13.6064 77.4236 14.2477 77.2137 14.8777L76.373 17.4672H75.1151L73.3184 11.5039H74.7135L75.404 14.3388C75.5711 15.0093 75.7084 15.6481 75.8185 16.2528H75.8431C75.9442 15.7543 76.1113 15.1193 76.3471 14.3514L77.2137 11.5052H78.32L79.1504 14.2907C79.3511 14.97 79.5144 15.624 79.64 16.254H79.6776C79.7696 15.6405 79.9082 14.9865 80.0921 14.2907L80.8331 11.5052H82.1661V11.5039Z" fill="white"/>
<path d="M89.2042 17.4674H87.8466V14.0519C87.8466 12.9994 87.4373 12.4731 86.616 12.4731C86.2131 12.4731 85.888 12.6174 85.6354 12.907C85.3853 13.1967 85.2584 13.5383 85.2584 13.9292V17.4661H83.9008V13.2081C83.9008 12.6844 83.8839 12.1164 83.8516 11.5016H85.0446L85.1081 12.4339H85.1457C85.3037 12.1442 85.5395 11.9052 85.8491 11.7141C86.217 11.4915 86.6289 11.3789 87.0797 11.3789C87.6497 11.3789 88.1239 11.5585 88.5008 11.9191C88.9698 12.3606 89.2042 13.0196 89.2042 13.895V17.4674Z" fill="white"/>
<path d="M92.9461 17.4671H91.5898V8.76758H92.9461V17.4671Z" fill="white"/>
<path d="M100.94 14.4365C100.94 15.3537 100.672 16.1051 100.136 16.6946C99.5733 17.3005 98.8271 17.6029 97.8983 17.6029C97.0006 17.6029 96.2868 17.3132 95.7557 16.7313C95.2245 16.1506 94.959 15.4182 94.959 14.5352C94.959 13.6118 95.2323 12.854 95.7816 12.2658C96.3308 11.6776 97.0692 11.3828 97.9981 11.3828C98.8958 11.3828 99.6147 11.6725 100.161 12.2531C100.68 12.8173 100.94 13.546 100.94 14.4365ZM99.5305 14.4796C99.5305 13.9293 99.4088 13.4574 99.1665 13.064C98.8828 12.5884 98.4761 12.3505 97.9501 12.3505C97.4034 12.3505 96.9889 12.5884 96.7052 13.064C96.4617 13.4574 96.3412 13.9369 96.3412 14.5036C96.3412 15.0539 96.463 15.5257 96.7052 15.9191C96.9993 16.3948 97.4086 16.6326 97.9372 16.6326C98.4553 16.6326 98.8608 16.391 99.1536 15.9065C99.4062 15.5055 99.5305 15.0298 99.5305 14.4796Z" fill="white"/>
<path d="M107.509 17.4675H106.29L106.189 16.7806H106.152C105.735 17.3284 105.14 17.6029 104.368 17.6029C103.792 17.6029 103.325 17.422 102.974 17.0627C102.655 16.7363 102.496 16.3303 102.496 15.8483C102.496 15.1197 102.807 14.5643 103.433 14.1797C104.057 13.7952 104.935 13.6067 106.066 13.6156V13.5042C106.066 12.7187 105.644 12.3265 104.798 12.3265C104.196 12.3265 103.665 12.4745 103.206 12.768L102.93 11.8977C103.497 11.5549 104.198 11.3828 105.025 11.3828C106.621 11.3828 107.421 12.2051 107.421 13.8496V16.0456C107.421 16.6415 107.451 17.1158 107.509 17.4675ZM106.1 15.4182V14.4985C104.602 14.4732 103.854 14.8742 103.854 15.7003C103.854 16.0115 103.939 16.2442 104.114 16.3998C104.289 16.5554 104.512 16.6326 104.777 16.6326C105.075 16.6326 105.354 16.5403 105.608 16.3568C105.863 16.1721 106.02 15.9381 106.078 15.651C106.092 15.5864 106.1 15.508 106.1 15.4182Z" fill="white"/>
<path d="M115.224 17.4671H114.019L113.956 16.5094H113.918C113.533 17.2381 112.878 17.6024 111.957 17.6024C111.221 17.6024 110.608 17.3203 110.123 16.7561C109.637 16.1919 109.395 15.4595 109.395 14.5601C109.395 13.5949 109.658 12.8131 110.186 12.216C110.698 11.6594 111.325 11.3811 112.071 11.3811C112.891 11.3811 113.465 11.6505 113.791 12.1907H113.817V8.76758H115.176V15.8605C115.176 16.4411 115.192 16.9762 115.224 17.4671ZM113.817 14.9522V13.9579C113.817 13.7859 113.804 13.6467 113.78 13.5405C113.703 13.2217 113.539 12.9535 113.289 12.7372C113.036 12.5209 112.732 12.4121 112.38 12.4121C111.874 12.4121 111.478 12.6082 111.186 13.0016C110.897 13.395 110.751 13.8972 110.751 14.5107C110.751 15.1002 110.889 15.5784 111.168 15.9465C111.462 16.3387 111.858 16.5347 112.355 16.5347C112.8 16.5347 113.156 16.3716 113.427 16.0439C113.689 15.7416 113.817 15.3773 113.817 14.9522Z" fill="white"/>
<path d="M126.836 14.4365C126.836 15.3537 126.568 16.1051 126.032 16.6946C125.47 17.3005 124.726 17.6029 123.795 17.6029C122.9 17.6029 122.186 17.3132 121.652 16.7313C121.121 16.1506 120.855 15.4182 120.855 14.5352C120.855 13.6118 121.129 12.854 121.678 12.2658C122.227 11.6776 122.966 11.3828 123.897 11.3828C124.792 11.3828 125.514 11.6725 126.058 12.2531C126.576 12.8173 126.836 13.546 126.836 14.4365ZM125.43 14.4796C125.43 13.9293 125.308 13.4574 125.066 13.064C124.779 12.5884 124.375 12.3505 123.847 12.3505C123.303 12.3505 122.888 12.5884 122.602 13.064C122.358 13.4574 122.238 13.9369 122.238 14.5036C122.238 15.0539 122.359 15.5257 122.602 15.9191C122.896 16.3948 123.305 16.6326 123.834 16.6326C124.352 16.6326 124.76 16.391 125.053 15.9065C125.303 15.5055 125.43 15.0298 125.43 14.4796Z" fill="white"/>
<path d="M134.135 17.4674H132.778V14.0519C132.778 12.9994 132.369 12.4731 131.546 12.4731C131.143 12.4731 130.818 12.6174 130.567 12.907C130.316 13.1967 130.19 13.5383 130.19 13.9292V17.4661H128.831V13.2081C128.831 12.6844 128.816 12.1164 128.783 11.5016H129.975L130.038 12.4339H130.076C130.235 12.1442 130.471 11.9052 130.779 11.7141C131.149 11.4915 131.559 11.3789 132.011 11.3789C132.58 11.3789 133.054 11.5585 133.431 11.9191C133.901 12.3606 134.135 13.0196 134.135 13.895V17.4674Z" fill="white"/>
<path d="M143.272 12.4977H141.777V15.3946C141.777 16.1308 142.043 16.4989 142.568 16.4989C142.812 16.4989 143.014 16.4787 143.173 16.4369L143.208 17.4426C142.94 17.5413 142.588 17.5906 142.154 17.5906C141.618 17.5906 141.201 17.4312 140.899 17.1124C140.596 16.7937 140.445 16.2573 140.445 15.5046V12.4977H139.553V11.5047H140.445V10.4117L141.776 10.0195V11.5034H143.271V12.4977H143.272Z" fill="white"/>
<path d="M150.46 17.4671H149.101V14.0768C149.101 13.0079 148.691 12.4728 147.871 12.4728C147.242 12.4728 146.812 12.7827 146.576 13.4026C146.536 13.5329 146.513 13.6923 146.513 13.8795V17.4658H145.156V8.76758H146.513V12.3615H146.538C146.966 11.7075 147.579 11.3811 148.373 11.3811C148.935 11.3811 149.4 11.5607 149.769 11.9213C150.229 12.3703 150.46 13.0383 150.46 13.9212V17.4671Z" fill="white"/>
<path d="M157.872 14.2015C157.872 14.4393 157.854 14.6392 157.822 14.8024H153.75C153.769 15.3919 153.963 15.841 154.34 16.1521C154.684 16.4304 155.129 16.5696 155.673 16.5696C156.275 16.5696 156.824 16.476 157.319 16.2875L157.532 17.2084C156.953 17.4538 156.271 17.5765 155.482 17.5765C154.537 17.5765 153.792 17.3046 153.253 16.7606C152.712 16.2167 152.443 15.4868 152.443 14.5709C152.443 13.6715 152.693 12.9226 153.197 12.3255C153.723 11.6879 154.434 11.3691 155.332 11.3691C156.21 11.3691 156.878 11.6879 157.328 12.3255C157.692 12.8315 157.872 13.4577 157.872 14.2015ZM156.577 13.8587C156.587 13.4653 156.498 13.1262 156.314 12.8403C156.078 12.4722 155.719 12.2875 155.234 12.2875C154.791 12.2875 154.429 12.4672 154.153 12.8277C153.928 13.1149 153.794 13.4577 153.75 13.8587H156.577Z" fill="white"/>
<path d="M70.351 40.3289H67.409L65.7975 35.384H60.1961L58.6611 40.3289H55.7969L61.3465 23.4941H64.7742L70.351 40.3289ZM65.3118 33.3094L63.8544 28.9134C63.7003 28.4644 63.4114 27.4068 62.9852 25.7421H62.9334C62.7637 26.4581 62.4903 27.5156 62.1147 28.9134L60.6832 33.3094H65.3118Z" fill="white"/>
<path d="M84.6234 34.1109C84.6234 36.1754 84.0521 37.8072 82.9095 39.0052C81.8861 40.0716 80.6153 40.6042 79.0984 40.6042C77.461 40.6042 76.2847 40.0298 75.5683 38.8812H75.5165V45.2759H72.7547V32.1868C72.7547 30.8889 72.7197 29.5568 72.6523 28.1906H75.0813L75.2354 30.1147H75.2872C76.2083 28.665 77.606 27.9414 79.4818 27.9414C80.9482 27.9414 82.1724 28.5069 83.1518 29.639C84.1337 30.7725 84.6234 32.2627 84.6234 34.1109ZM81.8097 34.2095C81.8097 33.028 81.5377 32.054 80.991 31.2874C80.3938 30.4879 79.5919 30.0881 78.5867 30.0881C77.9053 30.0881 77.2861 30.3108 76.7329 30.7497C76.1785 31.1925 75.8158 31.7706 75.6461 32.4866C75.5606 32.8206 75.5178 33.0938 75.5178 33.3088V35.3329C75.5178 36.2158 75.795 36.9609 76.3495 37.5694C76.9039 38.1779 77.6242 38.4815 78.5103 38.4815C79.5505 38.4815 80.3601 38.0893 80.9392 37.3075C81.5195 36.5245 81.8097 35.4923 81.8097 34.2095Z" fill="white"/>
<path d="M98.9189 34.1109C98.9189 36.1754 98.3477 37.8072 97.2038 39.0052C96.1817 40.0716 94.9109 40.6042 93.394 40.6042C91.7565 40.6042 90.5803 40.0298 89.8652 38.8812H89.8134V45.2759H87.0516V32.1868C87.0516 30.8889 87.0166 29.5568 86.9492 28.1906H89.3781L89.5323 30.1147H89.5841C90.5039 28.665 91.9016 27.9414 93.7787 27.9414C95.2438 27.9414 96.468 28.5069 97.4499 29.639C98.428 30.7725 98.9189 32.2627 98.9189 34.1109ZM96.1053 34.2095C96.1053 33.028 95.8319 32.054 95.2853 31.2874C94.6881 30.4879 93.8888 30.0881 92.8823 30.0881C92.1996 30.0881 91.5817 30.3108 91.0272 30.7497C90.4728 31.1925 90.1113 31.7706 89.9416 32.4866C89.8574 32.8206 89.8134 33.0938 89.8134 33.3088V35.3329C89.8134 36.2158 90.0906 36.9609 90.6425 37.5694C91.1969 38.1766 91.9172 38.4815 92.8058 38.4815C93.8461 38.4815 94.6557 38.0893 95.2348 37.3075C95.8151 36.5245 96.1053 35.4923 96.1053 34.2095Z" fill="white"/>
<path d="M114.904 35.6085C114.904 37.0405 114.395 38.2055 113.373 39.105C112.25 40.0879 110.686 40.5787 108.677 40.5787C106.822 40.5787 105.335 40.2296 104.209 39.53L104.849 37.2821C106.061 37.9981 107.392 38.3573 108.841 38.3573C109.882 38.3573 110.691 38.1271 111.273 37.6692C111.852 37.2112 112.141 36.5964 112.141 35.8298C112.141 35.1467 111.903 34.5712 111.424 34.1044C110.949 33.6376 110.155 33.2037 109.046 32.8027C106.028 31.7034 104.52 30.093 104.52 27.9754C104.52 26.5915 105.048 25.4568 106.107 24.5738C107.161 23.6895 108.568 23.248 110.327 23.248C111.896 23.248 113.199 23.515 114.239 24.0475L113.549 26.2461C112.577 25.73 111.479 25.4719 110.25 25.4719C109.278 25.4719 108.519 25.706 107.975 26.1715C107.515 26.5877 107.284 27.0949 107.284 27.6958C107.284 28.3612 107.547 28.9115 108.076 29.3441C108.536 29.7439 109.371 30.1765 110.584 30.6433C112.067 31.2265 113.156 31.9083 113.857 32.6901C114.556 33.4693 114.904 34.4447 114.904 35.6085Z" fill="white"/>
<path d="M124.037 30.2147H120.993V36.1084C120.993 37.6074 121.529 38.3563 122.605 38.3563C123.098 38.3563 123.507 38.3145 123.831 38.231L123.908 40.2791C123.364 40.4777 122.647 40.5776 121.76 40.5776C120.669 40.5776 119.817 40.2525 119.201 39.6036C118.589 38.9534 118.28 37.8629 118.28 36.331V30.2121H116.467V28.1881H118.28V25.9655L120.993 25.166V28.1881H124.037V30.2147Z" fill="white"/>
<path d="M137.771 34.1609C137.771 36.0268 137.225 37.5587 136.134 38.7567C134.99 39.9901 133.472 40.6049 131.579 40.6049C129.755 40.6049 128.303 40.0141 127.22 38.8326C126.137 37.6511 125.596 36.1596 125.596 34.362C125.596 32.481 126.153 30.9402 127.271 29.7422C128.386 28.543 129.891 27.9434 131.784 27.9434C133.608 27.9434 135.076 28.5341 136.183 29.7169C137.243 30.8643 137.771 32.3456 137.771 34.1609ZM134.906 34.2482C134.906 33.1286 134.661 32.1685 134.165 31.3677C133.586 30.3987 132.758 29.9155 131.685 29.9155C130.575 29.9155 129.732 30.4 129.153 31.3677C128.657 32.1698 128.412 33.1451 128.412 34.2988C128.412 35.4183 128.657 36.3784 129.153 37.1779C129.75 38.1469 130.584 38.6302 131.661 38.6302C132.715 38.6302 133.543 38.1368 134.14 37.1526C134.649 36.3367 134.906 35.3664 134.906 34.2482Z" fill="white"/>
<path d="M146.75 30.5625C146.477 30.5132 146.186 30.4879 145.88 30.4879C144.908 30.4879 144.157 30.8459 143.628 31.5631C143.168 32.1956 142.938 32.9951 142.938 33.9603V40.3297H140.177L140.203 32.0135C140.203 30.6144 140.168 29.3405 140.1 28.1919H142.505L142.606 30.5144H142.683C142.974 29.7162 143.434 29.0736 144.064 28.5916C144.679 28.1577 145.344 27.9414 146.06 27.9414C146.315 27.9414 146.546 27.9591 146.75 27.9907V30.5625Z" fill="white"/>
<path d="M159.102 33.6871C159.102 34.1703 159.07 34.5777 159.001 34.9104H150.715C150.748 36.1096 151.148 37.0267 151.918 37.6592C152.616 38.2247 153.519 38.5081 154.628 38.5081C155.854 38.5081 156.974 38.317 157.98 37.9337L158.413 39.806C157.237 40.3069 155.848 40.5561 154.246 40.5561C152.318 40.5561 150.805 40.002 149.704 38.8952C148.605 37.7883 148.055 36.3019 148.055 34.4373C148.055 32.6068 148.566 31.0824 149.591 29.8668C150.664 28.5689 152.113 27.9199 153.937 27.9199C155.729 27.9199 157.085 28.5689 158.006 29.8668C158.735 30.8978 159.102 32.1729 159.102 33.6871ZM156.468 32.9876C156.487 32.1881 156.307 31.4974 155.932 30.9142C155.454 30.164 154.72 29.7896 153.731 29.7896C152.828 29.7896 152.094 30.1552 151.533 30.8889C151.073 31.4721 150.8 32.1716 150.715 32.9863H156.468V32.9876Z" fill="white"/>
</svg>
