<?xml version="1.0" encoding="UTF-8"?>
<svg width="23px" height="24px" viewBox="0 0 23 24" version="1.1" xmlns="http://www.w3.org/2000/svg" xmlns:xlink="http://www.w3.org/1999/xlink">
    <title>attach</title>
    <g id="Chat" stroke="none" stroke-width="1" fill="none" fill-rule="evenodd">
        <g id="Global-chat-Copy" transform="translate(-744.000000, -970.000000)" fill="#535353" fill-rule="nonzero">
            <g id="Rectangle" transform="translate(725.000000, 619.000000)">
                <g id="attach" transform="translate(19.000000, 351.000000)">
                    <path d="M2.09527896,21.4813225 C-0.868439606,18.3585824 -0.633167049,13.4538533 2.45310794,10.4429516 L11.3661807,1.73746152 C13.5633048,-0.452784941 17.1279679,-0.589582942 19.494266,1.425537 C20.6744994,2.46982654 21.3651458,3.94080178 21.4052905,5.49573803 C21.4454353,7.05067428 20.8315725,8.55377835 19.706727,9.65483978 L11.2565955,17.905986 C9.92124039,19.245141 7.75541249,19.3544033 6.28590365,18.1567489 C5.53934465,17.5198226 5.09640827,16.6091998 5.06250398,15.6415892 C5.0285997,14.6739787 5.40675942,13.7359099 6.10698916,13.0506231 L14.6465779,4.70991871 C14.8212431,4.53937292 15.1043754,4.53937292 15.2790406,4.70991871 L15.9115033,5.32765159 C16.0861158,5.4982489 16.0861158,5.77478715 15.9115033,5.94538446 L7.43006183,14.2319171 C6.7535992,14.8694409 6.67652004,15.901961 7.25114734,16.6285808 C7.57094459,17.011071 8.04150427,17.2435482 8.5464553,17.2685199 C9.05140633,17.2934916 9.54360116,17.1086262 9.90131825,16.7596416 L18.3407149,8.5159221 C19.8826406,7.04872105 20.0083371,4.66947545 18.6292145,3.05505865 C17.8955148,2.23485648 16.8466582,1.74824316 15.732182,1.71099057 C14.6177058,1.67373799 13.5372421,2.08917647 12.7478478,2.85846757 L3.70461482,11.6919603 C1.28927648,14.0027277 1.13803246,17.7522889 3.35975713,20.2414881 C4.51114227,21.4828594 6.13298917,22.2092647 7.84739633,22.2514465 C9.5618035,22.2936284 11.21904,21.6479028 12.4329583,20.4647282 L21.6041152,11.5062909 C21.7787804,11.3357451 22.0619127,11.3357451 22.2365779,11.5062909 L22.8690407,12.1240238 C23.0436531,12.2946211 23.0436531,12.5711594 22.8690407,12.7417567 L13.6974365,21.7001939 C12.1482363,23.2101431 10.0369413,24.0398098 7.84874379,23.9985301 C5.66054626,23.9572503 3.58362716,23.0485742 2.09527896,21.4813225 Z" id="Path"></path>
                </g>
            </g>
        </g>
    </g>
</svg>