<svg width="75" height="75" viewBox="0 0 75 75" fill="none" xmlns="http://www.w3.org/2000/svg">
<rect width="75" height="75" rx="10" fill="white"/>
<path d="M29.4346 56.2143L18.2377 44.9025V19.5533C18.2377 19.5533 18.5634 19.5765 19.1394 19.5765C21.9456 19.567 24.7336 19.1254 27.4054 18.2671C29.2859 17.6637 31.0711 16.7962 32.7076 15.6906C34.5429 14.4412 36.119 12.8484 37.3489 11V16.7469C35.6771 18.1977 33.8339 19.4384 31.8606 20.4413C30.2729 21.2484 28.6115 21.9014 26.8991 22.3912C25.2782 22.8765 23.6072 23.1753 21.9185 23.2819L22.0813 43.2674L32.0918 53.6816L29.4346 56.2143ZM52.2853 49.3468L49.5856 46.6389L52.6151 43.2688L52.7779 23.2833C51.0902 23.1756 49.4203 22.8767 47.8 22.3925C46.088 21.9022 44.4271 21.2488 42.8399 20.4413C40.8665 19.4384 39.0234 18.1977 37.3516 16.7469V11C38.5819 12.8485 40.1584 14.4414 41.9943 15.6906C43.6307 16.7962 45.416 17.6637 47.2965 18.2671C49.9678 19.1252 52.7553 19.5669 55.561 19.5765C56.1275 19.5765 56.46 19.5533 56.4627 19.5533V44.9025L52.2908 49.3468H52.2853Z" fill="black"/>
<path d="M31.2143 58.1009L33.9863 55.3944L37.3359 58.7533L47.8718 48.2559L50.5991 50.9841L37.3399 64.1404L31.2143 58.1009Z" fill="#00CF2E"/>
</svg>
