<svg width="33" height="32" viewBox="0 0 33 32" fill="none" xmlns="http://www.w3.org/2000/svg">
<g id="liquor">
<mask id="mask0_7892_1051" style="mask-type:alpha" maskUnits="userSpaceOnUse" x="0" y="0" width="33" height="32">
<rect id="Bounding box" x="0.998047" width="32" height="32" fill="#D9D9D9"/>
</mask>
<g mask="url(#mask0_7892_1051)">
<path id="liquor_2" d="M4.99805 29.3334V26.6667H7.66471V22.4001C6.88694 22.1334 6.24805 21.6612 5.74805 20.9834C5.24805 20.3056 4.99805 19.5334 4.99805 18.6667V8.00008H12.998V18.6667C12.998 19.5334 12.748 20.3056 12.248 20.9834C11.748 21.6612 11.1092 22.1334 10.3314 22.4001V26.6667H12.998V29.3334H4.99805ZM7.66471 14.6667H10.3314V10.6667H7.66471V14.6667ZM8.99805 20.0001C9.37582 20.0001 9.69249 19.8723 9.94805 19.6167C10.2036 19.3612 10.3314 19.0445 10.3314 18.6667V17.3334H7.66471V18.6667C7.66471 19.0445 7.79249 19.3612 8.04805 19.6167C8.3036 19.8723 8.62027 20.0001 8.99805 20.0001ZM18.3314 29.3334C17.598 29.3334 16.9703 29.0723 16.448 28.5501C15.9258 28.0279 15.6647 27.4001 15.6647 26.6667V13.9334C15.6647 13.3556 15.8314 12.839 16.1647 12.3834C16.498 11.9279 16.9314 11.6001 17.4647 11.4001L18.7314 10.9334C19.0425 10.8223 19.2758 10.6612 19.4314 10.4501C19.5869 10.239 19.6647 9.97786 19.6647 9.66675V4.00008C19.6647 3.6223 19.7925 3.30564 20.048 3.05008C20.3036 2.79453 20.6203 2.66675 20.998 2.66675H24.998C25.3758 2.66675 25.6925 2.79453 25.948 3.05008C26.2036 3.30564 26.3314 3.6223 26.3314 4.00008V9.66675C26.3314 9.97786 26.4092 10.239 26.5647 10.4501C26.7203 10.6612 26.9536 10.8223 27.2647 10.9334L28.5314 11.4001C29.0647 11.6001 29.498 11.9279 29.8314 12.3834C30.1647 12.839 30.3314 13.3556 30.3314 13.9334V26.6667C30.3314 27.4001 30.0703 28.0279 29.548 28.5501C29.0258 29.0723 28.398 29.3334 27.6647 29.3334H18.3314ZM22.3314 6.66675H23.6647V5.33341H22.3314V6.66675ZM18.3314 16.0001H27.6647V13.9334L26.398 13.4667C25.5536 13.1556 24.8869 12.6667 24.398 12.0001C23.9092 11.3334 23.6647 10.5779 23.6647 9.73341V9.33341H22.3314V9.73341C22.3314 10.5779 22.0869 11.3334 21.598 12.0001C21.1092 12.6667 20.4425 13.1556 19.598 13.4667L18.3314 13.9334V16.0001ZM18.3314 26.6667H27.6647V24.0001H18.3314V26.6667ZM18.3314 21.3334H27.6647V18.6667H18.3314V21.3334Z" fill="#5E5E5E"/>
</g>
</g>
</svg>
