<svg xmlns="http://www.w3.org/2000/svg" width="18" height="22" viewBox="0 0 18 22">
    <g fill="none" fill-rule="evenodd">
        <g>
            <path fill="#E5E5E5" d="M0 0H1440V1024H0z" transform="translate(-357.000000, -646.000000)"/>
            <g>
                <path fill="#FFF" d="M0 402H585V518H0z" transform="translate(-357.000000, -646.000000) translate(187.000000, 173.000000)"/>
                <g stroke="#242429" stroke-linecap="square" stroke-width="1.5">
                    <g transform="translate(-357.000000, -646.000000) translate(187.000000, 173.000000) translate(169.000000, 470.000000) translate(1.000000, 3.000000)">
                        <path d="M1 1L17 1 17 20 13.667 18.69 11.667 20 9 18.69 6.333 20 4.333 18.69 1 20zM4 15.5L9 15.5M12 15.5L13 15.5M4 12.5L9 12.5M12 12.5L13 12.5"/>
                        <circle cx="8.5" cy="6.5" r="2.5"/>
                    </g>
                </g>
            </g>
        </g>
    </g>
</svg>
