<svg width="44" height="29" viewBox="0 0 44 29" fill="none" xmlns="http://www.w3.org/2000/svg">
<path d="M0 4.83333C0 3.55145 0.579463 2.32208 1.61091 1.41565C2.64236 0.509225 4.04131 0 5.5 0H38.5C39.9587 0 41.3576 0.509225 42.3891 1.41565C43.4205 2.32208 44 3.55145 44 4.83333V24.1667C44 25.4485 43.4205 26.6779 42.3891 27.5843C41.3576 28.4908 39.9587 29 38.5 29H5.5C4.04131 29 2.64236 28.4908 1.61091 27.5843C0.579463 26.6779 0 25.4485 0 24.1667V4.83333ZM6.875 7.25C6.51033 7.25 6.16059 7.37731 5.90273 7.60391C5.64487 7.83052 5.5 8.13786 5.5 8.45833V10.875C5.5 11.1955 5.64487 11.5028 5.90273 11.7294C6.16059 11.956 6.51033 12.0833 6.875 12.0833H12.375C12.7397 12.0833 13.0894 11.956 13.3473 11.7294C13.6051 11.5028 13.75 11.1955 13.75 10.875V8.45833C13.75 8.13786 13.6051 7.83052 13.3473 7.60391C13.0894 7.37731 12.7397 7.25 12.375 7.25H6.875ZM6.875 14.5C6.51033 14.5 6.16059 14.6273 5.90273 14.8539C5.64487 15.0805 5.5 15.3879 5.5 15.7083C5.5 16.0288 5.64487 16.3361 5.90273 16.5628C6.16059 16.7894 6.51033 16.9167 6.875 16.9167H20.625C20.9897 16.9167 21.3394 16.7894 21.5973 16.5628C21.8551 16.3361 22 16.0288 22 15.7083C22 15.3879 21.8551 15.0805 21.5973 14.8539C21.3394 14.6273 20.9897 14.5 20.625 14.5H6.875ZM6.875 19.3333C6.51033 19.3333 6.16059 19.4606 5.90273 19.6872C5.64487 19.9139 5.5 20.2212 5.5 20.5417C5.5 20.8621 5.64487 21.1695 5.90273 21.3961C6.16059 21.6227 6.51033 21.75 6.875 21.75H9.625C9.98967 21.75 10.3394 21.6227 10.5973 21.3961C10.8551 21.1695 11 20.8621 11 20.5417C11 20.2212 10.8551 19.9139 10.5973 19.6872C10.3394 19.4606 9.98967 19.3333 9.625 19.3333H6.875ZM15.125 19.3333C14.7603 19.3333 14.4106 19.4606 14.1527 19.6872C13.8949 19.9139 13.75 20.2212 13.75 20.5417C13.75 20.8621 13.8949 21.1695 14.1527 21.3961C14.4106 21.6227 14.7603 21.75 15.125 21.75H17.875C18.2397 21.75 18.5894 21.6227 18.8473 21.3961C19.1051 21.1695 19.25 20.8621 19.25 20.5417C19.25 20.2212 19.1051 19.9139 18.8473 19.6872C18.5894 19.4606 18.2397 19.3333 17.875 19.3333H15.125ZM23.375 19.3333C23.0103 19.3333 22.6606 19.4606 22.4027 19.6872C22.1449 19.9139 22 20.2212 22 20.5417C22 20.8621 22.1449 21.1695 22.4027 21.3961C22.6606 21.6227 23.0103 21.75 23.375 21.75H26.125C26.4897 21.75 26.8394 21.6227 27.0973 21.3961C27.3551 21.1695 27.5 20.8621 27.5 20.5417C27.5 20.2212 27.3551 19.9139 27.0973 19.6872C26.8394 19.4606 26.4897 19.3333 26.125 19.3333H23.375ZM31.625 19.3333C31.2603 19.3333 30.9106 19.4606 30.6527 19.6872C30.3949 19.9139 30.25 20.2212 30.25 20.5417C30.25 20.8621 30.3949 21.1695 30.6527 21.3961C30.9106 21.6227 31.2603 21.75 31.625 21.75H34.375C34.7397 21.75 35.0894 21.6227 35.3473 21.3961C35.6051 21.1695 35.75 20.8621 35.75 20.5417C35.75 20.2212 35.6051 19.9139 35.3473 19.6872C35.0894 19.4606 34.7397 19.3333 34.375 19.3333H31.625Z" fill="#CFCFCF"/>
</svg>
