<svg width="42" height="42" viewBox="0 0 42 42" fill="none" xmlns="http://www.w3.org/2000/svg">
<mask id="mask0_6024_13065" style="mask-type:alpha" maskUnits="userSpaceOnUse" x="-1" y="-1" width="43" height="43">
<path d="M-0.000976562 -0.000244141H41.6039V41.6047H-0.000976562V-0.000244141Z" fill="#1F183A"/>
</mask>
<g mask="url(#mask0_6024_13065)">
<path d="M6.02037 24.908C5.80139 24.908 5.60979 24.8259 5.44556 24.6617C5.28133 24.4974 5.19922 24.3058 5.19922 24.0869C5.19922 23.8679 5.28133 23.6763 5.44556 23.5121C5.60979 23.3478 5.80139 23.2657 6.02037 23.2657C6.23934 23.2657 6.43094 23.3478 6.59517 23.5121C6.7594 23.6763 6.84152 23.8679 6.84152 24.0869C6.84152 24.3058 6.7594 24.4974 6.59517 24.6617C6.43094 24.8259 6.23934 24.908 6.02037 24.908ZM6.02037 18.3388C5.80139 18.3388 5.60979 18.2567 5.44556 18.0925C5.28133 17.9283 5.19922 17.7367 5.19922 17.5177C5.19922 17.2987 5.28133 17.1071 5.44556 16.9429C5.60979 16.7786 5.80139 16.6965 6.02037 16.6965C6.23934 16.6965 6.43094 16.7786 6.59517 16.9429C6.7594 17.1071 6.84152 17.2987 6.84152 17.5177C6.84152 17.7367 6.7594 17.9283 6.59517 18.0925C6.43094 18.2567 6.23934 18.3388 6.02037 18.3388ZM10.9473 32.2984C10.4819 32.2984 10.0919 32.141 9.77713 31.8262C9.46235 31.5114 9.30497 31.1214 9.30497 30.6561C9.30497 30.1908 9.46235 29.8007 9.77713 29.4859C10.0919 29.1712 10.4819 29.0138 10.9473 29.0138C11.4126 29.0138 11.8026 29.1712 12.1174 29.4859C12.4322 29.8007 12.5896 30.1908 12.5896 30.6561C12.5896 31.1214 12.4322 31.5114 12.1174 31.8262C11.8026 32.141 11.4126 32.2984 10.9473 32.2984ZM10.9473 25.7292C10.4819 25.7292 10.0919 25.5718 9.77713 25.257C9.46235 24.9422 9.30497 24.5522 9.30497 24.0869C9.30497 23.6216 9.46235 23.2315 9.77713 22.9167C10.0919 22.602 10.4819 22.4446 10.9473 22.4446C11.4126 22.4446 11.8026 22.602 12.1174 22.9167C12.4322 23.2315 12.5896 23.6216 12.5896 24.0869C12.5896 24.5522 12.4322 24.9422 12.1174 25.257C11.8026 25.5718 11.4126 25.7292 10.9473 25.7292ZM10.9473 19.16C10.4819 19.16 10.0919 19.0026 9.77713 18.6878C9.46235 18.373 9.30497 17.983 9.30497 17.5177C9.30497 17.0524 9.46235 16.6623 9.77713 16.3475C10.0919 16.0328 10.4819 15.8754 10.9473 15.8754C11.4126 15.8754 11.8026 16.0328 12.1174 16.3475C12.4322 16.6623 12.5896 17.0524 12.5896 17.5177C12.5896 17.983 12.4322 18.373 12.1174 18.6878C11.8026 19.0026 11.4126 19.16 10.9473 19.16ZM10.9473 12.5908C10.4819 12.5908 10.0919 12.4334 9.77713 12.1186C9.46235 11.8038 9.30497 11.4138 9.30497 10.9485C9.30497 10.4832 9.46235 10.0931 9.77713 9.77835C10.0919 9.46357 10.4819 9.30619 10.9473 9.30619C11.4126 9.30619 11.8026 9.46357 12.1174 9.77835C12.4322 10.0931 12.5896 10.4832 12.5896 10.9485C12.5896 11.4138 12.4322 11.8038 12.1174 12.1186C11.8026 12.4334 11.4126 12.5908 10.9473 12.5908ZM17.5165 26.5503C16.8322 26.5503 16.2505 26.3108 15.7715 25.8318C15.2925 25.3528 15.053 24.7712 15.053 24.0869C15.053 23.4026 15.2925 22.8209 15.7715 22.3419C16.2505 21.8629 16.8322 21.6234 17.5165 21.6234C18.2007 21.6234 18.7824 21.8629 19.2614 22.3419C19.7404 22.8209 19.9799 23.4026 19.9799 24.0869C19.9799 24.7712 19.7404 25.3528 19.2614 25.8318C18.7824 26.3108 18.2007 26.5503 17.5165 26.5503ZM17.5165 19.9811C16.8322 19.9811 16.2505 19.7416 15.7715 19.2626C15.2925 18.7836 15.053 18.202 15.053 17.5177C15.053 16.8334 15.2925 16.2517 15.7715 15.7727C16.2505 15.2937 16.8322 15.0542 17.5165 15.0542C18.2007 15.0542 18.7824 15.2937 19.2614 15.7727C19.7404 16.2517 19.9799 16.8334 19.9799 17.5177C19.9799 18.202 19.7404 18.7836 19.2614 19.2626C18.7824 19.7416 18.2007 19.9811 17.5165 19.9811ZM17.5165 32.2984C17.0511 32.2984 16.6611 32.141 16.3463 31.8262C16.0315 31.5114 15.8742 31.1214 15.8742 30.6561C15.8742 30.1908 16.0315 29.8007 16.3463 29.4859C16.6611 29.1712 17.0511 29.0138 17.5165 29.0138C17.9818 29.0138 18.3718 29.1712 18.6866 29.4859C19.0014 29.8007 19.1588 30.1908 19.1588 30.6561C19.1588 31.1214 19.0014 31.5114 18.6866 31.8262C18.3718 32.141 17.9818 32.2984 17.5165 32.2984ZM17.5165 12.5908C17.0511 12.5908 16.6611 12.4334 16.3463 12.1186C16.0315 11.8038 15.8742 11.4138 15.8742 10.9485C15.8742 10.4832 16.0315 10.0931 16.3463 9.77835C16.6611 9.46357 17.0511 9.30619 17.5165 9.30619C17.9818 9.30619 18.3718 9.46357 18.6866 9.77835C19.0014 10.0931 19.1588 10.4832 19.1588 10.9485C19.1588 11.4138 19.0014 11.8038 18.6866 12.1186C18.3718 12.4334 17.9818 12.5908 17.5165 12.5908ZM17.5165 36.4041C17.2975 36.4041 17.1059 36.322 16.9417 36.1578C16.7774 35.9935 16.6953 35.8019 16.6953 35.583C16.6953 35.364 16.7774 35.1724 16.9417 35.0082C17.1059 34.8439 17.2975 34.7618 17.5165 34.7618C17.7354 34.7618 17.927 34.8439 18.0913 35.0082C18.2555 35.1724 18.3376 35.364 18.3376 35.583C18.3376 35.8019 18.2555 35.9935 18.0913 36.1578C17.927 36.322 17.7354 36.4041 17.5165 36.4041ZM17.5165 6.84274C17.2975 6.84274 17.1059 6.76062 16.9417 6.59639C16.7774 6.43216 16.6953 6.24056 16.6953 6.02159C16.6953 5.80262 16.7774 5.61101 16.9417 5.44678C17.1059 5.28255 17.2975 5.20044 17.5165 5.20044C17.7354 5.20044 17.927 5.28255 18.0913 5.44678C18.2555 5.61101 18.3376 5.80262 18.3376 6.02159C18.3376 6.24056 18.2555 6.43216 18.0913 6.59639C17.927 6.76062 17.7354 6.84274 17.5165 6.84274ZM24.0857 26.5503C23.4014 26.5503 22.8197 26.3108 22.3407 25.8318C21.8617 25.3528 21.6222 24.7712 21.6222 24.0869C21.6222 23.4026 21.8617 22.8209 22.3407 22.3419C22.8197 21.8629 23.4014 21.6234 24.0857 21.6234C24.7699 21.6234 25.3516 21.8629 25.8306 22.3419C26.3096 22.8209 26.5491 23.4026 26.5491 24.0869C26.5491 24.7712 26.3096 25.3528 25.8306 25.8318C25.3516 26.3108 24.7699 26.5503 24.0857 26.5503ZM24.0857 19.9811C23.4014 19.9811 22.8197 19.7416 22.3407 19.2626C21.8617 18.7836 21.6222 18.202 21.6222 17.5177C21.6222 16.8334 21.8617 16.2517 22.3407 15.7727C22.8197 15.2937 23.4014 15.0542 24.0857 15.0542C24.7699 15.0542 25.3516 15.2937 25.8306 15.7727C26.3096 16.2517 26.5491 16.8334 26.5491 17.5177C26.5491 18.202 26.3096 18.7836 25.8306 19.2626C25.3516 19.7416 24.7699 19.9811 24.0857 19.9811ZM24.0857 32.2984C23.6203 32.2984 23.2303 32.141 22.9155 31.8262C22.6007 31.5114 22.4434 31.1214 22.4434 30.6561C22.4434 30.1908 22.6007 29.8007 22.9155 29.4859C23.2303 29.1712 23.6203 29.0138 24.0857 29.0138C24.551 29.0138 24.941 29.1712 25.2558 29.4859C25.5706 29.8007 25.728 30.1908 25.728 30.6561C25.728 31.1214 25.5706 31.5114 25.2558 31.8262C24.941 32.141 24.551 32.2984 24.0857 32.2984ZM24.0857 12.5908C23.6203 12.5908 23.2303 12.4334 22.9155 12.1186C22.6007 11.8038 22.4434 11.4138 22.4434 10.9485C22.4434 10.4832 22.6007 10.0931 22.9155 9.77835C23.2303 9.46357 23.6203 9.30619 24.0857 9.30619C24.551 9.30619 24.941 9.46357 25.2558 9.77835C25.5706 10.0931 25.728 10.4832 25.728 10.9485C25.728 11.4138 25.5706 11.8038 25.2558 12.1186C24.941 12.4334 24.551 12.5908 24.0857 12.5908ZM24.0857 36.4041C23.8667 36.4041 23.6751 36.322 23.5108 36.1578C23.3466 35.9935 23.2645 35.8019 23.2645 35.583C23.2645 35.364 23.3466 35.1724 23.5108 35.0082C23.6751 34.8439 23.8667 34.7618 24.0857 34.7618C24.3046 34.7618 24.4962 34.8439 24.6605 35.0082C24.8247 35.1724 24.9068 35.364 24.9068 35.583C24.9068 35.8019 24.8247 35.9935 24.6605 36.1578C24.4962 36.322 24.3046 36.4041 24.0857 36.4041ZM24.0857 6.84274C23.8667 6.84274 23.6751 6.76062 23.5108 6.59639C23.3466 6.43216 23.2645 6.24056 23.2645 6.02159C23.2645 5.80262 23.3466 5.61101 23.5108 5.44678C23.6751 5.28255 23.8667 5.20044 24.0857 5.20044C24.3046 5.20044 24.4962 5.28255 24.6605 5.44678C24.8247 5.61101 24.9068 5.80262 24.9068 6.02159C24.9068 6.24056 24.8247 6.43216 24.6605 6.59639C24.4962 6.76062 24.3046 6.84274 24.0857 6.84274ZM30.6548 32.2984C30.1895 32.2984 29.7995 32.141 29.4847 31.8262C29.1699 31.5114 29.0125 31.1214 29.0125 30.6561C29.0125 30.1908 29.1699 29.8007 29.4847 29.4859C29.7995 29.1712 30.1895 29.0138 30.6548 29.0138C31.1202 29.0138 31.5102 29.1712 31.825 29.4859C32.1398 29.8007 32.2971 30.1908 32.2971 30.6561C32.2971 31.1214 32.1398 31.5114 31.825 31.8262C31.5102 32.141 31.1202 32.2984 30.6548 32.2984ZM30.6548 25.7292C30.1895 25.7292 29.7995 25.5718 29.4847 25.257C29.1699 24.9422 29.0125 24.5522 29.0125 24.0869C29.0125 23.6216 29.1699 23.2315 29.4847 22.9167C29.7995 22.602 30.1895 22.4446 30.6548 22.4446C31.1202 22.4446 31.5102 22.602 31.825 22.9167C32.1398 23.2315 32.2971 23.6216 32.2971 24.0869C32.2971 24.5522 32.1398 24.9422 31.825 25.257C31.5102 25.5718 31.1202 25.7292 30.6548 25.7292ZM30.6548 19.16C30.1895 19.16 29.7995 19.0026 29.4847 18.6878C29.1699 18.373 29.0125 17.983 29.0125 17.5177C29.0125 17.0524 29.1699 16.6623 29.4847 16.3475C29.7995 16.0328 30.1895 15.8754 30.6548 15.8754C31.1202 15.8754 31.5102 16.0328 31.825 16.3475C32.1398 16.6623 32.2971 17.0524 32.2971 17.5177C32.2971 17.983 32.1398 18.373 31.825 18.6878C31.5102 19.0026 31.1202 19.16 30.6548 19.16ZM30.6548 12.5908C30.1895 12.5908 29.7995 12.4334 29.4847 12.1186C29.1699 11.8038 29.0125 11.4138 29.0125 10.9485C29.0125 10.4832 29.1699 10.0931 29.4847 9.77835C29.7995 9.46357 30.1895 9.30619 30.6548 9.30619C31.1202 9.30619 31.5102 9.46357 31.825 9.77835C32.1398 10.0931 32.2971 10.4832 32.2971 10.9485C32.2971 11.4138 32.1398 11.8038 31.825 12.1186C31.5102 12.4334 31.1202 12.5908 30.6548 12.5908ZM35.5817 24.908C35.3628 24.908 35.1712 24.8259 35.0069 24.6617C34.8427 24.4974 34.7606 24.3058 34.7606 24.0869C34.7606 23.8679 34.8427 23.6763 35.0069 23.5121C35.1712 23.3478 35.3628 23.2657 35.5817 23.2657C35.8007 23.2657 35.9923 23.3478 36.1565 23.5121C36.3208 23.6763 36.4029 23.8679 36.4029 24.0869C36.4029 24.3058 36.3208 24.4974 36.1565 24.6617C35.9923 24.8259 35.8007 24.908 35.5817 24.908ZM35.5817 18.3388C35.3628 18.3388 35.1712 18.2567 35.0069 18.0925C34.8427 17.9283 34.7606 17.7367 34.7606 17.5177C34.7606 17.2987 34.8427 17.1071 35.0069 16.9429C35.1712 16.7786 35.3628 16.6965 35.5817 16.6965C35.8007 16.6965 35.9923 16.7786 36.1565 16.9429C36.3208 17.1071 36.4029 17.2987 36.4029 17.5177C36.4029 17.7367 36.3208 17.9283 36.1565 18.0925C35.9923 18.2567 35.8007 18.3388 35.5817 18.3388Z" fill="#303030"/>
</g>
</svg>
