<svg width="22" height="22" viewBox="0 0 22 22" fill="none" xmlns="http://www.w3.org/2000/svg">
<path d="M10.9999 1.85156C5.94906 1.85156 1.85156 5.94906 1.85156 10.9999C1.85156 16.0507 5.94906 20.1482 10.9999 20.1482C16.0507 20.1482 20.1482 16.0507 20.1482 10.9999C20.1482 5.94906 16.0507 1.85156 10.9999 1.85156ZM10.5232 16.3899V12.5949H8.0849C7.74573 12.5949 7.51656 12.2282 7.68156 11.9257L11.0549 5.35323C11.2657 4.9224 11.9166 5.07823 11.9166 5.56406V9.4049H14.2449C14.5841 9.4049 14.8041 9.76239 14.6574 10.0649L11.3941 16.5916C11.1741 17.0316 10.5232 16.8757 10.5232 16.3899Z" fill="#242429"/>
</svg>
