<svg width="24" height="24" viewBox="0 0 24 24" fill="none" xmlns="http://www.w3.org/2000/svg">
<path d="M11.9995 2.01953C6.48953 2.01953 2.01953 6.48953 2.01953 11.9995C2.01953 17.5095 6.48953 21.9795 11.9995 21.9795C17.5095 21.9795 21.9795 17.5095 21.9795 11.9995C21.9795 6.48953 17.5095 2.01953 11.9995 2.01953ZM11.4795 17.8795V13.7395H8.81953C8.44953 13.7395 8.19953 13.3395 8.37953 13.0095L12.0595 5.83953C12.2895 5.36953 12.9995 5.53953 12.9995 6.06953V10.2595H15.5395C15.9095 10.2595 16.1495 10.6495 15.9895 10.9795L12.4295 18.0995C12.1895 18.5795 11.4795 18.4095 11.4795 17.8795Z" fill="#fff"/>
</svg>
