<svg width="140" height="210" viewBox="0 0 140 210" fill="none" xmlns="http://www.w3.org/2000/svg">
<mask id="mask0_2666_5881" style="mask-type:luminance" maskUnits="userSpaceOnUse" x="0" y="0" width="140" height="210">
<path d="M9.17939e-06 210L0 6.11959e-06L140 0L140 210L9.17939e-06 210Z" fill="white"/>
</mask>
<g mask="url(#mask0_2666_5881)">
<path d="M39.1189 191.685C43.8257 184.237 47.3061 176.08 50.3441 167.834C53.3961 159.558 56.1709 151.169 59.0325 142.828C60.0517 139.854 61.0373 136.861 62.0453 133.876C67.1917 121.332 70.5237 112.201 70.5237 112.201L66.0353 111.501C66.0353 111.501 65.9457 111.706 65.7749 112.089C64.3413 115.309 57.1257 131.124 48.3197 143.528C45.1809 146.848 41.4177 150.032 37.1393 151.541C34.5773 152.446 31.7773 152.605 29.3217 151.3C27.2189 150.183 25.6341 148.307 24.4917 146.252C23.6237 137.424 24.5813 125.207 25.7797 114.497C27.0173 103.426 27.8489 92.5872 28.2437 82.3672C29.5177 72.7072 30.8645 63.0584 31.9453 53.3816C33.0513 43.4836 33.6589 33.2888 30.9345 23.5868C28.7869 15.9372 24.0045 6.35559 14.9773 5.78999C4.43528 5.12919 -1.51472 15.4332 -4.48272 23.9872C-4.72352 24.6816 -4.41831 25.2164 -3.93111 25.488C-32.2783 60.0344 -7.36952 58.9172 -7.36952 58.9172C-7.36952 58.9172 9.50609 28.3272 11.0517 47.3588C11.0657 47.538 11.0769 47.7228 11.0881 47.9076C10.8305 47.7704 10.5533 47.6472 10.2537 47.5464C6.82088 46.3872 3.78568 49.6436 1.59048 51.8248C-0.954717 54.356 -3.10232 57.3044 -4.08232 60.796C-4.33992 61.7172 -2.90912 62.112 -2.65152 61.1908C-1.82551 58.248 -0.100713 55.7392 1.98808 53.5384C3.79408 51.6372 6.91049 47.9272 9.85609 48.9744C10.3797 49.162 10.8109 49.428 11.1693 49.7556C11.7433 74.2808 -6.02272 124.182 -8.84512 153.319C-9.79432 163.114 -5.56352 171.525 -5.46552 181.034C-5.44032 183.492 -5.68671 186.029 -4.8411 188.336C-3.6763 191.511 -0.705505 193.603 2.10289 195.487C5.18849 197.559 8.31049 199.651 11.7965 200.933C23.7161 205.315 32.4577 202.207 39.1133 191.679L39.1189 191.685ZM-0.62992 21.7024C2.05808 15.2736 6.54088 8.66559 14.1233 8.56759C22.8985 8.45279 27.0873 19.2272 28.7281 26.2636C30.8701 35.428 30.1057 44.9452 29.0501 54.1992C28.8261 56.1536 28.5937 58.1052 28.3585 60.0568C27.1377 23.2928 18.2281 1.77479 -0.62992 21.7024ZM24.8921 149.326C26.9669 151.866 29.8229 153.672 33.2753 153.672C37.0413 153.672 40.5777 151.838 43.6577 149.539C41.2553 152.339 38.7969 154.725 36.3525 156.41C29.5233 161.114 26.2165 157.172 24.8921 149.326ZM16.8589 199.239C23.1085 200.449 29.4897 197.884 34.7341 189.77C39.4493 182.476 44.2709 173.339 48.7901 163.92C46.3849 170.69 43.7585 177.394 40.4293 183.769C36.9461 190.442 32.3429 199.228 24.2145 200.782C21.4369 201.314 19.0205 200.58 16.8589 199.239Z" fill="url(#paint0_radial_2666_5881)"/>
<path d="M68.051 111.627C68.051 111.627 48.6666 157.36 36.9962 165.371C25.3286 173.381 16.9678 165.023 19.233 140.641C21.4982 116.259 30.5534 53.3902 22.7162 31.4494C14.879 9.50576 3.21142 18.3874 -6.19379 32.1466C-15.599 45.9058 -12.2894 56.3526 -12.2894 56.3526L-6.19379 41.549C-6.19379 41.549 14.669 10.357 21.8454 36.3242C28.0922 58.9342 0.57662 153.692 17.4914 173.729C40.1322 200.547 68.051 111.627 68.051 111.627Z" fill="url(#paint1_radial_2666_5881)"/>
<path d="M11.8016 200.94C23.7212 205.322 32.4628 202.214 39.1184 191.686C43.8252 184.238 47.3056 176.081 50.3436 167.835C53.3956 159.559 56.1704 151.17 59.032 142.829C59.1384 142.521 59.2392 142.213 59.3456 141.905C61.7872 132.315 63.1172 125.667 63.1172 125.667C63.1172 125.667 40.2216 186.724 26.2972 197.941C29.2848 196.426 32.1464 193.775 34.7336 189.773C39.4488 182.479 44.2704 173.343 48.7896 163.924C46.3844 170.694 43.758 177.397 40.4288 183.773C36.9456 190.445 32.3424 199.232 24.214 200.786C21.7472 201.256 19.5632 200.73 17.592 199.666C4.58319 196.877 -11.1612 175.58 -7.41481 151.439C-3.06081 123.399 19.7536 62.6227 16.2704 44.6831C13.8372 32.1559 5.62758 40.3543 0.898381 46.4415C5.41758 40.9059 10.2532 37.5907 11.0484 47.3627C11.0624 47.5419 11.0736 47.7267 11.0848 47.9115C10.8272 47.7743 10.55 47.6511 10.2504 47.5503C6.81758 46.3911 3.78239 49.6475 1.58719 51.8287C-0.958015 54.3599 -3.10562 57.3083 -4.08562 60.7999C-4.34322 61.7211 -2.91242 62.1159 -2.65482 61.1947C-1.82882 58.2519 -0.104018 55.7431 1.98478 53.5423C3.79078 51.6411 6.90719 47.9311 9.85278 48.9783C10.3764 49.1659 10.8076 49.4319 11.166 49.7595C11.74 74.2847 -6.026 124.186 -8.84841 153.323C-9.7976 163.117 -5.56682 171.529 -5.46882 181.037C-5.44362 183.496 -5.69 186.033 -4.84441 188.34C-3.6796 191.515 -0.70881 193.607 2.09959 195.491C5.18519 197.563 8.30719 199.655 11.7932 200.937L11.8016 200.94Z" fill="url(#paint2_radial_2666_5881)"/>
<g style="mix-blend-mode:multiply" opacity="0.45">
<path d="M12.5549 14.1183C10.0937 14.0091 7.32733 15.0171 4.24173 17.3019C6.69173 15.7479 9.51693 14.4907 12.5549 14.1183Z" fill="url(#paint3_radial_2666_5881)"/>
<path d="M31.2115 163.543C45.2647 161.149 66.4243 112.782 66.4243 112.782L66.0379 111.499C66.0379 111.499 65.9483 111.704 65.7775 112.087C64.3439 115.307 57.1283 131.122 48.3223 143.526C45.1835 146.846 41.4203 150.03 37.1419 151.539C34.5799 152.444 31.7799 152.603 29.3243 151.298C27.2215 150.181 25.6367 148.305 24.4943 146.25C23.9763 140.983 24.1079 134.51 24.5531 127.868C24.5839 127.403 24.6175 126.938 24.6511 126.474C24.6595 126.37 24.6651 126.269 24.6735 126.166C24.7099 125.684 24.7463 125.2 24.7855 124.718C24.7939 124.603 24.8051 124.486 24.8135 124.371C24.8527 123.9 24.8919 123.43 24.9311 122.962C24.9339 122.915 24.9395 122.867 24.9423 122.82C24.9843 122.344 25.0263 121.87 25.0711 121.397C25.0823 121.266 25.0963 121.137 25.1075 121.005C25.1523 120.54 25.1943 120.078 25.2419 119.616C25.2531 119.488 25.2671 119.362 25.2811 119.236C25.3203 118.832 25.3623 118.429 25.4015 118.029C25.4127 117.928 25.4211 117.824 25.4323 117.724C25.4799 117.273 25.5275 116.822 25.5751 116.374C25.5919 116.22 25.6087 116.066 25.6255 115.912C25.6759 115.439 25.7291 114.966 25.7823 114.495C27.0199 103.424 27.8515 92.5852 28.2463 82.3652C29.5203 72.7052 30.8671 63.0564 31.9479 53.3796C33.0539 43.4816 33.6615 33.2868 30.9371 23.5848C28.7895 15.9352 24.0071 6.35364 14.9799 5.78804C4.43791 5.12724 -1.51208 15.4312 -4.48009 23.9852C-4.50809 24.0608 -4.52489 24.1364 -4.53889 24.2092C-4.54169 24.2288 -4.54449 24.2456 -4.54729 24.2652C-4.55849 24.3324 -4.56409 24.3996 -4.56409 24.464C-4.56409 24.4808 -4.56408 24.4948 -4.56128 24.5088C-4.56128 24.5564 -4.55288 24.604 -4.54448 24.6488C-4.53888 24.674 -4.53609 24.6992 -4.53049 24.7216C-4.51929 24.7664 -4.50529 24.8112 -4.48849 24.8532C-4.47449 24.8868 -4.46049 24.9204 -4.44369 24.9512C-4.43249 24.9736 -4.42129 24.9932 -4.41009 25.0156C-4.39329 25.0436 -4.37649 25.0744 -4.35689 25.1024C-3.71848 24.3044 -2.25689 22.5712 -0.19609 20.7064C-0.11489 20.5244 -0.0308832 20.3396 0.0559165 20.1576C0.0615164 20.1464 0.0671164 20.1324 0.0727164 20.1212C0.153916 19.9476 0.235116 19.774 0.319115 19.6004C0.330315 19.578 0.338715 19.5584 0.349915 19.536C0.431115 19.3708 0.512314 19.2056 0.596314 19.0404C0.610314 19.0124 0.624314 18.9844 0.641114 18.9536C0.722313 18.794 0.803521 18.6372 0.88752 18.4776C0.90432 18.444 0.923913 18.4104 0.940713 18.3768C1.02191 18.2228 1.10591 18.0688 1.18991 17.9176C1.20951 17.8812 1.22911 17.8448 1.25151 17.8084C1.33551 17.66 1.41952 17.5088 1.50632 17.3632C1.52872 17.324 1.55111 17.2876 1.57351 17.2484C1.65751 17.1028 1.74432 16.9572 1.83112 16.8144C1.85632 16.7752 1.87871 16.736 1.90391 16.6968C1.99071 16.554 2.08032 16.4112 2.16991 16.2712C2.19511 16.2348 2.21751 16.1956 2.24271 16.1592C2.33511 16.0164 2.42751 15.8764 2.51991 15.7364C2.54231 15.7028 2.56471 15.6692 2.58991 15.6356C2.68791 15.4928 2.78591 15.35 2.88391 15.21C2.90071 15.1876 2.91752 15.1652 2.93152 15.1428C3.38511 14.51 3.86952 13.9024 4.37912 13.3312C4.40152 13.306 4.42111 13.2808 4.44351 13.2556C4.53591 13.1548 4.62831 13.0568 4.72351 12.956C4.77391 12.9028 4.82432 12.8468 4.87752 12.7936C4.96152 12.7068 5.04831 12.62 5.13511 12.536C5.19671 12.4744 5.26112 12.41 5.32272 12.3484C5.40392 12.27 5.48791 12.1916 5.57191 12.116C5.64191 12.0516 5.71191 11.9872 5.78191 11.9228C5.86311 11.85 5.94431 11.78 6.02831 11.71C6.10391 11.6456 6.17952 11.5784 6.25792 11.5168C6.33912 11.4496 6.42312 11.3852 6.50431 11.3208C6.58552 11.2564 6.66391 11.1948 6.74511 11.1332C6.82631 11.0716 6.91032 11.01 6.99432 10.9512C7.07832 10.8896 7.16232 10.8308 7.24912 10.772C7.33312 10.7132 7.41711 10.6572 7.50111 10.604C7.58792 10.5452 7.67751 10.4892 7.76711 10.4332C7.85111 10.38 7.93792 10.3296 8.02472 10.2764C8.11712 10.2232 8.20951 10.17 8.30191 10.1168C8.38871 10.0692 8.47551 10.0216 8.56231 9.97404C8.65751 9.92364 8.75271 9.87324 8.85071 9.82564C8.93751 9.78084 9.02711 9.73884 9.11671 9.69684C9.21471 9.64924 9.31551 9.60724 9.41631 9.56244C9.50591 9.52324 9.59551 9.48404 9.68511 9.44764C9.78871 9.40564 9.89231 9.36644 9.99871 9.32724C10.0883 9.29364 10.1807 9.26004 10.2703 9.22644C10.3767 9.19004 10.4859 9.15364 10.5951 9.12004C10.6875 9.09204 10.7771 9.06124 10.8695 9.03604C10.9815 9.00244 11.0963 8.97444 11.2111 8.94644C11.3035 8.92404 11.3959 8.89884 11.4883 8.87644C11.6059 8.84844 11.7291 8.82604 11.8495 8.80084C11.9419 8.78404 12.0315 8.76164 12.1239 8.74764C12.2527 8.72524 12.3815 8.70844 12.5131 8.68884C12.5999 8.67764 12.6867 8.66084 12.7735 8.65244C12.9191 8.63564 13.0675 8.62164 13.2159 8.61044C13.2915 8.60484 13.3643 8.59364 13.4427 8.59084C13.6667 8.57684 13.8963 8.56564 14.1259 8.56284C22.9011 8.44804 27.0899 19.2224 28.7307 26.2588C30.8727 35.4232 30.1083 44.9404 29.0527 54.1944C28.9155 55.3956 28.7727 56.594 28.6299 57.7952C26.3311 87.002 25.0095 107.492 23.6263 120.288C20.7227 147.14 19.0203 165.612 31.2115 163.534L31.2115 163.543ZM24.8947 149.327C26.9695 151.867 29.8255 153.673 33.2779 153.673C37.0439 153.673 40.5803 151.839 43.6603 149.54C41.2579 152.34 38.7995 154.726 36.3551 156.411C29.5259 161.115 26.2191 157.173 24.8947 149.327Z" fill="url(#paint4_radial_2666_5881)"/>
</g>
<g opacity="0.45">
<path d="M12.0713 69.8995C11.4161 62.3759 11.3825 55.4375 11.1809 50.3107C11.1809 50.1287 11.1809 49.9411 11.1753 49.7619C11.1697 49.7563 11.1641 49.7535 11.1585 49.7479C11.1305 49.0983 11.0997 48.4795 11.0633 47.8971C11.0717 47.9027 11.0829 47.9055 11.0913 47.9111C11.0801 47.7291 11.0689 47.5415 11.0549 47.3623C11.0381 47.1719 11.0213 46.9899 11.0045 46.8079C11.0017 46.7799 10.9989 46.7519 10.9961 46.7239C10.9765 46.5503 10.9569 46.3795 10.9373 46.2143C10.6573 43.2631 10.1533 41.5411 9.09206 41.5607C9.01926 41.5047 8.94367 41.4543 8.86527 41.4095C8.85967 41.4095 8.85686 41.4039 8.85126 41.4011C8.61886 41.2667 8.37246 41.1827 8.11206 41.1463C8.10926 41.1463 8.10366 41.1463 8.10086 41.1463C7.84046 41.1099 7.56886 41.1211 7.28606 41.1743C7.28326 41.1743 7.28046 41.1743 7.27766 41.1743C6.99486 41.2303 6.70086 41.3255 6.39846 41.4627C6.08767 41.6027 5.77686 41.7763 5.45766 41.9835C3.63766 43.1735 1.61046 45.4499 -0.287936 47.9559C-0.623935 48.3983 -0.954337 48.8491 -1.27914 49.2999C-1.60674 49.7535 -1.92314 50.2071 -2.23394 50.6579C-2.23394 50.6607 -2.23954 50.6635 -2.23954 50.6663C-2.54754 51.1143 -2.84994 51.5623 -3.14114 52.0019C-3.14114 52.0047 -3.14674 52.0103 -3.14954 52.0131C-3.44074 52.4527 -3.72354 52.8867 -3.99234 53.3067C-3.99234 53.3095 -3.99515 53.3123 -3.99795 53.3151C-4.26675 53.7351 -4.52713 54.1439 -4.77073 54.5387C-4.77353 54.5443 -4.77634 54.5471 -4.77914 54.5527C-4.94154 54.8131 -5.09834 55.0679 -5.24954 55.3143C-5.32514 55.4375 -5.39793 55.5579 -5.47073 55.6755C-5.47353 55.6811 -5.47634 55.6867 -5.48194 55.6923C-5.62474 55.9275 -5.76193 56.1543 -5.89073 56.3699C-5.95513 56.4791 -6.01674 56.5827 -6.07834 56.6835C-6.08114 56.6891 -6.08394 56.6947 -6.08954 56.7003C-6.20714 56.8991 -6.31914 57.0867 -6.42274 57.2659C-6.42834 57.2743 -6.43113 57.2827 -6.43673 57.2883C-6.48713 57.3723 -6.53194 57.4535 -6.57954 57.5319C-6.58514 57.5431 -6.59074 57.5515 -6.59914 57.5627C-6.69154 57.7223 -6.77833 57.8707 -6.85673 58.0051C-6.85953 58.0107 -6.86235 58.0163 -6.86795 58.0219C-6.90715 58.0891 -6.94353 58.1507 -6.97713 58.2123C-6.97993 58.2179 -6.98274 58.2235 -6.98554 58.2263C-7.05274 58.3411 -7.11154 58.4447 -7.15914 58.5343C-7.16474 58.5427 -7.16754 58.5511 -7.17314 58.5595C-7.19554 58.6015 -7.21793 58.6379 -7.23753 58.6715C-7.24033 58.6771 -7.24314 58.6827 -7.24874 58.6911C-7.32994 58.8367 -7.37474 58.9151 -7.37474 58.9151C-7.37474 58.9151 -7.38873 58.9151 -7.41393 58.9151C-7.43073 58.9151 -7.44474 58.9151 -7.45874 58.9151C-7.46154 58.9151 -7.46714 58.9151 -7.46994 58.9151C-7.48954 58.9151 -7.50914 58.9151 -7.53154 58.9151C-7.53434 58.9151 -7.53994 58.9151 -7.54274 58.9151C-7.56234 58.9151 -7.58753 58.9151 -7.60993 58.9151C-7.61553 58.9151 -7.62114 58.9151 -7.62954 58.9151C-7.65754 58.9151 -7.68834 58.9151 -7.72194 58.9151C-7.72754 58.9151 -7.73314 58.9151 -7.73874 58.9151C-7.76954 58.9151 -7.80313 58.9151 -7.83673 58.9151C-7.84513 58.9151 -7.85074 58.9151 -7.85914 58.9151C-7.89834 58.9151 -7.93754 58.9151 -7.97954 58.9123C-7.98794 58.9123 -7.99913 58.9123 -8.00753 58.9123C-8.04393 58.9123 -8.08314 58.9123 -8.12514 58.9067C-8.13354 58.9067 -8.14193 58.9067 -8.15033 58.9067C-8.19793 58.9067 -8.24554 58.9011 -8.29594 58.9011C-8.30714 58.9011 -8.31834 58.9011 -8.33234 58.9011C-8.37714 58.9011 -8.42474 58.8955 -8.47234 58.8927C-8.48074 58.8927 -8.48913 58.8927 -8.49753 58.8927C-8.55353 58.8899 -8.60954 58.8843 -8.66554 58.8815C-8.67954 58.8815 -8.69075 58.8815 -8.70474 58.8787C-8.75794 58.8731 -8.81113 58.8703 -8.86713 58.8647C-8.87553 58.8647 -8.88394 58.8647 -8.89234 58.8647C-8.95394 58.8591 -9.01553 58.8535 -9.07993 58.8451C-9.09393 58.8451 -9.11075 58.8423 -9.12475 58.8395C-9.18915 58.8339 -9.25353 58.8255 -9.32073 58.8171C-9.39353 58.8087 -9.46354 58.8003 -9.53634 58.7891C-9.55314 58.7891 -9.56994 58.7835 -9.58674 58.7835C-9.65674 58.7723 -9.72954 58.7639 -9.80234 58.7527C-9.80514 58.7527 -9.81074 58.7527 -9.81354 58.7527C-9.88354 58.7415 -9.95634 58.7303 -10.0263 58.7191C-10.0431 58.7163 -10.0599 58.7135 -10.0795 58.7107C-10.1551 58.6967 -10.2307 58.6827 -10.3091 58.6687C-10.3175 58.6687 -10.3259 58.6659 -10.3315 58.6631C-10.4043 58.6491 -10.4743 58.6351 -10.5471 58.6183C-10.5639 58.6155 -10.5807 58.6099 -10.5975 58.6071C-10.6759 58.5903 -10.7543 58.5735 -10.8355 58.5539C-10.8495 58.5511 -10.8607 58.5483 -10.8747 58.5455C-10.9447 58.5287 -11.0147 58.5119 -11.0875 58.4951C-11.1043 58.4895 -11.1239 58.4867 -11.1407 58.4811C-11.2219 58.4615 -11.3031 58.4391 -11.3843 58.4167C-11.3983 58.4111 -11.4151 58.4083 -11.4291 58.4027C-11.5019 58.3831 -11.5719 58.3607 -11.6447 58.3411C-11.6615 58.3355 -11.6783 58.3299 -11.6951 58.3271C-11.7763 58.3019 -11.8603 58.2767 -11.9415 58.2487C-11.9583 58.2431 -11.9751 58.2375 -11.9919 58.2319C-12.0647 58.2067 -12.1375 58.1815 -12.2131 58.1563C-12.2271 58.1507 -12.2411 58.1451 -12.2579 58.1395C-12.3419 58.1087 -12.4231 58.0779 -12.5071 58.0443C-12.5267 58.0359 -12.5435 58.0303 -12.5631 58.0219C-12.6387 57.9911 -12.7143 57.9603 -12.7899 57.9295C-12.8011 57.9239 -12.8123 57.9211 -12.8235 57.9155C-12.9075 57.8791 -12.9887 57.8427 -13.0727 57.8035C-13.0923 57.7951 -13.1119 57.7867 -13.1315 57.7755C-13.2099 57.7391 -13.2855 57.7027 -13.3639 57.6635C-13.3723 57.6607 -13.3779 57.6551 -13.3863 57.6523C-13.4675 57.6103 -13.5515 57.5683 -13.6327 57.5235C-13.6523 57.5123 -13.6719 57.5011 -13.6915 57.4899C-13.7727 57.4451 -13.8567 57.3975 -13.9379 57.3499L-11.0455 49.8095C-11.0455 49.8095 11.1809 18.1611 17.5817 35.5855C23.9825 53.0099 6.79887 112.571 8.15687 149.022C8.38647 155.145 8.75887 161.286 9.60167 167.359C10.4417 173.415 11.4861 182.406 16.9237 186.371C24.5313 191.918 32.1501 182.543 36.1429 176.876C39.3657 172.301 42.3085 167.527 45.1477 162.708C48.6869 156.702 52.0917 150.604 55.2725 144.402C55.2725 144.402 39.8221 190.579 25.0633 196.093C10.3045 201.606 0.510074 183.162 -3.22513 159.516C-6.96033 135.867 14.1993 94.4415 12.0657 69.9051L12.0713 69.8995Z" fill="url(#paint5_radial_2666_5881)"/>
<path style="mix-blend-mode:multiply" opacity="0.5" d="M-4.10995 61.0157C-4.10995 61.0605 -4.10995 61.1053 -4.09875 61.1445C-4.09875 61.1529 -4.09315 61.1613 -4.09315 61.1697C-4.08195 61.2145 -4.06796 61.2565 -4.04836 61.2957C-4.04836 61.2985 -4.04555 61.3013 -4.04275 61.3041C-4.02035 61.3489 -3.99514 61.3881 -3.96434 61.4273C-3.26154 60.1701 -2.54195 58.8485 -1.79715 57.4513C-0.850754 55.6705 0.0256465 54.0605 0.837646 52.6045C0.706046 52.7445 0.574445 52.8873 0.442845 53.0329C0.431645 53.0441 0.42325 53.0553 0.41205 53.0665C0.28885 53.2037 0.165648 53.3437 0.0424475 53.4837C0.0284475 53.5005 0.0144493 53.5173 0.000449281 53.5341C-0.119951 53.6713 -0.237553 53.8113 -0.352354 53.9513C-0.366353 53.9681 -0.377549 53.9849 -0.391549 54.0017C-0.509149 54.1445 -0.623955 54.2873 -0.738755 54.4329C-0.744355 54.4385 -0.749951 54.4469 -0.752751 54.4525C-1.20915 55.0349 -1.63475 55.6369 -2.02675 56.2613C-2.06315 56.3201 -2.10235 56.3761 -2.13595 56.4349C-2.20035 56.5385 -2.26195 56.6449 -2.32635 56.7513C-2.37115 56.8297 -2.41875 56.9053 -2.46355 56.9837C-2.51955 57.0817 -2.57555 57.1825 -2.62875 57.2805C-2.67635 57.3673 -2.72395 57.4569 -2.77155 57.5465C-2.82195 57.6417 -2.86955 57.7369 -2.91715 57.8321C-2.96475 57.9273 -3.01235 58.0253 -3.05995 58.1233C-3.10475 58.2157 -3.14675 58.3053 -3.18875 58.3977C-3.23635 58.5013 -3.28395 58.6077 -3.32875 58.7113C-3.36795 58.7981 -3.40435 58.8877 -3.44355 58.9773C-3.49115 59.0921 -3.53594 59.2069 -3.58074 59.3245C-3.61154 59.4057 -3.64515 59.4897 -3.67595 59.5709C-3.72355 59.7025 -3.77115 59.8369 -3.81595 59.9685C-3.83835 60.0385 -3.86355 60.1057 -3.88875 60.1757C-3.95595 60.3801 -4.01755 60.5845 -4.07635 60.7945C-4.09315 60.8561 -4.10154 60.9149 -4.10434 60.9709C-4.10434 60.9849 -4.10434 60.9961 -4.10434 61.0073L-4.10995 61.0157Z" fill="url(#paint6_radial_2666_5881)"/>
</g>
</g>
<path d="M84.9306 96.3428C84.9306 96.3428 94.0742 105.412 107.891 103.089L88.5396 144.559L92.7208 116.024C92.7208 116.024 83.4089 115.781 78.8034 108.375C74.198 100.975 84.9239 96.3428 84.9239 96.3428L84.9306 96.3428Z" fill="url(#paint7_radial_2666_5881)"/>
<path style="mix-blend-mode:screen" d="M88.6204 144.02L103.157 105.48C90.5999 106.55 84.0755 98.6859 84.0755 98.6859L83.0924 97.3258C84.1428 96.6862 84.9306 96.3428 84.9306 96.3428C84.9306 96.3428 94.0742 105.412 107.891 103.089L88.5396 144.559L88.6204 144.027L88.6204 144.02Z" fill="url(#paint8_radial_2666_5881)"/>
<path style="mix-blend-mode:multiply" d="M92.6399 116.017C91.7377 115.977 83.1664 115.384 78.8033 108.375C74.1979 100.975 84.9238 96.3428 84.9238 96.3428C84.9238 96.3428 94.0674 105.412 107.884 103.089L103.15 105.48L92.6332 116.024L92.6399 116.017Z" fill="url(#paint9_radial_2666_5881)"/>
<path style="mix-blend-mode:screen" d="M103.575 105.656C104.8 105.124 106.019 104.565 107.244 104.019L107.069 103.851C106.349 105.252 105.669 106.672 104.968 108.08C104.275 109.493 103.568 110.901 102.901 112.321C101.555 115.163 100.168 117.991 98.848 120.852C97.5351 123.714 96.175 126.549 94.9024 129.43L92.9767 133.74C92.3505 135.187 91.7109 136.621 91.1049 138.076C91.8388 136.682 92.5391 135.275 93.2528 133.867L95.3468 129.632C96.754 126.818 98.0737 123.963 99.4473 121.128C100.814 118.294 102.107 115.425 103.44 112.571C104.107 111.15 104.746 109.709 105.393 108.275C106.032 106.841 106.692 105.406 107.312 103.966L107.46 103.629L107.143 103.797C105.958 104.417 104.766 105.029 103.588 105.669L103.575 105.656Z" fill="url(#paint10_radial_2666_5881)"/>
<g style="mix-blend-mode:screen">
<path style="mix-blend-mode:multiply" d="M94.0887 104.657L98.0748 102.934C99.0982 103.142 100.175 103.297 101.293 103.385C102.418 103.472 103.582 103.492 104.794 103.425L99.9668 105.56C97.7852 105.485 95.8259 105.149 94.0887 104.657Z" fill="url(#paint11_radial_2666_5881)"/>
<path style="mix-blend-mode:multiply" d="M89.0588 102.562C88.0555 101.997 87.2004 101.418 86.4935 100.886L89.6513 99.748C90.6209 100.3 91.7251 100.859 92.9573 101.371L89.0588 102.569L89.0588 102.562Z" fill="url(#paint12_radial_2666_5881)"/>
</g>
<path d="M65.5043 89.4704C65.5043 89.4704 52.6844 90.6352 43.5071 80.0439L32.0069 124.335L46.9612 99.6778C46.9612 99.6778 54.2936 105.421 62.5619 102.647C70.8302 99.873 65.5043 89.4704 65.5043 89.4704Z" fill="url(#paint13_radial_2666_5881)"/>
<path style="mix-blend-mode:screen" d="M32.2898 123.876L45.6349 84.9044C54.6372 93.7316 64.6695 91.8261 64.6695 91.8261L66.2922 91.4019C65.8882 90.2371 65.4977 89.4762 65.4977 89.4762C65.4977 89.4762 52.6778 90.641 43.5005 80.0498L32.0003 124.34L32.2831 123.876L32.2898 123.876Z" fill="url(#paint14_radial_2666_5881)"/>
<path style="mix-blend-mode:multiply" d="M47.0286 99.7249C47.7491 100.264 54.7381 105.273 62.562 102.647C70.8236 99.873 65.5044 89.4704 65.5044 89.4704C65.5044 89.4704 52.6845 90.6352 43.5072 80.0439L45.6349 84.8985L47.0286 99.7249Z" fill="url(#paint15_radial_2666_5881)"/>
<path style="mix-blend-mode:screen" d="M45.197 84.7775C44.591 83.5857 44.0053 82.3805 43.4127 81.182L43.6551 81.1618C43.3185 82.6969 42.9414 84.2254 42.5778 85.7605C42.2142 87.289 41.8574 88.8241 41.4736 90.3525C40.6993 93.4027 39.9721 96.4662 39.1641 99.5096C38.3562 102.553 37.5953 105.603 36.7402 108.633L35.4811 113.185C35.0434 114.7 34.6192 116.215 34.1681 117.723C34.4913 116.181 34.8482 114.652 35.1916 113.111L36.2756 108.519C36.9826 105.448 37.7838 102.405 38.5379 99.3548C39.292 96.2979 40.1202 93.2613 40.908 90.2179C41.2985 88.6962 41.7294 87.1812 42.1402 85.6595C42.5644 84.1446 42.9616 82.6229 43.406 81.1079L43.507 80.7578L43.6484 81.0877C44.1668 82.3199 44.692 83.5521 45.197 84.791L45.197 84.7775Z" fill="url(#paint16_radial_2666_5881)"/>
<g style="mix-blend-mode:screen">
<path style="mix-blend-mode:multiply" d="M53.1492 90.0504L51.1764 86.1856C50.2539 85.6941 49.3247 85.1285 48.409 84.4821C47.4866 83.8357 46.5776 83.1086 45.6821 82.2871L48.0454 87.0071C49.7691 88.3402 51.4995 89.33 53.1492 90.0572L53.1492 90.0504Z" fill="url(#paint17_radial_2666_5881)"/>
<path style="mix-blend-mode:multiply" d="M58.3536 91.6394C59.4915 91.8414 60.5149 91.9424 61.397 91.9761L59.6935 89.0875C58.596 88.899 57.384 88.6229 56.1114 88.2324L58.3536 91.6394Z" fill="url(#paint18_radial_2666_5881)"/>
</g>
<path d="M59.4576 111.709L60.1645 116.281C60.1645 116.281 62.7972 120.482 70.7019 121.263L75.8999 117.789L59.4576 111.709Z" fill="url(#paint19_radial_2666_5881)"/>
<path style="mix-blend-mode:screen" d="M67.2685 120.639C67.7129 120.76 68.1842 120.868 68.6824 120.962L73.3552 117.084L73.2475 116.815L60.845 112.223L61.4174 117.656C61.7069 117.912 62.0435 118.182 62.4475 118.464L62.2523 113.233L65.3293 114.882L64.1174 119.454C64.5281 119.663 64.9725 119.858 65.4572 120.047L67.861 115.98L70.5004 116.97L67.2685 120.632L67.2685 120.639Z" fill="url(#paint20_radial_2666_5881)"/>
<path style="mix-blend-mode:multiply" opacity="0.34" d="M65.2757 117.535C65.2757 117.535 66.178 118.067 69.1002 118.969C70.8642 119.515 72.8909 119.225 74.2241 118.916L75.9006 117.798L59.4583 111.718L60.1653 116.29C60.1653 116.29 61.4244 118.289 64.7977 119.791L65.2757 117.542L65.2757 117.535Z" fill="url(#paint21_radial_2666_5881)"/>
<path d="M94.2019 45.8739C94.2019 45.8739 82.5266 49.5839 73.2079 61.239C63.8892 72.894 59.4521 111.704 59.4521 111.704C59.4521 111.704 66.3536 121.218 75.8944 117.784C75.8944 117.784 98.134 94.467 99.7432 73.1162C101.265 52.9235 94.2019 45.8672 94.2019 45.8672L94.2019 45.8739Z" fill="url(#paint22_radial_2666_5881)"/>
<path style="mix-blend-mode:multiply" opacity="0.45" d="M86.1485 87.6041C99.1367 58.8805 94.2013 45.8721 94.2013 45.8721C94.2013 45.8721 82.526 49.582 73.2074 61.2371C63.8887 72.8922 59.4515 111.702 59.4515 111.702C59.4515 111.702 63.478 117.243 69.6321 118.341C73.9413 111.722 79.7857 101.663 86.1417 87.5974L86.1485 87.6041Z" fill="url(#paint23_radial_2666_5881)"/>
<path style="mix-blend-mode:multiply" opacity="0.45" d="M74.3996 81.8607C81.4761 58.9344 91.7307 50.9893 96.0332 48.5586C95.0165 46.6935 94.2018 45.8721 94.2018 45.8721C94.2018 45.8721 82.5265 49.582 73.2078 61.2371C63.8892 72.8922 59.452 111.702 59.452 111.702C59.452 111.702 61.775 114.9 65.5927 116.92C66.9662 109.184 69.5517 97.5489 74.3996 81.854L74.3996 81.8607Z" fill="url(#paint24_radial_2666_5881)"/>
<path style="mix-blend-mode:multiply" opacity="0.45" d="M77.0862 58.2158C77.0862 58.2158 78.453 60.5253 80.446 61.7911C80.446 61.7911 74.4603 69.2515 69.8346 86.6903C65.2089 104.129 64.8992 107.913 64.8992 107.913L61.5394 104.863C61.5394 104.863 66.3738 66.7265 77.0862 58.2158Z" fill="url(#paint25_radial_2666_5881)"/>
<path style="mix-blend-mode:screen" opacity="0.45" d="M98.8207 68.3759C98.8207 68.3759 96.5785 68.8607 94.5384 68.1807C94.5384 68.1807 93.2524 78.0582 86.8222 91.7871C80.3988 105.516 75.3557 111.603 75.3557 111.603C75.3557 111.603 76.6215 112.088 80.0285 111.313C80.0285 111.313 99.7903 86.7776 98.8207 68.3827L98.8207 68.3759Z" fill="url(#paint26_radial_2666_5881)"/>
<path d="M93.3322 46.263L103.466 23L94.8673 46.7747L93.3322 46.263Z" fill="url(#paint27_radial_2666_5881)"/>
<path style="mix-blend-mode:multiply" d="M93.3322 46.263L103.466 23L93.9988 46.8555L93.3322 46.263Z" fill="url(#paint28_radial_2666_5881)"/>
<path style="mix-blend-mode:multiply" d="M90.8215 47.274C87.5492 48.8226 82.3445 51.7919 77.2408 56.7946C80.6343 61.0904 88.2495 68.4362 99.9517 67.1367C99.8439 52.1084 94.619 46.3111 94.2285 45.9004C93.9188 46.0014 92.6664 46.4256 90.8215 47.274Z" fill="url(#paint29_radial_2666_5881)"/>
<path d="M100.006 66.489C99.7029 52.7803 94.2019 45.8721 94.2019 45.8721C94.2019 45.8721 85.9403 48.498 77.7663 56.2748C80.5067 60.1598 87.9805 68.6166 100.006 66.489Z" fill="url(#paint30_radial_2666_5881)"/>
<path style="mix-blend-mode:multiply" d="M83.1389 62.0181C88.1888 53.9316 93.1511 50.2217 95.8848 48.6394C94.9354 46.7945 94.2015 45.8721 94.2015 45.8721C94.2015 45.8721 94.1947 45.8721 94.1813 45.8788C94.1745 45.8788 94.1543 45.8855 94.1409 45.8923C94.1274 45.8923 94.1139 45.899 94.1005 45.9057C94.0803 45.9057 94.0601 45.9192 94.0332 45.9259C94.013 45.9327 93.986 45.9394 93.9591 45.9529C93.9322 45.9596 93.8985 45.9731 93.8648 45.9865C93.8379 46 93.8042 46.0067 93.7706 46.0202C93.7302 46.0337 93.6898 46.0471 93.6494 46.0673C93.6157 46.0808 93.5753 46.0942 93.5349 46.1077C93.4272 46.1481 93.2992 46.1953 93.1646 46.2491C93.1444 46.2559 93.1242 46.2626 93.104 46.276C93.0366 46.303 92.9693 46.3299 92.8952 46.3569C92.8481 46.3771 92.801 46.3973 92.7471 46.4175C92.6731 46.4444 92.599 46.478 92.5249 46.5117C92.4711 46.5319 92.4105 46.5588 92.3566 46.5858C92.2758 46.6194 92.1883 46.6531 92.1075 46.6935C92.0536 46.7204 91.993 46.7406 91.9324 46.7676C91.8381 46.808 91.7439 46.8484 91.6496 46.8955C91.5957 46.9224 91.5419 46.9426 91.4813 46.9696C91.1177 47.1312 90.7272 47.3197 90.303 47.5217C90.2424 47.5486 90.1885 47.5755 90.1279 47.6092C90.0067 47.6698 89.8855 47.7304 89.7643 47.791C89.6903 47.8314 89.6162 47.8651 89.5421 47.9055C89.4142 47.9728 89.2863 48.0401 89.1583 48.1075C89.0843 48.1479 89.0102 48.1883 88.9362 48.2219C88.8015 48.296 88.6601 48.3701 88.5187 48.4441C88.4514 48.4845 88.3773 48.5182 88.31 48.5586C88.1618 48.6394 88.0137 48.7202 87.8589 48.8077C87.8319 48.8212 87.805 48.8347 87.7848 48.8548C87.4347 49.0568 87.0711 49.2656 86.7008 49.4878C86.6536 49.5147 86.5998 49.5484 86.5526 49.5753C86.3978 49.6696 86.2362 49.7706 86.0813 49.8648C85.9938 49.9187 85.913 49.9725 85.8254 50.0264C85.6706 50.1207 85.5157 50.2217 85.3609 50.3227C85.2666 50.3833 85.1791 50.4439 85.0848 50.5045C84.9299 50.6055 84.7683 50.7132 84.6067 50.8209C84.5125 50.8815 84.4182 50.9488 84.324 51.0094C84.1624 51.1239 83.994 51.2316 83.8324 51.3461C83.7584 51.4 83.6843 51.4538 83.6035 51.5077C83.2264 51.7703 82.8427 52.0463 82.4589 52.3359C82.4185 52.3695 82.3713 52.3965 82.3309 52.4301C82.1626 52.5513 82.001 52.686 81.8327 52.8139C81.725 52.8947 81.624 52.9755 81.5162 53.0563C81.3546 53.1775 81.1998 53.3055 81.0382 53.4334C80.9237 53.5276 80.8093 53.6152 80.6948 53.7094C80.5399 53.8374 80.3783 53.972 80.2167 54.1C80.1023 54.1942 79.9811 54.2952 79.8666 54.3962C79.705 54.5309 79.5502 54.6656 79.3886 54.8069C79.2741 54.9079 79.1529 55.0157 79.0384 55.1167C78.621 55.487 78.2035 55.8641 77.7928 56.2613C78.8634 57.7763 80.6611 59.9915 83.1591 62.0047L83.1389 62.0181Z" fill="url(#paint31_radial_2666_5881)"/>
<path style="mix-blend-mode:multiply" d="M98.6321 56.0526C96.9084 49.2858 94.2017 45.8721 94.2017 45.8721C94.2017 45.8721 90.283 47.1177 85.1792 50.4304C88.5862 53.1439 93.0772 55.5274 98.6321 56.0458L98.6321 56.0526Z" fill="url(#paint32_radial_2666_5881)"/>
<path d="M85.8328 50.0197C88.8896 52.5917 93.0844 54.9147 98.4036 55.1773C96.6799 48.9895 94.2088 45.8721 94.2088 45.8721C94.2088 45.8721 90.6201 47.0167 85.8395 50.0197L85.8328 50.0197Z" fill="url(#paint33_radial_2666_5881)"/>
<path style="mix-blend-mode:multiply" d="M94.1482 45.8923C94.1482 45.8923 94.101 45.9057 94.0674 45.9192C94.0539 45.9192 94.0472 45.9259 94.0337 45.9327C94.0337 45.9327 94.027 45.9327 94.0202 45.9327C93.9731 45.9461 93.9192 45.9663 93.8586 45.9865C93.8452 45.9865 93.8317 46 93.8115 46C93.7442 46.0269 93.6701 46.0539 93.5893 46.0808C93.5758 46.0808 93.5556 46.0943 93.5422 46.101C93.5287 46.101 93.5085 46.1145 93.495 46.1212C93.4008 46.1549 93.2998 46.1952 93.1921 46.2356C93.0843 46.276 92.9699 46.3232 92.8554 46.3703C92.8419 46.3703 92.8217 46.3838 92.8083 46.3905C92.6669 46.4444 92.5187 46.505 92.3639 46.5723C92.3504 46.5723 92.3369 46.5858 92.3235 46.5925C92.1753 46.6531 92.0272 46.7204 91.8656 46.7878C91.8387 46.8012 91.8118 46.8147 91.7781 46.8282C91.6502 46.882 91.5155 46.9494 91.3808 47.01C91.2798 47.0571 91.1721 47.1042 91.0711 47.1514C90.9768 47.1985 90.8759 47.2389 90.7816 47.286C90.6739 47.3399 90.5594 47.3938 90.4449 47.4476C90.2833 47.5284 90.1217 47.6025 89.9534 47.69C89.9198 47.7035 89.8928 47.7237 89.8592 47.7371C89.6437 47.8449 89.4282 47.9593 89.1993 48.0738C89.1858 48.0738 89.1791 48.0873 89.1656 48.094C89.1656 48.094 89.1522 48.094 89.1522 48.1007C88.9165 48.2219 88.6741 48.3566 88.425 48.4913C88.4048 48.5047 88.3779 48.5182 88.3577 48.5317C88.1489 48.6461 87.9267 48.7673 87.7113 48.8952C87.3881 49.0838 87.0514 49.2723 86.7148 49.481C86.7148 49.481 86.7148 49.481 86.708 49.481C86.4387 49.6426 86.1627 49.811 85.8866 49.986C85.8731 49.986 85.8664 49.9995 85.8529 50.0062C87.1322 51.0835 88.6202 52.1204 90.3035 52.9755C92.5591 50.7873 94.5185 49.4339 95.9055 48.6326C95.8584 48.5384 95.8112 48.4441 95.7641 48.3566C95.717 48.2758 95.6766 48.1883 95.6295 48.1075C95.5689 47.9997 95.5083 47.892 95.4544 47.791C95.4073 47.7035 95.3601 47.6227 95.313 47.5419C95.2591 47.4543 95.212 47.3736 95.1649 47.2928C95.1177 47.212 95.0706 47.1312 95.0235 47.0571C94.9831 46.9898 94.9427 46.9292 94.9023 46.8686C94.8551 46.7945 94.808 46.7204 94.7609 46.6531C94.7272 46.606 94.7003 46.5588 94.6734 46.5117C94.6262 46.4444 94.5858 46.3838 94.5521 46.3299C94.5319 46.2963 94.505 46.2626 94.4848 46.2356C94.4444 46.1818 94.4108 46.1346 94.3838 46.0875C94.3704 46.0673 94.3569 46.0471 94.3434 46.0337C94.3098 45.9865 94.2828 45.9529 94.2626 45.9259C94.2626 45.9259 94.2559 45.9125 94.2492 45.9125C94.229 45.8855 94.2155 45.8721 94.2155 45.8721C94.2155 45.8721 94.202 45.8721 94.1818 45.8855C94.1751 45.8855 94.1684 45.8855 94.1616 45.8923L94.1482 45.8923Z" fill="url(#paint34_radial_2666_5881)"/>
<path style="mix-blend-mode:multiply" d="M94.1008 45.9076C94.1008 45.9076 94.0537 45.9211 94.0335 45.9345C94.0133 45.9413 93.9864 45.948 93.9662 45.9614C93.9393 45.9749 93.9056 45.9817 93.8719 45.9951C93.845 46.0019 93.8113 46.0153 93.7844 46.0288C93.744 46.0422 93.7036 46.0557 93.6565 46.0759C93.6295 46.0894 93.5959 46.0961 93.5622 46.1096C93.3804 46.1769 93.1582 46.2644 92.9023 46.3654C92.8552 46.3856 92.8148 46.3991 92.7677 46.4193C92.6936 46.4462 92.6196 46.4799 92.5388 46.5136C92.4849 46.5338 92.431 46.5607 92.3772 46.5809C92.2964 46.6146 92.2088 46.655 92.1146 46.6954C92.0607 46.7156 92.0068 46.7425 91.9462 46.7694C91.852 46.8098 91.7577 46.8502 91.6567 46.8974C91.6029 46.9243 91.549 46.9445 91.4951 46.9714C91.1315 47.1397 90.7343 47.3215 90.3101 47.5303C90.2562 47.5572 90.1956 47.5841 90.1418 47.6111C90.0206 47.6717 89.8926 47.7323 89.7714 47.7996C89.6974 47.8333 89.63 47.8737 89.556 47.9073C89.428 47.9747 89.2934 48.042 89.1654 48.1093C89.0914 48.1497 89.0241 48.1834 88.95 48.2238C88.8153 48.2979 88.6739 48.3719 88.5325 48.446C88.4652 48.4864 88.3911 48.5268 88.3171 48.5604C88.1689 48.6412 88.0208 48.722 87.866 48.8096C87.839 48.823 87.8121 48.8365 87.7919 48.8567C87.435 49.0587 87.0714 49.2674 86.7011 49.4963C86.654 49.5233 86.6069 49.5502 86.5597 49.5772C86.4049 49.6714 86.2433 49.7724 86.0817 49.8734C86.0009 49.9273 85.9133 49.9744 85.8325 50.0283C85.6777 50.1225 85.5228 50.2235 85.3612 50.3245C85.267 50.3851 85.1794 50.4457 85.0852 50.5063C84.9303 50.6073 84.7687 50.715 84.6071 50.8228C84.5128 50.8834 84.4186 50.9507 84.3243 51.0113C84.1627 51.1258 83.9944 51.2335 83.8261 51.348C83.752 51.4018 83.6779 51.4557 83.6039 51.5028C83.2201 51.7722 82.8296 52.055 82.439 52.3512C82.4054 52.3781 82.365 52.4051 82.3313 52.432C82.163 52.5599 81.9946 52.6879 81.8263 52.8158C81.7253 52.8966 81.6176 52.9706 81.5166 53.0514C81.355 53.1794 81.1934 53.3073 81.0318 53.4352C80.9174 53.5295 80.8029 53.617 80.6884 53.7113C80.5268 53.8392 80.372 53.9739 80.2104 54.1018C80.0959 54.1961 79.9747 54.2971 79.8602 54.3981C79.6986 54.5327 79.5438 54.6674 79.3822 54.8088C79.2677 54.9098 79.1465 55.0175 79.0321 55.1253C78.6146 55.4956 78.2039 55.8726 77.7864 56.2699C79.9882 59.3941 85.2468 65.4606 93.4679 66.6255C96.7133 52.4657 94.2153 45.8672 94.2153 45.8672C94.2153 45.8672 94.1884 45.8739 94.1413 45.8941C94.1345 45.8941 94.1211 45.8941 94.1076 45.9076L94.1008 45.9076Z" fill="url(#paint35_radial_2666_5881)"/>
<path style="mix-blend-mode:multiply" d="M88.9631 50.7142C90.2087 49.5965 91.6698 48.3846 93.407 47.0918C93.407 47.0918 90.9898 48.0277 87.805 49.9197C88.1888 50.189 88.5726 50.4516 88.9631 50.7142Z" fill="url(#paint36_radial_2666_5881)"/>
<path style="mix-blend-mode:multiply" d="M87.2129 52.371C86.6877 52.0142 86.1693 51.6506 85.6575 51.2803C83.5635 52.6875 81.3147 54.4448 79.2745 56.5725C79.2745 56.5725 80.096 58.3029 82.1024 59.6698C82.1024 59.6698 82.567 57.0034 87.2129 52.371Z" fill="url(#paint37_radial_2666_5881)"/>
<path style="mix-blend-mode:screen" d="M99.1167 65.6286C98.9888 62.1005 98.5376 59.1783 98.0057 56.8284C97.4401 56.687 96.8746 56.5456 96.309 56.3975C96.6322 63.0094 94.9556 65.5276 94.9556 65.5276C97.6287 66.4164 99.1167 65.6286 99.1167 65.6286Z" fill="url(#paint38_radial_2666_5881)"/>
<path style="mix-blend-mode:screen" d="M97.3127 54.2167C96.3836 51.1868 95.4477 49.6719 95.4477 49.6719C95.7507 51.207 95.9594 52.6143 96.1008 53.9003C96.5048 54.008 96.9088 54.109 97.3127 54.2167Z" fill="url(#paint39_radial_2666_5881)"/>
<g style="mix-blend-mode:multiply">
<path d="M69.4044 80.1099C69.4044 86.8369 74.8577 92.2902 81.5846 92.2902C88.3116 92.2902 93.7649 86.8369 93.7649 80.1099C93.7649 73.383 88.3116 67.9297 81.5846 67.9297C74.8577 67.9297 69.4044 73.383 69.4044 80.1099Z" fill="url(#paint40_radial_2666_5881)"/>
<path d="M72.1783 80.1093C72.1783 85.3042 76.3896 89.5155 81.5845 89.5155C86.7794 89.5155 90.9907 85.3042 90.9907 80.1093C90.9907 74.9144 86.7794 70.7031 81.5845 70.7031C76.3896 70.7031 72.1783 74.9144 72.1783 80.1093Z" fill="url(#paint41_radial_2666_5881)"/>
</g>
<path style="mix-blend-mode:screen" d="M70.6976 79.8287C70.6976 86.5557 76.1509 92.009 82.8778 92.009C89.6048 92.009 95.0581 86.5557 95.0581 79.8287C95.0581 73.1017 89.6048 67.6484 82.8778 67.6484C76.1509 67.6484 70.6976 73.1017 70.6976 79.8287Z" fill="url(#paint42_radial_2666_5881)"/>
<path d="M80.2719 92.3055C86.9221 93.3183 93.1344 88.7483 94.1472 82.098C95.1601 75.4478 90.5901 69.2355 83.9398 68.2227C77.2896 67.2098 71.0773 71.7798 70.0644 78.4301C69.0516 85.0803 73.6216 91.2926 80.2719 92.3055Z" fill="url(#paint43_radial_2666_5881)"/>
<path style="mix-blend-mode:screen" d="M77.97 68.8198C79.2695 68.3484 80.6632 68.0791 82.1176 68.0791C88.844 68.0791 94.2979 73.5329 94.2979 80.2594C94.2979 85.8075 90.5879 90.4803 85.5178 91.9481C90.1974 90.2514 93.5437 85.7738 93.5437 80.5085C93.5437 73.7821 88.0899 68.3282 81.3635 68.3282C80.1852 68.3282 79.0473 68.5033 77.97 68.8198Z" fill="url(#paint44_radial_2666_5881)"/>
<path d="M80.613 90.153C86.0797 90.9847 91.1855 87.2272 92.0171 81.7605C92.8488 76.2938 89.0913 71.188 83.6246 70.3564C78.158 69.5248 73.0521 73.2822 72.2205 78.7489C71.3889 84.2156 75.1463 89.3214 80.613 90.153Z" fill="url(#paint45_radial_2666_5881)"/>
<path d="M73.6746 84.3624C75.9413 89.0367 81.5681 90.9885 86.2424 88.7218C90.9167 86.4551 92.8685 80.8283 90.6018 76.154C88.3351 71.4797 82.7083 69.5279 78.034 71.7946C73.3597 74.0613 71.4079 79.6881 73.6746 84.3624Z" fill="url(#paint46_linear_2666_5881)"/>
<path style="mix-blend-mode:screen" opacity="0.25" d="M89.5912 83.2494C88.6149 84.1719 87.1538 84.8991 85.6994 84.4547C84.1373 83.9766 83.3159 82.3808 82.3665 81.1823C80.2927 78.5497 78.7373 76.8462 75.4785 76.045C75.4179 76.0315 75.3573 76.0113 75.3102 75.9844C74.5291 77.2233 74.0713 78.6911 74.0713 80.2599C74.0713 84.7105 77.6735 88.3128 82.1241 88.3128C85.5109 88.3128 88.4061 86.2188 89.5979 83.2562L89.5912 83.2494Z" fill="url(#paint47_linear_2666_5881)"/>
<path style="mix-blend-mode:screen" opacity="0.25" d="M81.188 78.0377C82.602 79.6537 83.309 82.1651 85.2616 83.2694C87.1536 84.3399 90.4326 82.3739 90.4326 80.2529C90.4326 75.6609 86.7092 71.9375 82.1172 71.9375C79.498 71.9375 77.1683 73.1495 75.6466 75.0415C77.781 75.3916 79.6596 76.2871 81.188 78.0377Z" fill="url(#paint48_linear_2666_5881)"/>
<path style="mix-blend-mode:screen" d="M83.2684 87.0131C81.9891 85.9964 82.7364 83.9832 82.999 82.5962C83.302 80.9937 83.0866 79.3037 82.3998 77.8291C81.9958 76.9606 81.4168 76.092 81.5178 75.1359C81.8275 72.1396 85.3354 72.5032 87.1063 73.897C89.0454 75.4187 90.1968 77.7887 90.1968 80.2531C90.1968 82.098 89.5167 84.0034 88.1701 85.3568C87.0591 86.4745 84.7968 88.2251 83.2684 87.0131Z" fill="url(#paint49_linear_2666_5881)"/>
<path style="mix-blend-mode:screen" d="M83.7131 88.5056C79.0875 88.4383 75.3506 84.6744 75.3506 80.0286C75.3506 75.8136 78.4276 72.3259 82.4608 71.666C82.4204 71.666 82.38 71.666 82.3396 71.666C77.6533 71.666 73.8558 75.4635 73.8558 80.1498C73.8558 84.836 77.6533 88.6335 82.3396 88.6335C82.8109 88.6335 83.262 88.5864 83.7131 88.5123L83.7131 88.5056Z" fill="url(#paint50_linear_2666_5881)"/>
<path style="mix-blend-mode:screen" d="M89.1797 80.4737C88.6815 80.5949 88.062 79.8273 87.7994 78.75C87.5368 77.6727 87.7321 76.7031 88.2303 76.5819C88.7286 76.4607 89.348 77.2283 89.6106 78.3056C89.8732 79.3829 89.678 80.3525 89.1797 80.4737Z" fill="url(#paint51_linear_2666_5881)"/>
<path style="mix-blend-mode:screen" d="M88.7684 82.9709C88.5193 82.9372 88.3711 82.4928 88.4452 81.9811C88.5193 81.4694 88.7818 81.0856 89.031 81.1192C89.2801 81.1529 89.4282 81.5973 89.3542 82.109C89.2801 82.6207 89.0175 83.0045 88.7684 82.9709Z" fill="url(#paint52_linear_2666_5881)"/>
<path style="mix-blend-mode:multiply" opacity="0.45" d="M85.5772 70.4161C84.9712 70.1872 85.2405 69.2109 85.8465 69.4398C88.6879 70.5171 90.9974 72.4832 92.4719 75.1428C92.7884 75.7151 91.9131 76.2201 91.5966 75.6545C90.2567 73.2305 88.1695 71.3991 85.5772 70.4161ZM92.243 78.4891C92.4652 79.2971 92.5527 80.1051 92.5056 80.9467C92.4719 81.5931 93.4819 81.5931 93.5156 80.9467C93.5627 80.0243 93.4617 79.1153 93.2193 78.2198C93.0443 77.5936 92.0747 77.8629 92.243 78.4891ZM72.3735 73.7288C69.3638 78.9941 70.3401 85.1617 74.8715 89.2083C75.3563 89.6392 76.07 88.9255 75.5852 88.4946C71.3905 84.751 70.4545 79.1153 73.2488 74.2405C73.572 73.6749 72.6967 73.1632 72.3735 73.7288ZM77.1877 90.7435C77.9755 91.1138 78.7902 91.3764 79.652 91.5178C80.285 91.6188 80.561 90.6492 79.9214 90.5415C79.147 90.4135 78.4064 90.1981 77.6927 89.8682C77.1069 89.5988 76.5952 90.4674 77.181 90.7435L77.1877 90.7435Z" fill="url(#paint53_radial_2666_5881)"/>
<path style="mix-blend-mode:screen" d="M80.6272 112.323C69.6993 114.491 63.9425 108.613 60.3537 105.085C59.7545 109.125 59.4582 111.71 59.4582 111.71C59.4582 111.71 66.3597 121.224 75.9005 117.79C75.9005 117.79 77.8531 115.744 80.6272 112.323Z" fill="url(#paint54_radial_2666_5881)"/>
<path d="M75.8941 117.791C75.8941 117.791 77.8198 115.771 80.5669 112.391C70.6153 115.737 62.8116 108.33 60.3136 105.543C59.8423 108.883 59.5729 111.172 59.5056 111.778C60.1049 112.572 66.8043 121.07 75.8941 117.797L75.8941 117.791Z" fill="url(#paint55_radial_2666_5881)"/>
<path style="mix-blend-mode:multiply" d="M80.0752 112.997C80.2368 112.801 80.4052 112.599 80.5735 112.391C70.6219 115.737 62.8182 108.33 60.3202 105.543C60.3 105.705 60.273 105.866 60.2528 106.021C62.7172 108.775 70.3324 115.993 80.0752 112.997Z" fill="url(#paint56_radial_2666_5881)"/>
<path style="mix-blend-mode:multiply" d="M65.5922 116.929C65.9154 115.104 66.3126 113.057 66.7839 110.802C63.7136 109.064 61.458 106.822 60.3134 105.543C59.8421 108.883 59.5727 111.172 59.5054 111.778C59.5189 111.798 59.5323 111.812 59.5525 111.838C59.5525 111.838 59.5593 111.852 59.566 111.859C60.0643 112.498 62.266 115.171 65.5989 116.935L65.5922 116.929Z" fill="url(#paint57_radial_2666_5881)"/>
<path style="mix-blend-mode:multiply" d="M69.6388 118.349C70.6622 116.781 71.7732 115.003 72.9583 113.037C66.7503 112.034 62.1313 107.576 60.3134 105.543C59.8421 108.883 59.5728 111.172 59.5054 111.778C59.5324 111.818 59.5795 111.872 59.6334 111.939C59.6334 111.939 59.6334 111.939 59.6334 111.946C60.4952 113.023 64.2456 117.387 69.6253 118.343L69.6388 118.349Z" fill="url(#paint58_radial_2666_5881)"/>
<path style="mix-blend-mode:multiply" d="M61.0404 107.522C61.0404 107.522 62.5352 109.098 64.3599 110.175L63.4442 114.74C63.4442 114.74 61.7811 113.077 60.3739 111.751L61.0404 107.516L61.0404 107.522Z" fill="url(#paint59_radial_2666_5881)"/>
<path style="mix-blend-mode:screen" d="M78.0012 114.007C78.0012 114.007 76.0486 114.761 73.692 114.135L71.5441 117.67C71.5441 117.67 73.3486 118.154 75.8399 116.976L78.0012 114L78.0012 114.007Z" fill="url(#paint60_radial_2666_5881)"/>
<path style="mix-blend-mode:screen" d="M91.05 52.5442C91.0904 52.4702 92.6525 53.2916 94.3358 53.7427C95.1707 53.9784 96.0258 54.14 96.6654 54.2275C96.827 54.2477 96.9752 54.2679 97.1031 54.2814C97.1704 54.2881 97.231 54.2949 97.2849 54.3016C97.3118 54.3016 97.2983 54.3016 97.3051 54.3016C97.3051 54.3016 97.3051 54.3016 97.3118 54.3016C97.3051 54.2545 97.2849 54.2006 97.2714 54.1467C97.2377 54.0188 97.1973 53.8707 97.157 53.7158C96.9819 53.0829 96.7328 52.248 96.4567 51.4131C95.9046 49.75 95.1976 48.134 95.2784 48.1004C95.3592 48.06 96.2143 49.6153 96.8809 51.2582C97.2175 52.0797 97.5205 52.9146 97.7225 53.5475C97.7764 53.7091 97.8168 53.8505 97.8639 53.9784C97.9245 54.1737 97.9717 54.342 98.0121 54.4834C98.0659 54.6719 98.1063 54.8133 98.1333 54.9143C98.1467 54.9615 98.1602 55.0018 98.1669 55.0288C98.14 55.0288 98.1265 55.0288 98.1265 55.0288C98.1265 55.0288 97.9043 55.0019 97.5205 54.9615C97.433 54.948 97.332 54.9412 97.2175 54.9278C97.1569 54.921 97.0964 54.9076 97.029 54.9008C96.8944 54.8806 96.7395 54.8537 96.5779 54.8268C95.9181 54.7056 95.0427 54.4901 94.2011 54.1939C92.5043 53.6148 91.0028 52.6385 91.05 52.5644L91.05 52.5442ZM90.8143 65.6739C91.6694 65.9163 92.8275 66.1721 94.0058 66.3472C95.1841 66.5223 96.3692 66.6031 97.2647 66.6233C98.1669 66.6435 98.7325 66.6233 98.7729 66.6233C98.7729 66.6233 98.82 66.6233 98.9278 66.5963C99.049 66.5627 99.2644 66.4684 99.352 66.2193C99.4395 65.9432 99.3722 65.7883 99.3654 65.6133C99.3452 65.4315 99.325 65.2362 99.2981 65.014C99.1971 64.132 99.0624 62.9604 98.9278 61.7889C98.7796 60.6173 98.6382 59.4457 98.5305 58.5704C98.4093 57.6951 98.315 57.1093 98.2679 57.1093C98.2275 57.1093 98.2343 57.7018 98.2814 58.5906C98.3353 59.4727 98.4093 60.651 98.4834 61.8293C98.5709 63.0076 98.6517 64.1859 98.719 65.0679C98.7325 65.2901 98.7527 65.4921 98.7662 65.6672C98.7864 65.849 98.7864 66.0105 98.7796 65.9836C98.7796 65.9836 98.7796 65.9836 98.7729 65.9836C98.7392 65.9836 98.719 65.9903 98.719 65.9903C98.7594 65.9903 98.1467 66.0307 97.2849 66.0442C96.4096 66.0577 95.238 66.024 94.0732 65.9095C92.9083 65.8018 91.7502 65.6133 90.8817 65.445C90.0131 65.2766 89.4408 65.1487 89.4273 65.1891C89.4138 65.2295 89.9659 65.4382 90.8278 65.6806L90.8143 65.6739ZM81.5024 108.84C81.8929 108.369 82.445 107.682 83.0981 106.854C84.3976 105.197 86.1079 102.955 87.6497 100.599C89.2118 98.2489 90.5383 95.7576 91.4876 93.8723C92.437 91.987 93.0295 90.7145 93.0295 90.7145C93.0295 90.7145 93.622 89.4419 94.4704 87.5027C95.3121 85.5703 96.3826 82.9511 97.2041 80.2512C98.0323 77.5512 98.5642 74.7636 98.6988 72.6494C98.746 72.1242 98.7662 71.6394 98.7662 71.2085C98.7796 70.7776 98.7796 70.4073 98.7662 70.0976C98.7392 69.4848 98.7123 69.128 98.6921 69.1347C98.6719 69.1347 98.6517 69.4848 98.6382 70.0976C98.6382 70.4073 98.6113 70.7776 98.5844 71.2018C98.5642 71.626 98.5238 72.104 98.4564 72.6292C98.2477 74.7165 97.6552 77.4636 96.7799 80.1165C95.9113 82.7761 94.8071 85.3549 93.9385 87.2671C93.0699 89.1793 92.4572 90.4451 92.4572 90.4451C92.4572 90.4451 91.8782 91.7244 90.9625 93.6164C90.0468 95.5084 88.7674 97.9997 87.2727 100.363C85.7847 102.733 84.1418 105.009 82.9029 106.712C82.2834 107.561 81.765 108.275 81.4081 108.773C81.0513 109.271 80.8493 109.561 80.8695 109.574C80.8897 109.587 81.1186 109.325 81.5091 108.847L81.5024 108.84ZM68.1169 117.142C68.6219 117.485 69.376 117.809 70.1772 117.97C70.9717 118.139 71.7932 118.152 72.3992 118.125C73.0052 118.091 73.4024 118.031 73.4024 118.031C73.4024 118.031 73.7997 117.964 74.3854 117.829C74.6817 117.755 75.0049 117.694 75.3954 117.553C75.5839 117.485 75.7994 117.364 75.961 117.203C76.1226 117.041 76.2438 116.866 76.3515 116.698C77.2268 115.385 78.0819 114.058 78.0079 114.004C77.9338 113.951 76.9508 115.189 75.9879 116.435C75.7455 116.758 75.5368 116.974 75.2204 117.055C74.9106 117.142 74.547 117.196 74.2643 117.257C73.6919 117.358 73.3082 117.405 73.3082 117.405C73.3082 117.405 72.9311 117.479 72.352 117.539C71.7797 117.6 71.0121 117.634 70.2513 117.526C69.4905 117.425 68.7565 117.189 68.2381 116.927C67.7196 116.671 67.4099 116.422 67.3763 116.462C67.3493 116.489 67.6119 116.805 68.1169 117.142Z" fill="url(#paint61_radial_2666_5881)"/>
<defs>
<radialGradient id="paint0_radial_2666_5881" cx="0" cy="0" r="1" gradientUnits="userSpaceOnUse" gradientTransform="translate(7.92409 115.511) rotate(90) scale(110.516)">
<stop offset="0.22" stop-color="#DE007B"/>
<stop offset="0.92" stop-color="#FFE245"/>
</radialGradient>
<radialGradient id="paint1_radial_2666_5881" cx="0" cy="0" r="1" gradientUnits="userSpaceOnUse" gradientTransform="translate(27.5994 98.473) rotate(90) scale(63.5768 63.5768)">
<stop offset="0.22" stop-color="#DE007B"/>
<stop offset="0.92" stop-color="#FFE245"/>
</radialGradient>
<radialGradient id="paint2_radial_2666_5881" cx="0" cy="0" r="1" gradientUnits="userSpaceOnUse" gradientTransform="translate(27.07 120.496) rotate(90) scale(63.5768 63.5768)">
<stop offset="0.22" stop-color="#DE007B"/>
<stop offset="0.92" stop-color="#FFE245"/>
</radialGradient>
<radialGradient id="paint3_radial_2666_5881" cx="0" cy="0" r="1" gradientUnits="userSpaceOnUse" gradientTransform="translate(8.39693 15.7059) rotate(90) scale(3.1472)">
<stop stop-color="#D1E1EE"/>
<stop offset="0.34" stop-color="#8EE1EE"/>
<stop offset="0.94" stop-color="#732FA4"/>
</radialGradient>
<radialGradient id="paint4_radial_2666_5881" cx="0" cy="0" r="1" gradientUnits="userSpaceOnUse" gradientTransform="translate(7.71672 136.31) rotate(90) scale(86.8868 86.8868)">
<stop offset="0.22" stop-color="#DE007B"/>
<stop offset="0.92" stop-color="#FFE245"/>
</radialGradient>
<radialGradient id="paint5_radial_2666_5881" cx="0" cy="0" r="1" gradientUnits="userSpaceOnUse" gradientTransform="translate(34.4209 186.965) rotate(90) scale(145.088 145.088)">
<stop offset="0.22" stop-color="#DE007B"/>
<stop offset="0.92" stop-color="#FFE245"/>
</radialGradient>
<radialGradient id="paint6_radial_2666_5881" cx="0" cy="0" r="1" gradientUnits="userSpaceOnUse" gradientTransform="translate(-1.63755 57.0201) rotate(90) scale(3.5756 3.5756)">
<stop stop-color="#D1E1EE"/>
<stop offset="0.34" stop-color="#8EE1EE"/>
<stop offset="0.94" stop-color="#732FA4"/>
</radialGradient>
<radialGradient id="paint7_radial_2666_5881" cx="0" cy="0" r="1" gradientUnits="userSpaceOnUse" gradientTransform="translate(109.285 113.248) rotate(76.84) scale(31.5552 33.216)">
<stop stop-color="#E0A326"/>
<stop offset="1" stop-color="#FFFF63"/>
</radialGradient>
<radialGradient id="paint8_radial_2666_5881" cx="0" cy="0" r="1" gradientUnits="userSpaceOnUse" gradientTransform="translate(81.7991 82.6626) rotate(129.57) scale(51.7038 51.7038)">
<stop stop-color="#FFFF63"/>
<stop offset="1" stop-color="#E0A326"/>
</radialGradient>
<radialGradient id="paint9_radial_2666_5881" cx="0" cy="0" r="1" gradientUnits="userSpaceOnUse" gradientTransform="translate(94.266 112.889) rotate(129.57) scale(10.4431 10.4431)">
<stop stop-color="#FFFF63"/>
<stop offset="1" stop-color="#E0A326"/>
</radialGradient>
<radialGradient id="paint10_radial_2666_5881" cx="0" cy="0" r="1" gradientUnits="userSpaceOnUse" gradientTransform="translate(98.7812 120.089) rotate(129.57) scale(13.9443 13.9443)">
<stop stop-color="#FFFF63"/>
<stop offset="1" stop-color="#E0A326"/>
</radialGradient>
<radialGradient id="paint11_radial_2666_5881" cx="0" cy="0" r="1" gradientUnits="userSpaceOnUse" gradientTransform="translate(99.466 103.986) rotate(129.57) scale(3.87156)">
<stop stop-color="#FFFF63"/>
<stop offset="1" stop-color="#E0A326"/>
</radialGradient>
<radialGradient id="paint12_radial_2666_5881" cx="0" cy="0" r="1" gradientUnits="userSpaceOnUse" gradientTransform="translate(89.7311 101.094) rotate(129.57) scale(2.32294)">
<stop stop-color="#FFFF63"/>
<stop offset="1" stop-color="#E0A326"/>
</radialGradient>
<radialGradient id="paint13_radial_2666_5881" cx="0" cy="0" r="1" gradientUnits="userSpaceOnUse" gradientTransform="translate(35.7434 86.9528) rotate(142.73) scale(31.5552 33.216)">
<stop stop-color="#E0A326"/>
<stop offset="1" stop-color="#FFFF63"/>
</radialGradient>
<radialGradient id="paint14_radial_2666_5881" cx="0" cy="0" r="1" gradientUnits="userSpaceOnUse" gradientTransform="translate(76.6142 80.9184) rotate(90) scale(51.7038 51.7038)">
<stop stop-color="#FFFF63"/>
<stop offset="1" stop-color="#E0A326"/>
</radialGradient>
<radialGradient id="paint15_radial_2666_5881" cx="0" cy="0" r="1" gradientUnits="userSpaceOnUse" gradientTransform="translate(47.7491 96.2776) rotate(90) scale(10.4431 10.4431)">
<stop stop-color="#FFFF63"/>
<stop offset="1" stop-color="#E0A326"/>
</radialGradient>
<radialGradient id="paint16_radial_2666_5881" cx="0" cy="0" r="1" gradientUnits="userSpaceOnUse" gradientTransform="translate(39.6826 98.9575) rotate(90) scale(13.9443 13.9444)">
<stop stop-color="#FFFF63"/>
<stop offset="1" stop-color="#E0A326"/>
</radialGradient>
<radialGradient id="paint17_radial_2666_5881" cx="0" cy="0" r="1" gradientUnits="userSpaceOnUse" gradientTransform="translate(49.4123 86.1048) rotate(90) scale(3.87156 3.87156)">
<stop stop-color="#FFFF63"/>
<stop offset="1" stop-color="#E0A326"/>
</radialGradient>
<radialGradient id="paint18_radial_2666_5881" cx="0" cy="0" r="1" gradientUnits="userSpaceOnUse" gradientTransform="translate(58.7576 90.0773) rotate(90) scale(2.32295 2.32294)">
<stop stop-color="#FFFF63"/>
<stop offset="1" stop-color="#E0A326"/>
</radialGradient>
<radialGradient id="paint19_radial_2666_5881" cx="0" cy="0" r="1" gradientUnits="userSpaceOnUse" gradientTransform="translate(64.6057 117.159) rotate(82.48) scale(10.0324 10.0324)">
<stop stop-color="#B30058"/>
<stop offset="1" stop-color="#5C2D7D"/>
</radialGradient>
<radialGradient id="paint20_radial_2666_5881" cx="0" cy="0" r="1" gradientUnits="userSpaceOnUse" gradientTransform="translate(87.1716 115.34) rotate(90) scale(27.0538 27.0538)">
<stop stop-color="#B30058"/>
<stop offset="1" stop-color="#5C2D7D"/>
</radialGradient>
<radialGradient id="paint21_radial_2666_5881" cx="0" cy="0" r="1" gradientUnits="userSpaceOnUse" gradientTransform="translate(81.846 115.044) rotate(90) scale(22.9197 22.9196)">
<stop stop-color="#B30058"/>
<stop offset="1" stop-color="#5C2D7D"/>
</radialGradient>
<radialGradient id="paint22_radial_2666_5881" cx="0" cy="0" r="1" gradientUnits="userSpaceOnUse" gradientTransform="translate(101.165 75.7895) rotate(82.48) scale(48.7076 48.7076)">
<stop stop-color="#8DDFEC"/>
<stop offset="0.94" stop-color="#5E8BEA"/>
</radialGradient>
<radialGradient id="paint23_radial_2666_5881" cx="0" cy="0" r="1" gradientUnits="userSpaceOnUse" gradientTransform="translate(108.031 75.7942) rotate(90) scale(64.6651 64.6652)">
<stop stop-color="#8DDFEC"/>
<stop offset="0.94" stop-color="#5E8BEA"/>
</radialGradient>
<radialGradient id="paint24_radial_2666_5881" cx="0" cy="0" r="1" gradientUnits="userSpaceOnUse" gradientTransform="translate(109.277 75.2016) rotate(90) scale(65.0691 65.0692)">
<stop stop-color="#8DDFEC"/>
<stop offset="0.94" stop-color="#5E8BEA"/>
</radialGradient>
<radialGradient id="paint25_radial_2666_5881" cx="0" cy="0" r="1" gradientUnits="userSpaceOnUse" gradientTransform="translate(87.2937 78.7317) rotate(90) scale(38.9714 38.9715)">
<stop stop-color="#8DDFEC"/>
<stop offset="0.94" stop-color="#5E8BEA"/>
</radialGradient>
<radialGradient id="paint26_radial_2666_5881" cx="0" cy="0" r="1" gradientUnits="userSpaceOnUse" gradientTransform="translate(107.358 86.1649) rotate(90) scale(41.0251 41.0251)">
<stop stop-color="#8DDFEC"/>
<stop offset="0.94" stop-color="#5E8BEA"/>
</radialGradient>
<radialGradient id="paint27_radial_2666_5881" cx="0" cy="0" r="1" gradientUnits="userSpaceOnUse" gradientTransform="translate(103.378 33.5037) rotate(90) scale(13.4865 13.4865)">
<stop stop-color="#E0A326"/>
<stop offset="1" stop-color="#FFFF63"/>
</radialGradient>
<radialGradient id="paint28_radial_2666_5881" cx="0" cy="0" r="1" gradientUnits="userSpaceOnUse" gradientTransform="translate(103.378 33.5374) rotate(90) scale(13.5134 13.5134)">
<stop stop-color="#FFFF63"/>
<stop offset="1" stop-color="#E0A326"/>
</radialGradient>
<radialGradient id="paint29_radial_2666_5881" cx="0" cy="0" r="1" gradientUnits="userSpaceOnUse" gradientTransform="translate(67.5181 56.5926) rotate(90) scale(46.2635 46.2634)">
<stop stop-color="#8DDFEC"/>
<stop offset="0.94" stop-color="#5E8BEA"/>
</radialGradient>
<radialGradient id="paint30_radial_2666_5881" cx="0" cy="0" r="1" gradientUnits="userSpaceOnUse" gradientTransform="translate(88.6672 61.7758) rotate(90) scale(19.8628 19.8628)">
<stop stop-color="#FFFF63"/>
<stop offset="1" stop-color="#E0A326"/>
</radialGradient>
<radialGradient id="paint31_radial_2666_5881" cx="0" cy="0" r="1" gradientUnits="userSpaceOnUse" gradientTransform="translate(72.6689 58.9546) rotate(90) scale(16.6107 16.6107)">
<stop stop-color="#FFFF63"/>
<stop offset="1" stop-color="#E0A326"/>
</radialGradient>
<radialGradient id="paint32_radial_2666_5881" cx="0" cy="0" r="1" gradientUnits="userSpaceOnUse" gradientTransform="translate(100.463 54.4232) rotate(90) scale(17.0483 17.0483)">
<stop stop-color="#E0A326"/>
<stop offset="1" stop-color="#FFFF63"/>
</radialGradient>
<radialGradient id="paint33_radial_2666_5881" cx="0" cy="0" r="1" gradientUnits="userSpaceOnUse" gradientTransform="translate(90.1622 51.5144) rotate(90) scale(11.0154 11.0154)">
<stop stop-color="#FFFF63"/>
<stop offset="1" stop-color="#E0A326"/>
</radialGradient>
<radialGradient id="paint34_radial_2666_5881" cx="0" cy="0" r="1" gradientUnits="userSpaceOnUse" gradientTransform="translate(80.0961 50.2284) rotate(90) scale(22.28 22.28)">
<stop stop-color="#FFFF63"/>
<stop offset="1" stop-color="#E0A326"/>
</radialGradient>
<radialGradient id="paint35_radial_2666_5881" cx="0" cy="0" r="1" gradientUnits="userSpaceOnUse" gradientTransform="translate(101.4 54.4452) rotate(90) scale(26.6229 26.6229)">
<stop stop-color="#FFFF63"/>
<stop offset="1" stop-color="#E0A326"/>
</radialGradient>
<radialGradient id="paint36_radial_2666_5881" cx="0" cy="0" r="1" gradientUnits="userSpaceOnUse" gradientTransform="translate(98.5242 52.283) rotate(90) scale(20.637 20.6371)">
<stop stop-color="#FFFF63"/>
<stop offset="1" stop-color="#E0A326"/>
</radialGradient>
<radialGradient id="paint37_radial_2666_5881" cx="0" cy="0" r="1" gradientUnits="userSpaceOnUse" gradientTransform="translate(98.5246 52.2835) rotate(90) scale(20.6371)">
<stop stop-color="#FFFF63"/>
<stop offset="1" stop-color="#E0A326"/>
</radialGradient>
<radialGradient id="paint38_radial_2666_5881" cx="0" cy="0" r="1" gradientUnits="userSpaceOnUse" gradientTransform="translate(100.625 56.3975) rotate(90) scale(11.1232 11.1232)">
<stop stop-color="#FFFF63"/>
<stop offset="1" stop-color="#E0A326"/>
</radialGradient>
<radialGradient id="paint39_radial_2666_5881" cx="0" cy="0" r="1" gradientUnits="userSpaceOnUse" gradientTransform="translate(100.625 56.3983) rotate(90) scale(11.1232 11.1232)">
<stop stop-color="#FFFF63"/>
<stop offset="1" stop-color="#E0A326"/>
</radialGradient>
<radialGradient id="paint40_radial_2666_5881" cx="0" cy="0" r="1" gradientUnits="userSpaceOnUse" gradientTransform="translate(81.5846 80.1099) rotate(90) scale(12.1803)">
<stop stop-color="#8DDFEC"/>
<stop offset="0.94" stop-color="#5E8BEA"/>
</radialGradient>
<radialGradient id="paint41_radial_2666_5881" cx="0" cy="0" r="1" gradientUnits="userSpaceOnUse" gradientTransform="translate(81.5845 80.1093) rotate(90) scale(9.40621)">
<stop stop-color="#8DDFEC"/>
<stop offset="0.94" stop-color="#5E8BEA"/>
</radialGradient>
<radialGradient id="paint42_radial_2666_5881" cx="0" cy="0" r="1" gradientUnits="userSpaceOnUse" gradientTransform="translate(82.8778 79.8287) rotate(90) scale(12.1803)">
<stop stop-color="#8DDFEC"/>
<stop offset="0.94" stop-color="#5E8BEA"/>
</radialGradient>
<radialGradient id="paint43_radial_2666_5881" cx="0" cy="0" r="1" gradientUnits="userSpaceOnUse" gradientTransform="translate(82.1236 80.2734) rotate(90) scale(12.1803 12.1803)">
<stop stop-color="#E0A326"/>
<stop offset="1" stop-color="#FFFF63"/>
</radialGradient>
<radialGradient id="paint44_radial_2666_5881" cx="0" cy="0" r="1" gradientUnits="userSpaceOnUse" gradientTransform="translate(86.1305 80.0102) rotate(90) scale(10.2209 10.2209)">
<stop stop-color="#E0A326"/>
<stop offset="1" stop-color="#FFFF63"/>
</radialGradient>
<radialGradient id="paint45_radial_2666_5881" cx="0" cy="0" r="1" gradientUnits="userSpaceOnUse" gradientTransform="translate(82.1203 80.2541) rotate(90) scale(10.0122 10.0122)">
<stop stop-color="#FFFF63"/>
<stop offset="1" stop-color="#E0A326"/>
</radialGradient>
<linearGradient id="paint46_linear_2666_5881" x1="91.1792" y1="76.8613" x2="69.7543" y2="84.8737" gradientUnits="userSpaceOnUse">
<stop stop-color="#2F67C5"/>
<stop offset="0.96" stop-color="#09002B"/>
</linearGradient>
<linearGradient id="paint47_linear_2666_5881" x1="90.1568" y1="78.1322" x2="71.8224" y2="84.9933" gradientUnits="userSpaceOnUse">
<stop stop-color="#2F67C5"/>
<stop offset="0.96" stop-color="#09002B"/>
</linearGradient>
<linearGradient id="paint48_linear_2666_5881" x1="89.5102" y1="75.6475" x2="70.5833" y2="82.724" gradientUnits="userSpaceOnUse">
<stop stop-color="#2F67C5"/>
<stop offset="0.96" stop-color="#09002B"/>
</linearGradient>
<linearGradient id="paint49_linear_2666_5881" x1="95.8594" y1="77.8359" x2="82.0025" y2="80.583" gradientUnits="userSpaceOnUse">
<stop stop-color="#2F67C5"/>
<stop offset="0.96" stop-color="#09002B"/>
</linearGradient>
<linearGradient id="paint50_linear_2666_5881" x1="85.3426" y1="78.9311" x2="72.1793" y2="83.853" gradientUnits="userSpaceOnUse">
<stop stop-color="#2F67C5"/>
<stop offset="0.96" stop-color="#09002B"/>
</linearGradient>
<linearGradient id="paint51_linear_2666_5881" x1="92.0797" y1="75.3974" x2="83.3745" y2="83.4473" gradientUnits="userSpaceOnUse">
<stop stop-color="#2F67C5"/>
<stop offset="0.96" stop-color="#09002B"/>
</linearGradient>
<linearGradient id="paint52_linear_2666_5881" x1="95.3851" y1="81.046" x2="85.4906" y2="85.0526" gradientUnits="userSpaceOnUse">
<stop stop-color="#2F67C5"/>
<stop offset="0.96" stop-color="#09002B"/>
</linearGradient>
<radialGradient id="paint53_radial_2666_5881" cx="0" cy="0" r="1" gradientUnits="userSpaceOnUse" gradientTransform="translate(82.0827 80.4619) rotate(90) scale(11.2511 11.2511)">
<stop stop-color="#FFFF63"/>
<stop offset="1" stop-color="#E0A326"/>
</radialGradient>
<radialGradient id="paint54_radial_2666_5881" cx="0" cy="0" r="1" gradientUnits="userSpaceOnUse" gradientTransform="translate(65.4641 112.565) rotate(90) scale(12.9681 12.968)">
<stop stop-color="#8DDFEC"/>
<stop offset="0.94" stop-color="#5E8BEA"/>
</radialGradient>
<radialGradient id="paint55_radial_2666_5881" cx="0" cy="0" r="1" gradientUnits="userSpaceOnUse" gradientTransform="translate(65.4846 112.768) rotate(90) scale(12.7122 12.7122)">
<stop stop-color="#FFFF63"/>
<stop offset="1" stop-color="#E0A326"/>
</radialGradient>
<radialGradient id="paint56_radial_2666_5881" cx="0" cy="0" r="1" gradientUnits="userSpaceOnUse" gradientTransform="translate(66.0164 110.088) rotate(90) scale(10.4229 10.4229)">
<stop stop-color="#FFFF63"/>
<stop offset="1" stop-color="#E0A326"/>
</radialGradient>
<radialGradient id="paint57_radial_2666_5881" cx="0" cy="0" r="1" gradientUnits="userSpaceOnUse" gradientTransform="translate(69.4233 110.243) rotate(90) scale(11.9715 11.9715)">
<stop stop-color="#FFFF63"/>
<stop offset="1" stop-color="#E0A326"/>
</radialGradient>
<radialGradient id="paint58_radial_2666_5881" cx="0" cy="0" r="1" gradientUnits="userSpaceOnUse" gradientTransform="translate(77.8263 110.828) rotate(90) scale(19.8291 19.8291)">
<stop stop-color="#FFFF63"/>
<stop offset="1" stop-color="#E0A326"/>
</radialGradient>
<radialGradient id="paint59_radial_2666_5881" cx="0" cy="0" r="1" gradientUnits="userSpaceOnUse" gradientTransform="translate(68.7566 110.094) rotate(90) scale(9.63514 9.6351)">
<stop stop-color="#FFFF63"/>
<stop offset="1" stop-color="#E0A326"/>
</radialGradient>
<radialGradient id="paint60_radial_2666_5881" cx="0" cy="0" r="1" gradientUnits="userSpaceOnUse" gradientTransform="translate(85.1316 115.347) rotate(90) scale(13.877 13.877)">
<stop stop-color="#FFFF63"/>
<stop offset="1" stop-color="#E0A326"/>
</radialGradient>
<radialGradient id="paint61_radial_2666_5881" cx="0" cy="0" r="1" gradientUnits="userSpaceOnUse" gradientTransform="translate(83.3809 83.1127) rotate(90) scale(27.2288 27.2288)">
<stop stop-color="#FFFF63"/>
<stop offset="1" stop-color="#E0A326"/>
</radialGradient>
</defs>
</svg>
