<svg width="58" height="58" viewBox="0 0 58 58" fill="none" xmlns="http://www.w3.org/2000/svg">
<g opacity="0.5">
<mask id="mask0_1042_2572" style="mask-type:alpha" maskUnits="userSpaceOnUse" x="0" y="0" width="58" height="58">
<rect y="58" width="58" height="58" transform="rotate(-90 0 58)" fill="#D9D9D9"/>
</mask>
<g mask="url(#mask0_1042_2572)">
<rect x="-39.3906" y="28.3848" width="1.03571" height="103.029" transform="rotate(-45 -39.3906 28.3848)" fill="#D20000"/>
<rect x="-35.5859" y="24.5818" width="1.03571" height="103.029" transform="rotate(-45 -35.5859 24.5818)" fill="#D20000"/>
<rect x="-31.7852" y="20.7787" width="1.03571" height="103.029" transform="rotate(-45 -31.7852 20.7787)" fill="#D20000"/>
<rect x="-27.9805" y="16.9757" width="1.03571" height="103.029" transform="rotate(-45 -27.9805 16.9757)" fill="#D20000"/>
<rect x="-24.1797" y="13.1733" width="1.03571" height="103.029" transform="rotate(-45 -24.1797 13.1733)" fill="#D20000"/>
<rect x="-20.375" y="9.37036" width="1.03571" height="103.029" transform="rotate(-45 -20.375 9.37036)" fill="#D20000"/>
<rect x="-16.5742" y="5.56738" width="1.03571" height="103.029" transform="rotate(-45 -16.5742 5.56738)" fill="#D20000"/>
<rect x="-12.7695" y="1.7644" width="1.03571" height="103.029" transform="rotate(-45 -12.7695 1.7644)" fill="#D20000"/>
<rect x="-8.96875" y="-2.0387" width="1.03571" height="103.029" transform="rotate(-45 -8.96875 -2.0387)" fill="#D20000"/>
<rect x="-5.16406" y="-5.84167" width="1.03571" height="103.029" transform="rotate(-45 -5.16406 -5.84167)" fill="#D20000"/>
<rect x="-1.35938" y="-9.64465" width="1.03571" height="103.029" transform="rotate(-45 -1.35938 -9.64465)" fill="#D20000"/>
<rect x="2.44141" y="-13.4476" width="1.03571" height="103.029" transform="rotate(-45 2.44141 -13.4476)" fill="#D20000"/>
<rect x="6.24609" y="-17.2507" width="1.03571" height="103.029" transform="rotate(-45 6.24609 -17.2507)" fill="#D20000"/>
<rect x="10.0469" y="-21.0537" width="1.03571" height="103.029" transform="rotate(-45 10.0469 -21.0537)" fill="#D20000"/>
<rect x="13.8516" y="-24.8567" width="1.03571" height="103.029" transform="rotate(-45 13.8516 -24.8567)" fill="#D20000"/>
<rect x="17.6523" y="-28.6591" width="1.03571" height="103.029" transform="rotate(-45 17.6523 -28.6591)" fill="#D20000"/>
<rect x="21.457" y="-32.462" width="1.03571" height="103.029" transform="rotate(-45 21.457 -32.462)" fill="#D20000"/>
<rect x="25.2578" y="-36.2656" width="1.03571" height="103.029" transform="rotate(-45 25.2578 -36.2656)" fill="#D20000"/>
</g>
</g>
</svg>
