<svg width="116" height="149" viewBox="0 0 116 149" xmlns="http://www.w3.org/2000/svg">
    <g fill="#CFCFCF" fill-rule="nonzero">
        <path d="M73.078 118.491v9.836H43.94v-9.836H5.088v24.59c0 2.716 2.175 4.919 4.856 4.919h97.13c2.68 0 4.856-2.203 4.856-4.918v-24.59H73.078zM111.167 51.25h-29V36.813C82.167 34.156 80 32 77.333 32H38.667c-2.668 0-4.834 2.156-4.834 4.813V51.25h-29C2.165 51.25 0 53.406 0 56.063v48.124C0 106.844 2.165 109 4.833 109H43.5V94.563h29V109h38.667c2.668 0 4.833-2.156 4.833-4.813V56.063c0-2.657-2.165-4.813-4.833-4.813zM73 51H44V41h29v10zM114.44 24.668c1.907-4.72.528-10.881-4.109-14.222.517-.186.937-.476 1.11-.904.88-2.178-.733-4.178-1.946-4.668-1.212-.49-3.762-.172-4.642 2.007-.173.427-.072.928.17 1.42-5.656-.817-10.928 2.656-12.835 7.376l5.916 2.39c-.183 2.46-.281 7.976 2.4 9.06 2.68 1.082 6.442-2.954 8.019-4.85l5.917 2.39zm-12.353-8.405.651-.89 3.648 1.473-.15 1.093c-.104.754-.125 1.452-.016 2.076l-5.563-2.248c.511-.373.98-.89 1.43-1.504zm5.784-6.029c-.154.952-.327 1.985-.506 3.031l-1.854-.749a380.53 380.53 0 0 1 1.742-2.532c.272.161.31.177.618.25zm-6.433 13.657c-.325-.513-.622-1.888-.73-3.531l3.708 1.498c-1.22 1.106-2.387 1.89-2.978 2.033z"/>
    </g>
</svg>
