<svg width="34" height="39" viewBox="0 0 34 39" fill="none" xmlns="http://www.w3.org/2000/svg">
<path d="M8.88254 16V0.609999H12.7775C13.4489 0.609999 14.0695 0.666999 14.6395 0.780999C15.2095 0.894999 15.7099 1.09767 16.1405 1.389C16.5839 1.68033 16.9195 2.08567 17.1475 2.605C17.3882 3.11167 17.5085 3.77667 17.5085 4.6C17.5085 5.22067 17.4199 5.75267 17.2425 6.196C17.0652 6.62667 16.8119 6.96867 16.4825 7.222C16.1532 7.47533 15.7479 7.64633 15.2665 7.735C15.8619 7.82367 16.3622 8.02633 16.7675 8.343C17.1729 8.65967 17.4769 9.07767 17.6795 9.597C17.8822 10.1163 17.9835 10.7433 17.9835 11.478C17.9835 12.2507 17.8822 12.922 17.6795 13.492C17.4895 14.062 17.2045 14.5307 16.8245 14.898C16.4445 15.2653 15.9759 15.544 15.4185 15.734C14.8612 15.9113 14.2152 16 13.4805 16H8.88254ZM12.0175 13.796H12.8915C13.6769 13.796 14.2152 13.5997 14.5065 13.207C14.8105 12.8143 14.9625 12.2253 14.9625 11.44C14.9625 10.832 14.8929 10.3507 14.7535 9.996C14.6142 9.62867 14.3862 9.36267 14.0695 9.198C13.7655 9.02067 13.3539 8.932 12.8345 8.932H12.0175V13.796ZM12.0175 6.823H12.7965C13.3412 6.823 13.7529 6.747 14.0315 6.595C14.3102 6.43033 14.5002 6.18967 14.6015 5.873C14.7155 5.54367 14.7725 5.14467 14.7725 4.676C14.7725 4.20733 14.6902 3.83367 14.5255 3.555C14.3735 3.26367 14.1329 3.05467 13.8035 2.928C13.4869 2.80133 13.0815 2.738 12.5875 2.738H12.0175V6.823ZM22.8327 16.209C21.8827 16.209 21.091 16.038 20.4577 15.696C19.8244 15.3413 19.343 14.8157 19.0137 14.119C18.697 13.4097 18.5134 12.5103 18.4627 11.421L21.1607 10.965C21.186 11.5983 21.2494 12.1303 21.3507 12.561C21.4647 12.979 21.6294 13.2957 21.8447 13.511C22.0727 13.7137 22.3514 13.815 22.6807 13.815C23.086 13.815 23.3584 13.6883 23.4977 13.435C23.6497 13.1817 23.7257 12.8903 23.7257 12.561C23.7257 11.915 23.5674 11.3767 23.2507 10.946C22.9467 10.5027 22.5414 10.0593 22.0347 9.616L20.4387 8.229C19.8687 7.74767 19.4 7.203 19.0327 6.595C18.678 5.987 18.5007 5.23967 18.5007 4.353C18.5007 3.08633 18.868 2.11733 19.6027 1.446C20.35 0.761999 21.3697 0.419999 22.6617 0.419999C23.4344 0.419999 24.0677 0.546666 24.5617 0.8C25.0557 1.05333 25.4357 1.39533 25.7017 1.826C25.9804 2.244 26.1704 2.70633 26.2717 3.213C26.3857 3.707 26.4554 4.201 26.4807 4.695L23.8017 5.094C23.7764 4.62533 23.732 4.21367 23.6687 3.859C23.618 3.50433 23.504 3.22567 23.3267 3.023C23.162 2.82033 22.9087 2.719 22.5667 2.719C22.1994 2.719 21.927 2.85833 21.7497 3.137C21.5724 3.403 21.4837 3.70067 21.4837 4.03C21.4837 4.57467 21.604 5.02433 21.8447 5.379C22.098 5.721 22.44 6.082 22.8707 6.462L24.4287 7.83C25.0747 8.38733 25.6257 9.027 26.0817 9.749C26.5504 10.4583 26.7847 11.3387 26.7847 12.39C26.7847 13.112 26.62 13.7643 26.2907 14.347C25.9614 14.9297 25.499 15.3857 24.9037 15.715C24.321 16.0443 23.6307 16.209 22.8327 16.209ZM1.64509 38L4.87509 24.852H0.676093V22.61H7.74409V24.548L4.49509 38H1.64509ZM12.375 38.228C11.3617 38.228 10.551 38.0317 9.94305 37.639C9.33505 37.2337 8.89805 36.67 8.63205 35.948C8.37871 35.226 8.25205 34.4027 8.25205 33.478C8.25205 33.06 8.29005 32.6673 8.36605 32.3C8.44205 31.9327 8.55605 31.597 8.70805 31.293C8.86005 30.989 9.04371 30.723 9.25905 30.495C9.48705 30.2543 9.75305 30.058 10.057 29.906C9.63905 29.602 9.27171 29.1777 8.95505 28.633C8.65105 28.0757 8.49271 27.3727 8.48005 26.524C8.46738 25.6753 8.60671 24.947 8.89805 24.339C9.18938 23.7183 9.62638 23.2433 10.209 22.914C10.7917 22.5847 11.5137 22.42 12.375 22.42C13.249 22.42 13.971 22.5847 14.541 22.914C15.1237 23.2433 15.5544 23.7183 15.833 24.339C16.1117 24.947 16.2447 25.6753 16.232 26.524C16.2194 27.3853 16.061 28.0947 15.757 28.652C15.4657 29.1967 15.1047 29.6147 14.674 29.906C14.978 30.058 15.2377 30.2543 15.453 30.495C15.681 30.723 15.871 30.989 16.023 31.293C16.175 31.597 16.289 31.9327 16.365 32.3C16.4537 32.6673 16.498 33.06 16.498 33.478C16.5234 34.4027 16.3967 35.226 16.118 35.948C15.852 36.67 15.415 37.2337 14.807 37.639C14.2117 38.0317 13.401 38.228 12.375 38.228ZM12.375 36.043C12.7424 36.043 13.0147 35.9163 13.192 35.663C13.3694 35.4097 13.4834 35.0993 13.534 34.732C13.5847 34.3647 13.61 34.01 13.61 33.668C13.6227 33.2627 13.5974 32.87 13.534 32.49C13.4834 32.11 13.3694 31.7997 13.192 31.559C13.0147 31.3183 12.7424 31.198 12.375 31.198C12.0204 31.198 11.748 31.3183 11.558 31.559C11.3807 31.7997 11.2604 32.11 11.197 32.49C11.1464 32.8573 11.121 33.25 11.121 33.668C11.121 34.01 11.1464 34.371 11.197 34.751C11.2477 35.1183 11.3617 35.4287 11.539 35.682C11.729 35.9227 12.0077 36.043 12.375 36.043ZM12.375 28.804C12.6284 28.804 12.831 28.709 12.983 28.519C13.1477 28.329 13.268 28.0567 13.344 27.702C13.42 27.3473 13.458 26.9293 13.458 26.448C13.458 25.9033 13.3694 25.4663 13.192 25.137C13.0274 24.795 12.755 24.624 12.375 24.624C11.995 24.624 11.71 24.795 11.52 25.137C11.3427 25.4663 11.254 25.897 11.254 26.429C11.254 26.9103 11.2857 27.3347 11.349 27.702C11.425 28.0567 11.5454 28.329 11.71 28.519C11.8874 28.709 12.109 28.804 12.375 28.804ZM21.1079 38.266C20.0313 38.266 19.2079 38.0697 18.6379 37.677C18.0679 37.2843 17.6753 36.7333 17.4599 36.024C17.2573 35.3147 17.1559 34.485 17.1559 33.535H19.9869C19.9869 34.0923 20.0186 34.561 20.0819 34.941C20.1579 35.321 20.2846 35.606 20.4619 35.796C20.6519 35.986 20.9306 36.0747 21.2979 36.062C21.6653 36.0493 21.9313 35.91 22.0959 35.644C22.2606 35.378 22.3619 34.998 22.3999 34.504C22.4379 34.01 22.4569 33.4273 22.4569 32.756C22.4569 32.2113 22.4253 31.73 22.3619 31.312C22.2986 30.894 22.1719 30.5647 21.9819 30.324C21.8046 30.0833 21.5259 29.963 21.1459 29.963C20.8039 29.963 20.5189 30.0833 20.2909 30.324C20.0756 30.5647 19.9173 30.9067 19.8159 31.35H17.3079L17.5169 22.61H24.5849V25.137H19.9299L19.7589 28.538C19.9109 28.348 20.1643 28.1833 20.5189 28.044C20.8863 27.9047 21.2789 27.8223 21.6969 27.797C22.4949 27.721 23.1536 27.873 23.6729 28.253C24.2049 28.633 24.5976 29.1967 24.8509 29.944C25.1043 30.6787 25.2309 31.578 25.2309 32.642C25.2309 33.4527 25.1803 34.2063 25.0789 34.903C24.9776 35.587 24.7813 36.1823 24.4899 36.689C24.1986 37.183 23.7806 37.5693 23.2359 37.848C22.6913 38.1267 21.9819 38.266 21.1079 38.266ZM29.809 38.228C28.7957 38.228 27.985 38.0317 27.377 37.639C26.769 37.2337 26.332 36.67 26.066 35.948C25.8127 35.226 25.686 34.4027 25.686 33.478C25.686 33.06 25.724 32.6673 25.8 32.3C25.876 31.9327 25.99 31.597 26.142 31.293C26.294 30.989 26.4777 30.723 26.693 30.495C26.921 30.2543 27.187 30.058 27.491 29.906C27.073 29.602 26.7057 29.1777 26.389 28.633C26.085 28.0757 25.9267 27.3727 25.914 26.524C25.9014 25.6753 26.0407 24.947 26.332 24.339C26.6234 23.7183 27.0604 23.2433 27.643 22.914C28.2257 22.5847 28.9477 22.42 29.809 22.42C30.683 22.42 31.405 22.5847 31.975 22.914C32.5577 23.2433 32.9884 23.7183 33.267 24.339C33.5457 24.947 33.6787 25.6753 33.666 26.524C33.6534 27.3853 33.495 28.0947 33.191 28.652C32.8997 29.1967 32.5387 29.6147 32.108 29.906C32.412 30.058 32.6717 30.2543 32.887 30.495C33.115 30.723 33.305 30.989 33.457 31.293C33.609 31.597 33.723 31.9327 33.799 32.3C33.8877 32.6673 33.932 33.06 33.932 33.478C33.9574 34.4027 33.8307 35.226 33.552 35.948C33.286 36.67 32.849 37.2337 32.241 37.639C31.6457 38.0317 30.835 38.228 29.809 38.228ZM29.809 36.043C30.1764 36.043 30.4487 35.9163 30.626 35.663C30.8034 35.4097 30.9174 35.0993 30.968 34.732C31.0187 34.3647 31.044 34.01 31.044 33.668C31.0567 33.2627 31.0314 32.87 30.968 32.49C30.9174 32.11 30.8034 31.7997 30.626 31.559C30.4487 31.3183 30.1764 31.198 29.809 31.198C29.4544 31.198 29.182 31.3183 28.992 31.559C28.8147 31.7997 28.6944 32.11 28.631 32.49C28.5804 32.8573 28.555 33.25 28.555 33.668C28.555 34.01 28.5804 34.371 28.631 34.751C28.6817 35.1183 28.7957 35.4287 28.973 35.682C29.163 35.9227 29.4417 36.043 29.809 36.043ZM29.809 28.804C30.0624 28.804 30.265 28.709 30.417 28.519C30.5817 28.329 30.702 28.0567 30.778 27.702C30.854 27.3473 30.892 26.9293 30.892 26.448C30.892 25.9033 30.8034 25.4663 30.626 25.137C30.4614 24.795 30.189 24.624 29.809 24.624C29.429 24.624 29.144 24.795 28.954 25.137C28.7767 25.4663 28.688 25.897 28.688 26.429C28.688 26.9103 28.7197 27.3347 28.783 27.702C28.859 28.0567 28.9794 28.329 29.144 28.519C29.3214 28.709 29.543 28.804 29.809 28.804Z" fill="black"/>
</svg>
