<svg width="30" height="30" viewBox="0 0 30 30" fill="none" xmlns="http://www.w3.org/2000/svg">
<g clip-path="url(#clip0_3105_5874)">
<path d="M15 0.625C7.0625 0.625 0.625 7.0625 0.625 15C0.625 22.9375 7.0625 29.375 15 29.375C22.9375 29.375 29.375 22.9375 29.375 15C29.375 7.0625 22.9375 0.625 15 0.625Z" fill="#3BD55A"/>
<mask id="path-2-inside-1_3105_5874" fill="white">
<path d="M22.9375 10.4375L12.9375 20.4375C12.8125 20.5625 12.6875 20.625 12.5 20.625C12.3125 20.625 12.1875 20.5625 12.0625 20.4375L7.0625 15.4375C6.8125 15.1875 6.8125 14.8125 7.0625 14.5625C7.3125 14.3125 7.6875 14.3125 7.9375 14.5625L12.5 19.125L22.0625 9.5625C22.3125 9.3125 22.6875 9.3125 22.9375 9.5625C23.1875 9.8125 23.1875 10.1875 22.9375 10.4375Z"/>
</mask>
<path d="M22.9375 10.4375L12.9375 20.4375C12.8125 20.5625 12.6875 20.625 12.5 20.625C12.3125 20.625 12.1875 20.5625 12.0625 20.4375L7.0625 15.4375C6.8125 15.1875 6.8125 14.8125 7.0625 14.5625C7.3125 14.3125 7.6875 14.3125 7.9375 14.5625L12.5 19.125L22.0625 9.5625C22.3125 9.3125 22.6875 9.3125 22.9375 9.5625C23.1875 9.8125 23.1875 10.1875 22.9375 10.4375Z" fill="black"/>
<path d="M22.9375 10.4375L21.5233 9.02329L22.9375 10.4375ZM12.9375 20.4375L14.3517 21.8517L12.9375 20.4375ZM12.0625 20.4375L10.6483 21.8517L12.0625 20.4375ZM7.0625 15.4375L8.47671 14.0233H8.47671L7.0625 15.4375ZM7.9375 14.5625L9.35171 13.1483L9.35171 13.1483L7.9375 14.5625ZM12.5 19.125L11.0858 20.5392L12.5 21.9534L13.9142 20.5392L12.5 19.125ZM22.0625 9.5625L20.6483 8.14829L22.0625 9.5625ZM21.5233 9.02329L11.5233 19.0233L14.3517 21.8517L24.3517 11.8517L21.5233 9.02329ZM11.5233 19.0233C11.5789 18.9677 11.7139 18.8465 11.9299 18.7505C12.1546 18.6506 12.3604 18.625 12.5 18.625V22.625C12.8271 22.625 13.1891 22.5681 13.5545 22.4058C13.9111 22.2472 14.1711 22.0323 14.3517 21.8517L11.5233 19.0233ZM12.5 18.625C12.6396 18.625 12.8454 18.6506 13.0701 18.7505C13.2861 18.8465 13.4211 18.9677 13.4767 19.0233L10.6483 21.8517C10.8289 22.0323 11.0889 22.2472 11.4455 22.4058C11.8109 22.5681 12.1729 22.625 12.5 22.625V18.625ZM13.4767 19.0233L8.47671 14.0233L5.64829 16.8517L10.6483 21.8517L13.4767 19.0233ZM8.47671 14.0233C8.71482 14.2614 8.875 14.6091 8.875 15C8.875 15.3909 8.71482 15.7386 8.47671 15.9767L5.64829 13.1483C4.61724 14.1793 4.61724 15.8207 5.64829 16.8517L8.47671 14.0233ZM8.47671 15.9767C8.23861 16.2148 7.89087 16.375 7.5 16.375C7.10913 16.375 6.76139 16.2148 6.52329 15.9767L9.35171 13.1483C8.32066 12.1172 6.67934 12.1172 5.64829 13.1483L8.47671 15.9767ZM6.52329 15.9767L11.0858 20.5392L13.9142 17.7108L9.35171 13.1483L6.52329 15.9767ZM13.9142 20.5392L23.4767 10.9767L20.6483 8.14829L11.0858 17.7108L13.9142 20.5392ZM23.4767 10.9767C23.2386 11.2148 22.8909 11.375 22.5 11.375C22.1091 11.375 21.7614 11.2148 21.5233 10.9767L24.3517 8.14829C23.3207 7.11724 21.6793 7.11724 20.6483 8.14829L23.4767 10.9767ZM21.5233 10.9767C21.2852 10.7386 21.125 10.3909 21.125 10C21.125 9.60913 21.2852 9.26139 21.5233 9.02329L24.3517 11.8517C25.3828 10.8207 25.3828 9.17934 24.3517 8.14829L21.5233 10.9767Z" fill="black" mask="url(#path-2-inside-1_3105_5874)"/>
</g>
<defs>
<clipPath id="clip0_3105_5874">
<rect width="30" height="30" fill="white"/>
</clipPath>
</defs>
</svg>
