<?xml version="1.0" encoding="UTF-8"?><svg version="1.1" width="16px" height="16px" viewBox="0 0 16.0 16.0" xmlns="http://www.w3.org/2000/svg" xmlns:xlink="http://www.w3.org/1999/xlink"><defs><clipPath id="i0"><path d="M375,0 L375,812 L0,812 L0,0 L375,0 Z"></path></clipPath><clipPath id="i1"><path d="M5.80380471,0.183233374 C5.98082041,0.0252040548 6.23882642,-0.0365134236 6.48063437,0.0213293166 C6.72244233,0.0791720568 6.91131584,0.247787327 6.97610808,0.463659383 C7.04090032,0.67953144 6.97176781,0.909864181 6.7947521,1.06789349 L2.5958225,4.81645329 C2.46453,4.93396027 2.28625957,5 2.1003488,5 C1.91443803,5 1.73616761,4.93396027 1.60487511,4.81645329 L0.205231909,3.56693336 C-0.068410642,3.32264121 -0.0684106354,2.92656539 0.205231923,2.68227325 C0.478874482,2.43798112 0.922536728,2.43798111 1.19617929,2.68227324 L2.1003488,3.49071264 Z"></path></clipPath><clipPath id="i2"><path d="M8,0 C12.4164501,0.00440983864 15.9955902,3.58354991 16,8 C16,12.418278 12.418278,16 8,16 C3.581722,16 0,12.418278 0,8 C0,3.581722 3.581722,0 8,0 Z M8,2 C4.6862915,2 2,4.6862915 2,8 C2,11.3137085 4.6862915,14 8,14 C9.59129894,14 11.1174224,13.367859 12.2426407,12.2426407 C13.367859,11.1174224 14,9.59129894 14,8 C14,4.6862915 11.3137085,2 8,2 Z"></path></clipPath></defs><g transform="translate(-98.0 -387.0)"><g clip-path="url(#i0)"><g transform="translate(16.5 334.0)"><g transform="translate(81.5 50.0)"><g transform="translate(0.0 3.0)"><g transform="translate(5.0 6.0)"><g clip-path="url(#i1)"><polygon points="3.05311332e-16,-1.31838984e-16 7,-1.31838984e-16 7,5 3.05311332e-16,5 3.05311332e-16,-1.31838984e-16" stroke="none" fill="#3AD559"></polygon></g></g><g clip-path="url(#i2)"><polygon points="0,0 16,0 16,16 0,16 0,0" stroke="none" fill="#3AD559"></polygon></g></g></g></g></g></g></svg>