<svg width="90" height="121" viewBox="0 0 90 121" xmlns="http://www.w3.org/2000/svg">
    <g fill="none" fill-rule="evenodd">
        <path d="M75 115c0 3.314-13.655 6-30.5 6S14 118.314 14 115s13.655-6 30.5-6 30.5 2.686 30.5 6" fill="#D4D4D4"/>
        <path d="M37.351 115.982s8.708 4.54 17.814 0c0 0 4.046-56.499 4.553-69.615C60.224 33.252 61.742 5 45.553 5 29.366 5 27.848 26.19 31.895 52.925c4.047 26.737 5.456 63.057 5.456 63.057" fill="#CFCFCF"/>
        <path d="M49.947 88.146c4.482 1.025 10.011 1.656 13.602.947.868-.166 1.557-.438 1.83-.639.17-.118.17-.193.06-.133-.104.07-.236.254-.29.278-.006 0-.011.004-.011.004l.011-.045c1.417-4.197 1.675-8.802 2.038-13.35.34-5.293.433-10.684.411-16.02-.022-2.263-.059-5.808-.15-8.016-.186-4.875 3.594-8.98 8.44-9.165 4.847-.187 8.926 3.615 9.112 8.49.002 1.707-.132 3.363-.208 5-.257 4.16-.553 8.648-.976 12.776-.59 5.853-1.279 11.528-2.551 17.381-.833 3.591-1.75 7.19-3.775 10.505-2.411 4.155-7.813 6.392-12.11 6.71-6.552.537-11.843-.64-17.812-2.326l-1.191-.374c-3.287-1.032-5.118-4.549-4.092-7.854 1.007-3.274 4.446-5.076 7.662-4.17" fill="#CFCFCF"/>
        <path d="M43.206 85.66c-8.632.61-21.366.965-28.788-4.144-2.468-1.741-3.868-4.853-4.728-7.538-1.407-4.449-2.149-8.87-2.86-13.286C5.55 52.27 4.695 43.987 4.026 35.495c-.366-4.868 3.319-9.108 8.229-9.47 4.91-.363 9.187 3.29 9.553 8.157.06 8.172.183 16.54.801 24.697.357 4.161.66 8.395 1.749 12.259-.325-.388-.753-.901-1.232-1.213-.026-.018-.004-.002-.008-.005l.01.008c.407.384.982.63 1.52.865 5.425 2.022 11.908 2.262 17.79 2.338l.311.002c8.06.334 8.449 11.607.458 12.527" fill="#CFCFCF"/>
        <path d="M37.933 10c.356-3.193-.77-6.083-1.933-9" stroke="#CFCFCF" stroke-width="2"/>
        <path d="M38 10c-1.585-1.67-4.286-2.274-6-4M52 9c.835-2.149 1.054-4.58.99-7M52 9a20.629 20.629 0 0 1 5-2M58 24c1.86-1.877 2.985-4.307 5-6" stroke="#CFCFCF" stroke-width="2"/>
        <path d="M58 23c1.962.413 3.709 1.519 5 3M58 43.941c1.996.487 3.794-2.177 6-2.941" stroke="#CFCFCF" stroke-width="2"/>
        <path d="M59 44c1.243 1.479 2.566 2.836 4 4M75.823 43c.213-2.057-.783-4.579-.667-7M76 44c1.945-1.541 3.843-3.732 6-5M83 60c2.179-1.43 3.844-3.576 6-5M83 60c2.302.555 4.127 1.9 5 4M79 78.999c2.65.042 4.605-1.153 7-1.999" stroke="#CFCFCF" stroke-width="2"/>
        <path d="M80 79c1.213 1.994 2.687 4.063 4 6M10.152 28c.558-.083.84-.38.848-.889C9.2 25.233 7.904 22.68 8.006 20M12 29c.868-2.606 2.473-5.027 3-8M6 41c-.766-.878-3.237-2.162-5-3M6 43c-1.185 1.173-2.52 2.216-4 3M8 62c-2.47-.46-4.993-1.69-7-3M9 62c-1.375 1.912-2.774 4.12-4 6M21 49c1.17-1.402 2.587-2.702 4-4M20 49c2.101 1.195 4.665 2.079 6 4M32 23c-1.587-1.868-3.124-4.361-5-6M32 26.022c-2.534-.18-4.574.824-7 .978M56 70c2.075-1.214 3.983-2.585 6-4M56 73a13.07 13.07 0 0 1 4 4" stroke="#CFCFCF" stroke-width="2"/>
    </g>
</svg>
