<svg width="17" height="17" viewBox="0 0 17 17" xmlns="http://www.w3.org/2000/svg">
    <path d="m10.981 10.14-1.606 1.584a13.033 13.033 0 0 1-2.319-1.781 13.206 13.206 0 0 1-1.78-2.32l1.582-1.606A.689.689 0 0 0 7 5.263L5.35 1.417a.688.688 0 0 0-.808-.394l-3.026.8A.69.69 0 0 0 1 2.51a14.552 14.552 0 0 0 4.118 9.371A14.549 14.549 0 0 0 14.49 16a.686.686 0 0 0 .687-.516l.8-3.027a.688.688 0 0 0-.393-.809L11.737 10a.688.688 0 0 0-.756.141h0z" stroke="#000" stroke-width="1.5" fill="none" fill-rule="evenodd" stroke-linecap="square"/>
</svg>
