<svg xmlns="http://www.w3.org/2000/svg" width="277" height="71" viewBox="0 0 277 71">
    <defs>
        <style>
            .cls-3{fill:#eac3a2}.cls-5{fill-rule:evenodd;fill:#ead8c5}
        </style>
    </defs>
    <g id="Group_11154" data-name="Group 11154" transform="translate(-734 -2917)">
        <text id="_300_000_candidates_trained" data-name="300,000+ candidates trained" transform="translate(788 2917)" style="fill:#fff;font-size:35px;font-family:Gilroy-Bold;font-weight:700;letter-spacing:-.025em"><tspan x="0" y="27">300,000+</tspan><tspan style="font-size:24px"><tspan x="0" y="57">candidates trained</tspan></tspan></text>
        <g id="parent" transform="translate(732 2928.353)">
            <g id="Group_11152" data-name="Group 11152">
                <path id="Rectangle_4384" data-name="Rectangle 4384" class="cls-3" transform="translate(25 18)" d="M0 0h10v12H0z"/>
                <path id="Path_11756" data-name="Path 11756" d="M14.993 47A.994.994 0 0 1 14 45.993V33.507a5.314 5.314 0 0 1 2.691-4.353L25 25a7.651 7.651 0 0 0 5 2 7.651 7.651 0 0 0 5-2l8.309 4.155A5.33 5.33 0 0 1 46 33.507v12.486A1 1 0 0 1 45.007 47z" style="fill-rule:evenodd;fill:#42a6dd"/>
                <path id="Path_11757" data-name="Path 11757" class="cls-5" d="M38 15a8 8 0 0 1-16 0v-3a8 8 0 0 1 16 0z"/>
                <path id="Path_11758" data-name="Path 11758" d="M38 13V8a4.006 4.006 0 0 0-4-4h-.5l-1.05-2.1a1.1 1.1 0 0 0-1.373-.531l-6.291 2.517A4.778 4.778 0 0 0 22 8v5a4 4 0 0 1 4-4h8a4 4 0 0 1 4 4z" style="fill:#444;fill-rule:evenodd"/>
                <path id="Path_11759" data-name="Path 11759" d="M8 22a10 10 0 0 1 20 0v7.993A4 4 0 0 1 24 34H12a4 4 0 0 1-4-4.007z" style="fill:#87613e;fill-rule:evenodd"/>
                <path id="Rectangle_4385" data-name="Rectangle 4385" class="cls-3" transform="translate(13 28)" d="M0 0h10v11.413H0z"/>
                <path id="Path_11760" data-name="Path 11760" d="M2.993 47A1 1 0 0 1 2 46v-2.5a5.31 5.31 0 0 1 2.691-4.348L13 35a7.651 7.651 0 0 0 5 2 7.651 7.651 0 0 0 5-2l8.309 4.155A5.324 5.324 0 0 1 34 43.5V46a1 1 0 0 1-.993 1z" style="fill:#ed69ab;fill-rule:evenodd"/>
                <path id="Path_11761" data-name="Path 11761" class="cls-5" d="M10 23.636v1.454a8 8 0 0 0 16 0v-1.454a2.182 2.182 0 0 0-2.182-2.182A6.545 6.545 0 0 1 18 17.91a6.545 6.545 0 0 1-5.818 3.544A2.182 2.182 0 0 0 10 23.636z"/>
            </g>
        </g>
    </g>
</svg>
