<?xml version="1.0" encoding="utf-8"?>
<!-- Generator: Adobe Illustrator 26.0.2, SVG Export Plug-In . SVG Version: 6.00 Build 0)  -->
<svg version="1.1" id="Layer_1" xmlns="http://www.w3.org/2000/svg" xmlns:xlink="http://www.w3.org/1999/xlink" x="0px" y="0px"
	 viewBox="0 0 129 50" style="enable-background:new 0 0 129 50;" xml:space="preserve">
<style type="text/css">
	.st0{fill-rule:evenodd;clip-rule:evenodd;}
	.st1{fill-rule:evenodd;clip-rule:evenodd;fill:#FEC305;}
</style>
<path class="st0" d="M28.1,0.8c0.6,0.7,0.8,1.5,1.1,2.3c-1.1,1.4-2.8,2.1-4.2,2.9c-0.5,0.1-0.7,0.5-1.1,0.7
	c-0.7-0.3-1.8-0.6-1.8-1.6c-0.5-0.7-0.9-1.4-0.9-2.2c1.2-1.4,3.2-1.1,4.4-2.4c0.7,0,1.1-0.5,1.8-0.1C27.6,0.6,27.8,0.8,28.1,0.8z
	 M23.5,9.2c1.2-0.2,2.6-0.7,3.6,0.3c0.4,0.2,0.3,0.6,0.4,0.9c-0.1,0.2-0.2,0.7-0.7,0.8c-0.5-0.1-1,0.4-1.5,0.6
	c0.3,0.1,0.8,0.4,0.9,0.8c0.3,0.5,0,1.2,0,1.7c-0.3,1.1-1.9,0.9-1.8,2.3c-1.7,0.6-2.8,2.3-4.6,2.5c-1.1,0.9-2.4,1.7-3.2,2.8
	c-0.4-3.2,2-6.3,4.7-7.8c-0.2-0.7-1.3-1.1-1.3-1.9c-0.5-0.5-0.8-1.3-0.8-2c1.1-0.9,2.2-2.1,3.8-1.6C23,8.9,23.4,8.9,23.5,9.2
	L23.5,9.2z"/>
<path class="st1" d="M34,18.3c0-0.1-0.1-0.3-0.3-0.3c-0.3,0.1-0.6-0.2-0.9,0.1c-0.1-0.6-1.2-0.1-1.4-0.7C32.4,17,33.4,17.6,34,18.3z
	 M32.6,18.5L32.5,18l0.2,0.2L32.6,18.5L32.6,18.5z M34.4,18.6c-0.1,0.5-0.4,0.7-0.7,0.8l0.3-0.7c0,0.1,0.1,0.1,0.1,0.1
	C34.2,18.9,34.3,18.6,34.4,18.6z M33.1,18.7c-0.1,0.1-0.3,0.3-0.2,0.5c0.2-0.1,0.5,0.2,0.5,0.4c0,0.1-0.1,0.1-0.1,0.2
	c0-0.2-0.2-0.3-0.4-0.3l-0.1,0.1c0,0.4,0.1-0.2-0.1-0.2c-0.9,0.1-0.3,1-1.1,1.1c0-0.3,0.2-0.3,0.4-0.5c-0.3-0.6-0.6,0.1-0.9,0
	l0.3-0.3l-0.1-0.1c0.1,0,0.7,0.1,0.7-0.3c0.2,0.5,0.5-0.1,0.7-0.2C32.8,18.8,32.8,18.6,33.1,18.7L33.1,18.7z M30.5,20.3
	c-0.1-0.1-0.1-0.3,0.1-0.4C30.5,20,30.4,20.1,30.5,20.3z M24,22.5c-0.5,0-0.9,0-1.1,0.3l-0.1-0.1c0.1-0.4,0.9-0.2,1.3-0.5L24,22.5
	L24,22.5z M21.6,24.7c-0.1,0.2-0.3,0.2-0.4,0.2C21.3,24.8,21.5,24.7,21.6,24.7z M17.2,25.4c-0.2,0-0.5,0.1-0.6-0.1
	c0.1-0.2,0.5,0,0.6-0.2V25.4z"/>
<path class="st1" d="M15.6,16.6c-0.5,1.9-2.2,1.3-3.6,2.1c0.1,0.1-0.5,0.2-0.9,0.3l-0.4,0.2c-1.5,0.2-2.4,1.2-3.7,1.8
	c0.1,0.6-0.7,0.3-1.1,0.6c-0.1,0.5-1,0.3-0.8,0.9c-0.6,0.5-1.5,0.9-1.7,1.5c0.7,0.7,1.7,0.5,2.5,0.7c2.6,0.3,5-0.1,7.4-0.1
	c0.7-0.1,1.4-0.4,2.2-0.4v0.1c0.5,0.2,0.9-0.5,1.5-0.2c0.4-0.5,1.2-0.1,1.6-0.6c0.8-0.3,1.9-0.1,2.5-0.5v0.1
	c-0.3-0.1-0.2,0.2-0.3,0.3c0.1,0.1,0.4,0.1,0.6,0.1c0.9-0.9,1.6,0.3,2.4-0.8c0.3-0.5,0.9-0.7,1.4-0.8l0.2,0.3
	c0.3-0.8,1.1-0.5,1.6-0.9c-0.3,0.1-0.4,0.6-0.9,0.4c0.3,0.6-0.5,0.7-0.7,1c-0.2,0.1-0.7,0-0.6-0.3c-0.2,0.2-0.2,0.9-0.7,0.7
	c-0.5,0.1-1.3,0.3-1.9,0.7c-0.7,0.1-1.5,0.5-2.2,0.3c-0.6,0.3-1.2,0.3-1.9,0.5c-0.9,0.2-2.1,0.1-2.8,0.6c-0.3,0-0.1,0.4-0.4,0.4
	c0.3,0,0.2,0.7,0.6,0.4c-0.2,0-0.3,0.3-0.4,0c-0.4,0.1-0.7,0.5-1.1,0.1c-0.5,0.3-1.3,0.1-1.9,0.2V26c0.4,0.3,0.3-0.3,0.6-0.4v-0.3
	c-1,0.4-2.1,0.3-3.2,0.7c0.3,0.7-0.6,0.1-0.8,0.4c0-0.1,0.1-0.1,0.2-0.2c-1.4-0.5-2.1,0.5-3.6,0.1l-0.2,0.3
	c-0.7-0.4-1.5,0.4-2.2-0.1c-0.7-0.1-1.7-0.3-2-1.1c-0.3,0.1-0.3-0.1-0.4-0.3c0.1-0.7-1.2-1-0.6-1.8c-0.4-0.5,0.1-1,0.2-1.5
	c0.1-0.1,0.1-0.2,0.1-0.3l0.1,0.2c0.3-0.3,0.4-0.7,0.5-1l1-1.1C2.1,20,2.1,20,2.2,20c0.1,0,0.2-0.1,0.3-0.2
	c-0.1-0.4,0.1-0.5,0.4-0.7c0.2-0.1,0.5,0.1,0.5-0.1c-0.2-0.5,0.7,0,0.7-0.6c0.7,0.1,0.9-0.8,1.6-0.7c1-1,2.4-1.1,3.5-1.9
	C11.1,15.3,14.4,13.9,15.6,16.6L15.6,16.6z M13.6,25.4h-0.3l0.3,0.2V25.4z M12.9,26h0.3c0.1-0.1,0.1-0.2,0.3-0.3
	C13.2,25.7,13,25.8,12.9,26z"/>
<path class="st1" d="M8.8,26.4c-0.1,0.1-0.2,0.1-0.3,0.1v-0.1C8.6,26.4,8.7,26.3,8.8,26.4z M29.9,20.3c-0.1,0.1-0.3,0.4-0.5,0.1
	h-0.1C29.5,20.3,29.7,20.2,29.9,20.3L29.9,20.3z"/>
<path class="st0" d="M17.4,31c0.3,1.6-0.5,3-1.4,4.2l-0.4,0.1l0.1-0.1l-0.1-0.1c-0.7,0.9-1.6,1.7-1.8,2.8c-0.1,0.1-0.3,0.1-0.3,0.1
	c-0.2-0.7-0.7-1.5-0.3-2.2c-0.1-2,0.8-3.4,1.7-5.1c0.6-0.3,1.2-1.4,1.9-0.9L17.4,31z M13.6,43.9c0.3,0.5,0.2,1.1,0.1,1.6
	c-0.4,0.1-0.8,0-1.1-0.2l-0.1,0.1c-0.5-0.3-0.9-0.6-0.9-1.1c-0.1-0.7,0.8-0.6,0.9-1.2C12.9,43.2,13.2,43.6,13.6,43.9L13.6,43.9z
	 M38.5,36.2v3.1c-0.8,0.4-3.9,0.7-4.7,0.7c-4.3,0-5.7-2.2-5.7-6.3c0-4.2,1.8-6.3,6.1-6.3c1.6,0,2.7,0.3,4.3,0.7v2.8h-1v-0.5
	c-0.3-2-1.1-2.4-3.3-2.4c-3.3,0-4.2,2.4-4.2,5.3c0,3.2,0.5,6,4.3,6c2.7,0,3-0.7,3.2-3.2L38.5,36.2L38.5,36.2L38.5,36.2z M43.2,33.8
	c0-4.4,1.5-6.3,6-6.3s6,1.9,6,6.3c0,4.4-1.2,6.3-6,6.3C44.7,40.1,43.2,38.3,43.2,33.8z M45,33.8c0,3,0.7,5.7,4.2,5.7
	c3.6,0,4.2-2.7,4.2-5.7s-0.7-5.6-4.2-5.6C45.7,28.2,45,30.9,45,33.8z M70.6,29.6L70.6,29.6l-4.3,10.2C66.2,40,66,40,65.9,39.9
	l-4.3-10.1v8.3c0,1.1,0.3,1.2,1.5,1.2v0.6h-3.7v-0.6c1.2,0,1.5-0.1,1.5-1.2v-8.6c0-1.2-0.3-1.2-1.5-1.2v-0.6h2.8l4.4,9.8l4.2-9.8
	h2.8v0.6c-1.1,0-1.5,0-1.5,1.2v8.6c0,1.1,0.3,1.2,1.5,1.2v0.6h-4.4v-0.6c1.3,0,1.5-0.1,1.5-1.2L70.6,29.6L70.6,29.6L70.6,29.6z
	 M81.8,38.1c0,0.9-0.1,1.2,1.7,1.2v0.6c-0.8,0-1.7,0-2.4-0.1c-0.9,0.1-1.7,0.1-2.5,0.1v-0.6c1.7,0,1.7-0.3,1.7-1.2v-8.6
	c0-1,0-1.3-1.7-1.3v-0.6c0.9,0.1,1.7,0.1,2.5,0.1c1.2,0,2.4,0,3.6-0.1c2.2,0,3.4,0.7,3.4,3.1c0,3.3-1.9,3.7-4.7,3.7h-1.6V38.1
	L81.8,38.1L81.8,38.1z M81.8,33.8h0.9c2.2,0,3.7-0.1,3.7-2.7c0-2.6-0.9-2.8-2.8-2.8h-1.7V33.8L81.8,33.8z M98,27.7l3.7,9.7
	c0.2,0.5,0.7,2.1,2.1,1.9v0.6h-4.8v-0.6c0,0,1.5,0,1.5-0.7c0-0.3-0.1-0.7-0.3-0.9l-1.1-3h-4.2l-1.1,3c-0.1,0.3-0.1,0.5-0.1,0.8
	c0,0.8,0.9,0.8,1.5,0.8v0.6h-4.2v-0.6c0.6-0.1,0.9,0,1.3-0.5c0.3-0.3,0.7-1.5,0.9-1.9l3.8-9.2L98,27.7L98,27.7L98,27.7z M98.7,33.8
	l-1.8-4.5L95,34h3.8L98.7,33.8L98.7,33.8z M112.5,33c1.7,0.6,3.2,1.4,3.2,3.4c0,2.9-2.4,3.6-4.8,3.6c-1.3,0-2.6-0.2-3.8-0.7v-3.2
	h1.1c0.2,1.7-0.3,3.3,2.8,3.3c1.6,0,3-0.7,3-2.4c0-2-1.9-2.4-3.4-2.9c-1.7-0.6-3.1-1.2-3.1-3.2c0-2.3,1.9-3.4,4-3.4
	c1.2,0,2.3,0.2,3.6,0.7v2.9h-1c-0.1-1.4,0.2-2.9-2.5-2.9c-1.5,0-2.6,0.6-2.6,2.2c0,1.1,0.5,1.6,1.5,2L112.5,33L112.5,33z
	 M125.8,32.9c1.7,0.6,3.2,1.3,3.2,3.4c0,2.9-2.4,3.6-4.8,3.6c-1.3,0-2.6-0.2-3.8-0.7V36h1.1c0.2,1.7-0.3,3.3,2.8,3.3
	c1.6,0,3-0.7,3-2.4c0-2-1.9-2.4-3.4-2.9c-1.7-0.6-3.1-1.2-3.1-3.2c0-2.4,1.9-3.4,4-3.4c1.2,0,2.3,0.2,3.6,0.7v2.9h-1
	c-0.1-1.4,0.2-2.9-2.5-2.9c-1.5,0-2.6,0.6-2.6,2.2c0,1,0.5,1.6,1.5,2L125.8,32.9L125.8,32.9z M59.5,48.1c0-0.4,0-0.5-0.8-0.5v-0.3
	c0.5,0.1,0.8,0.1,1.1,0.1c0.3,0,0.7,0,0.9-0.1v0.3c-0.5,0-0.5,0.1-0.5,0.5V49c-0.6,0.2-1.3,0.3-1.9,0.3c-1.7,0-2.3-0.9-2.3-2.4
	c0-1.7,0.7-2.5,2.4-2.5c0.7,0,1.1,0.1,1.7,0.3v1.1h-0.4c-0.1-1-0.3-1.2-1.3-1.2c-1.4,0-1.7,1.1-1.7,2.3c0,1.3,0.3,2.2,1.8,2.2
	c0.3,0,0.7-0.1,1-0.3L59.5,48.1L59.5,48.1z M67.8,48.5c0,0.4-0.1,0.5,0.7,0.5v0.2h-2v-0.2c0.7,0,0.7-0.1,0.7-0.5v-3.4
	c0-0.4,0-0.5-0.7-0.5v-0.3h2.3c0.9,0,1.5,0.1,1.5,1.1c0,0.9-0.5,1.2-1.2,1.3c0.2,0.3,1,1.6,1.2,1.9c0.2,0.2,0.3,0.4,0.7,0.5v0.2
	h-1.1c-0.5-0.7-1.5-2.3-1.7-2.4c-0.1-0.1-0.3-0.1-0.5-0.1L67.8,48.5L67.8,48.5z M67.8,46.6h0.3c0.7,0,1.5,0,1.5-1
	c0-0.7-0.3-0.9-1.1-0.9h-0.7V46.6L67.8,46.6L67.8,46.6z M76.9,46.8c0-1.7,0.6-2.4,2.4-2.4c1.9,0,2.4,0.7,2.4,2.4
	c0,1.8-0.5,2.5-2.4,2.5C77.5,49.3,76.9,48.6,76.9,46.8L76.9,46.8z M77.6,46.8c0,1.2,0.3,2.2,1.7,2.2s1.7-1.1,1.7-2.2
	c0-1.1-0.3-2.2-1.7-2.2C77.9,44.6,77.6,45.7,77.6,46.8L77.6,46.8z M89.1,47.7c0,0.9,0.4,1.4,1.3,1.4c1.1,0,1.5-0.4,1.5-1.5v-2.4
	c0-0.5,0-0.5-0.7-0.5v-0.3h1.7v0.3c-0.7,0-0.7,0.1-0.7,0.5v2.4c0,1.4-0.7,1.8-2.1,1.8c-1.1,0-1.8-0.5-1.8-1.6v-2.6
	c0-0.4,0.1-0.5-0.6-0.5v-0.3h1.9v0.3c-0.7,0-0.7,0.1-0.7,0.5L89.1,47.7L89.1,47.7z M100,48.5c0,0.4,0,0.5,0.7,0.5v0.2h-2v-0.2
	c0.7,0,0.7-0.1,0.7-0.5v-3.4c0-0.4,0-0.5-0.7-0.5v-0.3h2.4c0.9,0,1.4,0.3,1.4,1.2c0,1.3-0.8,1.5-1.9,1.5H100L100,48.5L100,48.5
	L100,48.5z M100,46.9h0.3c0.9,0,1.5-0.1,1.5-1.1c0-1-0.3-1.1-1.1-1.1H100V46.9L100,46.9L100,46.9z"/>
<path class="st1" d="M27.7,22.1c-0.1,0-0.4,0.1-0.6-0.1c0.2-0.2,0.5,0,0.6-0.2V22.1z M28.9,20.9c-0.4,0-0.8,0-1.1,0.4l-0.1-0.1
	c0.1-0.4,0.9-0.2,1.2-0.5V20.9z M30.4,20.9c-0.1-0.1-0.4,0.1-0.5-0.1c0.1-0.1,0.4,0.1,0.5-0.1V20.9z M29.3,21.3l-0.1-0.5l0.2,0.1
	L29.3,21.3L29.3,21.3z"/>
<g>
</g>
<g>
</g>
<g>
</g>
<g>
</g>
<g>
</g>
<g>
</g>
<g>
</g>
<g>
</g>
<g>
</g>
<g>
</g>
<g>
</g>
<g>
</g>
<g>
</g>
<g>
</g>
<g>
</g>
</svg>
