<svg width="24" height="25" viewBox="0 0 24 25" fill="none" xmlns="http://www.w3.org/2000/svg">
<g clip-path="url(#clip0_782_77487)">
<path d="M4.017 18.3644C4.1727 18.5207 4.292 18.7094 4.36641 18.9171C4.44082 19.1248 4.46851 19.3463 4.4475 19.5659C4.34208 20.5823 4.14221 21.5866 3.8505 22.5659C5.943 22.0814 7.221 21.5204 7.8015 21.2264C8.13076 21.0597 8.50993 21.0202 8.8665 21.1154C9.88865 21.3879 10.9421 21.5251 12 21.5234C17.994 21.5234 22.5 17.3129 22.5 12.5234C22.5 7.73544 17.994 3.52344 12 3.52344C6.006 3.52344 1.5 7.73544 1.5 12.5234C1.5 14.7254 2.4255 16.7684 4.017 18.3644ZM3.2775 24.2219C2.9221 24.2924 2.56555 24.3569 2.208 24.4154C1.908 24.4634 1.68 24.1514 1.7985 23.8724C1.93169 23.5583 2.05376 23.2396 2.1645 22.9169L2.169 22.9019C2.541 21.8219 2.844 20.5799 2.955 19.4234C1.1145 17.5784 0 15.1634 0 12.5234C0 6.72444 5.373 2.02344 12 2.02344C18.627 2.02344 24 6.72444 24 12.5234C24 18.3224 18.627 23.0234 12 23.0234C10.8115 23.025 9.62788 22.8707 8.4795 22.5644C7.6995 22.9589 6.021 23.6774 3.2775 24.2219Z" fill="black"/>
</g>
<defs>
<clipPath id="clip0_782_77487">
<rect width="24" height="24" fill="white" transform="translate(0 0.523438)"/>
</clipPath>
</defs>
</svg>
