<svg width="20" height="19" viewBox="0 0 20 19" fill="none" xmlns="http://www.w3.org/2000/svg">
<path d="M3.79133 13.9534C3.91242 14.0836 4.00521 14.2409 4.06309 14.414C4.12097 14.5871 4.1425 14.7717 4.12616 14.9547C4.04416 15.8018 3.88871 16.6389 3.66183 17.4551C5.28933 17.0513 6.28333 16.5837 6.73483 16.3387C6.99091 16.1997 7.28583 16.1668 7.56316 16.2462C8.35817 16.4733 9.17755 16.5876 10.0003 16.5862C14.6623 16.5862 18.167 13.077 18.167 9.08519C18.167 5.09464 14.6623 1.58416 10.0003 1.58416C5.33833 1.58416 1.83366 5.09464 1.83366 9.08519C1.83366 10.9204 2.55349 12.6232 3.79133 13.9534ZM3.21616 18.8353C2.93974 18.894 2.66242 18.9478 2.38433 18.9965C2.15099 19.0366 1.97366 18.7765 2.06583 18.544C2.16942 18.2822 2.26436 18.0166 2.35049 17.7476L2.35399 17.7351C2.64333 16.835 2.87899 15.7999 2.96533 14.836C1.53383 13.2983 0.666992 11.2855 0.666992 9.08519C0.666992 4.25202 4.84599 0.333984 10.0003 0.333984C15.1547 0.333984 19.3337 4.25202 19.3337 9.08519C19.3337 13.9183 15.1547 17.8364 10.0003 17.8364C9.07592 17.8377 8.15534 17.7091 7.26216 17.4538C6.65549 17.7826 5.34999 18.3815 3.21616 18.8353Z" fill="#242429"/>
</svg>
