<svg width="484" height="352" viewBox="0 0 484 352" xmlns="http://www.w3.org/2000/svg" xmlns:xlink="http://www.w3.org/1999/xlink">
    <defs>
        <path id="tpxgvi9tna" d="M0 352h484V0H0z"/>
        <path d="M20.2.023c-1.449.31-2.71 5.362-2.71 5.362s-3.894-4.256-5.062-2.447c-1.121 1.715-3.909 9.805 2.399 14.093-.436 1.232-.825 2.572-1.199 3.975C5.325 27.694 0 37.967 0 49.474c0 13.593 7.429 25.458 18.44 31.741a32.782 32.782 0 0 0 3.52 1.761c.171.094.36.171.545.233.079.048.156.079.235.11.98.405 1.977.749 2.989 1.076.935.28 1.885.53 2.85.732.188.047.375.094.577.125.639.14 1.277.25 1.915.343.546.094 1.075.156 1.62.202 1.247.141 2.524.203 3.801.203 2.18 0 4.314-.186 6.385-.576a33.67 33.67 0 0 0 6.386-1.732c.203-.062.42-.156.623-.233.405-.155.795-.312 1.168-.483a36.422 36.422 0 0 0 8.94-5.55C67.953 70.722 73 60.698 73 49.474 73 38.84 68.45 29.27 61.21 22.58c.171-1.09.202-1.979.03-2.54-1.09-3.742-5.934-5.534-5.934-5.534s-3.224-10.12-12.522-11.77c-9.314-1.655-20.107.279-20.107.279S21.744 0 20.401 0a.882.882 0 0 0-.201.023z" id="r5lbcgd6jc"/>
        <path d="M20.2.023c-1.449.31-2.71 5.362-2.71 5.362s-3.894-4.256-5.062-2.447c-1.121 1.715-3.909 9.805 2.399 14.093-.436 1.232-.825 2.572-1.199 3.975C5.325 27.694 0 37.967 0 49.474c0 13.593 7.429 25.458 18.44 31.741a32.782 32.782 0 0 0 3.52 1.761c.171.094.36.171.545.233.079.048.156.079.235.11.98.405 1.977.749 2.989 1.076.935.28 1.885.53 2.85.732.188.047.375.094.577.125.639.14 1.277.25 1.915.343.546.094 1.075.156 1.62.202 1.247.141 2.524.203 3.801.203 2.18 0 4.314-.186 6.385-.576a33.67 33.67 0 0 0 6.386-1.732c.203-.062.42-.156.623-.233.405-.155.795-.312 1.168-.483a36.422 36.422 0 0 0 8.94-5.55C67.953 70.722 73 60.698 73 49.474 73 38.84 68.45 29.27 61.21 22.58c.171-1.09.202-1.979.03-2.54-1.09-3.742-5.934-5.534-5.934-5.534s-3.224-10.12-12.522-11.77c-9.314-1.655-20.107.279-20.107.279S21.744 0 20.401 0a.882.882 0 0 0-.201.023" id="otqny7p3ye"/>
        <path d="M20.2.023c-1.449.31-2.71 5.362-2.71 5.362s-3.894-4.256-5.062-2.447c-1.121 1.715-3.909 9.805 2.399 14.093-.436 1.232-.825 2.572-1.199 3.975C5.325 27.694 0 37.967 0 49.474c0 13.593 7.429 25.458 18.44 31.741a32.782 32.782 0 0 0 3.52 1.761c.171.094.36.171.545.233.079.048.156.079.235.11.98.405 1.977.749 2.989 1.076.935.28 1.885.53 2.85.732.188.047.375.094.577.125.639.14 1.277.25 1.915.343.546.094 1.075.156 1.62.202 1.247.141 2.524.203 3.801.203 2.18 0 4.314-.186 6.385-.576a33.67 33.67 0 0 0 6.386-1.732c.203-.062.42-.156.623-.233.405-.155.795-.312 1.168-.483a36.422 36.422 0 0 0 8.94-5.55C67.953 70.722 73 60.698 73 49.474 73 38.84 68.45 29.27 61.21 22.58c.171-1.09.202-1.979.03-2.54-1.09-3.742-5.934-5.534-5.934-5.534s-3.224-10.12-12.522-11.77c-9.314-1.655-20.107.279-20.107.279S21.744 0 20.401 0a.882.882 0 0 0-.201.023" id="t8n9hkzvkg"/>
        <path d="M20.2.023c-1.449.31-2.71 5.362-2.71 5.362s-3.894-4.256-5.062-2.447c-1.121 1.715-3.909 9.805 2.399 14.093-.436 1.232-.825 2.572-1.199 3.975C5.325 27.694 0 37.967 0 49.474c0 13.593 7.429 25.458 18.44 31.741a32.782 32.782 0 0 0 3.52 1.761c.171.094.36.171.545.233.079.048.156.079.235.11.98.405 1.977.749 2.989 1.076.935.28 1.885.53 2.85.732.188.047.375.094.577.125.639.14 1.277.25 1.915.343.546.094 1.075.156 1.62.202 1.247.141 2.524.203 3.801.203 2.18 0 4.314-.186 6.385-.576a33.67 33.67 0 0 0 6.386-1.732c.203-.062.42-.156.623-.233.405-.155.795-.312 1.168-.483a36.422 36.422 0 0 0 8.94-5.55C67.953 70.722 73 60.698 73 49.474 73 38.84 68.45 29.27 61.21 22.58c.171-1.09.202-1.979.03-2.54-1.09-3.742-5.934-5.534-5.934-5.534s-3.224-10.12-12.522-11.77c-9.314-1.655-20.107.279-20.107.279S21.744 0 20.401 0a.882.882 0 0 0-.201.023" id="as7eokeaji"/>
        <path d="M20.2.023c-1.449.31-2.71 5.362-2.71 5.362s-3.894-4.256-5.062-2.447c-1.121 1.715-3.909 9.805 2.399 14.093-.436 1.232-.825 2.572-1.199 3.975C5.325 27.694 0 37.967 0 49.474c0 13.593 7.429 25.458 18.44 31.741a32.782 32.782 0 0 0 3.52 1.761c.171.094.36.171.545.233.079.048.156.079.235.11.98.405 1.977.749 2.989 1.076.935.28 1.885.53 2.85.732.188.047.375.094.577.125.639.14 1.277.25 1.915.343.546.094 1.075.156 1.62.202 1.247.141 2.524.203 3.801.203 2.18 0 4.314-.186 6.385-.576a33.67 33.67 0 0 0 6.386-1.732c.203-.062.42-.156.623-.233.405-.155.795-.312 1.168-.483a36.422 36.422 0 0 0 8.94-5.55C67.953 70.722 73 60.698 73 49.474 73 38.84 68.45 29.27 61.21 22.58c.171-1.09.202-1.979.03-2.54-1.09-3.742-5.934-5.534-5.934-5.534s-3.224-10.12-12.522-11.77c-9.314-1.655-20.107.279-20.107.279S21.744 0 20.401 0a.882.882 0 0 0-.201.023" id="98cyeborzk"/>
        <path d="M20.2.023c-1.449.31-2.71 5.362-2.71 5.362s-3.894-4.256-5.062-2.447c-1.121 1.715-3.909 9.805 2.399 14.093-.436 1.232-.825 2.572-1.199 3.975C5.325 27.694 0 37.967 0 49.474c0 13.593 7.429 25.458 18.44 31.741a32.782 32.782 0 0 0 3.52 1.761c.171.094.36.171.545.233.079.048.156.079.235.11.98.405 1.977.749 2.989 1.076.935.28 1.885.53 2.85.732.188.047.375.094.577.125.639.14 1.277.25 1.915.343.546.094 1.075.156 1.62.202 1.247.141 2.524.203 3.801.203 2.18 0 4.314-.186 6.385-.576a33.67 33.67 0 0 0 6.386-1.732c.203-.062.42-.156.623-.233.405-.155.795-.312 1.168-.483a36.422 36.422 0 0 0 8.94-5.55C67.953 70.722 73 60.698 73 49.474 73 38.84 68.45 29.27 61.21 22.58c.171-1.09.202-1.979.03-2.54-1.09-3.742-5.934-5.534-5.934-5.534s-3.224-10.12-12.522-11.77c-9.314-1.655-20.107.279-20.107.279S21.744 0 20.401 0a.882.882 0 0 0-.201.023" id="yqwbj6t6wm"/>
        <path d="M20.2.023c-1.449.31-2.71 5.362-2.71 5.362s-3.894-4.256-5.062-2.447c-1.121 1.715-3.909 9.805 2.399 14.093-.436 1.232-.825 2.572-1.199 3.975C5.325 27.694 0 37.967 0 49.474c0 13.593 7.429 25.458 18.44 31.741a32.782 32.782 0 0 0 3.52 1.761c.171.094.36.171.545.233.079.048.156.079.235.11.98.405 1.977.749 2.989 1.076.935.28 1.885.53 2.85.732.188.047.375.094.577.125.639.14 1.277.25 1.915.343.546.094 1.075.156 1.62.202 1.247.141 2.524.203 3.801.203 2.18 0 4.314-.186 6.385-.576a33.67 33.67 0 0 0 6.386-1.732c.203-.062.42-.156.623-.233.405-.155.795-.312 1.168-.483a36.422 36.422 0 0 0 8.94-5.55C67.953 70.722 73 60.698 73 49.474 73 38.84 68.45 29.27 61.21 22.58c.171-1.09.202-1.979.03-2.54-1.09-3.742-5.934-5.534-5.934-5.534s-3.224-10.12-12.522-11.77c-9.314-1.655-20.107.279-20.107.279S21.744 0 20.401 0a.882.882 0 0 0-.201.023" id="81fqh44tjo"/>
        <path d="M20.2.023c-1.449.31-2.71 5.362-2.71 5.362s-3.894-4.256-5.062-2.447c-1.121 1.715-3.909 9.805 2.399 14.093-.436 1.232-.825 2.572-1.199 3.975C5.325 27.694 0 37.967 0 49.474c0 13.593 7.429 25.458 18.44 31.741a32.782 32.782 0 0 0 3.52 1.761c.171.094.36.171.545.233.079.048.156.079.235.11.98.405 1.977.749 2.989 1.076.935.28 1.885.53 2.85.732.188.047.375.094.577.125.639.14 1.277.25 1.915.343.546.094 1.075.156 1.62.202 1.247.141 2.524.203 3.801.203 2.18 0 4.314-.186 6.385-.576a33.67 33.67 0 0 0 6.386-1.732c.203-.062.42-.156.623-.233.405-.155.795-.312 1.168-.483a36.422 36.422 0 0 0 8.94-5.55C67.953 70.722 73 60.698 73 49.474 73 38.84 68.45 29.27 61.21 22.58c.171-1.09.202-1.979.03-2.54-1.09-3.742-5.934-5.534-5.934-5.534s-3.224-10.12-12.522-11.77c-9.314-1.655-20.107.279-20.107.279S21.744 0 20.401 0a.882.882 0 0 0-.201.023" id="jc4jutyw5q"/>
        <path d="M20.2.023c-1.449.31-2.71 5.362-2.71 5.362s-3.894-4.256-5.062-2.447c-1.121 1.715-3.909 9.805 2.399 14.093-.436 1.232-.825 2.572-1.199 3.975C5.325 27.694 0 37.967 0 49.474c0 13.593 7.429 25.458 18.44 31.741a32.782 32.782 0 0 0 3.52 1.761c.171.094.36.171.545.233.079.048.156.079.235.11.98.405 1.977.749 2.989 1.076.935.28 1.885.53 2.85.732.188.047.375.094.577.125.639.14 1.277.25 1.915.343.546.094 1.075.156 1.62.202 1.247.141 2.524.203 3.801.203 2.18 0 4.314-.186 6.385-.576a33.67 33.67 0 0 0 6.386-1.732c.203-.062.42-.156.623-.233.405-.155.795-.312 1.168-.483a36.422 36.422 0 0 0 8.94-5.55C67.953 70.722 73 60.698 73 49.474 73 38.84 68.45 29.27 61.21 22.58c.171-1.09.202-1.979.03-2.54-1.09-3.742-5.934-5.534-5.934-5.534s-3.224-10.12-12.522-11.77c-9.314-1.655-20.107.279-20.107.279S21.744 0 20.401 0a.882.882 0 0 0-.201.023" id="usjskg7ius"/>
        <path d="M20.2.023c-1.449.31-2.71 5.362-2.71 5.362s-3.894-4.256-5.062-2.447c-1.121 1.715-3.909 9.805 2.399 14.093-.436 1.232-.825 2.572-1.199 3.975C5.325 27.694 0 37.967 0 49.474c0 13.593 7.429 25.458 18.44 31.741a32.782 32.782 0 0 0 3.52 1.761c.171.094.36.171.545.233.079.048.156.079.235.11.98.405 1.977.749 2.989 1.076.935.28 1.885.53 2.85.732.188.047.375.094.577.125.639.14 1.277.25 1.915.343.546.094 1.075.156 1.62.202 1.247.141 2.524.203 3.801.203 2.18 0 4.314-.186 6.385-.576a33.67 33.67 0 0 0 6.386-1.732c.203-.062.42-.156.623-.233.405-.155.795-.312 1.168-.483a36.422 36.422 0 0 0 8.94-5.55C67.953 70.722 73 60.698 73 49.474 73 38.84 68.45 29.27 61.21 22.58c.171-1.09.202-1.979.03-2.54-1.09-3.742-5.934-5.534-5.934-5.534s-3.224-10.12-12.522-11.77c-9.314-1.655-20.107.279-20.107.279S21.744 0 20.401 0a.882.882 0 0 0-.201.023" id="jv5vxccnmu"/>
        <path d="M20.2.023c-1.449.31-2.71 5.362-2.71 5.362s-3.894-4.256-5.062-2.447c-1.121 1.715-3.909 9.805 2.399 14.093-.436 1.232-.825 2.572-1.199 3.975C5.325 27.694 0 37.967 0 49.474c0 13.593 7.429 25.458 18.44 31.741a32.782 32.782 0 0 0 3.52 1.761c.171.094.36.171.545.233.079.048.156.079.235.11.98.405 1.977.749 2.989 1.076.935.28 1.885.53 2.85.732.188.047.375.094.577.125.639.14 1.277.25 1.915.343.546.094 1.075.156 1.62.202 1.247.141 2.524.203 3.801.203 2.18 0 4.314-.186 6.385-.576a33.67 33.67 0 0 0 6.386-1.732c.203-.062.42-.156.623-.233.405-.155.795-.312 1.168-.483a36.422 36.422 0 0 0 8.94-5.55C67.953 70.722 73 60.698 73 49.474 73 38.84 68.45 29.27 61.21 22.58c.171-1.09.202-1.979.03-2.54-1.09-3.742-5.934-5.534-5.934-5.534s-3.224-10.12-12.522-11.77c-9.314-1.655-20.107.279-20.107.279S21.744 0 20.401 0a.882.882 0 0 0-.201.023" id="nh6k2dxdjw"/>
        <path d="M20.2.023c-1.449.31-2.71 5.362-2.71 5.362s-3.894-4.256-5.062-2.447c-1.121 1.715-3.909 9.805 2.399 14.093-.436 1.232-.825 2.572-1.199 3.975C5.325 27.694 0 37.967 0 49.474c0 13.593 7.429 25.458 18.44 31.741a32.782 32.782 0 0 0 3.52 1.761c.171.094.36.171.545.233.079.048.156.079.235.11.98.405 1.977.749 2.989 1.076.935.28 1.885.53 2.85.732.188.047.375.094.577.125.639.14 1.277.25 1.915.343.546.094 1.075.156 1.62.202 1.247.141 2.524.203 3.801.203 2.18 0 4.314-.186 6.385-.576a33.67 33.67 0 0 0 6.386-1.732c.203-.062.42-.156.623-.233.405-.155.795-.312 1.168-.483a36.422 36.422 0 0 0 8.94-5.55C67.953 70.722 73 60.698 73 49.474 73 38.84 68.45 29.27 61.21 22.58c.171-1.09.202-1.979.03-2.54-1.09-3.742-5.934-5.534-5.934-5.534s-3.224-10.12-12.522-11.77c-9.314-1.655-20.107.279-20.107.279S21.744 0 20.401 0a.882.882 0 0 0-.201.023" id="j1qbmgcx3y"/>
        <path d="M20.2.023c-1.449.31-2.71 5.362-2.71 5.362s-3.894-4.256-5.062-2.447c-1.121 1.715-3.909 9.805 2.399 14.093-.436 1.232-.825 2.572-1.199 3.975C5.325 27.694 0 37.967 0 49.474c0 13.593 7.429 25.458 18.44 31.741a32.782 32.782 0 0 0 3.52 1.761c.171.094.36.171.545.233.079.048.156.079.235.11.98.405 1.977.749 2.989 1.076.935.28 1.885.53 2.85.732.188.047.375.094.577.125.639.14 1.277.25 1.915.343.546.094 1.075.156 1.62.202 1.247.141 2.524.203 3.801.203 2.18 0 4.314-.186 6.385-.576a33.67 33.67 0 0 0 6.386-1.732c.203-.062.42-.156.623-.233.405-.155.795-.312 1.168-.483a36.422 36.422 0 0 0 8.94-5.55C67.953 70.722 73 60.698 73 49.474 73 38.84 68.45 29.27 61.21 22.58c.171-1.09.202-1.979.03-2.54-1.09-3.742-5.934-5.534-5.934-5.534s-3.224-10.12-12.522-11.77c-9.314-1.655-20.107.279-20.107.279S21.744 0 20.401 0a.882.882 0 0 0-.201.023" id="xzqq7nrefA"/>
        <path d="M20.2.023c-1.449.31-2.71 5.362-2.71 5.362s-3.894-4.256-5.062-2.447c-1.121 1.715-3.909 9.805 2.399 14.093-.436 1.232-.825 2.572-1.199 3.975C5.325 27.694 0 37.967 0 49.474c0 13.593 7.429 25.458 18.44 31.741a32.782 32.782 0 0 0 3.52 1.761c.171.094.36.171.545.233.079.048.156.079.235.11.98.405 1.977.749 2.989 1.076.935.28 1.885.53 2.85.732.188.047.375.094.577.125.639.14 1.277.25 1.915.343.546.094 1.075.156 1.62.202 1.247.141 2.524.203 3.801.203 2.18 0 4.314-.186 6.385-.576a33.67 33.67 0 0 0 6.386-1.732c.203-.062.42-.156.623-.233.405-.155.795-.312 1.168-.483a36.422 36.422 0 0 0 8.94-5.55C67.953 70.722 73 60.698 73 49.474 73 38.84 68.45 29.27 61.21 22.58c.171-1.09.202-1.979.03-2.54-1.09-3.742-5.934-5.534-5.934-5.534s-3.224-10.12-12.522-11.77c-9.314-1.655-20.107.279-20.107.279S21.744 0 20.401 0a.882.882 0 0 0-.201.023" id="iszcu9clrC"/>
        <path d="M20.2.023c-1.449.31-2.71 5.362-2.71 5.362s-3.894-4.256-5.062-2.447c-1.121 1.715-3.909 9.805 2.399 14.093-.436 1.232-.825 2.572-1.199 3.975C5.325 27.694 0 37.967 0 49.474c0 13.593 7.429 25.458 18.44 31.741a32.782 32.782 0 0 0 3.52 1.761c.171.094.36.171.545.233.079.048.156.079.235.11.98.405 1.977.749 2.989 1.076.935.28 1.885.53 2.85.732.188.047.375.094.577.125.639.14 1.277.25 1.915.343.546.094 1.075.156 1.62.202 1.247.141 2.524.203 3.801.203 2.18 0 4.314-.186 6.385-.576a33.67 33.67 0 0 0 6.386-1.732c.203-.062.42-.156.623-.233.405-.155.795-.312 1.168-.483a36.422 36.422 0 0 0 8.94-5.55C67.953 70.722 73 60.698 73 49.474 73 38.84 68.45 29.27 61.21 22.58c.171-1.09.202-1.979.03-2.54-1.09-3.742-5.934-5.534-5.934-5.534s-3.224-10.12-12.522-11.77c-9.314-1.655-20.107.279-20.107.279S21.744 0 20.401 0a.882.882 0 0 0-.201.023" id="nev04w32vE"/>
        <path d="M20.2.023c-1.449.31-2.71 5.362-2.71 5.362s-3.894-4.256-5.062-2.447c-1.121 1.715-3.909 9.805 2.399 14.093-.436 1.232-.825 2.572-1.199 3.975C5.325 27.694 0 37.967 0 49.474c0 13.593 7.429 25.458 18.44 31.741a32.782 32.782 0 0 0 3.52 1.761c.171.094.36.171.545.233.079.048.156.079.235.11.98.405 1.977.749 2.989 1.076.935.28 1.885.53 2.85.732.188.047.375.094.577.125.639.14 1.277.25 1.915.343.546.094 1.075.156 1.62.202 1.247.141 2.524.203 3.801.203 2.18 0 4.314-.186 6.385-.576a33.67 33.67 0 0 0 6.386-1.732c.203-.062.42-.156.623-.233.405-.155.795-.312 1.168-.483a36.422 36.422 0 0 0 8.94-5.55C67.953 70.722 73 60.698 73 49.474 73 38.84 68.45 29.27 61.21 22.58c.171-1.09.202-1.979.03-2.54-1.09-3.742-5.934-5.534-5.934-5.534s-3.224-10.12-12.522-11.77c-9.314-1.655-20.107.279-20.107.279S21.744 0 20.401 0a.882.882 0 0 0-.201.023" id="mx3houn4xG"/>
        <path d="M20.2.023c-1.449.31-2.71 5.362-2.71 5.362s-3.894-4.256-5.062-2.447c-1.121 1.715-3.909 9.805 2.399 14.093-.436 1.232-.825 2.572-1.199 3.975C5.325 27.694 0 37.967 0 49.474c0 13.593 7.429 25.458 18.44 31.741a32.782 32.782 0 0 0 3.52 1.761c.171.094.36.171.545.233.079.048.156.079.235.11.98.405 1.977.749 2.989 1.076.935.28 1.885.53 2.85.732.188.047.375.094.577.125.639.14 1.277.25 1.915.343.546.094 1.075.156 1.62.202 1.247.141 2.524.203 3.801.203 2.18 0 4.314-.186 6.385-.576a33.67 33.67 0 0 0 6.386-1.732c.203-.062.42-.156.623-.233.405-.155.795-.312 1.168-.483a36.422 36.422 0 0 0 8.94-5.55C67.953 70.722 73 60.698 73 49.474 73 38.84 68.45 29.27 61.21 22.58c.171-1.09.202-1.979.03-2.54-1.09-3.742-5.934-5.534-5.934-5.534s-3.224-10.12-12.522-11.77c-9.314-1.655-20.107.279-20.107.279S21.744 0 20.401 0a.882.882 0 0 0-.201.023z" id="1lgihh7q9I"/>
        <path d="M20.2.023c-1.449.31-2.71 5.362-2.71 5.362s-3.894-4.256-5.062-2.447c-1.121 1.715-3.909 9.805 2.399 14.093-.436 1.232-.825 2.572-1.199 3.975C5.325 27.694 0 37.967 0 49.474c0 13.593 7.429 25.458 18.44 31.741a32.782 32.782 0 0 0 3.52 1.761c.171.094.36.171.545.233.079.048.156.079.235.11.98.405 1.977.749 2.989 1.076.935.28 1.885.53 2.85.732.188.047.375.094.577.125.639.14 1.277.25 1.915.343.546.094 1.075.156 1.62.202 1.247.141 2.524.203 3.801.203 2.18 0 4.314-.186 6.385-.576a33.67 33.67 0 0 0 6.386-1.732c.203-.062.42-.156.623-.233.405-.155.795-.312 1.168-.483a36.422 36.422 0 0 0 8.94-5.55C67.953 70.722 73 60.698 73 49.474 73 38.84 68.45 29.27 61.21 22.58c.171-1.09.202-1.979.03-2.54-1.09-3.742-5.934-5.534-5.934-5.534s-3.224-10.12-12.522-11.77c-9.314-1.655-20.107.279-20.107.279S21.744 0 20.401 0a.882.882 0 0 0-.201.023" id="92b5yfn5zK"/>
        <path d="M20.2.023c-1.449.31-2.71 5.362-2.71 5.362s-3.894-4.256-5.062-2.447c-1.121 1.715-3.909 9.805 2.399 14.093-.436 1.232-.825 2.572-1.199 3.975C5.325 27.694 0 37.967 0 49.474c0 13.593 7.429 25.458 18.44 31.741a32.782 32.782 0 0 0 3.52 1.761c.171.094.36.171.545.233.079.048.156.079.235.11.98.405 1.977.749 2.989 1.076.935.28 1.885.53 2.85.732.188.047.375.094.577.125.639.14 1.277.25 1.915.343.546.094 1.075.156 1.62.202 1.247.141 2.524.203 3.801.203 2.18 0 4.314-.186 6.385-.576a33.67 33.67 0 0 0 6.386-1.732c.203-.062.42-.156.623-.233.405-.155.795-.312 1.168-.483a36.422 36.422 0 0 0 8.94-5.55C67.953 70.722 73 60.698 73 49.474 73 38.84 68.45 29.27 61.21 22.58c.171-1.09.202-1.979.03-2.54-1.09-3.742-5.934-5.534-5.934-5.534s-3.224-10.12-12.522-11.77c-9.314-1.655-20.107.279-20.107.279S21.744 0 20.401 0a.882.882 0 0 0-.201.023z" id="35lfjhfaiM"/>
        <path d="M20.2.023c-1.449.31-2.71 5.362-2.71 5.362s-3.894-4.256-5.062-2.447c-1.121 1.715-3.909 9.805 2.399 14.093-.436 1.232-.825 2.572-1.199 3.975C5.325 27.694 0 37.967 0 49.474c0 13.593 7.429 25.458 18.44 31.741a32.782 32.782 0 0 0 3.52 1.761c.171.094.36.171.545.233.079.048.156.079.235.11.98.405 1.977.749 2.989 1.076.935.28 1.885.53 2.85.732.188.047.375.094.577.125.639.14 1.277.25 1.915.343.546.094 1.075.156 1.62.202 1.247.141 2.524.203 3.801.203 2.18 0 4.314-.186 6.385-.576a33.67 33.67 0 0 0 6.386-1.732c.203-.062.42-.156.623-.233.405-.155.795-.312 1.168-.483a36.422 36.422 0 0 0 8.94-5.55C67.953 70.722 73 60.698 73 49.474 73 38.84 68.45 29.27 61.21 22.58c.171-1.09.202-1.979.03-2.54-1.09-3.742-5.934-5.534-5.934-5.534s-3.224-10.12-12.522-11.77c-9.314-1.655-20.107.279-20.107.279S21.744 0 20.401 0a.882.882 0 0 0-.201.023" id="g90rem9n8O"/>
        <path d="M34.259 1.027C24.332 3.544 19.872 8.86 18.16 14.44A37.44 37.44 0 0 0 0 46.617 37.446 37.446 0 0 0 17.084 78.12 36.518 36.518 0 0 0 36.991 84a36.471 36.471 0 0 0 18.31-4.903C66.47 72.673 74 60.537 74 46.617c0-11.778-5.39-22.279-13.81-29.116-.521-2.01-1.098-3.87-1.73-5.541 0-.019 0-.038-.018-.057v-.02c0-.017 0-.036-.018-.055C58.074 10.513 54.881 0 41.859 0c-2.233 0-4.755.309-7.6 1.027z" id="yoluu40roQ"/>
        <path d="M34.259 1.027C24.332 3.544 19.872 8.86 18.16 14.44A37.44 37.44 0 0 0 0 46.617 37.446 37.446 0 0 0 17.084 78.12 36.518 36.518 0 0 0 36.991 84a36.471 36.471 0 0 0 18.31-4.903C66.47 72.673 74 60.537 74 46.617c0-11.778-5.39-22.279-13.81-29.116-.521-2.01-1.098-3.87-1.73-5.541 0-.019 0-.038-.018-.057v-.02c0-.017 0-.036-.018-.055C58.074 10.513 54.881 0 41.859 0c-2.233 0-4.755.309-7.6 1.027" id="ecb82buwjS"/>
        <path d="M34.259 1.027C24.332 3.544 19.872 8.86 18.16 14.44A37.44 37.44 0 0 0 0 46.617 37.446 37.446 0 0 0 17.084 78.12 36.518 36.518 0 0 0 36.991 84a36.471 36.471 0 0 0 18.31-4.903C66.47 72.673 74 60.537 74 46.617c0-11.778-5.39-22.279-13.81-29.116-.521-2.01-1.098-3.87-1.73-5.541 0-.019 0-.038-.018-.057v-.02c0-.017 0-.036-.018-.055C58.074 10.513 54.881 0 41.859 0c-2.233 0-4.755.309-7.6 1.027" id="9ndmqyefgU"/>
        <path d="M34.259 1.027C24.332 3.544 19.872 8.86 18.16 14.44A37.44 37.44 0 0 0 0 46.617 37.446 37.446 0 0 0 17.084 78.12 36.518 36.518 0 0 0 36.991 84a36.471 36.471 0 0 0 18.31-4.903C66.47 72.673 74 60.537 74 46.617c0-11.778-5.39-22.279-13.81-29.116-.521-2.01-1.098-3.87-1.73-5.541 0-.019 0-.038-.018-.057v-.02c0-.017 0-.036-.018-.055C58.074 10.513 54.881 0 41.859 0c-2.233 0-4.755.309-7.6 1.027" id="w0h6jw9tbW"/>
        <path d="M34.259 1.027C24.332 3.544 19.872 8.86 18.16 14.44A37.44 37.44 0 0 0 0 46.617 37.446 37.446 0 0 0 17.084 78.12 36.518 36.518 0 0 0 36.991 84a36.471 36.471 0 0 0 18.31-4.903C66.47 72.673 74 60.537 74 46.617c0-11.778-5.39-22.279-13.81-29.116-.521-2.01-1.098-3.87-1.73-5.541 0-.019 0-.038-.018-.057v-.02c0-.017 0-.036-.018-.055C58.074 10.513 54.881 0 41.859 0c-2.233 0-4.755.309-7.6 1.027" id="t60lcaijjY"/>
        <path d="M34.259 1.027C24.332 3.544 19.872 8.86 18.16 14.44A37.44 37.44 0 0 0 0 46.617 37.446 37.446 0 0 0 17.084 78.12 36.518 36.518 0 0 0 36.991 84a36.471 36.471 0 0 0 18.31-4.903C66.47 72.673 74 60.537 74 46.617c0-11.778-5.39-22.279-13.81-29.116-.521-2.01-1.098-3.87-1.73-5.541 0-.019 0-.038-.018-.057v-.02c0-.017 0-.036-.018-.055C58.074 10.513 54.881 0 41.859 0c-2.233 0-4.755.309-7.6 1.027" id="8ueg9740zaa"/>
        <path d="M34.259 1.027C24.332 3.544 19.872 8.86 18.16 14.44A37.44 37.44 0 0 0 0 46.617 37.446 37.446 0 0 0 17.084 78.12 36.518 36.518 0 0 0 36.991 84a36.471 36.471 0 0 0 18.31-4.903C66.47 72.673 74 60.537 74 46.617c0-11.778-5.39-22.279-13.81-29.116-.521-2.01-1.098-3.87-1.73-5.541 0-.019 0-.038-.018-.057v-.02c0-.017 0-.036-.018-.055C58.074 10.513 54.881 0 41.859 0c-2.233 0-4.755.309-7.6 1.027" id="72m2le7g8ac"/>
        <path d="M34.259 1.027C24.332 3.544 19.872 8.86 18.16 14.44A37.44 37.44 0 0 0 0 46.617 37.446 37.446 0 0 0 17.084 78.12 36.518 36.518 0 0 0 36.991 84a36.471 36.471 0 0 0 18.31-4.903C66.47 72.673 74 60.537 74 46.617c0-11.778-5.39-22.279-13.81-29.116-.521-2.01-1.098-3.87-1.73-5.541 0-.019 0-.038-.018-.057v-.02c0-.017 0-.036-.018-.055C58.074 10.513 54.881 0 41.859 0c-2.233 0-4.755.309-7.6 1.027" id="lcdupfgw6ae"/>
        <path d="M34.259 1.027C24.332 3.544 19.872 8.86 18.16 14.44A37.44 37.44 0 0 0 0 46.617 37.446 37.446 0 0 0 17.084 78.12 36.518 36.518 0 0 0 36.991 84a36.471 36.471 0 0 0 18.31-4.903C66.47 72.673 74 60.537 74 46.617c0-11.778-5.39-22.279-13.81-29.116-.521-2.01-1.098-3.87-1.73-5.541 0-.019 0-.038-.018-.057v-.02c0-.017 0-.036-.018-.055C58.074 10.513 54.881 0 41.859 0c-2.233 0-4.755.309-7.6 1.027" id="4ghsmbwszag"/>
        <path d="M34.259 1.027C24.332 3.544 19.872 8.86 18.16 14.44A37.44 37.44 0 0 0 0 46.617 37.446 37.446 0 0 0 17.084 78.12 36.518 36.518 0 0 0 36.991 84a36.471 36.471 0 0 0 18.31-4.903C66.47 72.673 74 60.537 74 46.617c0-11.778-5.39-22.279-13.81-29.116-.521-2.01-1.098-3.87-1.73-5.541 0-.019 0-.038-.018-.057v-.02c0-.017 0-.036-.018-.055C58.074 10.513 54.881 0 41.859 0c-2.233 0-4.755.309-7.6 1.027" id="xl90wuui6ai"/>
        <path d="M34.259 1.027C24.332 3.544 19.872 8.86 18.16 14.44A37.44 37.44 0 0 0 0 46.617 37.446 37.446 0 0 0 17.084 78.12 36.518 36.518 0 0 0 36.991 84a36.471 36.471 0 0 0 18.31-4.903C66.47 72.673 74 60.537 74 46.617c0-11.778-5.39-22.279-13.81-29.116-.521-2.01-1.098-3.87-1.73-5.541 0-.019 0-.038-.018-.057v-.02c0-.017 0-.036-.018-.055C58.074 10.513 54.881 0 41.859 0c-2.233 0-4.755.309-7.6 1.027" id="c9ydgcyllak"/>
        <path d="M34.259 1.027C24.332 3.544 19.872 8.86 18.16 14.44A37.44 37.44 0 0 0 0 46.617 37.446 37.446 0 0 0 17.084 78.12 36.518 36.518 0 0 0 36.991 84a36.471 36.471 0 0 0 18.31-4.903C66.47 72.673 74 60.537 74 46.617c0-11.778-5.39-22.279-13.81-29.116-.521-2.01-1.098-3.87-1.73-5.541 0-.019 0-.038-.018-.057v-.02c0-.017 0-.036-.018-.055C58.074 10.513 54.881 0 41.859 0c-2.233 0-4.755.309-7.6 1.027" id="49xabqf1bam"/>
        <path d="M34.259 1.027C24.332 3.544 19.872 8.86 18.16 14.44A37.44 37.44 0 0 0 0 46.617 37.446 37.446 0 0 0 17.084 78.12 36.518 36.518 0 0 0 36.991 84a36.471 36.471 0 0 0 18.31-4.903C66.47 72.673 74 60.537 74 46.617c0-11.778-5.39-22.279-13.81-29.116-.521-2.01-1.098-3.87-1.73-5.541 0-.019 0-.038-.018-.057v-.02c0-.017 0-.036-.018-.055C58.074 10.513 54.881 0 41.859 0c-2.233 0-4.755.309-7.6 1.027" id="8rf2qhs40ao"/>
        <path d="M34.259 1.027C24.332 3.544 19.872 8.86 18.16 14.44A37.44 37.44 0 0 0 0 46.617 37.446 37.446 0 0 0 17.084 78.12 36.518 36.518 0 0 0 36.991 84a36.471 36.471 0 0 0 18.31-4.903C66.47 72.673 74 60.537 74 46.617c0-11.778-5.39-22.279-13.81-29.116-.521-2.01-1.098-3.87-1.73-5.541 0-.019 0-.038-.018-.057v-.02c0-.017 0-.036-.018-.055C58.074 10.513 54.881 0 41.859 0c-2.233 0-4.755.309-7.6 1.027" id="w6dh0n8mvaq"/>
        <path d="M34.259 1.027C24.332 3.544 19.872 8.86 18.16 14.44A37.44 37.44 0 0 0 0 46.617 37.446 37.446 0 0 0 17.084 78.12 36.518 36.518 0 0 0 36.991 84a36.471 36.471 0 0 0 18.31-4.903C66.47 72.673 74 60.537 74 46.617c0-11.778-5.39-22.279-13.81-29.116-.521-2.01-1.098-3.87-1.73-5.541 0-.019 0-.038-.018-.057v-.02c0-.017 0-.036-.018-.055C58.074 10.513 54.881 0 41.859 0c-2.233 0-4.755.309-7.6 1.027z" id="1wje5ougaas"/>
        <path d="M34.259 1.027C24.332 3.544 19.872 8.86 18.16 14.44A37.44 37.44 0 0 0 0 46.617 37.446 37.446 0 0 0 17.084 78.12 36.518 36.518 0 0 0 36.991 84a36.471 36.471 0 0 0 18.31-4.903C66.47 72.673 74 60.537 74 46.617c0-11.778-5.39-22.279-13.81-29.116-.521-2.01-1.098-3.87-1.73-5.541 0-.019 0-.038-.018-.057v-.02c0-.017 0-.036-.018-.055C58.074 10.513 54.881 0 41.859 0c-2.233 0-4.755.309-7.6 1.027" id="9k1epua8bau"/>
        <path id="1xw5qg9kdaw" d="M0 0h56.873v45.66H0z"/>
        <path d="m21.24 10.361-.05.05c-1.134 1.045-5.936 3.866-9.304 9.804C4.551 27.282 0 37.185 0 48.132c0 6.304 1.5 12.242 4.185 17.502C2.718 69.963 2.1 74.16 2.217 77.726h6.068a65.48 65.48 0 0 1 .818-4.645c.333.4.666.781 1.016 1.178-.065 1.228-.05 2.44.1 3.467h3.518a35.891 35.891 0 0 0 4.951 3.567c3.35 2.056 7.02 3.6 10.937 4.562A39.347 39.347 0 0 0 39.06 87c2.784 0 5.52-.3 8.136-.864a36.787 36.787 0 0 0 6.852-2.106 38.835 38.835 0 0 0 10.336-6.304h10.336c.083-1.825.1-4.976-.433-7.43-.684-3.268 2.017 3.2 2.35 7.43h3.335s.516-10.998-2.951-20.453a38.435 38.435 0 0 0 1.1-9.14c0-8.46-2.717-16.29-7.336-22.676-.083-.547-.166-1.112-.249-1.692-1.317-8.261-8.702-18.363-19.19-21.963-.082-.033-.165-.05-.25-.083A27.988 27.988 0 0 0 41.453 0C33.976 0 26.3 3.055 21.24 10.361" id="6akx6wv1iay"/>
        <path d="m21.24 10.361-.05.05c-1.134 1.045-5.936 3.866-9.304 9.804C4.551 27.282 0 37.185 0 48.132c0 6.304 1.5 12.242 4.185 17.502C2.718 69.963 2.1 74.16 2.217 77.726h6.068a65.48 65.48 0 0 1 .818-4.645c.333.4.666.781 1.016 1.178-.065 1.228-.05 2.44.1 3.467h3.518a35.891 35.891 0 0 0 4.951 3.567c3.35 2.056 7.02 3.6 10.937 4.562A39.347 39.347 0 0 0 39.06 87c2.784 0 5.52-.3 8.136-.864a36.787 36.787 0 0 0 6.852-2.106 38.835 38.835 0 0 0 10.336-6.304h10.336c.083-1.825.1-4.976-.433-7.43-.684-3.268 2.017 3.2 2.35 7.43h3.335s.516-10.998-2.951-20.453a38.435 38.435 0 0 0 1.1-9.14c0-8.46-2.717-16.29-7.336-22.676-.083-.547-.166-1.112-.249-1.692-1.317-8.261-8.702-18.363-19.19-21.963-.082-.033-.165-.05-.25-.083A27.988 27.988 0 0 0 41.453 0C33.976 0 26.3 3.055 21.24 10.361" id="jy877ebrpaA"/>
    </defs>
    <g fill="none" fill-rule="evenodd">
        <g>
            <path d="M456.002 233.7c-16.143 21.837-32.975 47.179-37.073 74.562-.05.415.615.55.711.138a162.838 162.838 0 0 1 7.139-21.925c10.613-2.917 21.03-5.313 26.603-15.834 5.684-10.816 4.962-24.917 3.882-36.698-.076-.632-.934-.662-1.262-.243" fill="#C6C6C6"/>
            <path d="M426.939 286.27c7.252-16.254 16.561-32.575 28.395-45.94.08-.09.204.04.13.13-7.748 9.519-13.634 19.886-19.384 30.435 5.345-5.42 11.203-10.276 16.265-16.022.1-.112.257.05.163.162-5.027 6.025-10.519 12.574-17.066 17.033-1.759 3.235-3.53 6.483-5.325 9.729.44-.246.894-.465 1.345-.688.08-.039.15.079.07.119-.5.252-.993.519-1.51.737-.85 1.536-1.692 3.073-2.566 4.606-.196.342-.67.043-.517-.301M432.334 280.6c4.326-2.479 8.498-5.14 12.392-8.263.105-.086.258.062.15.152-3.823 3.232-7.9 6.127-12.364 8.414-.201.103-.376-.19-.178-.304" fill="#EAEAEA"/>
            <path d="M417.061 304.192c.033.332.597.326.59-.027.084-9.018.008-18.077.144-27.136 2.313-4.662 7.277-7.243 10.73-10.979 2.49-2.696 4.618-5.737 6.44-8.956 4.268-7.629 6.58-16.208 7.47-24.877.953-9.645-2.711-41.476-6.783-40.37-2.112.573-8.943 16.339-10.755 21.55-2.969 8.574-5.056 17.46-6.426 26.426-3.3 21.222-3.025 43.013-1.41 64.369" fill="#C6C6C6"/>
            <path d="m416.997 265.29.04-.036c.495-11.41 3.07-22.933 5.478-34 2.596-11.922 5.63-23.148 11.771-33.782.115-.197.408-.024.306.179-4.18 8.225-7.17 16.96-9.457 25.93.412-.644.911-1.253 1.34-1.86.167-.239.563-.016.396.232-.602.898-1.146 1.945-1.92 2.706-.024.027-.052.029-.08.037-2.113 8.521-3.63 17.238-4.93 25.934.097-.111.19-.23.29-.336.065-.072.178.02.132.101-.16.29-.341.575-.518.863-.655 4.413-1.26 8.819-1.87 13.184 7.867-6.717 14.585-14.634 18.375-24.388.018-.045.091-.026.074.02-3.713 10.12-9.565 19.113-18.575 25.251a769.684 769.684 0 0 1-.497 3.524c-.034.244-.422.179-.42-.057.003-1.04.052-2.081.093-3.123-.112-.098-.165-.266-.028-.38" fill="#EAEAEA"/>
            <path d="M420.703 248.757c6.011-8.962 11.628-17.667 16.028-27.573.048-.11.239-.031.195.083-3.707 9.842-8.898 19.816-15.923 27.722-.143.16-.422-.05-.3-.232M428.693 218.97c2.49-4.402 5.117-8.685 7.46-13.173.066-.125.24-.015.186.108-1.967 4.588-4.317 9.246-7.262 13.29-.165.226-.529.03-.384-.225M427.72 220.885c.049 0 .049.076 0 .076-.05 0-.05-.076 0-.076" fill="#EAEAEA"/>
            <path d="M410.95 278.112c-.154 5.975-.8 11.953-2.109 17.767.092.642.186 1.284.28 1.945 1.885-6.473 2.87-13.107 3.182-19.804.101-.185.145-.386.027-.613l-.001-.019c.34-8.942-.49-17.984-1.994-26.833-2.795-16.573-8.903-32.477-20.476-44.9-.366-.382-1.098-.184-1.278.263-4.669 11.86-3.04 26.01.937 37.842 2.165 6.374 5.255 12.494 9.177 17.973 3.97 5.574 9.031 10.291 12.256 16.38" fill="#C6C6C6"/>
            <path d="M391.228 211.206c10.967 17.778 18.598 38.856 19.53 59.856.017.372-.61.47-.662.09a225.678 225.678 0 0 0-.851-5.62c-.006-.005-.013-.001-.019-.007-4.537-4.34-9.195-8.92-12.443-14.344-.058-.094.08-.206.155-.12 3.948 4.506 7.63 9.122 12.088 13.14a193.676 193.676 0 0 0-2.817-13.715c-.294-.336-.58-.68-.868-1.018-.19-.223.127-.548.325-.325l.264.29a158.452 158.452 0 0 0-5.734-18.182c-2.792-3.327-5.914-6.2-7.947-10.208-.05-.098.083-.173.146-.085 1.634 2.292 3.216 4.597 5.072 6.723.739.847 1.55 1.638 2.316 2.466a140.133 140.133 0 0 0-8.98-18.693c-.157-.276.26-.517.425-.248" fill="#EAEAEA"/>
            <path d="M393.445 233.136c3.545 4.765 7.585 9.311 10.88 14.236.095.142-.112.287-.229.177-4.234-3.968-7.818-9.386-10.889-14.274-.097-.154.135-.278.238-.139M404.821 248.476l.151.15c.106.106-.057.268-.162.163l-.151-.151c-.105-.105.057-.267.162-.162" fill="#EAEAEA"/>
            <path d="M374.045 245.382c.88 9.146 5.699 20.071 11.573 27.119 2.604 3.118 5.762 5.502 9.384 7.315 4.065 2.009 8.321 4.322 12.526 5.97a82.052 82.052 0 0 1 4.435 15.734c.135-.458.27-.935.406-1.393-2.7-23.158-17.702-42.95-36.893-55.657-.69-.458-1.507.13-1.43.912" fill="#C6C6C6"/>
            <path d="M380.676 252.223c-.135-.118.047-.362.195-.252 10.169 7.524 19.333 18.496 24.452 30.1.14.317-.295.594-.476.278-.892-1.56-1.802-3.08-2.727-4.571-.006-.001-.008.002-.014.002-4.38-.824-8.527-3.903-11.779-6.826-.088-.079.041-.208.13-.13 1.698 1.495 3.52 2.863 5.542 3.889 1.786.906 3.708 1.477 5.566 2.201a123.696 123.696 0 0 0-5.08-7.435c-4.715-1.604-9.204-4.496-13.165-7.39-.124-.092-.015-.296.124-.213a131.325 131.325 0 0 0 12.235 6.533c-2.656-3.513-5.53-6.841-8.638-10.06-1.49-.785-2.999-1.574-4.441-2.414-.118-.068-.041-.268.093-.224 1.15.382 2.32.984 3.41 1.673-1.734-1.75-3.517-3.477-5.427-5.16M381.084 260.22c.264.167.504.319.739.526.07.061-.02.152-.094.12-.28-.123-.512-.271-.769-.436-.133-.084-.01-.295.124-.21" fill="#EAEAEA"/>
            <path fill="#C6C6C6" d="M442.318 351.668h-52.586l4.245-47.831.932-10.548h42.232l.932 10.548z"/>
            <path fill="#A4A4A4" d="M438.073 303.837h-44.096l.931-10.548h42.232z"/>
            <mask id="sd5nhmbeob" fill="#fff">
                <use xlink:href="#tpxgvi9tna"/>
            </mask>
            <path fill="#C6C6C6" mask="url(#sd5nhmbeob)" d="M392.394 296.353h47.263v-10.438h-47.263z"/>
            <path d="M36.761 211.526h142.564V114.83H36.761v96.696zm-1.143 1.143H180.47v-98.981H35.618v98.98z" fill="#A4A4A4" mask="url(#sd5nhmbeob)"/>
            <path d="M46.944 120.065c0 1.59-1.29 2.88-2.884 2.88a2.881 2.881 0 1 1 0-5.76 2.882 2.882 0 0 1 2.884 2.88" fill="#A4A4A4" mask="url(#sd5nhmbeob)"/>
            <path d="M58.716 120.065c0 1.59-1.29 2.88-2.883 2.88a2.881 2.881 0 1 1 0-5.76 2.882 2.882 0 0 1 2.883 2.88" fill="#CFCFCF" mask="url(#sd5nhmbeob)"/>
            <path d="M70.489 120.065c0 1.59-1.29 2.88-2.884 2.88a2.881 2.881 0 1 1 0-5.76 2.882 2.882 0 0 1 2.884 2.88" fill="#E0715F" mask="url(#sd5nhmbeob)"/>
            <path fill="#A4A4A4" mask="url(#sd5nhmbeob)" d="M36.19 126.276h143.708v-1.142H36.19z"/>
            <path d="M397.74 163.684a25.121 25.121 0 0 1-7.338 3.07 25.336 25.336 0 0 1-19.427-3.081 25.367 25.367 0 0 1-11.338-15.575c-3.33-13.645 5.028-27.403 18.69-30.727 13.65-3.336 27.422 5.02 30.762 18.665 2.681 10.979-2.222 22.025-11.349 27.648" fill="#CFCFCF" mask="url(#sd5nhmbeob)"/>
            <path d="M392.102 139.157c0 4.271-3.467 7.735-7.744 7.735-4.278 0-7.745-3.464-7.745-7.735 0-4.272 3.467-7.736 7.745-7.736 4.277 0 7.744 3.464 7.744 7.736M397.74 160.494v3.19a25.121 25.121 0 0 1-7.338 3.07 25.336 25.336 0 0 1-19.427-3.081v-3.18c0-7.364 5.988-13.366 13.383-13.366 7.394 0 13.382 6.002 13.382 13.367" fill="#FFF" mask="url(#sd5nhmbeob)"/>
            <path fill="#5C5C5C" mask="url(#sd5nhmbeob)" d="M37.824 352H183.54v-12.054H37.824z"/>
            <path fill="#000" mask="url(#sd5nhmbeob)" d="M183.54 352h277.47v-12.054H183.54z"/>
            <path fill="#A4A4A4" mask="url(#sd5nhmbeob)" d="M315.315 339.945H37.823L0 162.213h277.493z"/>
            <path fill="#FFF" mask="url(#sd5nhmbeob)" d="M125.466 328.723H46.67L13.623 173.434h78.796z"/>
            <path d="M45.02 231.76a5.424 5.424 0 0 1-1.824.836c-1.784.46-3.748.108-5.476-.84-1.688-.921-3.153-2.409-3.995-4.246-1.7-3.721-.22-7.472 3.313-8.379 3.528-.91 7.768 1.369 9.472 5.09 1.368 2.993.67 6.006-1.49 7.539" fill="#C6C6C6" mask="url(#sd5nhmbeob)"/>
            <path d="M42.058 225.072c.248 1.165-.496 2.109-1.663 2.109-1.165 0-2.313-.944-2.56-2.11-.248-1.165.497-2.108 1.663-2.108s2.312.943 2.56 2.109M44.834 230.89l.185.87a5.424 5.424 0 0 1-1.823.837c-1.784.459-3.748.106-5.475-.84l-.186-.867c-.426-2.009.858-3.645 2.875-3.645 2.016 0 3.996 1.636 4.424 3.645" fill="#FFF" mask="url(#sd5nhmbeob)"/>
            <path fill="#C6C6C6" mask="url(#sd5nhmbeob)" d="M82.713 221.654H51.105l-.58-2.723h31.608zM95.347 226.639H52.165l-.334-1.568h43.182zM96.066 230.02H52.885l-.334-1.567h43.183z"/>
            <path d="M49.631 253.433a5.424 5.424 0 0 1-1.823.837c-1.784.459-3.748.107-5.475-.84-1.689-.922-3.154-2.41-3.996-4.247-1.7-3.72-.22-7.472 3.313-8.378 3.529-.91 7.769 1.368 9.472 5.09 1.368 2.992.671 6.005-1.49 7.538" fill="#80D363" mask="url(#sd5nhmbeob)"/>
            <path d="M46.67 246.745c.249 1.165-.496 2.11-1.663 2.11-1.165 0-2.312-.945-2.56-2.11-.248-1.165.497-2.109 1.663-2.109s2.312.944 2.56 2.11M49.446 252.563l.186.87a5.446 5.446 0 0 1-1.824.837c-1.784.46-3.748.106-5.475-.84l-.184-.867c-.428-2.008.856-3.644 2.873-3.644 2.017 0 3.996 1.636 4.424 3.644" fill="#FFF" mask="url(#sd5nhmbeob)"/>
            <path fill="#C6C6C6" mask="url(#sd5nhmbeob)" d="M87.325 243.327H55.717l-.58-2.722h31.608zM99.959 248.312H56.778l-.334-1.567h43.18zM100.679 251.694H57.497l-.334-1.567h43.182z"/>
            <path d="M54.244 275.107a5.424 5.424 0 0 1-1.824.836c-1.784.46-3.748.106-5.475-.84-1.688-.922-3.154-2.41-3.995-4.246-1.7-3.721-.22-7.473 3.312-8.379 3.529-.91 7.769 1.369 9.472 5.09 1.368 2.993.673 6.005-1.49 7.539" fill="#455A64" mask="url(#sd5nhmbeob)"/>
            <path d="M51.283 268.418c.248 1.166-.497 2.11-1.663 2.11s-2.313-.944-2.56-2.11c-.248-1.165.496-2.109 1.663-2.109 1.166 0 2.312.944 2.56 2.11M54.058 274.236l.186.871a5.446 5.446 0 0 1-1.823.836c-1.785.46-3.749.107-5.476-.84l-.185-.867c-.427-2.008.858-3.644 2.874-3.644 2.017 0 3.997 1.636 4.424 3.644" fill="#FFF" mask="url(#sd5nhmbeob)"/>
            <path fill="#C6C6C6" mask="url(#sd5nhmbeob)" d="M91.938 265H60.329l-.58-2.722h31.609zM104.571 269.985H61.39l-.334-1.567h43.182zM105.291 273.367H62.11l-.334-1.567h43.181z"/>
            <path d="M58.856 296.78a5.402 5.402 0 0 1-1.823.836c-1.785.46-3.749.108-5.476-.84-1.688-.92-3.153-2.409-3.995-4.246-1.7-3.721-.22-7.472 3.312-8.379 3.53-.91 7.77 1.369 9.472 5.09 1.368 2.993.672 6.006-1.49 7.539" fill="#263238" mask="url(#sd5nhmbeob)"/>
            <path d="M55.895 290.092c.248 1.165-.496 2.109-1.663 2.109-1.165 0-2.313-.944-2.56-2.11-.248-1.165.497-2.108 1.662-2.108 1.167 0 2.313.943 2.561 2.109M58.67 295.91l.186.87a5.446 5.446 0 0 1-1.823.837c-1.785.459-3.748.106-5.476-.84l-.184-.867c-.428-2.009.857-3.645 2.874-3.645 2.016 0 3.996 1.636 4.424 3.645" fill="#FFF" mask="url(#sd5nhmbeob)"/>
            <path fill="#C6C6C6" mask="url(#sd5nhmbeob)" d="M96.55 286.674H64.942l-.58-2.723H95.97zM109.184 291.659H66.002l-.334-1.568h43.182zM109.903 295.04H66.722l-.334-1.567h43.181zM63.468 318.453a5.424 5.424 0 0 1-1.823.837c-1.784.459-3.748.107-5.475-.84-1.689-.922-3.154-2.41-3.996-4.247-1.7-3.72-.22-7.472 3.313-8.378 3.528-.91 7.769 1.368 9.472 5.09 1.368 2.992.671 6.005-1.49 7.538"/>
            <path d="M60.508 311.765c.248 1.165-.497 2.11-1.664 2.11-1.165 0-2.312-.945-2.56-2.11-.248-1.165.497-2.109 1.663-2.109s2.312.944 2.56 2.11M63.283 317.583l.185.87a5.446 5.446 0 0 1-1.823.837c-1.784.46-3.748.106-5.475-.84l-.186-.867c-.426-2.008.858-3.644 2.875-3.644 2.016 0 3.996 1.636 4.424 3.644" fill="#FFF" mask="url(#sd5nhmbeob)"/>
            <path fill="#C6C6C6" mask="url(#sd5nhmbeob)" d="M101.162 308.347H69.554l-.58-2.722h31.608zM113.796 313.332H70.615l-.334-1.567h43.18zM114.516 316.714H71.334L71 315.147h43.183zM33.155 194.794a3.378 3.378 0 0 1-1.135.521c-1.112.286-2.333.066-3.408-.523a5.815 5.815 0 0 1-2.488-2.644c-1.058-2.316-.136-4.65 2.062-5.215 2.197-.567 4.836.852 5.897 3.168.852 1.863.418 3.738-.928 4.693"/>
            <path d="M31.312 190.63c.154.726-.31 1.313-1.035 1.313-.727 0-1.44-.587-1.594-1.312-.154-.726.31-1.313 1.035-1.313.726 0 1.44.587 1.594 1.313M33.04 194.252l.115.542a3.378 3.378 0 0 1-1.135.52c-1.111.286-2.333.067-3.408-.522l-.116-.54c-.265-1.25.535-2.269 1.79-2.269 1.254 0 2.487 1.02 2.754 2.27" fill="#FFF" mask="url(#sd5nhmbeob)"/>
            <path d="M87.26 192.076c-.043-.202.086-.366.288-.366.202 0 .4.164.443.366.043.2-.086.365-.288.365a.477.477 0 0 1-.443-.365M86.953 190.63c-.043-.202.085-.365.288-.365.201 0 .4.163.442.366.044.2-.085.365-.287.365a.478.478 0 0 1-.443-.365M86.645 189.186c-.043-.202.086-.366.288-.366.202 0 .4.164.443.366.043.202-.086.365-.288.365a.476.476 0 0 1-.443-.365M81.943 191.554h-4.176l-.58-2.733h4.175zM77.768 191.554l.189.886.714-.886z" fill="#C6C6C6" mask="url(#sd5nhmbeob)"/>
            <path fill="#FFF" mask="url(#sd5nhmbeob)" d="M80.722 189.551h-2.586l-.054-.255h2.587zM80.838 190.093H78.25l-.053-.255h2.586zM80.953 190.635h-2.586l-.054-.255h2.586z"/>
            <path fill="#3E4950" mask="url(#sd5nhmbeob)" d="M270.433 181.834H15.41l-1.787-8.4h255.022z"/>
            <path d="M21.2 177.634c.245 1.15-.49 2.083-1.642 2.083s-2.284-.932-2.529-2.083c-.245-1.15.49-2.082 1.643-2.082 1.151 0 2.284.932 2.529 2.082" fill="#C6C6C6" mask="url(#sd5nhmbeob)"/>
            <path d="M29.717 177.634c.244 1.15-.491 2.083-1.643 2.083-1.152 0-2.284-.932-2.529-2.083-.245-1.15.49-2.082 1.643-2.082 1.151 0 2.284.932 2.529 2.082" fill="#FFF" mask="url(#sd5nhmbeob)"/>
            <path d="M38.232 177.634c.245 1.15-.49 2.083-1.642 2.083s-2.284-.932-2.53-2.083c-.244-1.15.492-2.082 1.643-2.082 1.152 0 2.285.932 2.53 2.082" fill="#E0715F" mask="url(#sd5nhmbeob)"/>
            <path fill="#EAEAEA" mask="url(#sd5nhmbeob)" d="M270.433 181.834H94.206l31.26 146.89h176.226z"/>
            <path fill="#FFF" mask="url(#sd5nhmbeob)" d="M286.468 321.642h-146.34l-1.823-8.56h146.34z"/>
            <path d="M283.544 317.468c.248 1.167-.496 2.111-1.658 2.111-1.161 0-2.315-.944-2.564-2.11-.247-1.162.505-2.106 1.667-2.106 1.16 0 2.308.944 2.555 2.105" fill="#F0C63D" mask="url(#sd5nhmbeob)"/>
            <path fill="#FFF" mask="url(#sd5nhmbeob)" d="m280.787 316.251 1.562 1.219-1.042 1.218-.33-.287.795-.931-1.193-.932z"/>
            <path fill="#263238" mask="url(#sd5nhmbeob)" d="M142.168 319.915h-.562l-1.087-5.107h.562z"/>
            <path d="M292.21 321.703a.229.229 0 0 1-.213-.175l-.438-2.056c-.02-.098.042-.175.138-.175.097 0 .192.077.213.175l.438 2.056c.02.096-.041.175-.138.175" fill="#A4A4A4" mask="url(#sd5nhmbeob)"/>
            <path d="M293.33 321.703h-2.25a.229.229 0 0 1-.213-.175c-.021-.097.04-.176.138-.176h2.251c.097 0 .192.079.213.176.02.096-.041.175-.139.175M292.126 314.527l.636 2.986c.17.799-.34 1.446-1.141 1.446-.569 0-1.131-.327-1.47-.805a1.75 1.75 0 0 1-.286-.64l-.635-2.987c-.17-.799.34-1.447 1.14-1.447.4 0 .797.164 1.114.424a1.863 1.863 0 0 1 .642 1.023" fill="#A4A4A4" mask="url(#sd5nhmbeob)"/>
            <path d="M291.766 319.647c-.545 0-1.1-.204-1.576-.583-.505-.4-.85-.939-.974-1.518l-.268-1.259c-.02-.097.042-.176.139-.176a.23.23 0 0 1 .213.176l.267 1.26c.103.481.39.93.811 1.264.42.333.914.506 1.393.483.914-.04 1.492-.852 1.288-1.808l-.255-1.199c-.02-.097.041-.176.139-.176a.23.23 0 0 1 .212.176l.256 1.199c.247 1.16-.434 2.109-1.55 2.159l-.095.002" fill="#A4A4A4" mask="url(#sd5nhmbeob)"/>
            <path d="M136.107 317.342c.513 2.364-.987 4.289-3.351 4.3-2.365.01-4.698-1.897-5.212-4.261-.513-2.364.987-4.289 3.352-4.3 2.364-.01 4.697 1.897 5.21 4.261" fill="#FFF" mask="url(#sd5nhmbeob)"/>
            <path d="M130.2 316.521c.072.332-.138.604-.471.606-.333 0-.663-.268-.735-.6-.072-.334.14-.605.473-.606.333 0 .66.268.733.6M134.289 316.503c.072.332-.139.604-.473.605-.332.001-.66-.267-.733-.6-.072-.333.139-.604.471-.605a.786.786 0 0 1 .735.6M132.51 316.328a.785.785 0 0 1-.076.57.716.716 0 0 1-.635.341c-.286.002-.57-.129-.781-.335a1.142 1.142 0 0 1-.324-.568l1.816-.008z" fill="#A4A4A4" mask="url(#sd5nhmbeob)"/>
            <path d="M132.433 316.898c-.121.206-.348.34-.635.341-.284.003-.57-.129-.78-.334a.875.875 0 0 1 .651-.267c.273 0 .545.097.764.26" fill="#DADADA" mask="url(#sd5nhmbeob)"/>
            <path d="m34.053 209.486-.535.482-1.511-1.558-.554-.568a.767.767 0 0 0 .455-.565l.587.605 1.558 1.604z" fill="#A4A4A4" mask="url(#sd5nhmbeob)"/>
            <path d="M31.671 207.701a.758.758 0 0 1-.217.14c-.387.169-.912.047-1.281-.332-.448-.454-.5-1.108-.12-1.456.383-.35 1.054-.263 1.501.192.299.306.421.701.354 1.033a.773.773 0 0 1-.237.423m.348-1.881c-.747-.762-1.87-.905-2.507-.321-.639.583-.55 1.675.196 2.435.67.685 1.645.87 2.298.477a1.281 1.281 0 0 0 .49-.529c.3-.606.13-1.442-.477-2.062M40.909 208.31c.026-.044.088-.049.135-.013.271.187.705.405 1.11.4.27 0 .498-.08.641-.205a.459.459 0 0 0 .168-.462c-.037-.178-.15-.313-.344-.428-.193-.112-.46-.195-.775-.254h-.008c-.302-.053-.572-.132-.79-.261-.22-.126-.389-.312-.438-.544a.583.583 0 0 1 .202-.583c.165-.142.41-.226.704-.226.408 0 .758.2 1.038.36.05.03.075.09.056.138-.018.045-.077.057-.127.027-.28-.16-.584-.33-.926-.33-.254 0-.464.075-.597.187a.435.435 0 0 0-.153.427c.037.155.133.272.311.378.179.108.427.183.718.237h.008c.325.058.62.146.854.284.233.134.415.338.467.588a.63.63 0 0 1-.218.623c-.177.15-.438.245-.75.245-.476-.005-.942-.245-1.242-.45-.049-.035-.067-.099-.044-.138M43.9 207.634h1.651c-.156-.409-.568-.708-.968-.708-.41 0-.69.295-.682.708m-.19.173c-.13-.606.24-1.095.827-1.095.56 0 1.1.446 1.265 1.016l.001.005.004.012c.011.057-.029.098-.087.098h-1.79c.125.477.575.837 1.025.837.289 0 .523-.151.618-.397.02-.053.085-.061.135-.035.056.035.087.097.069.15-.124.3-.407.495-.777.495-.588 0-1.164-.49-1.29-1.086M48.195 207.803c-.104-.49-.557-.881-1.007-.881-.445 0-.735.39-.631.88.104.49.56.878 1.005.878.45 0 .737-.388.633-.877m.003-.983.419 1.966c.012.057-.025.107-.084.107a.14.14 0 0 1-.129-.107l-.07-.325a.79.79 0 0 1-.726.432c-.574 0-1.138-.495-1.265-1.09-.127-.597.226-1.09.8-1.09.335 0 .669.169.911.427l-.069-.32c-.013-.064.027-.107.085-.107.057 0 .116.043.128.107M49.128 206.824c-.014-.063.026-.107.088-.107.054 0 .112.044.126.107l.102.48c.005-.017.01-.035.02-.054.109-.258.34-.533.759-.533.057 0 .116.044.129.107.012.059-.027.108-.084.108-.285 0-.447.157-.557.355a1.537 1.537 0 0 0-.153.507c-.006.017-.003.027-.002.036l.203.957c.014.06-.026.106-.08.106a.14.14 0 0 1-.134-.106l-.417-1.963zM51.023 207.798c-.129-.605.268-1.085.891-1.085.258 0 .522.088.745.24.052.03.074.098.045.147-.027.04-.086.053-.143.017a1.08 1.08 0 0 0-.603-.196c-.507 0-.822.396-.72.877.103.49.587.881 1.095.881.21 0 .389-.07.52-.19.04-.037.106-.024.15.016.05.05.056.117.01.157a.93.93 0 0 1-.635.23c-.623 0-1.224-.48-1.355-1.094M55.278 207.572c-.082-.383-.449-.641-.832-.641-.379 0-.634.258-.552.64l.258 1.215.002.013c.003.01 0 .015 0 .02-.002.008 0 .012-.005.016a.075.075 0 0 1-.055.053s-.005.004-.01.004h-.021a.15.15 0 0 1-.093-.035l-.025-.034a.122.122 0 0 1-.011-.037l-.259-1.214-.008-.036-.351-1.652c-.013-.057.026-.106.084-.106.062 0 .122.05.134.106l.244 1.149a.715.715 0 0 1 .622-.32c.504 0 .989.356 1.095.859l.258 1.214c.013.057-.026.106-.088.106a.141.141 0 0 1-.129-.106l-.258-1.214zM57.634 207.798c-.129-.605.268-1.085.89-1.085.259 0 .523.088.746.24.052.03.074.098.045.147-.027.04-.086.053-.143.017a1.08 1.08 0 0 0-.603-.196c-.507 0-.822.396-.72.877.103.49.587.881 1.095.881.21 0 .39-.07.52-.19.04-.037.106-.024.15.016.05.05.056.117.012.157a.934.934 0 0 1-.637.23c-.622 0-1.224-.48-1.355-1.094M61.888 207.572c-.081-.383-.448-.641-.831-.641-.38 0-.634.258-.553.64l.259 1.215.002.013c.002.01-.001.015 0 .02-.002.008-.001.012-.006.016a.075.075 0 0 1-.055.053s-.004.004-.008.004h-.023a.15.15 0 0 1-.092-.035l-.025-.034a.122.122 0 0 1-.012-.037l-.258-1.214-.008-.036-.352-1.652c-.012-.057.027-.106.084-.106.063 0 .122.05.135.106l.244 1.149a.715.715 0 0 1 .622-.32c.503 0 .988.356 1.094.859l.259 1.214c.013.057-.026.106-.088.106a.141.141 0 0 1-.13-.106l-.258-1.214zM64.86 207.803c-.105-.49-.558-.881-1.007-.881-.445 0-.736.39-.632.88.104.49.56.878 1.006.878.45 0 .736-.388.632-.877m.005-.983.417 1.966c.013.057-.025.107-.083.107a.14.14 0 0 1-.13-.107l-.07-.325a.79.79 0 0 1-.725.432c-.575 0-1.139-.495-1.266-1.09-.127-.597.227-1.09.801-1.09.334 0 .668.169.91.427l-.068-.32c-.014-.064.026-.107.085-.107.057 0 .115.043.129.107M66.553 206.82a.089.089 0 0 1-.084.106h-.28l.338 1.588c.023.107.14.161.193.161.054 0 .125.058.136.112.012.053-.035.105-.089.105a.481.481 0 0 1-.463-.378l-.338-1.588h-.272c-.106 0-.118-.052-.129-.106-.011-.054-.022-.108.085-.108h.27l-.172-.81c-.01-.053.03-.106.085-.106.057 0 .127.053.138.106l.172.81h.28c.054 0 .119.054.13.108M22.284 214.277h78.796v-.285H22.284zM19.43 200.867h78.796v-.285H19.43z" fill="#A4A4A4" mask="url(#sd5nhmbeob)"/>
            <path d="M225.458 228.4h158.586v-66.21H225.458v66.21M384.044 181.718V162.19h20.358z" fill="#535353" mask="url(#sd5nhmbeob)"/>
            <path fill="#FFF" mask="url(#sd5nhmbeob)" d="M237.55 174.898h134.402v-1.258H237.55zM237.55 181.692h95.605v-1.258H237.55zM237.55 195.28h119.032v-1.258H237.55zM237.55 202.074h134.402v-1.258H237.55zM237.55 208.868h134.402v-1.258H237.55zM237.55 215.66h82.63v-1.257h-82.63z"/>
            <path fill="#80D363" mask="url(#sd5nhmbeob)" d="M203.773 96.022H362.36V40.161H203.773z"/>
            <path fill="#80D363" mask="url(#sd5nhmbeob)" d="M203.795 59.689V40.16h-20.357z"/>
            <path fill="#FFF" mask="url(#sd5nhmbeob)" d="M216.108 51.736h103.163v-1.258H216.108zM216.108 58.53H350.51v-1.258H216.108zM216.108 65.323H350.51v-1.258H216.108zM216.108 72.117h119.6V70.86h-119.6zM216.108 78.912H350.51v-1.258H216.108zM216.108 85.706h85.59v-1.258h-85.59z"/>
            <path fill="#80D363" mask="url(#sd5nhmbeob)" d="M203.773 146.493H362.36v-41.43H203.773z"/>
            <path fill="#80D363" mask="url(#sd5nhmbeob)" d="M203.795 124.59v-19.528h-20.357z"/>
            <path fill="#FFF" mask="url(#sd5nhmbeob)" d="M216.108 116.636h134.068v-1.257H216.108zM216.107 123.43h101.055v-1.257H216.107zM216.108 130.225h116.483v-1.258H216.108zM216.108 137.019h77.845v-1.258h-77.845z"/>
            <path fill="#80D363" mask="url(#sd5nhmbeob)" d="M203.773 279.49H362.36v-38.219H203.773zM203.773 260.799V241.27h-20.358z"/>
            <path fill="#FFF" mask="url(#sd5nhmbeob)" d="M216.107 252.845h124.008v-1.257H216.107zM216.108 259.64h91.9v-1.258h-91.9zM216.108 266.434h115.393v-1.258H216.108z"/>
            <path d="M410.733 163.79c0 20.205 16.4 36.586 36.63 36.586 20.23 0 36.63-16.38 36.63-36.586s-16.4-36.586-36.63-36.586c-20.23 0-36.63 16.38-36.63 36.586" fill="#A4A4A4" mask="url(#sd5nhmbeob)"/>
            <path d="M457.847 175.632c.005 0 .008-.01 0-.01" mask="url(#sd5nhmbeob)"/>
        </g>
        <g transform="translate(410 114)">
            <mask id="s9rj1opgqd" fill="#fff">
                <use xlink:href="#r5lbcgd6jc"/>
            </mask>
            <path d="m26.052 73.687 3.235 14.636 23.607-17.461 8.463 7.81s-18.96 22.136-34.339 22.136c-8.075 0-9.654-18.536-9.654-18.536l8.688-8.585z" fill="#80D363" mask="url(#s9rj1opgqd)"/>
        </g>
        <g transform="translate(410 114)">
            <mask id="gwutl0hx6f" fill="#fff">
                <use xlink:href="#otqny7p3ye"/>
            </mask>
            <path d="M29.754 90.336c5.934 1.846 16.926-6.663 21.533-13.858.313-.495-.099-5.953-.285-12.608-.098-4.04-.11-8.54.174-12.648.062-.843-26.17 4.475-26.17 4.475s1.935 8.785 1.396 15.943a9.272 9.272 0 0 1-.293 1.673c-.015.077-.043.169-.057.276-.743 3.167-2.032 14.96 3.702 16.747" fill="#FFC09D" mask="url(#gwutl0hx6f)"/>
        </g>
        <g transform="translate(410 114)">
            <mask id="8u8iifir0h" fill="#fff">
                <use xlink:href="#t8n9hkzvkg"/>
            </mask>
            <path d="M49.668 51.204c-1.791 7.155-7.43 23.447-20.98 22.808a16.215 16.215 0 0 1-2.631-.327c.014-.11.03-.203.046-.281a7.9 7.9 0 0 0 .297-1.669v-.093c.201-2.62.061-5.456-.188-7.997a76.644 76.644 0 0 0-1.2-7.858l.017-.015.17-.11c1.995-.405 19.204-3.865 24.47-4.458" fill="#D1967C" mask="url(#8u8iifir0h)"/>
        </g>
        <g transform="translate(410 114)">
            <mask id="xljqjx7m6j" fill="#fff">
                <use xlink:href="#as7eokeaji"/>
            </mask>
            <path d="M53.402 18.522c3.177 9.029-.527 35.66-6.777 41.828-9.06 8.943-24.453 10.417-32.185-.613-7.496-10.692-2.054-45.313 4.98-50.976C29.777.42 48.707 5.184 53.401 18.521" fill="#FFC09D" mask="url(#xljqjx7m6j)"/>
        </g>
        <g transform="translate(410 114)">
            <mask id="zdyogdapgl" fill="#fff">
                <use xlink:href="#98cyeborzk"/>
            </mask>
            <path d="M51.056 40.816c-6.233-.947-5.767-12.457-5.767-12.457s-10.446-3.343-10.808-11.64c0 0-11.122 4.987-18.683.9-7.561-4.085-4.545-12.88-3.373-14.684 1.171-1.804 5.068 2.446 5.068 2.446S18.757.338 20.201.02c1.445-.32 2.47 2.998 2.47 2.998s10.805-1.93 20.106-.28c9.3 1.653 12.53 11.762 12.53 11.762s4.838 1.802 5.937 5.544c1.101 3.74-6.216 21.375-10.188 20.772" fill="#263238" mask="url(#zdyogdapgl)"/>
        </g>
        <g transform="translate(410 114)">
            <mask id="71p5vytzan" fill="#fff">
                <use xlink:href="#yqwbj6t6wm"/>
            </mask>
            <path d="M46.944 61.296c.006.001.008-.009.001-.01" mask="url(#71p5vytzan)"/>
        </g>
        <g transform="translate(410 114)">
            <mask id="8e68bzfbvp" fill="#fff">
                <use xlink:href="#81fqh44tjo"/>
            </mask>
            <path d="M27.799 36.972c.023-.066.129.104.116.178-.297 1.786-.337 3.884 1.206 4.697.048.025.03.115-.03.1-1.942-.546-1.86-3.33-1.292-4.975" fill="#263238" mask="url(#8e68bzfbvp)"/>
        </g>
        <g transform="translate(410 114)">
            <mask id="jnhytejaur" fill="#fff">
                <use xlink:href="#jc4jutyw5q"/>
            </mask>
            <path d="M29.652 35.313c2.913.168 2.363 5.988-.336 5.833-2.658-.154-2.106-5.974.336-5.833" fill="#263238" mask="url(#jnhytejaur)"/>
        </g>
        <g transform="translate(410 114)">
            <mask id="l5un6b3npt" fill="#fff">
                <use xlink:href="#usjskg7ius"/>
            </mask>
            <path d="M17.344 36.279c-.007-.071-.15.071-.154.146-.113 1.807-.547 3.86-2.234 4.304-.052.014-.055.105.006.102 2.015-.091 2.564-2.822 2.382-4.552" fill="#263238" mask="url(#l5un6b3npt)"/>
        </g>
        <g transform="translate(410 114)">
            <mask id="3j018qff5v" fill="#fff">
                <use xlink:href="#jv5vxccnmu"/>
            </mask>
            <path d="M15.913 34.243c-2.876-.495-3.653 5.3-.989 5.758 2.623.452 3.4-5.344.99-5.758" fill="#263238" mask="url(#3j018qff5v)"/>
        </g>
        <g transform="translate(410 114)">
            <mask id="hch1kb9qdx" fill="#fff">
                <use xlink:href="#nh6k2dxdjw"/>
            </mask>
            <path d="M32.198 32.869c-.773-.275-1.44-.657-2.176-1.007-.832-.396-1.534-.625-2.025-1.452-.264-.443-.068-1.174.34-1.47.944-.692 2.082-.46 3.102-.024 1.107.473 1.838 1.12 2.398 2.184.541 1.031-.619 2.13-1.639 1.769" fill="#263238" mask="url(#hch1kb9qdx)"/>
        </g>
        <g transform="translate(410 114)">
            <mask id="d7fco588gz" fill="#fff">
                <use xlink:href="#j1qbmgcx3y"/>
            </mask>
            <path d="M13.942 31.1c.818-.056 1.564-.244 2.368-.382.907-.156 1.646-.187 2.34-.85.375-.356.383-1.112.071-1.508-.723-.92-1.881-1.005-2.98-.862-1.194.156-2.073.582-2.899 1.454-.8.847.021 2.22 1.1 2.147" fill="#263238" mask="url(#d7fco588gz)"/>
        </g>
        <g transform="translate(410 114)">
            <mask id="338xyk7dsB" fill="#fff">
                <use xlink:href="#xzqq7nrefA"/>
            </mask>
            <path d="M27.882 53.864c-.472.381-.958.922-1.616.915-.632-.007-1.34-.36-1.893-.638-.055-.026-.119.029-.088.086.403.737 1.346 1.263 2.195 1.195.828-.065 1.299-.732 1.567-1.46.037-.102-.097-.154-.165-.098" fill="#263238" mask="url(#338xyk7dsB)"/>
        </g>
        <g transform="translate(410 114)">
            <mask id="mrt3divwoD" fill="#fff">
                <use xlink:href="#iszcu9clrC"/>
            </mask>
            <path d="M26.509 48.393c-1.175 1.459-2.75 2.157-4.386 2.298a7.782 7.782 0 0 1-2.22-.133 2.17 2.17 0 0 1-.416-.094 4.711 4.711 0 0 1-.389-.102c-.207-.054-.304-.24-.319-.443l.002-.013a.86.86 0 0 1 .037-.183l.001-.014.02-.157c.11-1.393.469-3.492.469-3.492-.535.201-3.244 1.09-3.126.369.996-5.97 2.103-12.61 4.353-18.34.065-.194.363-.116.325.08-.73 5.776-2.47 11.385-3.296 17.175.858-.226 2.266-.664 2.99-.573.192.078-.765 4.044-.764 4.674 0 0-.004.026.004.067 2.3.546 4.134.028 6.563-1.3.146-.088.275.049.152.18" fill="#263238" mask="url(#mrt3divwoD)"/>
        </g>
        <g transform="translate(410 114)">
            <mask id="3fra4i9wyF" fill="#fff">
                <use xlink:href="#nev04w32vE"/>
            </mask>
            <path d="M20.814 50.166s1.132 1.744 2.787 2.45c.61.263 1.275.392 1.99.247 1.469-.29 1.586-1.616 1.39-2.768-.158-.947-.541-1.779-.541-1.779s-2.23 1.848-5.626 1.85" fill="#263238" mask="url(#3fra4i9wyF)"/>
        </g>
        <g transform="translate(410 114)">
            <mask id="tnhe1v5lzH" fill="#fff">
                <use xlink:href="#mx3houn4xG"/>
            </mask>
            <path d="M23.602 52.616c.608.263 1.275.392 1.99.248 1.467-.292 1.584-1.618 1.39-2.77-1.56.065-3.157 1.024-3.38 2.522" fill="#E697B6" mask="url(#tnhe1v5lzH)"/>
        </g>
        <g transform="translate(410 114)">
            <mask id="ocmnoo1kpJ" fill="#fff">
                <use xlink:href="#1lgihh7q9I"/>
            </mask>
            <path d="M48.674 40.298s5.782-8.684 9.706-6.64c3.924 2.046-.29 14.542-4.804 16.34-4.513 1.798-6.256-2.352-6.256-2.352l1.354-7.348z" fill="#FFC09D" mask="url(#ocmnoo1kpJ)"/>
        </g>
        <g transform="translate(410 114)">
            <mask id="69f08zksqL" fill="#fff">
                <use xlink:href="#92b5yfn5zK"/>
            </mask>
            <path d="M57.083 37.308c.073-.008.089.093.026.12-3.16 1.367-4.776 4.366-5.883 7.463.923-1.203 2.2-1.88 3.808-.785.085.058.007.19-.083.173-1.313-.25-2.252-.003-3.111 1.065-.608.756-1.015 1.704-1.444 2.57-.142.29-.66.148-.56-.183l.025-.075c-.172-4.07 2.863-9.84 7.222-10.348" fill="#263238" mask="url(#69f08zksqL)"/>
        </g>
        <g transform="translate(410 114)">
            <mask id="7bc7jif8fN" fill="#fff">
                <use xlink:href="#35lfjhfaiM"/>
            </mask>
            <path d="m26.355 71.837 3.163 15.142 21.78-19.464 5.421 6.115s-21.238 30.79-21.37 29.41L28.936 90l-8.938 9.226 3.587-22.91 2.77-4.48z" fill="#FFF" mask="url(#7bc7jif8fN)"/>
        </g>
        <g transform="translate(410 114)">
            <mask id="1gn4t5ufyP" fill="#fff">
                <use xlink:href="#g90rem9n8O"/>
            </mask>
            <path d="M23.391 76.53c.035-.13.263-.2.257-.04-.195 4.675-3.178 18.091-3.12 21.553.012-.014.027-.027.038-.041.373-.398 8.288-8.123 8.37-8.002 1.381 2.066 6.088 11.562 6.411 12.426 3.011-4.436 16.976-22.676 20.381-27.309.097-.132.303-.026.228.129-2.522 5.16-20.181 29.107-20.41 29.043-.154.122-6-11.574-6.708-13.788-1.335 1.679-9.315 10.384-9.349 9.823-.229-3.788 2.625-19.103 3.902-23.795" fill="#263238" mask="url(#1gn4t5ufyP)"/>
        </g>
        <g>
            <path d="M178 236c0 20.435-16.565 37-37 37s-37-16.565-37-37 16.565-37 37-37 37 16.565 37 37" fill="#A4A4A4"/>
            <path d="M130.41 247.976c-.007 0-.008-.01-.001-.01"/>
        </g>
        <g>
            <g transform="translate(104 190)">
                <mask id="coyjoij3lR" fill="#fff">
                    <use xlink:href="#yoluu40roQ"/>
                </mask>
                <path d="m47.59 71.4-3.281 14.98-22.368-15.523-5.553 8.284S31.02 99.157 46.61 99.157c8.186 0 9.787-18.97 9.787-18.97l-8.807-8.786z" fill="#000" mask="url(#coyjoij3lR)"/>
            </g>
            <g transform="translate(104 190)">
                <mask id="r8xu9ln0oT" fill="#fff">
                    <use xlink:href="#ecb82buwjS"/>
                </mask>
                <path d="M43.836 88.44c-6.015 1.89-17.157-6.82-21.828-14.182-.317-.507.1-6.093.289-12.905.098-4.135.112-8.74-.176-12.943-.064-.863 2.952.518 2.952.518l5.473.938 18.103 3.122s-1.961 8.991-1.414 16.317a9.54 9.54 0 0 0 .297 1.713c.014.078.044.173.057.283.753 3.24 2.06 15.31-3.753 17.14" fill="#D69381" mask="url(#r8xu9ln0oT)"/>
            </g>
            <g transform="translate(104 190)">
                <mask id="4d83c9bkmV" fill="#fff">
                    <use xlink:href="#9ndmqyefgU"/>
                </mask>
                <path d="M47.532 71.118c.014.078.043.173.058.283a16.32 16.32 0 0 1-2.672.33c-17.594.835-21.335-21.584-21.335-21.584l6.963-.182 18.102 3.124s-1.96 8.99-1.413 16.316c.052.612.15 1.178.297 1.713" fill="#263238" mask="url(#4d83c9bkmV)"/>
            </g>
            <g transform="translate(104 190)">
                <mask id="oomkzvqw5X" fill="#fff">
                    <use xlink:href="#w0h6jw9tbW"/>
                </mask>
                <path d="M19.864 14.94c-3.22 9.241.534 36.498 6.87 42.811 9.184 9.153 24.788 10.66 32.627-.628 7.598-10.942 2.083-46.377-5.047-52.172-10.502-8.538-29.692-3.66-34.45 9.99" fill="#D69381" mask="url(#oomkzvqw5X)"/>
            </g>
            <g transform="translate(104 190)">
                <mask id="ri068ulvnZ" fill="#fff">
                    <use xlink:href="#t60lcaijjY"/>
                </mask>
                <path d="M26.41 58.719c-.006 0-.007-.01 0-.01" mask="url(#ri068ulvnZ)"/>
            </g>
            <g transform="translate(104 190)">
                <mask id="2x4jg54dgab" fill="#fff">
                    <use xlink:href="#8ueg9740zaa"/>
                </mask>
                <path d="M45.818 33.824c-.023-.068-.13.106-.118.181.302 1.83.342 3.976-1.222 4.808-.047.027-.03.118.03.101 1.969-.558 1.886-3.406 1.31-5.09" fill="#263238" mask="url(#2x4jg54dgab)"/>
            </g>
            <g transform="translate(104 190)">
                <mask id="1kufj0g2iad" fill="#fff">
                    <use xlink:href="#72m2le7g8ac"/>
                </mask>
                <path d="M43.94 32.126c-2.953.172-2.395 6.129.34 5.969 2.694-.157 2.136-6.114-.34-5.97" fill="#263238" mask="url(#1kufj0g2iad)"/>
            </g>
            <g transform="translate(104 190)">
                <mask id="kq0w3iqtvaf" fill="#fff">
                    <use xlink:href="#lcdupfgw6ae"/>
                </mask>
                <path d="M56.417 33.114c.007-.072.151.073.156.15.115 1.85.555 3.95 2.264 4.404.053.014.057.108-.006.105-2.042-.094-2.599-2.887-2.414-4.66" fill="#263238" mask="url(#kq0w3iqtvaf)"/>
            </g>
            <g transform="translate(104 190)">
                <mask id="e3v7jmrsyah" fill="#fff">
                    <use xlink:href="#4ghsmbwszag"/>
                </mask>
                <path d="M57.867 31.03c2.916-.506 3.703 5.425 1.002 5.893-2.659.463-3.446-5.468-1.002-5.893" fill="#263238" mask="url(#e3v7jmrsyah)"/>
            </g>
            <g transform="translate(104 190)">
                <mask id="la1bczgm7aj" fill="#fff">
                    <use xlink:href="#xl90wuui6ai"/>
                </mask>
                <path d="M41.359 29.624c.783-.28 1.46-.672 2.206-1.03.843-.405 1.556-.64 2.053-1.486.267-.453.068-1.203-.344-1.506-.958-.707-2.112-.47-3.145-.024-1.122.484-1.865 1.147-2.43 2.236-.55 1.055.627 2.181 1.66 1.81" fill="#263238" mask="url(#la1bczgm7aj)"/>
            </g>
            <g transform="translate(104 190)">
                <mask id="xnxc56cjlal" fill="#fff">
                    <use xlink:href="#c9ydgcyllak"/>
                </mask>
                <path d="M59.866 27.813c-.83-.056-1.586-.248-2.4-.39-.92-.16-1.669-.192-2.373-.87-.38-.364-.387-1.139-.073-1.544.734-.942 1.908-1.028 3.022-.88 1.21.159 2.102.594 2.939 1.487.81.867-.02 2.271-1.115 2.197" fill="#263238" mask="url(#xnxc56cjlal)"/>
            </g>
            <g transform="translate(104 190)">
                <mask id="9t26f416zan" fill="#fff">
                    <use xlink:href="#49xabqf1bam"/>
                </mask>
                <path d="M45.735 51.112c.478.39.97.944 1.637.937.64-.007 1.36-.369 1.92-.652.055-.029.12.028.088.087-.408.753-1.364 1.292-2.224 1.223-.84-.066-1.317-.75-1.59-1.495-.037-.104.1-.156.169-.1" fill="#263238" mask="url(#9t26f416zan)"/>
            </g>
            <g transform="translate(104 190)">
                <mask id="5r8h6q92nap" fill="#fff">
                    <use xlink:href="#8rf2qhs40ao"/>
                </mask>
                <path d="M46.85 46.204c1.865 1.518 8.088 1.517 8.105 1.31l-.506-4.41c.538.212 3.269 1.151 3.158.414-.938-6.111-1.983-12.906-4.194-18.786-.064-.197-.366-.121-.33.08.673 5.908 2.37 11.657 3.138 17.58-.866-.24-2.285-.704-3.02-.619-.193.078.73 4.14.722 4.783 0 0-3.037.269-6.695-.909-.719-.231-.872.155-.378.557" fill="#263238" mask="url(#5r8h6q92nap)"/>
            </g>
            <g transform="translate(104 190)">
                <mask id="7fhgs9jchar" fill="#fff">
                    <use xlink:href="#w6dh0n8mvaq"/>
                </mask>
                <path d="M23.14 36.95c2.319-.588 4.477-8.22 4.56-15.624.051-4.765 1.93-10.775 7.185-12.572 3.495-1.195 9.58 1.719 13.057.86 3.477-.86 4.121-2.864 6.182-2.812 1.93.05 4.338 5.162 4.338 5.162S54.8-4.164 34.266 1.024C12.632 6.49 16.988 25.21 19.065 31.214c1.603 4.636 4.075 5.735 4.075 5.735" fill="#263238" mask="url(#7fhgs9jchar)"/>
            </g>
            <g transform="translate(104 190)">
                <mask id="7am3wifwdat" fill="#fff">
                    <use xlink:href="#1wje5ougaas"/>
                </mask>
                <path d="M24.657 37.228s-5.861-8.889-9.84-6.796c-3.978 2.093.295 14.883 4.87 16.723 4.575 1.84 6.343-2.406 6.343-2.406l-1.373-7.52z" fill="#D69381" mask="url(#7am3wifwdat)"/>
            </g>
            <g transform="translate(104 190)">
                <mask id="lavbc3nwyav" fill="#fff">
                    <use xlink:href="#9k1epua8bau"/>
                </mask>
                <path d="M16.132 34.167c-.073-.008-.09.097-.027.124 3.206 1.398 4.842 4.468 5.965 7.638-.936-1.232-2.231-1.924-3.86-.803-.086.059-.008.194.083.177 1.332-.257 2.283-.004 3.155 1.089.616.773 1.029 1.744 1.462 2.631.146.295.671.15.568-.188l-.024-.077c.174-4.166-2.902-10.07-7.322-10.59" fill="#263238" mask="url(#lavbc3nwyav)"/>
            </g>
        </g>
        <g>
            <path d="M174.136 47.704c0 21.275-17.492 38.522-39.068 38.522C113.492 86.226 96 68.979 96 47.704c0-21.274 17.492-38.521 39.068-38.521 21.576 0 39.068 17.247 39.068 38.521" fill="#A4A4A4"/>
            <path d="M175.972 77.04h-3.326c-.345-4.2-3.041-10.616-2.352-7.377.528 2.44.507 5.557.427 7.377h-56.403c-.65-6.318 2.205-16.694 2.205-16.694-3.263 5.218-4.521 12.615-4.987 16.694h-5.328c-.55-3.778.807-10.217.807-10.217-1.46 2.54-2.332 7.298-2.738 10.217h-6.062c-.223-6.318 1.946-14.615 7.056-22.132 4.096-6.037-.973-9.556-.872-21.312.102-15.633 10.989-21.63 12.794-23.27 24.615-22.49 46.958-1.62 49.351 13.235 2.311 14.535-1.926 16.453 4.926 29.648 5.17 9.917 4.502 23.83 4.502 23.83" fill="#263238"/>
            <path d="M109.63 85.2c.05.045.11.068.159.114 8.188 5.493 24.355 15.168 32.996 12.097 6.653-2.364 10.545-9.111 10.994-11.257-3.49-3.077-8.464-5.873-10.68-7.329-12.761-8.357-24.262-3.343-33.468 6.375" fill="#455A64"/>
            <path d="M121.956 80.433c.576 1.863 10.568 13.542 19.312 12.559 2.847-.326 1.74-15.728 1.74-15.728l.184-1.156 2.534-16.174-19.8-10.761-2.852-1.41s-.396 4.471-.834 10.042c-.022.26-.044.517-.064.793-.033.315-.068.612-.085.906a97.65 97.65 0 0 0-.208 2.53c-.045.644-.092 1.27-.115 1.949-.04.68-.065 1.341-.106 2.023-.251 6.717.061 13.635.294 14.427" fill="#9A635A"/>
            <path d="M122.239 57.806c5.49 12.378 16.115 16.872 20.952 18.303l2.534-16.176-19.8-10.76-2.85-1.41s-.398 4.472-.836 10.043" fill="#263238"/>
            <path d="M166.005 33.014c4.572 28.369-12.144 34.272-18.35 35.237-5.632.876-24.925 3.154-32.445-24.597-7.52-27.75 4.412-38.814 17.187-41.49 12.776-2.676 29.037 2.482 33.608 30.85" fill="#9A635A"/>
            <g transform="translate(108.269)">
                <mask id="twpe40v1hax" fill="#fff">
                    <use xlink:href="#1xw5qg9kdaw"/>
                </mask>
                <path d="M9.294 45.646c7.209-.843 7.465-22.924 7.465-25.635.09 1.708.597 10.75 1.325 11.051.186.07.98-.162 2.233-.608l.019-.003a21.035 21.035 0 0 1-.01-3.249c.017-.505.283 1.07.723 2.996.4-.144.833-.314 1.304-.476-.218-1.938-.3-4.352.112-6.913.14-.868.694 2.946 1.803 6.228C29.143 27.3 36.2 24.97 42.916 24.199a56.142 56.142 0 0 1 4.737-.367c-.215-2.664-.764-5.476-.514-4.881.744 1.691 1.23 3.403 1.543 4.856.75-.018 1.445-.025 2.07-.015-.132-3.777-2.45-9.63-1.762-8.763 2.636 3.37 3.923 7.02 4.462 8.96 2.644.285 3.405.728 3.421.056.024-1.212-2.35-11.614-11.312-18.65-9.742-7.65-27.942-8.285-37.016 5.47 0 0-7.914 6.07-8.502 14.854-.592 8.767 5.086 20.408 9.251 19.927" fill="#263238" mask="url(#twpe40v1hax)"/>
            </g>
            <path d="M153.993 49.539s-.982 2.058-2.694 3.07c-.63.375-1.343.615-2.15.566-1.66-.097-1.989-1.514-1.948-2.792.03-1.049.326-2.006.326-2.006s2.732 1.668 6.466 1.162" fill="#FFF"/>
            <path d="M160.002 29.528c-.688-.019-1.32-.15-1.997-.237-.766-.1-1.386-.101-1.99-.627-.326-.28-.357-.906-.11-1.242.576-.784 1.545-.891 2.472-.808 1.005.09 1.757.412 2.477 1.107.698.673.055 1.832-.852 1.807M141.316 31.878c.674-.138 1.272-.374 1.925-.578.735-.23 1.345-.337 1.849-.958.268-.333.19-.955-.113-1.242-.707-.673-1.679-.613-2.577-.372-.974.261-1.656.708-2.243 1.516-.568.782.27 1.814 1.159 1.634M145.824 38.762c-.023-.073-.143.11-.132.189.282 1.936.275 4.201-1.436 5.042-.053.026-.035.124.03.107 2.141-.541 2.12-3.548 1.538-5.338" fill="#263238"/>
            <path d="M143.835 36.925c-3.198.112-2.737 6.41.226 6.306 2.914-.102 2.454-6.399-.226-6.306" fill="#263238"/>
            <path d="M142.605 37.348c-.531.395-1.032 1.064-1.7 1.176-.773.132-1.408-.485-1.964-1.083-.057-.063-.108-.004-.103.08.07 1.208.631 2.411 1.956 2.499 1.21.078 1.99-1.05 2.206-2.286.04-.228-.18-.546-.395-.386M156.811 36.992c.01-.075.16.083.164.163.065 1.956.473 4.185 2.306 4.72.056.015.057.114-.01.11-2.205-.165-2.717-3.13-2.46-4.993" fill="#263238"/>
            <path d="M158.446 34.842c3.168-.44 3.829 5.84.893 6.248-2.888.401-3.549-5.879-.893-6.248" fill="#263238"/>
            <path d="M159.817 35.12c.539.281 1.1.835 1.705.812.701-.026 1.146-.758 1.522-1.455.04-.072.096-.024.106.058.16 1.198-.112 2.488-1.256 2.838-1.045.32-1.937-.63-2.352-1.796-.078-.216.059-.572.275-.458M146.55 53.658c.488.446.978 1.063 1.7 1.104.691.039 1.491-.289 2.117-.547.063-.026.127.038.09.097-.495.764-1.565 1.263-2.49 1.129-.901-.132-1.366-.886-1.605-1.69-.034-.112.117-.157.188-.093M154.215 45.93s.654 2.877.773 4.25c.01.128-.322.217-.792.284-.023.01-.035.018-.055.006-2.426.582-4.974-.05-6.636-1.905-.108-.128.057-.283.19-.208 1.95 1.177 4.008 1.352 6.191 1.207.066-.388-1.29-4.89-1.071-4.924.756-.128 2.3.259 3.223.444-1.19-6.032-3.35-11.827-4.444-17.852-.034-.215.276-.306.356-.118 2.701 5.915 4.224 12.828 5.615 19.026.18.772-2.773-.023-3.35-.21" fill="#263238"/>
            <path d="M142.616 32.543a7.537 7.537 0 0 0-1.855.218c-4.024.982-6.485 5.01-5.49 8.977.997 3.966 5.083 6.399 9.103 5.413 4.025-.984 6.487-5.01 5.491-8.978-.843-3.355-3.894-5.609-7.249-5.63m-.105 15.97c-3.87-.025-7.394-2.627-8.367-6.5-1.15-4.58 1.693-9.228 6.337-10.363 4.646-1.134 9.359 1.668 10.51 6.247v.002c1.15 4.578-1.692 9.226-6.337 10.362a8.787 8.787 0 0 1-2.143.252M161.517 30.323a3.814 3.814 0 0 0-.44.023c-1.371.15-2.59 1.035-3.432 2.49-.874 1.516-1.233 3.452-1.009 5.452.458 4.063 3.183 7.114 6.097 6.792 2.905-.318 4.896-3.88 4.44-7.943-.225-2-1.004-3.813-2.195-5.103-1.022-1.107-2.236-1.703-3.461-1.71m.777 15.922c-3.32-.021-6.31-3.394-6.81-7.83-.252-2.24.157-4.423 1.154-6.145 1.029-1.784 2.56-2.87 4.31-3.063 1.758-.195 3.487.54 4.889 2.057 1.354 1.467 2.238 3.507 2.489 5.746.526 4.689-1.924 8.818-5.464 9.207-.19.02-.379.03-.568.028" fill="#80D363"/>
            <path d="m150.813 38.914-.84-.79c1.187-1.226 4.048-3.013 6.403-1.022l-.755.869c-2.107-1.788-4.699.832-4.808.943M112.629 45.304l-1.083-.41c.195-.498 1.968-4.885 4.496-5.58 14.004-3.798 2.211-.66 18.646-.913l.018 1.144c-4.477.07-16.526.37-18.351.872-1.67.458-3.255 3.683-3.726 4.887" fill="#80D363"/>
            <path d="M120.133 45.117s-6.987-8.5-10.942-5.98c-3.955 2.519 1.75 15.149 6.71 16.583 4.96 1.433 6.396-3.067 6.396-3.067l-2.164-7.536z" fill="#9A635A"/>
            <path d="M110.918 42.717c-.079 0-.086.107-.017.13 3.485 1.115 5.492 4.087 6.974 7.211-1.098-1.165-2.518-1.746-4.112-.445-.083.068.01.197.105.171 1.366-.39 2.385-.223 3.4.807.721.73 1.245 1.68 1.786 2.54.18.288.715.09.575-.245-.01-.025-.023-.05-.033-.076-.223-4.265-4.01-9.99-8.678-10.093" fill="#263238"/>
        </g>
        <g>
            <g transform="translate(96)">
                <mask id="dmhrvylhkaz" fill="#fff">
                    <use xlink:href="#6akx6wv1iay"/>
                </mask>
                <path d="M57.783 86.933c-.45 2.156-4.351 8.974-11.003 11.346-8.636 3.103-24.807-6.652-32.993-12.193-.05-.049-.1-.082-.15-.115 1.618-1.725 3.302-3.301 5.051-4.677a38.338 38.338 0 0 0 10.937 4.56A39.29 39.29 0 0 0 39.062 87c2.783 0 5.517-.298 8.135-.862a36.921 36.921 0 0 0 6.852-2.107c1.3.912 2.6 1.891 3.734 2.903" fill="#455A64" mask="url(#dmhrvylhkaz)"/>
            </g>
            <g transform="translate(96)">
                <mask id="u1ql92x12aB" fill="#fff">
                    <use xlink:href="#jy877ebrpaA"/>
                </mask>
                <path d="M47.197 86.137c-.083 3.798-.55 7.53-1.934 7.68-5.652.647-11.82-4.048-15.638-7.962a39.29 39.29 0 0 0 9.436 1.144c2.784 0 5.518-.298 8.136-.862" fill="#C46A58" mask="url(#u1ql92x12aB)"/>
            </g>
        </g>
    </g>
</svg>
