<svg width="24" height="24" viewBox="0 0 24 24" fill="none" xmlns="http://www.w3.org/2000/svg">
<path fill-rule="evenodd" clip-rule="evenodd" d="M12 24C18.6276 24 24 18.6276 24 12C24 5.3724 18.6276 0 12 0C5.3724 0 0 5.3724 0 12C0 18.6276 5.3724 24 12 24ZM16.2432 7.7568C16.4685 7.53179 16.774 7.40551 17.0924 7.40573C17.4109 7.40596 17.7162 7.53267 17.9412 7.758C18.1662 7.98333 18.2925 8.28881 18.2923 8.60725C18.292 8.92569 18.1653 9.23099 17.94 9.456L11.1564 16.2396L11.1516 16.2444C11.0404 16.3562 10.9082 16.445 10.7626 16.5055C10.617 16.5661 10.4609 16.5972 10.3032 16.5972C10.1455 16.5972 9.98938 16.5661 9.84378 16.5055C9.69818 16.445 9.56598 16.3562 9.4548 16.2444L9.45 16.2396L6.06 12.8496C5.94539 12.7389 5.85397 12.6065 5.79108 12.4601C5.72819 12.3137 5.69508 12.1562 5.6937 11.9969C5.69232 11.8375 5.72268 11.6795 5.78301 11.5321C5.84335 11.3846 5.93245 11.2506 6.04513 11.1379C6.1578 11.0253 6.29178 10.9362 6.43926 10.8758C6.58673 10.8155 6.74475 10.7851 6.90408 10.7865C7.06342 10.7879 7.22088 10.821 7.36729 10.8839C7.51369 10.9468 7.6461 11.0382 7.7568 11.1528L10.3032 13.698L16.2432 7.758V7.7568Z" fill="#3BD55A"/>
</svg>
