<?xml version="1.0" encoding="UTF-8"?>
<svg width="13px" height="10px" viewBox="0 0 13 10" version="1.1" xmlns="http://www.w3.org/2000/svg" xmlns:xlink="http://www.w3.org/1999/xlink">
    <title>Path</title>
    <g id="Find-CV" stroke="none" stroke-width="1" fill="none" fill-rule="evenodd">
        <g id="Driving+Military-CV-Search" transform="translate(-756.000000, -626.000000)" fill="#3BD55A" fill-rule="nonzero">
            <g id="Group-25" transform="translate(744.000000, 616.000000)">
                <path d="M22.6600495,10.3664667 L15.8577835,16.9814253 L14.197064,15.3645465 C13.6944552,14.8759622 12.8795654,14.8759622 12.3769566,15.3645465 C11.8743478,15.8531308 11.8743478,16.6452824 12.3769566,17.1338667 L14.9477298,19.6329066 C15.1888793,19.8679205 15.5163147,20 15.8577835,20 C16.1992523,20 16.5266877,19.8679205 16.7678372,19.6329066 L24.4801569,12.135787 C24.8052878,11.8197284 24.9322659,11.3590629 24.8132597,10.9273188 C24.6942536,10.4955747 24.347343,10.1583441 23.903206,10.0426586 C23.4590689,9.92697315 22.9851803,10.0504081 22.6600495,10.3664667 L22.6600495,10.3664667 Z" id="Path"></path>
            </g>
        </g>
    </g>
</svg>