<svg width="534" height="342" xmlns="http://www.w3.org/2000/svg" xmlns:xlink="http://www.w3.org/1999/xlink">
    <defs>
        <path id="a" d="M0 342h534V0H0z"/>
    </defs>
    <g fill="none" fill-rule="evenodd">
        <path d="M0 186h141s-9.196-14.955-34.461-9.569c0 0-4.759-20.431-29.64-20.431-21.564 0-27.642 20.431-27.642 20.431s-15.676-11.169-28.293 5.031c0 0-17.886-5.282-20.964 4.538M377 57h141s-9.196-14.955-34.461-9.569c0 0-4.759-20.431-29.638-20.431-21.566 0-27.643 20.431-27.643 20.431s-15.677-11.169-28.294 5.031c0 0-17.886-5.282-20.964 4.538M117.997 105.454c-10.748 0-19.455-8.707-19.455-19.455 0-10.749 8.707-19.455 19.455-19.455 10.747 0 19.455 8.706 19.455 19.455 0 10.748-8.708 19.455-19.455 19.455zm32.56-26.808a32.698 32.698 0 0 0-5.517-12.217l4.654-6.72-2.82-2.819-1.178-1.177-2.819-2.82-7.067 4.893a31.716 31.716 0 0 0-12.508-4.71c-.004-.001-.01-.001-.014-.003L121.82 45h-9.64l-1.541 8.487a31.704 31.704 0 0 0-12.187 5.484l-.004.001-6.739-4.664-2.819 2.819-1.178 1.177-2.82 2.819 4.891 7.063a31.946 31.946 0 0 0-4.705 12.525L77 82.18v9.64l8.437 1.533a32.676 32.676 0 0 0 5.52 12.222l-4.65 6.715 2.82 2.82 1.177 1.178 2.819 2.819 7.065-4.892a31.717 31.717 0 0 0 12.504 4.708c.006.002.014.002.021.003L114.18 127h9.64l1.543-8.49a31.713 31.713 0 0 0 12.185-5.487l6.743 4.67 2.82-2.821 1.177-1.177 2.82-2.82-4.896-7.068a31.733 31.733 0 0 0 4.709-12.503l.003-.017L159 89.82v-9.641l-8.443-1.533zM482.998 187.71c-8.127 0-14.71-6.584-14.71-14.71 0-8.127 6.583-14.711 14.71-14.711 8.126 0 14.71 6.584 14.71 14.71 0 8.127-6.584 14.71-14.71 14.71zm24.618-20.27a24.706 24.706 0 0 0-4.171-9.236l3.518-5.083-2.132-2.132-.89-.89-2.131-2.131-5.344 3.699a23.978 23.978 0 0 0-9.456-3.56c-.005-.002-.008-.002-.011-.002l-1.11-6.105H478.6l-1.166 6.416a23.978 23.978 0 0 0-9.214 4.147l-.004.002-5.093-3.528-2.134 2.132-.89.89-2.131 2.131 3.697 5.34a24.152 24.152 0 0 0-3.557 9.471l-6.108 1.11v7.289l6.38 1.16a24.676 24.676 0 0 0 4.174 9.24l-3.517 5.077 2.132 2.134.89.89 2.133 2.131 5.34-3.699a23.997 23.997 0 0 0 9.454 3.56c.006 0 .01 0 .017.002L480.11 204H487.401l1.165-6.419a23.955 23.955 0 0 0 9.21-4.146l.004-.003 5.099 3.531 2.132-2.132.89-.89 2.131-2.133-3.7-5.344a23.997 23.997 0 0 0 3.56-9.453c0-.004 0-.01.002-.012l6.106-1.11V168.599l-6.384-1.159zM169.498 60.702A10.2 10.2 0 0 1 159.297 50.5a10.2 10.2 0 0 1 10.201-10.202A10.2 10.2 0 0 1 179.7 50.5a10.2 10.2 0 0 1-10.202 10.202zm17.074-14.059a17.111 17.111 0 0 0-2.892-6.405l2.44-3.524-1.479-1.479-.618-.618-1.478-1.478-3.706 2.565a16.625 16.625 0 0 0-6.558-2.47h-.008l-.77-4.234h-5.055l-.808 4.45a16.61 16.61 0 0 0-6.391 2.877h-.002l-3.533-2.447-1.479 1.479-.618.618-1.478 1.478 2.565 3.704a16.72 16.72 0 0 0-2.468 6.568l-4.236.77v5.055l4.425.803a17.135 17.135 0 0 0 2.894 6.41l-2.439 3.521 1.479 1.479.618.618 1.478 1.478 3.704-2.565a16.636 16.636 0 0 0 6.557 2.47h.011l.77 4.234h5.055l.81-4.451a16.62 16.62 0 0 0 6.386-2.876l.003-.001 3.535 2.448 1.479-1.479.618-.618 1.478-1.478-2.567-3.707a16.62 16.62 0 0 0 2.47-6.556l.001-.009 4.235-.77v-5.055l-4.428-.805z" fill="#CFCFCF"/>
        <mask id="b" fill="#fff">
            <use xlink:href="#a"/>
        </mask>
        <path fill="#5C5C5C" mask="url(#b)" d="M275 322h41v-38h-41z"/>
        <path d="M328.636 320h-67.272c-1.85 0-3.364 1.575-3.364 3.5s1.513 3.5 3.364 3.5h67.272c1.85 0 3.364-1.575 3.364-3.5s-1.515-3.5-3.364-3.5M461.846 308H128.154a6.16 6.16 0 0 1-6.154-6.164V92.164A6.159 6.159 0 0 1 128.154 86h333.692c3.4 0 6.154 2.759 6.154 6.164v209.672a6.159 6.159 0 0 1-6.154 6.164" fill="#5C5C5C" mask="url(#b)"/>
        <path d="M131.454 302a1.457 1.457 0 0 1-1.454-1.459V94.46c0-.805.652-1.459 1.454-1.459h328.092c.8 0 1.454.654 1.454 1.459V300.54c0 .805-.653 1.459-1.454 1.459H131.454z" fill="#CFCFCF" mask="url(#b)"/>
        <path fill="#FFF" mask="url(#b)" d="M156 194h72v-72h-72zM239 194h190v-72H239zM239 211h190v-10H239zM239 228h190v-10H239zM156 211h72v-10h-72zM156 228h72v-10h-72z"/>
        <path fill="#3BD55A" mask="url(#b)" d="M122 272h346v-25H122z"/>
        <path fill="#000" mask="url(#b)" d="m148 247-15.545 25H122v-.255L137.382 247zM172 247l-15.462 25H146l15.462-25zM196 247l-15.448 25H170l15.448-25zM220 247l-15.448 25H194l15.448-25zM244 247l-15.448 25H218l15.448-25zM268 247l-15.448 25H242l15.448-25zM292 247l-15.448 25H266l15.448-25zM316 247l-15.462 25H290l15.462-25zM340 247l-15.462 25H314l15.462-25zM364 247l-15.448 25H338l15.448-25zM388 247l-15.448 25H362l15.448-25zM412 247l-15.448 25H386l15.448-25zM436 247l-15.448 25H410l15.448-25zM460 247l-15.448 25H434l15.448-25zM468 256v16h-10z"/>
        <path fill="#CFCFCF" mask="url(#b)" d="M332 188.878 203.52 210 197 170.122 325.48 149z"/>
        <path d="M199.032 168.984C197.393 169.706 258.67 145 258.67 145L325 148.548" stroke="#CFCFCF" mask="url(#b)"/>
        <path fill="#CFCFCF" mask="url(#b)" d="M35 343h499v-16H35zM39.007 206.002c-1.705-.505-24.975 102.567 63.477 115.998 0 0 26.015-89.507-63.477-115.998"/>
        <g mask="url(#b)">
            <path fill="#FFF" d="m58 240 43 80"/>
            <path stroke="#FFF" stroke-width="2" stroke-linecap="round" d="m58 240 43 80"/>
        </g>
        <g mask="url(#b)">
            <path fill="#FFF" d="m56 265 20 9"/>
            <path stroke="#FFF" stroke-width="2" stroke-linecap="round" d="m56 265 20 9"/>
        </g>
        <g mask="url(#b)">
            <path fill="#FFF" d="m93 268-6 27"/>
            <path stroke="#FFF" stroke-width="2" stroke-linecap="round" d="m93 268-6 27"/>
        </g>
        <path fill="#5C5C5C" mask="url(#b)" d="M391 86h38V15h-38z"/>
        <path fill="#5C5C5C" mask="url(#b)" d="M369 66h66V0h-66zM247 118.5c0-6.352 5.15-11.5 11.5-11.5s11.5 5.148 11.5 11.5-5.15 11.5-11.5 11.5-11.5-5.148-11.5-11.5M240 114h2V22h-2z"/>
        <path fill="#5C5C5C" mask="url(#b)" d="M257 114h2V22h-2zM275 114h2V22h-2zM258 134c-.552 0-1-.51-1-1.138v-12.724c0-.629.448-1.138 1-1.138s1 .51 1 1.138v12.724c0 .629-.448 1.138-1 1.138"/>
        <path fill="#5C5C5C" mask="url(#b)" d="M240 122h38v-10h-38zM258.487 149a8.454 8.454 0 0 1-4.83-1.513 8.454 8.454 0 0 1-3.52-5.472 8.466 8.466 0 0 1 1.38-6.359c1.612-2.323 4.276-3.626 7.093-3.656a1.173 1.173 0 0 1 1.159 1.186c-.007.648-.627 1.096-1.186 1.158-2.117-.02-3.972.964-5.139 2.648a6.114 6.114 0 0 0-1 4.605 6.118 6.118 0 0 0 2.55 3.965 6.162 6.162 0 0 0 9.661-4.98 1.174 1.174 0 0 1 1.173-1.157h.016c.644.008 1.164.54 1.156 1.188a8.498 8.498 0 0 1-8.513 8.387M229 34h200V0H229z"/>
        <path fill="#E5E5E5" mask="url(#b)" d="m261 6-13 22-13-22zM280 28 267 6l-13 22zM240 29h-11V9zM301 6l-13 22-13-22zM321 28 308 6l-13 22zM342 6l-13 22-13-22zM361 28 348 6l-13 22zM382 6l-13 22-13-22zM402 28 389 6l-13 22zM423 6l-13 22-13-22zM429 6.204V28h-13l12.884-22z"/>
        <path fill="#5C5C5C" mask="url(#b)" d="M223 34h6V0h-6zM429 34h6V0h-6z"/>
        <path d="M526.122 239.001c1.224-.356 17.94 72.504-45.596 81.999 0 0-18.688-63.272 45.596-81.999" fill="#CFCFCF" mask="url(#b)"/>
        <g mask="url(#b)">
            <path fill="#FFF" d="m481 323 34-64"/>
            <path stroke="#FFF" stroke-width="2" stroke-linecap="round" d="m481 323 34-64"/>
        </g>
        <g mask="url(#b)">
            <path fill="#FFF" d="m498 269 2 19"/>
            <path stroke="#FFF" stroke-width="2" stroke-linecap="round" d="m498 269 2 19"/>
        </g>
        <g mask="url(#b)">
            <path d="M493.001 300.988C492.828 301.33 509 294 509 294" fill="#FFF"/>
            <path d="M493.001 300.988C492.828 301.33 509 294 509 294" stroke="#FFF" stroke-width="2" stroke-linecap="round"/>
        </g>
        <path fill="#5C5C5C" mask="url(#b)" d="M392 332h5V122h-5zM424 332h5V122h-5z"/>
        <path fill="#5C5C5C" mask="url(#b)" d="M394 150h31v-3h-31zM394 177h31v-3h-31zM394 204h31v-3h-31zM394 231h31v-3h-31zM394 258h31v-3h-31zM394 285h31v-3h-31z"/>
    </g>
</svg>
