<svg width="13" height="12" viewBox="0 0 13 12" fill="none" xmlns="http://www.w3.org/2000/svg">
<path fill-rule="evenodd" clip-rule="evenodd" d="M9.24806 8.62501C9.24806 8.83212 9.41595 9.00002 9.62306 9.00002H12.6231C12.8302 9.00002 12.9981 8.83212 12.9981 8.62501V0.375002C12.9981 0.167894 12.8302 9.53674e-07 12.6231 9.53674e-07H4.37305C4.16594 9.53674e-07 3.99805 0.167894 3.99805 0.375002V3.37501C3.99805 3.58211 4.16594 3.75001 4.37305 3.75001C4.58015 3.75001 4.74805 3.58211 4.74805 3.37501V0.750002H12.2481V8.25001H9.62306C9.41595 8.25001 9.24806 8.41791 9.24806 8.62501Z" fill="#6A6A6A"/>
<path fill-rule="evenodd" clip-rule="evenodd" d="M0.998047 11.625C0.998047 11.8321 1.16594 12 1.37305 12H9.62306C9.83017 12 9.99806 11.8321 9.99806 11.625V3.375C9.99806 3.16789 9.83017 3 9.62306 3H1.37305C1.16594 3 0.998047 3.16789 0.998047 3.375V11.625ZM1.74805 11.25V3.75H9.24806V11.25H1.74805Z" fill="#6A6A6A"/>
</svg>
