<svg width="42" height="42" viewBox="0 0 42 42" fill="none" xmlns="http://www.w3.org/2000/svg">
<path fill-rule="evenodd" clip-rule="evenodd" d="M21 32.375C21.4832 32.375 21.875 32.7668 21.875 33.25V40.25C21.875 40.7332 21.4832 41.125 21 41.125C20.5168 41.125 20.125 40.7332 20.125 40.25V33.25C20.125 32.7668 20.5168 32.375 21 32.375Z" fill="#5C5C5C"/>
<path fill-rule="evenodd" clip-rule="evenodd" d="M17.7953 22.923C18.0439 23.3374 17.9096 23.8748 17.4952 24.1235L5.64944 31.2311L5.20458 30.4897L5.64944 31.2311C5.26074 31.4643 4.93905 31.7942 4.71572 32.1887C4.49238 32.5832 4.375 33.0287 4.375 33.4821V39.3752H37.625V33.482C37.625 33.0287 37.5076 32.5832 37.2843 32.1887C37.0609 31.7942 36.7393 31.4643 36.3506 31.2311L24.5048 24.1235C24.0904 23.8748 23.9561 23.3374 24.2047 22.923C24.4533 22.5086 24.9908 22.3742 25.4052 22.6229L37.2509 29.7305C37.8988 30.1192 38.4349 30.6691 38.8071 31.3265C39.1794 31.9839 39.375 32.7266 39.375 33.4821V40.2502C39.375 40.7334 38.9832 41.1252 38.5 41.1252H3.5C3.01675 41.1252 2.625 40.7334 2.625 40.2502V33.4821C2.62499 32.7266 2.82063 31.9839 3.19286 31.3265C3.56509 30.6691 4.10123 30.1192 4.74906 29.7305L16.5948 22.6229C17.0092 22.3742 17.5467 22.5086 17.7953 22.923Z" fill="#5C5C5C"/>
<path fill-rule="evenodd" clip-rule="evenodd" d="M11.375 7.9541C11.8582 7.9541 12.25 8.34585 12.25 8.8291V12.2504C12.25 19.7362 17.1972 23.6254 21 23.6254C24.8028 23.6254 29.75 19.7362 29.75 12.2504V8.82998C29.75 8.34673 30.1418 7.95498 30.625 7.95498C31.1082 7.95498 31.5 8.34673 31.5 8.82998V12.2504C31.5 20.5145 25.9472 25.3754 21 25.3754C16.0528 25.3754 10.5 20.5145 10.5 12.2504V8.8291C10.5 8.34585 10.8918 7.9541 11.375 7.9541Z" fill="#5C5C5C"/>
<path fill-rule="evenodd" clip-rule="evenodd" d="M12.0436 2.20753C14.3775 1.37397 17.5441 0.875 21 0.875C24.4559 0.875 27.6225 1.37397 29.9564 2.20753C31.1195 2.62295 32.1227 3.13799 32.8518 3.75365C33.5769 4.36587 34.125 5.16355 34.125 6.125C34.125 7.0808 33.5829 7.8745 32.8649 8.48443C32.2326 9.02166 31.3921 9.48218 30.42 9.86699C29.944 11.1426 28.7018 12.1235 27.2413 12.7866C25.555 13.5522 23.3653 14 21 14C18.6347 14 16.445 13.5522 14.7587 12.7866C13.2982 12.1235 12.056 11.1426 11.58 9.86699C10.6079 9.48218 9.76744 9.02166 9.13506 8.48443C8.41708 7.8745 7.875 7.0808 7.875 6.125C7.875 5.16355 8.4231 4.36587 9.14817 3.75365C9.87731 3.13799 10.8805 2.62295 12.0436 2.20753ZM10.2772 5.09076C9.76247 5.52535 9.625 5.87851 9.625 6.125C9.625 6.3697 9.7606 6.71962 10.2681 7.15072C10.7718 7.57867 11.5523 8.0039 12.5932 8.37926C12.8798 8.48262 13.092 8.72763 13.1534 9.02606C13.2949 9.7136 14.0171 10.528 15.4822 11.1932C16.9026 11.8381 18.8381 12.25 21 12.25C23.1619 12.25 25.0974 11.8381 26.5178 11.1932C27.9829 10.528 28.7051 9.7136 28.8466 9.02606C28.908 8.72763 29.1202 8.48262 29.4068 8.37926C30.4477 8.0039 31.2282 7.57867 31.7319 7.15072C32.2394 6.71962 32.375 6.3697 32.375 6.125C32.375 5.87851 32.2375 5.52535 31.7228 5.09076C31.2122 4.65962 30.4215 4.23191 29.3678 3.85557C27.268 3.10559 24.3096 2.625 21 2.625C17.6904 2.625 14.732 3.10559 12.6322 3.85557C11.5785 4.23191 10.7878 4.65962 10.2772 5.09076Z" fill="#5C5C5C"/>
<path fill-rule="evenodd" clip-rule="evenodd" d="M21 6.125C20.2751 6.125 19.6875 6.71263 19.6875 7.4375C19.6875 8.16237 20.2751 8.75 21 8.75C21.7249 8.75 22.3125 8.16237 22.3125 7.4375C22.3125 6.71263 21.7249 6.125 21 6.125ZM17.9375 7.4375C17.9375 5.74613 19.3086 4.375 21 4.375C22.6914 4.375 24.0625 5.74613 24.0625 7.4375C24.0625 9.12887 22.6914 10.5 21 10.5C19.3086 10.5 17.9375 9.12887 17.9375 7.4375Z" fill="#5C5C5C"/>
</svg>
