<svg width="45" height="45" viewBox="0 0 45 45" fill="none" xmlns="http://www.w3.org/2000/svg">
<g clip-path="url(#clip0_176_2211)">
<path fill-rule="evenodd" clip-rule="evenodd" d="M0.9375 11.25C0.9375 10.7322 1.35723 10.3125 1.875 10.3125H18.75C19.2678 10.3125 19.6875 10.7322 19.6875 11.25C19.6875 11.7678 19.2678 12.1875 18.75 12.1875H2.8125V42.1875H42.1875V12.1875H26.25C25.7322 12.1875 25.3125 11.7678 25.3125 11.25C25.3125 10.7322 25.7322 10.3125 26.25 10.3125H43.125C43.6428 10.3125 44.0625 10.7322 44.0625 11.25V43.125C44.0625 43.6428 43.6428 44.0625 43.125 44.0625H1.875C1.35723 44.0625 0.9375 43.6428 0.9375 43.125V11.25Z" fill="#5C5C5C"/>
<path fill-rule="evenodd" clip-rule="evenodd" d="M22.5 2.8125C20.9468 2.8125 19.6875 4.07183 19.6875 5.625V14.0625H25.3125V5.625C25.3125 4.07183 24.0532 2.8125 22.5 2.8125ZM17.8125 5.625C17.8125 3.0363 19.9113 0.9375 22.5 0.9375C25.0887 0.9375 27.1875 3.0363 27.1875 5.625V15C27.1875 15.5178 26.7678 15.9375 26.25 15.9375H18.75C18.2322 15.9375 17.8125 15.5178 17.8125 15V5.625Z" fill="#5C5C5C"/>
<path fill-rule="evenodd" clip-rule="evenodd" d="M27.1875 25.3125C27.1875 24.7947 27.6072 24.375 28.125 24.375H36.5625C37.0803 24.375 37.5 24.7947 37.5 25.3125C37.5 25.8303 37.0803 26.25 36.5625 26.25H28.125C27.6072 26.25 27.1875 25.8303 27.1875 25.3125Z" fill="#5C5C5C"/>
<path fill-rule="evenodd" clip-rule="evenodd" d="M27.1875 32.8125C27.1875 32.2947 27.6072 31.875 28.125 31.875H36.5625C37.0803 31.875 37.5 32.2947 37.5 32.8125C37.5 33.3303 37.0803 33.75 36.5625 33.75H28.125C27.6072 33.75 27.1875 33.3303 27.1875 32.8125Z" fill="#5C5C5C"/>
<path fill-rule="evenodd" clip-rule="evenodd" d="M10.4062 35.625H21.4688C21.0345 33.4852 19.143 31.875 16.875 31.875H15C12.732 31.875 10.8405 33.4852 10.4062 35.625ZM8.4375 36.5625C8.4375 32.9379 11.3754 30 15 30H16.875C20.4996 30 23.4375 32.9379 23.4375 36.5625C23.4375 37.0803 23.0178 37.5 22.5 37.5H9.375C8.85723 37.5 8.4375 37.0803 8.4375 36.5625Z" fill="#5C5C5C"/>
<path fill-rule="evenodd" clip-rule="evenodd" d="M15.9375 21.5625C14.3842 21.5625 13.125 22.8217 13.125 24.375C13.125 25.9283 14.3842 27.1875 15.9375 27.1875C17.4908 27.1875 18.75 25.9283 18.75 24.375C18.75 22.8217 17.4908 21.5625 15.9375 21.5625ZM11.25 24.375C11.25 21.7862 13.3487 19.6875 15.9375 19.6875C18.5263 19.6875 20.625 21.7862 20.625 24.375C20.625 26.9638 18.5263 29.0625 15.9375 29.0625C13.3487 29.0625 11.25 26.9638 11.25 24.375Z" fill="#5C5C5C"/>
</g>
<defs>
<clipPath id="clip0_176_2211">
<rect width="45" height="45" fill="white"/>
</clipPath>
</defs>
</svg>
