<svg width="35" height="38" viewBox="0 0 35 38" fill="none" xmlns="http://www.w3.org/2000/svg">
<path d="M6.24219 14.0908H21.9513" stroke="#5C5C5C" stroke-width="2" stroke-linecap="round" stroke-linejoin="round"/>
<path d="M20.6328 7.54546C20.6328 6.25089 21.0167 4.98539 21.7359 3.909C22.4551 2.8326 23.4774 1.99366 24.6734 1.49825C25.8695 1.00284 27.1855 0.873214 28.4552 1.12577C29.7249 1.37833 30.8912 2.00172 31.8066 2.91712C32.722 3.83252 33.3454 4.99881 33.598 6.2685C33.8505 7.5382 33.7209 8.85427 33.2255 10.0503C32.7301 11.2463 31.8911 12.2686 30.8147 12.9878C29.7383 13.707 28.4728 14.0909 27.1783 14.0909" stroke="#5C5C5C" stroke-width="2" stroke-linecap="round" stroke-linejoin="round"/>
<path d="M27.1818 7.5459L14.0909 23.9095L1 7.5459H27.1818Z" stroke="#5C5C5C" stroke-width="2" stroke-linecap="round" stroke-linejoin="round"/>
<path d="M14.0938 23.9092V37.0001" stroke="#5C5C5C" stroke-width="2" stroke-linecap="round" stroke-linejoin="round"/>
<path d="M5.90625 37H22.2699" stroke="#5C5C5C" stroke-width="2" stroke-linecap="round" stroke-linejoin="round"/>
</svg>
