<svg width="36" height="41" viewBox="0 0 36 41" fill="none" xmlns="http://www.w3.org/2000/svg">
<path fill-rule="evenodd" clip-rule="evenodd" d="M17.9375 7.6875C16.5223 7.6875 15.375 8.83477 15.375 10.25C15.375 11.6652 16.5223 12.8125 17.9375 12.8125C19.3527 12.8125 20.5 11.6652 20.5 10.25C20.5 8.83477 19.3527 7.6875 17.9375 7.6875ZM12.8125 10.25C12.8125 7.41954 15.107 5.125 17.9375 5.125C20.768 5.125 23.0625 7.41954 23.0625 10.25C23.0625 13.0805 20.768 15.375 17.9375 15.375C15.107 15.375 12.8125 13.0805 12.8125 10.25Z" fill="#5C5C5C"/>
<path fill-rule="evenodd" clip-rule="evenodd" d="M11.7511 18.1573C12.7122 17.1962 14.0158 16.6562 15.375 16.6562H20.5C21.8592 16.6562 23.1628 17.1962 24.1239 18.1573C25.085 19.1185 25.625 20.422 25.625 21.7812V29.4688C25.625 30.0202 25.2721 30.5099 24.7489 30.6843L21.7812 31.6735V39.7188C21.7812 40.4264 21.2076 41 20.5 41H15.375C14.6674 41 14.0938 40.4264 14.0938 39.7188V31.6735L11.1261 30.6843C10.6029 30.5099 10.25 30.0202 10.25 29.4688V21.7812C10.25 20.422 10.79 19.1185 11.7511 18.1573ZM15.375 19.2188C14.6954 19.2188 14.0436 19.4887 13.563 19.9693C13.0825 20.4498 12.8125 21.1016 12.8125 21.7812V28.5453L15.7802 29.5345C16.3034 29.7089 16.6562 30.1985 16.6562 30.75V38.4375H19.2188V30.75C19.2188 30.1985 19.5716 29.7089 20.0948 29.5345L23.0625 28.5453V21.7812C23.0625 21.1016 22.7925 20.4498 22.312 19.9693C21.8314 19.4887 21.1796 19.2188 20.5 19.2188H15.375Z" fill="#5C5C5C"/>
<path fill-rule="evenodd" clip-rule="evenodd" d="M5.125 2.5625C4.44538 2.5625 3.7936 2.83248 3.31304 3.31304C2.83248 3.7936 2.5625 4.44538 2.5625 5.125V39.7188C2.5625 40.4264 1.98886 41 1.28125 41C0.573635 41 0 40.4264 0 39.7188V5.125C0 3.76577 0.539954 2.4622 1.50108 1.50108C2.4622 0.539954 3.76577 0 5.125 0H30.75C32.1092 0 33.4128 0.539954 34.3739 1.50108C35.335 2.4622 35.875 3.76577 35.875 5.125V39.7188C35.875 40.4264 35.3014 41 34.5938 41C33.8861 41 33.3125 40.4264 33.3125 39.7188V5.125C33.3125 4.44538 33.0425 3.7936 32.562 3.31304C32.0814 2.83248 31.4296 2.5625 30.75 2.5625H5.125Z" fill="#5C5C5C"/>
</svg>
