<svg width="46" height="46" viewBox="0 0 46 46" fill="none" xmlns="http://www.w3.org/2000/svg">
<g clip-path="url(#clip0_176_2189)">
<path fill-rule="evenodd" clip-rule="evenodd" d="M29.5782 28.0591C30.1584 27.9252 30.7372 28.287 30.8711 28.8672L32.5127 35.982C32.5127 35.982 32.5127 35.982 32.5127 35.982C32.701 36.7975 33.4271 37.3752 34.2639 37.3752H44.9143C45.5097 37.3752 45.9924 37.8579 45.9924 38.4534C45.9924 39.0488 45.5097 39.5315 44.9143 39.5315H34.2639C32.4226 39.5315 30.8257 38.2605 30.4117 36.467L28.77 29.352C28.6362 28.7718 28.998 28.193 29.5782 28.0591Z" fill="#5C5C5C"/>
<path fill-rule="evenodd" clip-rule="evenodd" d="M38.1009 4.25463C38.1008 4.25464 38.1007 4.25466 38.1007 4.25467L7.66371 9.92227L10.8972 27.2878L43.1013 21.2914L40.1966 5.69235C40.1966 5.69226 40.1966 5.69218 40.1966 5.69209C40.0145 4.71646 39.0767 4.07323 38.1009 4.25463ZM37.7064 2.13478C39.8526 1.73558 41.9161 3.15069 42.3163 5.2971L42.3164 5.29736L45.4185 21.9565C45.4708 22.2376 45.4094 22.528 45.2476 22.7638C45.0859 22.9996 44.8371 23.1615 44.556 23.2138L10.232 29.6049C9.64668 29.7139 9.08378 29.3278 8.97479 28.7424L5.34654 9.25708C5.23754 8.67171 5.62371 8.10882 6.20908 7.99982L37.7061 2.13482L37.7064 2.13478Z" fill="#5C5C5C"/>
<path fill-rule="evenodd" clip-rule="evenodd" d="M1.88093 10.8993C2.4663 10.7903 3.0292 11.1764 3.13822 11.7618L6.04125 27.35C6.15026 27.9354 5.7641 28.4983 5.17874 28.6073C4.59337 28.7163 4.03046 28.3302 3.92145 27.7448L1.01842 12.1566C0.909401 11.5712 1.29556 11.0083 1.88093 10.8993Z" fill="#5C5C5C"/>
<path fill-rule="evenodd" clip-rule="evenodd" d="M17.6094 14.375C17.0139 14.375 16.5312 14.8577 16.5312 15.4531C16.5312 16.0486 17.0139 16.5312 17.6094 16.5312C18.2048 16.5312 18.6875 16.0486 18.6875 15.4531C18.6875 14.8577 18.2048 14.375 17.6094 14.375ZM14.375 15.4531C14.375 13.6668 15.8231 12.2188 17.6094 12.2188C19.3957 12.2188 20.8438 13.6668 20.8438 15.4531C20.8438 17.2394 19.3957 18.6875 17.6094 18.6875C15.8231 18.6875 14.375 17.2394 14.375 15.4531Z" fill="#5C5C5C"/>
<path fill-rule="evenodd" clip-rule="evenodd" d="M44.9219 30.9062C45.5173 30.9062 46 31.3889 46 31.9844V44.9219C46 45.5173 45.5173 46 44.9219 46C44.3264 46 43.8438 45.5173 43.8438 44.9219V31.9844C43.8438 31.3889 44.3264 30.9062 44.9219 30.9062Z" fill="#5C5C5C"/>
</g>
<defs>
<clipPath id="clip0_176_2189">
<rect width="46" height="46" fill="white"/>
</clipPath>
</defs>
</svg>
