<svg width="44" height="44" viewBox="0 0 44 44" fill="none" xmlns="http://www.w3.org/2000/svg">
<path fill-rule="evenodd" clip-rule="evenodd" d="M6.125 14.7625C6.125 14.398 6.42049 14.1025 6.785 14.1025H10.2315C10.596 14.1025 10.8915 14.398 10.8915 14.7625V21.2433C10.8915 21.6078 10.596 21.9033 10.2315 21.9033H6.785C6.42049 21.9033 6.125 21.6078 6.125 21.2433V14.7625ZM7.445 15.4225V20.5833H9.57152V15.4225H7.445ZM33.1115 14.7625C33.1115 14.398 33.407 14.1025 33.7715 14.1025H37.218C37.5826 14.1025 37.878 14.398 37.878 14.7625V21.2433C37.878 21.6078 37.5826 21.9033 37.218 21.9033H33.7715C33.407 21.9033 33.1115 21.6078 33.1115 21.2433V14.7625ZM34.4315 15.4225V20.5833H36.558V15.4225H34.4315ZM19.4781 22.9439C19.4781 22.5794 19.7736 22.2839 20.1381 22.2839H23.8649C24.2294 22.2839 24.5249 22.5794 24.5249 22.9439V26.4793H28.0608C28.4253 26.4793 28.7208 26.7748 28.7208 27.1393V30.8665C28.7208 31.231 28.4253 31.5265 28.0608 31.5265H24.5249V35.0619C24.5249 35.4264 24.2294 35.7219 23.8649 35.7219H20.1381C19.7736 35.7219 19.4781 35.4264 19.4781 35.0619V31.5265H15.9423C15.5778 31.5265 15.2823 31.231 15.2823 30.8665V27.1393C15.2823 26.7748 15.5778 26.4793 15.9423 26.4793H19.4781V22.9439ZM20.7981 23.6039V27.1393C20.7981 27.5038 20.5026 27.7993 20.1381 27.7993H16.6023V30.2065H20.1381C20.5026 30.2065 20.7981 30.502 20.7981 30.8665V34.4019H23.2049V30.8665C23.2049 30.502 23.5004 30.2065 23.8649 30.2065H27.4008V27.7993H23.8649C23.5004 27.7993 23.2049 27.5038 23.2049 27.1393V23.6039H20.7981Z" fill="#5C5C5C" stroke="#5C5C5C" stroke-width="0.5" stroke-miterlimit="10" stroke-linecap="round" stroke-linejoin="round"/>
<path fill-rule="evenodd" clip-rule="evenodd" d="M13.0341 7.78751C13.0341 5.33311 15.0296 3.33691 17.4842 3.33691H26.5135C28.9681 3.33691 30.9636 5.33311 30.9636 7.78751V10.8169H40.0391C40.6809 10.8169 41.2964 11.0719 41.7503 11.5257C42.2041 11.9796 42.4591 12.5951 42.4591 13.2369V38.2439C42.4591 38.8857 42.2041 39.5012 41.7503 39.9551C41.2964 40.4089 40.6809 40.6639 40.0391 40.6639H3.95906C3.31724 40.6639 2.7017 40.4089 2.24786 39.9551C1.79403 39.5012 1.53906 38.8857 1.53906 38.2439V13.2369C1.53906 12.5951 1.79403 11.9796 2.24786 11.5257C2.7017 11.0719 3.31724 10.8169 3.95906 10.8169H13.0341V7.78751ZM14.3541 10.8169H15.2341V7.78678C15.2347 7.19039 15.4719 6.61861 15.8935 6.19683C16.3152 5.77506 16.8869 5.53774 17.4833 5.53691L17.4842 5.53691L26.5144 5.53691C27.1108 5.53774 27.6825 5.77506 28.1041 6.19683C28.5258 6.61861 28.763 7.19039 28.7636 7.78678V10.8169H29.6436V7.78751C29.6436 6.06192 28.2389 4.65691 26.5135 4.65691H17.4842C15.7588 4.65691 14.3541 6.06192 14.3541 7.78751V10.8169ZM27.4436 10.8169V7.78824C27.4434 7.54137 27.3452 7.30468 27.1706 7.13009C26.9962 6.95559 26.7597 6.85736 26.5129 6.85691H17.4847C17.238 6.85736 17.0015 6.95559 16.8271 7.13009C16.6525 7.30468 16.5543 7.54137 16.5541 7.78824V10.8169H27.4436ZM3.95906 12.1369C3.66732 12.1369 3.38754 12.2528 3.18125 12.4591C2.97495 12.6654 2.85906 12.9452 2.85906 13.2369V17.3434H6.12254V14.7628C6.12254 14.3983 6.41803 14.1028 6.78254 14.1028H10.2291C10.5936 14.1028 10.8891 14.3983 10.8891 14.7628V17.3434H33.1091V14.7628C33.1091 14.3983 33.4046 14.1028 33.7691 14.1028H37.2156C37.5801 14.1028 37.8756 14.3983 37.8756 14.7628V17.3434H41.1391V13.2369C41.1391 12.9452 41.0232 12.6654 40.8169 12.4591C40.6106 12.2528 40.3308 12.1369 40.0391 12.1369H3.95906ZM41.1391 18.6634H37.8756V21.2445C37.8756 21.609 37.5801 21.9045 37.2156 21.9045H33.7691C33.4046 21.9045 33.1091 21.609 33.1091 21.2445V18.6634H10.8891V21.2445C10.8891 21.609 10.5936 21.9045 10.2291 21.9045H6.78254C6.41803 21.9045 6.12254 21.609 6.12254 21.2445V18.6634H2.85906V38.2439C2.85906 38.5356 2.97496 38.8154 3.18125 39.0217C3.38753 39.228 3.66732 39.3439 3.95906 39.3439H40.0391C40.3308 39.3439 40.6106 39.228 40.8169 39.0217C41.0232 38.8154 41.1391 38.5356 41.1391 38.2439V18.6634ZM7.44254 15.4228V20.5845H9.56906V15.4228H7.44254ZM34.4291 15.4228V20.5845H36.5556V15.4228H34.4291Z" fill="#5C5C5C" stroke="#5C5C5C" stroke-width="0.5" stroke-miterlimit="10" stroke-linecap="round" stroke-linejoin="round"/>
</svg>
