<svg width="16" height="16" viewBox="0 0 16 16" fill="none" xmlns="http://www.w3.org/2000/svg">
<path d="M15.3514 0.648536C14.9125 0.209643 14.2542 0.209643 13.8153 0.648536L7.99996 6.46387L2.18463 0.648536C1.74574 0.209643 1.0874 0.209643 0.648506 0.648536C0.209613 1.08743 0.209613 1.74577 0.648506 2.18466L6.46384 7.99999L0.648506 13.8153C0.209613 14.2542 0.209613 14.9126 0.648506 15.3514C0.867952 15.5709 1.0874 15.6806 1.41657 15.6806C1.74574 15.6806 1.96518 15.5709 2.18463 15.3514L7.99996 9.53612L13.8153 15.3514C14.0347 15.5709 14.3639 15.6806 14.5834 15.6806C14.8028 15.6806 15.132 15.5709 15.3514 15.3514C15.7903 14.9126 15.7903 14.2542 15.3514 13.8153L9.53609 7.99999L15.3514 2.18466C15.7903 1.74577 15.7903 1.08743 15.3514 0.648536Z" fill="#DC5741"/>
</svg>
