<?xml version="1.0" encoding="UTF-8"?><svg version="1.1" width="16px" height="20px" viewBox="0 0 16.0 20.0" xmlns="http://www.w3.org/2000/svg" xmlns:xlink="http://www.w3.org/1999/xlink"><defs><clipPath id="i0"><path d="M1440,0 L1440,1014 L0,1014 L0,0 L1440,0 Z"></path></clipPath><clipPath id="i1"><path d="M15.4285714,0 C15.7441627,0 16,0.255837286 16,0.571428571 L16,19.4285714 C16,19.7441627 15.7441627,20 15.4285714,20 L0.571428571,20 C0.255837286,20 0,19.7441627 0,19.4285714 L0,0.571428571 C0,0.255837286 0.255837286,0 0.571428571,0 Z M14.8571429,1.14285714 L1.14285714,1.14285714 L1.14285714,18.8571429 L14.8571429,18.8571429 L14.8571429,1.14285714 Z"></path></clipPath><clipPath id="i2"><path d="M11.4285714,12.8806287 C11.7441627,12.8806287 12,13.1312085 12,13.4403143 C12,13.7494202 11.7441627,14 11.4285714,14 L0.571428571,14 C0.255837286,14 0,13.7494202 0,13.4403143 C0,13.1312085 0.255837286,12.8806287 0.571428571,12.8806287 Z M11.4285714,9.80235752 C11.7441627,9.80235752 12,10.0529373 12,10.3620432 C12,10.671149 11.7441627,10.9217289 11.4285714,10.9217289 L0.571428571,10.9217289 C0.255837286,10.9217289 0,10.671149 0,10.3620432 C0,10.0529373 0.255837286,9.80235752 0.571428571,9.80235752 Z M11.4285714,6.72408638 C11.7441627,6.72408638 12,6.97466618 12,7.28377204 C12,7.5928779 11.7441627,7.8434577 11.4285714,7.8434577 L0.571428571,7.8434577 C0.255837286,7.8434577 0,7.5928779 0,7.28377204 C0,6.97466618 0.255837286,6.72408638 0.571428571,6.72408638 Z M3.93428571,0.007858414 C4.55371429,0.007858414 5.14971429,0.27230989 5.56942857,0.733490877 C5.77425289,0.964785532 5.75130778,1.31435404 5.51793099,1.51805589 C5.28455419,1.72175774 4.92737545,1.70397857 4.71628571,1.47815265 C4.51028571,1.2517598 4.23257143,1.12722974 3.934,1.12722974 C3.34,1.12722974 2.85714286,1.62926778 2.85714286,2.24660107 C2.85714286,2.86393435 3.34028571,3.36597239 3.934,3.36597239 C4.23257143,3.36597239 4.51057143,3.24144233 4.71628571,3.01532933 C4.85059437,2.86074875 5.05982456,2.78950629 5.26307049,2.82915024 C5.46631641,2.86879418 5.63171822,3.01311013 5.6953178,3.20629351 C5.75891739,3.3994769 5.71074518,3.61124524 5.56942857,3.75971126 C5.14971429,4.22089225 4.55371429,4.48534372 3.934,4.48534372 C2.71,4.48534372 1.71428571,3.4809878 1.71428571,2.24660107 C1.71428571,1.01221434 2.71,0.007858414 3.93428571,0.007858414 Z M9.64131047,0.00502374814 C9.84568391,-0.0219506711 10.0490416,0.0610224436 10.1734195,0.222132584 C10.2977974,0.383242725 10.3238979,0.597492918 10.2417143,0.782743215 L8.81314286,4.1408572 C8.72439082,4.34936738 8.51635891,4.48517584 8.28571429,4.48517584 C8.05506966,4.48517584 7.84703775,4.34936738 7.75828571,4.1408572 L6.32971429,0.782743215 C6.24753072,0.597492918 6.27363114,0.383242725 6.39800907,0.222132584 C6.52238701,0.0610224436 6.72574466,-0.0219506711 6.9301181,0.00502374814 C7.13449153,0.0319981673 7.30817128,0.164734916 7.38457143,0.35234494 L8.28571429,2.47047533 L9.18685714,0.35234494 C9.26325729,0.164734916 9.43693704,0.0319981673 9.64131047,0.00502374814 Z"></path></clipPath></defs><g transform="translate(-25.0 -421.0)"><g clip-path="url(#i0)"><g transform="translate(0.0 405.0)"><g transform="translate(25.0 16.0)"><g clip-path="url(#i1)"><polygon points="0,0 16,0 16,20 0,20 0,0" stroke="none" fill="#F9F9FC"></polygon></g><g transform="translate(2.0 3.0)"><g clip-path="url(#i2)"><polygon points="0,0 12,0 12,14 0,14 0,0" stroke="none" fill="#F9F9FC"></polygon></g></g></g></g></g></g></svg>