<svg width="18" height="18" viewBox="0 0 18 18" fill="none" xmlns="http://www.w3.org/2000/svg">
<path d="M9.75 14.25C9.75 13.995 9.78 13.7475 9.8175 13.5H2.25V9H14.25V9.75C14.775 9.75 15.2775 9.8475 15.75 10.0125V4.5C15.75 3.6675 15.0825 3 14.25 3H2.25C1.4175 3 0.75 3.6675 0.75 4.5V13.5C0.75 13.8978 0.908035 14.2794 1.18934 14.5607C1.47064 14.842 1.85218 15 2.25 15H9.8175C9.78 14.7525 9.75 14.505 9.75 14.25ZM2.25 4.5H14.25V6H2.25V4.5ZM13.3125 16.5L11.25 14.25L12.12 13.38L13.3125 14.5725L16.005 11.88L16.875 12.9375L13.3125 16.5Z" fill="#303030"/>
</svg>
