<svg width="143" height="120" viewBox="0 0 143 120" fill="none" xmlns="http://www.w3.org/2000/svg">
<rect x="16" width="120" height="117.367" rx="58.6834" fill="url(#paint0_linear_782_82548)"/>
<rect x="32" y="34.2324" width="87.6" height="85.768" rx="2" fill="white"/>
<g clip-path="url(#clip0_782_82548)">
<path d="M69.125 50.25C68.7935 50.25 68.4755 50.3817 68.2411 50.6161C68.0067 50.8505 67.875 51.1685 67.875 51.5V52.75C67.875 53.0815 68.0067 53.3995 68.2411 53.6339C68.4755 53.8683 68.7935 54 69.125 54H69.75V65.25C69.75 65.913 70.0134 66.5489 70.4822 67.0178C70.9511 67.4866 71.587 67.75 72.25 67.75H79.75C80.413 67.75 81.0489 67.4866 81.5178 67.0178C81.9866 66.5489 82.25 65.913 82.25 65.25V54H82.875C83.2065 54 83.5245 53.8683 83.7589 53.6339C83.9933 53.3995 84.125 53.0815 84.125 52.75V51.5C84.125 51.1685 83.9933 50.8505 83.7589 50.6161C83.5245 50.3817 83.2065 50.25 82.875 50.25H78.5C78.5 49.9185 78.3683 49.6005 78.1339 49.3661C77.8995 49.1317 77.5815 49 77.25 49H74.75C74.4185 49 74.1005 49.1317 73.8661 49.3661C73.6317 49.6005 73.5 49.9185 73.5 50.25H69.125ZM72.875 55.25C73.0408 55.25 73.1997 55.3158 73.3169 55.4331C73.4342 55.5503 73.5 55.7092 73.5 55.875V64.625C73.5 64.7908 73.4342 64.9497 73.3169 65.0669C73.1997 65.1842 73.0408 65.25 72.875 65.25C72.7092 65.25 72.5503 65.1842 72.4331 65.0669C72.3158 64.9497 72.25 64.7908 72.25 64.625V55.875C72.25 55.7092 72.3158 55.5503 72.4331 55.4331C72.5503 55.3158 72.7092 55.25 72.875 55.25ZM76 55.25C76.1658 55.25 76.3247 55.3158 76.4419 55.4331C76.5592 55.5503 76.625 55.7092 76.625 55.875V64.625C76.625 64.7908 76.5592 64.9497 76.4419 65.0669C76.3247 65.1842 76.1658 65.25 76 65.25C75.8342 65.25 75.6753 65.1842 75.5581 65.0669C75.4408 64.9497 75.375 64.7908 75.375 64.625V55.875C75.375 55.7092 75.4408 55.5503 75.5581 55.4331C75.6753 55.3158 75.8342 55.25 76 55.25ZM79.75 55.875V64.625C79.75 64.7908 79.6842 64.9497 79.5669 65.0669C79.4497 65.1842 79.2908 65.25 79.125 65.25C78.9592 65.25 78.8003 65.1842 78.6831 65.0669C78.5658 64.9497 78.5 64.7908 78.5 64.625V55.875C78.5 55.7092 78.5658 55.5503 78.6831 55.4331C78.8003 55.3158 78.9592 55.25 79.125 55.25C79.2908 55.25 79.4497 55.3158 79.5669 55.4331C79.6842 55.5503 79.75 55.7092 79.75 55.875Z" fill="#E3584E"/>
</g>
<rect x="61" y="79.3711" width="28.8" height="4.51411" rx="2" fill="#F0F0F0"/>
<rect x="61" y="95.1719" width="28.8" height="4.51411" rx="2" fill="#F0F0F0"/>
<rect x="52" y="87.2734" width="48" height="4.51411" rx="2" fill="#F0F0F0"/>
<rect x="132" y="15" width="8" height="8" rx="4" fill="#FF5E53"/>
<rect y="73" width="11" height="11" rx="5.5" fill="#FF5E53"/>
<rect x="14" y="18" width="5" height="5" rx="2.5" fill="#FF5E53"/>
<rect x="138" y="3" width="5" height="5" rx="2.5" fill="#FF5E53"/>
<defs>
<linearGradient id="paint0_linear_782_82548" x1="76" y1="0" x2="76" y2="117.367" gradientUnits="userSpaceOnUse">
<stop stop-color="#F5847D"/>
<stop offset="0.25" stop-color="#ED6C64"/>
<stop offset="0.505208" stop-color="#E95D53"/>
<stop offset="0.755208" stop-color="#DA4F46"/>
<stop offset="1" stop-color="#FF5E53"/>
</linearGradient>
<clipPath id="clip0_782_82548">
<rect width="20" height="20" fill="white" transform="translate(66 49)"/>
</clipPath>
</defs>
</svg>
