<?xml version="1.0" encoding="UTF-8"?>
<svg width="45px" height="49px" viewBox="0 0 45 49" version="1.1" xmlns="http://www.w3.org/2000/svg" xmlns:xlink="http://www.w3.org/1999/xlink">
    <title>doc-white</title>
    <g id="Chat" stroke="none" stroke-width="1" fill="none" fill-rule="evenodd">
        <g id="Chat-SendingFileToaster" transform="translate(-1097.000000, -506.000000)" fill-rule="nonzero">
            <g id="doc-white" transform="translate(1097.000000, 506.000000)">
                <path d="M23.9998625,0.000556818182 C23.4458694,0.000556818182 22.999875,0.497238636 22.999875,1.11419318 L22.999875,2.22782955 C22.999875,2.84478409 23.4458694,3.34146591 23.9998625,3.34146591 L34.0036375,3.34146591 L34.0196373,10.5627295 C34.0196373,11.4818136 34.6904289,12.2262795 35.5157186,12.2288409 L42.0000375,12.2477727 L42.0000375,43.9886364 C42.0000375,44.9429114 41.3569455,45.6590909 40.5000562,45.6590909 L17.5003437,45.6590909 C16.6433545,45.6590909 16.0003625,44.9429114 16.0003625,43.9886364 L16.0003625,42.3181818 C16.0003625,41.7012273 15.5543681,41.2045455 15.000375,41.2045455 L14.0003875,41.2045455 C13.4463944,41.2045455 13.0004,41.7012273 13.0004,42.3181818 L13.0004,43.9886364 C13.0004,46.7360886 15.0332746,49 17.5003437,49 L40.5000562,49 C42.9670254,49 45,46.7360886 45,43.9886364 L45,10.0379841 C45,9.59497955 44.841802,9.17012727 44.5605055,8.85686136 L37.0468994,0.489443182 C36.7657029,0.176065909 36.3842077,0 35.9864127,0 L23.9998625,0.000556818182 Z M13,23.3869205 C13,24.003875 13.4459944,24.5005568 13.9999875,24.5005568 L14.999975,24.5005568 C15.5539681,24.5005568 15.9999625,24.003875 15.9999625,23.3869205 L15.9999625,12.2505568 C15.9999625,11.6336023 15.5539681,11.1369205 14.999975,11.1369205 L13.9999875,11.1369205 C13.4459944,11.1369205 13,11.6336023 13,12.2505568 L13,23.3869205 Z" id="Shape" fill="#FFFFFF"></path>
                <path d="M17.5,0 C15.033,0 13,2.26523143 13,5.01428571 L13,7.8 C13,8.41731429 13.446,8.91428571 14,8.91428571 L15,8.91428571 C15.554,8.91428571 16,8.41731429 16,7.8 L16,5.01428571 C16,4.05945429 16.6431,3.34285714 17.5,3.34285714 L20,3.34285714 C20.554,3.34285714 21,2.84588571 21,2.22857143 L21,1.11428571 C21,0.496971429 20.554,0 20,0 L17.5,0 Z M2,26.7428571 C0.89199,26.7428571 0,27.7368 0,28.9714286 L0,36.7714286 C0,38.0060571 0.89199,39 2,39 L27,39 C28.10801,39 29,38.0060571 29,36.7714286 L29,28.9714286 C29,27.7368 28.10801,26.7428571 27,26.7428571 L2,26.7428571 Z M14.5293,29.626506 C16.05709,29.626506 17.1543,30.9774771 17.1543,32.8714286 C17.1543,34.7759657 16.05709,36.1163511 14.5293,36.1163511 C13.0206,36.1163511 11.89258,34.7759657 11.89258,32.8714286 C11.89258,30.9668914 12.98241,29.626506 14.5293,29.626506 Z M20.39648,29.626506 C20.84469,29.626506 21.27476,29.7431606 21.73242,29.9660177 C21.84701,29.7320177 21.96178,29.6352086 22.17188,29.6352086 C22.46787,29.6352086 22.5918,29.7737031 22.5918,30.2206431 L22.6035,31.5721491 C22.6035,32.0189777 22.5067,32.1793569 22.11521,32.1793569 C21.82875,32.1793569 21.72455,32.0195014 21.63865,31.6896729 C21.48587,31.0831671 21.19921,30.7647377 20.5117,30.7647377 C19.56638,30.7647377 19.03123,31.4882657 19.03123,32.8714286 C19.03123,34.2440057 19.56659,34.9781194 20.52146,34.9781194 C21.39994,34.9781194 21.92554,34.2533991 22.34568,34.2533991 C22.5844,34.2533991 22.77537,34.5091946 22.77537,34.8497203 C22.77537,35.4029631 21.71484,36.1272377 20.42576,36.1272377 C18.78338,36.1272377 17.69529,34.7866629 17.69529,32.8714286 C17.69529,31.0520229 18.80183,29.626506 20.39646,29.626506 L20.39648,29.626506 Z M6.81836,29.7962563 L7.69531,29.7962563 L7.97266,29.7962563 C8.86069,29.7962563 9.597,29.818542 10.16992,30.2010651 C10.90517,30.7011566 11.33398,31.6372457 11.33398,32.8714286 C11.33398,34.1588743 10.84636,35.148048 10.01562,35.6375537 C9.52866,35.9355137 8.92731,35.9553034 8.2207,35.9553034 L7.69531,35.9553034 L6.81836,35.9553034 C6.42686,35.9553034 6.22461,35.8169871 6.22461,35.3807443 C6.22461,35.00835 6.40603,34.8170717 6.74023,34.8170717 L6.81833,34.8170717 L6.81833,30.9453634 L6.74023,30.9453634 C6.40603,30.9453634 6.22461,30.7432097 6.22461,30.3708154 C6.22461,29.9451583 6.41732,29.7962563 6.81836,29.7962563 L6.81836,29.7962563 Z M14.5293,30.8278509 C13.7463,30.8278509 13.24023,31.5521143 13.24023,32.8714286 C13.24023,34.1908543 13.7654,34.92372 14.5293,34.92372 C15.30275,34.92372 15.81836,34.20144 15.81836,32.8714286 C15.81836,31.5414171 15.30275,30.8278509 14.5293,30.8278509 Z M8.29688,30.9127565 C8.21098,30.9127565 8.11698,30.9122691 8.02148,30.9239023 L8.02148,34.8064971 C8.11698,34.81764 8.20121,34.81764 8.28711,34.81764 C9.45206,34.81764 9.99805,34.2017074 9.99805,32.8611103 C9.99805,31.5523817 9.44271,30.9132943 8.29688,30.9132943 L8.29688,30.9127565 Z" id="Shape" fill="#11C111"></path>
            </g>
        </g>
    </g>
</svg>