<?xml version="1.0" encoding="UTF-8"?>
<svg width="46px" height="44px" viewBox="0 0 46 44" version="1.1" xmlns="http://www.w3.org/2000/svg" xmlns:xlink="http://www.w3.org/1999/xlink">
    <title>Group</title>
    <g id="Chat" stroke="none" stroke-width="1" fill="none" fill-rule="evenodd">
        <g id="Chat-SendingFileToaster" transform="translate(-758.000000, -650.000000)" fill-rule="nonzero">
            <g id="Group-7" transform="translate(233.000000, 53.000000)">
                <g id="Group-2" transform="translate(510.000000, 572.000000)">
                    <g id="Group" transform="translate(15.987000, 24.999700)">
                        <path d="M24,0.0005 C23.446,0.0005 23,0.4465 23,1.0005 L23,2.0005 C23,2.5545 23.446,3.0005 24,3.0005 L34.0039,3.0005 L34.0199,9.4849 C34.0199,10.3102 34.6907,10.9787 35.516,10.981 L42.0004,10.998 L42.0004,39.5 C42.0004,40.3569 41.3573,41 40.5004,41 L17.5004,41 C16.6434,41 16.0004,40.3569 16.0004,39.5 L16.0004,38 C16.0004,37.446 15.5544,37 15.0004,37 L14.0004,37 C13.4464,37 13.0004,37.446 13.0004,38 L13.0004,39.5 C13.0004,41.9671 15.0333,44 17.5004,44 L40.5004,44 C42.9674,44 45.0004,41.9671 45.0004,39.5 L45.0004,9.0137 C45.0004,8.6159 44.8422,8.2344 44.5609,7.9531 L37.0472,0.4395 C36.766,0.1581 36.3845,0 35.9867,0 L24,0.0005 Z M13,21.0005 C13,21.5545 13.446,22.0005 14,22.0005 L15,22.0005 C15.554,22.0005 16,21.5545 16,21.0005 L16,11.0005 C16,10.4465 15.554,10.0005 15,10.0005 L14,10.0005 C13.446,10.0005 13,10.4465 13,11.0005 L13,21.0005 Z" id="Shape" fill="#242429"></path>
                        <path d="M17.5,0.0003 C15.033,0.0003 13,2.0332 13,4.5003 L13,7.0003 C13,7.5543 13.446,8.0003 14,8.0003 L15,8.0003 C15.554,8.0003 16,7.5543 16,7.0003 L16,4.5003 C16,3.6434 16.6431,3.0003 17.5,3.0003 L20,3.0003 C20.554,3.0003 21,2.5543 21,2.0003 L21,1.0003 C21,0.4463 20.554,0.0003 20,0.0003 L17.5,0.0003 Z M2,24.0003 C0.89199,24.0003 0,24.8923 0,26.0003 L0,33.0003 C0,34.1083 0.89199,35.0003 2,35.0003 L27,35.0003 C28.10801,35.0003 29,34.1083 29,33.0003 L29,26.0003 C29,24.8923 28.10801,24.0003 27,24.0003 L2,24.0003 Z M14.5293,26.58819 C16.05709,26.58819 17.1543,27.8006 17.1543,29.5003 C17.1543,31.2095 16.05709,32.41241 14.5293,32.41241 C13.0206,32.41241 11.89258,31.2095 11.89258,29.5003 C11.89258,27.7911 12.98241,26.58819 14.5293,26.58819 Z M20.39648,26.58819 C20.84469,26.58819 21.27476,26.69288 21.73242,26.89288 C21.84701,26.68288 21.96178,26.596 22.17188,26.596 C22.46787,26.596 22.5918,26.72029 22.5918,27.12139 L22.6035,28.33428 C22.6035,28.73528 22.5067,28.87921 22.11521,28.87921 C21.82875,28.87921 21.72455,28.73575 21.63865,28.43975 C21.48587,27.89545 21.19921,27.60968 20.5117,27.60968 C19.56638,27.60968 19.03123,28.259 19.03123,29.5003 C19.03123,30.7321 19.56659,31.39092 20.52146,31.39092 C21.39994,31.39092 21.92554,30.74053 22.34568,30.74053 C22.5844,30.74053 22.77537,30.97009 22.77537,31.27569 C22.77537,31.77219 21.71484,32.42218 20.42576,32.42218 C18.78338,32.42218 17.69529,31.2191 17.69529,29.5003 C17.69529,27.8675 18.80183,26.58819 20.39646,26.58819 L20.39648,26.58819 Z M6.81836,26.74053 L7.69531,26.74053 L7.97266,26.74053 C8.86069,26.74053 9.597,26.76053 10.16992,27.10382 C10.90517,27.55262 11.33398,28.3927 11.33398,29.5003 C11.33398,30.6557 10.84636,31.54342 10.01562,31.98272 C9.52866,32.25012 8.92731,32.26788 8.2207,32.26788 L7.69531,32.26788 L6.81836,32.26788 C6.42686,32.26788 6.22461,32.14375 6.22461,31.75225 C6.22461,31.41805 6.40603,31.24639 6.74023,31.24639 L6.81833,31.24639 L6.81833,27.77178 L6.74023,27.77178 C6.40603,27.77178 6.22461,27.59036 6.22461,27.25616 C6.22461,26.87416 6.41732,26.74053 6.81836,26.74053 L6.81836,26.74053 Z M14.5293,27.66632 C13.7463,27.66632 13.24023,28.3163 13.24023,29.5003 C13.24023,30.6844 13.7654,31.3421 14.5293,31.3421 C15.30275,31.3421 15.81836,30.6939 15.81836,29.5003 C15.81836,28.3067 15.30275,27.66632 14.5293,27.66632 Z M8.29688,27.7425173 C8.21098,27.7425173 8.11698,27.74208 8.02148,27.75252 L8.02148,31.2369 C8.11698,31.2469 8.20121,31.2469 8.28711,31.2469 C9.45206,31.2469 9.99805,30.69414 9.99805,29.49104 C9.99805,28.31654 9.44271,27.743 8.29688,27.743 L8.29688,27.7425173 Z" id="Shape" fill="#11C111"></path>
                    </g>
                </g>
            </g>
        </g>
    </g>
</svg>