<?xml version="1.0" encoding="UTF-8"?>
<svg width="16px" height="16px" viewBox="0 0 16 16" version="1.1" xmlns="http://www.w3.org/2000/svg" xmlns:xlink="http://www.w3.org/1999/xlink">
    <title>document</title>
    <g id="Chat" stroke="none" stroke-width="1" fill="none" fill-rule="evenodd">
        <g id="Chat-SendingFileToaster" transform="translate(-325.000000, -825.000000)" fill="#A4A4A4" fill-rule="nonzero">
            <g id="Group-7" transform="translate(233.000000, 53.000000)">
                <g id="Group-14" transform="translate(30.000000, 701.000000)">
                    <g id="document" transform="translate(62.000000, 71.000000)">
                        <path d="M11.425254,0 C14.2815675,0 15.9922593,1.5611479 16,4.16777042 L16,4.16777042 L16,11.8322296 C16,14.4388521 14.2970489,16 11.4329947,16 L11.4329947,16 L8.89404933,16 C8.56844341,15.9672362 8.32198706,15.7161618 8.32198706,15.4172186 C8.32198706,15.1182753 8.56844341,14.8672009 8.89404933,14.8344371 L8.89404933,14.8344371 L11.425254,14.8344371 C13.6081277,14.8344371 14.7073052,13.8242826 14.7073052,11.8322296 L14.7073052,11.8322296 L14.7073052,4.16777042 C14.7073052,2.17571744 13.6081277,1.16556291 11.425254,1.16556291 L11.425254,1.16556291 L4.56700532,1.16556291 C2.38413159,1.16556291 1.27721335,2.17571744 1.27721335,4.16777042 L1.27721335,4.16777042 L1.27721335,11.8322296 C1.27721335,13.8242826 2.38413159,14.8344371 4.56700532,14.8344371 C4.89261125,14.8672009 5.13906762,15.1182753 5.13906762,15.4172186 C5.13906762,15.7161618 4.89261125,15.9672362 4.56700532,16 C1.71069182,16 0,14.4388521 0,11.8322296 L0,11.8322296 L0,4.16777042 C0,1.55408389 1.71069182,0 4.56700532,0 L4.56700532,0 L11.425254,0 Z M11.1930334,10.807947 C11.5435886,10.807947 11.8277697,11.0672858 11.8277697,11.3871965 C11.8277697,11.7071071 11.5435886,11.9664459 11.1930334,11.9664459 L11.1930334,11.9664459 L4.78374456,11.9664459 C4.43318936,11.9664459 4.14900822,11.7071071 4.14900822,11.3871965 C4.14900822,11.0672858 4.43318936,10.807947 4.78374456,10.807947 L4.78374456,10.807947 L11.1930334,10.807947 Z M11.1930334,7.41721854 C11.4379735,7.39257165 11.6767798,7.49794782 11.80772,7.68845642 C11.9386602,7.87896503 11.9386602,8.12103496 11.80772,8.3115436 C11.6767798,8.50205216 11.4379735,8.60742832 11.1930334,8.58278144 L11.1930334,8.58278144 L4.78374456,8.58278144 C4.45813862,8.5500176 4.21168227,8.2989432 4.21168227,8 C4.21168227,7.70105677 4.45813862,7.44998237 4.78374456,7.41721854 L4.78374456,7.41721854 L11.1930334,7.41721854 Z M7.22980164,4.03355408 C7.55540757,4.06631791 7.80186394,4.31739231 7.80186394,4.61633554 C7.80186394,4.91527877 7.55540757,5.16635317 7.22980164,5.199117 L7.22980164,5.199117 L4.79148524,5.199117 C4.46587932,5.16635317 4.21942295,4.91527877 4.21942295,4.61633554 C4.21942295,4.31739231 4.46587932,4.06631791 4.79148524,4.03355408 L4.79148524,4.03355408 L7.22980164,4.03355408 Z" id="Shape"></path>
                    </g>
                </g>
            </g>
        </g>
    </g>
</svg>