<?xml version="1.0" encoding="UTF-8"?>
<svg width="24px" height="24px" viewBox="0 0 24 24" version="1.1" xmlns="http://www.w3.org/2000/svg" xmlns:xlink="http://www.w3.org/1999/xlink">
    <title>Group 15</title>
    <g id="Chat" stroke="none" stroke-width="1" fill="none" fill-rule="evenodd">
        <g id="Chat-SendingFileToaster" transform="translate(-1081.000000, -660.000000)">
            <g id="Group-7" transform="translate(233.000000, 53.000000)">
                <g id="Group-2" transform="translate(510.000000, 572.000000)">
                    <g id="Group-15" transform="translate(338.000000, 35.000000)">
                        <circle id="Oval" fill="#FFFFFF" cx="12" cy="12" r="12"></circle>
                        <g id="download" transform="translate(6.000000, 6.000000)" fill="#000000" fill-rule="nonzero">
                            <path d="M6.00404411,9 C5.78905665,9.00127938 5.58242012,8.91344952 5.42978007,8.75589777 L2.19448966,5.38916474 C1.91967051,5.05521825 1.93814768,4.55741825 2.23690171,4.2465265 C2.53565575,3.93563476 3.01402085,3.9164069 3.33492953,4.20239134 L6.00404411,6.97152926 L8.66507047,4.20239134 C8.98597915,3.9164069 9.46434425,3.93563476 9.76309829,4.2465265 C10.0618523,4.55741825 10.0803295,5.05521825 9.80551034,5.38916474 L6.57021993,8.75589777 C6.41956812,8.91139384 6.21623053,8.99905617 6.00404411,9 Z" id="Path"></path>
                            <path d="M6,9 C5.58578644,9 5.25,8.66421356 5.25,8.25 L5.25,0.75 C5.25,0.335786438 5.58578644,0 6,0 C6.41421356,0 6.75,0.335786438 6.75,0.75 L6.75,8.25 C6.75,8.66421356 6.41421356,9 6,9 Z M11.25,12 L0.75,12 C0.335786438,12 0,11.6642136 0,11.25 C0,10.8357864 0.335786438,10.5 0.75,10.5 L11.25,10.5 C11.6642136,10.5 12,10.8357864 12,11.25 C12,11.6642136 11.6642136,12 11.25,12 Z" id="Shape"></path>
                        </g>
                    </g>
                </g>
            </g>
        </g>
    </g>
</svg>