<svg width="18" height="13" viewBox="0 0 18 13" fill="none" xmlns="http://www.w3.org/2000/svg">
<path d="M4.5 13C3.25909 13 2.199 12.5708 1.31973 11.7123C0.439909 10.8538 0 9.80451 0 8.56447C0 7.50157 0.320454 6.55451 0.961364 5.72327C1.60227 4.89203 2.44091 4.36059 3.47727 4.12893C3.70909 3.1478 4.28864 2.21436 5.21591 1.32862C6.14318 0.442872 7.13182 0 8.18182 0C8.63182 0 9.01718 0.159979 9.33791 0.479937C9.65809 0.80044 9.81818 1.18553 9.81818 1.63522V6.58176L11.1273 5.31447L12.2727 6.45912L9 9.72956L5.72727 6.45912L6.87273 5.31447L8.18182 6.58176V1.63522C7.14545 1.826 6.34091 2.32665 5.76818 3.13717C5.19545 3.94824 4.90909 4.78302 4.90909 5.64151H4.5C3.70909 5.64151 3.03409 5.92086 2.475 6.47956C1.91591 7.03826 1.63636 7.71279 1.63636 8.50314C1.63636 9.2935 1.91591 9.96803 2.475 10.5267C3.03409 11.0854 3.70909 11.3648 4.5 11.3648H14.3182C14.8909 11.3648 15.375 11.1672 15.7705 10.772C16.1659 10.3768 16.3636 9.89308 16.3636 9.32076C16.3636 8.74843 16.1659 8.26468 15.7705 7.8695C15.375 7.47432 14.8909 7.27673 14.3182 7.27673H13.0909V5.64151C13.0909 4.98742 12.9409 4.37748 12.6409 3.8117C12.3409 3.24646 11.9455 2.76625 11.4545 2.37107V0.470126C12.4636 0.947065 13.2614 1.65239 13.8477 2.5861C14.4341 3.51927 14.7273 4.53774 14.7273 5.64151C15.6682 5.75052 16.449 6.15579 17.0697 6.8573C17.6899 7.55935 18 8.3805 18 9.32076C18 10.3428 17.6422 11.2116 16.9265 11.9273C16.2104 12.6424 15.3409 13 14.3182 13H4.5Z" fill="#303030"/>
</svg>
