<svg width="15" height="15" viewBox="0 0 15 15" fill="none" xmlns="http://www.w3.org/2000/svg">
<path d="M1.01025 7.13086C4.03443 7.90643 6.26292 10.6394 6.31701 13.8925" stroke="black" stroke-linecap="round" stroke-linejoin="round"/>
<path d="M13.9895 7.13086C10.9653 7.90643 8.73683 10.6394 8.68274 13.8925" stroke="black" stroke-linecap="round" stroke-linejoin="round"/>
<path d="M1.44324 5.13647H13.5569" stroke="black" stroke-linecap="round" stroke-linejoin="round"/>
<path d="M7.5 14C11.0899 14 14 11.0899 14 7.5C14 3.91015 11.0899 1 7.5 1C3.91015 1 1 3.91015 1 7.5C1 11.0899 3.91015 14 7.5 14Z" stroke="black" stroke-linecap="round" stroke-linejoin="round"/>
<path d="M7.50006 9.27282C8.15276 9.27282 8.68187 8.7437 8.68187 8.091C8.68187 7.4383 8.15276 6.90918 7.50006 6.90918C6.84736 6.90918 6.31824 7.4383 6.31824 8.091C6.31824 8.7437 6.84736 9.27282 7.50006 9.27282Z" stroke="black" stroke-linecap="round" stroke-linejoin="round"/>
</svg>
