<svg width="16" height="16" viewBox="0 0 16 16" fill="none" xmlns="http://www.w3.org/2000/svg">
<g clip-path="url(#clip0_482_1959)">
<path d="M13 0H3C2.46957 0 1.96086 0.210714 1.58579 0.585786C1.21071 0.960859 1 1.46957 1 2V14C1 14.5304 1.21071 15.0391 1.58579 15.4142C1.96086 15.7893 2.46957 16 3 16H13C13.5304 16 14.0391 15.7893 14.4142 15.4142C14.7893 15.0391 15 14.5304 15 14V2C15 1.46957 14.7893 0.960859 14.4142 0.585786C14.0391 0.210714 13.5304 0 13 0V0ZM9 11H4V10H9V11ZM12 8H4V7H12V8ZM12 5H4V4H12V5Z" fill="black"/>
</g>
<defs>
<clipPath id="clip0_482_1959">
<rect width="16" height="16" fill="white"/>
</clipPath>
</defs>
</svg>
