<svg width="18" height="18" viewBox="0 0 18 18" fill="none" xmlns="http://www.w3.org/2000/svg">
<path d="M16.5 4.125H6.75C5.925 4.125 5.25 4.8 5.25 5.625V12.375C5.25 12.7728 5.40804 13.1544 5.68934 13.4357C5.97064 13.717 6.35218 13.875 6.75 13.875H16.5C17.3325 13.875 18 13.2075 18 12.375V5.625C18 5.22718 17.842 4.84564 17.5607 4.56434C17.2794 4.28304 16.8978 4.125 16.5 4.125ZM16.5 12.375H6.75V6.8775L11.625 9.375L16.5 6.8775V12.375ZM11.625 8.1075L6.75 5.625H16.5L11.625 8.1075ZM3.75 12.375C3.75 12.5025 3.7725 12.6225 3.7875 12.75H0.75C0.336 12.75 0 12.4125 0 12C0 11.5875 0.336 11.25 0.75 11.25H3.75V12.375ZM2.25 5.25H3.7875C3.7725 5.3775 3.75 5.4975 3.75 5.625V6.75H2.25C1.8375 6.75 1.5 6.4125 1.5 6C1.5 5.5875 1.8375 5.25 2.25 5.25ZM0.75 9C0.75 8.5875 1.0875 8.25 1.5 8.25H3.75V9.75H1.5C1.0875 9.75 0.75 9.4125 0.75 9Z" fill="#303030"/>
</svg>
