<svg width="84" height="85" viewBox="0 0 84 85" fill="none" xmlns="http://www.w3.org/2000/svg">
<path d="M19.9688 68.6943L33.3491 53.0603L21.9561 47.6074L19.9688 68.6943Z" fill="#757575"/>
<path d="M15.2949 43.5137C15.2949 43.5137 17.9069 67.301 18.2419 67.2867C18.5769 67.2724 21.9253 46.2505 21.9253 46.2505" stroke="white" stroke-width="5.84997" stroke-linecap="square" stroke-linejoin="bevel"/>
<path d="M47.6777 58.2302C47.5118 58.4945 47.2563 58.6902 46.9581 58.7814C46.6598 58.8727 46.3388 58.8535 46.0535 58.7273L1.31018 38.9339C1.06794 38.8267 0.864223 38.6479 0.726367 38.4216C0.588505 38.1952 0.52309 37.932 0.538899 37.6674C0.554707 37.4027 0.65098 37.1492 0.814805 36.9409C0.978631 36.7326 1.20217 36.5794 1.45545 36.5019L72.2328 14.8405C72.4864 14.7623 72.758 14.7637 73.0108 14.8446C73.2636 14.9256 73.4856 15.0821 73.6469 15.2932C73.8081 15.5043 73.9008 15.7598 73.9125 16.0252C73.9243 16.2907 73.8545 16.5534 73.7125 16.7779L47.6777 58.2302Z" fill="white"/>
<path d="M18.3982 61.9987L21.0231 47.2499L64.1269 21.3828L16.1934 45.488L18.3982 61.9987Z" fill="#3BD55A"/>
<path d="M2.54492 37.3711L14.3294 42.423" stroke="#3BD55A" stroke-width="1.67142" stroke-linecap="round"/>
<path d="M24.748 46.8242L46.6368 56.6225" stroke="#3BD55A" stroke-width="1.67142" stroke-linecap="round"/>
</svg>
