<svg width="99" height="64" viewBox="0 0 99 64" fill="none" xmlns="http://www.w3.org/2000/svg">
<g clip-path="url(#clip0_782_79675)">
<path fill-rule="evenodd" clip-rule="evenodd" d="M84.7134 60.7498H40.4365C34.3225 60.7498 29.3672 55.799 29.3672 49.6906V20.1998C29.3672 14.0914 34.3225 9.14062 40.4365 9.14062H84.7134C90.8274 9.14062 95.7827 14.0914 95.7827 20.1998V49.6906C95.7827 55.799 90.8274 60.7498 84.7134 60.7498Z" fill="#CFCFCF" stroke="#E1E1E1" stroke-width="0.928889" stroke-linecap="round" stroke-linejoin="round"/>
<path d="M45.9085 47.1445H36.4258" stroke="#E1E1E1" stroke-width="3.25111" stroke-linecap="round" stroke-linejoin="round"/>
<path d="M60.1819 47.1445H50.6992" stroke="#E1E1E1" stroke-width="3.25111" stroke-linecap="round" stroke-linejoin="round"/>
<path d="M74.4593 47.1445H64.9766" stroke="#E1E1E1" stroke-width="3.25111" stroke-linecap="round" stroke-linejoin="round"/>
<path d="M88.7366 47.1445H79.2539" stroke="#E1E1E1" stroke-width="3.25111" stroke-linecap="round" stroke-linejoin="round"/>
<path d="M44.0902 18.8789H38.3802C36.7205 18.8789 35.375 20.2232 35.375 21.8814V27.5861C35.375 29.2443 36.7205 30.5885 38.3802 30.5885H44.0902C45.7499 30.5885 47.0954 29.2443 47.0954 27.5861V21.8814C47.0954 20.2232 45.7499 18.8789 44.0902 18.8789Z" fill="#E1E1E1"/>
<path d="M77.3728 19.0312H77.2226C74.0276 19.0312 71.4375 21.6189 71.4375 24.811C71.4375 28.0031 74.0276 30.5908 77.2226 30.5908H77.3728C80.5678 30.5908 83.1579 28.0031 83.1579 24.811C83.1579 21.6189 80.5678 19.0312 77.3728 19.0312Z" fill="#E1E1E1"/>
<path d="M84.5877 19.0312H84.4374C81.2424 19.0312 78.6523 21.6189 78.6523 24.811C78.6523 28.0031 81.2424 30.5908 84.4374 30.5908H84.5877C87.7827 30.5908 90.3727 28.0031 90.3727 24.811C90.3727 21.6189 87.7827 19.0312 84.5877 19.0312Z" fill="#A4A4A4"/>
<path fill-rule="evenodd" clip-rule="evenodd" d="M58.565 55.1951H14.2881C8.17407 55.1951 3.21875 50.2443 3.21875 44.1359V14.6451C3.21875 8.53671 8.17407 3.58594 14.2881 3.58594H58.565C64.679 3.58594 69.6343 8.53671 69.6343 14.6451V44.1359C69.6343 50.2443 64.679 55.1951 58.565 55.1951Z" fill="#CFCFCF" stroke="#E1E1E1" stroke-width="0.928889" stroke-linecap="round" stroke-linejoin="round"/>
<path d="M19.7639 41.5898H10.2812" stroke="#E1E1E1" stroke-width="3.25111" stroke-linecap="round" stroke-linejoin="round"/>
<path d="M34.0413 41.5898H24.5586" stroke="#E1E1E1" stroke-width="3.25111" stroke-linecap="round" stroke-linejoin="round"/>
<path d="M48.3147 41.5898H38.832" stroke="#E1E1E1" stroke-width="3.25111" stroke-linecap="round" stroke-linejoin="round"/>
<path d="M62.5882 41.5898H53.1055" stroke="#E1E1E1" stroke-width="3.25111" stroke-linecap="round" stroke-linejoin="round"/>
<path d="M17.9456 13.3242H12.2357C10.576 13.3242 9.23047 14.6685 9.23047 16.3267V22.0314C9.23047 23.6896 10.576 25.0338 12.2357 25.0338H17.9456C19.6054 25.0338 20.9509 23.6896 20.9509 22.0314V16.3267C20.9509 14.6685 19.6054 13.3242 17.9456 13.3242Z" fill="#E1E1E1"/>
<path d="M51.2283 13.4766H51.078C47.883 13.4766 45.293 16.0642 45.293 19.2563C45.293 22.4484 47.883 25.0361 51.078 25.0361H51.2283C54.4233 25.0361 57.0134 22.4484 57.0134 19.2563C57.0134 16.0642 54.4233 13.4766 51.2283 13.4766Z" fill="#E1E1E1"/>
<path d="M58.4392 13.4766H58.289C55.094 13.4766 52.5039 16.0642 52.5039 19.2563C52.5039 22.4484 55.094 25.0361 58.289 25.0361H58.4392C61.6342 25.0361 64.2243 22.4484 64.2243 19.2563C64.2243 16.0642 61.6342 13.4766 58.4392 13.4766Z" fill="#A4A4A4"/>
</g>
<defs>
<clipPath id="clip0_782_79675">
<rect width="99" height="64" fill="white"/>
</clipPath>
</defs>
</svg>
