<svg width="307" height="212" viewBox="0 0 307 212" fill="none" xmlns="http://www.w3.org/2000/svg">
<g clip-path="url(#clip0_126_467)">
<path d="M34.577 22.2796C35.47 22.2796 36.1939 21.5596 36.1939 20.6714C36.1939 19.7832 35.47 19.0632 34.577 19.0632C33.684 19.0632 32.9601 19.7832 32.9601 20.6714C32.9601 21.5596 33.684 22.2796 34.577 22.2796Z" fill="white"/>
<path d="M40.7138 22.2796C41.6068 22.2796 42.3307 21.5596 42.3307 20.6714C42.3307 19.7832 41.6068 19.0632 40.7138 19.0632C39.8208 19.0632 39.0969 19.7832 39.0969 20.6714C39.0969 21.5596 39.8208 22.2796 40.7138 22.2796Z" fill="white"/>
<path d="M46.8506 22.2796C47.7436 22.2796 48.4675 21.5596 48.4675 20.6714C48.4675 19.7832 47.7436 19.0632 46.8506 19.0632C45.9576 19.0632 45.2337 19.7832 45.2337 20.6714C45.2337 21.5596 45.9576 22.2796 46.8506 22.2796Z" fill="white"/>
<path d="M235.975 24.4497H30.6483V25.5847H235.975V24.4497Z" fill="white"/>
<path d="M236.151 0.13298H0.100647V150.498H236.151V0.13298Z" fill="#E6E6E6"/>
<path d="M236.051 0H0V9.97445H236.051V0Z" fill="#3BD55A"/>
<path d="M229.597 18.0197H7.04553V75.3403H229.597V18.0197Z" fill="white"/>
<path d="M229.738 84.7596H7.18628V142.08H229.738V84.7596Z" fill="white"/>
<path d="M202.643 30.7001H82.1978V36.0394H202.643V30.7001Z" fill="#E6E6E6"/>
<path d="M125.142 44.048H82.1978V49.3873H125.142V44.048Z" fill="#E6E6E6"/>
<path d="M167.751 57.3959H82.1978V62.7352H167.751V57.3959Z" fill="#E6E6E6"/>
<path d="M73.1391 113.126C73.1455 117.014 72.0078 120.818 69.8663 124.07C69.4175 124.755 68.9257 125.412 68.3938 126.037C67.1465 127.506 65.6937 128.79 64.0797 129.849C63.6407 130.139 63.1895 130.409 62.7261 130.662C60.3138 131.989 57.6512 132.805 54.9062 133.057C54.2824 133.118 53.6481 133.147 53.0082 133.147C51.2544 133.148 49.5079 132.921 47.8136 132.471C46.8531 132.22 45.9136 131.896 45.0034 131.501C44.5382 131.301 44.0836 131.083 43.6394 130.849C42.571 130.291 41.5561 129.637 40.6072 128.895C40.1658 128.553 39.7402 128.193 39.3305 127.814C36.8789 125.555 35.0315 122.724 33.9553 119.576C32.879 116.429 32.6077 113.065 33.1658 109.787C33.7239 106.509 35.0939 103.421 37.152 100.802C39.2102 98.1826 41.8917 96.1142 44.9547 94.7836C48.0176 93.453 51.3654 92.9019 54.6961 93.1802C58.0267 93.4585 61.2352 94.5573 64.032 96.3776C66.8288 98.1978 69.1259 100.682 70.7158 103.606C72.3058 106.53 73.1386 109.802 73.1391 113.127V113.126Z" fill="#3BD55A"/>
<path d="M54.2434 103.78H51.7757V122.467H54.2434V103.78Z" fill="white"/>
<path d="M62.4034 111.897H43.6153V114.351H62.4034V111.897Z" fill="white"/>
<path d="M199.623 97.44H79.1783V102.779H199.623V97.44Z" fill="#E6E6E6"/>
<path d="M122.122 110.788H79.1783V116.127H122.122V110.788Z" fill="#E6E6E6"/>
<path d="M164.731 124.136H79.1783V129.475H164.731V124.136Z" fill="#E6E6E6"/>
<path d="M15.6118 6.61171C16.528 6.61171 17.2707 5.873 17.2707 4.96174C17.2707 4.05049 16.528 3.31177 15.6118 3.31177C14.6956 3.31177 13.9529 4.05049 13.9529 4.96174C13.9529 5.873 14.6956 6.61171 15.6118 6.61171Z" fill="white"/>
<path d="M21.9086 6.61171C22.8248 6.61171 23.5675 5.873 23.5675 4.96174C23.5675 4.05049 22.8248 3.31177 21.9086 3.31177C20.9925 3.31177 20.2498 4.05049 20.2498 4.96174C20.2498 5.873 20.9925 6.61171 21.9086 6.61171Z" fill="white"/>
<path d="M9.29859 6.61171C10.2148 6.61171 10.9575 5.873 10.9575 4.96174C10.9575 4.05049 10.2148 3.31177 9.29859 3.31177C8.38242 3.31177 7.63971 4.05049 7.63971 4.96174C7.63971 5.873 8.38242 6.61171 9.29859 6.61171Z" fill="white"/>
<path d="M65.0772 62.7821C63.3178 61.86 61.4813 61.0913 59.5884 60.4847L59.347 57.8289L49.5579 56.7799L48.3138 60.1744L44.8007 61.4857C44.675 61.5331 44.5553 61.5951 44.4442 61.6704H44.4404C44.2443 61.8021 44.0773 61.9723 43.9496 62.1705C43.8219 62.3686 43.7362 62.5906 43.6977 62.8228C43.6601 63.0537 43.669 63.2897 43.7238 63.5172L43.9094 64.2744C44.1767 64.4332 44.4516 64.5847 44.7263 64.7287L44.901 64.8174C45.3021 65.0242 45.7106 65.22 46.1302 65.401C46.2156 65.4379 46.3085 65.4749 46.3939 65.5118C46.4013 65.5155 46.4049 65.5155 46.4124 65.5192C46.6093 65.6004 46.806 65.678 47.0066 65.7519C47.6653 66.0021 48.3372 66.2167 49.0193 66.3946C50.7602 66.8561 52.5542 67.0895 54.3559 67.089C55.0132 67.089 55.6631 67.0594 56.3056 66.9967C57.7735 66.8619 59.2227 66.5709 60.6283 66.1286C60.6319 66.1286 60.6357 66.1249 60.6394 66.1249C61.5273 65.8436 62.3946 65.5017 63.2353 65.1018C63.2389 65.0981 63.2463 65.0981 63.2501 65.0944C63.4394 65.0058 63.6215 64.9097 63.8072 64.8174L63.8962 64.7731C64.0447 64.6955 64.1934 64.6179 64.3419 64.5366C64.7133 64.3335 65.0772 64.1193 65.4373 63.8903C65.5376 63.8312 65.6343 63.7684 65.7345 63.7019C65.8756 63.6095 66.0167 63.5135 66.1541 63.4138C65.8087 63.1921 65.4486 62.9816 65.0772 62.7821Z" fill="#242429"/>
<path d="M46.7058 64.4185L46.093 61.6667H44.4925C44.4763 61.6669 44.4602 61.6681 44.4442 61.6704H44.4404C43.8652 61.7188 43.3113 61.9092 42.8288 62.2244C42.5015 62.4322 42.2105 62.6917 41.9673 62.9927C42.4425 63.351 42.9365 63.6834 43.4453 64.0011L43.4676 64.0122C43.6123 64.1008 43.761 64.1894 43.9095 64.2744C44.1768 64.4332 44.4517 64.5847 44.7264 64.7287L44.901 64.8174C45.3021 65.0242 45.7106 65.22 46.1302 65.401C46.2157 65.4379 46.3085 65.4749 46.3939 65.5118C46.4013 65.5155 46.405 65.5155 46.4124 65.5192C46.6093 65.6004 46.8061 65.678 47.0066 65.7519L46.7058 64.4185Z" fill="#242429"/>
<path d="M54.0683 55.1009C57.962 55.1009 61.1185 51.9613 61.1185 48.0885C61.1185 44.2157 57.962 41.0762 54.0683 41.0762C50.1746 41.0762 47.0181 44.2157 47.0181 48.0885C47.0181 51.9613 50.1746 55.1009 54.0683 55.1009Z" fill="#FFB8B8"/>
<path d="M49.3349 44.673C50.0647 45.532 51.2998 45.7744 52.4391 45.8738C55.1029 46.0202 57.7743 45.8032 60.3789 45.229C60.5402 46.7848 60.1002 48.4624 61.0216 49.7422C61.4535 48.1928 61.7046 46.599 61.77 44.9925C61.8388 44.3032 61.7483 43.6074 61.5055 42.9582C61.3756 42.6328 61.1566 42.3502 60.8734 42.1425C60.5901 41.9348 60.2539 41.8103 59.903 41.7831C60.4283 41.3868 61.0435 41.1252 61.6945 41.0214L59.4559 39.9024L60.0308 39.3154L55.9779 39.0687L57.1518 38.327C55.385 38.0855 53.5977 38.0294 51.8191 38.1596C50.9932 38.2201 50.1298 38.3357 49.4606 38.8116C48.7914 39.2876 48.4048 40.2336 48.8202 40.9323C48.3001 41.0173 47.8104 41.2329 47.3975 41.5587C46.9847 41.8846 46.6623 42.3098 46.4609 42.7943C46.2062 43.5643 46.1447 44.3846 46.2818 45.1837C46.4345 46.4657 46.734 47.7262 47.1746 48.9406L49.3349 44.673Z" fill="black"/>
<path d="M73.8933 40.487C72.9042 37.6605 71.307 35.0827 69.2133 32.9332C67.1195 30.7838 64.5795 29.1145 61.7705 28.0417C58.9615 26.9689 55.951 26.5185 52.9489 26.7219C49.9469 26.9253 47.0256 27.7775 44.3888 29.2192C41.7519 30.6609 39.463 32.6574 37.6816 35.0693C35.9002 37.4813 34.6692 40.2508 34.0745 43.1845C33.4798 46.1183 33.5356 49.1458 34.2381 52.0559C34.9406 54.966 36.2729 57.6887 38.1421 60.034C38.3278 60.2667 38.5209 60.4994 38.7178 60.7247C38.7327 60.7395 38.7437 60.7543 38.7586 60.7691C39.2427 61.3238 39.7572 61.8516 40.2997 62.35C40.441 62.4793 40.5895 62.6122 40.738 62.7378C41.0201 62.989 41.3099 63.2291 41.6108 63.4581C41.7295 63.5504 41.8447 63.6428 41.9673 63.7314C42.4425 64.0897 42.9365 64.4221 43.4453 64.7398L43.4676 64.7509C43.6123 64.8395 43.761 64.9282 43.9095 65.0131C44.1768 65.172 44.4517 65.3234 44.7264 65.4675L44.901 65.5561C45.3021 65.7629 45.7106 65.9587 46.1302 66.1397C46.2157 66.1766 46.3085 66.2136 46.3939 66.2505C46.4013 66.2542 46.405 66.2542 46.4124 66.2579C46.6093 66.3392 46.8061 66.4167 47.0066 66.4906C47.6654 66.7408 48.3373 66.9554 49.0194 67.1333C50.7603 67.5948 52.5543 67.8282 54.3559 67.8277C55.0133 67.8277 55.6632 67.7982 56.3056 67.7354C57.7736 67.6006 59.2228 67.3096 60.6283 66.8674C60.632 66.8674 60.6358 66.8637 60.6394 66.8637C61.5273 66.5823 62.3947 66.2404 63.2353 65.8405C63.239 65.8368 63.2464 65.8368 63.2502 65.8331C63.4395 65.7445 63.6216 65.6484 63.8072 65.5561L63.8963 65.5118C64.0448 65.4342 64.1935 65.3566 64.342 65.2754C64.7133 65.0722 65.0773 64.858 65.4374 64.629C65.5377 64.5699 65.6343 64.5071 65.7346 64.4406C65.8757 64.3483 66.0167 64.2522 66.1542 64.1525C66.3361 64.0269 66.5181 63.8976 66.6964 63.7647C66.7521 63.724 66.8115 63.6834 66.8672 63.6391C70.3464 61.0124 72.9002 57.3576 74.1624 53.1985C75.4246 49.0394 75.3304 44.5896 73.8934 40.487H73.8933ZM66.1839 62.7415C66.0613 62.8375 65.9351 62.9299 65.8087 63.0148C65.6861 63.1072 65.5638 63.1958 65.4374 63.2771C65.3297 63.3547 65.2219 63.4285 65.1106 63.4987L65.0772 63.5209C64.9955 63.5763 64.9139 63.628 64.8321 63.6797C64.5238 63.8717 64.2119 64.0564 63.8962 64.2337C63.8629 64.2522 63.8293 64.2707 63.796 64.2892C63.6549 64.3667 63.5138 64.4406 63.3727 64.5145C63.3541 64.5256 63.3318 64.533 63.3133 64.544L63.291 64.5551C63.1127 64.6475 62.9307 64.7361 62.7488 64.8211C62.0466 65.1574 61.3234 65.4486 60.5837 65.6928C60.487 65.726 60.3906 65.7593 60.2941 65.7888C58.9637 66.2097 57.5917 66.4871 56.2017 66.6162C55.5926 66.6716 54.9761 66.7012 54.3559 66.7012C52.6518 66.7047 50.9548 66.4836 49.3091 66.0437C48.4646 65.8244 47.6368 65.5454 46.8322 65.2089C46.7912 65.1904 46.7466 65.1757 46.7058 65.1572C46.6613 65.1387 46.6203 65.124 46.5796 65.1055C46.5349 65.087 46.4941 65.0686 46.4496 65.0464C46.1005 64.8949 45.7551 64.7287 45.4172 64.5551L45.2539 64.4702C44.8415 64.2559 44.4368 64.0269 44.0431 63.7831C43.928 63.7129 43.8092 63.6391 43.6977 63.5615C43.6681 63.543 43.642 63.5246 43.6123 63.5061C43.3486 63.3325 43.085 63.1515 42.8287 62.9631C42.6543 62.8338 42.4797 62.7046 42.3089 62.5716C42.0229 62.3574 41.748 62.1283 41.4807 61.8919C41.3396 61.7738 41.2022 61.6445 41.0686 61.5226C40.542 61.039 40.0436 60.526 39.5757 59.986C39.4197 59.8087 39.2674 59.6314 39.1225 59.4467C39.0896 59.4102 39.0586 59.372 39.0297 59.3322C36.6168 56.3038 35.1655 52.6292 34.8608 48.7771C34.5561 44.925 35.4119 41.0699 37.319 37.7034C39.2261 34.337 42.098 31.6119 45.5686 29.8755C49.0392 28.1391 52.9511 27.4702 56.8054 27.9542C60.6597 28.4381 64.2818 30.0529 67.2097 32.5926C70.1376 35.1323 72.2386 38.4818 73.2447 42.214C74.2509 45.9462 74.1167 49.8919 72.8591 53.5479C71.6016 57.2039 69.2777 60.4045 66.1839 62.7415Z" fill="#242429"/>
<path d="M249.954 139.242C248.964 136.415 247.367 133.837 245.274 131.688C243.18 129.538 240.64 127.869 237.831 126.796C235.022 125.724 232.011 125.273 229.009 125.477C226.007 125.68 223.086 126.532 220.449 127.974C217.812 129.416 215.523 131.412 213.742 133.824C211.961 136.236 210.73 139.005 210.135 141.939C209.54 144.873 209.596 147.9 210.298 150.811C211.001 153.721 212.333 156.443 214.202 158.789C214.388 159.021 214.581 159.254 214.778 159.479C214.793 159.494 214.804 159.509 214.819 159.524C215.303 160.078 215.817 160.606 216.36 161.105C216.501 161.234 216.65 161.367 216.798 161.492C217.08 161.744 217.37 161.984 217.671 162.213C218.258 162.673 218.871 163.101 219.505 163.494L219.528 163.505C219.94 163.76 220.359 163.997 220.787 164.222L220.961 164.311C221.362 164.518 221.771 164.713 222.19 164.894C222.276 164.931 222.369 164.968 222.454 165.005C222.461 165.009 222.465 165.009 222.473 165.012C223.321 165.363 224.192 165.656 225.08 165.888C226.821 166.349 228.614 166.583 230.416 166.582C231.073 166.582 231.723 166.553 232.366 166.49C233.834 166.355 235.283 166.064 236.688 165.622C236.692 165.622 236.696 165.618 236.7 165.618C237.587 165.337 238.455 164.995 239.295 164.595C239.299 164.591 239.307 164.591 239.31 164.588C239.5 164.499 239.682 164.403 239.867 164.311L239.957 164.266C240.105 164.189 240.254 164.111 240.402 164.03C240.773 163.827 241.137 163.613 241.498 163.384C241.598 163.324 241.694 163.262 241.795 163.195C242.121 162.981 242.445 162.752 242.757 162.519C242.812 162.479 242.872 162.438 242.927 162.394C246.407 159.767 248.96 156.112 250.222 151.953C251.485 147.794 251.391 143.344 249.954 139.242Z" fill="white"/>
<path d="M237.243 154.487C238.956 154.487 240.344 153.106 240.344 151.403C240.344 149.7 238.956 148.319 237.243 148.319C235.531 148.319 234.143 149.7 234.143 151.403C234.143 153.106 235.531 154.487 237.243 154.487Z" fill="black"/>
<path d="M238.107 148.404C238.644 148.404 239.171 148.543 239.638 148.806C240.104 149.07 240.494 149.449 240.769 149.908C241.045 150.366 241.195 150.887 241.207 151.421C241.219 151.955 241.091 152.482 240.837 152.952C241.105 152.618 241.301 152.231 241.411 151.817C241.522 151.403 241.544 150.971 241.477 150.548C241.41 150.125 241.255 149.72 241.022 149.36C240.79 149 240.484 148.692 240.125 148.456C239.766 148.22 239.361 148.06 238.937 147.988C238.512 147.916 238.078 147.933 237.66 148.037C237.243 148.141 236.851 148.331 236.512 148.594C236.172 148.857 235.891 149.187 235.686 149.564C235.976 149.202 236.345 148.91 236.764 148.709C237.183 148.508 237.642 148.404 238.107 148.404H238.107Z" fill="black"/>
<path d="M231.449 151.397C236.479 151.397 240.557 147.341 240.557 142.337C240.557 137.334 236.479 133.278 231.449 133.278C226.419 133.278 222.341 137.334 222.341 142.337C222.341 147.341 226.419 151.397 231.449 151.397Z" fill="black"/>
<path d="M224.301 136.717C225.87 134.961 228.064 133.881 230.419 133.704C232.774 133.526 235.106 134.266 236.923 135.767C236.849 135.696 236.775 135.625 236.698 135.557C234.899 133.954 232.533 133.127 230.121 133.259C227.709 133.391 225.448 134.47 223.837 136.26C222.225 138.049 221.394 140.402 221.526 142.801C221.659 145.2 222.744 147.449 224.543 149.052C224.56 149.067 224.578 149.083 224.595 149.098C224.672 149.166 224.752 149.231 224.831 149.296C223.12 147.677 222.108 145.46 222.009 143.113C221.91 140.766 222.732 138.473 224.301 136.717H224.301Z" fill="black"/>
<path d="M231.372 151.32C234.612 151.32 237.238 148.708 237.238 145.485C237.238 142.263 234.612 139.651 231.372 139.651C228.132 139.651 225.506 142.263 225.506 145.485C225.506 148.708 228.132 151.32 231.372 151.32Z" fill="#A0616A"/>
<path d="M241.869 160.687V162.645C241.509 162.874 241.145 163.088 240.773 163.291C240.625 163.372 240.476 163.45 240.328 163.528L240.239 163.572C240.053 163.664 239.871 163.76 239.682 163.849C239.678 163.853 239.67 163.853 239.667 163.856C238.826 164.256 237.959 164.598 237.071 164.88C237.067 164.88 237.064 164.883 237.06 164.883C235.654 165.325 234.205 165.616 232.737 165.751C232.095 165.814 231.445 165.844 230.787 165.844C228.986 165.844 227.192 165.611 225.451 165.149C224.563 164.917 223.692 164.624 222.844 164.274C222.837 164.27 222.833 164.27 222.825 164.266C222.74 164.229 222.647 164.193 222.562 164.156C222.142 163.975 221.734 163.779 221.332 163.572L221.158 163.483C220.731 163.258 220.311 163.022 219.899 162.767L219.877 162.756C219.242 162.362 218.63 161.934 218.042 161.474C217.741 161.245 217.452 161.005 217.169 160.754C217.021 160.628 216.872 160.495 216.731 160.366C216.189 159.867 215.674 159.34 215.19 158.785C215.254 158.4 215.349 158.021 215.472 157.651L215.476 157.647C215.498 157.584 215.524 157.523 215.554 157.463C215.575 157.41 215.598 157.358 215.625 157.307C216.289 156.07 217.493 155.763 218.986 155.697C219.829 155.66 220.761 155.701 221.745 155.69C222.265 155.686 222.803 155.667 223.342 155.619C226.74 155.313 226.123 153.318 226.275 152.243C226.428 151.202 227.371 152.103 227.434 152.162L227.438 152.166C229.361 153.061 231.488 153.432 233.602 153.241C233.966 153.196 234.33 153.171 234.694 153.159C235.652 153.148 235.444 153.422 235.114 153.647C234.954 153.752 234.786 153.846 234.613 153.928C234.613 153.928 234.46 154.851 234.304 156.233C234.156 157.555 236.703 158.175 236.915 158.224C236.919 158.226 236.925 158.228 236.93 158.227C237.86 157.987 238.84 158.013 239.756 158.301H239.76C240.283 158.493 240.75 158.811 241.119 159.228C241.487 159.645 241.745 160.146 241.869 160.687Z" fill="#3BD55A"/>
<path d="M222.881 163.062C222.881 163.336 222.874 163.598 222.863 163.845C222.859 163.993 222.851 164.137 222.844 164.274C222.837 164.27 222.833 164.27 222.825 164.266C222.74 164.229 222.647 164.193 222.562 164.156C222.142 163.975 221.734 163.779 221.332 163.572L221.158 163.483C220.731 163.258 220.311 163.022 219.899 162.767C219.91 162.637 219.929 162.508 219.947 162.379C219.988 162.094 220.022 161.806 220.044 161.522C220.19 159.524 219.826 157.521 218.985 155.701V155.697C218.911 155.549 218.867 155.468 218.867 155.468C218.867 155.468 219.947 154.545 221.488 155.468C221.587 155.526 221.674 155.601 221.745 155.69C222.673 156.779 222.926 160.443 222.881 163.062Z" fill="black"/>
<path d="M239.745 162.56C239.73 162.974 239.708 163.406 239.682 163.845V163.849C239.678 163.853 239.67 163.853 239.667 163.856C238.826 164.256 237.959 164.598 237.071 164.88C237.067 164.88 237.064 164.883 237.06 164.883L237.019 163.845L237.015 163.709L236.818 158.656C236.813 158.541 236.831 158.427 236.872 158.32C236.912 158.213 236.974 158.115 237.053 158.032C237.133 157.949 237.228 157.883 237.334 157.838C237.44 157.793 237.554 157.769 237.669 157.769H239.552C239.644 157.769 239.711 157.958 239.756 158.297V158.301C239.847 159.719 239.844 161.142 239.745 162.56Z" fill="black"/>
<path d="M226.355 138.192V144.028H227.713L229.442 142.186L229.211 144.028H235.216L234.844 142.186L235.587 144.028H236.544V138.192H226.355Z" fill="black"/>
<path d="M225.429 145.101C225.684 145.101 225.892 144.723 225.892 144.257C225.892 143.791 225.684 143.413 225.429 143.413C225.173 143.413 224.965 143.791 224.965 144.257C224.965 144.723 225.173 145.101 225.429 145.101Z" fill="#A0616A"/>
<path d="M237.316 145.101C237.571 145.101 237.779 144.723 237.779 144.257C237.779 143.791 237.571 143.413 237.316 143.413C237.06 143.413 236.853 143.791 236.853 144.257C236.853 144.723 237.06 145.101 237.316 145.101Z" fill="#A0616A"/>
<path d="M243.128 161.781C242.816 162.013 242.493 162.242 242.166 162.456C242.066 162.523 241.969 162.586 241.869 162.645C241.509 162.874 241.145 163.088 240.773 163.291C240.625 163.372 240.476 163.45 240.328 163.528V159.457C240.328 159.457 240.922 159.93 241.869 160.717C241.988 160.816 242.11 160.92 242.24 161.031C242.515 161.26 242.812 161.511 243.128 161.781Z" fill="#3BD55A"/>
<path d="M249.954 139.242C248.964 136.415 247.367 133.837 245.274 131.688C243.18 129.538 240.64 127.869 237.831 126.796C235.022 125.724 232.011 125.273 229.009 125.477C226.007 125.68 223.086 126.532 220.449 127.974C217.812 129.416 215.523 131.412 213.742 133.824C211.961 136.236 210.73 139.005 210.135 141.939C209.54 144.873 209.596 147.9 210.298 150.811C211.001 153.721 212.333 156.443 214.202 158.789C214.388 159.021 214.581 159.254 214.778 159.479C214.793 159.494 214.804 159.509 214.819 159.524C215.303 160.078 215.817 160.606 216.36 161.105C216.501 161.234 216.65 161.367 216.798 161.492C217.08 161.744 217.37 161.984 217.671 162.213C218.258 162.673 218.871 163.101 219.505 163.494L219.528 163.505C219.94 163.76 220.359 163.997 220.787 164.222L220.961 164.311C221.362 164.518 221.771 164.713 222.19 164.894C222.276 164.931 222.369 164.968 222.454 165.005C222.461 165.009 222.465 165.009 222.473 165.012C223.321 165.363 224.192 165.656 225.08 165.888C226.821 166.349 228.614 166.583 230.416 166.582C231.073 166.582 231.723 166.553 232.366 166.49C233.834 166.355 235.283 166.064 236.688 165.622C236.692 165.622 236.696 165.618 236.7 165.618C237.587 165.337 238.455 164.995 239.295 164.595C239.299 164.591 239.307 164.591 239.31 164.588C239.5 164.499 239.682 164.403 239.867 164.311L239.957 164.266C240.105 164.189 240.254 164.111 240.402 164.03C240.773 163.827 241.137 163.613 241.498 163.384C241.598 163.324 241.694 163.262 241.795 163.195C242.121 162.981 242.445 162.752 242.757 162.519C242.812 162.479 242.872 162.438 242.927 162.394C246.407 159.767 248.96 156.112 250.222 151.953C251.485 147.794 251.391 143.344 249.954 139.242ZM242.244 161.496C242.121 161.592 241.995 161.684 241.869 161.769C241.746 161.862 241.624 161.95 241.498 162.032C241.39 162.109 241.282 162.183 241.171 162.253C241.078 162.316 240.985 162.375 240.892 162.434C240.584 162.626 240.272 162.811 239.957 162.988C239.923 163.007 239.89 163.025 239.856 163.044C239.715 163.121 239.574 163.195 239.433 163.269C239.414 163.28 239.392 163.288 239.373 163.299L239.351 163.31C239.173 163.402 238.991 163.491 238.809 163.576C238.107 163.912 237.384 164.203 236.644 164.447C236.547 164.481 236.451 164.514 236.354 164.543C235.024 164.964 233.652 165.242 232.262 165.371C231.653 165.426 231.036 165.456 230.416 165.456C228.712 165.459 227.015 165.238 225.369 164.798C224.525 164.579 223.697 164.3 222.892 163.963C222.807 163.93 222.721 163.893 222.64 163.86C222.595 163.842 222.554 163.823 222.51 163.801C222.161 163.65 221.815 163.483 221.477 163.31L221.314 163.225C220.902 163.011 220.497 162.782 220.103 162.538C219.959 162.449 219.814 162.357 219.673 162.261C219.227 161.969 218.792 161.655 218.369 161.326C218.083 161.112 217.808 160.883 217.541 160.647C217.4 160.528 217.262 160.399 217.129 160.277C216.602 159.794 216.104 159.281 215.636 158.741C215.48 158.563 215.328 158.386 215.183 158.201C215.15 158.165 215.119 158.127 215.09 158.087C212.677 155.058 211.226 151.384 210.921 147.532C210.616 143.68 211.472 139.824 213.379 136.458C215.286 133.092 218.158 130.366 221.629 128.63C225.099 126.894 229.011 126.225 232.866 126.709C236.72 127.193 240.342 128.807 243.27 131.347C246.198 133.887 248.299 137.236 249.305 140.969C250.311 144.701 250.177 148.646 248.919 152.302C247.662 155.958 245.338 159.159 242.244 161.496Z" fill="#242429"/>
<path d="M248.789 137.628C249.302 137.443 249.768 137.148 250.154 136.765C250.541 136.381 250.838 135.918 251.025 135.407C251.211 134.897 251.284 134.353 251.236 133.812C251.188 133.271 251.022 132.747 250.748 132.277L259.423 122.288L252.585 121.402L245.395 131.024C244.632 131.533 244.083 132.303 243.852 133.188C243.621 134.073 243.724 135.011 244.143 135.825C244.561 136.639 245.265 137.272 246.121 137.605C246.978 137.937 247.927 137.945 248.789 137.628V137.628Z" fill="#FFB8B8"/>
<path d="M297.684 139.739C298.044 139.331 298.31 138.849 298.462 138.327C298.614 137.806 298.65 137.258 298.566 136.721C298.483 136.185 298.282 135.673 297.978 135.222C297.674 134.771 297.274 134.391 296.807 134.111L299.564 121.199L293.144 123.703L291.51 135.58C291.088 136.392 290.98 137.33 291.206 138.216C291.433 139.102 291.979 139.875 292.74 140.387C293.501 140.9 294.425 141.117 295.336 140.998C296.247 140.878 297.083 140.43 297.684 139.739Z" fill="#FFB8B8"/>
<path d="M266.614 207.028L262.061 207.027L259.895 189.561L266.615 189.561L266.614 207.028Z" fill="#FFB8B8"/>
<path d="M267.775 211.417L253.095 211.417V211.232C253.095 210.486 253.243 209.747 253.53 209.057C253.817 208.368 254.238 207.741 254.769 207.214C255.299 206.686 255.929 206.267 256.622 205.982C257.316 205.696 258.059 205.549 258.809 205.549H258.809L267.775 205.549L267.775 211.417Z" fill="black"/>
<path d="M288.896 207.028L284.343 207.027L282.177 189.561L288.897 189.561L288.896 207.028Z" fill="#FFB8B8"/>
<path d="M290.057 211.417L275.377 211.417V211.232C275.377 210.486 275.525 209.747 275.812 209.057C276.099 208.368 276.52 207.741 277.05 207.214C277.581 206.686 278.211 206.267 278.904 205.982C279.597 205.696 280.34 205.549 281.091 205.549H281.091L290.057 205.549L290.057 211.417Z" fill="black"/>
<path d="M267.088 197.907L260.644 197.651C260.204 197.632 259.789 197.442 259.489 197.122C259.189 196.801 259.028 196.377 259.04 195.939L260.856 136.7L260.974 136.658C272.27 132.593 281.614 132.901 289.542 137.596L289.631 137.648L290.718 195.345C290.723 195.566 290.682 195.785 290.6 195.99C290.518 196.196 290.396 196.383 290.24 196.54C290.085 196.698 289.899 196.823 289.694 196.909C289.49 196.994 289.27 197.038 289.048 197.038H283.613C283.226 197.038 282.851 196.904 282.552 196.659C282.253 196.414 282.048 196.074 281.973 195.697L274.57 158.239C274.544 158.11 274.473 157.994 274.369 157.912C274.265 157.83 274.135 157.788 274.003 157.792C273.87 157.797 273.744 157.849 273.646 157.938C273.549 158.028 273.486 158.149 273.47 158.28L268.814 196.447C268.763 196.849 268.566 197.219 268.261 197.488C267.956 197.757 267.562 197.906 267.154 197.908C267.133 197.908 267.11 197.908 267.088 197.907Z" fill="black"/>
<path d="M273.358 84.7493C278.396 84.7493 282.48 80.6876 282.48 75.6772C282.48 70.6668 278.396 66.6051 273.358 66.6051C268.321 66.6051 264.237 70.6668 264.237 75.6772C264.237 80.6876 268.321 84.7493 273.358 84.7493Z" fill="#FFB8B8"/>
<path d="M251.871 130.417C251.555 130.293 251.284 130.076 251.095 129.795L249.332 127.172C249.142 126.887 249.044 126.552 249.052 126.21C249.06 125.869 249.173 125.538 249.376 125.262L256.481 115.671L260.933 94.4278C261.189 93.7719 261.572 93.1727 262.061 92.6643C262.55 92.156 263.135 91.7485 263.783 91.4651C264.43 91.1818 265.127 91.0281 265.835 91.0129C266.542 90.9977 267.245 91.1213 267.904 91.3766C268.563 91.6319 269.166 92.0139 269.676 92.5007C270.187 92.9876 270.596 93.5698 270.88 94.214C271.165 94.8582 271.319 95.5519 271.333 96.2553C271.348 96.9587 271.223 97.6581 270.966 98.3135L268.862 111.833C268.224 115.936 266.109 119.67 262.911 122.338L253.558 130.145C253.379 130.295 253.169 130.405 252.943 130.469C252.717 130.533 252.481 130.55 252.248 130.517C252.119 130.499 251.992 130.465 251.871 130.417Z" fill="#242429"/>
<path d="M297.295 131.38C296.975 131.495 296.627 131.51 296.298 131.423L293.233 130.612C292.901 130.523 292.605 130.336 292.384 130.074C292.163 129.813 292.028 129.49 291.998 129.15L290.959 117.281L280.189 98.41C279.945 97.7494 279.835 97.0475 279.864 96.3444C279.893 95.6413 280.062 94.9509 280.359 94.3125C280.657 93.6742 281.078 93.1005 281.599 92.6242C282.12 92.1479 282.73 91.7784 283.395 91.5368C284.059 91.2952 284.765 91.1863 285.472 91.2162C286.179 91.2461 286.873 91.4143 287.514 91.7112C288.156 92.008 288.732 92.4277 289.21 92.9463C289.688 93.4648 290.059 94.0721 290.301 94.7333L297.703 106.264C299.95 109.763 300.843 113.955 300.215 118.06L298.38 130.066C298.345 130.297 298.261 130.518 298.134 130.714C298.007 130.911 297.84 131.079 297.644 131.207C297.535 131.278 297.417 131.336 297.295 131.38Z" fill="#242429"/>
<path d="M263.382 91.7881C264.948 90.0793 266.881 88.7421 269.036 87.8752C271.192 87.0084 273.516 86.634 275.836 86.7796C275.989 86.789 276.141 86.7996 276.292 86.8113H276.292C278.492 86.9843 280.628 87.6223 282.56 88.6827C284.491 89.743 286.173 91.2013 287.492 92.96C288.834 94.7434 289.777 96.7909 290.259 98.9659C290.741 101.141 290.75 103.393 290.287 105.572C288.518 113.899 288.966 122.541 291.585 130.643L294.032 138.2C294.111 138.442 294.132 138.699 294.095 138.951C294.058 139.203 293.963 139.443 293.818 139.652C293.673 139.862 293.482 140.035 293.259 140.16C293.036 140.284 292.787 140.356 292.531 140.369L280.022 141.038L276.821 135.538V141.209L261.617 142.022C261.586 142.024 261.556 142.025 261.526 142.025C261.296 142.025 261.067 141.977 260.856 141.885C260.645 141.793 260.455 141.658 260.298 141.49C260.142 141.321 260.022 141.122 259.947 140.905C259.872 140.688 259.843 140.458 259.861 140.229L261.58 119.034L259.424 104.639C259.075 102.339 259.25 99.9902 259.935 97.7661C260.62 95.542 261.798 93.4992 263.382 91.7881Z" fill="#242429"/>
<path d="M279.698 84.3378C278.853 84.8211 275.515 85.1415 275.277 84.2018L275.272 84.1811C275.107 83.4926 275.244 82.7736 275.292 82.0672C275.339 81.3608 275.27 80.5848 274.786 80.0654C273.884 79.0973 272.28 79.6105 270.976 79.3657C270.213 79.1962 269.537 78.7556 269.077 78.1265C268.616 77.4975 268.401 76.7229 268.473 75.948C268.492 75.8011 268.521 75.6542 268.554 75.5073C268.635 75.1351 268.629 74.7491 268.535 74.3798C268.442 74.0104 268.263 73.6676 268.014 73.3784C267.765 73.0892 267.451 72.8613 267.099 72.7128C266.746 72.5643 266.364 72.499 265.981 72.5223C264.664 72.5972 263.241 72.9943 262.151 72.0236C261.308 71.2729 261.102 69.3189 261.473 68.2555C262.095 66.4684 266.083 65.5328 267.824 65.0185C269.977 64.3997 272.242 64.2659 274.454 64.6269C276.666 64.9878 278.769 65.8345 280.61 67.1052C281.71 67.8762 282.737 68.8449 283.205 70.0993C283.674 71.3536 283.448 72.9361 282.391 73.7642C283.21 74.6269 283.787 75.6886 284.064 76.843C284.341 77.9973 284.308 79.2037 283.968 80.3413C283.446 82.0144 280.955 83.6184 279.698 84.3378Z" fill="black"/>
<path d="M306.629 212H227.528C227.429 212 227.335 211.961 227.265 211.892C227.196 211.823 227.157 211.729 227.157 211.631C227.157 211.533 227.196 211.439 227.265 211.369C227.335 211.3 227.429 211.261 227.528 211.261H306.629C306.727 211.261 306.822 211.3 306.891 211.369C306.961 211.439 307 211.533 307 211.631C307 211.729 306.961 211.823 306.891 211.892C306.822 211.961 306.727 212 306.629 212Z" fill="#CCCCCC"/>
</g>
<defs>
<clipPath id="clip0_126_467">
<rect width="307" height="212" fill="white"/>
</clipPath>
</defs>
</svg>
