<?xml version="1.0" encoding="UTF-8"?><svg version="1.1" width="522px" height="316px" viewBox="0 0 522.0 316.0" xmlns="http://www.w3.org/2000/svg" xmlns:xlink="http://www.w3.org/1999/xlink"><defs><clipPath id="i0"><path d="M1440,0 L1440,1014 L0,1014 L0,0 L1440,0 Z"></path></clipPath><clipPath id="i1"><path d="M154.585531,48.7820028 C193.845835,114.708475 300.575074,82.1731942 283.078735,181.431707 C276.290402,219.917026 183.788727,279.927669 98.6348282,230.036864 C59.0308562,206.832502 67.7933154,185.58868 42.1025339,148.957002 C38.580574,143.935531 34.5592113,139.034059 30.4318545,134.134435 L29.353007,132.856237 C28.8126398,132.217081 28.2710512,131.577781 27.7291144,130.938076 L26.645035,129.658048 L25.561579,128.376472 C25.3811411,128.162722 25.2007939,127.948887 25.0205697,127.734959 L23.9409587,126.450187 C12.266764,112.517981 1.38535658,98.1081985 0.176481597,80.55402 C-1.43397038,57.2420453 8.11370918,34.7995215 23.2436697,22.2701636 C57.2696477,-5.90788561 115.325227,-17.1451825 154.585531,48.7820028 Z"></path></clipPath><linearGradient id="i2" x1="140.958135px" y1="388.604045px" x2="147.732179px" y2="-270.777557px" gradientUnits="userSpaceOnUse"><stop stop-color="#FFFFFF" offset="0%"></stop><stop stop-color="#EEEEEE" offset="100%"></stop></linearGradient><clipPath id="i3"><path d="M120.673693,14.1908507 C179.790825,43.9433152 193.249765,83.5897227 184.627565,98.9575484 C175.814807,114.682118 156.512812,116.842561 125.589653,113.854472 C102.333051,111.602703 81.1254792,109.861078 57.8674496,97.1838164 C41.5879709,88.3172966 28.7021318,76.3207033 19.2970038,64.6694385 C18.2778413,63.4072062 17.2183406,62.127151 16.1437344,60.8311479 L15.4973599,60.0516473 C15.0655043,59.5307244 14.6320393,59.0073099 14.1985797,58.4815237 L13.5485963,57.6910806 C13.3320712,57.4270167 13.1157492,57.1623748 12.8998324,56.89717 L12.253499,56.099882 C12.0385942,55.8335664 11.8242964,55.5667029 11.6108073,55.2993065 L10.9729686,54.4955335 C3.14119683,44.5629855 -3.30694897,33.9214151 1.85348164,23.3306365 C11.4370345,3.67117833 66.8579185,-12.8860325 120.673693,14.1908507 Z"></path></clipPath><linearGradient id="i4" x1="125.255642px" y1="200.866517px" x2="46.700912px" y2="-152.020543px" gradientUnits="userSpaceOnUse"><stop stop-color="#FFFFFF" offset="0%"></stop><stop stop-color="#EEEEEE" offset="100%"></stop></linearGradient><clipPath id="i5"><path d="M59,5.50870987 C59,5.50870987 54.1954192,29.5698103 37.9073162,37.8479422 C21.618513,46.1260741 0,35.4814295 0,35.4814295 C0,35.4814295 4.80458079,11.4210463 21.101786,3.15439195 C37.389889,-5.12373993 59,5.50870987 59,5.50870987 Z"></path></clipPath><linearGradient id="i6" x1="-24.6425562px" y1="63.669401px" x2="109.705762px" y2="-45.206684px" gradientUnits="userSpaceOnUse"><stop stop-color="#FFFFFF" offset="0%"></stop><stop stop-color="#EEEEEE" offset="100%"></stop></linearGradient><clipPath id="i7"><path d="M0,4.06309486 C0,4.06309486 25.3377113,-5.59209803 43.006222,4.86505623 C60.6854179,15.3102514 64,41.9283344 64,41.9283344 C64,41.9283344 38.6516034,51.5954863 20.9830927,41.1383321 C4.55137785,31.4131786 0.534375744,7.71043792 0.0525108528,4.43970748 L0.0262392841,4.2573831 C0.00828645526,4.12964006 0,4.06309486 0,4.06309486 Z"></path></clipPath><linearGradient id="i8" x1="89.3548078px" y1="74.8003091px" x2="-52.8110593px" y2="-55.64504px" gradientUnits="userSpaceOnUse"><stop stop-color="#FFFFFF" offset="0%"></stop><stop stop-color="#EEEEEE" offset="100%"></stop></linearGradient><clipPath id="i9"><path d="M9,0 C13.9705627,0 18,4.02943725 18,9 C18,13.9705627 13.9705627,18 9,18 C4.02943725,18 0,13.9705627 0,9 C0,4.02943725 4.02943725,0 9,0 Z"></path></clipPath><clipPath id="i10"><path d="M7.5,0 C11.6421356,0 15,3.35786438 15,7.5 C15,11.6421356 11.6421356,15 7.5,15 C3.35786438,15 0,11.6421356 0,7.5 C0,3.35786438 3.35786438,0 7.5,0 Z"></path></clipPath><clipPath id="i11"><path d="M8.5,0 C13.1944204,0 17,3.80557963 17,8.5 C17,13.1944204 13.1944204,17 8.5,17 C3.80557963,17 0,13.1944204 0,8.5 C0,3.80557963 3.80557963,0 8.5,0 Z"></path></clipPath><clipPath id="i12"><path d="M4,0 C6.209139,0 8,1.790861 8,4 C8,6.209139 6.209139,8 4,8 C1.790861,8 0,6.209139 0,4 C0,1.790861 1.790861,0 4,0 Z"></path></clipPath><clipPath id="i13"><path d="M5,0 C7.76142375,0 10,2.23857625 10,5 C10,7.76142375 7.76142375,10 5,10 C2.23857625,10 0,7.76142375 0,5 C0,2.23857625 2.23857625,0 5,0 Z"></path></clipPath><clipPath id="i14"><path d="M6,0 C9.3137085,0 12,2.6862915 12,6 C12,9.3137085 9.3137085,12 6,12 C2.6862915,12 0,9.3137085 0,6 C0,2.6862915 2.6862915,0 6,0 Z"></path></clipPath><clipPath id="i15"><path d="M5.59396,0 C8.6834188,0 11.18792,2.5045012 11.18792,5.59396 C11.18792,8.6834188 8.6834188,11.18792 5.59396,11.18792 C2.5045012,11.18792 0,8.6834188 0,5.59396 C0,2.5045012 2.5045012,0 5.59396,0 Z"></path></clipPath><clipPath id="i16"><path d="M6,0 C9.3137085,0 12,2.01471863 12,4.5 C12,6.98528137 9.3137085,9 6,9 C2.6862915,9 0,6.98528137 0,4.5 C0,2.01471863 2.6862915,0 6,0 Z"></path></clipPath><clipPath id="i17"><path d="M11.6423133,0 C18.0721854,0 23.2846267,5.21244123 23.2846267,11.6423133 C23.2846267,18.0721854 18.0721854,23.2846267 11.6423133,23.2846267 C5.21244123,23.2846267 0,18.0721854 0,11.6423133 C0,5.21244123 5.21244123,0 11.6423133,0 Z"></path></clipPath><clipPath id="i18"><path d="M5.31551613,179.944853 C5.75488031,186.603166 10.2463901,186.921139 10.540443,186.934832 L10.5555556,186.935411 C10.5555556,186.935411 5.27777778,187.04555 5.27777778,195 C5.27777778,187.290302 0.319789612,186.949615 0.0146826481,186.935949 L0,186.935411 C0,186.935411 4.78438383,186.828872 5.23864171,179.944853 L5.31551613,179.944853 Z M13.4104491,0 C13.8790863,6.65807059 18.670211,6.97574099 18.9838794,6.98941454 L19,6.98999224 C19,6.98999224 13.3703704,7.10052297 13.3703704,15.0551471 C13.3703704,7.10052297 7.74074074,6.98999224 7.74074074,6.98999224 L7.75685459,6.98941454 C8.07039122,6.97574099 12.8595074,6.65807059 13.3281446,0 L13.4104491,0 Z"></path></clipPath><clipPath id="i19"><path d="M87.7892705,0 C92.8612203,0 97.7269939,2.00141773 101.323156,5.56720727 L128.391639,32.4328717 C131.978275,35.9890426 133.996455,40.823002 134,45.866059 L134,152.000316 C134,162.497524 125.433907,171 114.857754,171 L19.1429589,171 C8.56680545,171 0,162.497524 0,152.000316 L0,19.0003947 C0,8.50247593 8.56680545,0 19.1429589,0 Z"></path></clipPath><clipPath id="i20"><path d="M29.5,36.1935484 C44.427135,36.1935484 59,44.559123 59,57.4253388 L59,61.7464612 C59,64.0942851 57.1119663,66 54.7853126,66 L4.21468738,66 C1.88803374,66 0,64.0942851 0,61.7464612 L0,57.4253388 C0,44.5548991 14.572865,36.1935484 29.5,36.1935484 Z M39.9298911,4.46883288 C45.6900363,10.4272767 45.6900363,20.088144 39.9298911,26.0472962 C34.1697459,32.00574 24.8302541,32.00574 19.0701089,26.0472962 C13.3099637,20.088144 13.3099637,10.4272767 19.0701089,4.46883288 C24.8302541,-1.48961096 34.1697459,-1.48961096 39.9298911,4.46883288 Z"></path></clipPath><clipPath id="i21"><path d="M125.132751,0 C132.362136,0 139.297604,2.85603069 144.423672,7.94381082 L183.005513,46.279284 C188.118093,51.3532529 190.99496,58.2507558 191,65.4466636 L191,216.88881 C191,231.867608 178.789379,244 163.714592,244 L27.286123,244 C12.2106205,244 0,231.867608 0,216.88881 L0,27.1111904 C0,12.1323916 12.2106205,0 27.286123,0 Z"></path></clipPath><clipPath id="i22"><path d="M42.5,51.2727273 C64.004632,51.2727273 85,63.2657616 85,81.7091478 L85,87.9036179 C85,91.2691734 82.2796462,94 78.9287752,94 L6.07122478,94 C2.71964052,94 0,91.2691734 0,87.9036179 L0,81.7091478 C0,63.2593646 20.9946548,51.2727273 42.5,51.2727273 Z M56.6854574,6.36166118 C64.9143713,14.8431659 64.9143713,28.5955179 56.6854574,37.0777328 C48.4565435,45.5599477 35.1148851,45.5599477 26.8859712,37.0777328 C18.6570572,28.5955179 18.6570572,14.8431659 26.8859712,6.36166118 C35.1148851,-2.12055373 48.4565435,-2.12055373 56.6854574,6.36166118 Z"></path></clipPath><clipPath id="i23"><path d="M87.7892705,0 C92.8612049,0 97.72695,2.00148348 101.323156,5.56720727 L128.390926,32.4328717 C131.978024,35.9887919 133.996502,40.8228525 134,45.866059 L134,152.000316 C134,162.497524 125.433907,171 114.857041,171 L19.1429589,171 C8.56609292,171 0,162.497524 0,152.000316 L0,19.0003947 C0,8.50247593 8.56609292,0 19.1429589,0 Z"></path></clipPath><clipPath id="i24"><path d="M29.4996485,36.1935484 C44.4269613,36.1935484 59,44.559123 59,57.4253388 L59,61.7464612 C59,64.0942851 57.1119438,66 54.7859653,66 L4.21403467,66 C1.88805623,66 0,64.0942851 0,61.7464612 L0,57.4253388 C0,44.5548991 14.5730387,36.1935484 29.4996485,36.1935484 Z M39.929969,4.46883288 C45.6900103,10.4272767 45.6900103,20.088144 39.929969,26.0472962 C34.1692184,32.00574 24.8306043,32.00574 19.0705629,26.0472962 C13.3098124,20.088144 13.3098124,10.4272767 19.0705629,4.46883288 C24.8306043,-1.48961096 34.1692184,-1.48961096 39.929969,4.46883288 Z"></path></clipPath></defs><g transform="translate(-583.0 -449.0)"><g clip-path="url(#i0)"><g transform="translate(586.0 446.9999999999993)"><g transform="translate(115.0 68.93333333334704)"><g clip-path="url(#i1)"><polygon points="9.43689571e-15,-1.42108547e-14 285,-1.42108547e-14 285,249 9.43689571e-15,249 9.43689571e-15,-1.42108547e-14" stroke="none" fill="url(#i2)"></polygon></g></g><g transform="translate(250.0 13.933333333347036)"><g clip-path="url(#i3)"><polygon points="-1.77635684e-14,-7.10542736e-15 187,-7.10542736e-15 187,115 -1.77635684e-14,115 -1.77635684e-14,-7.10542736e-15" stroke="none" fill="url(#i4)"></polygon></g></g><g transform="translate(457.0 107.93333333334698)"><g clip-path="url(#i5)"><polygon points="0,-8.43769499e-15 59,-8.43769499e-15 59,41 0,41 0,-8.43769499e-15" stroke="none" fill="url(#i6)"></polygon></g></g><g transform="translate(2.0 161.933333333347)"><g clip-path="url(#i7)"><polygon points="0,-1.687539e-14 64,-1.687539e-14 64,46 0,46 0,-1.687539e-14" stroke="none" fill="url(#i8)"></polygon></g></g><g transform="translate(472.0 98.93333333334704) rotate(180.0)"><g clip-path="url(#i9)"><polygon points="0,0 18,0 18,18 0,18 0,0" stroke="none" fill="#3BD559"></polygon></g></g><g transform="translate(193.0 124.933333333347) rotate(180.0)"><g clip-path="url(#i10)"><polygon points="0,0 15,0 15,15 0,15 0,0" stroke="none" fill="#3BD559"></polygon></g></g><g transform="translate(97.0 173.933333333347) scale(-1.0 1.0)"><g clip-path="url(#i11)"><polygon points="0,0 17,0 17,17 0,17 0,0" stroke="none" fill="#3BD559"></polygon></g></g><g transform="translate(449.0 133.933333333347) scale(-1.0 1.0)"><g clip-path="url(#i12)"><polygon points="0,0 8,0 8,8 0,8 0,0" stroke="none" fill="#3BD559"></polygon></g></g><g transform="translate(447.0 280.933333333347) scale(-1.0 1.0)"><g clip-path="url(#i13)"><polygon points="0,0 10,0 10,10 0,10 0,0" stroke="none" fill="#E1E3E5"></polygon></g></g><g transform="translate(52.0 254.93333333334704) scale(-1.0 1.0)"><g clip-path="url(#i12)"><polygon points="0,0 8,0 8,8 0,8 0,0" stroke="none" fill="#E1E3E5"></polygon></g></g><g transform="translate(473.0 229.933333333347) scale(-1.0 1.0)"><g clip-path="url(#i14)"><polygon points="0,0 12,0 12,12 0,12 0,0" stroke="none" fill="#E1E3E5"></polygon></g></g><g transform="translate(414.0 55.93333333334704) scale(-1.0 1.0)"><g clip-path="url(#i14)"><polygon points="0,0 12,0 12,12 0,12 0,0" stroke="none" fill="#E1E3E5"></polygon></g></g><g transform="translate(61.11999999999536 129.1556467710864) rotate(75.00000000000001) scale(1.0 -1.0)"><g clip-path="url(#i15)"><polygon points="0,4.54747351e-13 11.18792,4.54747351e-13 11.18792,11.18792 0,11.18792 0,4.54747351e-13" stroke="none" fill="#E1E3E5"></polygon></g></g><g transform="translate(220.0 12.93333333334704) scale(-1.0 1.0)"><g clip-path="url(#i13)"><polygon points="0,0 10,0 10,10 0,10 0,0" stroke="none" fill="#E1E3E5"></polygon></g></g><g transform="translate(454.0 200.933333333347) scale(-1.0 1.0)"><g clip-path="url(#i16)"><polygon points="0,0 12,0 12,9 0,9 0,0" stroke="none" fill="#E1E3E5"></polygon></g></g><g transform="translate(325.05333333332965 6.026504839435294) rotate(75.00000000000001) scale(1.0 -1.0)"><g clip-path="url(#i17)"><polygon points="1.8189894e-12,6.82121026e-13 23.2846267,6.82121026e-13 23.2846267,23.2846267 1.8189894e-12,23.2846267 1.8189894e-12,6.82121026e-13" stroke="none" fill="#E1E3E5"></polygon></g></g><g transform="translate(80.0 94.93333333334702)"><g clip-path="url(#i18)"><polygon points="0,0 19,0 19,195 0,195 0,0" stroke="none" fill="#E1E3E5"></polygon></g></g><g transform="translate(0.0 71.93333333334704)"><g clip-path="url(#i19)"><polygon points="0,0 134,0 134,171 0,171 0,0" stroke="none" fill="#FFFFFF"></polygon></g><path d="M128.391639,32.4328717 L101.323156,5.56720727 C97.7269939,2.00141773 92.8612203,0 87.7892705,0 L19.1429589,0 C8.56680545,0 0,8.50247593 0,19.0003947 L0,152.000316 C0,162.497524 8.56680545,171 19.1429589,171 L114.857754,171 C125.433907,171 134,162.497524 134,152.000316 L134,45.866059 C133.996455,40.823002 131.978275,35.9890426 128.391639,32.4328717 L128.391639,32.4328717 Z" stroke="#E1E3E5" stroke-width="4.64" fill="none" stroke-miterlimit="10"></path></g><g transform="translate(34.0 191.933333333347)"><path d="M0,18.6481481 L66,18.6481481 M0,0.351851852 L66,0.351851852" stroke="#E1E3E5" stroke-width="10" fill="none" stroke-linecap="round" stroke-linejoin="round"></path></g><g transform="translate(38.0 107.93333333334698)"><g clip-path="url(#i20)"><polygon points="0,0 59,0 59,66 0,66 0,0" stroke="none" fill="#3BD559"></polygon></g></g><g transform="translate(163.0 35.933333333347036)"><g clip-path="url(#i21)"><polygon points="0,0 191,0 191,244 0,244 0,0" stroke="none" fill="#FFFFFF"></polygon></g><path d="M183.005513,46.279284 L144.423672,7.94381082 C139.297604,2.85603069 132.362136,0 125.132751,0 L27.286123,0 C12.2106205,0 0,12.1323916 0,27.1111904 L0,216.88881 C0,231.867608 12.2106205,244 27.286123,244 L163.714592,244 C178.789379,244 191,231.867608 191,216.88881 L191,65.4466636 C190.99496,58.2507558 188.118093,51.3532529 183.005513,46.279284 L183.005513,46.279284 Z" stroke="#E1E3E5" stroke-width="4.64" fill="none" stroke-miterlimit="10"></path></g><g transform="translate(211.0 205.933333333347)"><path d="M0,0.5 L95,0.5" stroke="#E1E3E5" stroke-width="10" fill="none" stroke-linecap="round" stroke-linejoin="round"></path></g><g transform="translate(216.0 86.93333333334704)"><g clip-path="url(#i22)"><polygon points="0,0 85,0 85,94 0,94 0,0" stroke="none" fill="#3BD559"></polygon></g></g><g transform="translate(382.0 71.93333333334704)"><g clip-path="url(#i23)"><polygon points="0,0 134,0 134,171 0,171 0,0" stroke="none" fill="#FFFFFF"></polygon></g><path d="M128.390926,32.4328717 L101.323156,5.56720727 C97.72695,2.00148348 92.8612049,0 87.7892705,0 L19.1429589,0 C8.56609292,0 0,8.50247593 0,19.0003947 L0,152.000316 C0,162.497524 8.56609292,171 19.1429589,171 L114.857041,171 C125.433907,171 134,162.497524 134,152.000316 L134,45.866059 C133.996502,40.8228525 131.978024,35.9887919 128.390926,32.4328717 Z" stroke="#E1E3E5" stroke-width="4.64" fill="none" stroke-miterlimit="10"></path></g><g transform="translate(416.0 191.933333333347)"><path d="M0,18.6481481 L66,18.6481481 M0,0.351851852 L66,0.351851852" stroke="#E1E3E5" stroke-width="10" fill="none" stroke-linecap="round" stroke-linejoin="round"></path></g><g transform="translate(419.0 107.93333333334698)"><g clip-path="url(#i24)"><polygon points="0,0 59,0 59,66 0,66 0,0" stroke="none" fill="#3BD559"></polygon></g></g><g transform="translate(325.0 219.933333333347)"><path d="M36,36 L0,0" stroke="#3BD559" stroke-width="28.186" fill="none" stroke-linecap="round" stroke-linejoin="round"></path></g><g transform="translate(156.0 35.933333333347036)"><path d="M102.5,205 C159.109187,205 205,159.109187 205,102.5 C205,45.8908131 159.109187,0 102.5,0 C45.8908131,0 0,45.8908131 0,102.5 C0,159.109187 45.8908131,205 102.5,205 Z" stroke="#3BD559" stroke-width="25.854" fill="none" stroke-linecap="round" stroke-linejoin="round"></path></g></g></g></g></svg>