<svg width="330" height="262" viewBox="0 0 330 262" fill="none" xmlns="http://www.w3.org/2000/svg">
<g clip-path="url(#clip0_492_1111)">
<path d="M139.926 251.716C141.134 251.791 141.801 250.294 140.887 249.422L140.796 249.061C140.808 249.032 140.82 249.004 140.833 248.975C142.054 246.07 146.194 246.09 147.405 248.999C148.479 251.582 149.848 254.168 150.185 256.899C150.336 258.104 150.268 259.332 150 260.515C152.518 255.027 153.844 249.034 153.844 243.007C153.844 241.493 153.761 239.979 153.591 238.469C153.451 237.233 153.259 236.005 153.009 234.789C151.661 228.212 148.742 221.948 144.532 216.716C142.508 215.613 140.82 213.887 139.801 211.82C139.435 211.074 139.148 210.271 139.012 209.454C139.242 209.484 139.88 205.985 139.706 205.77C140.027 205.284 140.602 205.043 140.953 204.569C142.696 202.211 145.098 202.623 146.352 205.827C149.031 207.176 149.057 209.412 147.413 211.563C146.368 212.932 146.224 214.784 145.306 216.249C145.401 216.37 145.499 216.486 145.593 216.607C147.324 218.822 148.822 221.202 150.084 223.703C149.727 220.924 150.254 217.575 151.152 215.417C152.174 212.957 154.089 210.886 155.776 208.76C157.802 206.206 161.958 207.32 162.315 210.558C162.318 210.589 162.321 210.621 162.325 210.652C162.074 210.793 161.829 210.943 161.589 211.101C160.221 212.003 160.694 214.118 162.314 214.368L162.351 214.373C162.261 215.274 162.106 216.166 161.879 217.044C164.043 225.393 159.371 228.433 152.7 228.57C152.552 228.645 152.409 228.72 152.262 228.792C152.938 230.69 153.478 232.638 153.878 234.612C154.237 236.355 154.486 238.118 154.625 239.889C154.799 242.122 154.784 244.367 154.595 246.597L154.607 246.518C155.086 244.062 156.423 241.768 158.364 240.179C161.255 237.809 165.34 236.937 168.459 235.033C169.961 234.116 171.885 235.301 171.623 237.037L171.61 237.12C171.145 237.308 170.692 237.527 170.254 237.772C170.004 237.913 169.758 238.063 169.518 238.221C168.151 239.123 168.623 241.238 170.244 241.488L170.281 241.493C170.307 241.497 170.33 241.501 170.356 241.505C169.559 243.392 168.449 245.143 167.06 246.654C165.707 253.942 159.895 254.633 153.678 252.511H153.674C152.994 255.464 152.001 258.349 150.725 261.099H140.19C140.152 260.982 140.118 260.861 140.084 260.745C141.058 260.805 142.04 260.748 142.999 260.571C142.218 259.615 141.436 258.65 140.654 257.694C140.635 257.675 140.62 257.656 140.605 257.637C140.209 257.147 139.808 256.661 139.412 256.172L139.412 256.171C139.387 254.668 139.568 253.17 139.926 251.716L139.926 251.716Z" fill="#F2F2F2"/>
<path d="M0 261.306C0 261.691 0.309867 262 0.695735 262H236.468C236.854 262 237.163 261.691 237.163 261.306C237.163 260.921 236.854 260.612 236.468 260.612H0.695735C0.309867 260.612 0 260.921 0 261.306Z" fill="#CCCCCC"/>
<path d="M318.469 261.845H197.715C191.356 261.845 186.184 256.685 186.184 250.342V11.5029C186.184 5.16029 191.356 0 197.715 0H318.469C324.827 0 330.001 5.16029 330.001 11.5029V250.342C330.001 256.685 324.827 261.845 318.469 261.845ZM197.715 1.16635C191.992 1.16635 187.353 5.79405 187.353 11.5026V250.342C187.353 256.051 191.992 260.679 197.715 260.679H318.469C324.192 260.679 328.831 256.051 328.831 250.342V87.8872C328.831 39.9926 289.909 1.16635 241.895 1.16635H197.715Z" fill="#242429"/>
<path d="M220.48 117.87C228.229 117.87 234.511 111.604 234.511 103.874C234.511 96.1442 228.229 89.8779 220.48 89.8779C212.731 89.8779 206.449 96.1442 206.449 103.874C206.449 111.604 212.731 117.87 220.48 117.87Z" fill="white"/>
<path d="M295.701 117.87C303.45 117.87 309.732 111.604 309.732 103.874C309.732 96.1442 303.45 89.8779 295.701 89.8779C287.952 89.8779 281.67 96.1442 281.67 103.874C281.67 111.604 287.952 117.87 295.701 117.87Z" fill="white"/>
<path d="M258.091 117.87C265.841 117.87 272.122 111.604 272.122 103.874C272.122 96.1442 265.841 89.8779 258.091 89.8779C250.342 89.8779 244.061 96.1442 244.061 103.874C244.061 111.604 250.342 117.87 258.091 117.87Z" fill="white"/>
<path d="M220.48 158.109C228.229 158.109 234.511 151.843 234.511 144.113C234.511 136.383 228.229 130.117 220.48 130.117C212.731 130.117 206.449 136.383 206.449 144.113C206.449 151.843 212.731 158.109 220.48 158.109Z" fill="white"/>
<path d="M295.703 158.109C303.452 158.109 309.734 151.843 309.734 144.113C309.734 136.383 303.452 130.117 295.703 130.117C287.954 130.117 281.672 136.383 281.672 144.113C281.672 151.843 287.954 158.109 295.703 158.109Z" fill="white"/>
<path d="M258.091 158.109C265.841 158.109 272.122 151.843 272.122 144.113C272.122 136.383 265.841 130.117 258.091 130.117C250.342 130.117 244.061 136.383 244.061 144.113C244.061 151.843 250.342 158.109 258.091 158.109Z" fill="white"/>
<path d="M220.48 198.348C228.229 198.348 234.511 192.082 234.511 184.352C234.511 176.622 228.229 170.356 220.48 170.356C212.731 170.356 206.449 176.622 206.449 184.352C206.449 192.082 212.731 198.348 220.48 198.348Z" fill="white"/>
<path d="M295.416 238.518C303.165 238.518 309.447 232.252 309.447 224.522C309.447 216.792 303.165 210.526 295.416 210.526C287.667 210.526 281.385 216.792 281.385 224.522C281.385 232.252 287.667 238.518 295.416 238.518Z" fill="white"/>
<path d="M239.584 238.518C257.826 238.518 272.615 232.252 272.615 224.522C272.615 216.792 257.826 210.526 239.584 210.526C221.341 210.526 206.553 216.792 206.553 224.522C206.553 232.252 221.341 238.518 239.584 238.518Z" fill="white"/>
<path d="M295.703 198.348C303.452 198.348 309.734 192.082 309.734 184.352C309.734 176.622 303.452 170.356 295.703 170.356C287.954 170.356 281.672 176.622 281.672 184.352C281.672 192.082 287.954 198.348 295.703 198.348Z" fill="white"/>
<path d="M258.091 198.348C265.841 198.348 272.122 192.082 272.122 184.352C272.122 176.622 265.841 170.356 258.091 170.356C250.342 170.356 244.061 176.622 244.061 184.352C244.061 192.082 250.342 198.348 258.091 198.348Z" fill="#3BD55A"/>
<path d="M260.848 16.3291H126.658C122.679 16.3291 119.443 19.5566 119.443 23.5257V72.6985C119.443 76.6676 122.679 79.8951 126.658 79.8951H260.848C264.827 79.8951 268.063 76.6676 268.063 72.6985V23.5257C268.063 19.5566 264.827 16.3291 260.848 16.3291Z" fill="white"/>
<path d="M159.209 40.0298C157.577 40.0298 156.295 39.4122 155.361 38.177C154.439 36.9294 153.979 35.2763 153.979 33.2178C153.979 31.1592 154.439 29.5123 155.361 28.2772C156.295 27.0296 157.577 26.4058 159.209 26.4058C160.852 26.4058 162.135 27.0296 163.057 28.2772C163.978 29.5123 164.439 31.1592 164.439 33.2178C164.439 35.2763 163.978 36.9294 163.057 38.177C162.135 39.4122 160.852 40.0298 159.209 40.0298ZM157.229 36.4179C157.677 37.1415 158.337 37.5033 159.209 37.5033C160.08 37.5033 160.74 37.1353 161.189 36.3992C161.649 35.6631 161.88 34.6026 161.88 33.2178C161.88 31.8204 161.649 30.7537 161.189 30.0176C160.74 29.2815 160.08 28.9135 159.209 28.9135C158.337 28.9135 157.677 29.2815 157.229 30.0176C156.78 30.7537 156.556 31.8204 156.556 33.2178C156.556 34.6151 156.78 35.6818 157.229 36.4179Z" fill="black"/>
<path d="M260.848 16.3291H126.658C122.679 16.3291 119.443 19.5566 119.443 23.5257V72.6985C119.443 76.6676 122.679 79.8951 126.658 79.8951H260.848C264.827 79.8951 268.063 76.6676 268.063 72.6985V23.5257C268.063 19.5566 264.827 16.3291 260.848 16.3291ZM267.304 72.6985C267.304 76.2514 264.41 79.1384 260.848 79.1384H126.658C123.096 79.1384 120.202 76.2514 120.202 72.6985V23.5257C120.202 19.9728 123.096 17.0858 126.658 17.0858H260.848C264.41 17.0858 267.304 19.9728 267.304 23.5257V72.6985Z" fill="#242429"/>
<path d="M253.385 46.0708H134.122C132.992 46.0708 132.076 46.9846 132.076 48.1119C132.076 49.2392 132.992 50.153 134.122 50.153H253.385C254.515 50.153 255.431 49.2392 255.431 48.1119C255.431 46.9846 254.515 46.0708 253.385 46.0708Z" fill="#3BD55A"/>
<path d="M39.7265 105.217L38.5312 112.317L49.1308 138.037L54.8178 135.121L49.2826 111.052L48.4871 101.866L39.7265 105.217Z" fill="#FFB8B8"/>
<path d="M51.4269 65.2736C51.4269 65.2736 45.8773 62.5919 41.571 71.6529C37.2647 80.7138 37.798 100.587 37.798 100.587C37.798 100.587 36.23 102.076 37.2254 103.119C38.2208 104.162 39.1487 105.816 38.1333 107.724C37.5982 108.729 36.3596 110.696 38.3879 111.255C40.4161 111.814 49.9037 109.174 49.9037 109.174C49.9037 109.174 53.4514 107.589 51.4356 106.521C49.4199 105.454 52.2588 98.9951 52.2588 98.9951L54.6046 80.3385L51.4269 65.2736Z" fill="#94EDA6"/>
<path d="M55.7852 147.864C58.0128 147.181 58.8846 143.594 57.7326 139.852C56.5805 136.11 53.8409 133.629 51.6133 134.311C49.3858 134.994 48.514 138.581 49.666 142.323C50.8181 146.065 53.5577 148.546 55.7852 147.864Z" fill="#FFB8B8"/>
<path d="M108.317 258.095L113.629 256.673L110.658 235.557L102.818 237.656L108.317 258.095Z" fill="#FFB8B8"/>
<path d="M126.485 253.103C126.725 253.337 127.054 254.21 127.141 254.534C127.408 255.527 126.817 256.548 125.822 256.815L109.371 261.218C108.691 261.4 107.993 260.998 107.811 260.32L107.627 259.637C107.627 259.637 106.261 257.802 107.255 254.822C107.255 254.822 109.871 256.246 112.148 252.31L112.619 250.406L120.565 253.474L124.368 252.94C125.2 252.824 125.884 252.518 126.485 253.103H126.485Z" fill="#2F2E41"/>
<path d="M56.2472 257.973L61.7473 257.973L64.3637 236.811L56.2461 236.811L56.2472 257.973Z" fill="#FFB8B8"/>
<path d="M75.0909 257.849C75.2621 258.136 75.3525 259.065 75.3525 259.4C75.3525 260.428 74.5167 261.262 73.4858 261.262H56.4527C55.7494 261.262 55.1792 260.693 55.1792 259.991V259.284C55.1792 259.284 54.3366 257.158 56.0714 254.537C56.0714 254.537 58.2275 256.589 61.4493 253.376L62.3994 251.659L69.2766 256.676L73.0885 257.144C73.9225 257.246 74.6619 257.128 75.0909 257.849Z" fill="#2F2E41"/>
<path d="M92.852 131.917L107.315 194.102L114.297 244.348L103.325 245.84L72.9033 160.273L65.9213 245.84L53.4534 246.835C53.4534 246.835 43.4791 145.349 47.9675 132.912L92.852 131.917Z" fill="#2F2E41"/>
<path d="M110.065 58.3841L115.055 53.1828L120.786 25.9679L114.439 25.1904L105.451 48.1994L100.932 56.2419L110.065 58.3841Z" fill="#FFB8B8"/>
<path d="M77.877 84.8545C77.877 84.8545 82.5471 93.4444 91.2152 88.3662C99.8834 83.288 109.051 63.2945 109.051 63.2945C109.051 63.2945 110.881 58.212 112.796 57.2039C113.806 56.6726 116.402 56.0996 115.04 54.5C113.678 52.9005 103.88 49.4035 103.88 49.4035C103.88 49.4035 100.052 48.7249 101.118 50.7383C102.183 52.7518 98.6842 51.5045 99.0374 53.6354C99.3905 55.7663 96.1949 56.5006 96.1949 56.5006L77.877 84.8545H77.877Z" fill="#94EDA6"/>
<path d="M122.759 22.1239C123.916 18.383 123.048 14.795 120.821 14.1101C118.595 13.4251 115.852 15.9025 114.696 19.6434C113.539 23.3844 114.407 26.9723 116.633 27.6572C118.86 28.3422 121.603 25.8649 122.759 22.1239Z" fill="#FFB8B8"/>
<path d="M78.4976 55.0942H64.843L64.2904 59.3888C64.2904 59.3888 47.0696 64.1128 47.5001 66.6895C47.9306 69.2663 50.5138 112.212 50.5138 112.212L48.3612 133.685C48.3612 133.685 87.108 150.004 93.1353 130.678L90.1217 108.347C90.1217 108.347 97.4405 70.1252 95.7185 68.4073C93.9964 66.6895 79.7892 59.8182 79.7892 59.8182L78.4976 55.0942L78.4976 55.0942Z" fill="#94EDA6"/>
<path d="M70.5666 55.1481C77.3354 55.1481 82.8226 49.6745 82.8226 42.9224C82.8226 36.1704 77.3354 30.6968 70.5666 30.6968C63.7978 30.6968 58.3105 36.1704 58.3105 42.9224C58.3105 49.6745 63.7978 55.1481 70.5666 55.1481Z" fill="#FFB8B8"/>
<path d="M79.6421 37.8931C81.2081 37.761 82.774 37.6289 84.3399 37.4969C83.8016 37.2506 83.2411 36.987 82.8824 36.5169C82.5238 36.0469 82.4496 35.3041 82.8828 34.9014C83.3891 34.4307 84.2275 34.6801 84.7808 35.0947C84.4761 33.5079 83.5267 32.054 82.1947 31.1349C80.5677 30.0121 76.5426 31.3509 74.5811 31.0932C72.3178 30.7957 72.0354 28.871 69.7721 28.5735C68.9191 28.4615 67.9591 28.3769 67.2883 28.9145C66.5443 29.5106 66.4608 30.6379 65.8044 31.3288C64.8672 32.3154 63.2609 32.0244 61.9272 32.3019C60.0381 32.6952 58.614 34.3475 57.9563 36.1573C57.2986 37.967 57.2744 39.9354 57.2576 41.8604C57.2389 44.0178 57.2321 46.5152 58.7963 48.0052C59.7492 48.913 62.345 52.0275 62.6256 53.3118C62.8249 54.2239 70.9469 55.3348 72.7073 55.2842L78.7073 53.3118C79.2969 50.7217 78.3215 45.5979 76.9195 43.3398C77.3812 43.9481 79.5163 45.7794 79.8427 45.0894C80.169 44.3993 80.021 42.2367 80.4273 41.5903C80.9402 40.7745 78.6803 37.9741 79.6421 37.8931V37.8931Z" fill="#2F2E41"/>
<path d="M145.989 25.7568C147.299 25.7568 148.566 26.0332 149.789 26.5854L149.019 28.4249C147.924 27.9465 146.965 27.7075 146.141 27.7075C144.757 27.7075 144.064 28.4452 144.064 29.9207V32.3867H148.087V34.1251H144.064V35.9646C144.064 36.5777 143.953 37.1 143.73 37.5309C143.507 37.9623 143.125 38.283 142.585 38.5861H150.345V40.7244H139.627V38.7535C140.289 38.5514 140.879 38.228 141.197 37.7832C141.514 37.3384 141.673 36.7392 141.673 35.9844V34.1246H139.768V32.3861H141.672V29.7988C141.672 28.5324 142.055 27.5418 142.822 26.8276C143.589 26.1139 144.645 25.7568 145.989 25.7568Z" fill="#212121"/>
<rect x="196.5" y="24.5" width="58" height="16" rx="1.5" fill="white" stroke="#FC7176"/>
<path d="M210.148 33.9H213.248V35H208.998V28H213.198V29.1H210.148V30.92H212.948V32.01H210.148V33.9ZM218.701 35H217.451L216.211 33.29L214.961 35H213.701L215.581 32.43L213.801 30H215.051L216.201 31.58L217.351 30H218.611L216.831 32.44L218.701 35ZM222.256 29.87C222.943 29.87 223.529 30.1267 224.016 30.64C224.503 31.1467 224.746 31.7667 224.746 32.5C224.746 33.24 224.503 33.8633 224.016 34.37C223.529 34.8767 222.943 35.13 222.256 35.13C221.496 35.13 220.913 34.85 220.506 34.29V37H219.426V30H220.506V30.72C220.913 30.1533 221.496 29.87 222.256 29.87ZM220.956 33.65C221.256 33.95 221.633 34.1 222.086 34.1C222.539 34.1 222.916 33.95 223.216 33.65C223.516 33.3433 223.666 32.96 223.666 32.5C223.666 32.04 223.516 31.66 223.216 31.36C222.916 31.0533 222.539 30.9 222.086 30.9C221.633 30.9 221.256 31.0533 220.956 31.36C220.656 31.66 220.506 32.04 220.506 32.5C220.506 32.96 220.656 33.3433 220.956 33.65ZM226.745 29.05C226.611 29.1833 226.451 29.25 226.265 29.25C226.078 29.25 225.915 29.1833 225.775 29.05C225.641 28.91 225.575 28.7467 225.575 28.56C225.575 28.3733 225.641 28.2133 225.775 28.08C225.908 27.94 226.071 27.87 226.265 27.87C226.458 27.87 226.621 27.94 226.755 28.08C226.888 28.2133 226.955 28.3733 226.955 28.56C226.955 28.7467 226.885 28.91 226.745 29.05ZM225.725 35V30H226.805V35H225.725ZM229.139 30.84C229.412 30.22 229.925 29.91 230.679 29.91V31.08C230.265 31.0533 229.905 31.1533 229.599 31.38C229.292 31.6 229.139 31.9667 229.139 32.48V35H228.059V30H229.139V30.84ZM232.092 32.96C232.172 33.34 232.356 33.6333 232.642 33.84C232.929 34.04 233.279 34.14 233.692 34.14C234.266 34.14 234.696 33.9333 234.982 33.52L235.872 34.04C235.379 34.7667 234.649 35.13 233.682 35.13C232.869 35.13 232.212 34.8833 231.712 34.39C231.212 33.89 230.962 33.26 230.962 32.5C230.962 31.7533 231.209 31.13 231.702 30.63C232.196 30.1233 232.829 29.87 233.602 29.87C234.336 29.87 234.936 30.1267 235.402 30.64C235.876 31.1533 236.112 31.7767 236.112 32.51C236.112 32.6233 236.099 32.7733 236.072 32.96H232.092ZM232.082 32.08H235.022C234.949 31.6733 234.779 31.3667 234.512 31.16C234.252 30.9533 233.946 30.85 233.592 30.85C233.192 30.85 232.859 30.96 232.592 31.18C232.326 31.4 232.156 31.7 232.082 32.08ZM240.993 28H242.073V35H240.993V34.28C240.587 34.8467 240.003 35.13 239.243 35.13C238.557 35.13 237.97 34.8767 237.483 34.37C236.997 33.8567 236.753 33.2333 236.753 32.5C236.753 31.76 236.997 31.1367 237.483 30.63C237.97 30.1233 238.557 29.87 239.243 29.87C240.003 29.87 240.587 30.15 240.993 30.71V28ZM238.283 33.65C238.583 33.95 238.96 34.1 239.413 34.1C239.867 34.1 240.243 33.95 240.543 33.65C240.843 33.3433 240.993 32.96 240.993 32.5C240.993 32.04 240.843 31.66 240.543 31.36C240.243 31.0533 239.867 30.9 239.413 30.9C238.96 30.9 238.583 31.0533 238.283 31.36C237.983 31.66 237.833 32.04 237.833 32.5C237.833 32.96 237.983 33.3433 238.283 33.65Z" fill="#FC7176"/>
</g>
<defs>
<clipPath id="clip0_492_1111">
<rect width="330" height="262" fill="white"/>
</clipPath>
</defs>
</svg>
