<svg width="132" height="140" viewBox="0 0 132 140" fill="none" xmlns="http://www.w3.org/2000/svg">
<path d="M103.197 109.565H94.9565L112.85 138.35C113.872 139.994 116.027 140.493 117.662 139.466C119.298 138.438 119.795 136.273 118.773 134.629L103.197 109.565Z" fill="#CFCFCF"/>
<path d="M18.8696 28C26.6016 28 32.8696 21.732 32.8696 14C32.8696 6.26801 26.6016 0 18.8696 0C11.1376 0 4.86963 6.26801 4.86963 14C4.86963 21.732 11.1376 28 18.8696 28Z" fill="#CFCFCF"/>
<path d="M126.805 11.6328H75.4037V2.32657C75.4037 1.04164 74.3577 0 73.0673 0C71.777 0 70.7309 1.04164 70.7309 2.32657V11.6328H37.8597C38.6797 17.7565 36.3458 23.8793 31.6519 27.9188H83.0392C88.543 27.8321 93.2505 31.8396 94.0204 37.267C94.3738 40.1933 93.4865 43.1339 91.5719 45.3817C89.6574 47.6295 86.8887 48.9811 83.9317 49.1116L42.6938 50.9775V104.696H126.805C129.386 104.696 131.478 102.612 131.478 100.043V16.286C131.478 13.7161 129.386 11.6328 126.805 11.6328Z" fill="#CFCFCF"/>
<path d="M82.8896 32.8696H14.032C6.28236 32.8696 0 39.1258 0 46.8432V132.862C0 136.804 3.20924 140 7.16803 140C11.0058 140 14.1625 136.99 14.329 133.172L16.3707 86.4348H21.0481L23.0897 133.172C23.2562 136.99 26.413 140 30.2507 140C34.2095 140 37.4188 136.804 37.4188 132.862V46.8432L83.1609 44.7728C86.3549 44.6295 88.8696 42.0087 88.8696 38.8247C88.8696 35.5358 86.1922 32.8696 82.8896 32.8696Z" fill="#CFCFCF"/>
</svg>
