<svg width="169" height="112" viewBox="0 0 169 112" fill="none" xmlns="http://www.w3.org/2000/svg">
<g clip-path="url(#clip0_961_5303)">
<path d="M38.219 29.2711C49.5232 15.0973 73.5447 9.16713 89.6034 30.4148C103.225 48.4369 109.159 49.4679 119.512 52.8966C126.349 55.1618 137.535 58.2306 131.017 75.7603C122.485 98.7035 80.2788 104.901 57.2014 96.3367C35.1331 88.1482 17.7035 54.9917 38.219 29.2711Z" fill="url(#paint0_linear_961_5303)"/>
<path fill-rule="evenodd" clip-rule="evenodd" d="M110.755 38.5881H114.665C118.985 38.5881 122.485 42.0709 122.485 46.3622V81.5789C122.485 85.8741 118.985 89.353 114.665 89.353H59.9219C55.6012 89.353 52.1016 85.8741 52.1016 81.5789V34.9343C52.1016 30.6391 55.6012 27.1602 59.9219 27.1602H77.4044C78.0413 27.1603 78.6684 27.3151 79.2313 27.6112C79.7942 27.9072 80.2758 28.3355 80.6342 28.8588L86.1282 36.8855C86.4866 37.41 86.9686 37.8394 87.5323 38.1361C88.096 38.4329 88.7241 38.5881 89.3619 38.5881H95.1138" fill="#CFCFCF"/>
<path fill-rule="evenodd" clip-rule="evenodd" d="M106.902 35.8242H98.97C96.7807 35.8242 95.0039 37.5656 95.0039 39.7112V59.1465L102.936 55.2594L110.868 59.1465V39.7112C110.868 37.5656 109.091 35.8242 106.902 35.8242Z" fill="white"/>
<path d="M82.4907 46.2617H59.4766C58.8596 46.2617 58.3594 46.7589 58.3594 47.3723C58.3594 47.9856 58.8596 48.4829 59.4766 48.4829H82.4907C83.1077 48.4829 83.608 47.9856 83.608 47.3723C83.608 46.7589 83.1077 46.2617 82.4907 46.2617Z" fill="white"/>
<path d="M74.782 50.9258H59.5884C58.9096 50.9258 58.3594 51.4727 58.3594 52.1474C58.3594 52.8221 58.9096 53.3691 59.5884 53.3691H74.782C75.4608 53.3691 76.011 52.8221 76.011 52.1474C76.011 51.4727 75.4608 50.9258 74.782 50.9258Z" fill="white"/>
<path d="M74.782 55.8125H59.5884C58.9096 55.8125 58.3594 56.3594 58.3594 57.0341C58.3594 57.7088 58.9096 58.2558 59.5884 58.2558H74.782C75.4608 58.2558 76.011 57.7088 76.011 57.0341C76.011 56.3594 75.4608 55.8125 74.782 55.8125Z" fill="white"/>
<path d="M134.572 64.6259L133.194 65.9955C133.02 66.1684 133.02 66.4488 133.194 66.6217C133.368 66.7946 133.65 66.7946 133.824 66.6217L135.201 65.2521C135.375 65.0792 135.375 64.7989 135.201 64.6259C135.028 64.453 134.746 64.453 134.572 64.6259Z" fill="#E1E4E5"/>
</g>
<defs>
<linearGradient id="paint0_linear_961_5303" x1="83.2509" y1="146.84" x2="81.1808" y2="-74.3619" gradientUnits="userSpaceOnUse">
<stop stop-color="white"/>
<stop offset="1" stop-color="#EEEEEE"/>
</linearGradient>
<clipPath id="clip0_961_5303">
<rect width="169" height="112" fill="white"/>
</clipPath>
</defs>
</svg>
