<svg width="174" height="116" viewBox="0 0 174 116" fill="none" xmlns="http://www.w3.org/2000/svg">
<g clip-path="url(#clip0_782_79708)">
<path d="M136.395 72.6092H126.851C124.512 72.6092 122.553 71.0177 122.553 69.0018C122.553 67.994 123.058 67.0921 123.817 66.4554C124.575 65.819 125.65 65.3944 126.851 65.3944H128.241C129.442 65.3944 130.517 64.97 131.275 64.3334C132.034 63.6969 132.539 62.795 132.539 61.7872C132.539 59.8243 130.643 58.1798 128.241 58.1798H99.0896C98.3281 58.1798 97.8386 57.2437 97.8386 56.4821C97.8386 54.5724 96.0056 53.0338 93.73 53.0338H82.8817C82.6074 53.0338 82.3442 52.9248 82.1503 52.7309C81.9563 52.5369 81.8473 52.2738 81.8473 51.9994C81.8473 51.7251 81.9563 51.4619 82.1503 51.268C82.3442 51.074 82.6074 50.965 82.8817 50.965H124.449C126.282 50.965 127.989 50.3283 129.189 49.3205C130.39 48.3124 131.149 46.8802 131.149 45.3417C131.149 42.2118 128.115 39.7184 124.449 39.7184H102.98C99.6114 39.7184 96.277 37.119 92.9084 37.119H80.9217C79.1637 37.119 77.7387 35.694 77.7387 33.936C77.7387 32.1782 79.1637 30.7531 80.9217 30.7531H107.762C109.026 30.7531 110.227 30.3286 111.049 29.639C111.871 28.9493 112.376 27.9945 112.376 26.8805C112.376 24.7584 110.29 23.0078 107.762 23.0078H45.8821C44.6181 23.0078 43.4171 23.4322 42.5955 24.1218C41.7738 24.8114 41.2681 25.7665 41.2681 26.8805C41.2681 29.0025 43.3539 30.7531 45.8821 30.7531H47.4625C49.5481 30.7531 51.3181 32.1853 51.3181 33.9891C51.3181 34.8909 50.8756 35.6866 50.1803 36.2703C49.4851 36.8538 48.537 37.2252 47.4625 37.2252H39.8144C38.487 37.2252 37.2227 37.7025 36.3379 38.4453C35.453 39.1879 34.8842 40.1959 34.8842 41.3631C34.8842 43.6442 37.0963 45.4478 39.7512 45.4478H47.5257C50.0539 45.4478 52.1398 47.1985 52.1398 49.3205C52.1398 50.3815 51.634 51.3364 50.8123 52.026C49.9907 52.7156 48.8529 53.14 47.5887 53.14H40.636C39.4983 53.14 38.487 53.5114 37.7285 54.148C36.9701 54.7845 36.5275 55.6334 36.5275 56.5883C36.5275 58.498 38.3605 60.0366 40.636 60.0366H46.2615C49.4851 60.0366 52.0765 62.2116 52.0765 64.9171C52.0765 66.2433 51.4443 67.5164 50.37 68.3652C49.2954 69.2671 47.8416 69.7976 46.2615 69.7976H38.4237C36.8436 69.7976 35.3898 70.3281 34.3784 71.23C33.3039 72.0787 32.6719 73.2988 32.6719 74.6251C32.6719 77.2776 35.2633 79.4526 38.4237 79.4526H62.6252C65.298 79.4526 67.9235 80.938 70.5963 80.938H75.0043C76.689 80.938 78.0548 82.3037 78.0548 83.9884C78.0548 85.6729 76.689 87.0387 75.0043 87.0387H64.2755C62.885 87.0387 61.6841 87.5162 60.7992 88.2588C59.9143 89.0016 59.3453 90.0626 59.3453 91.1766C59.3453 93.4577 61.5576 95.3145 64.2755 95.3145H130.011C131.402 95.3145 132.603 94.8369 133.487 94.0944C134.372 93.3516 134.941 92.2906 134.941 91.1766C134.941 88.8954 132.729 87.0387 130.011 87.0387H128.052C126.029 87.0387 124.449 85.6594 124.449 84.0149C124.449 83.1662 124.828 82.4234 125.523 81.8929C126.156 81.3624 127.104 80.991 128.115 80.991H136.395C137.786 80.991 138.986 80.5136 139.872 79.7709C140.756 79.0283 141.325 77.9673 141.325 76.8533C141.325 74.466 139.113 72.6092 136.395 72.6092Z" fill="#F8F8F8"/>
<path d="M115.226 32.7916V87.9757C115.226 92.0013 111.965 95.3133 107.89 95.3133H105.496C104.019 95.3133 102.796 94.498 101.778 93.4279C100.148 91.6446 99.2817 89.3006 99.2817 86.8548V80.4854C99.2817 77.9376 97.1931 75.8485 94.6461 75.8485H65.1523V32.7916C65.1523 30.4987 67.0372 28.6133 69.3293 28.6133H111.049C113.392 28.6133 115.226 30.4987 115.226 32.7916Z" fill="#CFCFCF"/>
<path d="M103.432 98.9875H57.0323C51.811 98.9875 47.5586 94.7893 47.5586 89.6346V83.5233C47.5586 80.8664 49.7655 78.6875 52.4569 78.6875H92.0204C94.7118 78.6875 96.9187 80.8664 96.9187 83.5233V90.1661C96.9187 92.6638 97.8338 95.1612 99.5564 97.0213C100.579 98.1372 101.871 98.9875 103.432 98.9875Z" fill="#CFCFCF"/>
<path d="M76.6568 46.3996C78.3118 46.3996 79.6535 45.0579 79.6535 43.4029C79.6535 41.7479 78.3118 40.4062 76.6568 40.4062C75.0018 40.4062 73.6602 41.7479 73.6602 43.4029C73.6602 45.0579 75.0018 46.3996 76.6568 46.3996Z" fill="white"/>
<path d="M76.6568 56.0676C78.3118 56.0676 79.6535 54.7259 79.6535 53.0709C79.6535 51.4159 78.3118 50.0742 76.6568 50.0742C75.0018 50.0742 73.6602 51.4159 73.6602 53.0709C73.6602 54.7259 75.0018 56.0676 76.6568 56.0676Z" fill="white"/>
<path d="M76.6568 65.7316C78.3118 65.7316 79.6535 64.39 79.6535 62.7349C79.6535 61.0799 78.3118 59.7383 76.6568 59.7383C75.0018 59.7383 73.6602 61.0799 73.6602 62.7349C73.6602 64.39 75.0018 65.7316 76.6568 65.7316Z" fill="white"/>
<path d="M104.111 40.4062H86.3248C84.6698 40.4062 83.3281 41.7479 83.3281 43.4029C83.3281 45.0579 84.6698 46.3996 86.3248 46.3996H104.111C105.766 46.3996 107.108 45.0579 107.108 43.4029C107.108 41.7479 105.766 40.4062 104.111 40.4062Z" fill="white"/>
<path d="M104.015 50.0742H86.4215C84.7131 50.0742 83.3281 51.4592 83.3281 53.1676C83.3281 54.876 84.7131 56.2609 86.4215 56.2609H104.015C105.723 56.2609 107.108 54.876 107.108 53.1676C107.108 51.4592 105.723 50.0742 104.015 50.0742Z" fill="white"/>
<path d="M104.111 59.7383H86.3248C84.6698 59.7383 83.3281 61.0799 83.3281 62.7349C83.3281 64.39 84.6698 65.7316 86.3248 65.7316H104.111C105.766 65.7316 107.108 64.39 107.108 62.7349C107.108 61.0799 105.766 59.7383 104.111 59.7383Z" fill="white"/>
</g>
<defs>
<clipPath id="clip0_782_79708">
<rect width="174" height="116" fill="white"/>
</clipPath>
</defs>
</svg>
