<svg width="400" height="299" viewBox="0 0 400 299" fill="none" xmlns="http://www.w3.org/2000/svg">
<path d="M400 261.92H0V262.12H400V261.92Z" fill="#E6E6E6"/>
<path d="M84.7923 271.408H41.3203V271.608H84.7923V271.408Z" fill="#E6E6E6"/>
<path d="M200.802 267.064H184.434V267.264H200.802V267.064Z" fill="#E6E6E6"/>
<path d="M145.022 267.064H121.07V267.264H145.022V267.064Z" fill="#E6E6E6"/>
<path d="M343.129 269.368H292.457V269.568H343.129V269.368Z" fill="#E6E6E6"/>
<path d="M191.377 269.368H179.945V269.568H191.377V269.368Z" fill="#E6E6E6"/>
<path d="M103.199 271.408H92.5352V271.608H103.199V271.408Z" fill="#E6E6E6"/>
<path d="M356.472 269.368H349.664V269.568H356.472V269.368Z" fill="#E6E6E6"/>
<path d="M189.598 226.24H35.1264C33.9163 226.238 32.7565 225.756 31.9015 224.899C31.0466 224.043 30.5664 222.882 30.5664 221.672V4.528C30.5769 3.32482 31.0618 2.17438 31.9156 1.32657C32.7694 0.478767 33.9232 0.00206111 35.1264 0H189.598C190.81 0 191.972 0.48127 192.828 1.33794C193.685 2.1946 194.166 3.35649 194.166 4.568V221.672C194.166 222.884 193.685 224.045 192.828 224.902C191.972 225.759 190.81 226.24 189.598 226.24ZM35.1264 0.160001C33.9693 0.16212 32.8604 0.623252 32.0429 1.44218C31.2255 2.26111 30.7664 3.37092 30.7664 4.528V221.672C30.7664 222.829 31.2255 223.939 32.0429 224.758C32.8604 225.577 33.9693 226.038 35.1264 226.04H189.598C190.756 226.038 191.866 225.577 192.685 224.758C193.503 223.94 193.964 222.83 193.966 221.672V4.528C193.964 3.37018 193.503 2.26039 192.685 1.44169C191.866 0.622992 190.756 0.162115 189.598 0.160001H35.1264Z" fill="#E6E6E6"/>
<path d="M362.65 226.24H208.17C206.959 226.238 205.798 225.756 204.942 224.9C204.086 224.044 203.604 222.883 203.602 221.672V4.528C203.614 3.32409 204.101 2.17366 204.956 1.32607C205.811 0.478487 206.966 0.00203863 208.17 0H362.65C363.851 0.0041636 365.003 0.481799 365.855 1.32938C366.707 2.17697 367.191 3.3262 367.202 4.528V221.672C367.202 222.881 366.722 224.04 365.869 224.896C365.016 225.753 363.858 226.236 362.65 226.24ZM208.17 0.160001C207.012 0.162115 205.902 0.622992 205.083 1.44169C204.265 2.26039 203.804 3.37018 203.802 4.528V221.672C203.804 222.83 204.265 223.94 205.083 224.758C205.902 225.577 207.012 226.038 208.17 226.04H362.65C363.807 226.038 364.917 225.577 365.736 224.758C366.555 223.94 367.015 222.83 367.018 221.672V4.528C367.015 3.37018 366.555 2.26039 365.736 1.44169C364.917 0.622992 363.807 0.162115 362.65 0.160001H208.17Z" fill="#E6E6E6"/>
<path d="M329.726 24.4482H151.414V128.096H329.726V24.4482Z" fill="#E6E6E6"/>
<path d="M332.136 24.4482H153.824V128.096H332.136V24.4482Z" fill="#F5F5F5"/>
<path d="M327.809 123.232V29.3115L158.153 29.3115V123.232L327.809 123.232Z" fill="white"/>
<path d="M327.816 123.232V29.3125H325.992V123.232H327.816Z" fill="#E6E6E6"/>
<path d="M330.353 94.04H155.617V100.568H330.353V94.04Z" fill="#F5F5F5"/>
<path d="M202.401 192.888H173.121V257.808H202.401V192.888Z" fill="#E6E6E6"/>
<path d="M307.63 257.808H178.734V261.92H307.63V257.808Z" fill="#E6E6E6"/>
<path d="M202.394 257.808H313.258V192.888H202.394V257.808Z" fill="#F5F5F5"/>
<path d="M213.914 222.168H301.754V200.88H213.914V222.168Z" fill="#E6E6E6"/>
<path d="M213.914 249.808H301.754V228.52H213.914V249.808Z" fill="#E6E6E6"/>
<path d="M270.999 210.064H244.663C243.952 210.064 243.375 210.641 243.375 211.352V211.696C243.375 212.408 243.952 212.984 244.663 212.984H270.999C271.71 212.984 272.287 212.408 272.287 211.696V211.352C272.287 210.641 271.71 210.064 270.999 210.064Z" fill="#F5F5F5"/>
<path d="M270.999 237.712H244.663C243.952 237.712 243.375 238.289 243.375 239V239.344C243.375 240.055 243.952 240.632 244.663 240.632H270.999C271.71 240.632 272.287 240.055 272.287 239.344V239C272.287 238.289 271.71 237.712 270.999 237.712Z" fill="#F5F5F5"/>
<path d="M114.703 261.92H52.3266L43.7266 54.9844H106.103L114.703 261.92Z" fill="#E6E6E6"/>
<path d="M123.736 261.92H53.9281L45.3281 54.9844H115.136L123.736 261.92Z" fill="#F5F5F5"/>
<path d="M60.8242 254.72L52.8242 62.1836H108.232L116.24 254.72H60.8242Z" fill="white"/>
<path d="M227.946 182.872C228.746 161.016 229.546 130.736 227.858 119.776L225.098 117.64C225.098 117.64 225.698 119.68 226.018 153.168C226.338 186.656 226.73 177.896 226.394 182.872H227.946Z" fill="#E0E0E0"/>
<path d="M233.079 110.472C238.183 103.552 248.927 98.6323 260.055 98.6563C264.423 98.6563 247.047 106.704 240.015 115.576C234.551 122.464 228.527 134.056 226.559 140.488C227.503 126.952 227.999 117.384 233.079 110.472Z" fill="#E0E0E0"/>
<path d="M222.841 128.496C218.153 121.296 207.713 115.752 196.609 115.128C192.249 114.88 209.121 123.928 215.625 133.184C220.673 140.384 226.025 152.304 227.625 158.848C227.449 145.28 227.537 135.704 222.841 128.496Z" fill="#E0E0E0"/>
<path d="M224.937 98.9197C220.665 90.5197 210.697 82.4157 199.857 79.1197C195.593 77.8237 213.249 92.6077 218.297 103.92C222.217 112.72 226.969 123.776 228.217 130.76C228.681 116.984 229.201 107.328 224.937 98.9197Z" fill="#E0E0E0"/>
<path d="M226.911 192.888C229.509 192.887 232.007 191.892 233.894 190.107C235.781 188.321 236.912 185.881 237.055 183.288L237.951 167.688H215.871L216.775 183.288C216.916 185.88 218.046 188.321 219.931 190.106C221.816 191.892 224.314 192.887 226.911 192.888Z" fill="#F0F0F0"/>
<path d="M214.447 171.248H239.383L240.095 164.776H213.727L214.447 171.248Z" fill="#EBEBEB"/>
<path d="M320.457 64.1279H336.969V19.3279H320.457V64.1279Z" fill="#E6E6E6"/>
<path d="M320.457 19.3359H312.273V60.5359H320.457V19.3359Z" fill="#F5F5F5"/>
<path d="M295.761 64.1279H312.273V19.3279H295.761V64.1279Z" fill="#E6E6E6"/>
<path d="M295.758 19.3359H287.574V60.5359H295.758V19.3359Z" fill="#F5F5F5"/>
<path d="M271.062 64.1279H287.574V19.3279H271.062V64.1279Z" fill="#E6E6E6"/>
<path d="M271.063 19.3359H262.879V60.5359H271.063V19.3359Z" fill="#F5F5F5"/>
<path d="M246.359 64.1279H262.871V19.3279H246.359V64.1279Z" fill="#E6E6E6"/>
<path d="M246.36 19.3359H238.176V60.5359H246.36V19.3359Z" fill="#F5F5F5"/>
<path d="M221.672 64.1279H238.184V19.3279H221.672V64.1279Z" fill="#E6E6E6"/>
<path d="M221.664 19.3359H213.48V60.5359H221.664V19.3359Z" fill="#F5F5F5"/>
<path d="M196.968 64.1279H213.48V19.3279H196.968V64.1279Z" fill="#E6E6E6"/>
<path d="M196.969 19.3359H188.785V60.5359H196.969V19.3359Z" fill="#F5F5F5"/>
<path d="M172.273 64.1279H188.785V19.3279H172.273V64.1279Z" fill="#E6E6E6"/>
<path d="M172.274 19.3359H164.09V60.5359H172.274V19.3359Z" fill="#F5F5F5"/>
<path d="M147.578 64.1279H164.09V19.3279H147.578V64.1279Z" fill="#E6E6E6"/>
<path d="M199.999 298.048C285.665 298.048 355.111 293.993 355.111 288.992C355.111 283.99 285.665 279.936 199.999 279.936C114.333 279.936 44.8867 283.99 44.8867 288.992C44.8867 293.993 114.333 298.048 199.999 298.048Z" fill="#F5F5F5"/>
<path d="M281.938 131.624L285.337 136.824L290.393 135.776L286.577 129.312L281.938 131.624Z" fill="#9F5B53"/>
<path d="M291.577 87.0557C292.297 87.9277 292.897 88.7037 293.513 89.5517C294.129 90.3997 294.721 91.2157 295.305 92.0637C296.473 93.7517 297.585 95.4877 298.625 97.2717C299.665 99.0557 300.673 100.88 301.553 102.792C302.025 103.728 302.425 104.72 302.857 105.688C303.289 106.656 303.657 107.672 303.969 108.72L304.225 109.52L304.353 109.912C304.425 110.144 304.497 110.392 304.545 110.624C304.721 111.454 304.78 112.305 304.721 113.152C304.616 114.478 304.327 115.784 303.865 117.032C303.082 119.111 302.079 121.101 300.873 122.968C298.626 126.433 296.02 129.65 293.097 132.568L289.601 129.832C291.524 126.551 293.28 123.176 294.865 119.72C295.593 118.142 296.174 116.5 296.601 114.816C296.761 114.183 296.833 113.532 296.817 112.88C296.816 112.742 296.786 112.605 296.729 112.48L296.601 112.176L296.337 111.568C294.839 108.202 293.074 104.962 291.057 101.88C290.049 100.28 288.985 98.7357 287.913 97.1757C286.841 95.6157 285.673 94.0557 284.617 92.6397L291.577 87.0557Z" fill="#9F5B53"/>
<path d="M289.601 83.1203C295.113 84.3843 301.433 99.4003 301.433 99.4003L290.401 106.984C287.647 103.038 285.202 98.8841 283.089 94.5603C279.817 87.6883 284.001 81.8323 289.601 83.1203Z" fill="#7EEB94"/>
<path opacity="0.8" d="M289.601 83.1203C295.113 84.3843 301.433 99.4003 301.433 99.4003L290.401 106.984C287.647 103.038 285.202 98.8841 283.089 94.5603C279.817 87.6883 284.001 81.8323 289.601 83.1203Z" fill="white"/>
<path d="M285.68 92.6963L290.912 106.624L290.392 106.984C290.392 106.984 288.128 103.784 285.68 99.5203V92.6963Z" fill="#7EEB94"/>
<path opacity="0.6" d="M285.68 92.6963L290.912 106.624L290.392 106.984C290.392 106.984 288.128 103.784 285.68 99.5203V92.6963Z" fill="white"/>
<path d="M271.71 283.712H265.83L265.246 270.104H271.126L271.71 283.712Z" fill="#9F5B53"/>
<path d="M307 283.712H301.12L298.168 270.104H304.04L307 283.712Z" fill="#9F5B53"/>
<path d="M265.246 270.112L265.55 277.12H271.43L271.126 270.112H265.246Z" fill="#8A4743"/>
<path d="M304.048 270.112H298.168L299.688 277.12H305.568L304.048 270.112Z" fill="#8A4743"/>
<path d="M267.504 134.224C267.504 134.224 274.176 179.136 277.832 195.96C281.832 214.36 296.952 275.768 296.952 275.768H307.72C307.72 275.768 297.752 215.872 295.464 197.6C292.984 177.8 287.792 134.192 287.792 134.192L267.504 134.224Z" fill="#7EEB94"/>
<path opacity="0.5" d="M267.504 134.224C267.504 134.224 274.176 179.136 277.832 195.96C281.832 214.36 296.952 275.768 296.952 275.768H307.72C307.72 275.768 297.752 215.872 295.464 197.6C292.984 177.8 287.792 134.192 287.792 134.192L267.504 134.224Z" fill="black"/>
<path opacity="0.4" d="M271.72 150.224C279.432 151.736 278.616 180.496 277.688 195.288C275.464 184.832 272.208 164.712 269.984 150.432C270.522 150.167 271.135 150.094 271.72 150.224Z" fill="black"/>
<path d="M256.352 134.224C256.352 134.224 255.553 178.16 256.185 196.088C256.849 214.728 263.385 275.768 263.385 275.768H273.337C273.337 275.768 273.705 215.816 274.137 197.512C274.617 177.552 277.024 134.224 277.024 134.224H256.352Z" fill="#7EEB94"/>
<path opacity="0.5" d="M256.352 134.224C256.352 134.224 255.553 178.16 256.185 196.088C256.849 214.728 263.385 275.768 263.385 275.768H273.337C273.337 275.768 273.705 215.816 274.137 197.512C274.617 177.552 277.024 134.224 277.024 134.224H256.352Z" fill="black"/>
<path d="M290.87 128.576L286.574 129.312L290.39 135.776C290.39 135.776 293.382 134.336 293.926 131.544L290.87 128.576Z" fill="#9F5B53"/>
<path d="M262.479 61.2798C262.479 61.7518 262.231 62.1358 261.919 62.1358C261.607 62.1358 261.359 61.7518 261.359 61.2798C261.359 60.8078 261.607 60.4238 261.919 60.4238C262.231 60.4238 262.479 60.7998 262.479 61.2798Z" fill="#263238"/>
<path d="M262.272 62.1357C261.706 63.5846 260.944 64.9493 260.008 66.1917C260.331 66.4233 260.702 66.5812 261.093 66.6544C261.484 66.7277 261.886 66.7145 262.272 66.6157V62.1357Z" fill="#892B29"/>
<path d="M264.158 58.656C264.1 58.6568 264.043 58.6369 263.998 58.6C263.72 58.3862 263.395 58.242 263.05 58.1794C262.705 58.1167 262.35 58.1375 262.014 58.24C261.981 58.2528 261.945 58.2589 261.909 58.2577C261.873 58.2566 261.838 58.2484 261.805 58.2335C261.772 58.2186 261.743 58.1974 261.718 58.171C261.694 58.1447 261.675 58.1138 261.662 58.08C261.648 58.0465 261.641 58.0104 261.641 57.974C261.641 57.9375 261.648 57.9014 261.662 57.8678C261.676 57.8343 261.697 57.8039 261.723 57.7785C261.749 57.7531 261.78 57.7332 261.814 57.72C262.235 57.5842 262.683 57.5525 263.119 57.6277C263.556 57.703 263.967 57.8829 264.318 58.152C264.349 58.172 264.375 58.1981 264.395 58.2288C264.415 58.2594 264.429 58.2938 264.435 58.33C264.441 58.3661 264.439 58.403 264.43 58.4385C264.421 58.474 264.405 58.5072 264.382 58.536C264.359 58.5738 264.326 58.6048 264.286 58.6258C264.247 58.6468 264.203 58.6573 264.158 58.656Z" fill="#263238"/>
<path d="M277.785 66.7441C276.937 71.0481 276.097 78.9202 279.105 81.7922C279.105 81.7922 277.929 86.1521 269.937 86.1521C261.137 86.1521 265.745 81.7922 265.745 81.7922C270.545 80.6482 270.417 77.0881 269.577 73.7521L277.785 66.7441Z" fill="#9F5B53"/>
<path d="M280.257 83.2881C280.889 81.9121 281.577 80.3281 280.145 79.8321C278.545 79.2881 269.929 78.7361 266.953 79.7521C266.56 79.861 266.193 80.0466 265.873 80.2982C265.552 80.5499 265.285 80.8626 265.086 81.2183C264.888 81.5739 264.762 81.9654 264.715 82.3702C264.669 82.7749 264.703 83.1848 264.817 83.5761L280.257 83.2881Z" fill="#7EEB94"/>
<path d="M298.759 284C298.511 284.033 298.258 284.016 298.016 283.95C297.775 283.884 297.548 283.771 297.351 283.616C297.28 283.52 297.242 283.403 297.242 283.284C297.242 283.165 297.28 283.048 297.351 282.952C297.395 282.869 297.457 282.797 297.531 282.741C297.606 282.684 297.692 282.644 297.783 282.624C298.647 282.432 300.263 283.536 300.335 283.584C300.357 283.6 300.374 283.622 300.384 283.648C300.394 283.673 300.397 283.701 300.391 283.728C300.387 283.754 300.374 283.778 300.356 283.796C300.337 283.815 300.313 283.827 300.287 283.832C299.785 283.94 299.273 283.997 298.759 284ZM298.031 282.88H297.855C297.801 282.891 297.75 282.914 297.706 282.947C297.662 282.981 297.625 283.023 297.599 283.072C297.471 283.296 297.551 283.392 297.599 283.424C297.847 283.76 299.047 283.76 299.927 283.616C299.357 283.238 298.709 282.992 298.031 282.896V282.88Z" fill="#7EEB94"/>
<path d="M300.264 283.856H300.2C299.592 283.52 298.416 282.256 298.536 281.584C298.556 281.48 298.612 281.386 298.694 281.319C298.776 281.252 298.878 281.215 298.984 281.216C299.089 281.204 299.196 281.214 299.298 281.244C299.399 281.274 299.494 281.324 299.576 281.392C300.256 281.952 300.376 283.648 300.376 283.72C300.379 283.745 300.375 283.771 300.363 283.793C300.352 283.816 300.334 283.835 300.312 283.848C300.297 283.854 300.28 283.856 300.264 283.856ZM299.08 281.456H299.016C298.832 281.456 298.816 281.568 298.808 281.6C298.736 281.992 299.488 282.96 300.088 283.416C300.046 282.748 299.807 282.107 299.4 281.576C299.308 281.506 299.195 281.469 299.08 281.472V281.456Z" fill="#7EEB94"/>
<path d="M263.471 284C262.719 284 261.991 283.896 261.743 283.56C261.681 283.47 261.648 283.364 261.648 283.256C261.648 283.147 261.681 283.041 261.743 282.952C261.789 282.869 261.852 282.797 261.928 282.741C262.004 282.684 262.091 282.644 262.183 282.624C263.151 282.36 265.215 283.528 265.303 283.576C265.326 283.591 265.345 283.613 265.356 283.638C265.368 283.664 265.371 283.692 265.367 283.72C265.364 283.748 265.351 283.775 265.33 283.795C265.31 283.815 265.284 283.828 265.255 283.832C264.667 283.943 264.07 283.999 263.471 284ZM262.535 282.864C262.447 282.851 262.359 282.851 262.271 282.864C262.215 282.875 262.161 282.898 262.115 282.931C262.068 282.964 262.028 283.006 261.999 283.056C261.903 283.232 261.935 283.312 261.999 283.36C262.271 283.728 263.751 283.752 264.855 283.6C264.136 283.211 263.348 282.967 262.535 282.88V282.864Z" fill="#7EEB94"/>
<path d="M265.249 283.856H265.193C264.481 283.544 263.081 282.256 263.185 281.608C263.185 281.448 263.321 281.256 263.705 281.216C263.848 281.194 263.994 281.205 264.132 281.246C264.27 281.288 264.398 281.359 264.505 281.456C265.257 282.064 265.409 283.648 265.417 283.72C265.42 283.745 265.417 283.769 265.407 283.792C265.397 283.814 265.381 283.834 265.361 283.848C265.344 283.857 265.325 283.863 265.306 283.864C265.287 283.866 265.267 283.863 265.249 283.856ZM263.817 281.456H263.729C263.481 281.456 263.465 281.584 263.457 281.616C263.393 282.016 264.353 283.016 265.057 283.448C264.988 282.776 264.708 282.143 264.257 281.64C264.134 281.535 263.979 281.475 263.817 281.472V281.456Z" fill="#7EEB94"/>
<path d="M300.705 283.032H307.305C307.423 283.033 307.537 283.074 307.628 283.148C307.72 283.222 307.783 283.325 307.809 283.44L308.969 288.664C308.995 288.791 308.993 288.923 308.961 289.049C308.93 289.175 308.871 289.293 308.788 289.393C308.705 289.493 308.6 289.572 308.482 289.626C308.364 289.68 308.235 289.707 308.105 289.704C305.801 289.664 304.681 289.528 301.777 289.528C299.993 289.528 296.313 289.72 293.841 289.72C291.369 289.72 291.057 287.32 292.065 287.056C296.593 286.064 298.297 284.696 299.753 283.4C300.012 283.161 300.352 283.03 300.705 283.032Z" fill="#263238"/>
<path d="M265.871 283.032H272.271C272.389 283.033 272.503 283.074 272.594 283.148C272.686 283.222 272.749 283.325 272.775 283.44L273.935 288.664C273.963 288.79 273.961 288.921 273.932 289.046C273.902 289.172 273.844 289.289 273.762 289.389C273.681 289.489 273.578 289.57 273.461 289.624C273.344 289.679 273.216 289.706 273.087 289.704C270.775 289.664 267.431 289.528 264.519 289.528C261.119 289.528 258.175 289.72 254.183 289.72C251.783 289.72 251.103 287.32 252.111 287.056C256.711 286.048 260.463 285.944 264.439 283.496C264.862 283.208 265.359 283.047 265.871 283.032Z" fill="#263238"/>
<path d="M257.48 95.1441C255.152 98.5841 252.744 101.792 250.144 104.976C247.547 108.193 244.769 111.259 241.824 114.16L240.672 115.248L240.376 115.52L240.176 115.704L239.88 115.96C239.5 116.259 239.096 116.527 238.672 116.76C237.321 117.47 235.835 117.885 234.312 117.976C231.987 118.121 229.654 117.929 227.384 117.408C223.271 116.497 219.282 115.095 215.504 113.232L216.968 109.072C220.717 109.818 224.508 110.333 228.32 110.616C229.994 110.752 231.679 110.683 233.336 110.408C233.811 110.339 234.265 110.164 234.664 109.896V109.84L234.72 109.776L234.96 109.512L235.904 108.472C238.408 105.616 240.832 102.584 243.184 99.4721C245.536 96.3601 247.888 93.1921 250.136 90.0801L257.48 95.1441Z" fill="#9F5B53"/>
<path d="M260.193 96.0645C259.375 101.028 257.23 105.677 253.985 109.52C253.857 106.704 253.809 104.176 253.817 101.912L260.193 96.0645Z" fill="#BED3FC"/>
<path d="M278.287 60.2724C277.935 66.0964 278.023 69.5204 275.087 72.5124C270.663 77.0084 263.479 74.3364 262.087 68.5124C260.839 63.2804 261.631 54.6404 267.335 52.3204C268.59 51.8049 269.956 51.6188 271.302 51.7799C272.649 51.941 273.932 52.444 275.03 53.2409C276.128 54.0378 277.003 55.1023 277.573 56.333C278.143 57.5637 278.389 58.9199 278.287 60.2724Z" fill="#9F5B53"/>
<path d="M266.976 56.4C267.024 63.248 269.248 71.648 275.872 71.064C280.272 70.68 283.616 62.656 284.072 59.256C284.768 54.056 284.872 53.064 281.944 52.464C283.224 51.768 283.688 48.464 280.696 47.664C276.536 46.568 268.696 45.496 271.16 42.96C266.248 43.848 265.016 45.816 265.912 48.208C263.04 47.984 261.272 46.48 261.36 44.208C256.6 46.136 253.512 57.04 266.976 56.4Z" fill="#263238"/>
<path d="M270.4 61.9678C270.075 63.38 269.293 64.6456 268.176 65.5678C266.696 66.7678 265.512 65.6958 265.544 63.9678C265.544 62.4078 266.392 59.9038 268.056 59.3758C269.72 58.8478 270.808 60.2638 270.4 61.9678Z" fill="#9F5B53"/>
<path d="M286.402 53.656C285.619 53.1574 284.724 52.8613 283.798 52.7943C282.872 52.7273 281.944 52.8914 281.098 53.272C281.098 53.272 284.426 48.8 286.402 53.656Z" fill="#263238"/>
<path d="M295.201 271.8C295.153 271.8 296.313 275.936 296.313 275.936H308.425L308.201 272.248L295.201 271.8Z" fill="#7EEB94"/>
<path d="M261.448 271.8C261.4 271.8 262.008 275.936 262.008 275.936H274.12L274.448 272.248L261.448 271.8Z" fill="#7EEB94"/>
<path d="M265.432 268.616C265.408 268.616 265.385 268.607 265.367 268.591C265.349 268.574 265.338 268.552 265.336 268.528C263.576 251.632 259.44 210.752 258.936 196.088C258.4 181.12 258.888 147.536 259.048 137.6C259.048 137.544 259.096 137.512 259.152 137.504C259.177 137.506 259.2 137.516 259.218 137.534C259.236 137.552 259.246 137.575 259.248 137.6C259.088 147.536 258.6 181.12 259.136 196.08C259.656 210.744 263.792 251.608 265.536 268.504C265.536 268.531 265.527 268.557 265.509 268.578C265.492 268.599 265.467 268.612 265.44 268.616H265.432Z" fill="#7EEB94"/>
<path opacity="0.3" d="M265.432 268.616C265.408 268.616 265.385 268.607 265.367 268.591C265.349 268.574 265.338 268.552 265.336 268.528C263.576 251.632 259.44 210.752 258.936 196.088C258.4 181.12 258.888 147.536 259.048 137.6C259.048 137.544 259.096 137.512 259.152 137.504C259.177 137.506 259.2 137.516 259.218 137.534C259.236 137.552 259.246 137.575 259.248 137.6C259.088 147.536 258.6 181.12 259.136 196.08C259.656 210.744 263.792 251.608 265.536 268.504C265.536 268.531 265.527 268.557 265.509 268.578C265.492 268.599 265.467 268.612 265.44 268.616H265.432Z" fill="black"/>
<path d="M262.903 88.1842C263.703 93.7842 252.711 107.968 252.711 107.968L241.695 100.384C241.695 100.384 244.751 92.5522 249.895 87.4162C255.767 81.6002 262.055 82.1282 262.903 88.1842Z" fill="#7EEB94"/>
<path opacity="0.8" d="M262.903 88.1842C263.703 93.7842 252.711 107.968 252.711 107.968L241.695 100.384C241.695 100.384 244.751 92.5522 249.895 87.4162C255.767 81.6002 262.055 82.1282 262.903 88.1842Z" fill="white"/>
<path d="M256.704 83.4237C256.704 83.4237 250.448 90.4877 256.352 134.224H287.792C288.008 129.424 284.976 105.856 289.624 83.1197C286.15 82.4507 282.636 82.0071 279.104 81.7917C274.655 81.5356 270.194 81.5356 265.744 81.7917C262.693 82.0992 259.67 82.6448 256.704 83.4237Z" fill="#7EEB94"/>
<path opacity="0.8" d="M256.704 83.4237C256.704 83.4237 250.448 90.4877 256.352 134.224H287.792C288.008 129.424 284.976 105.856 289.624 83.1197C286.15 82.4507 282.636 82.0071 279.104 81.7917C274.655 81.5356 270.194 81.5356 265.744 81.7917C262.693 82.0992 259.67 82.6448 256.704 83.4237Z" fill="white"/>
<path d="M164.205 51.316C166.715 40.2557 159.785 29.2541 148.724 26.7433C137.664 24.2325 126.663 31.1632 124.152 42.2235C121.641 53.2838 128.572 64.2854 139.632 66.7962C150.692 69.307 161.694 62.3763 164.205 51.316Z" fill="#7EEB94"/>
<path opacity="0.2" d="M164.205 51.316C166.715 40.2557 159.785 29.2541 148.724 26.7433C137.664 24.2325 126.663 31.1632 124.152 42.2235C121.641 53.2838 128.572 64.2854 139.632 66.7962C150.692 69.307 161.694 62.3763 164.205 51.316Z" fill="white"/>
<path d="M142.071 73.4005C136.759 72.9902 131.693 70.9939 127.529 67.6704C123.366 64.3468 120.296 59.8492 118.719 54.7605L119.479 54.5205C121.01 59.4567 123.988 63.8192 128.028 67.0429C132.067 70.2666 136.982 72.2027 142.135 72.6005L142.071 73.4005Z" fill="#7EEB94"/>
<path opacity="0.2" d="M142.071 73.4005C136.759 72.9902 131.693 70.9939 127.529 67.6704C123.366 64.3468 120.296 59.8492 118.719 54.7605L119.479 54.5205C121.01 59.4567 123.988 63.8192 128.028 67.0429C132.067 70.2666 136.982 72.2027 142.135 72.6005L142.071 73.4005Z" fill="white"/>
<path d="M119.366 39.3762L118.566 39.1522C119.598 35.7065 121.314 32.5046 123.613 29.7387C125.912 26.9727 128.747 24.6997 131.946 23.0561C135.145 21.4124 138.643 20.4319 142.231 20.1735C145.818 19.9151 149.421 20.384 152.822 21.5522L152.566 22.3122C149.264 21.1802 145.768 20.7268 142.286 20.9793C138.805 21.2317 135.41 22.1848 132.306 23.7814C129.201 25.3779 126.452 27.585 124.221 30.2703C121.991 32.9556 120.326 36.0637 119.326 39.4082L119.366 39.3762Z" fill="#7EEB94"/>
<path opacity="0.2" d="M119.366 39.3762L118.566 39.1522C119.598 35.7065 121.314 32.5046 123.613 29.7387C125.912 26.9727 128.747 24.6997 131.946 23.0561C135.145 21.4124 138.643 20.4319 142.231 20.1735C145.818 19.9151 149.421 20.384 152.822 21.5522L152.566 22.3122C149.264 21.1802 145.768 20.7268 142.286 20.9793C138.805 21.2317 135.41 22.1848 132.306 23.7814C129.201 25.3779 126.452 27.585 124.221 30.2703C121.991 32.9556 120.326 36.0637 119.326 39.4082L119.366 39.3762Z" fill="white"/>
<path d="M168.911 39.032C167.041 33.0507 163.06 27.953 157.711 24.688L158.127 24C163.636 27.3717 167.735 32.6275 169.663 38.792L168.911 39.032Z" fill="#7EEB94"/>
<path opacity="0.2" d="M168.911 39.032C167.041 33.0507 163.06 27.953 157.711 24.688L158.127 24C163.636 27.3717 167.735 32.6275 169.663 38.792L168.911 39.032Z" fill="white"/>
<path d="M164.216 108.003C166.727 96.9432 159.796 85.9416 148.736 83.4308C137.676 80.92 126.674 87.8507 124.163 98.911C121.653 109.971 128.583 120.973 139.644 123.484C150.704 125.995 161.706 119.064 164.216 108.003Z" fill="#7EEB94"/>
<path opacity="0.6" d="M164.216 108.003C166.727 96.9432 159.796 85.9416 148.736 83.4308C137.676 80.92 126.674 87.8507 124.163 98.911C121.653 109.971 128.583 120.973 139.644 123.484C150.704 125.995 161.706 119.064 164.216 108.003Z" fill="white"/>
<path d="M164.209 164.689C166.719 153.629 159.789 142.627 148.728 140.116C137.668 137.606 126.666 144.536 124.156 155.597C121.645 166.657 128.576 177.658 139.636 180.169C150.696 182.68 161.698 175.749 164.209 164.689Z" fill="#7EEB94"/>
<path opacity="0.6" d="M164.209 164.689C166.719 153.629 159.789 142.627 148.728 140.116C137.668 137.606 126.666 144.536 124.156 155.597C121.645 166.657 128.576 177.658 139.636 180.169C150.696 182.68 161.698 175.749 164.209 164.689Z" fill="white"/>
<path d="M164.212 221.384C166.723 210.324 159.793 199.322 148.732 196.812C137.672 194.301 126.67 201.232 124.16 212.292C121.649 223.352 128.579 234.354 139.64 236.865C150.7 239.375 161.702 232.445 164.212 221.384Z" fill="#7EEB94"/>
<path opacity="0.6" d="M164.212 221.384C166.723 210.324 159.793 199.322 148.732 196.812C137.672 194.301 126.67 201.232 124.16 212.292C121.649 223.352 128.579 234.354 139.64 236.865C150.7 239.375 161.702 232.445 164.212 221.384Z" fill="white"/>
<path d="M107.521 51.3092C110.032 40.2488 103.101 29.2473 92.0408 26.7365C80.9805 24.2257 69.9789 31.1564 67.4681 42.2167C64.9573 53.277 71.888 64.2786 82.9483 66.7894C94.0086 69.3002 105.01 62.3695 107.521 51.3092Z" fill="#7EEB94"/>
<path opacity="0.6" d="M107.521 51.3092C110.032 40.2488 103.101 29.2473 92.0408 26.7365C80.9805 24.2257 69.9789 31.1564 67.4681 42.2167C64.9573 53.277 71.888 64.2786 82.9483 66.7894C94.0086 69.3002 105.01 62.3695 107.521 51.3092Z" fill="white"/>
<path d="M107.529 108.004C110.04 96.9442 103.109 85.9426 92.0486 83.4318C80.9883 80.921 69.9867 87.8517 67.4759 98.912C64.9651 109.972 71.8958 120.974 82.9561 123.485C94.0165 125.996 105.018 119.065 107.529 108.004Z" fill="#7EEB94"/>
<path opacity="0.6" d="M107.529 108.004C110.04 96.9442 103.109 85.9426 92.0486 83.4318C80.9883 80.921 69.9867 87.8517 67.4759 98.912C64.9651 109.972 71.8958 120.974 82.9561 123.485C94.0165 125.996 105.018 119.065 107.529 108.004Z" fill="white"/>
<path d="M107.525 164.69C110.036 153.63 103.105 142.628 92.0447 140.117C80.9844 137.607 69.9828 144.537 67.472 155.598C64.9612 166.658 71.8919 177.659 82.9522 180.17C94.0125 182.681 105.014 175.75 107.525 164.69Z" fill="#7EEB94"/>
<path opacity="0.6" d="M107.525 164.69C110.036 153.63 103.105 142.628 92.0447 140.117C80.9844 137.607 69.9828 144.537 67.472 155.598C64.9612 166.658 71.8919 177.659 82.9522 180.17C94.0125 182.681 105.014 175.75 107.525 164.69Z" fill="white"/>
<path d="M107.525 221.378C110.036 210.317 103.105 199.316 92.0447 196.805C80.9844 194.294 69.9828 201.225 67.472 212.285C64.9612 223.345 71.8919 234.347 82.9523 236.858C94.0126 239.369 105.014 232.438 107.525 221.378Z" fill="#7EEB94"/>
<path opacity="0.6" d="M107.525 221.378C110.036 210.317 103.105 199.316 92.0447 196.805C80.9844 194.294 69.9828 201.225 67.472 212.285C64.9612 223.345 71.8919 234.347 82.9523 236.858C94.0126 239.369 105.014 232.438 107.525 221.378Z" fill="white"/>
<path d="M220.761 148.505L216.449 144.041L211.849 149.977C211.849 149.977 215.353 153.353 219.521 152.377L220.761 148.505Z" fill="#9F5B53"/>
<path d="M210.521 141.592L208.553 147.816L211.849 149.976L216.449 144.04L210.521 141.592Z" fill="#9F5B53"/>
<path d="M151.801 141.928C152.158 140.869 152.74 139.899 153.507 139.086C154.274 138.272 155.208 137.635 156.244 137.217C157.281 136.799 158.396 136.61 159.513 136.664C160.629 136.718 161.721 137.013 162.713 137.528L157.913 135.032C156.136 134.134 154.763 132.6 154.066 130.735C153.369 128.87 153.4 126.811 154.153 124.968C154.579 123.997 155.2 123.123 155.977 122.401C156.754 121.678 157.671 121.123 158.671 120.769C159.671 120.415 160.734 120.27 161.792 120.343C162.85 120.416 163.883 120.705 164.825 121.192L160.025 118.704C158.246 117.806 156.871 116.271 156.174 114.404C155.477 112.537 155.51 110.476 156.265 108.632C156.69 107.652 157.313 106.77 158.095 106.042C158.878 105.315 159.802 104.756 160.81 104.402C161.818 104.049 162.888 103.907 163.954 103.986C165.019 104.066 166.057 104.365 167.001 104.864L144.209 92.9443C142.532 92.1061 141.209 90.6981 140.476 88.9727C139.743 87.2472 139.648 85.3171 140.209 83.5283C140.568 82.4694 141.151 81.5004 141.919 80.6879C142.687 79.8753 143.622 79.2383 144.659 78.8205C145.696 78.4026 146.811 78.2138 147.927 78.2669C149.044 78.3201 150.136 78.6139 151.129 79.1283L199.129 104.224L194.201 84.0003C193.716 81.9685 194.019 79.8282 195.05 78.0115C196.082 76.1949 197.764 74.8372 199.757 74.2127C201.751 73.5882 203.907 73.7433 205.79 74.6467C207.674 75.5502 209.144 77.1347 209.905 79.0803L225.649 119.976C226.997 123.472 229.571 126.358 232.889 128.096L235.633 129.528C236.054 129.748 236.427 130.048 236.731 130.411C237.035 130.775 237.264 131.196 237.406 131.648C237.547 132.101 237.597 132.577 237.554 133.05C237.511 133.522 237.374 133.981 237.153 134.4L217.953 171.08C217.509 171.928 216.746 172.565 215.833 172.851C214.92 173.138 213.93 173.05 213.081 172.608L206.345 169.088C203.794 167.779 200.935 167.187 198.073 167.376C191.154 167.763 184.26 166.27 178.121 163.056L155.721 151.344C154.059 150.493 152.752 149.079 152.034 147.355C151.317 145.631 151.234 143.708 151.801 141.928Z" fill="#7EEB94"/>
<path d="M214.793 174.2C214.019 174.201 213.255 174.014 212.569 173.656L205.833 170.136C203.473 168.928 200.831 168.375 198.185 168.536C191.051 168.936 183.941 167.399 177.609 164.088L155.209 152.376C153.29 151.394 151.781 149.764 150.951 147.775C150.12 145.786 150.022 143.567 150.673 141.512C151.084 140.286 151.757 139.165 152.645 138.225C153.534 137.286 154.616 136.551 155.817 136.072C156.142 135.938 156.476 135.825 156.817 135.736C154.947 134.615 153.541 132.859 152.857 130.789C152.173 128.719 152.255 126.471 153.089 124.456C153.572 123.327 154.287 122.312 155.187 121.475C156.087 120.639 157.151 120 158.313 119.6C158.529 119.528 158.745 119.456 158.961 119.4C157.089 118.28 155.683 116.525 154.999 114.454C154.314 112.383 154.397 110.135 155.233 108.12C155.717 106.993 156.432 105.979 157.332 105.144C158.232 104.309 159.296 103.671 160.457 103.272C160.657 103.2 160.865 103.136 161.065 103.08L143.657 93.9763C141.738 92.9945 140.229 91.3642 139.399 89.3752C138.568 87.3861 138.47 85.1671 139.121 83.1123C139.535 81.8897 140.209 80.7711 141.095 79.833C141.982 78.8949 143.061 78.1595 144.258 77.6771C145.456 77.1947 146.743 76.9766 148.032 77.038C149.322 77.0993 150.583 77.4384 151.729 78.0323L197.401 101.936L193.089 84.2803C192.536 81.9533 192.887 79.5032 194.07 77.4249C195.254 75.3466 197.183 73.7952 199.466 73.0841C201.75 72.373 204.218 72.5553 206.373 73.594C208.527 74.6328 210.207 76.4507 211.073 78.6803L226.817 119.576C228.061 122.801 230.435 125.462 233.497 127.064L236.233 128.496C236.793 128.788 237.29 129.188 237.695 129.672C238.101 130.156 238.407 130.716 238.596 131.319C238.784 131.921 238.852 132.555 238.796 133.184C238.739 133.813 238.558 134.425 238.265 134.984L219.065 171.672C218.651 172.443 218.034 173.086 217.281 173.531C216.528 173.977 215.668 174.208 214.793 174.2ZM199.089 166.128C201.821 166.113 204.516 166.758 206.945 168.008L213.681 171.528C213.961 171.677 214.268 171.769 214.584 171.798C214.899 171.827 215.218 171.794 215.521 171.699C215.824 171.605 216.105 171.451 216.348 171.248C216.591 171.044 216.791 170.794 216.937 170.512L236.137 133.824C236.284 133.544 236.374 133.237 236.402 132.922C236.43 132.607 236.396 132.289 236.301 131.987C236.206 131.685 236.052 131.405 235.848 131.163C235.644 130.921 235.394 130.721 235.113 130.576L232.377 129.144C228.81 127.274 226.045 124.168 224.601 120.408L208.849 79.5123C208.216 77.828 206.963 76.4498 205.346 75.6606C203.729 74.8715 201.872 74.7312 200.155 75.2687C198.438 75.8062 196.992 76.9807 196.114 78.5509C195.236 80.1212 194.992 81.968 195.433 83.7123L200.377 103.944C200.432 104.167 200.421 104.402 200.346 104.619C200.27 104.836 200.134 105.027 199.953 105.168C199.772 105.313 199.553 105.401 199.323 105.422C199.093 105.444 198.861 105.397 198.657 105.288L150.657 80.1923C149.82 79.7573 148.9 79.5086 147.958 79.463C147.016 79.4174 146.076 79.5761 145.201 79.9283C144.315 80.2734 143.517 80.8114 142.866 81.5033C142.214 82.1952 141.724 83.0236 141.433 83.9283C140.955 85.4455 141.032 87.0832 141.651 88.5487C142.269 90.0142 143.389 91.2121 144.809 91.9283L167.609 103.848C167.891 103.996 168.103 104.249 168.198 104.553C168.294 104.857 168.264 105.186 168.117 105.468C168.044 105.608 167.944 105.732 167.823 105.833C167.702 105.934 167.563 106.011 167.412 106.058C167.108 106.153 166.779 106.124 166.497 105.976C165.701 105.563 164.829 105.318 163.934 105.256C163.04 105.194 162.142 105.317 161.297 105.616C160.448 105.909 159.67 106.375 159.011 106.985C158.353 107.595 157.829 108.336 157.473 109.16C156.836 110.724 156.812 112.47 157.405 114.05C157.998 115.631 159.165 116.93 160.673 117.688L165.473 120.184C165.731 120.344 165.919 120.596 165.999 120.888C166.079 121.181 166.045 121.493 165.904 121.762C165.763 122.031 165.526 122.236 165.239 122.337C164.953 122.437 164.639 122.426 164.361 122.304C163.566 121.893 162.695 121.649 161.802 121.587C160.909 121.525 160.013 121.646 159.169 121.944C158.32 122.238 157.541 122.706 156.883 123.318C156.225 123.929 155.701 124.671 155.345 125.496C154.71 127.059 154.687 128.803 155.28 130.381C155.873 131.96 157.039 133.258 158.545 134.016L163.345 136.512C163.627 136.66 163.839 136.913 163.934 137.217C164.03 137.521 164 137.85 163.853 138.132C163.705 138.414 163.452 138.627 163.148 138.722C162.844 138.817 162.515 138.788 162.233 138.64C161.395 138.209 160.474 137.962 159.533 137.918C158.591 137.874 157.651 138.033 156.777 138.384C155.894 138.733 155.1 139.273 154.45 139.964C153.8 140.656 153.311 141.482 153.017 142.384C152.537 143.901 152.614 145.54 153.232 147.006C153.851 148.472 154.971 149.669 156.393 150.384L178.793 162.096C184.728 165.164 191.378 166.582 198.049 166.2C198.401 166.2 198.745 166.144 199.089 166.144V166.128Z" fill="#7EEB94"/>
<path d="M168.705 141.856C168.51 141.858 168.318 141.811 168.145 141.72L162.201 138.592C162.061 138.519 161.937 138.419 161.836 138.298C161.735 138.177 161.659 138.038 161.612 137.887C161.564 137.737 161.547 137.579 161.561 137.422C161.575 137.265 161.62 137.112 161.693 136.972C161.766 136.832 161.866 136.708 161.987 136.607C162.108 136.506 162.248 136.43 162.398 136.383C162.548 136.335 162.707 136.318 162.864 136.332C163.021 136.346 163.173 136.391 163.313 136.464L169.289 139.592C169.527 139.716 169.717 139.916 169.827 140.161C169.938 140.405 169.964 140.68 169.9 140.94C169.837 141.201 169.687 141.433 169.477 141.599C169.266 141.765 169.005 141.856 168.737 141.856H168.705Z" fill="#7EEB94"/>
<path d="M170.849 125.52C170.654 125.523 170.461 125.476 170.289 125.384L164.313 122.256C164.162 122.19 164.026 122.094 163.914 121.973C163.802 121.852 163.716 121.71 163.662 121.554C163.607 121.399 163.585 121.234 163.597 121.069C163.609 120.905 163.655 120.745 163.731 120.599C163.808 120.453 163.913 120.325 164.042 120.221C164.17 120.118 164.318 120.042 164.477 119.999C164.636 119.956 164.803 119.945 164.966 119.969C165.129 119.993 165.285 120.049 165.425 120.136L171.401 123.256C171.639 123.38 171.829 123.58 171.939 123.825C172.05 124.069 172.076 124.344 172.012 124.604C171.949 124.865 171.8 125.097 171.589 125.263C171.378 125.429 171.118 125.519 170.849 125.52Z" fill="#7EEB94"/>
<path d="M172.985 109.192C172.793 109.19 172.604 109.143 172.433 109.056L166.457 105.928C166.317 105.855 166.193 105.755 166.092 105.634C165.991 105.513 165.915 105.374 165.868 105.223C165.82 105.073 165.803 104.915 165.817 104.758C165.831 104.601 165.876 104.448 165.949 104.308C166.022 104.168 166.122 104.044 166.243 103.943C166.364 103.842 166.503 103.766 166.654 103.719C166.804 103.671 166.962 103.654 167.12 103.668C167.277 103.682 167.429 103.727 167.569 103.8L173.545 106.928C173.784 107.052 173.973 107.253 174.084 107.499C174.195 107.744 174.22 108.019 174.155 108.28C174.09 108.541 173.94 108.773 173.728 108.939C173.516 109.104 173.254 109.193 172.985 109.192Z" fill="#7EEB94"/>
<path opacity="0.3" d="M214.793 174.2C214.019 174.201 213.255 174.014 212.569 173.656L205.833 170.136C203.473 168.928 200.831 168.375 198.185 168.536C191.051 168.936 183.941 167.399 177.609 164.088L155.209 152.376C153.29 151.394 151.781 149.764 150.951 147.775C150.12 145.786 150.022 143.567 150.673 141.512C151.084 140.286 151.757 139.165 152.645 138.225C153.534 137.286 154.616 136.551 155.817 136.072C156.142 135.938 156.476 135.825 156.817 135.736C154.947 134.615 153.541 132.859 152.857 130.789C152.173 128.719 152.255 126.471 153.089 124.456C153.572 123.327 154.287 122.312 155.187 121.475C156.087 120.639 157.151 120 158.313 119.6C158.529 119.528 158.745 119.456 158.961 119.4C157.089 118.28 155.683 116.525 154.999 114.454C154.314 112.383 154.397 110.135 155.233 108.12C155.717 106.993 156.432 105.979 157.332 105.144C158.232 104.309 159.296 103.671 160.457 103.272C160.657 103.2 160.865 103.136 161.065 103.08L143.657 93.9763C141.738 92.9945 140.229 91.3642 139.399 89.3752C138.568 87.3861 138.47 85.1671 139.121 83.1123C139.535 81.8897 140.209 80.7711 141.095 79.833C141.982 78.8949 143.061 78.1595 144.258 77.6771C145.456 77.1947 146.743 76.9766 148.032 77.038C149.322 77.0993 150.583 77.4384 151.729 78.0323L197.401 101.936L193.089 84.2803C192.536 81.9533 192.887 79.5032 194.07 77.4249C195.254 75.3466 197.183 73.7952 199.466 73.0841C201.75 72.373 204.218 72.5553 206.373 73.594C208.527 74.6328 210.207 76.4507 211.073 78.6803L226.817 119.576C228.061 122.801 230.435 125.462 233.497 127.064L236.233 128.496C236.793 128.788 237.29 129.188 237.695 129.672C238.101 130.156 238.407 130.716 238.596 131.319C238.784 131.921 238.852 132.555 238.796 133.184C238.739 133.813 238.558 134.425 238.265 134.984L219.065 171.672C218.651 172.443 218.034 173.086 217.281 173.531C216.528 173.977 215.668 174.208 214.793 174.2ZM199.089 166.128C201.821 166.113 204.516 166.758 206.945 168.008L213.681 171.528C213.961 171.677 214.268 171.769 214.584 171.798C214.899 171.827 215.218 171.794 215.521 171.699C215.824 171.605 216.105 171.451 216.348 171.248C216.591 171.044 216.791 170.794 216.937 170.512L236.137 133.824C236.284 133.544 236.374 133.237 236.402 132.922C236.43 132.607 236.396 132.289 236.301 131.987C236.206 131.685 236.052 131.405 235.848 131.163C235.644 130.921 235.394 130.721 235.113 130.576L232.377 129.144C228.81 127.274 226.045 124.168 224.601 120.408L208.849 79.5123C208.216 77.828 206.963 76.4498 205.346 75.6606C203.729 74.8715 201.872 74.7312 200.155 75.2687C198.438 75.8062 196.992 76.9807 196.114 78.5509C195.236 80.1212 194.992 81.968 195.433 83.7123L200.377 103.944C200.432 104.167 200.421 104.402 200.346 104.619C200.27 104.836 200.134 105.027 199.953 105.168C199.772 105.313 199.553 105.401 199.323 105.422C199.093 105.444 198.861 105.397 198.657 105.288L150.657 80.1923C149.82 79.7573 148.9 79.5086 147.958 79.463C147.016 79.4174 146.076 79.5761 145.201 79.9283C144.315 80.2734 143.517 80.8114 142.866 81.5033C142.214 82.1952 141.724 83.0236 141.433 83.9283C140.955 85.4455 141.032 87.0832 141.651 88.5487C142.269 90.0142 143.389 91.2121 144.809 91.9283L167.609 103.848C167.891 103.996 168.103 104.249 168.198 104.553C168.294 104.857 168.264 105.186 168.117 105.468C168.044 105.608 167.944 105.732 167.823 105.833C167.702 105.934 167.563 106.011 167.412 106.058C167.108 106.153 166.779 106.124 166.497 105.976C165.701 105.563 164.829 105.318 163.934 105.256C163.04 105.194 162.142 105.317 161.297 105.616C160.448 105.909 159.67 106.375 159.011 106.985C158.353 107.595 157.829 108.336 157.473 109.16C156.836 110.724 156.812 112.47 157.405 114.05C157.998 115.631 159.165 116.93 160.673 117.688L165.473 120.184C165.731 120.344 165.919 120.596 165.999 120.888C166.079 121.181 166.045 121.493 165.904 121.762C165.763 122.031 165.526 122.236 165.239 122.337C164.953 122.437 164.639 122.426 164.361 122.304C163.566 121.893 162.695 121.649 161.802 121.587C160.909 121.525 160.013 121.646 159.169 121.944C158.32 122.238 157.541 122.706 156.883 123.318C156.225 123.929 155.701 124.671 155.345 125.496C154.71 127.059 154.687 128.803 155.28 130.381C155.873 131.96 157.039 133.258 158.545 134.016L163.345 136.512C163.627 136.66 163.839 136.913 163.934 137.217C164.03 137.521 164 137.85 163.853 138.132C163.705 138.414 163.452 138.627 163.148 138.722C162.844 138.817 162.515 138.788 162.233 138.64C161.395 138.209 160.474 137.962 159.533 137.918C158.591 137.874 157.651 138.033 156.777 138.384C155.894 138.733 155.1 139.273 154.45 139.964C153.8 140.656 153.311 141.482 153.017 142.384C152.537 143.901 152.614 145.54 153.232 147.006C153.851 148.472 154.971 149.669 156.393 150.384L178.793 162.096C184.728 165.164 191.378 166.582 198.049 166.2C198.401 166.2 198.745 166.144 199.089 166.144V166.128Z" fill="black"/>
</svg>
