<svg width="330" height="262" viewBox="0 0 330 262" fill="none" xmlns="http://www.w3.org/2000/svg">
<g clip-path="url(#clip0_490_959)">
<path d="M139.927 251.716C141.135 251.791 141.802 250.294 140.888 249.422L140.797 249.061C140.809 249.032 140.821 249.004 140.834 248.975C142.055 246.07 146.194 246.09 147.406 248.999C148.48 251.582 149.849 254.168 150.186 256.899C150.337 258.104 150.269 259.332 150.001 260.515C152.519 255.027 153.845 249.034 153.845 243.007C153.845 241.493 153.762 239.979 153.592 238.469C153.452 237.233 153.26 236.005 153.01 234.789C151.662 228.212 148.743 221.948 144.533 216.716C142.509 215.613 140.821 213.887 139.802 211.82C139.436 211.074 139.149 210.271 139.013 209.454C139.243 209.484 139.881 205.985 139.707 205.77C140.028 205.284 140.603 205.043 140.954 204.569C142.697 202.211 145.099 202.623 146.353 205.827C149.032 207.176 149.058 209.412 147.414 211.563C146.369 212.932 146.225 214.784 145.307 216.249C145.402 216.37 145.5 216.486 145.594 216.607C147.325 218.822 148.823 221.202 150.085 223.703C149.728 220.924 150.255 217.575 151.153 215.417C152.175 212.957 154.09 210.886 155.777 208.76C157.803 206.206 161.959 207.32 162.316 210.558C162.319 210.589 162.322 210.621 162.326 210.652C162.075 210.793 161.83 210.943 161.59 211.101C160.222 212.003 160.695 214.118 162.315 214.368L162.352 214.373C162.261 215.274 162.107 216.166 161.88 217.044C164.044 225.393 159.372 228.433 152.701 228.57C152.553 228.645 152.41 228.72 152.263 228.792C152.939 230.69 153.479 232.638 153.879 234.612C154.238 236.355 154.487 238.118 154.626 239.889C154.8 242.122 154.785 244.367 154.596 246.597L154.608 246.518C155.087 244.062 156.424 241.768 158.365 240.179C161.256 237.809 165.341 236.937 168.46 235.033C169.962 234.116 171.886 235.301 171.624 237.037L171.611 237.12C171.146 237.308 170.693 237.527 170.255 237.772C170.005 237.913 169.759 238.063 169.519 238.221C168.152 239.123 168.624 241.238 170.245 241.488L170.282 241.493C170.308 241.497 170.331 241.501 170.357 241.505C169.56 243.392 168.45 245.143 167.061 246.654C165.708 253.942 159.896 254.633 153.679 252.511H153.675C152.995 255.464 152.002 258.349 150.726 261.099H140.191C140.153 260.982 140.119 260.861 140.085 260.745C141.059 260.805 142.041 260.748 143 260.571C142.219 259.615 141.437 258.65 140.655 257.694C140.636 257.675 140.621 257.656 140.606 257.637C140.21 257.147 139.809 256.661 139.413 256.172L139.413 256.171C139.388 254.668 139.569 253.17 139.926 251.716L139.927 251.716Z" fill="#F2F2F2"/>
<path d="M0 261.306C0 261.691 0.309867 262 0.695735 262H236.468C236.854 262 237.163 261.691 237.163 261.306C237.163 260.921 236.854 260.612 236.468 260.612H0.695735C0.309867 260.612 0 260.921 0 261.306Z" fill="#CCCCCC"/>
<path d="M318.468 261.845H197.714C191.355 261.845 186.183 256.685 186.183 250.342V11.5029C186.183 5.16029 191.355 0 197.714 0H318.468C324.826 0 330 5.16029 330 11.5029V250.342C330 256.685 324.826 261.845 318.468 261.845ZM197.714 1.16635C191.991 1.16635 187.352 5.79405 187.352 11.5026V250.342C187.352 256.051 191.991 260.679 197.714 260.679H318.468C324.191 260.679 328.83 256.051 328.83 250.342V87.8872C328.83 39.9926 289.908 1.16635 241.894 1.16635H197.714Z" fill="#242429"/>
<path d="M220.481 117.87C228.23 117.87 234.512 111.604 234.512 103.874C234.512 96.1442 228.23 89.8779 220.481 89.8779C212.732 89.8779 206.45 96.1442 206.45 103.874C206.45 111.604 212.732 117.87 220.481 117.87Z" fill="white"/>
<path d="M295.703 117.87C303.452 117.87 309.734 111.604 309.734 103.874C309.734 96.1442 303.452 89.8779 295.703 89.8779C287.954 89.8779 281.672 96.1442 281.672 103.874C281.672 111.604 287.954 117.87 295.703 117.87Z" fill="white"/>
<path d="M258.091 117.87C265.841 117.87 272.122 111.604 272.122 103.874C272.122 96.1442 265.841 89.8779 258.091 89.8779C250.342 89.8779 244.061 96.1442 244.061 103.874C244.061 111.604 250.342 117.87 258.091 117.87Z" fill="white"/>
<path d="M220.481 158.109C228.23 158.109 234.512 151.843 234.512 144.113C234.512 136.383 228.23 130.117 220.481 130.117C212.732 130.117 206.45 136.383 206.45 144.113C206.45 151.843 212.732 158.109 220.481 158.109Z" fill="white"/>
<path d="M295.702 158.109C303.451 158.109 309.733 151.843 309.733 144.113C309.733 136.383 303.451 130.117 295.702 130.117C287.953 130.117 281.671 136.383 281.671 144.113C281.671 151.843 287.953 158.109 295.702 158.109Z" fill="white"/>
<path d="M258.091 158.109C265.841 158.109 272.122 151.843 272.122 144.113C272.122 136.383 265.841 130.117 258.091 130.117C250.342 130.117 244.061 136.383 244.061 144.113C244.061 151.843 250.342 158.109 258.091 158.109Z" fill="white"/>
<path d="M220.481 198.348C228.23 198.348 234.512 192.082 234.512 184.352C234.512 176.622 228.23 170.356 220.481 170.356C212.732 170.356 206.45 176.622 206.45 184.352C206.45 192.082 212.732 198.348 220.481 198.348Z" fill="white"/>
<path d="M295.415 238.518C303.164 238.518 309.446 232.252 309.446 224.522C309.446 216.792 303.164 210.526 295.415 210.526C287.666 210.526 281.384 216.792 281.384 224.522C281.384 232.252 287.666 238.518 295.415 238.518Z" fill="white"/>
<path d="M239.584 238.518C257.826 238.518 272.615 232.252 272.615 224.522C272.615 216.792 257.826 210.526 239.584 210.526C221.341 210.526 206.553 216.792 206.553 224.522C206.553 232.252 221.341 238.518 239.584 238.518Z" fill="white"/>
<path d="M295.702 198.348C303.451 198.348 309.733 192.082 309.733 184.352C309.733 176.622 303.451 170.356 295.702 170.356C287.953 170.356 281.671 176.622 281.671 184.352C281.671 192.082 287.953 198.348 295.702 198.348Z" fill="white"/>
<path d="M258.091 198.348C265.841 198.348 272.122 192.082 272.122 184.352C272.122 176.622 265.841 170.356 258.091 170.356C250.342 170.356 244.061 176.622 244.061 184.352C244.061 192.082 250.342 198.348 258.091 198.348Z" fill="#3BD55A"/>
<path d="M260.849 16.3291H126.659C122.68 16.3291 119.444 19.5566 119.444 23.5257V72.6985C119.444 76.6676 122.68 79.8951 126.659 79.8951H260.849C264.828 79.8951 268.064 76.6676 268.064 72.6985V23.5257C268.064 19.5566 264.828 16.3291 260.849 16.3291Z" fill="white"/>
<path d="M159.21 40.0298C157.578 40.0298 156.296 39.4122 155.362 38.177C154.44 36.9294 153.979 35.2763 153.979 33.2178C153.979 31.1592 154.44 29.5123 155.362 28.2772C156.296 27.0296 157.578 26.4058 159.21 26.4058C160.853 26.4058 162.136 27.0296 163.058 28.2772C163.979 29.5123 164.44 31.1592 164.44 33.2178C164.44 35.2763 163.979 36.9294 163.058 38.177C162.136 39.4122 160.853 40.0298 159.21 40.0298ZM157.23 36.4179C157.678 37.1415 158.338 37.5033 159.21 37.5033C160.081 37.5033 160.741 37.1353 161.19 36.3992C161.65 35.6631 161.881 34.6026 161.881 33.2178C161.881 31.8204 161.65 30.7537 161.19 30.0176C160.741 29.2815 160.081 28.9135 159.21 28.9135C158.338 28.9135 157.678 29.2815 157.23 30.0176C156.781 30.7537 156.557 31.8204 156.557 33.2178C156.557 34.6151 156.781 35.6818 157.23 36.4179Z" fill="black"/>
<path d="M260.849 16.3291H126.659C122.68 16.3291 119.444 19.5566 119.444 23.5257V72.6985C119.444 76.6676 122.68 79.8951 126.659 79.8951H260.849C264.828 79.8951 268.064 76.6676 268.064 72.6985V23.5257C268.064 19.5566 264.828 16.3291 260.849 16.3291ZM267.305 72.6985C267.305 76.2514 264.411 79.1384 260.849 79.1384H126.659C123.097 79.1384 120.203 76.2514 120.203 72.6985V23.5257C120.203 19.9728 123.097 17.0858 126.659 17.0858H260.849C264.411 17.0858 267.305 19.9728 267.305 23.5257V72.6985Z" fill="#242429"/>
<path d="M253.385 46.0708H134.122C132.992 46.0708 132.076 46.9846 132.076 48.1119C132.076 49.2392 132.992 50.153 134.122 50.153H253.385C254.515 50.153 255.431 49.2392 255.431 48.1119C255.431 46.9846 254.515 46.0708 253.385 46.0708Z" fill="#3BD55A"/>
<path d="M39.7265 105.217L38.5312 112.317L49.1308 138.037L54.8178 135.121L49.2826 111.052L48.4871 101.866L39.7265 105.217Z" fill="#FFB8B8"/>
<path d="M51.4269 65.2736C51.4269 65.2736 45.8773 62.5919 41.571 71.6529C37.2647 80.7138 37.798 100.587 37.798 100.587C37.798 100.587 36.23 102.076 37.2254 103.119C38.2208 104.162 39.1487 105.816 38.1333 107.724C37.5982 108.729 36.3596 110.696 38.3879 111.255C40.4161 111.814 49.9037 109.174 49.9037 109.174C49.9037 109.174 53.4514 107.589 51.4356 106.521C49.4199 105.454 52.2588 98.9951 52.2588 98.9951L54.6046 80.3385L51.4269 65.2736Z" fill="#94EDA6"/>
<path d="M55.7843 147.864C58.0118 147.181 58.8836 143.594 57.7316 139.852C56.5796 136.11 53.8399 133.629 51.6124 134.311C49.3849 134.994 48.513 138.581 49.6651 142.323C50.8171 146.065 53.5568 148.546 55.7843 147.864Z" fill="#FFB8B8"/>
<path d="M108.317 258.095L113.629 256.673L110.658 235.557L102.818 237.656L108.317 258.095Z" fill="#FFB8B8"/>
<path d="M126.485 253.103C126.725 253.337 127.054 254.21 127.141 254.534C127.408 255.527 126.817 256.548 125.822 256.815L109.371 261.218C108.691 261.4 107.993 260.998 107.811 260.32L107.627 259.637C107.627 259.637 106.261 257.802 107.255 254.822C107.255 254.822 109.871 256.246 112.148 252.31L112.619 250.406L120.565 253.474L124.368 252.94C125.2 252.824 125.884 252.518 126.485 253.103H126.485Z" fill="#2F2E41"/>
<path d="M56.2472 257.973L61.7473 257.973L64.3637 236.811L56.2461 236.811L56.2472 257.973Z" fill="#FFB8B8"/>
<path d="M75.0909 257.849C75.2621 258.136 75.3525 259.065 75.3525 259.4C75.3525 260.428 74.5167 261.262 73.4858 261.262H56.4527C55.7494 261.262 55.1792 260.693 55.1792 259.991V259.284C55.1792 259.284 54.3366 257.158 56.0714 254.537C56.0714 254.537 58.2275 256.589 61.4493 253.376L62.3994 251.659L69.2766 256.676L73.0885 257.144C73.9225 257.246 74.6619 257.128 75.0909 257.849Z" fill="#2F2E41"/>
<path d="M92.851 131.917L107.314 194.102L114.296 244.348L103.324 245.84L72.9024 160.273L65.9203 245.84L53.4524 246.835C53.4524 246.835 43.4781 145.349 47.9666 132.912L92.851 131.917Z" fill="#2F2E41"/>
<path d="M110.067 58.3841L115.057 53.1828L120.788 25.9679L114.441 25.1904L105.453 48.1994L100.934 56.2419L110.067 58.3841Z" fill="#FFB8B8"/>
<path d="M77.8779 84.8545C77.8779 84.8545 82.5481 93.4444 91.2162 88.3662C99.8843 83.288 109.052 63.2945 109.052 63.2945C109.052 63.2945 110.882 58.212 112.797 57.2039C113.806 56.6726 116.403 56.0996 115.041 54.5C113.679 52.9005 103.881 49.4035 103.881 49.4035C103.881 49.4035 100.053 48.7249 101.118 50.7383C102.184 52.7518 98.6851 51.5045 99.0383 53.6354C99.3915 55.7663 96.1959 56.5006 96.1959 56.5006L77.8779 84.8545H77.8779Z" fill="#94EDA6"/>
<path d="M122.761 22.1239C123.918 18.383 123.05 14.795 120.823 14.1101C118.597 13.4251 115.854 15.9025 114.698 19.6434C113.541 23.3844 114.409 26.9723 116.635 27.6572C118.862 28.3422 121.605 25.8649 122.761 22.1239Z" fill="#FFB8B8"/>
<path d="M78.4976 55.0942H64.843L64.2904 59.3888C64.2904 59.3888 47.0696 64.1128 47.5001 66.6895C47.9306 69.2663 50.5138 112.212 50.5138 112.212L48.3612 133.685C48.3612 133.685 87.108 150.004 93.1353 130.678L90.1217 108.347C90.1217 108.347 97.4405 70.1252 95.7185 68.4073C93.9964 66.6895 79.7892 59.8182 79.7892 59.8182L78.4976 55.0942L78.4976 55.0942Z" fill="#94EDA6"/>
<path d="M70.5656 55.1481C77.3344 55.1481 82.8216 49.6745 82.8216 42.9224C82.8216 36.1704 77.3344 30.6968 70.5656 30.6968C63.7968 30.6968 58.3096 36.1704 58.3096 42.9224C58.3096 49.6745 63.7968 55.1481 70.5656 55.1481Z" fill="#FFB8B8"/>
<path d="M79.6431 37.8931C81.2091 37.761 82.775 37.6289 84.3409 37.4969C83.8026 37.2506 83.242 36.987 82.8834 36.5169C82.5248 36.0469 82.4506 35.3041 82.8838 34.9014C83.3901 34.4307 84.2285 34.6801 84.7818 35.0947C84.4771 33.5079 83.5277 32.054 82.1957 31.1349C80.5687 30.0121 76.5435 31.3509 74.582 31.0932C72.3188 30.7957 72.0363 28.871 69.7731 28.5735C68.9201 28.4615 67.9601 28.3769 67.2893 28.9145C66.5453 29.5106 66.4618 30.6379 65.8054 31.3288C64.8682 32.3154 63.2619 32.0244 61.9281 32.3019C60.0391 32.6952 58.615 34.3475 57.9573 36.1573C57.2996 37.967 57.2754 39.9354 57.2586 41.8604C57.2398 44.0178 57.233 46.5152 58.7973 48.0052C59.7501 48.913 62.346 52.0275 62.6266 53.3118C62.8259 54.2239 70.9479 55.3348 72.7083 55.2842L78.7082 53.3118C79.2979 50.7217 78.3225 45.5979 76.9205 43.3398C77.3822 43.9481 79.5172 45.7794 79.8436 45.0894C80.17 44.3993 80.022 42.2367 80.4283 41.5903C80.9411 40.7745 78.6813 37.9741 79.6431 37.8931V37.8931Z" fill="#2F2E41"/>
<path d="M145.989 25.7568C147.299 25.7568 148.566 26.0332 149.789 26.5854L149.019 28.4249C147.924 27.9465 146.965 27.7075 146.141 27.7075C144.757 27.7075 144.064 28.4452 144.064 29.9207V32.3867H148.087V34.1251H144.064V35.9646C144.064 36.5777 143.953 37.1 143.73 37.5309C143.507 37.9623 143.125 38.283 142.585 38.5861H150.345V40.7244H139.627V38.7535C140.289 38.5514 140.879 38.228 141.197 37.7832C141.514 37.3384 141.673 36.7392 141.673 35.9844V34.1246H139.768V32.3861H141.672V29.7988C141.672 28.5324 142.055 27.5418 142.822 26.8276C143.589 26.1139 144.645 25.7568 145.989 25.7568Z" fill="#212121"/>
</g>
<defs>
<clipPath id="clip0_490_959">
<rect width="330" height="262" fill="white"/>
</clipPath>
</defs>
</svg>
