<svg width="42" height="42" viewBox="0 0 42 42" fill="none" xmlns="http://www.w3.org/2000/svg">
<mask id="mask0_6024_13060" style="mask-type:alpha" maskUnits="userSpaceOnUse" x="-1" y="-1" width="43" height="43">
<path d="M-0.000976562 -0.000244141H41.6039V41.6047H-0.000976562V-0.000244141Z" fill="#1F183A"/>
</mask>
<g mask="url(#mask0_6024_13060)">
<path d="M1.82227 36.4041V31.5502C1.82227 30.5968 2.06785 29.7011 2.55902 28.8632C3.05019 28.0254 3.72916 27.3897 4.59593 26.9563C6.06943 26.2051 7.73074 25.5695 9.57985 25.0494C11.429 24.5294 13.4659 24.2694 15.6906 24.2694C17.9153 24.2694 19.9522 24.5294 21.8013 25.0494C23.6504 25.5695 25.3117 26.2051 26.7852 26.9563C27.652 27.3897 28.3309 28.0254 28.8221 28.8632C29.3133 29.7011 29.5589 30.5968 29.5589 31.5502V36.4041H1.82227ZM5.28934 32.937H26.0918V31.5502C26.0918 31.2324 26.0123 30.9435 25.8534 30.6834C25.6945 30.4234 25.4851 30.2212 25.225 30.0767C24.1849 29.5566 22.8486 29.0366 21.2162 28.5165C19.5838 27.9965 17.7419 27.7364 15.6906 27.7364C13.6392 27.7364 11.7973 27.9965 10.1649 28.5165C8.5325 29.0366 7.19623 29.5566 6.15611 30.0767C5.89608 30.2212 5.68661 30.4234 5.5277 30.6834C5.36879 30.9435 5.28934 31.2324 5.28934 31.5502V32.937ZM15.6906 22.5358C13.7837 22.5358 12.1513 21.8568 10.7933 20.4989C9.43538 19.141 8.75642 17.5086 8.75642 15.6017H8.32303C8.063 15.6017 7.85353 15.5222 7.69462 15.3633C7.53572 15.2044 7.45626 14.9949 7.45626 14.7349C7.45626 14.4749 7.53572 14.2654 7.69462 14.1065C7.85353 13.9476 8.063 13.8681 8.32303 13.8681H8.75642C8.75642 12.568 9.07423 11.3978 9.70986 10.3577C10.3455 9.31759 11.1834 8.49416 12.2235 7.88742V9.53428C12.2235 9.79431 12.3029 10.0038 12.4619 10.1627C12.6208 10.3216 12.8302 10.4011 13.0903 10.4011C13.3503 10.4011 13.5598 10.3216 13.7187 10.1627C13.8776 10.0038 13.957 9.79431 13.957 9.53428V7.19401C14.2171 7.10733 14.4915 7.04232 14.7805 6.99898C15.0694 6.95565 15.3728 6.93398 15.6906 6.93398C16.0084 6.93398 16.3118 6.95565 16.6007 6.99898C16.8896 7.04232 17.1641 7.10733 17.4241 7.19401V9.53428C17.4241 9.79431 17.5036 10.0038 17.6625 10.1627C17.8214 10.3216 18.0308 10.4011 18.2909 10.4011C18.5509 10.4011 18.7604 10.3216 18.9193 10.1627C19.0782 10.0038 19.1576 9.79431 19.1576 9.53428V7.88742C20.1978 8.49416 21.0356 9.31759 21.6713 10.3577C22.3069 11.3978 22.6247 12.568 22.6247 13.8681H23.0581C23.3181 13.8681 23.5276 13.9476 23.6865 14.1065C23.8454 14.2654 23.9249 14.4749 23.9249 14.7349C23.9249 14.9949 23.8454 15.2044 23.6865 15.3633C23.5276 15.5222 23.3181 15.6017 23.0581 15.6017H22.6247C22.6247 17.5086 21.9457 19.141 20.5878 20.4989C19.2299 21.8568 17.5975 22.5358 15.6906 22.5358ZM15.6906 19.0687C16.644 19.0687 17.4602 18.7293 18.1392 18.0503C18.8182 17.3713 19.1576 16.5551 19.1576 15.6017H12.2235C12.2235 16.5551 12.563 17.3713 13.2419 18.0503C13.9209 18.7293 14.7371 19.0687 15.6906 19.0687ZM28.6921 26.0029L28.4321 24.7027C28.2587 24.645 28.0926 24.5799 27.9337 24.5077C27.7748 24.4355 27.6231 24.3271 27.4786 24.1827L26.2651 24.6161L25.3984 23.0559L26.3518 22.1891V21.149L25.3984 20.2822L26.2651 18.722L27.4786 19.1554C27.5942 19.0398 27.7387 18.9387 27.912 18.852C28.0854 18.7654 28.2587 18.6931 28.4321 18.6354L28.6921 17.3352H30.4256L30.6857 18.6354C30.859 18.6931 31.0324 18.7654 31.2057 18.852C31.3791 18.9387 31.5235 19.0398 31.6391 19.1554L32.8526 18.722L33.7194 20.2822L32.7659 21.149V22.1891L33.7194 23.0559L32.8526 24.6161L31.6391 24.1827C31.4946 24.3271 31.343 24.4355 31.1841 24.5077C31.0251 24.5799 30.859 24.645 30.6857 24.7027L30.4256 26.0029H28.6921ZM29.5589 22.9692C29.9056 22.9692 30.2089 22.8392 30.469 22.5792C30.729 22.3191 30.859 22.0158 30.859 21.669C30.859 21.3223 30.729 21.019 30.469 20.7589C30.2089 20.4989 29.9056 20.3689 29.5589 20.3689C29.2122 20.3689 28.9088 20.4989 28.6488 20.7589C28.3887 21.019 28.2587 21.3223 28.2587 21.669C28.2587 22.0158 28.3887 22.3191 28.6488 22.5792C28.9088 22.8392 29.2122 22.9692 29.5589 22.9692ZM32.6792 17.3352L32.3325 15.515C32.0725 15.4283 31.8341 15.32 31.6174 15.1899C31.4007 15.0599 31.2057 14.9082 31.0324 14.7349L29.2122 15.3416L27.9987 13.2614L29.4722 11.9612C29.4144 11.8168 29.3855 11.7012 29.3855 11.6145V10.9211C29.3855 10.8344 29.4144 10.7189 29.4722 10.5744L27.9987 9.27425L29.2122 7.19401L31.0324 7.80075C31.2057 7.62739 31.4007 7.47571 31.6174 7.34569C31.8341 7.21568 32.0725 7.10733 32.3325 7.02065L32.6792 5.20044H35.1062L35.4529 7.02065C35.7129 7.10733 35.9513 7.21568 36.168 7.34569C36.3847 7.47571 36.5797 7.62739 36.753 7.80075L38.5733 7.19401L39.7867 9.27425L38.3132 10.5744C38.371 10.7189 38.3999 10.8344 38.3999 10.9211V11.6145C38.3999 11.7012 38.371 11.8168 38.3132 11.9612L39.7867 13.2614L38.5733 15.3416L36.753 14.7349C36.5797 14.9082 36.3847 15.0599 36.168 15.1899C35.9513 15.32 35.7129 15.4283 35.4529 15.515L35.1062 17.3352H32.6792ZM33.8927 13.4347C34.4994 13.4347 35.0123 13.2253 35.4312 12.8063C35.8502 12.3874 36.0596 11.8746 36.0596 11.2678C36.0596 10.6611 35.8502 10.1482 35.4312 9.72931C35.0123 9.31037 34.4994 9.1009 33.8927 9.1009C33.286 9.1009 32.7731 9.31037 32.3542 9.72931C31.9353 10.1482 31.7258 10.6611 31.7258 11.2678C31.7258 11.8746 31.9353 12.3874 32.3542 12.8063C32.7731 13.2253 33.286 13.4347 33.8927 13.4347Z" fill="#303030"/>
</g>
</svg>
