<svg width="33" height="33" viewBox="0 0 33 33" fill="none" xmlns="http://www.w3.org/2000/svg">
<g id="confirmation_number">
<mask id="mask0_7892_1057" style="mask-type:alpha" maskUnits="userSpaceOnUse" x="0" y="0" width="33" height="33">
<rect id="Bounding box" x="0.00195312" y="0.826172" width="32" height="32" fill="#D9D9D9"/>
</mask>
<g mask="url(#mask0_7892_1057)">
<path id="confirmation_number_2" d="M16.0013 23.4928C16.3791 23.4928 16.6957 23.365 16.9513 23.1094C17.2069 22.8539 17.3346 22.5372 17.3346 22.1594C17.3346 21.7816 17.2069 21.465 16.9513 21.2094C16.6957 20.9539 16.3791 20.8261 16.0013 20.8261C15.6235 20.8261 15.3069 20.9539 15.0513 21.2094C14.7957 21.465 14.668 21.7816 14.668 22.1594C14.668 22.5372 14.7957 22.8539 15.0513 23.1094C15.3069 23.365 15.6235 23.4928 16.0013 23.4928ZM16.0013 18.1594C16.3791 18.1594 16.6957 18.0316 16.9513 17.7761C17.2069 17.5205 17.3346 17.2039 17.3346 16.8261C17.3346 16.4483 17.2069 16.1316 16.9513 15.8761C16.6957 15.6205 16.3791 15.4928 16.0013 15.4928C15.6235 15.4928 15.3069 15.6205 15.0513 15.8761C14.7957 16.1316 14.668 16.4483 14.668 16.8261C14.668 17.2039 14.7957 17.5205 15.0513 17.7761C15.3069 18.0316 15.6235 18.1594 16.0013 18.1594ZM16.0013 12.8261C16.3791 12.8261 16.6957 12.6983 16.9513 12.4428C17.2069 12.1872 17.3346 11.8705 17.3346 11.4928C17.3346 11.115 17.2069 10.7983 16.9513 10.5428C16.6957 10.2872 16.3791 10.1594 16.0013 10.1594C15.6235 10.1594 15.3069 10.2872 15.0513 10.5428C14.7957 10.7983 14.668 11.115 14.668 11.4928C14.668 11.8705 14.7957 12.1872 15.0513 12.4428C15.3069 12.6983 15.6235 12.8261 16.0013 12.8261ZM26.668 27.4928H5.33464C4.6013 27.4928 3.97352 27.2316 3.4513 26.7094C2.92908 26.1872 2.66797 25.5594 2.66797 24.8261V19.4928C3.4013 19.4928 4.02908 19.2316 4.5513 18.7094C5.07352 18.1872 5.33464 17.5594 5.33464 16.8261C5.33464 16.0928 5.07352 15.465 4.5513 14.9428C4.02908 14.4205 3.4013 14.1594 2.66797 14.1594V8.82609C2.66797 8.09276 2.92908 7.46498 3.4513 6.94276C3.97352 6.42053 4.6013 6.15942 5.33464 6.15942H26.668C27.4013 6.15942 28.0291 6.42053 28.5513 6.94276C29.0735 7.46498 29.3346 8.09276 29.3346 8.82609V14.1594C28.6013 14.1594 27.9735 14.4205 27.4513 14.9428C26.9291 15.465 26.668 16.0928 26.668 16.8261C26.668 17.5594 26.9291 18.1872 27.4513 18.7094C27.9735 19.2316 28.6013 19.4928 29.3346 19.4928V24.8261C29.3346 25.5594 29.0735 26.1872 28.5513 26.7094C28.0291 27.2316 27.4013 27.4928 26.668 27.4928ZM26.668 24.8261V21.4261C25.8457 20.9372 25.1957 20.2872 24.718 19.4761C24.2402 18.665 24.0013 17.7816 24.0013 16.8261C24.0013 15.8705 24.2402 14.9872 24.718 14.1761C25.1957 13.365 25.8457 12.715 26.668 12.2261V8.82609H5.33464V12.2261C6.15686 12.715 6.80686 13.365 7.28464 14.1761C7.76241 14.9872 8.0013 15.8705 8.0013 16.8261C8.0013 17.7816 7.76241 18.665 7.28464 19.4761C6.80686 20.2872 6.15686 20.9372 5.33464 21.4261V24.8261H26.668Z" fill="#5E5E5E"/>
</g>
</g>
</svg>
