<svg width="22" height="21" xmlns="http://www.w3.org/2000/svg" xmlns:xlink="http://www.w3.org/1999/xlink">
    <defs>
        <path d="M10.517 2.625c2.962 0 5.555 1.428 7.76 3.777a17.934 17.934 0 0 1 1.973 2.53c.336.52.568.93.69 1.177a.874.874 0 0 1 0 .782c-.122.246-.354.657-.69 1.177a17.934 17.934 0 0 1-1.973 2.53c-2.205 2.349-4.798 3.777-7.76 3.777-2.962 0-5.555-1.428-7.76-3.777a17.934 17.934 0 0 1-1.973-2.53c-.337-.52-.568-.93-.691-1.177a.874.874 0 0 1 0-.782c.123-.246.354-.657.69-1.177a17.934 17.934 0 0 1 1.974-2.53c2.205-2.349 4.798-3.777 7.76-3.777zm0 1.75c-2.406 0-4.578 1.197-6.482 3.223A16.202 16.202 0 0 0 1.876 10.5a16.202 16.202 0 0 0 2.16 2.902c1.903 2.026 4.075 3.223 6.48 3.223 2.407 0 4.579-1.197 6.482-3.223a16.202 16.202 0 0 0 2.16-2.902 16.202 16.202 0 0 0-2.16-2.902c-1.903-2.026-4.075-3.223-6.481-3.223zm0 2.625a3.503 3.503 0 0 1 3.505 3.5c0 1.933-1.57 3.5-3.505 3.5a3.503 3.503 0 0 1-3.506-3.5c0-1.933 1.57-3.5 3.506-3.5zm0 1.75c-.968 0-1.753.784-1.753 1.75s.785 1.75 1.753 1.75c.968 0 1.752-.784 1.752-1.75s-.784-1.75-1.752-1.75z" id="a"/>
    </defs>
    <g transform="translate(.48)" fill="none" fill-rule="evenodd">
        <mask id="b" fill="#fff">
            <use xlink:href="#a"/>
        </mask>
        <use fill="#000" fill-rule="nonzero" xlink:href="#a"/>
        <g mask="url(#b)" fill="#000">
            <path d="M0 0h21.033v21H0z"/>
        </g>
    </g>
</svg>
