<svg width="143" height="120" viewBox="0 0 143 120" fill="none" xmlns="http://www.w3.org/2000/svg">
<rect x="16" width="120" height="117.367" rx="58.6834" fill="url(#paint0_linear_782_86800)"/>
<rect x="32" y="34.2324" width="87.6" height="85.768" rx="2" fill="white"/>
<rect x="61" y="79.3711" width="28.8" height="4.51411" rx="2" fill="#F0F0F0"/>
<rect x="61" y="95.1719" width="28.8" height="4.51411" rx="2" fill="#F0F0F0"/>
<rect x="52" y="87.2734" width="48" height="4.51411" rx="2" fill="#F0F0F0"/>
<path d="M68 59.5238H71.4457C71.647 60.3375 71.7713 61.167 71.7713 62.0263C71.7713 64.45 70.4832 66.3943 68.14 66.8755V69H82V66.83H72.361V66.6042C73.8047 65.6855 74.3472 64.0738 74.3472 61.8898C74.3472 61.076 74.2248 60.292 74.0533 59.5238H79.8107V57.8228H73.635C73.3095 56.5575 72.984 55.2765 72.984 53.8905C72.984 51.661 74.8163 50.275 77.499 50.275C78.7684 50.2925 80.0208 50.5694 81.1793 51.0888V48.798C79.9718 48.2799 78.6729 48.0086 77.359 48C73.0137 48 70.3135 50.2593 70.3135 53.8905C70.3135 55.2468 70.6548 56.5417 71.0118 57.8228H68V59.5238Z" fill="#FF5E53"/>
<rect x="132" y="15" width="8" height="8" rx="4" fill="#FF5E53"/>
<rect y="73" width="11" height="11" rx="5.5" fill="#FF5E53"/>
<rect x="14" y="18" width="5" height="5" rx="2.5" fill="#FF5E53"/>
<rect x="138" y="3" width="5" height="5" rx="2.5" fill="#FF5E53"/>
<defs>
<linearGradient id="paint0_linear_782_86800" x1="76" y1="0" x2="76" y2="117.367" gradientUnits="userSpaceOnUse">
<stop stop-color="#F5847D"/>
<stop offset="0.25" stop-color="#ED6C64"/>
<stop offset="0.505208" stop-color="#E95D53"/>
<stop offset="0.755208" stop-color="#DA4F46"/>
<stop offset="1" stop-color="#FF5E53"/>
</linearGradient>
</defs>
</svg>
