<svg width="14" height="13" viewBox="0 0 14 13" fill="none" xmlns="http://www.w3.org/2000/svg">
<path d="M6.99967 8.99967C7.18856 8.99967 7.3469 8.93579 7.47467 8.80801C7.60245 8.68023 7.66634 8.5219 7.66634 8.33301C7.66634 8.14412 7.60245 7.98579 7.47467 7.85801C7.3469 7.73023 7.18856 7.66634 6.99967 7.66634C6.81079 7.66634 6.65245 7.73023 6.52467 7.85801C6.3969 7.98579 6.33301 8.14412 6.33301 8.33301C6.33301 8.5219 6.3969 8.68023 6.52467 8.80801C6.65245 8.93579 6.81079 8.99967 6.99967 8.99967ZM6.99967 6.33301C7.18856 6.33301 7.3469 6.26912 7.47467 6.14134C7.60245 6.01356 7.66634 5.85523 7.66634 5.66634V2.99967C7.66634 2.81079 7.60245 2.65245 7.47467 2.52467C7.3469 2.3969 7.18856 2.33301 6.99967 2.33301C6.81079 2.33301 6.65245 2.3969 6.52467 2.52467C6.3969 2.65245 6.33301 2.81079 6.33301 2.99967V5.66634C6.33301 5.75523 6.34967 5.84134 6.38301 5.92467C6.41634 6.00801 6.46356 6.08023 6.52467 6.14134C6.58579 6.20245 6.65801 6.24967 6.74134 6.28301C6.82467 6.31634 6.91079 6.33301 6.99967 6.33301ZM2.99967 10.9997L1.46634 12.533C1.25523 12.7441 1.01356 12.7913 0.741341 12.6747C0.469119 12.558 0.333008 12.3497 0.333008 12.0497V1.66634C0.333008 1.29967 0.463563 0.985786 0.724674 0.724674C0.985786 0.463563 1.29967 0.333008 1.66634 0.333008H12.333C12.6997 0.333008 13.0136 0.463563 13.2747 0.724674C13.5358 0.985786 13.6663 1.29967 13.6663 1.66634V9.66634C13.6663 10.033 13.5358 10.3469 13.2747 10.608C13.0136 10.8691 12.6997 10.9997 12.333 10.9997H2.99967ZM1.66634 9.66634H12.333V1.66634H1.66634V9.66634Z" fill="#5E5E5E"/>
</svg>
