<svg xmlns="http://www.w3.org/2000/svg" width="28" height="28" viewBox="0 0 28 28">
    <g fill="none" fill-rule="evenodd">
        <g fill="#F9F9FC" fill-rule="nonzero">
            <g>
                <g transform="translate(-19.000000, -881.000000) translate(0.000000, -1.000000) translate(19.000000, 882.000000)">
                    <path d="M13.001 10H15.001V14H13.001z"/>
                    <circle cx="14.001" cy="16" r="1"/>
                    <path stroke="#242429" stroke-width=".8" d="M21 23c-.216 0-.427-.07-.6-.2L16.667 20H7c-.552 0-1-.448-1-1V8c0-.552.448-1 1-1h14c.552 0 1 .448 1 1v14c0 .552-.448 1-1 1zM8 18h9c.216 0 .427.07.6.2L20 20V9H8v9z"/>
                </g>
            </g>
        </g>
    </g>
</svg>
