<svg width="31" height="32" viewBox="0 0 31 32" fill="none" xmlns="http://www.w3.org/2000/svg">
<path d="M20.464 3.437L17.194 2.962L15.732 0L14.27 2.962L11 3.437L13.366 5.744L12.808 9L15.732 7.463L18.656 9L18.098 5.744L20.464 3.437Z" fill="black"/>
<path d="M10.464 24.437L7.194 23.962L5.732 21L4.27 23.962L1 24.437L3.366 26.744L2.808 30L5.732 28.463L8.656 30L8.098 26.744L10.464 24.437Z" fill="black"/>
<path d="M30.464 24.437L27.194 23.962L25.732 21L24.27 23.962L21 24.437L23.366 26.744L22.808 30L25.732 28.463L28.656 30L28.098 26.744L30.464 24.437Z" fill="black"/>
<path d="M8.73242 16C8.73242 16 15.7324 19.333 15.7324 31" stroke="black" stroke-width="2" stroke-miterlimit="10" stroke-linecap="square"/>
<path d="M15.7324 11V18" stroke="black" stroke-width="2" stroke-miterlimit="10" stroke-linecap="square"/>
<path d="M22.7321 16C22.7321 16 19.3511 17.46 17.2891 22.266" stroke="black" stroke-width="2" stroke-miterlimit="10" stroke-linecap="square"/>
<path d="M3.73242 15C4.83699 15 5.73242 14.1046 5.73242 13C5.73242 11.8954 4.83699 11 3.73242 11C2.62785 11 1.73242 11.8954 1.73242 13C1.73242 14.1046 2.62785 15 3.73242 15Z" stroke="black" stroke-width="2" stroke-miterlimit="10" stroke-linecap="square"/>
<path d="M27.7324 15C28.837 15 29.7324 14.1046 29.7324 13C29.7324 11.8954 28.837 11 27.7324 11C26.6279 11 25.7324 11.8954 25.7324 13C25.7324 14.1046 26.6279 15 27.7324 15Z" stroke="black" stroke-width="2" stroke-miterlimit="10" stroke-linecap="square"/>
</svg>
