<svg width="32" height="31" viewBox="0 0 32 31" fill="none" xmlns="http://www.w3.org/2000/svg">
<path d="M31 11H1" stroke="black" stroke-width="2" stroke-miterlimit="10"/>
<path d="M28 4H4C2.34315 4 1 5.34315 1 7V27C1 28.6569 2.34315 30 4 30H28C29.6569 30 31 28.6569 31 27V7C31 5.34315 29.6569 4 28 4Z" stroke="black" stroke-width="2" stroke-miterlimit="10" stroke-linecap="square"/>
<path d="M8 1V7" stroke="black" stroke-width="2" stroke-miterlimit="10" stroke-linecap="square"/>
<path d="M24 1V7" stroke="black" stroke-width="2" stroke-miterlimit="10" stroke-linecap="square"/>
<path d="M20.1998 16.7895C19.913 16.507 19.5676 16.2909 19.1881 16.1566C18.8086 16.0222 18.4042 15.9729 18.0036 16.0122C17.6029 16.0514 17.2158 16.1781 16.8695 16.3835C16.5232 16.5888 16.2263 16.8677 15.9998 17.2005C15.7736 16.8674 15.477 16.588 15.1309 16.3822C14.7849 16.1764 14.3978 16.0492 13.9971 16.0095C13.5964 15.9698 13.1919 16.0186 12.8122 16.1526C12.4325 16.2865 12.0869 16.5022 11.7998 16.7845C11.2946 17.281 11.0073 17.9578 11.0011 18.6662C10.9949 19.3745 11.2703 20.0562 11.7668 20.5615L11.7998 20.5945L15.9998 24.7505L20.1998 20.6005C20.7051 20.1041 20.9926 19.4273 20.9989 18.719C21.0053 18.0107 20.7301 17.3289 20.2338 16.8235L20.1998 16.7895Z" stroke="black" stroke-width="2" stroke-miterlimit="10"/>
</svg>
