<svg width="193" height="51" viewBox="0 0 193 51" fill="none" xmlns="http://www.w3.org/2000/svg">
<g clip-path="url(#clip0_279_3129)">
<path d="M37.4051 0.705078L32.2012 7.62664H7.59276V44.2297H44.3827V25.7501L51.3229 16.7501V50.7721H0.617188V0.705078H37.4051Z" fill="white"/>
<path d="M19.6619 19.8522L25.8688 26.3725L46.4642 0.833984L51.3762 5.03307L25.8688 36.7609L14.1934 24.579L19.6619 19.8522Z" fill="#3BD55A"/>
<path d="M84.6907 12.3294V13.1319C84.7157 14.36 84.4803 15.5796 83.9996 16.7115C83.519 17.8433 82.8039 18.862 81.9009 19.7014C80.041 21.4803 77.5909 22.3694 74.5506 22.3687C71.3506 22.3687 68.7106 21.3321 66.6306 19.259C65.614 18.2631 64.813 17.0715 64.2765 15.7573C63.7399 14.4431 63.4793 13.034 63.5104 11.6162C63.4786 10.201 63.736 8.7941 64.267 7.48047C64.7981 6.16684 65.5918 4.97379 66.6003 3.9734C68.6608 1.90027 71.2712 0.863711 74.4314 0.863711C76.2875 0.846953 78.1147 1.32018 79.7262 2.23498C81.2843 3.09618 82.5764 4.36311 83.4634 5.8994L82.0554 6.733C81.3429 5.40537 80.2645 4.3066 78.9464 3.56513C77.577 2.77105 76.017 2.3593 74.4314 2.37341C71.7116 2.37341 69.4763 3.26218 67.7255 5.03972C66.8658 5.90336 66.1901 6.9302 65.7389 8.05892C65.2877 9.18765 65.0702 10.3951 65.0993 11.6092C65.0703 12.8247 65.2894 14.0335 65.7434 15.1627C66.1973 16.2919 66.8767 17.3182 67.7406 18.1797C69.5029 19.9572 71.7735 20.846 74.5526 20.846C77.0124 20.846 79.0023 20.1806 80.5221 18.8497C81.2606 18.2189 81.8662 17.4492 82.3039 16.5849C82.7416 15.7207 83.0028 14.779 83.0725 13.8141H74.1607V12.3294H84.6907ZM89.6653 20.8058H100.462V22.3376H88.031V0.893805H100.309V2.42056H89.6653V10.7525H99.5357V12.2843H89.6653V20.8058ZM117.329 0.893805V2.42056H110.544V22.3326H108.878V2.42056H102.092V0.893805H117.329ZM68.7012 46.2722V30.0045H63.9003V50.8605H76.201V46.2722H68.7012ZM77.8212 30.0045V50.8605H82.621V30.0045H77.8212ZM95.7429 50.8555C99.5085 50.8555 102.802 49.0137 104.568 46.1237L100.511 43.7864C99.6297 45.3643 97.8348 46.2993 95.748 46.2993C92.0996 46.2993 89.7461 43.8747 89.7461 40.2223C89.7461 36.57 92.0996 34.1464 95.748 34.1464C97.8358 34.1464 99.6014 35.0813 100.511 36.6542L104.573 34.3169C103.632 32.8449 102.327 31.6371 100.782 30.8089C99.2365 29.9806 97.5035 29.5597 95.748 29.5862C89.5411 29.5862 85.0412 34.2006 85.0412 40.2193C85.0412 46.2381 89.536 50.8555 95.7429 50.8555ZM111.331 46.2722V42.5777H118.832V38.0486H111.331V34.5928H119.582V30.0045H106.532V50.8605H119.732V46.2722H111.331ZM133.654 30.0045V41.3258L125.552 30.0045H121.951V50.8605H126.752V39.5382L134.854 50.8605H138.454V30.0045H133.654ZM148.618 50.8555C153.09 50.8555 156.267 48.5182 156.267 44.5749C156.267 40.2504 152.767 39.1701 149.649 38.2351C146.442 37.2711 145.942 36.6301 145.942 35.6942C145.942 34.8767 146.677 34.1464 148.148 34.1464C150.03 34.1464 151.001 35.0492 151.707 36.5128L155.679 34.2056C154.179 31.1962 151.53 29.5912 148.148 29.5912C144.588 29.5912 141.235 31.8703 141.235 35.8156C141.235 39.7278 144.236 41.1913 147.295 42.035C150.384 42.8816 151.561 43.3782 151.561 44.6351C151.561 45.4235 151.001 46.3003 148.766 46.3003C146.443 46.3003 145.177 45.1607 144.442 43.4664L140.38 45.8037C141.527 48.8101 144.291 50.8555 148.616 50.8555H148.618ZM162.996 46.2722V42.5777H170.496V38.0486H162.996V34.5928H171.246V30.0045H158.196V50.8605H171.396V46.2722H162.996ZM182.015 30.0045H173.615V50.8605H182.015C187.805 50.8605 192.217 46.3314 192.217 40.428C192.217 34.5246 187.803 30.0045 182.013 30.0045H182.015ZM182.015 46.2722H178.414V34.5928H182.015C185.315 34.5928 187.595 36.8568 187.595 40.432C187.595 44.0071 185.313 46.2722 182.013 46.2722H182.015Z" fill="white"/>
</g>
<defs>
<clipPath id="clip0_279_3129">
<rect width="191.597" height="50.1563" fill="white" transform="translate(0.515625 0.59375)"/>
</clipPath>
</defs>
</svg>
