<svg width="327" height="109" viewBox="0 0 327 109" fill="none" xmlns="http://www.w3.org/2000/svg">
<path d="M34.6087 44.2916C32.9285 46.4116 30.6819 48.0121 28.1293 48.9074C25.1143 49.9959 21.9264 50.527 18.7213 50.4747C15.3627 50.54 12.0494 49.6916 9.13553 48.0201C6.34129 46.3692 4.10131 43.9244 2.70059 40.9967C1.12663 37.6629 0.32268 34.0177 0.348248 30.3311V26.9648C0.348248 20.4558 1.9066 15.3719 5.02331 11.713C8.14001 8.05406 12.4892 6.22461 18.0709 6.22461C22.8636 6.22461 26.6701 7.40818 29.4906 9.77534C32.4447 12.4013 34.2681 16.0685 34.579 20.0088H27.2393C26.4107 14.8211 23.4035 12.2273 18.2177 12.2273C16.7415 12.1439 15.2679 12.432 13.9318 13.0652C12.5957 13.6985 11.4397 14.6567 10.5696 15.8521C8.82359 18.2686 7.92143 21.8144 7.86308 26.4895V29.8032C7.86308 34.4585 8.84423 38.073 10.8065 40.6466C11.7554 41.9042 12.996 42.912 14.4214 43.5829C15.8468 44.2539 17.4141 44.5678 18.9879 44.4976C22.8147 44.4976 25.5364 43.6296 27.1531 41.8935V33.4617H18.2783V27.7808H34.6087V44.2916Z" fill="white"/>
<path d="M103.803 39.8555H87.1158L83.6243 49.8856H75.8496L92.1154 6.80824H98.8317L115.134 49.8856H107.324L103.803 39.8555ZM89.2163 33.8204H101.702L95.4587 15.9537L89.2163 33.8204ZM134.027 33.2818H125.678V49.8856H118.198V6.80824H133.345C138.316 6.80824 142.152 7.92269 144.854 10.1516C146.228 11.3436 147.309 12.8368 148.012 14.5148C148.715 16.1929 149.021 18.0105 148.907 19.8262C148.998 22.3977 148.267 24.9314 146.821 27.0596C145.343 29.0709 143.328 30.6245 141.007 31.5422L150.684 49.5005V49.8856H142.666L134.027 33.2818ZM125.678 27.2764H133.371C135.513 27.4092 137.627 26.732 139.293 25.3792C140.01 24.7173 140.572 23.9058 140.941 23.0023C141.309 22.0987 141.474 21.1252 141.424 20.1507C141.486 19.1705 141.342 18.1883 141.004 17.2664C140.665 16.3446 140.138 15.5032 139.457 14.7957C137.821 13.4172 135.719 12.7184 133.584 12.8433H125.684L125.678 27.2764ZM154.192 49.8856V6.80824H166.914C170.458 6.74138 173.955 7.6198 177.047 9.35313C179.986 11.0389 182.368 13.5483 183.897 16.5717C185.561 19.8926 186.393 23.5681 186.321 27.2818V29.4362C186.401 33.1726 185.563 36.8716 183.88 40.2083C182.323 43.2316 179.903 45.7237 176.926 47.3676C173.755 49.0857 170.194 49.9532 166.588 49.8856H154.192ZM161.677 12.8433V43.9098H166.558C168.245 44.0147 169.933 43.7379 171.498 43.1001C173.063 42.4623 174.464 41.4798 175.597 40.2258C177.698 37.7697 178.768 34.2441 178.807 29.649V27.2522C178.807 22.5771 177.792 19.0071 175.76 16.5421C174.67 15.2863 173.304 14.2991 171.77 13.6575C170.235 13.016 168.573 12.7373 166.914 12.8433H161.677Z" fill="white"/>
<path d="M198.936 33.8781V49.884H191.451V6.80664H207.931C212.743 6.80664 216.565 8.05933 219.395 10.5647C220.795 11.8042 221.901 13.3389 222.635 15.0581C223.37 16.7772 223.713 18.638 223.641 20.506C223.741 22.3562 223.419 24.2049 222.699 25.9122C221.979 27.6194 220.879 29.1403 219.484 30.3597C216.713 32.7071 212.832 33.8808 207.842 33.8808L198.936 33.8781ZM198.936 27.8727H207.931C210.126 28.0229 212.298 27.3509 214.025 25.9876C214.75 25.2902 215.313 24.443 215.676 23.5052C216.038 22.5675 216.192 21.5618 216.126 20.5585C216.175 19.5336 216.011 18.5096 215.646 17.5509C215.28 16.5921 214.721 15.7191 214.002 14.9866C212.408 13.5289 210.303 12.7583 208.144 12.8417H198.936V27.8727ZM247.209 39.8566H230.521L227.03 49.884H219.254L235.522 6.80664H242.239L258.539 49.884H250.73L247.209 39.8566ZM232.622 33.8188H245.107L238.864 15.9521L232.622 33.8188ZM284.119 38.7888C284.163 37.952 284.005 37.1169 283.657 36.3545C283.31 35.5921 282.783 34.925 282.122 34.4099C279.907 32.9868 277.473 31.9374 274.918 31.3036C272.018 30.5029 269.233 29.3293 266.635 27.8121C262.709 25.3462 260.746 22.1312 260.746 18.1671C260.723 16.5029 261.097 14.857 261.835 13.3653C262.573 11.8736 263.655 10.5786 264.992 9.58717C268.169 7.23 272.061 6.04103 276.013 6.22091C278.776 6.17106 281.515 6.7368 284.031 7.87711C286.281 8.89749 288.199 10.5307 289.564 12.5899C290.897 14.6021 291.597 16.9669 291.576 19.3803H284.119C284.172 18.3989 284.009 17.4179 283.643 16.5057C283.278 15.5936 282.717 14.7723 282.001 14.0993C280.295 12.7273 278.135 12.0463 275.951 12.1913C273.931 12.0676 271.927 12.6195 270.255 13.76C269.59 14.2731 269.059 14.939 268.706 15.7013C268.353 16.4636 268.189 17.2998 268.229 18.1388C268.235 18.9278 268.439 19.7026 268.822 20.3925C269.205 21.0823 269.755 21.6653 270.421 22.0881C272.652 23.484 275.088 24.5221 277.639 25.1649C280.471 25.937 283.188 27.0812 285.719 28.5675C287.546 29.6367 289.081 31.1409 290.186 32.9463C291.165 34.7162 291.655 36.7145 291.607 38.7363C291.662 40.3911 291.315 42.0345 290.596 43.5261C289.877 45.0177 288.808 46.3131 287.48 47.3014C284.725 49.4172 280.991 50.4751 276.278 50.4751C273.324 50.5081 270.395 49.9186 267.683 48.7448C265.255 47.7367 263.147 46.0843 261.589 43.9661C260.126 41.8917 259.364 39.404 259.415 36.866H266.9C266.84 37.9355 267.027 39.0044 267.448 39.9897C267.868 40.9749 268.51 41.85 269.323 42.5469C271.335 44.011 273.796 44.7229 276.278 44.5585C278.359 44.7096 280.429 44.1514 282.152 42.9751C282.786 42.4813 283.294 41.8448 283.636 41.1174C283.978 40.39 284.143 39.5921 284.119 38.7888ZM318.869 38.7888C318.914 37.9523 318.756 37.1173 318.409 36.3549C318.062 35.5925 317.536 34.9253 316.875 34.4099C314.66 32.9868 312.227 31.9374 309.671 31.3036C306.772 30.5027 303.988 29.3291 301.39 27.8121C297.465 25.3462 295.502 22.1312 295.502 18.1671C295.479 16.5029 295.852 14.857 296.591 13.3653C297.329 11.8736 298.411 10.5786 299.748 9.58717C302.924 7.23 306.817 6.04103 310.769 6.22091C313.531 6.17106 316.271 6.7368 318.787 7.87711C321.037 8.89749 322.955 10.5307 324.32 12.5899C325.653 14.6021 326.353 16.9669 326.332 19.3803H318.869C318.922 18.3991 318.761 17.4182 318.395 16.5061C318.03 15.5939 317.47 14.7725 316.754 14.0993C315.048 12.7273 312.889 12.0463 310.704 12.1913C308.684 12.0676 306.68 12.6195 305.009 13.76C304.343 14.2731 303.812 14.939 303.459 15.7013C303.106 16.4636 302.943 17.2998 302.982 18.1388C302.988 18.9275 303.192 19.7022 303.574 20.392C303.957 21.0819 304.506 21.665 305.171 22.0881C307.402 23.484 309.838 24.5221 312.39 25.1649C315.222 25.937 317.938 27.0812 320.469 28.5675C322.296 29.6367 323.831 31.1409 324.937 32.9463C325.915 34.7162 326.406 36.7145 326.357 38.7363C326.412 40.3911 326.065 42.0345 325.347 43.5261C324.628 45.0177 323.559 46.3131 322.23 47.3014C319.477 49.4172 315.743 50.4751 311.029 50.4751C308.074 50.5081 305.146 49.9186 302.434 48.7448C300.005 47.7367 297.898 46.0843 296.34 43.9661C294.877 41.8917 294.115 39.404 294.165 36.866H301.65C301.59 37.9355 301.778 39.0044 302.198 39.9897C302.619 40.9749 303.26 41.85 304.074 42.5469C306.085 44.0107 308.546 44.7226 311.027 44.5585C313.108 44.7099 315.179 44.1517 316.902 42.9751C317.536 42.4813 318.045 41.8448 318.387 41.1174C318.729 40.39 318.894 39.5921 318.869 38.7888Z" fill="#00CF2E"/>
<path d="M49.9794 44.6657L38.9609 33.5342V8.58887C38.9609 8.58887 39.2814 8.61176 39.8483 8.61176C42.6098 8.60239 45.3533 8.16776 47.9825 7.32315C49.833 6.72937 51.5898 5.87569 53.2002 4.78769C55.0063 3.55829 56.5573 1.99084 57.7675 0.171875V5.82719C56.1224 7.25492 54.3086 8.47586 52.3667 9.46275C50.8044 10.257 49.1694 10.8995 47.4843 11.3815C45.8892 11.8591 44.2448 12.1532 42.583 12.2581L42.7433 31.9251L52.5943 42.1733L49.9794 44.6657ZM72.466 37.9076L69.8093 35.2429L72.7905 31.9265L72.9507 12.2594C71.29 12.1534 69.6466 11.8594 68.0521 11.3829C66.3675 10.9004 64.733 10.2574 63.1711 9.46275C61.2292 8.47585 59.4154 7.25491 57.7702 5.82719V0.171875C58.9809 1.99097 60.5324 3.55842 62.3389 4.78769C63.9493 5.87569 65.7061 6.72937 67.5566 7.32315C70.1854 8.16764 72.9285 8.60227 75.6895 8.61176C76.247 8.61176 76.5742 8.58887 76.5769 8.58887V33.5342L72.4714 37.9076H72.466Z" fill="white"/>
<path d="M51.7305 46.5222L54.4583 43.8587L57.7546 47.1642L68.1226 36.834L70.8064 39.5188L57.7585 52.4654L51.7305 46.5222Z" fill="#00CF2E"/>
<rect x="178.637" y="65.123" width="147.726" height="43.2989" rx="7.64098" fill="white"/>
<path d="M191.34 79.5648H192.851V90.3336L192.721 92.0391H191.34V79.5648ZM198.787 87.5724V87.7429C198.787 88.3818 198.712 88.9746 198.56 89.5215C198.408 90.0629 198.186 90.5339 197.894 90.9346C197.602 91.3352 197.244 91.6465 196.822 91.8685C196.4 92.0905 195.915 92.2015 195.368 92.2015C194.811 92.2015 194.321 92.1067 193.898 91.9172C193.481 91.7223 193.13 91.4435 192.843 91.0808C192.556 90.718 192.326 90.2795 192.152 89.7651C191.984 89.2508 191.868 88.6715 191.803 88.0272V87.28C191.868 86.6303 191.984 86.0483 192.152 85.5339C192.326 85.0196 192.556 84.5811 192.843 84.2183C193.13 83.8501 193.481 83.5713 193.898 83.3818C194.315 83.1869 194.8 83.0895 195.352 83.0895C195.904 83.0895 196.394 83.1977 196.822 83.4143C197.25 83.6255 197.607 83.9286 197.894 84.3239C198.186 84.7191 198.408 85.1929 198.56 85.7451C198.712 86.2919 198.787 86.901 198.787 87.5724ZM197.277 87.7429V87.5724C197.277 87.1338 197.236 86.7224 197.155 86.338C197.074 85.9481 196.944 85.607 196.765 85.3147C196.586 85.0169 196.351 84.7841 196.059 84.6162C195.766 84.443 195.406 84.3564 194.978 84.3564C194.599 84.3564 194.269 84.4213 193.988 84.5513C193.712 84.6812 193.476 84.8572 193.281 85.0792C193.086 85.2957 192.926 85.5448 192.802 85.8263C192.683 86.1024 192.594 86.3894 192.534 86.6872V88.6444C192.621 89.0234 192.761 89.3888 192.956 89.7408C193.157 90.0873 193.422 90.3715 193.752 90.5935C194.088 90.8155 194.502 90.9265 194.995 90.9265C195.401 90.9265 195.747 90.8452 196.034 90.6828C196.327 90.515 196.562 90.2849 196.741 89.9925C196.925 89.7001 197.06 89.3618 197.147 88.9774C197.233 88.5929 197.277 88.1815 197.277 87.7429ZM201.729 91.1295L204.173 83.2519H205.781L202.256 93.3953C202.175 93.6119 202.067 93.8447 201.932 94.0937C201.802 94.3482 201.634 94.5891 201.428 94.8165C201.222 95.0439 200.973 95.228 200.681 95.3688C200.394 95.515 200.05 95.588 199.649 95.588C199.53 95.588 199.379 95.5718 199.195 95.5393C199.011 95.5068 198.881 95.4798 198.805 95.4581L198.797 94.2399C198.84 94.2453 198.908 94.2507 199 94.2562C199.097 94.267 199.165 94.2724 199.203 94.2724C199.544 94.2724 199.834 94.2264 200.072 94.1343C200.31 94.0477 200.51 93.8988 200.673 93.6877C200.841 93.4819 200.984 93.1977 201.103 92.8349L201.729 91.1295ZM199.934 83.2519L202.216 90.0737L202.606 91.6574L201.525 92.2096L198.293 83.2519H199.934Z" fill="black"/>
<g clip-path="url(#clip0_279_3060)">
<path d="M232.528 74.0977L229.758 77.7701H216.655V97.1907H236.243V87.3859L239.939 82.6107V100.662H212.941V74.0977H232.528Z" fill="black"/>
<path d="M223.082 84.2566L226.386 87.7162L237.352 74.166L239.967 76.3939L226.386 93.228L220.17 86.7645L223.082 84.2566Z" fill="#3BD55A"/>
<path d="M257.704 80.2653V80.6911C257.717 81.3427 257.592 81.9898 257.336 82.5903C257.08 83.1908 256.7 83.7313 256.219 84.1767C255.228 85.1205 253.924 85.5922 252.305 85.5919C250.602 85.5919 249.196 85.0419 248.088 83.942C247.547 83.4136 247.121 82.7813 246.835 82.0841C246.549 81.3868 246.411 80.6391 246.427 79.8869C246.41 79.136 246.547 78.3895 246.83 77.6926C247.113 76.9956 247.535 76.3626 248.072 75.8318C249.169 74.7318 250.559 74.1819 252.242 74.1819C253.23 74.173 254.203 74.4241 255.061 74.9094C255.89 75.3664 256.578 76.0386 257.051 76.8537L256.301 77.296C255.922 76.5916 255.348 76.0086 254.646 75.6152C253.917 75.1939 253.086 74.9754 252.242 74.9829C250.794 74.9829 249.604 75.4544 248.671 76.3976C248.214 76.8558 247.854 77.4006 247.614 77.9995C247.373 78.5983 247.258 79.239 247.273 79.8832C247.258 80.5281 247.374 81.1694 247.616 81.7686C247.858 82.3677 248.219 82.9122 248.679 83.3693C249.618 84.3124 250.827 84.784 252.306 84.784C253.616 84.784 254.675 84.4309 255.485 83.7248C255.878 83.3901 256.2 82.9817 256.433 82.5232C256.666 82.0646 256.805 81.565 256.843 81.053H252.098V80.2653H257.704ZM260.353 84.7627H266.101V85.5754H259.483V74.1978H266.02V75.0079H260.353V79.4286H265.608V80.2413H260.353V84.7627ZM275.082 74.1978V75.0079H271.469V85.5727H270.582V75.0079H266.969V74.1978H275.082ZM249.191 98.2745V89.6433H246.635V100.709H253.184V98.2745H249.191ZM254.047 89.6433V100.709H256.602V89.6433H254.047ZM263.589 100.706C265.594 100.706 267.347 99.7291 268.287 98.1957L266.128 96.9556C265.658 97.7928 264.702 98.2889 263.591 98.2889C261.649 98.2889 260.396 97.0025 260.396 95.0646C260.396 93.1267 261.649 91.8408 263.591 91.8408C264.703 91.8408 265.643 92.3369 266.128 93.1714L268.29 91.9313C267.789 91.1503 267.094 90.5095 266.271 90.07C265.449 89.6306 264.526 89.4072 263.591 89.4213C260.287 89.4213 257.891 91.8696 257.891 95.063C257.891 98.2564 260.284 100.706 263.589 100.706ZM271.888 98.2745V96.3143H275.882V93.9112H271.888V92.0777H276.281V89.6433H269.333V100.709H276.361V98.2745H271.888ZM283.774 89.6433V95.65L279.46 89.6433H277.543V100.709H280.099V94.7016L284.412 100.709H286.329V89.6433H283.774ZM291.741 100.706C294.122 100.706 295.813 99.4662 295.813 97.374C295.813 95.0795 293.95 94.5063 292.289 94.0102C290.582 93.4988 290.316 93.1587 290.316 92.6621C290.316 92.2283 290.707 91.8408 291.49 91.8408C292.493 91.8408 293.01 92.3199 293.386 93.0964L295.5 91.8723C294.701 90.2756 293.291 89.424 291.49 89.424C289.595 89.424 287.81 90.6332 287.81 92.7265C287.81 94.8022 289.407 95.5787 291.036 96.0263C292.681 96.4755 293.308 96.739 293.308 97.4059C293.308 97.8242 293.01 98.2894 291.819 98.2894C290.583 98.2894 289.909 97.6848 289.517 96.7858L287.355 98.0259C287.965 99.621 289.437 100.706 291.74 100.706H291.741ZM299.396 98.2745V96.3143H303.389V93.9112H299.396V92.0777H303.789V89.6433H296.84V100.709H303.869V98.2745H299.396ZM309.522 89.6433H305.05V100.709H309.522C312.605 100.709 314.954 98.3059 314.954 95.1737C314.954 92.0415 312.604 89.6433 309.521 89.6433H309.522ZM309.522 98.2745H307.605V92.0777H309.522C311.279 92.0777 312.493 93.2789 312.493 95.1758C312.493 97.0727 311.278 98.2745 309.521 98.2745H309.522Z" fill="black"/>
</g>
<defs>
<clipPath id="clip0_279_3060">
<rect width="102.011" height="26.6117" fill="white" transform="translate(212.887 74.0391)"/>
</clipPath>
</defs>
</svg>
