<svg width="176" height="52" viewBox="0 0 176 52" fill="none" xmlns="http://www.w3.org/2000/svg">
<path d="M169.264 51.3203H7.33649C3.7757 51.3203 0.859375 48.4725 0.859375 44.9953V7.04493C0.859375 3.56774 3.7757 0.719879 7.33649 0.719879H169.264C172.825 0.719879 175.742 3.56774 175.742 7.04493V44.9953C175.742 48.4725 172.825 51.3203 169.264 51.3203Z" fill="black"/>
<path d="M169.264 1.73347C172.263 1.73347 174.704 4.11643 174.704 7.04493V44.9953C174.704 47.9238 172.263 50.3067 169.264 50.3067H7.33649C4.33759 50.3067 1.89733 47.9238 1.89733 44.9953V7.04493C1.89733 4.11643 4.33759 1.73347 7.33649 1.73347H169.264ZM169.264 0.719879H7.33649C3.7757 0.719879 0.859375 3.56774 0.859375 7.04493V44.9953C0.859375 48.4725 3.7757 51.3203 7.33649 51.3203H169.264C172.825 51.3203 175.742 48.4725 175.742 44.9953V7.04493C175.742 3.56774 172.825 0.719879 169.264 0.719879Z" fill="#A6A6A6"/>
<path d="M14.3761 10.2541C13.9956 10.6431 13.7754 11.2487 13.7754 12.033V40.0087C13.7754 40.793 13.9956 41.3987 14.3761 41.7877L14.4701 41.873L30.5236 26.2027V25.8327L14.4701 10.1624L14.3761 10.2541Z" fill="url(#paint0_linear_279_3098)"/>
<path d="M35.8687 31.4316L30.5234 26.2056V25.8355L35.8752 20.6095L35.995 20.6775L42.3328 24.1989C44.1416 25.1983 44.1416 26.8428 42.3328 27.8485L35.995 31.3636L35.8687 31.4316Z" fill="url(#paint1_linear_279_3098)"/>
<path d="M35.996 31.3628L30.5244 26.0197L14.377 41.7897C14.9777 42.4064 15.9574 42.4807 17.0714 41.864L35.996 31.3628Z" fill="url(#paint2_linear_279_3098)"/>
<path d="M35.996 20.6764L17.0714 10.1753C15.9574 9.56491 14.9777 9.63923 14.377 10.2559L30.5244 26.0195L35.996 20.6764Z" fill="url(#paint3_linear_279_3098)"/>
<path d="M62.2864 13.6785C62.2864 14.7347 61.9626 15.5807 61.3246 16.2116C60.591 16.9596 59.6357 17.3359 58.4649 17.3359C57.346 17.3359 56.3906 16.9532 55.6069 16.199C54.8215 15.4337 54.4297 14.4944 54.4297 13.3701C54.4297 12.2458 54.8215 11.3066 55.6069 10.5476C56.3906 9.78696 57.346 9.4043 58.4649 9.4043C59.022 9.4043 59.5531 9.51657 60.0599 9.72529C60.5651 9.9356 60.9764 10.2202 61.2744 10.5713L60.5975 11.2386C60.0777 10.6393 59.3701 10.3436 58.4649 10.3436C57.6488 10.3436 56.9412 10.6219 56.3404 11.1832C55.7462 11.7461 55.4482 12.4751 55.4482 13.3701C55.4482 14.2651 55.7462 15.0004 56.3404 15.5633C56.9412 16.1183 57.6488 16.403 58.4649 16.403C59.3312 16.403 60.0599 16.1183 60.6348 15.557C61.0137 15.1854 61.229 14.6731 61.2857 14.0184H58.4649V13.1045H62.2281C62.2735 13.3021 62.2864 13.4934 62.2864 13.6785Z" fill="white" stroke="white" stroke-width="0.179913" stroke-miterlimit="10"/>
<path d="M68.2544 10.5095H64.7195V12.913H67.9062V13.827H64.7195V16.2305H68.2544V17.1619H63.7188V9.57812H68.2544V10.5095Z" fill="white" stroke="white" stroke-width="0.179913" stroke-miterlimit="10"/>
<path d="M72.4697 17.1619H71.469V10.5095H69.3008V9.57812H74.6395V10.5095H72.4697V17.1619Z" fill="white" stroke="white" stroke-width="0.179913" stroke-miterlimit="10"/>
<path d="M78.502 17.1619V9.57812H79.501V17.1619H78.502Z" fill="white" stroke="white" stroke-width="0.179913" stroke-miterlimit="10"/>
<path d="M83.9306 17.1619H82.938V10.5095H80.7617V9.57812H86.107V10.5095H83.9306V17.1619Z" fill="white" stroke="white" stroke-width="0.179913" stroke-miterlimit="10"/>
<path d="M96.2138 16.1863C95.4479 16.9532 94.499 17.3359 93.3671 17.3359C92.2288 17.3359 91.2799 16.9532 90.514 16.1863C89.7497 15.421 89.3691 14.4817 89.3691 13.3701C89.3691 12.2585 89.7497 11.3192 90.514 10.5539C91.2799 9.78696 92.2288 9.4043 93.3671 9.4043C94.4925 9.4043 95.4415 9.78696 96.2074 10.5602C96.9782 11.3319 97.3587 12.2648 97.3587 13.3701C97.3587 14.4817 96.9781 15.421 96.2138 16.1863ZM91.254 15.5507C91.8305 16.1183 92.5316 16.403 93.3671 16.403C94.1962 16.403 94.9038 16.1183 95.4738 15.5507C96.0487 14.983 96.3401 14.254 96.3401 13.3701C96.3401 12.4862 96.0487 11.7572 95.4738 11.1895C94.9038 10.6219 94.1962 10.3372 93.3671 10.3372C92.5316 10.3372 91.8305 10.6219 91.254 11.1895C90.6791 11.7572 90.3877 12.4862 90.3877 13.3701C90.3877 14.254 90.6791 14.983 91.254 15.5507Z" fill="white" stroke="white" stroke-width="0.179913" stroke-miterlimit="10"/>
<path d="M98.7637 17.1619V9.57812H99.9781L103.754 15.4762H103.798L103.754 14.0183V9.57812H104.753V17.1619H103.711L99.7563 10.9728H99.7126L99.7563 12.437V17.1619H98.7637Z" fill="white" stroke="white" stroke-width="0.179913" stroke-miterlimit="10"/>
<path d="M89.1249 28.2388C86.0823 28.2388 83.5967 30.5 83.5967 33.6199C83.5967 36.7144 86.0823 38.9993 89.1249 38.9993C92.174 38.9993 94.6596 36.7144 94.6596 33.6199C94.6596 30.5 92.174 28.2388 89.1249 28.2388ZM89.1249 36.8804C87.4554 36.8804 86.0191 35.5348 86.0191 33.6199C86.0191 31.6797 87.4554 30.3577 89.1249 30.3577C90.7944 30.3577 92.2371 31.6797 92.2371 33.6199C92.2371 35.5348 90.7944 36.8804 89.1249 36.8804ZM77.0629 28.2388C74.0138 28.2388 71.5347 30.5 71.5347 33.6199C71.5347 36.7144 74.0138 38.9993 77.0629 38.9993C80.1104 38.9993 82.5911 36.7144 82.5911 33.6199C82.5911 30.5 80.1104 28.2388 77.0629 28.2388ZM77.0629 36.8804C75.3918 36.8804 73.9506 35.5348 73.9506 33.6199C73.9506 31.6797 75.3918 30.3577 77.0629 30.3577C78.7323 30.3577 80.1687 31.6797 80.1687 33.6199C80.1687 35.5348 78.7323 36.8804 77.0629 36.8804ZM62.7096 29.8881V32.1746H68.301C68.1374 33.4522 67.7002 34.3915 67.0298 35.0462C66.2137 35.8368 64.9426 36.7144 62.7096 36.7144C59.2686 36.7144 56.5741 34.0025 56.5741 30.6423C56.5741 27.2822 59.2686 24.5703 62.7096 24.5703C64.5701 24.5703 65.9239 25.2803 66.9229 26.2006L68.573 24.5893C67.1756 23.2863 65.3166 22.2854 62.7096 22.2854C57.991 22.2854 54.0254 26.0345 54.0254 30.6423C54.0254 35.2501 57.991 38.9993 62.7096 38.9993C65.2599 38.9993 67.1756 38.1834 68.6815 36.6527C70.2247 35.1458 70.7056 33.0269 70.7056 31.316C70.7056 30.7847 70.6602 30.296 70.5793 29.8881H62.7096ZM121.402 31.6607C120.947 30.4573 119.543 28.2388 116.683 28.2388C113.85 28.2388 111.49 30.4194 111.49 33.6199C111.49 36.6338 113.825 38.9993 116.955 38.9993C119.486 38.9993 120.947 37.4924 121.548 36.6148L119.669 35.3925C119.043 36.2875 118.189 36.8804 116.955 36.8804C115.73 36.8804 114.85 36.3317 114.287 35.2501L121.656 32.2726L121.402 31.6607ZM113.889 33.4522C113.825 31.3776 115.539 30.315 116.766 30.315C117.728 30.315 118.544 30.7847 118.816 31.4567L113.889 33.4522ZM107.899 38.672H110.321V22.8594H107.899V38.672ZM103.932 29.4374H103.851C103.307 28.8081 102.269 28.2388 100.954 28.2388C98.1945 28.2388 95.6716 30.6044 95.6716 33.6373C95.6716 36.6527 98.1945 38.9993 100.954 38.9993C102.269 38.9993 103.307 38.4253 103.851 37.777H103.932V38.5487C103.932 40.6059 102.806 41.7112 100.991 41.7112C99.5109 41.7112 98.5928 40.6676 98.2139 39.79L96.1072 40.6486C96.7144 42.0749 98.3224 43.8301 100.991 43.8301C103.831 43.8301 106.228 42.1982 106.228 38.2277V28.5661H103.932V29.4374ZM101.161 36.8804C99.4915 36.8804 98.0941 35.5158 98.0941 33.6373C98.0941 31.7413 99.4915 30.3577 101.161 30.3577C102.806 30.3577 104.103 31.7413 104.103 33.6373C104.103 35.5158 102.806 36.8804 101.161 36.8804ZM132.743 22.8594H126.95V38.672H129.366V32.6806H132.743C135.427 32.6806 138.058 30.7847 138.058 27.7692C138.058 24.7553 135.42 22.8594 132.743 22.8594ZM132.807 30.4811H129.366V25.0589H132.807C134.61 25.0589 135.64 26.5216 135.64 27.7692C135.64 28.9931 134.61 30.4811 132.807 30.4811ZM147.741 28.2088C145.996 28.2088 144.18 28.9615 143.434 30.6297L145.578 31.5073C146.039 30.6297 146.888 30.3451 147.785 30.3451C149.038 30.3451 150.309 31.0804 150.329 32.3786V32.5446C149.892 32.2979 148.956 31.9327 147.804 31.9327C145.495 31.9327 143.142 33.1739 143.142 35.4905C143.142 37.6094 145.034 38.974 147.16 38.974C148.786 38.974 149.683 38.2577 150.246 37.4244H150.329V38.6467H152.662V32.581C152.662 29.7774 150.518 28.2088 147.741 28.2088ZM147.45 36.8741C146.659 36.8741 145.558 36.4914 145.558 35.5348C145.558 34.3109 146.932 33.8412 148.12 33.8412C149.184 33.8412 149.683 34.0705 150.329 34.3725C150.139 35.8368 148.849 36.8741 147.45 36.8741ZM161.163 28.5551L158.386 35.4099H158.304L155.433 28.5551H152.827L157.141 38.1344L154.68 43.4648H157.204L163.851 28.5551H161.163ZM139.386 38.672H141.808V22.8594H139.386V38.672Z" fill="white"/>
<defs>
<linearGradient id="paint0_linear_279_3098" x1="29.0982" y1="40.3001" x2="7.87431" y2="18.5659" gradientUnits="userSpaceOnUse">
<stop stop-color="#00A0FF"/>
<stop offset="0.0066" stop-color="#00A1FF"/>
<stop offset="0.2601" stop-color="#00BEFF"/>
<stop offset="0.5122" stop-color="#00D2FF"/>
<stop offset="0.7604" stop-color="#00DFFF"/>
<stop offset="1" stop-color="#00E3FF"/>
</linearGradient>
<linearGradient id="paint1_linear_279_3098" x1="44.6881" y1="26.0188" x2="13.3429" y2="26.0188" gradientUnits="userSpaceOnUse">
<stop stop-color="#FFE000"/>
<stop offset="0.4087" stop-color="#FFBD00"/>
<stop offset="0.7754" stop-color="#FFA500"/>
<stop offset="1" stop-color="#FF9C00"/>
</linearGradient>
<linearGradient id="paint2_linear_279_3098" x1="33.0207" y1="23.1151" x2="4.23932" y2="-6.35819" gradientUnits="userSpaceOnUse">
<stop stop-color="#FF3A44"/>
<stop offset="1" stop-color="#C31162"/>
</linearGradient>
<linearGradient id="paint3_linear_279_3098" x1="10.3123" y1="51.0969" x2="23.1645" y2="37.9358" gradientUnits="userSpaceOnUse">
<stop stop-color="#32A071"/>
<stop offset="0.0685" stop-color="#2DA771"/>
<stop offset="0.4762" stop-color="#15CF74"/>
<stop offset="0.8009" stop-color="#06E775"/>
<stop offset="1" stop-color="#00F076"/>
</linearGradient>
</defs>
</svg>
