<svg width="57" height="57" viewBox="0 0 57 57" fill="none" xmlns="http://www.w3.org/2000/svg">
<mask id="mask0_67_23" style="mask-type:alpha" maskUnits="userSpaceOnUse" x="0" y="0" width="57" height="57">
<rect x="0.667786" y="0.333313" width="56" height="56" fill="#D9D9D9"/>
</mask>
<g mask="url(#mask0_67_23)">
<rect x="29.2634" y="-37.697" width="1" height="99.4764" transform="rotate(45 29.2634 -37.697)" fill="#3BD55A"/>
<rect x="32.9349" y="-34.0253" width="1" height="99.4764" transform="rotate(45 32.9349 -34.0253)" fill="#3BD55A"/>
<rect x="36.6063" y="-30.3535" width="1" height="99.4764" transform="rotate(45 36.6063 -30.3535)" fill="#3BD55A"/>
<rect x="40.2787" y="-26.6816" width="1" height="99.4764" transform="rotate(45 40.2787 -26.6816)" fill="#3BD55A"/>
<rect x="43.9501" y="-23.0098" width="1" height="99.4764" transform="rotate(45 43.9501 -23.0098)" fill="#3BD55A"/>
<rect x="47.6216" y="-19.338" width="1" height="99.4764" transform="rotate(45 47.6216 -19.338)" fill="#3BD55A"/>
<rect x="51.293" y="-15.6662" width="1" height="99.4764" transform="rotate(45 51.293 -15.6662)" fill="#3BD55A"/>
<rect x="54.9655" y="-11.9944" width="1" height="99.4764" transform="rotate(45 54.9655 -11.9944)" fill="#3BD55A"/>
<rect x="58.6369" y="-8.32263" width="1" height="99.4764" transform="rotate(45 58.6369 -8.32263)" fill="#3BD55A"/>
<rect x="62.3093" y="-4.65076" width="1" height="99.4764" transform="rotate(45 62.3093 -4.65076)" fill="#3BD55A"/>
<rect x="65.9807" y="-0.979004" width="1" height="99.4764" transform="rotate(45 65.9807 -0.979004)" fill="#3BD55A"/>
<rect x="69.6532" y="2.69287" width="1" height="99.4764" transform="rotate(45 69.6532 2.69287)" fill="#3BD55A"/>
<rect x="73.3256" y="6.36462" width="1" height="99.4764" transform="rotate(45 73.3256 6.36462)" fill="#3BD55A"/>
<rect x="76.997" y="10.0365" width="1" height="99.4764" transform="rotate(45 76.997 10.0365)" fill="#3BD55A"/>
<rect x="80.6685" y="13.7083" width="1" height="99.4764" transform="rotate(45 80.6685 13.7083)" fill="#3BD55A"/>
<rect x="84.3399" y="17.3801" width="1" height="99.4764" transform="rotate(45 84.3399 17.3801)" fill="#3BD55A"/>
<rect x="88.0104" y="21.0519" width="1" height="99.4764" transform="rotate(45 88.0104 21.0519)" fill="#3BD55A"/>
<rect x="91.6838" y="24.7237" width="1" height="99.4764" transform="rotate(45 91.6838 24.7237)" fill="#3BD55A"/>
</g>
</svg>
