<svg width="17" height="16" viewBox="0 0 17 16" fill="none" xmlns="http://www.w3.org/2000/svg">
<path d="M8.10742 16C3.69622 16 0.107422 12.4112 0.107422 8C0.107422 3.5888 3.69622 0 8.10742 0C12.5186 0 16.1074 3.5888 16.1074 8C16.1074 12.4112 12.5186 16 8.10742 16Z" fill="#72C472"/>
<path d="M6.50684 12.0005C6.30204 12.0005 6.09724 11.9221 5.94124 11.7661L3.54124 9.36609C3.22844 9.05329 3.22844 8.54769 3.54124 8.23489C3.85404 7.92209 4.35964 7.92209 4.67244 8.23489L6.50684 10.0693L11.5412 5.03489C11.854 4.72209 12.3596 4.72209 12.6724 5.03489C12.9852 5.34769 12.9852 5.85329 12.6724 6.16609L7.07244 11.7661C6.91644 11.9221 6.71164 12.0005 6.50684 12.0005Z" fill="white"/>
</svg>
