<svg width="216" height="63" viewBox="0 0 216 63" fill="none" xmlns="http://www.w3.org/2000/svg">
<path d="M22.5986 29.1032C21.4904 30.5015 20.0085 31.5572 18.3248 32.1478C16.3361 32.8658 14.2334 33.2161 12.1193 33.1816C9.90391 33.2247 7.71848 32.665 5.79649 31.5625C3.95341 30.4736 2.47591 28.861 1.552 26.9299C0.513815 24.7309 -0.0164746 22.3265 0.000389998 19.8948V17.6744C0.000389998 13.3811 1.02828 10.0277 3.08407 7.61426C5.13985 5.20085 8.00859 3.99414 11.6903 3.99414C14.8515 3.99414 17.3623 4.77483 19.2227 6.33621C21.1712 8.06833 22.374 10.4872 22.5791 13.0862H17.7377C17.1912 9.66442 15.2077 7.95354 11.7871 7.95354C10.8134 7.89851 9.84141 8.08854 8.9601 8.50623C8.0788 8.92392 7.31631 9.55593 6.74238 10.3445C5.59074 11.9384 4.99567 14.2772 4.95718 17.3609V19.5466C4.95718 22.6173 5.60435 25.0014 6.89869 26.6989C7.52454 27.5285 8.34289 28.1932 9.28307 28.6357C10.2233 29.0783 11.257 29.2854 12.2951 29.2391C14.8193 29.2391 16.6145 28.6665 17.6809 27.5214V21.9597H11.8271V18.2126H22.5986V29.1032Z" fill="black"/>
<path d="M68.2389 26.1734H57.232L54.929 32.7893H49.8008L60.5297 4.37539H64.9598L75.7127 32.7893H70.5614L68.2389 26.1734ZM58.6175 22.1927H66.8534L62.735 10.4077L58.6175 22.1927ZM88.1744 21.8374H82.6679V32.7893H77.7342V4.37539H87.725C91.0035 4.37539 93.5338 5.11048 95.3161 6.58068C96.2226 7.36694 96.9355 8.35182 97.3992 9.45866C97.8629 10.5655 98.0649 11.7644 97.9894 12.9621C98.0494 14.6582 97.5675 16.3294 96.6137 17.7332C95.6388 19.0599 94.3096 20.0846 92.7786 20.6899L99.1618 32.5352V32.7893H93.8728L88.1744 21.8374ZM82.6679 17.8762H87.7419C89.1548 17.9638 90.549 17.5171 91.648 16.6248C92.1208 16.1882 92.4919 15.653 92.7349 15.057C92.9778 14.461 93.0868 13.8189 93.0539 13.1761C93.0943 12.5296 92.9998 11.8817 92.7764 11.2736C92.5531 10.6656 92.2057 10.1106 91.7563 9.64393C90.6774 8.73467 89.2908 8.27376 87.8822 8.3561H82.6714L82.6679 17.8762ZM101.475 32.7893V4.37539H109.867C112.204 4.33129 114.512 4.9107 116.551 6.054C118.49 7.16592 120.06 8.82115 121.069 10.8154C122.167 13.0058 122.715 15.4302 122.668 17.8798V19.3008C122.721 21.7654 122.168 24.2053 121.057 26.4061C120.031 28.4003 118.434 30.0441 116.471 31.1284C114.38 32.2617 112.03 32.8339 109.652 32.7893H101.475ZM106.413 8.3561V28.8476H109.632C110.745 28.9168 111.859 28.7343 112.891 28.3136C113.923 27.8929 114.847 27.2448 115.594 26.4176C116.98 24.7976 117.686 22.4721 117.712 19.4412V17.8603C117.712 14.7766 117.042 12.4218 115.702 10.7959C114.983 9.96751 114.082 9.31638 113.07 8.8932C112.058 8.47002 110.962 8.28622 109.867 8.3561H106.413Z" fill="black"/>
<path d="M130.99 22.231V32.7885H126.052V4.37464H136.922C140.097 4.37464 142.617 5.20092 144.484 6.85348C145.407 7.67104 146.137 8.68334 146.621 9.8173C147.106 10.9513 147.332 12.1786 147.284 13.4107C147.351 14.6311 147.138 15.8506 146.663 16.9767C146.188 18.1028 145.463 19.106 144.543 19.9103C142.715 21.4586 140.155 22.2328 136.864 22.2328L130.99 22.231ZM130.99 18.2698H136.922C138.37 18.3689 139.803 17.9257 140.942 17.0264C141.42 16.5664 141.791 16.0076 142.031 15.389C142.27 14.7705 142.371 14.1072 142.328 13.4454C142.36 12.7693 142.252 12.094 142.011 11.4615C141.77 10.8291 141.401 10.2533 140.927 9.77018C139.875 8.80867 138.487 8.30035 137.063 8.35535H130.99V18.2698ZM162.83 26.1744H151.823L149.52 32.7885H144.391L155.122 4.37464H159.552L170.304 32.7885H165.152L162.83 26.1744ZM153.208 22.1919H161.443L157.326 10.407L153.208 22.1919ZM187.176 25.4701C187.205 24.9182 187.101 24.3673 186.872 23.8645C186.642 23.3616 186.295 22.9216 185.859 22.5818C184.398 21.6431 182.793 20.9509 181.107 20.5328C179.194 20.0047 177.357 19.2306 175.643 18.2299C173.054 16.6034 171.759 14.4827 171.759 11.868C171.744 10.7703 171.99 9.6847 172.477 8.70074C172.964 7.71679 173.678 6.86263 174.56 6.20868C176.655 4.65389 179.223 3.86964 181.829 3.98829C183.651 3.95541 185.458 4.32858 187.118 5.08072C188.602 5.75377 189.867 6.83104 190.768 8.18927C191.647 9.51657 192.109 11.0763 192.095 12.6682H187.176C187.211 12.0209 187.104 11.3738 186.862 10.7722C186.621 10.1705 186.251 9.62879 185.779 9.18489C184.654 8.27989 183.229 7.83071 181.788 7.92637C180.456 7.8448 179.134 8.20882 178.032 8.96107C177.593 9.2995 177.242 9.73875 177.01 10.2416C176.777 10.7444 176.669 11.2959 176.695 11.8494C176.699 12.3698 176.834 12.8808 177.086 13.3359C177.339 13.7909 177.701 14.1754 178.141 14.4543C179.612 15.375 181.219 16.0598 182.902 16.4837C184.77 16.9931 186.562 17.7478 188.231 18.7281C189.436 19.4334 190.449 20.4255 191.178 21.6164C191.823 22.7838 192.147 24.1019 192.115 25.4355C192.151 26.527 191.922 27.611 191.448 28.5949C190.974 29.5787 190.269 30.4331 189.393 31.085C187.576 32.4806 185.113 33.1784 182.004 33.1784C180.055 33.2002 178.124 32.8113 176.335 32.0371C174.733 31.3721 173.343 30.2822 172.315 28.8851C171.35 27.5168 170.848 25.8759 170.881 24.2018H175.818C175.779 24.9073 175.902 25.6123 176.18 26.2622C176.457 26.9121 176.88 27.4893 177.417 27.9489C178.744 28.9147 180.367 29.3843 182.004 29.2759C183.377 29.3755 184.742 29.0073 185.878 28.2314C186.297 27.9057 186.632 27.4859 186.858 27.0061C187.083 26.5263 187.192 26 187.176 25.4701ZM210.097 25.4701C210.127 24.9183 210.023 24.3676 209.794 23.8647C209.565 23.3619 209.218 22.9218 208.782 22.5818C207.321 21.6431 205.716 20.9509 204.031 20.5328C202.118 20.0046 200.282 19.2305 198.568 18.2299C195.979 16.6034 194.684 14.4827 194.684 11.868C194.669 10.7703 194.915 9.6847 195.402 8.70074C195.889 7.71679 196.603 6.86263 197.485 6.20868C199.58 4.65389 202.148 3.86964 204.754 3.98829C206.577 3.95541 208.383 4.32858 210.043 5.08072C211.527 5.75377 212.792 6.83104 213.693 8.18927C214.572 9.51657 215.034 11.0763 215.02 12.6682H210.097C210.132 12.0211 210.026 11.374 209.785 10.7724C209.544 10.1707 209.174 9.62896 208.702 9.18489C207.577 8.27989 206.153 7.83071 204.712 7.92637C203.379 7.8448 202.058 8.20882 200.955 8.96107C200.516 9.2995 200.166 9.73875 199.933 10.2416C199.7 10.7444 199.592 11.2959 199.618 11.8494C199.622 12.3696 199.757 12.8806 200.009 13.3356C200.261 13.7906 200.623 14.1752 201.062 14.4543C202.534 15.375 204.14 16.0598 205.824 16.4837C207.691 16.9931 209.483 17.7478 211.153 18.7281C212.358 19.4334 213.37 20.4255 214.1 21.6164C214.745 22.7838 215.068 24.1019 215.037 25.4355C215.073 26.527 214.844 27.611 214.37 28.5949C213.896 29.5787 213.191 30.4331 212.314 31.085C210.498 32.4806 208.035 33.1784 204.926 33.1784C202.977 33.2002 201.045 32.8113 199.257 32.0371C197.655 31.3721 196.265 30.2822 195.237 28.8851C194.272 27.5168 193.769 25.8759 193.802 24.2018H198.74C198.7 24.9073 198.824 25.6123 199.101 26.2622C199.378 26.9121 199.802 27.4893 200.338 27.9489C201.665 28.9145 203.288 29.3841 204.925 29.2759C206.297 29.3757 207.663 29.0075 208.8 28.2314C209.218 27.9057 209.554 27.4859 209.779 27.0061C210.005 26.5263 210.114 26 210.097 25.4701Z" fill="#42AF58"/>
<path d="M32.7365 29.3482L25.4688 22.0058V5.55186C25.4688 5.55186 25.6801 5.56696 26.054 5.56696C27.8755 5.56078 29.6852 5.2741 31.4194 4.71699C32.64 4.32533 33.7988 3.76224 34.861 3.0446C36.0523 2.23368 37.0753 1.19979 37.8736 0V3.73025C36.7885 4.67199 35.5921 5.47732 34.3112 6.12827C33.2807 6.65216 32.2023 7.07597 31.0908 7.39389C30.0386 7.70891 28.954 7.90289 27.8579 7.97208L27.9636 20.9445L34.4613 27.7042L32.7365 29.3482ZM47.5687 24.8906L45.8164 23.1329L47.7828 20.9454L47.8885 7.97297C46.793 7.90305 45.7091 7.70908 44.6573 7.39478C43.5461 7.07652 42.468 6.65241 41.4378 6.12827C40.1569 5.47731 38.9605 4.67198 37.8754 3.73025V0C38.6739 1.19988 39.6973 2.23377 40.8889 3.0446C41.9511 3.76224 43.1099 4.32533 44.3305 4.71699C46.0644 5.27402 47.8738 5.5607 49.695 5.56696C50.0627 5.56696 50.2785 5.55186 50.2803 5.55186V22.0058L47.5723 24.8906H47.5687Z" fill="black"/>
<path d="M33.8916 30.5739L35.6909 28.8171L37.8651 30.9974L44.7039 24.1836L46.4741 25.9545L37.8677 34.4941L33.8916 30.5739Z" fill="#00CF2E"/>
<rect y="43.6797" width="215.04" height="18.48" fill="black"/>
<path d="M37.3446 48.7219V57.6797H35.4989V48.7219H37.3446ZM40.9129 52.5486V53.9883H36.8401V52.5486H40.9129ZM41.3436 48.7219V50.1677H36.8401V48.7219H41.3436ZM53.6783 52.9916V53.4161C53.6783 54.097 53.586 54.7081 53.4014 55.2495C53.2169 55.7909 52.9564 56.2523 52.6201 56.6338C52.2838 57.0111 51.8818 57.3003 51.4142 57.5013C50.9508 57.7022 50.436 57.8027 49.87 57.8027C49.3081 57.8027 48.7933 57.7022 48.3258 57.5013C47.8623 57.3003 47.4603 57.0111 47.1199 56.6338C46.7795 56.2523 46.5149 55.7909 46.3263 55.2495C46.1417 54.7081 46.0494 54.097 46.0494 53.4161V52.9916C46.0494 52.3066 46.1417 51.6955 46.3263 51.1582C46.5108 50.6168 46.7713 50.1554 47.1076 49.7739C47.448 49.3925 47.85 49.1013 48.3135 48.9003C48.781 48.6993 49.2958 48.5988 49.8577 48.5988C50.4237 48.5988 50.9385 48.6993 51.4019 48.9003C51.8695 49.1013 52.2715 49.3925 52.6078 49.7739C52.9482 50.1554 53.2107 50.6168 53.3953 51.1582C53.584 51.6955 53.6783 52.3066 53.6783 52.9916ZM51.8141 53.4161V52.9793C51.8141 52.5035 51.7711 52.0852 51.6849 51.7242C51.5988 51.3633 51.4717 51.0598 51.3035 50.8137C51.1353 50.5676 50.9303 50.383 50.6883 50.26C50.4463 50.1328 50.1694 50.0692 49.8577 50.0692C49.546 50.0692 49.2691 50.1328 49.0271 50.26C48.7892 50.383 48.5862 50.5676 48.418 50.8137C48.254 51.0598 48.1289 51.3633 48.0428 51.7242C47.9566 52.0852 47.9136 52.5035 47.9136 52.9793V53.4161C47.9136 53.8878 47.9566 54.3062 48.0428 54.6712C48.1289 55.0321 48.256 55.3377 48.4242 55.5879C48.5924 55.834 48.7974 56.0206 49.0394 56.1478C49.2814 56.2749 49.5583 56.3385 49.87 56.3385C50.1817 56.3385 50.4586 56.2749 50.7006 56.1478C50.9426 56.0206 51.1456 55.834 51.3096 55.5879C51.4737 55.3377 51.5988 55.0321 51.6849 54.6712C51.7711 54.3062 51.8141 53.8878 51.8141 53.4161ZM58.9132 48.7219H62.2539C62.9389 48.7219 63.5275 48.8244 64.0197 49.0295C64.5159 49.2346 64.8974 49.5381 65.164 49.94C65.4306 50.342 65.5639 50.8362 65.5639 51.4228C65.5639 51.9026 65.4819 52.3148 65.3178 52.6594C65.1578 52.9998 64.9302 53.2849 64.6349 53.5146C64.3437 53.7401 64.0012 53.9206 63.6074 54.056L63.023 54.3636H60.1191L60.1068 52.9239H62.2662C62.5903 52.9239 62.8589 52.8665 63.0722 52.7517C63.2855 52.6368 63.4454 52.4769 63.5521 52.2718C63.6628 52.0667 63.7182 51.8288 63.7182 51.5581C63.7182 51.271 63.6649 51.0229 63.5582 50.8137C63.4516 50.6045 63.2896 50.4445 63.0722 50.3338C62.8548 50.223 62.5821 50.1677 62.2539 50.1677H60.7589V57.6797H58.9132V48.7219ZM63.9212 57.6797L61.8786 53.6868L63.8289 53.6745L65.8961 57.5936V57.6797H63.9212ZM83.9456 56.24V57.6797H79.1776V56.24H83.9456ZM79.7805 48.7219V57.6797H77.9348V48.7219H79.7805ZM83.3242 52.3702V53.7729H79.1776V52.3702H83.3242ZM83.9395 48.7219V50.1677H79.1776V48.7219H83.9395ZM89.7712 48.7219H91.3338L93.6348 55.2987L95.9358 48.7219H97.4985L94.2624 57.6797H93.0073L89.7712 48.7219ZM88.9283 48.7219H90.4848L90.7678 55.1326V57.6797H88.9283V48.7219ZM96.7848 48.7219H98.3475V57.6797H96.5018V55.1326L96.7848 48.7219ZM107.36 54.4866H105.077V53.047H107.36C107.713 53.047 108 52.9896 108.221 52.8747C108.443 52.7558 108.605 52.5917 108.707 52.3825C108.81 52.1733 108.861 51.9375 108.861 51.675C108.861 51.4084 108.81 51.1603 108.707 50.9306C108.605 50.7009 108.443 50.5163 108.221 50.3769C108 50.2374 107.713 50.1677 107.36 50.1677H105.717V57.6797H103.872V48.7219H107.36C108.061 48.7219 108.662 48.849 109.163 49.1033C109.667 49.3535 110.053 49.7001 110.319 50.1431C110.586 50.586 110.719 51.0926 110.719 51.6627C110.719 52.241 110.586 52.7414 110.319 53.1639C110.053 53.5863 109.667 53.9124 109.163 54.1421C108.662 54.3718 108.061 54.4866 107.36 54.4866ZM121.657 56.24V57.6797H117.148V56.24H121.657ZM117.744 48.7219V57.6797H115.899V48.7219H117.744ZM133.574 52.9916V53.4161C133.574 54.097 133.481 54.7081 133.297 55.2495C133.112 55.7909 132.852 56.2523 132.515 56.6338C132.179 57.0111 131.777 57.3003 131.31 57.5013C130.846 57.7022 130.331 57.8027 129.765 57.8027C129.203 57.8027 128.689 57.7022 128.221 57.5013C127.758 57.3003 127.356 57.0111 127.015 56.6338C126.675 56.2523 126.41 55.7909 126.222 55.2495C126.037 54.7081 125.945 54.097 125.945 53.4161V52.9916C125.945 52.3066 126.037 51.6955 126.222 51.1582C126.406 50.6168 126.667 50.1554 127.003 49.7739C127.343 49.3925 127.745 49.1013 128.209 48.9003C128.676 48.6993 129.191 48.5988 129.753 48.5988C130.319 48.5988 130.834 48.6993 131.297 48.9003C131.765 49.1013 132.167 49.3925 132.503 49.7739C132.844 50.1554 133.106 50.6168 133.291 51.1582C133.479 51.6955 133.574 52.3066 133.574 52.9916ZM131.709 53.4161V52.9793C131.709 52.5035 131.666 52.0852 131.58 51.7242C131.494 51.3633 131.367 51.0598 131.199 50.8137C131.031 50.5676 130.826 50.383 130.584 50.26C130.342 50.1328 130.065 50.0692 129.753 50.0692C129.441 50.0692 129.164 50.1328 128.922 50.26C128.685 50.383 128.482 50.5676 128.313 50.8137C128.149 51.0598 128.024 51.3633 127.938 51.7242C127.852 52.0852 127.809 52.5035 127.809 52.9793V53.4161C127.809 53.8878 127.852 54.3062 127.938 54.6712C128.024 55.0321 128.151 55.3377 128.32 55.5879C128.488 55.834 128.693 56.0206 128.935 56.1478C129.177 56.2749 129.454 56.3385 129.765 56.3385C130.077 56.3385 130.354 56.2749 130.596 56.1478C130.838 56.0206 131.041 55.834 131.205 55.5879C131.369 55.3377 131.494 55.0321 131.58 54.6712C131.666 54.3062 131.709 53.8878 131.709 53.4161ZM139.768 48.7219L141.639 52.807L143.509 48.7219H145.521L142.574 54.4189V57.6797H140.703V54.4189L137.75 48.7219H139.768ZM156.256 56.24V57.6797H151.488V56.24H156.256ZM152.091 48.7219V57.6797H150.245V48.7219H152.091ZM155.634 52.3702V53.7729H151.488V52.3702H155.634ZM156.25 48.7219V50.1677H151.488V48.7219H156.25ZM161.239 48.7219H164.579C165.264 48.7219 165.853 48.8244 166.345 49.0295C166.841 49.2346 167.223 49.5381 167.489 49.94C167.756 50.342 167.889 50.8362 167.889 51.4228C167.889 51.9026 167.807 52.3148 167.643 52.6594C167.483 52.9998 167.255 53.2849 166.96 53.5146C166.669 53.7401 166.326 53.9206 165.933 54.056L165.348 54.3636H162.444L162.432 52.9239H164.592C164.916 52.9239 165.184 52.8665 165.397 52.7517C165.611 52.6368 165.771 52.4769 165.877 52.2718C165.988 52.0667 166.043 51.8288 166.043 51.5581C166.043 51.271 165.99 51.0229 165.884 50.8137C165.777 50.6045 165.615 50.4445 165.397 50.3338C165.18 50.223 164.907 50.1677 164.579 50.1677H163.084V57.6797H161.239V48.7219ZM166.247 57.6797L164.204 53.6868L166.154 53.6745L168.221 57.5936V57.6797H166.247ZM177.88 55.3356C177.88 55.1757 177.855 55.0321 177.806 54.905C177.761 54.7737 177.675 54.6548 177.548 54.5481C177.42 54.4374 177.242 54.3287 177.012 54.2221C176.783 54.1154 176.485 54.0047 176.12 53.8898C175.714 53.7586 175.329 53.6109 174.964 53.4469C174.603 53.2828 174.283 53.0921 174.004 52.8747C173.729 52.6532 173.512 52.3969 173.352 52.1057C173.196 51.8145 173.118 51.4761 173.118 51.0905C173.118 50.7173 173.2 50.3789 173.364 50.0754C173.528 49.7678 173.758 49.5053 174.053 49.2879C174.348 49.0664 174.697 48.8962 175.099 48.7772C175.505 48.6583 175.95 48.5988 176.434 48.5988C177.094 48.5988 177.671 48.7178 178.163 48.9557C178.655 49.1936 179.036 49.5196 179.307 49.9339C179.582 50.3481 179.719 50.8219 179.719 51.3551H177.886C177.886 51.0926 177.831 50.8629 177.72 50.666C177.613 50.465 177.449 50.3071 177.228 50.1923C177.01 50.0774 176.736 50.02 176.403 50.02C176.083 50.02 175.817 50.0692 175.603 50.1677C175.39 50.262 175.23 50.3912 175.124 50.5553C175.017 50.7152 174.964 50.8957 174.964 51.0967C174.964 51.2484 175.001 51.3858 175.074 51.5089C175.152 51.6319 175.267 51.7468 175.419 51.8534C175.571 51.9601 175.757 52.0605 175.979 52.1549C176.2 52.2492 176.457 52.3415 176.748 52.4317C177.236 52.5794 177.665 52.7455 178.034 52.9301C178.407 53.1146 178.719 53.3218 178.969 53.5515C179.219 53.7812 179.408 54.0416 179.535 54.3328C179.662 54.624 179.726 54.9542 179.726 55.3233C179.726 55.713 179.65 56.0616 179.498 56.3692C179.346 56.6769 179.127 56.9373 178.84 57.1506C178.553 57.3639 178.21 57.5259 177.812 57.6366C177.414 57.7474 176.969 57.8027 176.477 57.8027C176.034 57.8027 175.597 57.7453 175.167 57.6305C174.736 57.5115 174.344 57.3331 173.992 57.0952C173.643 56.8573 173.364 56.5538 173.155 56.1847C172.946 55.8155 172.841 55.3787 172.841 54.8742H174.693C174.693 55.1531 174.736 55.389 174.822 55.5817C174.908 55.7745 175.029 55.9304 175.185 56.0493C175.345 56.1683 175.534 56.2544 175.751 56.3077C175.973 56.361 176.215 56.3877 176.477 56.3877C176.797 56.3877 177.06 56.3426 177.265 56.2523C177.474 56.1621 177.628 56.037 177.726 55.8771C177.829 55.7171 177.88 55.5366 177.88 55.3356Z" fill="white"/>
</svg>
