<svg width="256" height="75" viewBox="0 0 256 75" fill="none" xmlns="http://www.w3.org/2000/svg">
<path d="M26.9031 34.6456C25.5838 36.3103 23.8197 37.5671 21.8153 38.2701C19.4477 39.1249 16.9445 39.5419 14.4277 39.5009C11.7904 39.5522 9.18867 38.8859 6.90058 37.5734C4.70644 36.277 2.94752 34.3573 1.84762 32.0583C0.611684 29.4405 -0.0196126 26.5781 0.000464284 23.6832V21.0399C0.000464284 15.9288 1.22415 11.9367 3.67151 9.06357C6.11887 6.19046 9.53404 4.75391 13.917 4.75391C17.6804 4.75391 20.6695 5.6833 22.8842 7.54208C25.2039 9.60413 26.6357 12.4837 26.8798 15.5778H21.1164C20.4657 11.5042 18.1044 9.46747 14.0323 9.46747C12.8731 9.40197 11.716 9.62819 10.6668 10.1254C9.61762 10.6227 8.70989 11.3751 8.02664 12.3138C6.65564 14.2114 5.94723 16.9956 5.90141 20.6667V23.2688C5.90141 26.9243 6.67185 29.7625 8.21273 31.7834C8.95779 32.771 9.93201 33.5623 11.0513 34.0892C12.1705 34.616 13.4012 34.8625 14.6371 34.8074C17.642 34.8074 19.7792 34.1258 21.0487 32.7625V26.1415H14.0798V21.6807H26.9031V34.6456Z" fill="white"/>
<path d="M81.2367 31.1598H68.1333L65.3916 39.0358H59.2866L72.0591 5.20982H77.3331L90.1342 39.0358H84.0017L81.2367 31.1598ZM69.7827 26.4209H79.5873L74.6845 12.3912L69.7827 26.4209ZM104.97 25.9979H98.4141V39.0358H92.5406V5.20982H104.435C108.337 5.20982 111.35 6.08493 113.471 7.83516C114.551 8.77119 115.399 9.94367 115.951 11.2613C116.503 12.579 116.744 14.0063 116.654 15.4321C116.725 17.4513 116.152 19.4408 115.016 21.112C113.856 22.6913 112.273 23.9113 110.451 24.6319L118.05 38.7335V39.0358H111.753L104.97 25.9979ZM98.4141 21.2823H104.455C106.137 21.3865 107.796 20.8547 109.105 19.7925C109.668 19.2727 110.109 18.6355 110.399 17.926C110.688 17.2165 110.818 16.4521 110.778 15.6869C110.827 14.9172 110.714 14.1459 110.448 13.422C110.182 12.6981 109.769 12.0374 109.234 11.4819C107.949 10.3994 106.299 9.85074 104.622 9.94876H98.4183L98.4141 21.2823ZM120.804 39.0358V5.20982H130.794C133.577 5.15732 136.323 5.84709 138.751 7.20817C141.059 8.53188 142.929 10.5024 144.13 12.8765C145.436 15.4841 146.09 18.3703 146.033 21.2865V22.9782C146.096 25.9122 145.438 28.8168 144.116 31.4368C142.894 33.8109 140.993 35.7678 138.656 37.0586C136.166 38.4078 133.369 39.089 130.538 39.0358H120.804ZM126.682 9.94876V34.3434H130.515C131.839 34.4258 133.165 34.2085 134.394 33.7076C135.623 33.2068 136.723 32.4353 137.612 31.4506C139.262 29.522 140.102 26.7536 140.133 23.1453V21.2632C140.133 17.5922 139.335 14.7889 137.74 12.8532C136.884 11.8671 135.812 11.092 134.607 10.5882C133.402 10.0844 132.097 9.86557 130.794 9.94876H126.682Z" fill="white"/>
<path d="M155.94 26.4658V39.0343H150.062V5.20828H163.003C166.782 5.20828 169.782 6.19194 172.005 8.15928C173.104 9.13256 173.973 10.3377 174.549 11.6876C175.126 13.0376 175.395 14.4987 175.338 15.9655C175.417 17.4184 175.164 18.8701 174.599 20.2107C174.033 21.5513 173.17 22.7456 172.075 23.7031C169.899 25.5463 166.851 26.468 162.933 26.468L155.94 26.4658ZM155.94 21.7502H163.003C164.726 21.8681 166.432 21.3405 167.788 20.2699C168.357 19.7223 168.799 19.057 169.084 18.3207C169.369 17.5843 169.49 16.7946 169.438 16.0068C169.476 15.202 169.348 14.3979 169.061 13.6451C168.774 12.8922 168.334 12.2067 167.77 11.6315C166.518 10.4869 164.865 9.88174 163.17 9.94722H155.94V21.7502ZM193.845 31.1604H180.741L178 39.0343H171.894L184.668 5.20828H189.942L202.742 39.0343H196.61L193.845 31.1604ZM182.391 26.4193H192.194L187.293 12.3896L182.391 26.4193ZM222.828 30.3219C222.863 29.6649 222.739 29.0091 222.466 28.4105C222.193 27.8118 221.779 27.2879 221.26 26.8835C219.521 25.766 217.61 24.9419 215.604 24.4442C213.326 23.8155 211.139 22.8939 209.099 21.7026C206.016 19.7663 204.475 17.2417 204.475 14.129C204.457 12.8221 204.75 11.5298 205.33 10.3584C205.91 9.18702 206.759 8.17017 207.809 7.39166C210.304 5.54072 213.36 4.60709 216.463 4.74834C218.633 4.70919 220.783 5.15344 222.76 6.04885C224.527 6.8501 226.032 8.13257 227.104 9.7495C228.151 11.3296 228.701 13.1865 228.684 15.0816H222.828C222.87 14.311 222.742 13.5406 222.455 12.8244C222.168 12.1081 221.728 11.4632 221.165 10.9348C219.826 9.85739 218.13 9.32265 216.415 9.43653C214.828 9.33942 213.255 9.77277 211.942 10.6683C211.42 11.0712 211.003 11.5941 210.726 12.1927C210.448 12.7913 210.32 13.4479 210.351 14.1067C210.356 14.7263 210.516 15.3347 210.817 15.8764C211.117 16.4181 211.549 16.8759 212.072 17.2079C213.824 18.304 215.737 19.1192 217.741 19.6239C219.964 20.2302 222.097 21.1287 224.084 22.2957C225.519 23.1353 226.724 24.3165 227.593 25.7342C228.361 27.124 228.746 28.6931 228.708 30.2807C228.751 31.5801 228.479 32.8706 227.915 34.0419C227.35 35.2131 226.511 36.2303 225.467 37.0063C223.304 38.6678 220.372 39.4985 216.672 39.4985C214.351 39.5244 212.052 39.0615 209.923 38.1398C208.015 37.3482 206.361 36.0506 205.137 34.3873C203.988 32.7585 203.39 30.805 203.43 28.8121H209.307C209.26 29.6519 209.407 30.4913 209.737 31.2649C210.068 32.0386 210.572 32.7257 211.21 33.2729C212.79 34.4226 214.722 34.9816 216.672 34.8526C218.305 34.9712 219.931 34.5329 221.284 33.6092C221.782 33.2214 222.181 32.7216 222.449 32.1504C222.718 31.5792 222.848 30.9528 222.828 30.3219ZM250.116 30.3219C250.151 29.6651 250.027 29.0094 249.754 28.4108C249.482 27.8121 249.069 27.2882 248.55 26.8835C246.811 25.766 244.9 24.9419 242.893 24.4442C240.616 23.8153 238.431 22.8938 236.391 21.7026C233.308 19.7663 231.767 17.2417 231.767 14.129C231.749 12.8221 232.042 11.5298 232.622 10.3584C233.201 9.18702 234.051 8.17017 235.101 7.39166C237.595 5.54072 240.652 4.60709 243.755 4.74834C245.924 4.70919 248.075 5.15344 250.051 6.04885C251.818 6.8501 253.324 8.13257 254.396 9.7495C255.442 11.3296 255.992 13.1865 255.976 15.0816H250.116C250.158 14.3112 250.03 13.5409 249.744 12.8246C249.457 12.1084 249.017 11.4634 248.455 10.9348C247.115 9.85739 245.42 9.32265 243.704 9.43653C242.118 9.33942 240.545 9.77277 239.232 10.6683C238.71 11.0712 238.292 11.5941 238.015 12.1927C237.738 12.7913 237.61 13.4479 237.64 14.1067C237.645 14.7261 237.805 15.3344 238.105 15.8761C238.406 16.4178 238.837 16.8756 239.36 17.2079C241.112 18.304 243.024 19.1192 245.028 19.6239C247.251 20.2302 249.385 21.1287 251.372 22.2957C252.807 23.1353 254.012 24.3165 254.88 25.7342C255.649 27.124 256.034 28.6931 255.996 30.2807C256.039 31.5801 255.766 32.8706 255.202 34.0419C254.638 35.2131 253.798 36.2303 252.755 37.0063C250.593 38.6678 247.661 39.4985 243.959 39.4985C241.639 39.5244 239.339 39.0615 237.21 38.1398C235.303 37.3482 233.648 36.0506 232.425 34.3873C231.276 32.7585 230.677 30.805 230.717 28.8121H236.595C236.548 29.6519 236.695 30.4913 237.025 31.2649C237.355 32.0386 237.859 32.7257 238.498 33.2729C240.077 34.4224 242.009 34.9814 243.958 34.8526C245.592 34.9714 247.218 34.5331 248.571 33.6092C249.069 33.2214 249.469 32.7216 249.737 32.1504C250.005 31.5792 250.135 30.9528 250.116 30.3219Z" fill="#42AF58"/>
<path d="M38.9719 34.9383L30.3198 26.1974V6.60936C30.3198 6.60936 30.5715 6.62733 31.0166 6.62733C33.185 6.61997 35.3394 6.27869 37.4039 5.61547C38.857 5.14921 40.2365 4.47886 41.5011 3.62452C42.9193 2.65915 44.1372 1.42833 45.0875 0V4.44078C43.7957 5.56189 42.3714 6.52062 40.8466 7.29556C39.6197 7.91924 38.3359 8.42378 37.0127 8.80225C35.7602 9.17727 34.4689 9.4082 33.164 9.49057L33.2899 24.9339L41.0253 32.9812L38.9719 34.9383ZM56.6293 29.6316L54.5432 27.5392L56.8841 24.935L57.0099 9.49163C55.7059 9.4084 54.4154 9.17748 53.1634 8.80331C51.8405 8.42443 50.557 7.91954 49.3306 7.29556C47.8057 6.52061 46.3815 5.56188 45.0896 4.44078V0C46.0403 1.42842 47.2586 2.65925 48.6771 3.62452C49.9417 4.47886 51.3212 5.14921 52.7743 5.61547C54.8385 6.2786 56.9925 6.61988 59.1606 6.62733C59.5983 6.62733 59.8552 6.60936 59.8573 6.60936V26.1974L56.6335 29.6316H56.6293Z" fill="white"/>
<path d="M40.3472 36.3966L42.4892 34.3052L45.0775 36.9007L53.2189 28.7891L55.3263 30.8973L45.0806 41.0635L40.3472 36.3966Z" fill="#42AF58"/>
<rect y="52" width="256" height="22" fill="white"/>
<path d="M44.5531 58.3359V69H42.3559V58.3359H44.5531ZM48.8012 62.8916V64.6055H43.9525V62.8916H48.8012ZM49.3139 58.3359V60.0571H43.9525V58.3359H49.3139ZM63.998 63.4189V63.9243C63.998 64.7349 63.8882 65.4624 63.6685 66.1069C63.4487 66.7515 63.1387 67.3008 62.7383 67.7549C62.3379 68.2041 61.8594 68.5483 61.3027 68.7876C60.751 69.0269 60.1382 69.1465 59.4644 69.1465C58.7954 69.1465 58.1826 69.0269 57.626 68.7876C57.0742 68.5483 56.5957 68.2041 56.1904 67.7549C55.7852 67.3008 55.4702 66.7515 55.2456 66.1069C55.0259 65.4624 54.916 64.7349 54.916 63.9243V63.4189C54.916 62.6035 55.0259 61.876 55.2456 61.2363C55.4653 60.5918 55.7754 60.0425 56.1758 59.5884C56.5811 59.1343 57.0596 58.7876 57.6113 58.5483C58.168 58.3091 58.7808 58.1895 59.4497 58.1895C60.1235 58.1895 60.7363 58.3091 61.2881 58.5483C61.8447 58.7876 62.3232 59.1343 62.7236 59.5884C63.1289 60.0425 63.4414 60.5918 63.6611 61.2363C63.8857 61.876 63.998 62.6035 63.998 63.4189ZM61.7788 63.9243V63.4043C61.7788 62.8379 61.7275 62.3398 61.625 61.9102C61.5225 61.4805 61.3711 61.1191 61.1709 60.8262C60.9707 60.5332 60.7266 60.3135 60.4385 60.167C60.1504 60.0156 59.8208 59.9399 59.4497 59.9399C59.0786 59.9399 58.749 60.0156 58.4609 60.167C58.1777 60.3135 57.936 60.5332 57.7358 60.8262C57.5405 61.1191 57.3916 61.4805 57.2891 61.9102C57.1865 62.3398 57.1353 62.8379 57.1353 63.4043V63.9243C57.1353 64.4858 57.1865 64.9839 57.2891 65.4185C57.3916 65.8481 57.543 66.2119 57.7432 66.5098C57.9434 66.8027 58.1875 67.0249 58.4756 67.1763C58.7637 67.3276 59.0933 67.4033 59.4644 67.4033C59.8354 67.4033 60.165 67.3276 60.4531 67.1763C60.7412 67.0249 60.9829 66.8027 61.1782 66.5098C61.3735 66.2119 61.5225 65.8481 61.625 65.4185C61.7275 64.9839 61.7788 64.4858 61.7788 63.9243ZM70.2301 58.3359H74.2071C75.0226 58.3359 75.7232 58.458 76.3092 58.7021C76.9 58.9463 77.3541 59.3076 77.6715 59.7861C77.9889 60.2646 78.1476 60.853 78.1476 61.5513C78.1476 62.1226 78.0499 62.6133 77.8546 63.0234C77.6642 63.4287 77.3932 63.7681 77.0416 64.0415C76.6949 64.3101 76.2872 64.5249 75.8185 64.686L75.1227 65.0522H71.6656L71.651 63.3384H74.2218C74.6075 63.3384 74.9273 63.27 75.1812 63.1333C75.4352 62.9966 75.6256 62.8062 75.7525 62.562C75.8844 62.3179 75.9503 62.0347 75.9503 61.7124C75.9503 61.3706 75.8868 61.0752 75.7599 60.8262C75.6329 60.5771 75.44 60.3867 75.1812 60.2549C74.9225 60.123 74.5978 60.0571 74.2071 60.0571H72.4273V69H70.2301V58.3359ZM76.192 69L73.7603 64.2466L76.0821 64.2319L78.5431 68.8975V69H76.192ZM100.031 67.2861V69H94.3543V67.2861H100.031ZM95.0721 58.3359V69H92.8748V58.3359H95.0721ZM99.2908 62.6792V64.3491H94.3543V62.6792H99.2908ZM100.023 58.3359V60.0571H94.3543V58.3359H100.023ZM106.966 58.3359H108.826L111.565 66.1655L114.305 58.3359H116.165L112.312 69H110.818L106.966 58.3359ZM105.962 58.3359H107.815L108.152 65.9678V69H105.962V58.3359ZM115.315 58.3359H117.176V69H114.978V65.9678L115.315 58.3359ZM127.905 65.1987H125.188V63.4849H127.905C128.325 63.4849 128.667 63.4165 128.93 63.2798C129.194 63.1382 129.387 62.9429 129.509 62.6938C129.631 62.4448 129.692 62.1641 129.692 61.8516C129.692 61.5342 129.631 61.2388 129.509 60.9653C129.387 60.6919 129.194 60.4722 128.93 60.3062C128.667 60.1401 128.325 60.0571 127.905 60.0571H125.949V69H123.752V58.3359H127.905C128.74 58.3359 129.455 58.4873 130.051 58.79C130.651 59.0879 131.11 59.5005 131.428 60.0278C131.745 60.5552 131.904 61.1582 131.904 61.8369C131.904 62.5254 131.745 63.1211 131.428 63.624C131.11 64.127 130.651 64.5151 130.051 64.7886C129.455 65.062 128.74 65.1987 127.905 65.1987ZM144.925 67.2861V69H139.557V67.2861H144.925ZM140.267 58.3359V69H138.07V58.3359H140.267ZM159.112 63.4189V63.9243C159.112 64.7349 159.002 65.4624 158.782 66.1069C158.562 66.7515 158.252 67.3008 157.852 67.7549C157.451 68.2041 156.973 68.5483 156.416 68.7876C155.864 69.0269 155.252 69.1465 154.578 69.1465C153.909 69.1465 153.296 69.0269 152.739 68.7876C152.188 68.5483 151.709 68.2041 151.304 67.7549C150.899 67.3008 150.584 66.7515 150.359 66.1069C150.139 65.4624 150.029 64.7349 150.029 63.9243V63.4189C150.029 62.6035 150.139 61.876 150.359 61.2363C150.579 60.5918 150.889 60.0425 151.289 59.5884C151.695 59.1343 152.173 58.7876 152.725 58.5483C153.281 58.3091 153.894 58.1895 154.563 58.1895C155.237 58.1895 155.85 58.3091 156.402 58.5483C156.958 58.7876 157.437 59.1343 157.837 59.5884C158.242 60.0425 158.555 60.5918 158.775 61.2363C158.999 61.876 159.112 62.6035 159.112 63.4189ZM156.892 63.9243V63.4043C156.892 62.8379 156.841 62.3398 156.738 61.9102C156.636 61.4805 156.485 61.1191 156.284 60.8262C156.084 60.5332 155.84 60.3135 155.552 60.167C155.264 60.0156 154.934 59.9399 154.563 59.9399C154.192 59.9399 153.862 60.0156 153.574 60.167C153.291 60.3135 153.05 60.5332 152.849 60.8262C152.654 61.1191 152.505 61.4805 152.403 61.9102C152.3 62.3398 152.249 62.8379 152.249 63.4043V63.9243C152.249 64.4858 152.3 64.9839 152.403 65.4185C152.505 65.8481 152.656 66.2119 152.857 66.5098C153.057 66.8027 153.301 67.0249 153.589 67.1763C153.877 67.3276 154.207 67.4033 154.578 67.4033C154.949 67.4033 155.279 67.3276 155.567 67.1763C155.855 67.0249 156.096 66.8027 156.292 66.5098C156.487 66.2119 156.636 65.8481 156.738 65.4185C156.841 64.9839 156.892 64.4858 156.892 63.9243ZM166.486 58.3359L168.713 63.1992L170.939 58.3359H173.334L169.826 65.1182V69H167.599V65.1182L164.084 58.3359H166.486ZM186.114 67.2861V69H180.438V67.2861H186.114ZM181.156 58.3359V69H178.958V58.3359H181.156ZM185.374 62.6792V64.3491H180.438V62.6792H185.374ZM186.107 58.3359V60.0571H180.438V58.3359H186.107ZM192.046 58.3359H196.023C196.838 58.3359 197.539 58.458 198.125 58.7021C198.716 58.9463 199.17 59.3076 199.487 59.7861C199.805 60.2646 199.963 60.853 199.963 61.5513C199.963 62.1226 199.866 62.6133 199.67 63.0234C199.48 63.4287 199.209 63.7681 198.857 64.0415C198.511 64.3101 198.103 64.5249 197.634 64.686L196.938 65.0522H193.481L193.467 63.3384H196.038C196.423 63.3384 196.743 63.27 196.997 63.1333C197.251 62.9966 197.441 62.8062 197.568 62.562C197.7 62.3179 197.766 62.0347 197.766 61.7124C197.766 61.3706 197.703 61.0752 197.576 60.8262C197.449 60.5771 197.256 60.3867 196.997 60.2549C196.738 60.123 196.414 60.0571 196.023 60.0571H194.243V69H192.046V58.3359ZM198.008 69L195.576 64.2466L197.898 64.2319L200.359 68.8975V69H198.008ZM211.857 66.2095C211.857 66.019 211.828 65.8481 211.769 65.6968C211.715 65.5405 211.613 65.3989 211.462 65.272C211.31 65.1401 211.098 65.0107 210.824 64.8838C210.551 64.7568 210.197 64.625 209.762 64.4883C209.279 64.332 208.82 64.1562 208.385 63.9609C207.956 63.7656 207.575 63.5386 207.243 63.2798C206.916 63.0161 206.657 62.7109 206.466 62.3643C206.281 62.0176 206.188 61.6147 206.188 61.1558C206.188 60.7114 206.286 60.3086 206.481 59.9473C206.676 59.5811 206.95 59.2686 207.301 59.0098C207.653 58.7461 208.068 58.5435 208.546 58.4019C209.03 58.2603 209.56 58.1895 210.136 58.1895C210.922 58.1895 211.608 58.3311 212.194 58.6143C212.78 58.8975 213.234 59.2856 213.556 59.7788C213.883 60.272 214.047 60.8359 214.047 61.4707H211.864C211.864 61.1582 211.798 60.8848 211.667 60.6504C211.54 60.4111 211.344 60.2231 211.081 60.0864C210.822 59.9497 210.495 59.8813 210.099 59.8813C209.718 59.8813 209.401 59.9399 209.147 60.0571C208.893 60.1694 208.703 60.3232 208.576 60.5186C208.449 60.709 208.385 60.9238 208.385 61.1631C208.385 61.3438 208.429 61.5073 208.517 61.6538C208.61 61.8003 208.747 61.937 208.927 62.064C209.108 62.1909 209.33 62.3105 209.594 62.4229C209.858 62.5352 210.163 62.645 210.509 62.7524C211.09 62.9282 211.601 63.126 212.04 63.3457C212.484 63.5654 212.856 63.812 213.153 64.0854C213.451 64.3589 213.676 64.6689 213.827 65.0156C213.979 65.3623 214.054 65.7554 214.054 66.1948C214.054 66.6587 213.964 67.0737 213.783 67.4399C213.603 67.8062 213.341 68.1162 213 68.3701C212.658 68.624 212.25 68.8169 211.776 68.9487C211.303 69.0806 210.773 69.1465 210.187 69.1465C209.66 69.1465 209.14 69.0781 208.627 68.9414C208.114 68.7998 207.648 68.5874 207.228 68.3042C206.813 68.021 206.481 67.6597 206.232 67.2202C205.983 66.7808 205.858 66.2607 205.858 65.6602H208.063C208.063 65.9922 208.114 66.2729 208.217 66.5024C208.319 66.7319 208.463 66.9175 208.649 67.0591C208.839 67.2007 209.064 67.3032 209.323 67.3667C209.587 67.4302 209.875 67.4619 210.187 67.4619C210.568 67.4619 210.88 67.4082 211.125 67.3008C211.374 67.1934 211.557 67.0444 211.674 66.854C211.796 66.6636 211.857 66.4487 211.857 66.2095Z" fill="black"/>
</svg>
