<svg width="42" height="42" viewBox="0 0 42 42" fill="none" xmlns="http://www.w3.org/2000/svg">
<mask id="mask0_6024_13429" style="mask-type:alpha" maskUnits="userSpaceOnUse" x="0" y="0" width="42" height="42">
<rect x="0.288086" y="0.188721" width="41.5917" height="41.5917" fill="red"/>
</mask>
<g mask="url(#mask0_6024_13429)">
<path d="M21.0813 40.0466V36.5806H33.2122V34.8476H26.2802V20.9837H33.2122V19.2507C33.2122 15.9003 32.028 13.0408 29.6596 10.6724C27.2911 8.30399 24.4317 7.11979 21.0813 7.11979C17.7308 7.11979 14.8714 8.30399 12.503 10.6724C10.1346 13.0408 8.95035 15.9003 8.95035 19.2507V20.9837H15.8823V34.8476H8.95035C7.99721 34.8476 7.18126 34.5082 6.50251 33.8295C5.82375 33.1507 5.48438 32.3348 5.48438 31.3816V19.2507C5.48438 17.1134 5.89596 15.0988 6.71913 13.2069C7.5423 11.3151 8.66152 9.6615 10.0768 8.24623C11.4921 6.83095 13.1456 5.71173 15.0375 4.88856C16.9293 4.06539 18.9439 3.65381 21.0813 3.65381C23.2186 3.65381 25.2332 4.06539 27.1251 4.88856C29.0169 5.71173 30.6705 6.83095 32.0857 8.24623C33.501 9.6615 34.6202 11.3151 35.4434 13.2069C36.2666 15.0988 36.6782 17.1134 36.6782 19.2507V36.5806C36.6782 37.5337 36.3388 38.3497 35.66 39.0284C34.9813 39.7072 34.1653 40.0466 33.2122 40.0466H21.0813ZM8.95035 31.3816H12.4163V24.4497H8.95035V31.3816ZM29.7462 31.3816H33.2122V24.4497H29.7462V31.3816Z" fill="red"/>
</g>
</svg>
