<svg width="46" height="42" viewBox="0 0 46 42" fill="none" xmlns="http://www.w3.org/2000/svg">
<path d="M42.1924 4.80001C37.1124 -0.267986 28.8874 -0.267986 23.8074 4.80001C23.5264 5.08101 23.2574 5.37701 23.0004 5.68701C22.7434 5.37601 22.4744 5.08101 22.1924 4.79901C17.1154 -0.277987 8.8834 -0.276987 3.8064 4.79901C-1.2706 9.876 -1.2696 18.108 3.8064 23.185L22.2914 41.67C22.6814 42.06 23.3154 42.06 23.7054 41.67L42.1904 23.185C47.2614 18.106 47.2624 9.879 42.1904 4.79901L42.1924 4.80001Z" fill="url(#paint0_linear_3107_7104)"/>
<path opacity="0.15" d="M31.0678 34.31L33.1888 32.189L4.85979 3.85901C4.49679 4.15101 4.14379 4.46301 3.80679 4.80001C3.42579 5.18101 3.08279 5.58501 2.75879 6.00001L31.0678 34.31Z" fill="black"/>
<path d="M39.2936 39.707L1.2936 1.70701C0.909601 1.31001 0.920601 0.677012 1.3186 0.293012C1.7066 -0.0809878 2.3206 -0.0809878 2.7076 0.293012L40.7076 38.293C41.0916 38.69 41.0806 39.323 40.6836 39.707C40.2956 40.081 39.6816 40.081 39.2936 39.707Z" fill="url(#paint1_linear_3107_7104)"/>
<defs>
<linearGradient id="paint0_linear_3107_7104" x1="22.9965" y1="0.991643" x2="22.9965" y2="41.9625" gradientUnits="userSpaceOnUse">
<stop stop-color="#FF666D"/>
<stop offset="1" stop-color="#E0211F"/>
</linearGradient>
<linearGradient id="paint1_linear_3107_7104" x1="21.0006" y1="0.0125122" x2="21.0006" y2="39.9875" gradientUnits="userSpaceOnUse">
<stop stop-color="#393A46"/>
<stop offset="1" stop-color="#17181C"/>
</linearGradient>
</defs>
</svg>
