<svg width="11" height="11" viewBox="0 0 11 11" fill="none" xmlns="http://www.w3.org/2000/svg">
<path d="M7.56264 1.37501C7.17119 1.37393 6.78415 1.45762 6.42812 1.62033C6.07209 1.78304 5.75551 2.0209 5.50014 2.31758C5.24477 2.0209 4.92819 1.78304 4.57215 1.62033C4.21612 1.45762 3.82908 1.37393 3.43764 1.37501C2.89767 1.37585 2.3699 1.53563 1.92014 1.83443C1.47038 2.13323 1.11854 2.55783 0.908489 3.05527C0.698443 3.55271 0.639488 4.10098 0.738978 4.6317C0.838467 5.16242 1.092 5.65211 1.46795 6.0397L5.2547 9.90964C5.2867 9.94228 5.32489 9.96822 5.36703 9.98593C5.40917 10.0036 5.45443 10.0128 5.50014 10.0128C5.54601 10.0128 5.59143 10.0036 5.6337 9.98574C5.67597 9.96791 5.71424 9.9418 5.74626 9.90895L9.40033 6.15933C9.81446 5.78851 10.1061 5.30056 10.2365 4.7602C10.367 4.21983 10.3301 3.65258 10.1308 3.13365C9.93148 2.61473 9.57913 2.16865 9.12048 1.85457C8.66182 1.54049 8.11852 1.37324 7.56264 1.37501Z" fill="white"/>
</svg>
