<svg xmlns="http://www.w3.org/2000/svg" width="28" height="28" viewBox="0 0 28 28">
    <g fill="none" fill-rule="evenodd">
        <g>
            <g>
                <g transform="translate(-20.000000, -943.000000) translate(0.000000, -1.000000) translate(20.000000, 944.000000)">
                    <path fill="#F9F9FC" fill-rule="nonzero" d="M13.5 9.737c.517 0 1.027.09 1.5.263V6.119c-.991-.159-2.009-.159-3 0V10c.473-.173.983-.263 1.5-.263zM17.263 13.5c0 .517-.09 1.027-.263 1.5h3.882c.157-.991.157-2.009 0-3H17c.173.473.262.983.263 1.5zM13.5 17.263c-.517 0-1.027-.09-1.5-.263v3.882c.991.157 2.009.157 3 0V17c-.473.173-.983.262-1.5.263zM9.737 13.5c0-.517.09-1.027.263-1.5H6.119c-.159.991-.159 2.009 0 3H10c-.173-.473-.263-.983-.263-1.5z"/>
                    <circle cx="13.5" cy="13.5" r="7.5" stroke="#F9F9FC" stroke-linecap="round" stroke-linejoin="round" stroke-width="1.5"/>
                    <circle cx="13.5" cy="13.5" r="3.5" stroke="#F9F9FC" stroke-linecap="round" stroke-linejoin="round"/>
                </g>
            </g>
        </g>
    </g>
</svg>
