<svg width="28" height="28" viewBox="0 0 28 28" xmlns="http://www.w3.org/2000/svg">
    <g stroke="#000" stroke-width="2" fill="none" fill-rule="evenodd">
        <path stroke-linecap="square" d="M14 21v3M20.158 6.333C20.158 5.045 17.4 4 14 4c-3.401 0-6.158 1.045-6.158 2.333 0 .683.778 1.295 2.011 1.722C10.363 9.177 12.023 10 14 10c1.976 0 3.637-.823 4.147-1.945 1.233-.427 2.01-1.039 2.01-1.722z"/>
        <path d="M11.955 16 6.34 19.209c-.826.47-1.34 1.375-1.34 2.358V24h18v-2.433c0-.983-.514-1.888-1.34-2.358L16.045 16"/>
        <path d="M19.21 8v1.615C19.21 13.643 16.879 17 14 17s-5.21-3.357-5.21-7.385V8"/>
    </g>
</svg>
