<svg width="28" height="28" viewBox="0 0 28 28" xmlns="http://www.w3.org/2000/svg">
    <g fill="none" fill-rule="evenodd">
        <path d="m22 16-1.8-5.3a.961.961 0 0 0-.9-.7H8.7a.961.961 0 0 0-.9.7L6 16" stroke="#000" stroke-width="2"/>
        <path d="M24 22H4v-3.6a.908.908 0 0 1 .3-.7L6 16h16l1.7 1.7a.908.908 0 0 1 .3.7V22z" stroke="#000" stroke-width="2" stroke-linecap="square"/>
        <circle fill="#000" fill-rule="nonzero" cx="8" cy="19" r="1"/>
        <circle fill="#000" fill-rule="nonzero" cx="20" cy="19" r="1"/>
        <path stroke="#000" stroke-width="2" d="m3 8 11-5 11 5"/>
        <path stroke="#000" stroke-width="2" stroke-linecap="square" d="M4 22h4v2H4zM20 22h4v2h-4z"/>
    </g>
</svg>
