<svg width="19" height="19" viewBox="0 0 19 19" fill="none" xmlns="http://www.w3.org/2000/svg">
<circle cx="9.38161" cy="9.36845" r="9.36842" fill="black"/>
<g clip-path="url(#clip0_5_452)">
<path d="M14.2887 6.2457H11.612V4.90736C11.612 4.78904 11.565 4.67557 11.4813 4.59191C11.3976 4.50824 11.2842 4.46124 11.1659 4.46124H8.48916C8.37084 4.46124 8.25737 4.50824 8.17371 4.59191C8.09004 4.67557 8.04304 4.78904 8.04304 4.90736V6.2457H5.36635C5.12972 6.2457 4.90278 6.33971 4.73545 6.50703C4.56812 6.67436 4.47412 6.9013 4.47412 7.13793C4.47412 7.37457 4.56812 7.60151 4.73545 7.76884C4.90278 7.93616 5.12972 8.03016 5.36635 8.03016H14.2887C14.5253 8.03016 14.7522 7.93616 14.9196 7.76884C15.0869 7.60151 15.1809 7.37457 15.1809 7.13793C15.1809 6.9013 15.0869 6.67436 14.9196 6.50703C14.7522 6.33971 14.5253 6.2457 14.2887 6.2457Z" fill="white"/>
<path d="M12.5936 8.92677C12.3578 8.90508 12.123 8.97723 11.9401 9.12756C11.7572 9.27789 11.6409 9.49428 11.6166 9.72978L11.2552 13.3835H8.40455L8.04319 9.72532C8.03148 9.60874 7.99691 9.4956 7.94147 9.39238C7.88603 9.28915 7.8108 9.19786 7.72008 9.12371C7.62936 9.04955 7.52492 8.994 7.41273 8.96021C7.30054 8.92642 7.18279 8.91506 7.0662 8.92677C6.94962 8.93849 6.83648 8.97306 6.73326 9.0285C6.63003 9.08394 6.53874 9.15916 6.46459 9.24989C6.39044 9.34061 6.33488 9.44505 6.30109 9.55724C6.2673 9.66943 6.25594 9.78718 6.26766 9.90377L6.63347 13.5619C6.67627 14.0018 6.88139 14.4101 7.20882 14.707C7.53626 15.0039 7.96254 15.1682 8.40455 15.1679H11.2552C11.698 15.1693 12.1254 15.0055 12.4538 14.7085C12.7821 14.4115 12.9879 14.0026 13.0308 13.5619L13.3966 9.90377C13.4083 9.78684 13.3968 9.66876 13.3627 9.5563C13.3286 9.44384 13.2727 9.33921 13.1981 9.24843C13.1234 9.15765 13.0316 9.0825 12.9279 9.02731C12.8242 8.97211 12.7105 8.93794 12.5936 8.92677Z" fill="white"/>
</g>
<defs>
<clipPath id="clip0_5_452">
<rect width="10.7068" height="10.7068" fill="white" transform="translate(4.47412 4.46124)"/>
</clipPath>
</defs>
</svg>
