<svg xmlns="http://www.w3.org/2000/svg" width="22" height="22" viewBox="0 0 22 22">
    <g fill="none" fill-rule="evenodd">
        <g fill="#242429" fill-rule="nonzero">
            <g>
                <g>
                    <g transform="translate(-315.000000, -951.000000) translate(77.000000, 951.000000) translate(156.000000, 0.000000) translate(82.000000, 0.000000)">
                        <path d="M11 1.982c2.937 0 3.285.011 4.445.064.697.008 1.388.136 2.042.379.478.176.91.457 1.265.823.366.355.647.787.823 1.265.243.654.37 1.345.379 2.042.053 1.16.064 1.508.064 4.445 0 2.937-.011 3.285-.064 4.445-.008.697-.136 1.388-.379 2.042-.37.96-1.129 1.718-2.088 2.088-.654.243-1.345.37-2.042.379-1.16.053-1.508.064-4.445.064-2.937 0-3.285-.011-4.445-.064-.697-.008-1.388-.136-2.042-.379-.478-.176-.91-.457-1.265-.823-.366-.355-.647-.787-.823-1.265-.243-.654-.37-1.345-.379-2.042-.053-1.16-.064-1.508-.064-4.445 0-2.937.011-3.285.064-4.445.008-.697.136-1.388.379-2.042.176-.478.457-.91.823-1.265.355-.366.787-.647 1.265-.823.654-.243 1.345-.37 2.042-.379 1.16-.053 1.508-.064 4.445-.064M11 0C8.013 0 7.638.013 6.465.066c-.912.019-1.815.192-2.67.511C2.315 1.15 1.147 2.32.577 3.8c-.32.855-.492 1.758-.511 2.67C.013 7.638 0 8.013 0 11s.013 3.362.066 4.535c.019.912.192 1.815.511 2.67.573 1.48 1.743 2.648 3.223 3.218.855.32 1.758.492 2.67.511C7.638 21.987 8.013 22 11 22s3.362-.013 4.535-.066c.912-.019 1.815-.192 2.67-.511 1.48-.573 2.648-1.743 3.218-3.223.32-.855.492-1.758.511-2.67.053-1.168.066-1.543.066-4.53s-.013-3.362-.066-4.535c-.019-.912-.192-1.815-.511-2.67C20.85 2.315 19.68 1.147 18.2.577c-.855-.32-1.758-.492-2.67-.511C14.362.013 13.987 0 11 0z"/>
                        <path d="M11 5.351c-3.12 0-5.649 2.53-5.649 5.649 0 3.12 2.53 5.649 5.649 5.649 3.12 0 5.649-2.53 5.649-5.649 0-1.498-.595-2.935-1.655-3.994C13.935 5.946 12.498 5.35 11 5.35zm0 9.316c-2.025 0-3.667-1.642-3.667-3.667S8.975 7.333 11 7.333 14.667 8.975 14.667 11 13.025 14.667 11 14.667z"/>
                        <circle cx="16.872" cy="5.128" r="1.32"/>
                    </g>
                </g>
            </g>
        </g>
    </g>
</svg>
