<svg width="118" height="33" viewBox="0 0 118 33" fill="none" xmlns="http://www.w3.org/2000/svg">
<path d="M97.8981 13.3464H98.2635C98.4384 13.3464 98.5579 13.3206 98.6222 13.2703C98.6529 13.2462 98.6774 13.2155 98.6938 13.1805C98.7102 13.1455 98.718 13.1073 98.7166 13.0689C98.7174 13.0172 98.7013 12.9665 98.6707 12.9243C98.639 12.8808 98.5945 12.8478 98.543 12.8297C98.4892 12.8072 98.3879 12.7981 98.2403 12.7981H97.8981V13.3464ZM97.5961 14.3747V12.5496H98.2377C98.4565 12.5496 98.6159 12.5667 98.7146 12.6C98.8123 12.6335 98.8902 12.6929 98.949 12.7775C99.007 12.8604 99.0364 12.9498 99.0364 13.0434C99.0364 13.1773 98.9869 13.2929 98.8899 13.3919C98.7922 13.4904 98.6628 13.5462 98.5021 13.5581C98.5681 13.5849 98.6209 13.6172 98.6608 13.6546C98.7348 13.726 98.8268 13.847 98.9358 14.0167L99.1628 14.375H98.7922L98.6278 14.0868C98.4968 13.8615 98.3932 13.7198 98.3156 13.6627C98.2602 13.6198 98.1806 13.5982 98.0753 13.5982H97.8981V14.3747H97.5961ZM98.3559 12.0174C98.1116 12.0174 97.874 12.0788 97.6423 12.2007C97.4136 12.3215 97.2253 12.504 97.0997 12.7265C96.9722 12.9426 96.9048 13.1876 96.9043 13.4371C96.9043 13.6821 96.968 13.9167 97.0958 14.142C97.2245 14.3659 97.4037 14.5409 97.6347 14.6661C97.8541 14.7894 98.1028 14.8545 98.3559 14.8549C98.6067 14.8549 98.847 14.7923 99.0767 14.6661C99.303 14.545 99.4892 14.3631 99.6133 14.142C99.7387 13.9273 99.8049 13.6844 99.8054 13.4371C99.8054 13.1906 99.7404 12.953 99.6107 12.7265C99.4858 12.5034 99.2973 12.3207 99.0681 12.2004C98.8361 12.0784 98.5984 12.0174 98.3559 12.0174ZM98.3559 11.7373C98.6473 11.7373 98.9328 11.8106 99.21 11.9568C99.4845 12.0995 99.7101 12.3179 99.8589 12.5848C100.015 12.8578 100.092 13.1415 100.092 13.4371C100.092 13.7295 100.016 14.0113 99.8632 14.2814C99.7145 14.5471 99.4912 14.7657 99.2196 14.9114C98.9562 15.0574 98.6587 15.1344 98.3559 15.1347C98.0527 15.1344 97.7549 15.0575 97.4911 14.9114C97.2199 14.7653 96.9967 14.5468 96.8476 14.2814C96.6976 14.0241 96.6182 13.7333 96.6172 13.4371C96.6172 13.1415 96.6951 12.8578 96.8515 12.5848C97.0012 12.3184 97.2269 12.1003 97.501 11.9571C97.7796 11.8106 98.0638 11.7373 98.3559 11.7373Z" fill="#808080"/>
<path fill-rule="evenodd" clip-rule="evenodd" d="M26.4607 9.63821C25.5904 9.6608 24.7145 9.83863 23.8818 10.132C20.6569 11.4481 18.4142 14.3197 17.3997 17.7652C17.2284 18.4119 17.0894 19.0593 17.0148 19.7274C17.0148 19.749 16.9614 20.4067 17.0574 20.2292C17.1535 20.073 17.196 19.8429 17.2495 19.6651C17.7406 18.0469 18.3393 16.5743 19.2575 15.1753C21.4576 12.0109 24.992 9.97514 28.7291 11.1031C29.4235 11.3322 30.0427 11.6669 30.6619 12.0635C30.779 12.1471 31.6441 12.8155 31.452 12.2097C31.2919 11.7301 30.8863 11.3219 30.5335 10.9982C29.346 9.99321 27.9116 9.60045 26.4607 9.63821ZM53.7367 12.8042C53.235 12.8042 52.8508 12.972 52.5835 13.3167C52.3056 13.6504 52.1779 14.1519 52.1779 14.81V19.5715C51.5584 18.9035 50.9181 18.4226 50.2669 18.0983C49.8187 17.8867 49.339 17.7458 48.8457 17.681C48.5204 17.6382 48.1924 17.6174 47.8642 17.6187C46.2304 17.6187 44.8954 18.1818 43.8921 19.3091C42.8877 20.4371 42.3861 22.0039 42.3861 24.0191C42.3861 24.9695 42.5148 25.8564 42.76 26.6709C43.0168 27.4855 43.3901 28.1952 43.8812 28.8009C44.3535 29.3866 44.951 29.8643 45.6317 30.2006C46.3047 30.5234 47.0305 30.6912 47.8209 30.6912C48.1737 30.6912 48.5153 30.6589 48.8457 30.5966C49.0558 30.5642 49.263 30.5156 49.4652 30.4511C49.9653 30.2843 50.437 30.045 50.8643 29.7411C51.3026 29.4274 51.7293 29.0204 52.1779 28.5299V28.8423C52.1779 29.4383 52.3277 29.8873 52.6155 30.2106C52.9036 30.5237 53.2888 30.6912 53.7367 30.6912C54.1743 30.6912 54.5588 30.5347 54.8473 30.2316C55.1357 29.9182 55.274 29.4593 55.274 28.8423V14.6421C55.274 14.0473 55.1463 13.5878 54.8789 13.2744C54.602 12.9614 54.2172 12.8042 53.7367 12.8042ZM94.0352 12.8042C93.5335 12.8042 93.149 12.972 92.8823 13.3167C92.615 13.6504 92.4764 14.1519 92.4764 14.81V19.5715C91.8572 18.9035 91.2163 18.4226 90.5654 18.0983C90.1595 17.8998 89.6792 17.7545 89.1449 17.681C88.8192 17.6382 88.491 17.6173 88.1624 17.6187C86.5293 17.6187 85.2052 18.1818 84.1903 19.3091C83.1869 20.4371 82.6846 22.0039 82.6846 24.0191C82.6846 24.9695 82.8127 25.8564 83.0688 26.6709C83.3249 27.4855 83.6879 28.1952 84.1794 28.8009C84.6519 29.3868 85.2497 29.8645 85.9309 30.2006C86.6032 30.5234 87.33 30.6912 88.1201 30.6912C88.4825 30.6912 88.8244 30.6589 89.1449 30.5966C89.3588 30.5656 89.5608 30.5137 89.7637 30.4511C90.2638 30.2844 90.7353 30.045 91.1625 29.7411C91.6008 29.4274 92.0387 29.0204 92.4761 28.5299V28.8423C92.4761 29.4383 92.6256 29.8873 92.914 30.2106C93.213 30.5237 93.5867 30.6912 94.0349 30.6912C94.4946 30.6912 94.8676 30.5347 95.1567 30.2316C95.4451 29.9182 95.5943 29.4593 95.5943 28.8423V14.6421C95.5943 14.0473 95.4557 13.5878 95.189 13.2744C94.9111 12.9614 94.5378 12.8042 94.0352 12.8042ZM25.6191 13.6739C25.1677 13.6624 24.7206 13.7622 24.3191 13.9641C22.9844 14.6215 22.45 16.219 23.1335 17.5241C23.8062 18.8296 25.4392 19.3521 26.7743 18.684C28.109 18.026 28.643 16.4284 27.9598 15.124C27.7403 14.6978 27.4067 14.3378 26.9945 14.0825C26.5823 13.8271 26.1069 13.6859 25.6191 13.6739ZM62.8238 17.5764C61.8733 17.587 61.0085 17.7436 60.2184 18.0353C59.4065 18.3493 58.7236 18.7986 58.1685 19.373C57.6127 19.9572 57.1856 20.6575 56.8972 21.4714C56.6087 22.2863 56.4595 23.1738 56.4595 24.1236C56.4595 26.1494 57.0576 27.7359 58.2319 28.9155C59.3425 30.0335 60.8699 30.6176 62.8238 30.6799C62.941 30.6909 63.0479 30.6912 63.1654 30.6912C64.0945 30.6912 64.9061 30.576 65.6216 30.3362C66.3368 30.0954 66.924 29.8037 67.3936 29.448C67.8745 29.0833 68.2161 28.707 68.4514 28.3204C68.6864 27.9344 68.8032 27.5901 68.8032 27.3083C68.8032 26.9846 68.697 26.7235 68.494 26.5454C68.2811 26.3685 68.0025 26.274 67.6715 26.274C67.3514 26.274 67.117 26.3476 66.9454 26.4831C66.617 26.7889 66.2825 27.0883 65.9421 27.3813C65.6732 27.6023 65.3914 27.8079 65.0981 27.997C64.7879 28.1849 64.479 28.3317 64.1476 28.415C63.8275 28.5086 63.4644 28.5505 63.0694 28.5505C62.9835 28.5505 62.8984 28.5505 62.8238 28.5399C62.333 28.5086 61.8733 28.373 61.4574 28.1219C60.9765 27.8405 60.5811 27.4232 60.2937 26.8801C59.9943 26.3162 59.8445 25.6689 59.8339 24.9382H66.2833C67.1381 24.9382 67.8105 24.813 68.2907 24.5832C68.761 24.3328 68.996 23.8103 68.996 23.0063C68.996 22.1292 68.7715 21.2733 68.3121 20.4277C67.853 19.5918 67.1593 18.9035 66.2411 18.37C65.3222 17.8381 64.2113 17.5764 62.9307 17.5764H62.8238ZM76.0114 17.5764C75.0609 17.587 74.1853 17.7436 73.406 18.0353C72.5941 18.3493 71.9109 18.7986 71.3442 19.373C70.7997 19.9572 70.3732 20.6575 70.0854 21.4714C69.7967 22.2863 69.6472 23.1738 69.6472 24.1236C69.6472 26.1494 70.2343 27.7359 71.4089 28.9155C72.5189 30.0335 74.0572 30.6176 76.0114 30.6799C76.1187 30.6909 76.2349 30.6912 76.3524 30.6912C77.2712 30.6912 78.0933 30.576 78.8085 30.3362C79.5238 30.0954 80.1112 29.8037 80.5809 29.448C81.0515 29.0833 81.403 28.707 81.6384 28.3204C81.873 27.9344 81.9908 27.5901 81.9908 27.3083C81.9908 26.9846 81.8836 26.7235 81.67 26.5454C81.4674 26.3685 81.1902 26.274 80.8482 26.274C80.538 26.274 80.3033 26.3476 80.1324 26.4831C79.7158 26.8591 79.3858 27.1618 79.1294 27.3813C78.8567 27.6024 78.5713 27.808 78.2745 27.997C77.9765 28.1849 77.6554 28.3317 77.3356 28.415C77.0039 28.5086 76.6524 28.5505 76.257 28.5505C76.1712 28.5505 76.086 28.5505 76.0114 28.5399C75.52 28.5086 75.0606 28.373 74.644 28.1219C74.1529 27.8405 73.7684 27.4232 73.4697 26.8801C73.1813 26.3162 73.0314 25.6689 73.0209 24.9382H79.4594C80.3248 24.9382 80.9974 24.813 81.4674 24.5832C81.9483 24.3328 82.1823 23.8103 82.1823 23.0063C82.1823 22.1292 81.9483 21.2733 81.4888 20.4277C81.0298 19.5918 80.3459 18.9035 79.4168 18.37C78.4983 17.8381 77.3993 17.5764 76.1068 17.5764H76.0114ZM31.1639 17.598C30.6833 17.598 30.3091 17.7542 30.0424 18.0569C29.7648 18.3493 29.6259 18.8089 29.6259 19.4247V28.7277C29.6259 29.3538 29.7754 29.845 30.0846 30.1793C30.3949 30.5234 30.7787 30.6912 31.2596 30.6912C31.7507 30.6912 32.1454 30.5234 32.4557 30.2006C32.7653 29.8663 32.9257 29.3851 32.9257 28.7277V24.7081C32.9257 23.3817 33.0002 22.4945 33.1603 22.0139C33.3844 21.4088 33.7481 20.9392 34.2283 20.5946C34.7092 20.2602 35.2429 20.0827 35.8304 20.0827C36.7265 20.0827 37.3354 20.3648 37.6347 20.928C37.9334 21.4924 38.0836 22.306 38.0836 23.3717V28.7277C38.0836 29.3538 38.2325 29.845 38.5424 30.1793C38.8516 30.5234 39.247 30.6912 39.7381 30.6912C40.2183 30.6912 40.6134 30.5234 40.9124 30.1893C41.2118 29.8663 41.3715 29.3748 41.3715 28.7277V22.7452C41.3715 22.0356 41.3398 21.4501 41.2755 21.0012C41.2114 20.5416 41.0732 20.1143 40.8487 19.7171C40.5071 19.0387 40.0051 18.5165 39.3216 18.1509C38.6381 17.7852 37.8592 17.598 36.9938 17.598C36.0967 17.598 35.3066 17.7749 34.6125 18.1199C33.9293 18.4746 33.2996 19.0177 32.7115 19.769V19.373C32.7115 18.9971 32.6478 18.6734 32.5091 18.4016C32.3705 18.1305 32.1781 17.9317 31.9434 17.7959C31.7078 17.66 31.4517 17.598 31.1639 17.598ZM62.8136 19.8216H62.8238C63.6773 19.8216 64.3717 20.093 64.8948 20.6362C65.4295 21.1787 65.7279 22.0039 65.813 23.1109H59.8336C59.9514 22.0252 60.2716 21.2 60.7947 20.6469C61.3178 20.0934 61.9904 19.8216 62.8132 19.8216H62.8136ZM76.0005 19.8216H76.0114C76.8656 19.8216 77.5587 20.093 78.0818 20.6362C78.6056 21.1787 78.9152 22.0039 78.9901 23.1109H73.0212C73.1278 22.0252 73.4483 21.2 73.9823 20.6469C74.5057 20.0934 75.1784 19.8216 76.0005 19.8216ZM48.8041 20.0095H48.8457C49.4117 20.0095 49.9352 20.1766 50.4052 20.5007C50.8963 20.824 51.2815 21.2939 51.5693 21.91C51.8475 22.5261 51.9967 23.2674 51.9967 24.1239C51.9967 25.0424 51.8475 25.8044 51.5693 26.4098C51.2815 27.0156 50.8963 27.4642 50.4161 27.7563C49.9458 28.0487 49.4117 28.1958 48.8457 28.1958H48.8358C48.2592 28.1958 47.7354 28.039 47.2549 27.7363C46.7645 27.4232 46.3902 26.9636 46.1129 26.3582C45.835 25.7421 45.6964 25.0008 45.6964 24.1236C45.6964 23.2987 45.8251 22.5677 46.0813 21.9516C46.3479 21.3256 46.711 20.8447 47.1912 20.5107C47.6612 20.1657 48.2058 20.0095 48.8041 20.0095ZM89.1126 20.0095H89.1449C89.7109 20.0095 90.234 20.1766 90.7146 20.5007C91.1951 20.824 91.58 21.2939 91.8678 21.91C92.1562 22.5261 92.2952 23.2674 92.2952 24.1239C92.2952 25.0424 92.1562 25.8044 91.8678 26.4098C91.58 27.0156 91.1945 27.4642 90.7248 27.7563C90.252 28.0474 89.7037 28.2 89.1449 28.1958H89.1347C88.5584 28.1958 88.0343 28.039 87.5538 27.7363C87.0739 27.4232 86.6894 26.9636 86.4118 26.3582C86.1342 25.7421 85.9953 25.0008 85.9953 24.1236C85.9953 23.2987 86.1224 22.5681 86.3897 21.9516C86.6461 21.3256 87.0201 20.8447 87.4901 20.5107C87.9713 20.1657 88.5043 20.0095 89.1126 20.0095ZM27.4476 20.1143C26.5928 20.6146 25.5894 20.897 24.5217 20.897C24.2979 20.897 24.0841 20.887 23.8596 20.8657V28.5505C23.8596 29.2605 24.0306 29.793 24.362 30.1483C24.7036 30.5137 25.1204 30.6912 25.6435 30.6912C26.1769 30.6912 26.6155 30.5137 26.9456 30.1587C27.2773 29.8037 27.4476 29.2712 27.4476 28.5505V20.1143Z" fill="#2164F3"/>
</svg>
