<svg width="33" height="33" viewBox="0 0 33 33" fill="none" xmlns="http://www.w3.org/2000/svg">
<g clip-path="url(#clip0_782_77519)">
<path d="M25.4333 9.51172C21.8311 9.51172 18.4927 12.0865 16.0631 14.4099C13.6336 12.0865 10.2951 9.51172 6.69298 9.51172C3.00247 9.51172 0 12.5594 0 16.3054C0 20.0514 3.00247 23.099 6.69298 23.099C10.2951 23.099 13.6336 20.5242 16.0631 18.2008C18.4927 20.5242 21.8311 23.099 25.4333 23.099C29.1238 23.099 32.1263 20.0514 32.1263 16.3054C32.1263 12.5594 29.1238 9.51172 25.4333 9.51172ZM6.69298 20.3816C4.47894 20.3816 2.67719 18.5527 2.67719 16.3054C2.67719 14.058 4.47894 12.2292 6.69298 12.2292C8.79055 12.2292 11.2335 13.5648 14.1369 16.3054C11.2335 19.0459 8.79055 20.3816 6.69298 20.3816ZM25.4333 20.3816C23.3357 20.3816 20.8928 19.0459 17.9894 16.3054C20.8928 13.5648 23.3357 12.2292 25.4333 12.2292C27.6473 12.2292 29.4491 14.058 29.4491 16.3054C29.4491 18.5527 27.6473 20.3816 25.4333 20.3816Z" fill="#FF004D"/>
</g>
<defs>
<clipPath id="clip0_782_77519">
<rect width="32.1263" height="32.6096" fill="white"/>
</clipPath>
</defs>
</svg>
