<svg width="21" height="20" viewBox="0 0 21 20" fill="none" xmlns="http://www.w3.org/2000/svg">
<path d="M10.6789 15C10.9688 15 11.2119 14.9042 11.408 14.7125C11.6041 14.5208 11.7022 14.2833 11.7022 14V10C11.7022 9.71667 11.6041 9.47917 11.408 9.2875C11.2119 9.09583 10.9688 9 10.6789 9C10.3889 9 10.1459 9.09583 9.94972 9.2875C9.75358 9.47917 9.6555 9.71667 9.6555 10V14C9.6555 14.2833 9.75358 14.5208 9.94972 14.7125C10.1459 14.9042 10.3889 15 10.6789 15ZM10.6789 7C10.9688 7 11.2119 6.90417 11.408 6.7125C11.6041 6.52083 11.7022 6.28333 11.7022 6C11.7022 5.71667 11.6041 5.47917 11.408 5.2875C11.2119 5.09583 10.9688 5 10.6789 5C10.3889 5 10.1459 5.09583 9.94972 5.2875C9.75358 5.47917 9.6555 5.71667 9.6555 6C9.6555 6.28333 9.75358 6.52083 9.94972 6.7125C10.1459 6.90417 10.3889 7 10.6789 7ZM10.6789 20C9.26322 20 7.93286 19.7375 6.68778 19.2125C5.44269 18.6875 4.35964 17.975 3.43862 17.075C2.51761 16.175 1.78847 15.1167 1.2512 13.9C0.713943 12.6833 0.445312 11.3833 0.445312 10C0.445312 8.61667 0.713943 7.31667 1.2512 6.1C1.78847 4.88333 2.51761 3.825 3.43862 2.925C4.35964 2.025 5.44269 1.3125 6.68778 0.7875C7.93286 0.2625 9.26322 0 10.6789 0C12.0945 0 13.4249 0.2625 14.6699 0.7875C15.915 1.3125 16.9981 2.025 17.9191 2.925C18.8401 3.825 19.5693 4.88333 20.1065 6.1C20.6438 7.31667 20.9124 8.61667 20.9124 10C20.9124 11.3833 20.6438 12.6833 20.1065 13.9C19.5693 15.1167 18.8401 16.175 17.9191 17.075C16.9981 17.975 15.915 18.6875 14.6699 19.2125C13.4249 19.7375 12.0945 20 10.6789 20ZM10.6789 18C12.9643 18 14.9002 17.225 16.4864 15.675C18.0726 14.125 18.8657 12.2333 18.8657 10C18.8657 7.76667 18.0726 5.875 16.4864 4.325C14.9002 2.775 12.9643 2 10.6789 2C8.39337 2 6.45752 2.775 4.87132 4.325C3.28512 5.875 2.49202 7.76667 2.49202 10C2.49202 12.2333 3.28512 14.125 4.87132 15.675C6.45752 17.225 8.39337 18 10.6789 18Z" fill="#115DFC"/>
</svg>
