<svg width="10" height="10" viewBox="0 0 10 10" fill="none" xmlns="http://www.w3.org/2000/svg">
<path d="M5 0C2.25 0 0 2.25 0 5C0 7.75 2.25 10 5 10C7.75 10 10 7.75 10 5C10 2.25 7.75 0 5 0ZM5.625 7.1875C5.625 7.36 5.485 7.5 5.3125 7.5H4.6875C4.515 7.5 4.375 7.36 4.375 7.1875V4.6875C4.375 4.515 4.515 4.375 4.6875 4.375H5.3125C5.485 4.375 5.625 4.515 5.625 4.6875V7.1875ZM5 3.75C4.655 3.75 4.375 3.47 4.375 3.125C4.375 2.78 4.655 2.5 5 2.5C5.345 2.5 5.625 2.78 5.625 3.125C5.625 3.47 5.345 3.75 5 3.75Z" fill="#828282"/>
</svg>
