<?xml version="1.0" encoding="UTF-8" standalone="no"?>
<!-- Created with Inkscape (http://www.inkscape.org/) -->

<svg
   xmlns:dc="http://purl.org/dc/elements/1.1/"
   xmlns:cc="http://creativecommons.org/ns#"
   xmlns:rdf="http://www.w3.org/1999/02/22-rdf-syntax-ns#"
   xmlns:svg="http://www.w3.org/2000/svg"
   xmlns="http://www.w3.org/2000/svg"
   xmlns:sodipodi="http://sodipodi.sourceforge.net/DTD/sodipodi-0.dtd"
   xmlns:inkscape="http://www.inkscape.org/namespaces/inkscape"
   width="510.08289mm"
   height="198.40979mm"
   viewBox="0 0 510.08289 198.40979"
   version="1.1"
   id="svg1880"
   inkscape:version="0.92.0 r15299"
   sodipodi:docname="interserve.svg">
  <defs
     id="defs1874" />
  <sodipodi:namedview
     id="base"
     pagecolor="#ffffff"
     bordercolor="#666666"
     borderopacity="1.0"
     inkscape:pageopacity="0.0"
     inkscape:pageshadow="2"
     inkscape:zoom="0.46803247"
     inkscape:cx="963.93616"
     inkscape:cy="374.94763"
     inkscape:document-units="mm"
     inkscape:current-layer="layer1"
     showgrid="false"
     fit-margin-top="0"
     fit-margin-left="0"
     fit-margin-right="0"
     fit-margin-bottom="0"
     inkscape:window-width="1280"
     inkscape:window-height="744"
     inkscape:window-x="-4"
     inkscape:window-y="-4"
     inkscape:window-maximized="1" />
  <metadata
     id="metadata1877">
    <rdf:RDF>
      <cc:Work
         rdf:about="">
        <dc:format>image/svg+xml</dc:format>
        <dc:type
           rdf:resource="http://purl.org/dc/dcmitype/StillImage" />
        <dc:title></dc:title>
      </cc:Work>
    </rdf:RDF>
  </metadata>
  <g
     inkscape:label="Layer 1"
     inkscape:groupmode="layer"
     id="layer1"
     transform="translate(124.27358,-84.41415)">
    <g
       transform="translate(-19.304649,38.525803)"
       id="g1856">
      <path
         id="path1810"
         d="m 81.483748,231.68564 v -3.28083 c 3.783541,-0.50271 4.788958,-0.50271 4.788958,-9.3398 v -41.69833 c 0,-6.32354 -1.27,-8.83708 -4.048125,-10.60979 v -1.77271 c 3.783542,-2.27541 7.064375,-5.31812 10.609792,-8.09625 v 12.88521 c 3.545416,-7.06437 6.058958,-12.88521 11.377087,-12.88521 6.05895,0 12.3825,9.60438 12.3825,22.225 v 39.92563 c 0,8.83708 2.27541,8.83708 5.05354,9.33979 v 3.28083 h -16.66875 v -3.28083 c 3.78354,-0.50271 5.05354,-0.50271 5.05354,-9.33979 v -36.88292 c 0,-10.60979 -3.04271,-17.93875 -8.59896,-17.93875 -3.545416,0 -8.598957,7.32896 -8.598957,14.89604 v 39.92563 c 0,8.83708 1.005416,8.83708 4.788958,9.33979 v 3.28083 z M 135.56458,167.2596 v 44.71458 c 0,8.33438 1.27,13.38792 5.82083,13.38792 2.27542,0 4.78896,-3.78354 6.82625,-6.05896 1.50813,1.50812 -0.26458,4.28625 -1.00541,5.82083 -2.27542,5.31813 -6.05896,8.59896 -9.60438,8.59896 -6.05896,0 -8.59896,-9.10167 -8.59896,-19.94958 V 167.2596 h -4.28625 v -1.50813 c 3.54542,-6.82625 7.32896,-13.12333 10.6098,-20.45229 h 0.26458 v 13.6525 h 12.3825 l -2.01083,8.33438 z m 24.765,11.1125 c 1.50812,-9.33979 4.28625,-17.93875 9.8425,-17.93875 5.31812,0 7.32896,8.33437 7.59354,17.93875 z m 27.54312,4.04812 c -1.7727,-17.17145 -8.59895,-25.50583 -16.93333,-25.50583 -10.37166,0 -17.93875,18.20333 -17.93875,38.39104 0,22.75417 6.82625,38.39104 18.20333,38.39104 8.59896,0 14.39334,-11.1125 17.17146,-27.04041 l -1.50812,-0.76729 c -2.01084,10.10708 -7.06438,16.66874 -12.64709,16.66874 -8.83708,0 -14.89604,-12.8852 -14.89604,-30.55937 0,-3.28083 0.26459,-6.56167 0.50271,-9.60437 z m 7.06438,49.26542 v -3.28083 c 3.54542,-0.50271 4.78896,-0.50271 4.78896,-9.3398 v -42.43916 c 0,-6.56167 -1.00542,-7.06438 -4.04813,-9.8425 v -1.77271 c 3.54542,-2.27542 6.82625,-5.82083 10.37167,-8.59896 v 12.3825 c 2.01083,-5.05354 4.78896,-12.88521 8.33437,-12.88521 2.51355,0 4.55084,2.51355 4.55084,7.83167 0,3.54542 -1.50813,6.32354 -3.28084,6.32354 -1.27,0 -2.77812,-2.77812 -4.78895,-3.04271 -1.50813,0 -4.55084,4.78896 -4.55084,7.32896 v 44.71458 c 0,8.83709 1.00542,8.83709 5.31813,9.3398 v 3.28083 z"
         class="st0"
         inkscape:connector-curvature="0"
         style="clip-rule:evenodd;fill:#4f4f4f;fill-rule:evenodd;stroke-width:0.26458332" />
      <path
         id="path1812"
         d="m 223.98833,208.45522 h 1.00542 c 1.50812,9.8425 3.28083,21.98688 9.60437,21.98688 4.78896,0 7.32896,-5.55625 7.32896,-15.16063 0,-10.37166 -5.31813,-13.38791 -9.10167,-17.93875 -4.55083,-5.55625 -8.59896,-9.60437 -8.59896,-21.21958 0,-12.64708 5.82084,-19.20875 11.37709,-19.20875 3.78354,0 7.32896,2.77813 10.87437,5.31813 v 17.93875 h -1.27 c -1.00541,-10.10709 -4.28625,-19.94959 -10.10708,-19.94959 -3.54542,0 -5.55625,5.05354 -5.55625,11.87979 0,14.65792 18.67958,14.15521 18.67958,38.65563 0,15.39875 -6.56166,22.99229 -13.38791,22.99229 -3.78355,0 -7.56709,-1.50813 -10.87438,-5.55625 z m 39.15833,-30.08312 c 1.77271,-9.33979 4.28625,-17.93875 9.8425,-17.93875 5.55625,0 7.32896,8.33437 7.59354,17.93875 z m 27.80771,4.04812 c -2.01083,-17.17145 -8.83708,-25.50583 -17.17146,-25.50583 -10.37166,0 -17.93875,18.20333 -17.93875,38.39104 0,22.75417 6.82625,38.39104 18.20334,38.39104 8.83708,0 14.65791,-11.1125 17.19791,-27.04041 l -1.27,-0.76729 c -2.27541,10.10708 -7.32896,16.66874 -12.88521,16.66874 -8.83708,0 -14.89604,-12.8852 -14.89604,-30.55937 0,-3.28083 0.23813,-6.56167 0.50271,-9.60437 z m 6.82625,49.26542 v -3.28083 c 3.78354,-0.50271 4.78896,-0.50271 4.78896,-9.3398 v -42.43916 c 0,-6.56167 -1.00542,-7.06438 -3.78354,-9.8425 v -1.77271 c 3.54541,-2.27542 6.82625,-5.82083 10.10708,-8.59896 v 12.3825 c 2.27542,-5.05354 4.78896,-12.88521 8.59896,-12.88521 2.27541,0 4.28625,2.51355 4.28625,7.83167 0,3.54542 -1.27,6.32354 -3.04271,6.32354 -1.50813,0 -2.77813,-2.77812 -5.05354,-3.04271 -1.50813,0 -4.55084,4.78896 -4.55084,7.32896 v 44.71458 c 0,8.83709 1.00542,8.83709 5.31813,9.3398 v 3.28083 z m 29.79208,-72.76042 h 17.67417 v 3.28084 c -1.50813,0 -5.55625,-0.26459 -5.55625,4.55083 0,1.00542 0.50271,3.78354 1.27,7.59354 l 8.06979,41.69833 9.33979,-42.43916 c 0.50271,-2.27542 1.00542,-4.55083 1.00542,-6.82625 0,-5.05354 -3.78354,-4.55083 -5.55625,-4.55083 v -3.28084 h 13.12333 v 3.25438 c -3.28083,0 -4.78896,3.78354 -6.05896,9.60437 l -13.89062,61.88604 h -1.27 l -12.3825,-61.64791 c -1.27,-6.56167 -1.77271,-9.60438 -5.82083,-9.8425 z m 48.02188,19.44688 c 1.50812,-9.33979 4.28625,-17.93875 9.60437,-17.93875 5.55625,0 7.32896,8.33437 7.83167,17.93875 z m 27.51666,4.04812 c -2.01083,-17.17145 -8.59895,-25.50583 -16.93333,-25.50583 -10.60979,0 -18.20333,18.20333 -18.20333,38.39104 0,22.75417 7.06437,38.39104 18.44146,38.39104 8.59895,0 14.39333,-11.1125 17.19791,-27.04041 l -1.50812,-0.76729 c -2.03729,10.10708 -7.32896,16.66874 -12.64709,16.66874 -9.10166,0 -14.89604,-12.8852 -14.89604,-30.55937 0,-3.28083 0,-6.56167 0.23813,-9.60437 z"
         class="st1"
         inkscape:connector-curvature="0"
         style="clip-rule:evenodd;fill:#02a4e6;fill-rule:evenodd;stroke-width:0.26458332" />
      <path
         id="path1814"
         d="m 61.29604,148.05085 c 0,-13.14979 -0.502709,-13.14979 -5.55625,-13.14979 v -3.04271 h 18.706041 v 3.04271 c -5.053542,0 -5.55625,0 -5.55625,13.14979 v 64.95521 c 0,13.12333 0.502708,15.16062 5.55625,15.39875 v 3.28083 H 55.73979 v -3.28083 c 5.053541,-0.26459 5.55625,-2.27542 5.55625,-15.39875 z"
         class="st0"
         inkscape:connector-curvature="0"
         style="clip-rule:evenodd;fill:#4f4f4f;fill-rule:evenodd;stroke-width:0.26458332" />
      <path
         id="path1816"
         d="m 48.410831,119.76689 c 16.430625,-8.33437 34.6075,-12.62062 52.810829,-14.65792 5.31813,-0.76729 8.83709,-5.820829 8.09625,-10.87437 -1.00541,-5.318125 -5.82083,-8.837083 -11.112496,-8.09625 -20.214166,2.010833 -39.925624,7.064375 -58.102499,16.16604 -4.788958,2.27542 -6.82625,8.09625 -4.550833,12.88521 2.2225,4.81542 8.043333,6.85271 12.858749,4.57729 z"
         class="st1"
         inkscape:connector-curvature="0"
         style="clip-rule:evenodd;fill:#02a4e6;fill-rule:evenodd;stroke-width:0.26458332" />
      <path
         id="path1818"
         d="M 38.806457,96.510016 C 48.146248,81.613975 63.306873,71.745017 79.737498,65.686058 84.526456,63.675225 86.801873,57.854392 84.526456,53.065434 82.251039,48.276475 76.694789,46.001059 71.905831,48.276475 52.458956,55.34085 34.758332,67.485225 23.407707,84.921267 20.126873,89.1546 20.894165,95.213558 25.10104,98.52085 c 0.02646,0.02646 0.05292,0.02646 0.07937,0.05292 4.259792,2.98979 10.31875,2.24895 13.626042,-2.06375 z"
         class="st0"
         inkscape:connector-curvature="0"
         style="clip-rule:evenodd;fill:#4f4f4f;fill-rule:evenodd;stroke-width:0.26458332" />
      <path
         id="path1820"
         d="M -3.6591679,80.846683 C -11.252709,70.7396 -18.317084,65.950642 -28.662293,58.621684 c -5.053541,-3.545417 -12.885208,-8.334375 -18.706041,-10.371667 -4.92125,-2.037292 -10.583333,0.3175 -12.620625,5.265208 0,0.02646 -0.02646,0.02646 -0.02646,0.05292 -2.010834,4.788958 0.238125,9.604375 5.318125,12.620625 9.604375,5.820833 17.938749,11.615208 27.278541,18.706041 3.545417,2.778125 6.82625,5.820833 9.604375,9.101667 3.545417,3.783541 9.6043748,4.048125 13.6524997,0.502708 3.78354167,-3.545417 4.31270833,-9.604375 0.5027084,-13.6525 z M -36.758543,119.50231 c -17.171458,5.05354 -33.602082,14.15521 -43.973749,29.31583 -3.280833,4.28625 -2.275417,10.37167 2.010833,13.6525 4.28625,3.04271 10.371667,2.27542 13.387917,-2.01083 8.09625,-12.64709 22.225,-18.70604 35.877499,-22.99229 5.053542,-2.01084 7.328959,-7.56709 5.318125,-12.62063 -2.010833,-4.84187 -7.567083,-7.35542 -12.620625,-5.34458 z M 28.43479,241.02543 c 0,0 -10.371667,-6.05896 -20.7168747,-6.05896 -10.6097916,0 -28.2839583,7.83167 -28.2839583,7.83167 l 10.371667,-111.17792 c 5.3181248,3.04271 11.11249968,4.55084 19.4468746,4.55084 9.6043744,0 13.1497914,-2.27542 19.2087494,-5.55625 V 241.02543 Z M 14.78229,131.14397 c -7.0643747,0 -12.885208,-6.05895 -12.885208,-13.38791 0,-7.06438 5.8208333,-13.14979 12.885208,-13.14979 7.328958,0 13.387917,6.05895 13.387917,13.14979 0.02646,7.56708 -5.794375,13.38791 -13.387917,13.38791 z"
         class="st1"
         inkscape:connector-curvature="0"
         style="clip-rule:evenodd;fill:#02a4e6;fill-rule:evenodd;stroke-width:0.26458332" />
      <path
         id="path1822"
         d="m -35.223959,112.94064 c -16.430625,-11.1125 -37.1475,-14.89604 -57.599791,-15.160624 -6.323542,-0.502708 -10.87437,-5.053541 -10.63625,-10.345208 0.50271,-5.318125 5.820833,-9.339791 12.117917,-8.837083 24.262291,0.264583 48.762707,5.55625 68.474165,18.203333 5.053542,3.042708 6.561667,9.101662 3.280834,13.387912 -3.518959,4.52438 -10.583334,5.79438 -15.636875,2.75167 z"
         class="st0"
         inkscape:connector-curvature="0"
         style="clip-rule:evenodd;fill:#4f4f4f;fill-rule:evenodd;stroke-width:0.26458332" />
    </g>
  </g>
</svg>
