<svg width="645" height="214" viewBox="0 0 645 214" fill="none" xmlns="http://www.w3.org/2000/svg">
<path d="M67.7325 87.2246C64.4109 91.4157 59.9695 94.5797 54.9231 96.3498C48.9625 98.5018 42.6602 99.5517 36.3239 99.4484C29.684 99.5775 23.1338 97.9001 17.3732 94.5956C11.8491 91.3318 7.42081 86.4986 4.65165 80.7107C1.54 74.1198 -0.0493776 66.9135 0.0011689 59.6252V52.9702C0.0011689 40.1022 3.08196 30.0515 9.24356 22.818C15.4051 15.5845 24.0033 11.9678 35.0381 11.9678C44.513 11.9678 52.0384 14.3076 57.6144 18.9874C63.4544 24.1789 67.0593 31.4287 67.674 39.2184H53.1635C51.5255 28.9627 45.5804 23.8349 35.3283 23.8349C32.4098 23.67 29.4966 24.2395 26.8552 25.4914C24.2138 26.7433 21.9284 28.6376 20.2082 31.0009C16.7565 35.7783 14.973 42.7882 14.8577 52.0305V58.5817C14.8577 67.785 16.7974 74.9307 20.6768 80.0186C22.5525 82.5048 25.0053 84.4972 27.8232 85.8236C30.6411 87.15 33.7395 87.7706 36.8509 87.6318C44.4163 87.6318 49.797 85.9158 52.9932 82.4836V65.8143H35.4481V54.5834H67.7325V87.2246Z" fill="black"/>
<path d="M204.526 78.4493H171.536L164.633 98.2784H149.263L181.42 13.1164H194.698L226.926 98.2784H211.487L204.526 78.4493ZM175.689 66.5183H200.373L188.03 31.1965L175.689 66.5183ZM264.277 65.4535H247.772V98.2784H232.985V13.1164H262.93C272.756 13.1164 280.34 15.3196 285.682 19.7261C288.399 22.0827 290.535 25.0346 291.925 28.352C293.315 31.6694 293.92 35.2628 293.694 38.8524C293.874 43.9361 292.43 48.945 289.571 53.1525C286.649 57.1287 282.665 60.2001 278.076 62.0143L297.208 97.5171V98.2784H281.356L264.277 65.4535ZM247.772 53.5811H262.98C267.215 53.8435 271.394 52.5048 274.688 49.8304C276.105 48.5218 277.217 46.9175 277.945 45.1313C278.673 43.345 279 41.4204 278.902 39.4939C279.023 37.5561 278.739 35.6143 278.07 33.7918C277.4 31.9693 276.359 30.3059 275.012 28.9073C271.778 26.182 267.623 24.8006 263.401 25.0474H247.783L247.772 53.5811ZM304.142 98.2784V13.1164H329.293C336.299 12.9842 343.214 14.7208 349.327 18.1475C355.137 21.4802 359.845 26.4412 362.868 32.4184C366.158 38.9835 367.802 46.2499 367.66 53.5918V57.8509C367.819 65.2376 366.162 72.5504 362.834 79.1468C359.757 85.1237 354.972 90.0505 349.087 93.3005C342.819 96.6971 335.777 98.4121 328.649 98.2784H304.142ZM318.94 25.0474V86.4645H328.59C331.924 86.672 335.263 86.1248 338.357 84.8639C341.451 83.6029 344.22 81.6606 346.46 79.1814C350.613 74.3259 352.728 67.356 352.806 58.2715V53.5332C352.806 44.2908 350.798 37.233 346.782 32.3598C344.626 29.8771 341.927 27.9255 338.893 26.6572C335.859 25.3888 332.574 24.8379 329.293 25.0474H318.94Z" fill="black"/>
<path d="M392.601 66.6311V98.2741H377.803V13.1121H410.383C419.897 13.1121 427.451 15.5886 433.047 20.5416C435.813 22.992 438.001 26.0261 439.453 29.4248C440.904 32.8235 441.583 36.5021 441.44 40.195C441.638 43.8528 441.001 47.5077 439.578 50.8829C438.154 54.258 435.981 57.2648 433.222 59.6754C427.744 64.3161 420.072 66.6365 410.207 66.6365L392.601 66.6311ZM392.601 54.7587H410.383C414.722 55.0557 419.017 53.7273 422.431 51.0319C423.863 49.6532 424.976 47.9783 425.694 46.1244C426.411 44.2705 426.715 42.2823 426.583 40.2988C426.68 38.2727 426.357 36.2484 425.635 34.3529C424.912 32.4574 423.806 30.7316 422.386 29.2836C419.233 26.4017 415.071 24.8782 410.803 25.043H392.601V54.7587ZM488.033 78.4503H455.043L448.14 98.2741H432.767L464.929 13.1121H478.207L510.433 98.2741H494.994L488.033 78.4503ZM459.195 66.514H483.877L471.536 31.1922L459.195 66.514ZM561.003 76.3394C561.091 74.6852 560.778 73.0342 560.09 71.527C559.403 70.0197 558.362 68.7009 557.055 67.6826C552.676 64.8692 547.865 62.7945 542.813 61.5414C537.079 59.9585 531.574 57.6383 526.437 54.6389C518.676 49.764 514.796 43.408 514.796 35.5712C514.751 32.2811 515.489 29.0274 516.948 26.0783C518.407 23.1291 520.546 20.5691 523.189 18.609C529.47 13.949 537.165 11.5985 544.978 11.9541C550.439 11.8555 555.854 12.974 560.83 15.2283C565.278 17.2456 569.069 20.4744 571.768 24.5453C574.402 28.5235 575.787 33.1984 575.745 37.9696H561.003C561.107 36.0295 560.786 34.09 560.063 32.2867C559.34 30.4834 558.231 28.8598 556.815 27.5293C553.443 24.8169 549.174 23.4706 544.855 23.7573C540.862 23.5128 536.9 24.6039 533.595 26.8585C532.28 27.8728 531.229 29.1894 530.532 30.6964C529.835 32.2035 529.511 33.8565 529.589 35.5153C529.602 37.0751 530.005 38.6068 530.762 39.9706C531.519 41.3345 532.605 42.487 533.922 43.3229C538.333 46.0825 543.148 48.1348 548.193 49.4055C553.791 50.932 559.162 53.194 564.165 56.1323C567.778 58.246 570.812 61.2198 572.998 64.789C574.932 68.288 575.901 72.2385 575.806 76.2355C575.914 79.507 575.229 82.7561 573.808 85.7049C572.387 88.6537 570.273 91.2146 567.647 93.1684C562.201 97.3512 554.819 99.4427 545.502 99.4427C539.661 99.508 533.871 98.3425 528.511 96.022C523.709 94.0289 519.543 90.7623 516.463 86.5747C513.57 82.4737 512.064 77.5556 512.163 72.5381H526.961C526.843 74.6524 527.214 76.7657 528.045 78.7135C528.876 80.6613 530.145 82.3913 531.753 83.7689C535.729 86.6635 540.595 88.0709 545.502 87.7459C549.615 88.0445 553.708 86.941 557.114 84.6155C558.367 83.6393 559.373 82.381 560.049 80.9429C560.725 79.5048 561.051 77.9276 561.003 76.3394ZM629.703 76.3394C629.792 74.6856 629.479 73.0349 628.793 71.5277C628.107 70.0206 627.066 68.7014 625.761 67.6826C621.382 64.8692 616.571 62.7945 611.519 61.5414C605.787 59.9581 600.284 57.6379 595.148 54.6389C587.387 49.764 583.507 43.408 583.507 35.5712C583.462 32.2811 584.199 29.0274 585.659 26.0783C587.118 23.1291 589.257 20.5691 591.9 18.609C598.181 13.949 605.876 11.5985 613.689 11.9541C619.15 11.8555 624.565 12.974 629.541 15.2283C633.989 17.2456 637.78 20.4744 640.479 24.5453C643.113 28.5235 644.498 33.1984 644.456 37.9696H629.703C629.808 36.0299 629.488 34.0907 628.766 32.2874C628.043 30.4841 626.936 28.8603 625.521 27.5293C622.148 24.8169 617.879 23.4706 613.561 23.7573C609.567 23.5128 605.606 24.6039 602.301 26.8585C600.986 27.8728 599.935 29.1894 599.238 30.6964C598.54 32.2035 598.217 33.8565 598.294 35.5153C598.307 37.0746 598.709 38.606 599.465 39.9698C600.221 41.3336 601.307 42.4863 602.623 43.3229C607.033 46.0825 611.848 48.1348 616.894 49.4055C622.491 50.932 627.862 53.194 632.865 56.1323C636.478 58.246 639.512 61.2198 641.698 64.789C643.632 68.288 644.602 72.2385 644.506 76.2355C644.615 79.507 643.929 82.7561 642.508 85.7049C641.087 88.6537 638.974 91.2146 636.347 93.1684C630.904 97.3512 623.523 99.4427 614.202 99.4427C608.361 99.508 602.572 98.3425 597.211 96.022C592.409 94.0289 588.244 90.7623 585.163 86.5747C582.27 82.4737 580.764 77.5556 580.864 72.5381H595.662C595.543 74.6524 595.914 76.7657 596.745 78.7135C597.576 80.6613 598.845 82.3913 600.453 83.7689C604.429 86.6629 609.293 88.0703 614.2 87.7459C618.314 88.0451 622.408 86.9416 625.814 84.6155C627.068 83.6393 628.073 82.381 628.749 80.9429C629.425 79.5048 629.752 77.9276 629.703 76.3394Z" fill="#00CF2E"/>
<path d="M98.1184 87.9624L76.3354 65.9558V16.64C76.3354 16.64 76.969 16.6853 78.0897 16.6853C83.549 16.6668 88.9729 15.8075 94.1707 14.1378C97.8291 12.9639 101.302 11.2762 104.486 9.12526C108.056 6.69479 111.123 3.59602 113.515 0V11.1803C110.263 14.0029 106.677 16.4166 102.838 18.3676C99.7494 19.9378 96.5171 21.2081 93.1858 22.161C90.0323 23.1051 86.7814 23.6865 83.4962 23.8939L83.8129 62.7748L103.288 83.0351L98.1184 87.9624ZM142.573 74.6019L137.321 69.3339L143.215 62.7774L143.532 23.8966C140.249 23.687 137 23.1057 133.847 22.1636C130.517 21.2097 127.286 19.9386 124.198 18.3676C120.359 16.4166 116.773 14.0029 113.521 11.1803V0C115.914 3.59627 118.981 6.69506 122.553 9.12526C125.736 11.2762 129.209 12.9639 132.868 14.1378C138.065 15.8073 143.488 16.6665 148.946 16.6853C150.048 16.6853 150.695 16.64 150.7 16.64V65.9558L142.584 74.6019H142.573Z" fill="black"/>
<path d="M101.581 91.6307L106.974 86.3652L113.49 92.8999L133.988 72.4775L139.293 77.7852L113.498 103.38L101.581 91.6307Z" fill="#00CF2E"/>
<rect x="352.47" y="128.4" width="292.047" height="85.6" rx="15.1059" fill="black"/>
<path d="M377.77 157.365H380.756V178.655L380.499 182.026H377.77V157.365ZM392.492 173.196V173.533C392.492 174.796 392.342 175.968 392.043 177.049C391.743 178.12 391.304 179.051 390.726 179.843C390.148 180.635 389.442 181.25 388.607 181.689C387.772 182.128 386.814 182.347 385.733 182.347C384.631 182.347 383.662 182.16 382.827 181.786C382.003 181.4 381.307 180.849 380.74 180.132C380.173 179.415 379.718 178.548 379.375 177.531C379.043 176.514 378.813 175.369 378.685 174.095V172.618C378.813 171.334 379.043 170.183 379.375 169.166C379.718 168.149 380.173 167.282 380.74 166.565C381.307 165.837 382.003 165.286 382.827 164.911C383.651 164.526 384.609 164.333 385.701 164.333C386.793 164.333 387.761 164.547 388.607 164.976C389.453 165.393 390.159 165.992 390.726 166.774C391.304 167.555 391.743 168.492 392.043 169.583C392.342 170.665 392.492 171.869 392.492 173.196ZM389.506 173.533V173.196C389.506 172.329 389.426 171.515 389.265 170.756C389.105 169.985 388.848 169.311 388.495 168.733C388.141 168.144 387.676 167.684 387.098 167.352C386.52 167.009 385.808 166.838 384.962 166.838C384.213 166.838 383.56 166.966 383.004 167.223C382.458 167.48 381.992 167.828 381.607 168.267C381.221 168.695 380.906 169.187 380.66 169.744C380.424 170.29 380.247 170.857 380.13 171.446V175.315C380.301 176.064 380.579 176.787 380.965 177.483C381.361 178.168 381.885 178.73 382.538 179.169C383.202 179.607 384.02 179.827 384.994 179.827C385.797 179.827 386.482 179.666 387.05 179.345C387.628 179.013 388.093 178.558 388.446 177.98C388.81 177.402 389.078 176.733 389.249 175.974C389.42 175.214 389.506 174.4 389.506 173.533ZM398.307 180.228L403.14 164.654H406.319L399.351 184.708C399.19 185.136 398.976 185.596 398.708 186.088C398.451 186.591 398.12 187.068 397.713 187.517C397.306 187.967 396.814 188.331 396.236 188.609C395.669 188.898 394.989 189.043 394.197 189.043C393.961 189.043 393.662 189.01 393.298 188.946C392.934 188.882 392.677 188.828 392.527 188.786L392.511 186.377C392.597 186.388 392.73 186.399 392.912 186.409C393.105 186.431 393.239 186.442 393.314 186.442C393.988 186.442 394.561 186.351 395.032 186.169C395.503 185.997 395.899 185.703 396.22 185.286C396.552 184.879 396.835 184.317 397.071 183.6L398.307 180.228ZM394.759 164.654L399.27 178.141L400.041 181.272L397.906 182.364L391.516 164.654H394.759Z" fill="white"/>
<g clip-path="url(#clip0_31_4889)">
<path d="M459.014 146.145L453.537 153.405H427.634V191.799H466.359V172.415L473.664 162.975V198.661H420.292V146.145H459.014Z" fill="white"/>
<path d="M440.339 166.228L446.872 173.067L468.55 146.279L473.721 150.684L446.872 183.964L434.583 171.186L440.339 166.228Z" fill="#3BD55A"/>
<path d="M508.789 158.336V159.177C508.816 160.466 508.568 161.745 508.062 162.932C507.556 164.119 506.803 165.188 505.853 166.068C503.895 167.934 501.316 168.867 498.116 168.866C494.748 168.866 491.969 167.779 489.78 165.604C488.71 164.56 487.866 163.31 487.302 161.931C486.737 160.553 486.463 159.075 486.495 157.588C486.462 156.103 486.733 154.627 487.292 153.25C487.851 151.872 488.686 150.62 489.748 149.571C491.917 147.396 494.664 146.309 497.991 146.309C499.944 146.291 501.868 146.788 503.564 147.747C505.204 148.651 506.564 149.98 507.498 151.591L506.016 152.465C505.266 151.073 504.131 149.92 502.743 149.143C501.302 148.31 499.66 147.878 497.991 147.893C495.128 147.893 492.775 148.825 490.932 150.689C490.027 151.595 489.316 152.672 488.841 153.856C488.366 155.04 488.137 156.307 488.168 157.58C488.137 158.855 488.368 160.123 488.846 161.308C489.324 162.492 490.039 163.569 490.948 164.472C492.803 166.337 495.193 167.269 498.118 167.269C500.707 167.269 502.802 166.571 504.402 165.175C505.179 164.513 505.816 163.706 506.277 162.799C506.738 161.893 507.013 160.905 507.086 159.893H497.706V158.336H508.789ZM514.026 167.227H525.39V168.834H512.305V146.341H525.23V147.942H514.026V156.682H524.415V158.288H514.026V167.227ZM543.144 146.341V147.942H536.002V168.828H534.249V147.942H527.106V146.341H543.144ZM491.959 193.939V176.876H486.906V198.752H499.853V193.939H491.959ZM501.559 176.876V198.752H506.611V176.876H501.559ZM520.423 198.747C524.386 198.747 527.854 196.815 529.712 193.783L525.442 191.332C524.514 192.987 522.625 193.968 520.428 193.968C516.588 193.968 514.111 191.424 514.111 187.593C514.111 183.762 516.588 181.22 520.428 181.22C522.626 181.22 524.484 182.201 525.442 183.851L529.717 181.399C528.727 179.855 527.353 178.588 525.726 177.719C524.1 176.851 522.276 176.409 520.428 176.437C513.895 176.437 509.158 181.277 509.158 187.59C509.158 193.903 513.89 198.747 520.423 198.747ZM536.831 193.939V190.064H544.726V185.313H536.831V181.688H545.515V176.876H531.779V198.752H545.674V193.939H536.831ZM560.328 176.876V188.751L551.8 176.876H548.009V198.752H553.063V186.876L561.591 198.752H565.38V176.876H560.328ZM576.079 198.747C580.786 198.747 584.129 196.295 584.129 192.159C584.129 187.623 580.445 186.49 577.163 185.509C573.788 184.498 573.261 183.825 573.261 182.844C573.261 181.986 574.035 181.22 575.583 181.22C577.565 181.22 578.587 182.167 579.33 183.702L583.51 181.282C581.932 178.126 579.144 176.442 575.583 176.442C571.837 176.442 568.307 178.833 568.307 182.971C568.307 187.075 571.466 188.61 574.686 189.495C577.937 190.383 579.176 190.904 579.176 192.222C579.176 193.049 578.587 193.969 576.234 193.969C573.789 193.969 572.456 192.773 571.682 190.996L567.407 193.448C568.614 196.601 571.524 198.747 576.077 198.747H576.079ZM591.212 193.939V190.064H599.107V185.313H591.212V181.688H599.896V176.876H586.16V198.752H600.055V193.939H591.212ZM611.232 176.876H602.39V198.752H611.232C617.326 198.752 621.97 194.001 621.97 187.809C621.97 181.617 617.324 176.876 611.23 176.876H611.232ZM611.232 193.939H607.442V181.688H611.232C614.706 181.688 617.105 184.063 617.105 187.813C617.105 191.563 614.703 193.939 611.23 193.939H611.232Z" fill="white"/>
</g>
<defs>
<clipPath id="clip0_31_4889">
<rect width="201.672" height="52.6101" fill="white" transform="translate(420.186 146.026)"/>
</clipPath>
</defs>
</svg>
