<svg width="566" height="460" viewBox="0 0 566 460" xmlns="http://www.w3.org/2000/svg" xmlns:xlink="http://www.w3.org/1999/xlink">
    <defs>
        <path id="a" d="M0 459h566V0H0z"/>
        <path id="c" d="M0 459h566V0H0z"/>
        <path id="e" d="M0 459h566V0H0z"/>
    </defs>
    <g fill="none" fill-rule="evenodd">
        <path fill="#F5F5F5" d="M0 276h380V26H0z"/>
        <path fill="#EBEBEB" d="M0 51h380V26H0z"/>
        <g>
            <path d="M16.482 39.041c0 1.553-1.377 2.813-3.075 2.813-1.699 0-3.076-1.26-3.076-2.813 0-1.553 1.377-2.813 3.076-2.813 1.698 0 3.075 1.26 3.075 2.813M26.407 39.041c0 1.553-1.377 2.813-3.075 2.813-1.699 0-3.076-1.26-3.076-2.813 0-1.553 1.377-2.813 3.076-2.813 1.698 0 3.075 1.26 3.075 2.813M36.332 39.041c0 1.553-1.377 2.813-3.075 2.813-1.698 0-3.076-1.26-3.076-2.813 0-1.553 1.378-2.813 3.076-2.813 1.698 0 3.075 1.26 3.075 2.813" fill="#FAFAFA"/>
            <path d="M38.33 206.283c1.515-.625 2.591-2.161 2.6-3.971.01-2.372-1.814-4.303-4.075-4.313-2.258-.01-4.098 1.904-4.109 4.275-.007 1.827 1.077 3.382 2.607 4.009-3.443.51-4.912 2.754-5.54 4.683a9.32 9.32 0 0 0 5.676 3.011l2.522.011a9.316 9.316 0 0 0 5.765-3.034c-.618-1.937-2.06-4.168-5.446-4.671" fill="#E0E0E0"/>
            <path d="M36.788 214.077c-.004-.07.83-.027 2.245-.396a9.288 9.288 0 0 0 4.987-3.345c.766-1.018 1.414-2.298 1.671-3.77.247-1.463.195-3.11-.416-4.674a8.32 8.32 0 0 0-1.235-2.245 8.432 8.432 0 0 0-1.92-1.873c-1.478-1.09-3.375-1.703-5.33-1.722-1.956.018-3.854.63-5.332 1.721a8.46 8.46 0 0 0-1.921 1.874 8.32 8.32 0 0 0-1.235 2.245c-.611 1.564-.664 3.213-.417 4.675.258 1.472.906 2.752 1.671 3.77a9.292 9.292 0 0 0 4.988 3.344c1.415.369 2.249.327 2.244.395 0 .02-.204.03-.596.03-.392.006-.974-.044-1.703-.207-1.438-.306-3.58-1.198-5.262-3.315-.822-1.048-1.526-2.382-1.819-3.93-.283-1.536-.246-3.277.386-4.943a8.75 8.75 0 0 1 1.294-2.391 8.924 8.924 0 0 1 2.03-2.002c1.567-1.164 3.59-1.825 5.671-1.842 2.082.017 4.104.678 5.67 1.843a8.92 8.92 0 0 1 2.03 2 8.75 8.75 0 0 1 1.293 2.392c.633 1.666.67 3.406.386 4.943-.292 1.548-.997 2.88-1.818 3.93-1.682 2.117-3.824 3.009-5.262 3.315-.729.163-1.312.213-1.703.206-.392 0-.597-.009-.597-.028" fill="#E0E0E0"/>
            <path d="M145.655 222.334c0-.024.29-.001.835-.11a4.423 4.423 0 0 0 2.146-1.112c.789-.713 1.467-1.97 1.356-3.544l-.027-5.42-.05-14.864-.011-4.494a4.199 4.199 0 0 0-2.105-3.853c-1.387-.864-3.197-.486-4.945-.567l-5.425.01-115.847.085c-1.326-.005-2.622.652-3.377 1.717a3.956 3.956 0 0 0-.717 1.779c-.08.619-.031 1.346-.045 2.022v8.188c0 5.416.003 10.752.005 15.995.042 1.232.699 2.408 1.708 3.115.498.36 1.08.603 1.686.705.592.104 1.26.057 1.914.069 2.618 0 5.21.002 7.777.003l15.055.01 52.08.062 35.113.092 9.546.053 2.482.029c.56.01.846.03.846.03s-.286.02-.846.03l-2.482.028-9.546.053c-8.308.023-20.298.054-35.112.092-14.83.018-32.482.04-52.081.062a499787.324 499787.324 0 0 1-22.832.014c-.65-.014-1.305.043-2.013-.076a4.605 4.605 0 0 1-1.921-.801c-1.149-.803-1.898-2.142-1.948-3.545l-.014-16.02c-.002-2.71-.002-5.44-.002-8.188.016-.696-.04-1.351.051-2.102a4.508 4.508 0 0 1 .82-2.032c.858-1.215 2.342-1.967 3.853-1.96 45.23.031 86.182.061 115.847.083l5.425.01 2.61.006a4.734 4.734 0 0 1 2.524.633c1.52.86 2.374 2.58 2.267 4.169l-.013 4.494-.049 14.863-.027 5.421c.098 1.605-.627 2.918-1.45 3.629-.822.74-1.669.992-2.214 1.085-.557.09-.847.052-.847.052" fill="#E0E0E0"/>
            <mask id="b" fill="#fff">
                <use xlink:href="#a"/>
            </mask>
            <path fill="#E0E0E0" mask="url(#b)" d="M54.74 199.47h32.724v-2.413H54.741zM54.742 213.116h57.334v-2.414H54.742zM54.742 206.127h83.088v-2.414H54.742zM39.427 165.388c1.514-.625 2.59-2.16 2.6-3.97.009-2.373-1.815-4.303-4.075-4.313-2.258-.01-4.1 1.904-4.11 4.275-.007 1.826 1.078 3.382 2.609 4.008-3.444.51-4.914 2.754-5.542 4.684a9.32 9.32 0 0 0 5.677 3.01l2.521.012a9.316 9.316 0 0 0 5.765-3.035c-.618-1.937-2.06-4.167-5.445-4.67"/>
            <path d="M37.885 173.182c-.005-.069.829-.027 2.244-.395a9.288 9.288 0 0 0 4.988-3.345c.765-1.019 1.413-2.298 1.67-3.77.247-1.463.195-3.11-.416-4.674a8.32 8.32 0 0 0-1.235-2.245 8.432 8.432 0 0 0-1.92-1.873c-1.478-1.09-3.375-1.704-5.33-1.723-1.956.018-3.854.631-5.332 1.722a8.46 8.46 0 0 0-1.92 1.874 8.32 8.32 0 0 0-1.236 2.245c-.61 1.564-.664 3.212-.416 4.674.257 1.473.906 2.752 1.67 3.77a9.292 9.292 0 0 0 4.988 3.345c1.416.368 2.25.326 2.245.395 0 .02-.205.029-.597.029-.391.006-.974-.043-1.703-.206-1.438-.307-3.58-1.199-5.262-3.315-.821-1.049-1.526-2.383-1.818-3.93-.284-1.537-.247-3.278.386-4.944a8.75 8.75 0 0 1 1.294-2.39 8.924 8.924 0 0 1 2.03-2.002c1.566-1.165 3.59-1.826 5.67-1.842 2.082.016 4.104.677 5.67 1.843a8.92 8.92 0 0 1 2.03 2 8.75 8.75 0 0 1 1.294 2.391c.632 1.666.67 3.406.386 4.944-.293 1.547-.997 2.88-1.818 3.93-1.682 2.116-3.825 3.008-5.263 3.315-.729.163-1.311.212-1.703.206-.391 0-.596-.009-.596-.029" fill="#E0E0E0" mask="url(#b)"/>
            <path d="M146.752 181.44c-.001-.024.29-.002.835-.11a4.423 4.423 0 0 0 2.145-1.113c.79-.713 1.467-1.97 1.356-3.543l-.026-5.421-.05-14.863-.012-4.494a4.199 4.199 0 0 0-2.105-3.854c-1.387-.863-3.196-.486-4.945-.567l-5.425.01-115.847.086c-1.325-.006-2.621.652-3.376 1.717a3.961 3.961 0 0 0-.717 1.778c-.08.62-.032 1.346-.045 2.023l-.001 8.188.005 15.995c.042 1.232.7 2.407 1.708 3.114.499.36 1.08.604 1.687.706.592.104 1.259.056 1.914.068l7.776.004 15.055.01 52.081.062 35.112.091c4.133.024 7.346.041 9.547.055l2.482.027c.56.01.846.03.846.03s-.287.02-.846.03l-2.482.029-9.547.053-35.112.092-52.08.062a499787.324 499787.324 0 0 1-22.832.013c-.65-.013-1.305.043-2.013-.075a4.605 4.605 0 0 1-1.922-.802c-1.149-.802-1.898-2.142-1.947-3.544l-.015-16.02-.001-8.188c.016-.696-.04-1.352.05-2.102a4.508 4.508 0 0 1 .82-2.033c.858-1.214 2.342-1.967 3.853-1.96l115.847.084 5.425.01c.881.002 1.752.003 2.61.006a4.734 4.734 0 0 1 2.524.633c1.52.859 2.374 2.58 2.267 4.169-.004 1.546-.007 3.045-.012 4.494l-.05 14.863-.026 5.42c.097 1.606-.627 2.92-1.45 3.63-.822.739-1.67.991-2.215 1.084-.557.091-.846.052-.846.052" fill="#E0E0E0" mask="url(#b)"/>
            <path fill="#E0E0E0" mask="url(#b)" d="M55.838 158.576H88.56v-2.414H55.838zM55.838 172.222h57.334v-2.414H55.838zM55.838 165.233h83.088v-2.415H55.838zM39.427 123.324c1.514-.626 2.59-2.161 2.6-3.971.009-2.372-1.815-4.303-4.075-4.313-2.258-.01-4.1 1.904-4.11 4.275-.007 1.827 1.078 3.382 2.609 4.009-3.444.51-4.914 2.754-5.542 4.683a9.32 9.32 0 0 0 5.677 3.011l2.521.011a9.316 9.316 0 0 0 5.765-3.034c-.618-1.937-2.06-4.168-5.445-4.671"/>
            <path d="M37.885 131.118c-.005-.07.829-.027 2.244-.396a9.288 9.288 0 0 0 4.988-3.345c.765-1.018 1.413-2.298 1.67-3.77.247-1.462.195-3.11-.416-4.674a8.32 8.32 0 0 0-1.235-2.245 8.432 8.432 0 0 0-1.92-1.873c-1.478-1.09-3.375-1.703-5.33-1.722-1.956.018-3.854.63-5.332 1.721a8.46 8.46 0 0 0-1.92 1.874 8.32 8.32 0 0 0-1.236 2.245c-.61 1.564-.664 3.213-.416 4.675.257 1.472.906 2.752 1.67 3.77a9.292 9.292 0 0 0 4.988 3.344c1.416.369 2.25.327 2.245.396 0 .02-.205.028-.597.028-.391.007-.974-.043-1.703-.206-1.438-.306-3.58-1.198-5.262-3.315-.821-1.048-1.526-2.382-1.818-3.93-.284-1.536-.247-3.277.386-4.943a8.75 8.75 0 0 1 1.294-2.391 8.924 8.924 0 0 1 2.03-2.002c1.566-1.164 3.59-1.825 5.67-1.842 2.082.017 4.104.678 5.67 1.843a8.92 8.92 0 0 1 2.03 2 8.75 8.75 0 0 1 1.294 2.392c.632 1.666.67 3.406.386 4.943-.293 1.548-.997 2.88-1.818 3.93-1.682 2.117-3.825 3.009-5.263 3.315-.729.163-1.311.213-1.703.206-.391 0-.596-.009-.596-.028" fill="#E0E0E0" mask="url(#b)"/>
            <path d="M146.752 139.375c-.001-.024.29-.001.835-.11a4.428 4.428 0 0 0 2.145-1.111c.79-.714 1.467-1.97 1.356-3.545l-.026-5.42-.05-14.864-.012-4.494a4.199 4.199 0 0 0-2.105-3.853c-1.387-.864-3.196-.486-4.945-.567l-5.425.01-115.847.085c-1.325-.005-2.621.652-3.376 1.717a3.961 3.961 0 0 0-.717 1.779c-.08.619-.032 1.346-.045 2.022l-.001 8.189.005 15.994c.042 1.232.7 2.408 1.708 3.115.499.36 1.08.603 1.687.705.592.104 1.259.057 1.914.069 2.618 0 5.21.002 7.776.003l15.055.01 52.081.062 35.112.092c4.133.023 7.346.04 9.547.054l2.482.028c.56.01.846.03.846.03s-.287.02-.846.03l-2.482.028-9.547.054-35.112.091c-14.83.018-32.481.04-52.08.062a496551.924 496551.924 0 0 1-22.832.014c-.65-.014-1.305.043-2.013-.076a4.605 4.605 0 0 1-1.922-.801c-1.149-.803-1.898-2.142-1.947-3.545l-.015-16.02-.001-8.188c.016-.696-.04-1.351.05-2.102a4.508 4.508 0 0 1 .82-2.032c.858-1.214 2.342-1.967 3.853-1.96 45.231.033 86.183.061 115.847.084l5.425.01 2.61.005a4.734 4.734 0 0 1 2.524.633c1.52.86 2.374 2.58 2.267 4.17-.004 1.545-.007 3.044-.012 4.493l-.05 14.863-.026 5.421c.097 1.605-.627 2.92-1.45 3.629-.822.74-1.67.992-2.215 1.085-.557.09-.846.052-.846.052" fill="#E0E0E0" mask="url(#b)"/>
            <path fill="#E0E0E0" mask="url(#b)" d="M55.838 116.512H88.56v-2.414H55.838zM55.838 130.158h57.334v-2.415H55.838zM55.838 123.168h83.088v-2.414H55.838z"/>
            <path d="M40.552 83.473c1.514-.625 2.59-2.16 2.6-3.97.009-2.373-1.815-4.303-4.075-4.313-2.258-.01-4.099 1.904-4.11 4.275-.007 1.826 1.078 3.381 2.609 4.008-3.444.51-4.913 2.754-5.542 4.684a9.32 9.32 0 0 0 5.677 3.01l2.521.012a9.316 9.316 0 0 0 5.765-3.035c-.617-1.937-2.06-4.167-5.445-4.671" fill="#263238" mask="url(#b)"/>
            <path d="M39.01 91.267c-.005-.069.829-.027 2.244-.395a9.288 9.288 0 0 0 4.988-3.345c.765-1.019 1.413-2.298 1.67-3.77.247-1.463.195-3.11-.416-4.674a8.32 8.32 0 0 0-1.235-2.245 8.432 8.432 0 0 0-1.92-1.873c-1.478-1.09-3.375-1.704-5.33-1.723-1.955.018-3.854.631-5.332 1.722a8.46 8.46 0 0 0-1.92 1.874 8.32 8.32 0 0 0-1.236 2.245c-.61 1.564-.664 3.212-.416 4.674.258 1.473.906 2.752 1.67 3.77a9.292 9.292 0 0 0 4.988 3.345c1.416.368 2.25.326 2.245.395 0 .02-.205.029-.596.029-.392.006-.975-.043-1.704-.206-1.438-.307-3.58-1.199-5.262-3.315-.821-1.049-1.526-2.383-1.818-3.93-.284-1.537-.247-3.278.386-4.944a8.75 8.75 0 0 1 1.294-2.39 8.924 8.924 0 0 1 2.03-2.002c1.567-1.165 3.59-1.826 5.671-1.842 2.081.016 4.103.677 5.67 1.843a8.92 8.92 0 0 1 2.029 2 8.75 8.75 0 0 1 1.294 2.391c.632 1.666.67 3.406.386 4.944-.293 1.547-.997 2.88-1.818 3.93-1.682 2.116-3.825 3.008-5.262 3.315-.73.163-1.312.212-1.704.206-.391 0-.596-.01-.596-.029" fill="#263238" mask="url(#b)"/>
            <path d="M147.877 99.524c-.001-.023.29-.001.835-.11a4.428 4.428 0 0 0 2.145-1.11c.79-.715 1.468-1.971 1.356-3.545l-.026-5.421-.05-14.863-.012-4.495a4.199 4.199 0 0 0-2.105-3.853c-1.387-.863-3.196-.486-4.944-.567l-5.426.01-115.847.086c-1.325-.006-2.621.652-3.376 1.716a3.961 3.961 0 0 0-.717 1.78c-.08.618-.031 1.345-.045 2.022l-.001 8.188c.001 5.415.003 10.752.006 15.994.041 1.232.698 2.408 1.707 3.115.499.36 1.08.604 1.687.706.592.104 1.259.056 1.914.068l7.776.004 15.055.01 52.081.061c14.815.04 26.805.07 35.113.092 4.132.024 7.345.041 9.546.055l2.482.027c.56.01.846.03.846.03s-.287.02-.846.03l-2.482.029-9.546.053-35.113.092-52.08.062a499807.39 499807.39 0 0 1-22.832.013c-.65-.013-1.305.043-2.013-.075a4.605 4.605 0 0 1-1.922-.802c-1.148-.802-1.898-2.142-1.947-3.544l-.015-16.02-.001-8.188c.016-.696-.04-1.352.05-2.102a4.508 4.508 0 0 1 .82-2.033c.858-1.214 2.342-1.967 3.853-1.96l115.847.084 5.426.01 2.61.005a4.734 4.734 0 0 1 2.523.634c1.52.859 2.374 2.58 2.267 4.168-.004 1.547-.007 3.046-.012 4.495l-.05 14.863-.026 5.42c.097 1.606-.627 2.92-1.45 3.63-.822.739-1.67.991-2.215 1.084-.557.09-.846.052-.846.052" fill="#455A64" mask="url(#b)"/>
            <path fill="#263238" mask="url(#b)" d="M56.963 76.661h32.723v-2.414H56.963zM56.963 90.307h57.334v-2.414H56.963zM56.963 83.318h83.088v-2.415H56.963z"/>
        </g>
        <g fill="#263238" fill-rule="nonzero">
            <path d="m262.526 218-1.107-1.908h-.825V218h-1.084v-5.497h2.2c.507 0 .94.178 1.295.534.356.356.534.785.534 1.288 0 .34-.097.655-.29.946-.194.29-.45.51-.77.656l1.217 2.073h-1.17zm-1.932-4.484v1.625h1.115a.69.69 0 0 0 .526-.239.823.823 0 0 0 .22-.577.81.81 0 0 0-.22-.574.695.695 0 0 0-.526-.235h-1.115zM264.817 216.453c.136.492.505.738 1.107.738.388 0 .68-.13.88-.393l.816.472c-.387.56-.958.84-1.712.84-.649 0-1.17-.196-1.562-.589-.393-.393-.59-.887-.59-1.484 0-.592.194-1.085.582-1.48.387-.396.885-.593 1.492-.593.576 0 1.05.198 1.425.596.375.398.562.89.562 1.477 0 .13-.013.27-.04.416h-2.96zm-.016-.785h2.003c-.058-.267-.177-.466-.358-.597a1.024 1.024 0 0 0-.616-.197c-.272 0-.497.07-.675.209a.995.995 0 0 0-.354.585zM269.157 213.602a.605.605 0 0 1-.443-.184.609.609 0 0 1 0-.876.599.599 0 0 1 .443-.188.59.59 0 0 1 .436.188.609.609 0 0 1 0 .876.596.596 0 0 1-.436.184zm-.51 4.477v-4.006h1.013v4.006c0 .575-.14.996-.42 1.26-.28.264-.71.378-1.292.342v-.974c.24.015.418-.026.53-.126.113-.1.169-.267.169-.502zM271.511 216.453c.136.492.505.738 1.107.738.388 0 .68-.13.88-.393l.817.472c-.388.56-.958.84-1.712.84-.65 0-1.17-.196-1.563-.589-.393-.393-.59-.887-.59-1.484 0-.592.195-1.085.582-1.48.387-.396.885-.593 1.492-.593.576 0 1.051.198 1.425.596.375.398.562.89.562 1.477 0 .13-.013.27-.04.416h-2.96zm-.016-.785h2.003c-.058-.267-.177-.466-.357-.597a1.024 1.024 0 0 0-.617-.197c-.272 0-.497.07-.675.209a.995.995 0 0 0-.354.585zM277.092 218.11c-.591 0-1.085-.199-1.48-.597-.395-.398-.593-.89-.593-1.476 0-.587.198-1.079.593-1.477.395-.398.889-.596 1.48-.596.383 0 .73.091 1.045.274.314.184.552.43.714.739l-.871.51a.889.889 0 0 0-.358-.385 1.038 1.038 0 0 0-.538-.141c-.303 0-.554.1-.753.302-.2.202-.299.46-.299.774 0 .309.1.564.299.765.199.202.45.303.753.303.205 0 .387-.046.546-.138a.866.866 0 0 0 .358-.38l.88.502a2.013 2.013 0 0 1-1.775 1.02zM281.684 215.047h-.887v1.634c0 .136.034.235.102.298a.469.469 0 0 0 .298.106c.131.008.293.007.487-.004V218c-.696.079-1.187.013-1.472-.196-.286-.21-.428-.584-.428-1.123v-1.634h-.684v-.974h.684v-.793l1.013-.306v1.1h.887v.973z"/>
        </g>
        <g>
            <path d="M188.807 82.508c1.515-.626 2.591-2.16 2.6-3.97.01-2.373-1.815-4.304-4.075-4.314-2.258-.01-4.099 1.904-4.109 4.276-.008 1.826 1.077 3.381 2.608 4.008-3.444.51-4.913 2.754-5.542 4.683a9.32 9.32 0 0 0 5.677 3.011l2.522.011a9.316 9.316 0 0 0 5.765-3.034c-.618-1.937-2.06-4.167-5.446-4.671" fill="#263238"/>
            <path d="M187.265 90.302c-.004-.069.83-.027 2.245-.395a9.288 9.288 0 0 0 4.987-3.346c.765-1.018 1.413-2.298 1.671-3.77.246-1.462.195-3.11-.416-4.673a8.32 8.32 0 0 0-1.236-2.245 8.432 8.432 0 0 0-1.92-1.873c-1.477-1.09-3.374-1.704-5.33-1.723-1.955.018-3.853.631-5.332 1.722a8.46 8.46 0 0 0-1.92 1.874 8.32 8.32 0 0 0-1.235 2.245c-.611 1.564-.664 3.212-.417 4.674.258 1.472.906 2.752 1.671 3.77a9.292 9.292 0 0 0 4.988 3.345c1.415.368 2.249.326 2.244.395 0 .02-.205.029-.596.029-.392.006-.974-.044-1.704-.206-1.437-.307-3.58-1.2-5.262-3.316-.821-1.048-1.525-2.382-1.818-3.93-.283-1.536-.246-3.277.386-4.943a8.75 8.75 0 0 1 1.294-2.391 8.924 8.924 0 0 1 2.03-2.001c1.567-1.165 3.59-1.826 5.671-1.842 2.082.016 4.104.677 5.67 1.843a8.92 8.92 0 0 1 2.03 2 8.75 8.75 0 0 1 1.293 2.391c.633 1.666.67 3.406.386 4.944-.292 1.547-.997 2.88-1.818 3.93-1.682 2.116-3.824 3.008-5.262 3.315-.73.162-1.312.212-1.704.206-.391 0-.596-.01-.596-.03" fill="#455A64"/>
            <path d="M342.749 231.394c-.003-.023.395 0 1.137-.11.73-.11 1.85-.378 2.922-1.112 1.074-.713 1.998-1.97 1.846-3.543-.01-1.573-.022-136.22-.036-138.256l-.067-14.863a4590.24 4590.24 0 0 1-.016-4.495c.125-1.508-.96-3.06-2.868-3.853-1.889-.863-4.353-.486-6.734-.567l-7.388.01-157.775.085c-1.807-.005-3.571.652-4.599 1.717a3.454 3.454 0 0 0-.976 1.78c-.11.618-.043 1.345-.062 2.022l-.001 8.188c.002 5.415.004 143.587.007 148.83.057 1.232.951 2.407 2.327 3.115.679.36 1.47.603 2.297.705.805.104 1.713.056 2.607.068l10.59.004 20.503.01 70.932.062 47.819.091c5.629.024 10.004.041 13.002.055l3.38.027a34.1 34.1 0 0 1 1.153.03s-.39.02-1.153.03l-3.38.029-13.002.053-47.82.092-70.931.062a925113.607 925113.607 0 0 1-31.093.013c-.887-.013-1.778.043-2.743-.075a7.629 7.629 0 0 1-2.616-.802c-1.565-.802-2.586-2.141-2.653-3.544-.007-5.251-.014-143.431-.02-148.855-.002-2.711-.002-5.44-.002-8.188.022-.697-.055-1.352.069-2.102a3.955 3.955 0 0 1 1.116-2.033c1.17-1.214 3.19-1.967 5.249-1.96l157.775.084 7.388.01 3.555.005c1.194-.026 2.426.193 3.437.634 2.07.859 3.233 2.58 3.087 4.168l-.016 4.495c-.026 5.789-.05 10.778-.067 14.863-.014 2.037-.026 136.683-.037 138.256.132 1.605-.854 2.918-1.974 3.628-1.12.74-2.274.992-3.016 1.085-.758.091-1.153.052-1.153.052" fill="#263238"/>
            <mask id="d" fill="#fff">
                <use xlink:href="#c"/>
            </mask>
            <path fill="#263238" mask="url(#d)" d="M205.218 75.696h32.724v-2.414h-32.724zM205.218 89.342h57.334v-2.415h-57.334zM205.218 82.352h83.09v-2.414h-83.09zM211.234 106.811c0 .16-7.239.288-16.167.288-8.93 0-16.168-.129-16.168-.288"/>
            <path d="M239.652 222.965h-54.826c-3.926 0-7.11-3.132-7.11-6.995 0-3.865 3.184-6.996 7.11-6.996h54.826c3.927 0 7.11 3.131 7.11 6.996 0 3.863-3.183 6.995-7.11 6.995" fill="#80D363" mask="url(#d)"/>
        </g>
        <g fill="#FFF" fill-rule="nonzero">
            <path d="M198.387 218.11c-.544 0-1.002-.122-1.374-.365a1.953 1.953 0 0 1-.785-.994l.926-.542c.215.56.637.84 1.265.84.303 0 .526-.054.667-.164a.507.507 0 0 0 .212-.416.505.505 0 0 0-.259-.452c-.173-.107-.482-.224-.927-.35a5.758 5.758 0 0 1-.624-.22 2.692 2.692 0 0 1-.51-.294c-.17-.123-.3-.279-.389-.467a1.53 1.53 0 0 1-.134-.66c0-.497.177-.894.53-1.19.354-.295.78-.443 1.277-.443.445 0 .836.109 1.174.326.337.217.6.52.789.907l-.911.526c-.22-.471-.57-.707-1.052-.707-.225 0-.402.051-.53.153a.484.484 0 0 0-.193.397.5.5 0 0 0 .216.42c.144.107.42.224.829.35.167.052.294.092.38.121.087.029.205.074.354.134.15.06.264.116.345.169.082.052.175.123.28.212.104.089.184.18.239.274a1.543 1.543 0 0 1 .2.778c0 .508-.185.91-.554 1.21-.369.298-.85.447-1.44.447zM203.266 213.964c.43 0 .784.143 1.064.431.28.288.42.686.42 1.194V218h-1.013v-2.285c0-.262-.07-.462-.212-.601-.141-.139-.33-.208-.565-.208-.262 0-.472.081-.629.243-.157.163-.235.406-.235.73V218h-1.013v-5.497h1.013v2.01c.246-.366.636-.55 1.17-.55zM209 217.513a2.022 2.022 0 0 1-1.476.597c-.581 0-1.072-.2-1.472-.6-.401-.401-.601-.892-.601-1.473 0-.581.2-1.072.6-1.473.401-.4.892-.6 1.473-.6.581 0 1.073.2 1.476.6.403.4.605.892.605 1.473 0 .58-.202 1.073-.605 1.476zm-2.238-.699c.204.204.458.306.762.306s.558-.102.762-.306c.204-.204.306-.463.306-.777s-.102-.574-.306-.778a1.034 1.034 0 0 0-.762-.306c-.304 0-.556.102-.758.306a1.06 1.06 0 0 0-.302.778c0 .314.1.573.298.777zM211.374 214.749c.094-.251.25-.44.467-.566.217-.125.46-.188.726-.188v1.13a1.193 1.193 0 0 0-.828.19c-.244.162-.365.431-.365.808V218h-1.013v-3.927h1.013v.676zM215.662 215.047h-.887v1.634c0 .136.034.235.102.298a.469.469 0 0 0 .299.106c.13.008.293.007.486-.004V218c-.696.079-1.187.013-1.472-.196-.285-.21-.428-.584-.428-1.123v-1.634h-.683v-.974h.683v-.793l1.013-.306v1.1h.887v.973zM216.355 218v-5.733h1.013V218zM218.839 213.602a.596.596 0 0 1-.436-.184.609.609 0 0 1 0-.876.59.59 0 0 1 .436-.188c.172 0 .32.062.443.188a.609.609 0 0 1 0 .876.605.605 0 0 1-.443.184zm-.503 4.398v-3.927h1.013V218h-1.013zM221.19 215.189c0 .104.069.19.207.255.139.065.308.123.507.173.199.05.398.112.597.188.199.076.367.203.506.38.139.179.208.401.208.668 0 .404-.15.714-.451.931-.301.217-.677.326-1.127.326-.806 0-1.356-.312-1.65-.935l.88-.494c.115.34.372.51.77.51.361 0 .542-.112.542-.338 0-.104-.07-.19-.208-.255a2.97 2.97 0 0 0-.507-.176 5.296 5.296 0 0 1-.597-.197 1.225 1.225 0 0 1-.506-.373.98.98 0 0 1-.208-.64c0-.387.142-.692.428-.915.285-.222.64-.333 1.064-.333.319 0 .61.071.871.215.262.144.469.35.62.617l-.863.471a.646.646 0 0 0-.628-.4c-.131 0-.24.028-.326.086a.27.27 0 0 0-.13.236zM225.88 215.047h-.888v1.634c0 .136.034.235.102.298a.469.469 0 0 0 .298.106c.131.008.294.007.487-.004V218c-.696.079-1.187.013-1.472-.196-.286-.21-.428-.584-.428-1.123v-1.634h-.683v-.974h.683v-.793l1.013-.306v1.1h.887v.973z"/>
        </g>
        <g>
            <path d="M268.23 145.007c0 .16-20.123.288-44.942.288-24.828 0-44.948-.129-44.948-.288 0-.16 20.12-.288 44.948-.288 24.819 0 44.942.128 44.942.288M303.04 122.868c0 .159-27.916.287-62.346.287-34.442 0-62.353-.128-62.353-.287 0-.16 27.91-.288 62.353-.288 34.43 0 62.347.128 62.347.288M276.251 178.216c0 .159-21.92.287-48.953.287-27.043 0-48.957-.128-48.957-.287 0-.16 21.914-.288 48.957-.288 27.033 0 48.953.128 48.953.288M261.085 189.532c0 .16-18.344.288-40.967.288-22.63 0-40.97-.129-40.97-.288 0-.16 18.34-.288 40.97-.288 22.623 0 40.967.129 40.967.288M261.085 134.184c0 .16-18.344.288-40.967.288-22.63 0-40.97-.129-40.97-.288 0-.16 18.34-.288 40.97-.288 22.623 0 40.967.129 40.967.288M261.085 156.323c0 .16-18.344.288-40.967.288-22.63 0-40.97-.128-40.97-.288 0-.16 18.34-.288 40.97-.288 22.623 0 40.967.129 40.967.288M141.473 365.64c.076-13.126 8.804-21.516 8.804-21.516 2.663 10.797-8.804 21.517-8.804 21.517M154.256 359.55c12.265-5.166 23.566-.64 23.566-.64-8.998 6.707-23.566.64-23.566.64M155.71 352.553c-2.13-10.144 3.206-18.021 3.206-18.021 3.858 7.908-3.205 18.021-3.205 18.021M106.283 327.313c18.684 4.894 28.706 20.876 28.706 20.876-15.97.011-28.706-20.876-28.706-20.876M136.125 334.846c-.971-19.814 18.712-42.241 18.712-42.241-2.972 24.603-18.712 42.241-18.712 42.241M136.028 278.414c.836 16.07-7.077 28.382-7.077 28.382-2.78-12.745 7.077-28.382 7.077-28.382M128.439 318.671c-14.724-1.554-22.735-15.968-22.735-15.968 17.807 4.91 22.735 15.968 22.735 15.968M96.679 379.25c11.252-7.053 23.151-4.386 23.151-4.386-7.777 8.052-23.151 4.387-23.151 4.387M134.835 385.754c-2.791 7.573-9.894 10.966-9.894 10.966.629-6.685 9.894-10.966 9.894-10.966M132.942 383.621c-8.375 5.072-17.61 3.092-17.61 3.092 5.67-5.813 17.61-3.092 17.61-3.092" fill="#263238"/>
            <path d="M140.47 410.294c-.011 0-.021-.1-.03-.294l-.017-.865c-.003-.815-.005-1.923-.007-3.32.013-1.442.013-3.205-.03-5.252-.034-2.048-.039-4.378-.15-6.953-.126-5.152-.498-11.278-1.033-18.068a375.99 375.99 0 0 0-2.59-22.01c-2.327-15.562-5.506-29.47-8.061-39.463-1.288-4.994-2.374-9.028-3.166-11.803l-.879-3.206-.214-.838c-.044-.19-.06-.289-.05-.292.01-.003.05.09.116.273l.275.82 1 3.173c.868 2.755 2.023 6.773 3.37 11.76 2.674 9.973 5.932 23.89 8.264 39.482a348.368 348.368 0 0 1 2.542 22.056c.502 6.805.826 12.944.894 18.104.081 2.58.053 4.914.052 6.964a125.92 125.92 0 0 1-.084 5.256c-.048 1.398-.087 2.506-.117 3.32-.019.346-.033.63-.047.863-.013.195-.027.293-.038.293" fill="#263238"/>
            <path d="M113.445 368.352c.104-.149 6.055 3.69 13.292 8.57 7.239 4.882 13.022 8.959 12.92 9.107-.104.148-6.055-3.689-13.293-8.571-7.238-4.88-13.022-8.958-12.919-9.106M139.656 370.463c-.03-.033.297-.382.914-.984l2.65-2.512 8.85-8.167c3.396-3.132 6.467-5.964 8.85-8.164 1.05-.967 1.943-1.792 2.683-2.475.639-.579 1.008-.885 1.04-.854.033.033-.274.398-.858 1.032-.58.639-1.451 1.531-2.537 2.626-2.18 2.183-5.261 5.125-8.727 8.31a401.209 401.209 0 0 1-8.985 8.032 130.747 130.747 0 0 1-2.793 2.359c-.67.546-1.056.83-1.087.797" fill="#263238"/>
            <path d="M94.54 358.961s15.217-.285 21.654 11.5c0 0-12.98.42-21.654-11.5M115.323 352.952s12.39 8.695 10.418 21.932c0 0-10.676-7.275-10.418-21.932M180.585 331.526s-4.889 16.76-20.424 19.77c0 0 3.97-14.356 20.424-19.77M108.564 269.223s19.414 12.458 17.265 32.725c0 0-16.715-10.407-17.265-32.725M173.179 380.048c.024.038-.426.391-1.26.995a99.798 99.798 0 0 0-3.484 2.62 87.005 87.005 0 0 0-10.513 9.717 86.239 86.239 0 0 0-8.695 11.327 97.595 97.595 0 0 0-2.273 3.687c-.522.881-.83 1.36-.871 1.34-.04-.021.19-.538.643-1.46.446-.925 1.16-2.23 2.102-3.807 1.88-3.158 4.805-7.352 8.603-11.522 3.805-4.16 7.729-7.47 10.72-9.647 1.492-1.091 2.735-1.93 3.622-2.464.882-.542 1.38-.823 1.406-.786M156.285 392.492c-2.477-12.898 4.457-22.776 4.457-22.776 2.088 14.203-4.457 22.776-4.457 22.776M169.349 385.485c8.37-4.831 16.946-2.583 16.946-2.583-9.374 4.89-16.946 2.583-16.946 2.583" fill="#263238"/>
            <path fill="#AE2F2F" d="m112.163 411.853 7.284 47.096h42.317l9.822-46.415z"/>
            <path d="M107.307 402.527v8.813c0 1.916 1.579 3.469 3.526 3.469h61.28c1.947 0 3.526-1.553 3.526-3.47v-8.812h-68.332z" fill="#AE2F2F"/>
            <path d="M170.349 414.976c0 .16-13.402.288-29.93.288-16.533 0-29.932-.129-29.932-.288 0-.16 13.399-.288 29.932-.288 16.528 0 29.93.128 29.93.288M288.542 459H278.47l-3.735-44.614h11.862zM375.84 459h10.074l3.735-44.614h-11.862z" fill="#263238"/>
            <path d="m396.57 420.034-129.652 2.995-3.947-82.392c-.386-8.068 6.158-14.817 14.366-14.817h110.466c8.335 0 14.925 6.95 14.347 15.13l-5.58 79.084z" fill="#E0E0E0"/>
            <path d="M403.218 340.354c0 .01-.123.02-.362.03-.272.01-.621.019-1.062.032l-4.088.06-15.03.053c-12.69.021-30.223-.118-49.574.322-19.362.634-36.91.526-49.597.337-6.346-.1-11.48-.222-15.027-.326l-4.084-.138-1.061-.05c-.24-.015-.361-.027-.361-.037 0-.01.122-.018.362-.023a321.9 321.9 0 0 0 1.063-.006l4.086.03 15.026.141c12.69.086 30.22.129 49.578-.503 19.366-.442 36.901-.237 49.591-.154 6.316.055 11.44.1 15.028.13l4.086.048 1.064.026c.24.008.362.018.362.028M310.265 327.108c.036.193-4.063.262-8.418 2.486-4.388 2.165-6.849 5.39-6.986 5.248-.052-.038.48-.886 1.606-2.05 1.12-1.162 2.888-2.59 5.113-3.712 2.23-1.115 4.442-1.685 6.056-1.895 1.619-.215 2.629-.14 2.629-.077" fill="#263238"/>
            <path d="M293.64 325.82c3.837 4.219 10.113 6.068 15.801 6.92 10.248 1.532 20.735 2.356 30.952.644 6.547-1.097 13.03-3.234 19.656-2.786 6.781.458 13.594 3.604 20.133 1.78 3.506-.979 6.567-3.41 8.277-6.577.546-1.008.886-2.422 0-3.161-.447-.374-1.427.924-2.014.88-30.716-2.308-62.075 4.417-92.806 2.3M372.728 345.62c-.546 2.802.836 5.69 2.854 7.738 2.017 2.05 4.615 3.43 7.123 4.862 4.165 2.378 8.321 5.102 10.928 9.086 4.952 7.57 3.12 17.5 5.216 26.261 0 0 1.746-37.803 1.385-36.851" fill="#000"/>
            <path d="M333.612 95.05c4.575 4.493 6.68 11.287 5.431 17.526-.607 3.03-1.882 6.423-.14 8.992 1.725 2.543 5.666 2.932 7.3 5.532 1.924 3.062-.467 7.01-.075 10.59.368 3.36 3.587 6.178 7.022 6.144a28.591 28.591 0 0 1-14.63 4.33l-3.306-5.37c1.27 1.894.55 4.594-1.09 6.187-1.641 1.594-3.962 2.297-6.226 2.726-10.816 2.046-22.537-1.249-30.622-8.609" fill="#263238"/>
            <path d="M271.93 115.308c1.059-2.255 2.626-4.276 3.438-6.629 1.748-5.054-.121-11.188 2.993-15.56 2.218-3.11 6.29-4.289 10.088-4.975 3.798-.686 7.846-1.172 10.896-3.503 2.237-1.71 3.699-4.251 5.93-5.968 3.18-2.446 7.496-2.9 11.526-2.679 4.14.227 8.342 1.108 11.824 3.32 3.482 2.213 6.15 5.919 6.33 9.993.089 1.986-.4 4.002 0 5.951.44 2.144 1.897 3.94 2.68 5.986 1.66 4.324-.159 9.675-4.128 12.145l-32.501 32.586c-6.19 1.517-20.23-2.81-24.295-7.647-4.065-4.836-7.456-17.323-4.781-23.02" fill="#263238"/>
            <path d="M333.306 108.748c-.189-8.274-5.33-18.622-13.725-18.085l-26.366 5.45c-2.551.164-4.55 2.22-4.603 4.734l.245 62.034-.182.031s5.186 17.712 22.666 13.103c3.467-.914 5.187-4.53 6.03-8.287l.175.03.074-1.297c.759-4.345.472-8.497.472-8.497.265-4.997.35-7.047.35-7 0 0 10.79-1.324 13.576-14.993 1.386-6.798 1.498-18.03 1.288-27.223" fill="#FFBE9D"/>
            <path d="M311.883 120.121c-.004.934-.812 1.699-1.802 1.712-.989.012-1.788-.732-1.783-1.665.005-.933.812-1.7 1.8-1.713.991-.012 1.79.733 1.785 1.666M330.166 120.121c-.004.934-.812 1.699-1.802 1.712-.989.012-1.788-.732-1.783-1.665.005-.932.812-1.7 1.8-1.713.991-.012 1.79.733 1.785 1.666M331.314 114.75c-.231.297-1.762-.922-3.868-.866-2.104.022-3.6 1.3-3.84 1.01-.118-.128.11-.661.76-1.238.64-.574 1.75-1.145 3.061-1.17 1.312-.023 2.436.504 3.092 1.054.67.553.91 1.076.795 1.21M311.843 114.706c-.279.267-1.767-1.084-4.005-1.248-2.234-.199-3.965.89-4.187.582-.109-.137.188-.633.946-1.127.744-.494 1.983-.934 3.377-.822 1.393.115 2.527.746 3.161 1.352.646.609.843 1.144.708 1.263M318.034 128.443c-.005-.108 1.203-.264 3.157-.431.495-.03.965-.109 1.062-.435.13-.347-.054-.877-.27-1.45l-1.305-3.75c-1.807-5.337-3.094-9.718-2.876-9.787.22-.07 1.862 4.2 3.67 9.536.433 1.315.848 2.57 1.242 3.77.164.557.46 1.196.178 1.912-.148.358-.52.606-.84.676-.32.083-.597.077-.841.082-1.96.026-3.174-.014-3.177-.123" fill="#263238"/>
            <path d="M318.442 150.964s-9.431.222-18.524-5.661c0 0 4.154 9.631 18.202 8.902l.322-3.241z" fill="#EB996E"/>
            <path d="M317.03 132.987c-.658-.931-1.852-1.475-3.065-1.395-.842.055-1.704.418-2.24 1.07-.537.65-.682 1.599-.247 2.256.492.742 1.573.951 2.505.731.931-.221 1.748-.786 2.526-1.35.214-.157.434-.32.573-.54.14-.22.18-.513.027-.707" fill="#FF725E"/>
            <path d="M312.3 129.53c.316-.005.235 2.056 1.967 3.59 1.73 1.54 3.972 1.396 3.976 1.685.024.13-.514.381-1.457.369-.926-.006-2.263-.352-3.324-1.29-1.057-.94-1.477-2.156-1.515-3.005-.043-.865.21-1.366.354-1.348M312.427 108.273c-.212.509-2.129.187-4.403.365-2.279.134-4.132.713-4.413.238-.125-.227.213-.7.973-1.17.752-.47 1.938-.898 3.304-.993 1.365-.092 2.6.17 3.412.534.818.362 1.22.784 1.127 1.026M330.102 108.962c-.406.415-1.907-.092-3.732-.186-1.822-.15-3.386.155-3.724-.31-.147-.226.115-.647.807-1.03.683-.379 1.811-.667 3.066-.584 1.253.084 2.324.518 2.942.986.628.468.821.92.641 1.124" fill="#263238"/>
            <path d="M287.37 97.425c1.512-1.79 3.93-2.52 6.221-3.098a130.6 130.6 0 0 1 30.258-3.96c1.008 2.173-.479 4.801-2.543 6.059-2.064 1.257-4.559 1.56-6.917 2.13-2.358.57-4.827 1.581-6.018 3.662-1.268 2.213-.763 5.067-1.916 7.34-1.985 3.911-7.936 4.558-9.897 8.479-1.483 2.966-.056 6.472.011 9.778.076 3.745-1.778 7.481-4.825 9.726-2.405 1.772-5.5 2.563-8.483 2.274l2.143-35.398c.148-2.458.368-5.098 1.967-6.992" fill="#263238"/>
            <path d="M259.831 124.253c2.08-1.441 4.61-2.602 5.644-4.89 1.506-3.33-.83-7.72 1.363-10.657 2.002-2.679 6.867-1.968 8.76-4.724 1.476-2.151.337-4.339 1.035-6.298.698-1.958 3.811-3.387 5.864-2.906l13.493 25.08c.579 7.957 1.603 12.276-.64 16.63-1.23 2.39-2.735 4.683-3.415 7.276-.68 2.593-.354 5.66 1.65 7.471-9.816-.376-18.332-6.44-26.175-12.258-2.768-2.053-5.536-4.105-8.302-6.158-.864-.641-1.762-1.322-2.21-2.292-1.052-2.278.854-4.833 2.933-6.274" fill="#263238"/>
            <path d="M256.445 118.61s-.223.211-.414.745c-.193.523-.283 1.413.134 2.422a3.661 3.661 0 0 0 1.09 1.431c.53.41 1.23.706 2.013.785 1.547.196 3.48-.512 4.578-2.169a6.378 6.378 0 0 0 1.043-2.837c.124-1.056-.024-2.16-.306-3.241-.525-2.16-1.684-4.34-1.425-6.764.113-1.175.546-2.418 1.522-3.16.97-.763 2.335-.82 3.666-.676 1.338.11 2.77.446 4.263.058a3.697 3.697 0 0 0 1.903-1.235c.484-.596.785-1.305.964-2.028.358-1.472.172-2.926.157-4.296a9.26 9.26 0 0 1 .697-3.918c1.016-2.434 2.982-4.349 5.226-5.32 2.258-1.006 4.713-.859 6.926-.734 2.227.141 4.38.253 6.271-.242a13.013 13.013 0 0 0 4.682-2.193 12.722 12.722 0 0 0 2.747-2.74c1.254-1.733 1.521-2.902 1.521-2.902-.065-.033-.412 1.11-1.698 2.772a12.917 12.917 0 0 1-2.76 2.617 12.849 12.849 0 0 1-4.585 2.06c-1.828.452-3.914.325-6.148.164-2.21-.142-4.753-.33-7.167.725-2.376 1.014-4.45 3.015-5.533 5.585a9.828 9.828 0 0 0-.747 4.135c.018 1.405.186 2.82-.144 4.155-.3 1.332-1.163 2.535-2.467 2.857-1.286.347-2.684.05-4.055-.068-1.351-.142-2.91-.102-4.055.803-1.144.885-1.594 2.276-1.71 3.533-.127 1.28.112 2.54.465 3.668.34 1.14.745 2.206 1.026 3.26.283 1.049.43 2.092.326 3.079a6 6 0 0 1-.94 2.663c-.999 1.55-2.764 2.225-4.212 2.077a3.667 3.667 0 0 1-1.878-.686 3.47 3.47 0 0 1-1.053-1.307c-.424-.939-.378-1.788-.227-2.3.148-.525.332-.763.304-.778M358.271 136.198c-.09-.017.417.978-.332 2.498-.369.713-1.111 1.549-2.262 1.784-1.12.238-2.588-.216-3.455-1.373-.436-.569-.64-1.316-.597-2.101.04-.785.296-1.59.662-2.38.711-1.56 1.975-3.201 2.067-5.332.127-2.061-.679-4.28-2.298-5.874a9.299 9.299 0 0 0-2.843-1.921c-1.074-.483-2.256-.699-3.405-.89-1.155-.194-2.293-.357-3.323-.737-1.024-.37-1.917-1.012-2.426-1.904-.51-.887-.656-1.937-.607-2.94.048-1.014.289-1.986.605-2.923.627-1.866 1.431-3.658 1.543-5.497a8.438 8.438 0 0 0-1.182-4.851c-.793-1.352-1.918-2.252-2.854-3.002-.95-.752-1.76-1.398-2.33-2.017-1.17-1.23-1.277-2.235-1.351-2.198-.01.002-.003.06.021.172.03.11.05.284.138.492.143.426.458 1.031 1.026 1.68.558.657 1.363 1.34 2.291 2.112.92.775 1.98 1.664 2.71 2.96a8.087 8.087 0 0 1 1.058 4.618c-.12 1.732-.911 3.469-1.57 5.37-.328.95-.593 1.98-.649 3.057-.057 1.069.087 2.222.665 3.239.575 1.022 1.608 1.756 2.713 2.155 1.11.41 2.278.572 3.426.767 1.15.192 2.265.397 3.272.848a8.736 8.736 0 0 1 2.674 1.797c1.518 1.482 2.274 3.54 2.17 5.46-.058 1.95-1.236 3.528-1.972 5.169-.371.826-.638 1.687-.67 2.552-.039.86.208 1.722.712 2.355.997 1.277 2.607 1.733 3.848 1.443 1.273-.296 2.033-1.226 2.394-1.993a3.49 3.49 0 0 0 .326-1.938c-.07-.448-.195-.657-.195-.657" fill="#263238"/>
            <path d="m408.246 258.082-4.972-7.394-7.98-3.938-.299-.215a10.846 10.846 0 0 0-9.051-1.655c-3.25.85-7.585 1.91-11.347 2.542l-8.589-2.31V261.6l43.318-2.692-1.08-.827z" fill="#FFBE9D"/>
            <path d="M407.945 257.634c.046-.057-.657-.683-1.83-1.646a198.09 198.09 0 0 0-4.65-3.677c-.596-.455-1.17-.895-1.718-1.312l-.05-.039-.06-.01a150.04 150.04 0 0 0-4.422-.76c-1.101-.168-1.763-.238-1.774-.178-.012.06.627.241 1.711.497 1.085.255 2.615.585 4.385.943l-.11-.05 1.706 1.325a193.709 193.709 0 0 0 4.748 3.557c1.232.888 2.018 1.408 2.064 1.35M404.568 259.073c.072-.128-2.718-1.784-6.23-3.7l-1.52-.82-.052-.028-.058-.003c-3.18-.172-5.537-.216-5.545-.092-.008.124 2.335.377 5.512.605l-.11-.03 1.511.832c3.513 1.915 6.42 3.365 6.492 3.236" fill="#EB996E"/>
            <path d="M458.667 211.43a3.334 3.334 0 0 0-4.27.901l-34.889 46.49-55.204.736c-2.205.13-4.88 4.514-2.904 6.636l62.34-.838 35.99-49.199a3.218 3.218 0 0 0-1.063-4.727" fill="#E0E0E0"/>
            <path d="M458.667 211.43c.004-.006.096.044.276.148a3.245 3.245 0 0 1 1.206 4.01c-.352.73-.931 1.377-1.473 2.173-.563.78-1.176 1.63-1.84 2.546l-4.563 6.297-28.324 38.898-.075.104-.13.001c-17.956.253-38.92.546-61.21.858l-1.13.016-.129.002-.09-.096c-.565-.594-.792-1.427-.761-2.189.027-.771.253-1.506.587-2.174a6.352 6.352 0 0 1 1.338-1.793c.543-.498 1.264-.966 2.091-.963l8.527-.112 16.479-.213c10.702-.131 20.797-.256 30.059-.372l-.2.101 27.439-36.387 7.726-10.164a3.364 3.364 0 0 1 3.108-1.105c.77.147 1.09.413 1.09.413-.012.03-.347-.218-1.102-.335a3.289 3.289 0 0 0-2.977 1.126l-7.608 10.237c-6.592 8.827-15.99 21.41-27.27 36.51l-.073.1-.126.001-30.05.43-16.476.228-8.524.115c-.638-.009-1.218.36-1.714.81a5.769 5.769 0 0 0-1.212 1.628c-.604 1.184-.826 2.747.081 3.719l-.22-.094 1.13-.014 61.21-.789-.205.106 28.495-38.777 4.62-6.258 1.869-2.524c.547-.781 1.152-1.45 1.487-2.124a3.17 3.17 0 0 0-.428-3.287c-.507-.624-.932-.778-.908-.808" fill="#263238"/>
            <path d="M291.438 157.589c-2.976.326-7.127 2.211-9.277 4.261-3.509 3.346-6.057 7.926-7.427 11.971-1.843 5.44-1.016 26.9-1.016 33.117 0 6.217 1.606 29.57 2.4 33.456.795 3.885-.512 9.662-2.343 13.42-3.283 6.742 1.836 10.197 1.836 10.197l67.742-.5-.272-2.486c-.465-4.331 1.174-8.744-.503-12.774-1.754-4.222-3.722-10.892-3.116-18.677.865-11.102 4.237-18.682 2.167-25.123-3.16-9.827-13.591-32.173-26.196-41.718 0 0-9.939-2.094-12.186-2.869-5.116-1.763-7.821-2.713-11.809-2.275" fill="#80D363"/>
            <path d="m371.083 243.197-57.875-11.888-1.492-49.435s-2.024-20.138-12.284-22.01l-24.698 30.252c1.38 15.248.123 44.096 7.244 55.222 7.12 11.127 14.048 20.042 31.583 19.25 17.536-.79 56.188-1.155 56.188-1.155l1.334-20.236z" fill="#80D363"/>
            <path d="M313.323 231.5c.137.11-1.25 1.89-2.417 4.375-1.187 2.477-1.682 4.668-1.855 4.633-.147-.014.1-2.319 1.324-4.877 1.206-2.565 2.842-4.232 2.948-4.13" fill="#263238"/>
            <path d="M311.318 179.761c5.78 17.476 4.525 44.42 15.549 54.353l-13.658-2.805s.46-5.186.114-9.493c-1.107-13.816-1.242-27.867-2.005-42.055" fill="#000"/>
            <path d="M310.034 173.526s.484 1.339 1.015 3.967c.262 1.312.523 2.949.704 4.891.19 1.945.218 4.191.315 6.706l1.375 42.212-.187-.22c16.589 3.394 36.367 7.437 57.886 11.837l.245.051-.017.245-1.329 20.237-.018.266-.271.003-7.037.08c-10.059.122-19.879.272-29.36.474-4.741.1-9.398.22-13.956.366-4.54.115-9.048.538-13.41-.137-2.184-.267-4.28-.878-6.295-1.594-1.975-.817-3.872-1.768-5.554-2.987-3.408-2.383-6.053-5.46-8.349-8.533a104.674 104.674 0 0 1-3.197-4.674l-.75-1.16c-.235-.396-.444-.809-.664-1.21-.219-.403-.435-.804-.65-1.203l-.498-1.253c-1.31-3.325-2.07-6.675-2.585-9.88-1.082-6.417-1.41-12.292-1.695-17.435-.26-5.149-.377-9.586-.506-13.209a405.058 405.058 0 0 0-.349-8.343l-.136-2.166c-.028-.49-.027-.74-.027-.74s.04.247.087.734l.194 2.166c.139 1.905.307 4.716.46 8.34.163 3.624.313 8.06.605 13.2.315 5.136.672 11.003 1.775 17.385.526 3.188 1.296 6.513 2.597 9.783l.494 1.232.639 1.173c.217.392.42.792.652 1.183l.752 1.154a104.116 104.116 0 0 0 3.195 4.642c2.287 3.044 4.908 6.073 8.255 8.402 1.652 1.192 3.512 2.118 5.449 2.915 1.974.697 4.031 1.294 6.179 1.552 4.282.658 8.749.235 13.313.113 4.561-.153 9.22-.278 13.962-.38 9.484-.21 19.305-.365 29.366-.488l7.038-.077-.289.269c.46-6.945.91-13.76 1.34-20.237l.228.296-57.864-11.939-.182-.037-.005-.183-1.173-42.217c-.076-2.518-.085-4.761-.253-6.696a49.539 49.539 0 0 0-1.461-8.618 1.532 1.532 0 0 1-.053-.258" fill="#263238"/>
            <path fill="#FFBE9D" d="m402.93 364.53-8.592 62.285 22.479 3.626 15.99-55.266z"/>
            <path d="M334.772 268.829s95.88-8.97 102.989-2.56c7.108 6.412 13.032 20.399 10.662 25.061-2.37 4.663-7.7 20.398-7.7 20.398l-44.161-9.907-61.79-32.992z" fill="#263238"/>
            <path fill="#FFBE9D" d="m396.562 311.728-17.791 26.706 20.938 13.346 22.711-34.249z"/>
            <path d="M277.234 263.939s-8.293 37.299 5.33 52.452c13.626 15.153 33.765 15.153 54.497 12.239 20.732-2.914 69.951-3.927 69.951-3.927s-2.196 13.24-3.802 28.31c-1.61 15.108-1.938 24.595-1.938 24.595l30.812 2.528s17.165-51.41 19.807-61.589c2.639-10.165 1.749-23.856-7.383-28.93-7.736-4.3-68.766-20.95-97.981-23.424l-3.174-2.682-66.12.428z" fill="#263238"/>
            <path d="M422.085 312.323c.017.105-1.193.271-3.021.916-.916.313-1.967.791-3.08 1.408-1.101.64-2.258 1.434-3.36 2.4a21.3 21.3 0 0 0-2.772 3.04c-.739 1.028-1.33 2.007-1.741 2.872-.84 1.721-1.13 2.888-1.235 2.861-.04-.01.006-.305.125-.838.106-.535.353-1.29.733-2.191.372-.907.94-1.935 1.676-3.01a19.684 19.684 0 0 1 2.821-3.163 20.002 20.002 0 0 1 3.487-2.435c1.162-.609 2.26-1.06 3.215-1.33.951-.28 1.74-.444 2.291-.493.551-.061.855-.077.86-.037M418.424 281.279c-.14-.072.506-1.528 1.623-3.137 1.113-1.614 2.253-2.738 2.372-2.636.127.105-.794 1.375-1.888 2.96-1.098 1.582-1.961 2.89-2.107 2.813" fill="#455A64"/>
            <path d="M453.187 304.238c-.01.002-.04-.097-.09-.29l-.209-.863a42.454 42.454 0 0 0-.927-3.275c-.463-1.4-1.123-3.098-2.19-4.9-1.07-1.77-2.595-3.752-4.97-4.921-4.873-2.179-10.937-4.253-17.757-6.21a729.796 729.796 0 0 0-22.26-6.193c-15.868-4.145-30.431-7.113-41.04-8.843a430.428 430.428 0 0 0-12.592-1.893l-3.433-.458c-.364-.056-.658-.099-.892-.134-.2-.033-.302-.056-.301-.066 0-.01.105-.007.308.007l.899.076c.831.086 1.985.203 3.447.352 2.99.34 7.312.882 12.63 1.713 10.638 1.63 25.239 4.538 41.123 8.688a645.762 645.762 0 0 1 22.267 6.244c6.826 1.989 12.883 4.102 17.788 6.353 2.474 1.252 4.004 3.308 5.066 5.123 1.059 1.85 1.691 3.574 2.124 4.994a33.35 33.35 0 0 1 .826 3.319c.062.357.111.645.152.875.03.197.042.3.031.302" fill="#455A64"/>
            <path d="m418.563 428.825.75-2.7c-9.543-.983-18.055-4.464-24.81-10.52l-7.616 16.199 50.793 22.22c1.918-4.778-19.117-25.2-19.117-25.2" fill="#E6A038"/>
            <path d="m386.887 431.804 1.86-3.957 48.103 22.831s1.813 1.932.83 3.346l-50.793-22.22z" fill="#E0E0E0"/>
            <path d="M417.885 428.511c-.122.235-1.413-.2-2.997.03-1.591.19-2.71.945-2.894.75-.207-.145.84-1.404 2.763-1.65 1.922-.263 3.285.676 3.128.87" fill="#263238"/>
            <path d="M398.12 426.776c-.35.7-1.225.995-1.955.66-.73-.334-1.04-1.171-.69-1.872.35-.7 1.225-.995 1.955-.661.73.334 1.038 1.173.69 1.873" fill="#E0E0E0"/>
            <path d="M417.58 428.18c-.015.042-.424-.016-1.152-.208-.704-.208-1.837-.501-2.85-1.495a4.179 4.179 0 0 1-.666-.862c-.192-.318-.387-.68-.426-1.15-.066-.474.284-1.057.797-1.234.496-.215 1.089-.134 1.539.069 1.752.824 3.098 2.702 3.141 4.876l-.75-.106c.122-.371.29-.755.503-1.12 1.145-2.03 3.465-3.122 5.506-3.064.255.005.552.018.853.164.303.144.524.45.576.74.108.577-.107 1.062-.366 1.443-.52.756-1.256 1.232-1.946 1.538-1.421.62-2.688.5-3.487.511-.82-.023-1.268-.053-1.273-.103-.003-.052.45-.12 1.264-.183.802-.096 2.018-.073 3.258-.695.614-.304 1.237-.754 1.645-1.394.203-.3.315-.682.245-.976-.063-.28-.303-.373-.773-.366-1.811-.012-3.824.96-4.83 2.742a5.294 5.294 0 0 0-.443.982.386.386 0 0 1-.75-.107c-.01-1.868-1.216-3.567-2.661-4.28-.688-.363-1.492-.051-1.431.537.054.605.474 1.26.863 1.701.839.921 1.887 1.293 2.556 1.573.688.268 1.073.417 1.057.466M421.782 431.98c-.042.167-1.561-.227-3.36.231-1.806.423-2.962 1.472-3.079 1.343-.132-.075.945-1.427 2.938-1.902 1.987-.498 3.582.2 3.501.328M424.615 435.151c-.015.17-1.39.128-2.976.601-1.59.453-2.723 1.226-2.828 1.09-.108-.104.94-1.147 2.662-1.642 1.716-.508 3.176-.194 3.142-.049" fill="#263238"/>
            <path d="m403.692 348.771 1.2-2.537c-9.237-2.55-17.033-7.391-22.655-14.48l-10.279 14.707 46.265 30.316c2.709-4.392-14.531-28.006-14.531-28.006" fill="#E6A038"/>
            <path d="m371.958 346.461 2.51-3.593 43.51 30.474s1.457 2.204.245 3.436l-46.265-30.317z" fill="#E0E0E0"/>
            <path d="M403.077 348.35c-.16.211-1.358-.432-2.96-.467-1.6-.075-2.833.481-2.98.26-.18-.178 1.068-1.245 3.007-1.17 1.937.06 3.122 1.211 2.933 1.377" fill="#263238"/>
            <path d="M383.89 343.365c-.464.632-1.377.778-2.04.328-.662-.45-.823-1.328-.36-1.96.465-.633 1.378-.779 2.04-.328.663.45.824 1.328.36 1.96" fill="#E0E0E0"/>
            <path d="M402.833 347.972c-.022.04-.414-.085-1.1-.395-.659-.322-1.725-.798-2.554-1.946a4.135 4.135 0 0 1-.508-.959c-.135-.346-.264-.735-.224-1.204.016-.479.461-.996.997-1.085.525-.13 1.096.047 1.505.322 1.586 1.102 2.593 3.177 2.262 5.328l-.72-.23c.183-.345.415-.696.686-1.021 1.477-1.811 3.95-2.503 5.952-2.108.252.048.542.11.813.304.275.192.439.53.441.824.008.587-.287 1.03-.607 1.362-.643.66-1.45 1.007-2.182 1.193-1.506.378-2.735.048-3.525-.072-.803-.16-1.24-.263-1.236-.313.004-.052.463-.043 1.277.029.806.038 2.001.262 3.33-.145.657-.2 1.348-.538 1.86-1.103.25-.262.427-.62.41-.92-.015-.286-.237-.42-.7-.49-1.784-.311-3.935.313-5.232 1.903a5.391 5.391 0 0 0-.603.894.388.388 0 0 1-.514.16.372.372 0 0 1-.206-.389c.308-1.843-.59-3.717-1.893-4.66-.615-.47-1.461-.297-1.502.292-.05.605.252 1.32.56 1.82.669 1.047 1.639 1.587 2.25 1.973.633.38.987.59.963.636M406.325 352.415c-.07.157-1.5-.483-3.352-.33-1.853.12-3.17.96-3.265.816-.117-.098 1.176-1.251 3.223-1.39 2.043-.161 3.497.79 3.394.904M408.575 356.01c-.043.165-1.393-.104-3.036.1-1.647.182-2.894.757-2.976.606-.089-.12 1.124-.976 2.906-1.179 1.78-.216 3.163.335 3.106.473" fill="#263238"/>
            <path d="M375.084.051v57.173L355.19 78.33h19.893v101.92H565.64V.05H375.084z" fill="#FFF"/>
            <mask id="f" fill="#fff">
                <use xlink:href="#e"/>
            </mask>
            <path fill="#F5F5F5" mask="url(#f)" d="M375.15 13.744h190.556V.248H375.15z"/>
            <path fill="#263238" mask="url(#f)" d="M375.207 151.809v28.638H565.706v-28.638z"/>
            <path d="M402.103 7.483c0 1.394-1.147 2.523-2.564 2.523-1.415 0-2.563-1.13-2.563-2.523 0-1.394 1.148-2.522 2.563-2.522 1.417 0 2.564 1.128 2.564 2.522M386.565 7.483c0 1.394-1.148 2.523-2.564 2.523-1.415 0-2.564-1.13-2.564-2.523 0-1.394 1.149-2.522 2.564-2.522 1.416 0 2.564 1.128 2.564 2.522M394.334 7.483c0 1.394-1.147 2.523-2.564 2.523-1.415 0-2.563-1.13-2.563-2.523 0-1.394 1.148-2.522 2.563-2.522 1.417 0 2.564 1.128 2.564 2.522" fill="#FFF" mask="url(#f)"/>
            <path d="M545.536 42.599c-4.954 0-8.97-3.951-8.97-8.825 0-4.873 4.016-8.824 8.97-8.824 4.953 0 8.969 3.951 8.969 8.824 0 4.874-4.016 8.825-8.97 8.825" fill="#263238" mask="url(#f)"/>
            <path d="M544.652 30.973c0-.48.396-.87.884-.87.487 0 .883.39.883.87s-.396.87-.883.87a.877.877 0 0 1-.884-.87M544.652 33.68c0-.481.396-.87.884-.87.487 0 .883.389.883.87 0 .48-.396.87-.883.87a.877.877 0 0 1-.884-.87M544.652 36.576c0-.48.396-.87.884-.87.487 0 .883.39.883.87s-.396.87-.883.87a.877.877 0 0 1-.884-.87" fill="#FFF" mask="url(#f)"/>
            <path d="M397.45 34.141c0 3.154-2.6 5.711-5.805 5.711-3.205 0-5.803-2.557-5.803-5.71 0-3.154 2.598-5.711 5.803-5.711s5.804 2.557 5.804 5.71M432.586 34.063c0 .159-7.24.287-16.167.287-8.931 0-16.169-.128-16.169-.287 0-.16 7.238-.288 16.17-.288 8.927 0 16.166.128 16.166.288" fill="#263238" mask="url(#f)"/>
            <path d="M375.15.248s.288-.009.868-.015l2.597-.013L388.77.191l38.636-.064L565.706 0h.252v.248L566 180.447v.289h-14.122c-63.835-.013-124.06-.023-176.727-.033h-.109l-.075-.075h-.001l-.077-.075v-.106l.06-101.92.201.199-19.891-.017h-.425l.288-.304 19.916-21.088-.04.103.085-42.373c.017-4.843.03-8.546.037-11.047l.016-2.813c.004-.628.014-.94.014-.94s.01.33.015.968l.016 2.84.037 11.08.085 42.285v.059l-.04.043-19.87 21.13-.134-.306c6.22-.004 12.738-.01 19.891-.016h.202v.198l.06 101.919-.077-.182-.183-.074 176.726-.032h13.828l-.292.288c.015-66.036.03-127.777.04-180.2l.252.249-138.14-.127-38.693-.065L378.67.276c-1.152-.006-2.028-.012-2.624-.014-.59-.005-.896-.014-.896-.014" fill="#263238" mask="url(#f)"/>
            <path d="M508.487 92.911c.007.16-5.236.514-11.71.792-6.476.277-11.73.374-11.737.216-.007-.16 5.235-.514 11.711-.792 6.474-.278 11.73-.375 11.736-.216" fill="#FFF" mask="url(#f)"/>
            <path d="M451.25 51.84c1.027-5.54 2.378-11.232 5.848-15.71 3.469-4.478 9.605-7.42 15.027-5.616l6.685 3.811a198.124 198.124 0 0 1-9.428 45.027c-.478 1.432-1.006 2.912-2.084 3.985-2.168 2.16-5.705 1.963-8.77 1.613-3.702-.42-8.022-1.259-9.606-4.576-.763-1.599-.689-3.445-.575-5.208a198.595 198.595 0 0 1 2.904-23.325" fill="#E6A038" mask="url(#f)"/>
            <path d="m488.862 41.995-20.595-6.724c-6.667-1.182-11.738 6.638-12.656 13.242-1.018 7.338-1.968 16.335-1.488 21.899.965 11.187 9.476 13.213 9.476 13.213.005-.034-1.012 3.477-.667 8.421.535 7.62 5.527 9.583 9.619 9.866 6.451.669 13.185-1.343 13.927-7.684l5.63-48.033c.19-2.017-1.22-3.841-3.246-4.2" fill="#FFBE9D" mask="url(#f)"/>
            <path d="M458.524 57.181c-.083.747.492 1.431 1.283 1.531.79.099 1.499-.425 1.582-1.172.082-.747-.493-1.433-1.282-1.531-.793-.1-1.501.425-1.583 1.172M457.833 54.278c.165.198 1.316-.519 2.867-.404 1.551.094 2.631.961 2.814.786.089-.076-.069-.424-.538-.815-.463-.388-1.27-.792-2.236-.857-.966-.065-1.805.228-2.298.552-.504.326-.691.649-.609.738M472.59 59.075c-.083.747.492 1.432 1.284 1.531.79.099 1.498-.425 1.58-1.172.082-.747-.492-1.432-1.282-1.531-.791-.1-1.5.425-1.582 1.172M473.337 55.82c.165.198 1.317-.52 2.868-.403 1.55.093 2.631.96 2.812.785.09-.076-.066-.423-.537-.815-.462-.388-1.268-.791-2.235-.858-.966-.063-1.806.228-2.3.553-.502.326-.69.65-.608.738M466.655 65.686c.013-.087-.939-.319-2.487-.629-.393-.069-.762-.173-.809-.443-.073-.289.124-.697.35-1.137l1.392-2.882c1.94-4.11 3.375-7.5 3.206-7.574-.168-.076-1.879 3.193-3.818 7.302l-1.344 2.904c-.183.432-.478.917-.32 1.515.086.3.36.53.61.617.248.094.471.114.666.14 1.567.196 2.541.273 2.554.187" fill="#263238" mask="url(#f)"/>
            <path d="M463.599 83.625s8.171 1.068 15.99-2.825c0 0-5.018 7.462-16.192 5.62l.202-2.795z" fill="#EB996E" mask="url(#f)"/>
            <path d="M472.587 51.12c.122.427 1.685.341 3.49.688 1.81.311 3.239.94 3.508.586.121-.17-.106-.58-.67-1.024-.558-.444-1.468-.893-2.551-1.09-1.085-.197-2.098-.098-2.78.12-.688.217-1.048.52-.997.72M457.745 49.726c.312.371 1.664.107 3.259.204 1.598.053 2.926.444 3.264.104.148-.166-.038-.529-.603-.899-.557-.368-1.509-.706-2.606-.758-1.097-.052-2.07.195-2.65.51-.59.316-.802.659-.664.84" fill="#FF725E" mask="url(#f)"/>
            <path d="M489.079 58.175c.157.3.034 1.069 0 0m-22.895-20.18c.814 1.425 2.012 2.593 3.194 3.74l5.667 5.498c1.345 1.304 2.693 2.611 4.191 3.742 1.331 1.003 2.77 1.857 4.205 2.71 1.493.886 2.26 3.18 3.754 4.066.338.202 1.432.078 1.788.333-.07 2.476-.108 10.36-.135 13.499-.043 4.95-1.842 18.135-1.842 18.135l4.284-.002c3.354-.506 6.898-4.305 7.6-7.573.658-3.06.5-7.308.704-9.812.527-6.43-.753-12.94-1.179-19.376-.172-2.597-.353-5.238-1.283-7.676-1.317-3.45-4.03-6.209-6.952-8.517-3.355-2.65-7.154-4.878-11.35-5.814-4.196-.937-8.834-.468-12.405 1.895-.554.367-1.114.828-1.26 1.467-.54 1.547.206 2.26 1.02 3.686" fill="#E6A038" mask="url(#f)"/>
            <path d="M488.334 61.156c.29-2.345 3.008-3.735 4.996-2.411 1.092.726 1.868 2.089 1.585 4.58-.758 6.643-7.382 4.525-7.372 4.332.007-.118.453-3.755.791-6.501" fill="#FFBE9D" mask="url(#f)"/>
            <path d="M489.893 65.368c.033-.017.108.094.297.206a1.2 1.2 0 0 0 .878.115c.743-.18 1.47-1.227 1.64-2.42a3.785 3.785 0 0 0-.14-1.694c-.15-.508-.432-.884-.784-.987a.607.607 0 0 0-.73.242c-.112.176-.084.313-.122.32-.02.014-.132-.128-.046-.396a.746.746 0 0 1 .314-.387.9.9 0 0 1 .67-.096c.516.092.93.615 1.11 1.165.208.555.293 1.22.196 1.897-.195 1.333-1.035 2.509-2.043 2.678-.488.07-.868-.114-1.055-.294-.19-.187-.21-.339-.185-.349" fill="#EB996E" mask="url(#f)"/>
            <path d="M491.979 68.416a1.325 1.325 0 0 1-1.424 1.216 1.318 1.318 0 0 1-1.236-1.4 1.327 1.327 0 0 1 1.424-1.217 1.32 1.32 0 0 1 1.236 1.401" fill="#263238" mask="url(#f)"/>
            <path d="M470.679 68.774c.545.815.656 1.895.288 2.8a3.132 3.132 0 0 1-2.17 1.835c-.385.089-.804.1-1.163-.063-.634-.287-.908-1.012-1.121-1.666l-.53-1.632c-.06-.183-.117-.392-.022-.559.105-.179.34-.231.546-.265l4.066-.67" fill="#EB996E" mask="url(#f)"/>
            <path d="M467.735 73.16c.001.04.699.17 1.833-.097.554-.147 1.24-.481 1.683-1.162.225-.325.347-.791.332-1.2a3.523 3.523 0 0 0-.226-1.28 3.28 3.28 0 0 0-.678-1.075l-.1-.104-.136.036c-2.713.735-4.817 1.056-4.804 1.169.01.116 2.165-.018 4.927-.72l-.234-.066c.24.261.44.576.574.927.253.725.316 1.546-.033 2.085-.344.57-.91.898-1.407 1.07-1.023.33-1.743.33-1.73.418" fill="#263238" mask="url(#f)"/>
            <path d="M482.3 42.034a39.263 39.263 0 0 1 10.608 11.13l-3.648 6.09c-6.2-.574-6.937-1.195-11.304-5.563-4.368-4.367-13.053-13.062-13.536-19.17 5.868 1.623 12.918 4.028 17.88 7.513" fill="#E6A038" mask="url(#f)"/>
            <path d="M492.106 89.492c-.015-.009.088-.228.299-.637.217-.404.522-1.01.904-1.794a46.083 46.083 0 0 0 2.663-6.86 44.25 44.25 0 0 0 1.781-10.716c.069-2.043.072-4.208-.342-6.38-.407-2.16-1.296-4.359-2.987-5.992-1.682-1.644-3.807-2.69-5.834-3.687-2.047-.974-4-2.032-5.733-3.205a41.817 41.817 0 0 1-8.27-7.35c-2.075-2.37-3.483-4.497-4.414-5.98a30.079 30.079 0 0 1-1.018-1.74c-.22-.406-.328-.622-.312-.63.015-.01.155.19.405.576.245.39.612.961 1.1 1.685.981 1.444 2.427 3.527 4.524 5.846a42.723 42.723 0 0 0 8.26 7.193c1.724 1.15 3.635 2.176 5.69 3.146 2.031.993 4.21 2.05 5.979 3.776 1.786 1.726 2.713 4.048 3.122 6.267.42 2.24.403 4.432.32 6.495a43.105 43.105 0 0 1-1.91 10.803c-.95 2.986-2.018 5.298-2.838 6.844a29.196 29.196 0 0 1-.997 1.755c-.24.393-.376.594-.392.585M496.91 54.778c-.12.052-.139-2.1-2.151-4.63-.985-1.25-2.413-2.548-4.234-3.645-1.81-1.12-3.974-2.062-6.234-3.097-4.573-2.024-8.305-4.66-10.733-6.82a34.501 34.501 0 0 1-2.757-2.681c-.614-.669-.92-1.066-.896-1.087.03-.028.388.323 1.044.945a51.538 51.538 0 0 0 2.856 2.544c2.474 2.071 6.179 4.618 10.71 6.625 2.252 1.03 4.437 1.997 6.272 3.164 1.848 1.144 3.298 2.513 4.272 3.829.985 1.316 1.475 2.574 1.684 3.457.104.443.159.792.169 1.031.017.238.016.362-.002.365M450.335 82.724c-.018-.001-.026-.196-.022-.566l.04-1.615c.046-1.402.13-3.43.262-5.935.274-5.008.702-11.938 1.763-19.533.526-3.79 1.165-7.426 2.34-10.573 1.138-3.156 2.862-5.75 4.722-7.508 1.851-1.774 3.75-2.748 5.109-3.191a9.468 9.468 0 0 1 1.597-.407c.374-.057.57-.078.573-.06.011.054-.779.157-2.098.659-1.316.493-3.14 1.495-4.916 3.262-1.785 1.754-3.431 4.297-4.526 7.408-1.13 3.1-1.75 6.698-2.273 10.482-1.059 7.57-1.546 14.484-1.915 19.483l-.432 5.924-.14 1.611c-.037.368-.066.56-.084.559" fill="#FFF" mask="url(#f)"/>
            <path d="M432.636 116.705s1.217-9.582 5.912-14.372c4.695-4.79 24.338-10.79 24.338-10.79s.811 6.835 5.515 8.483c4.99 1.75 10.627 1.092 14.281-3.078 3.533-4.033 4.565-9.22 4.565-9.22s23.46 2.125 27.285 8.456c3.826 6.33 8.773 30.85 8.773 30.85l-21.934 4.58 1.405 19.886-53.9.309-1.667-17.595-15.867 2.229 1.294-19.738z" fill="#AE2F2F" mask="url(#f)"/>
            <path d="M497.017 133.01c-.035-.002-.061-.34-.079-.954a97.272 97.272 0 0 1-.025-2.594c0-2.19.035-5.214.106-8.554.07-3.341.162-6.365.254-8.555.046-1.093.093-1.98.135-2.592.043-.612.084-.95.118-.95.035 0 .061.338.078.95.018.613.026 1.499.026 2.593 0 2.191-.036 5.216-.106 8.56-.07 3.34-.162 6.366-.254 8.554-.046 1.095-.092 1.98-.135 2.592-.043.612-.083.95-.118.95M441.805 115.619c.134-.038 1.504 4.245 3.057 9.566 1.554 5.323 2.706 9.666 2.571 9.704-.134.039-1.502-4.244-3.057-9.566-1.554-5.322-2.704-9.666-2.57-9.704M512.081 94.664c.017.088-1.04.279-2.641.879-1.6.592-3.719 1.681-5.692 3.362-1.968 1.69-3.358 3.605-4.176 5.081-.825 1.477-1.164 2.481-1.25 2.452-.033-.01.026-.268.165-.728.13-.463.389-1.113.768-1.886.753-1.549 2.138-3.557 4.16-5.294 2.03-1.729 4.241-2.8 5.905-3.32.832-.262 1.521-.425 2.005-.487.483-.07.75-.093.756-.06M438.194 104.268c.135-.035.596 1.298 1.03 2.974.433 1.678.673 3.064.538 3.098-.135.034-.595-1.298-1.029-2.975-.432-1.677-.674-3.064-.539-3.097" fill="#263238" mask="url(#f)"/>
            <path d="M497.526 108.81c.02.159-12.438 1.81-27.822 3.691-15.39 1.88-27.879 3.276-27.898 3.118-.02-.158 12.436-1.81 27.825-3.69 15.384-1.88 27.875-3.277 27.895-3.119M518.484 108.092c.038.155-4.546 1.403-10.239 2.79-5.695 1.387-10.342 2.386-10.381 2.232-.038-.155 4.545-1.404 10.24-2.79 5.693-1.388 10.34-2.386 10.38-2.232M522.035 121.441c.034.156-5.332 1.416-11.983 2.814-6.655 1.4-12.075 2.406-12.109 2.251-.033-.156 5.332-1.415 11.986-2.815 6.652-1.398 12.072-2.406 12.106-2.25M462.733 96.186c.04.154-5.12 1.589-11.526 3.204-6.407 1.615-11.631 2.798-11.671 2.644-.041-.153 5.119-1.588 11.526-3.203 6.404-1.615 11.63-2.799 11.67-2.645M496.653 128.998c.01.16-11.152.94-24.927 1.743-13.78.802-24.956 1.325-24.965 1.166-.01-.159 11.15-.938 24.93-1.742 13.775-.804 24.952-1.325 24.962-1.167M434.367 122.155c-.012-.161 1.951-.433 4.369-.738 2.419-.303 4.388-.528 4.417-.369.03.154-1.906.635-4.343.94-2.436.309-4.432.323-4.443.167M495.847 145.266c.002.04-.603.103-1.698.183l-4.635.302-15.289 1-15.279 1.176-4.63.359c-1.096.076-1.703.1-1.708.06-.003-.04.596-.139 1.684-.284 1.088-.145 2.664-.33 4.615-.54 3.902-.42 9.3-.92 15.275-1.346 5.973-.425 11.39-.695 15.312-.832 1.96-.07 3.548-.11 4.646-.12 1.097-.011 1.706.002 1.707.042" fill="#FFF" mask="url(#f)"/>
            <path d="m447.209 134.214-7.495.954-7.078-17.974-11.456 4.559s6.466 21.548 8.934 30.056l23.273-.027-6.178-17.568z" fill="#FFBE9D" mask="url(#f)"/>
            <path d="M448.014 148.24c-1.468-1.586-2.812-3.123-3.858-4.655a32.838 32.838 0 0 1-2.491-4.242 38.811 38.811 0 0 1-1.329-3.044c-.288-.732-.436-1.141-.475-1.13-.028.008.057.437.288 1.192.233.755.608 1.837 1.192 3.13a29.574 29.574 0 0 0 2.429 4.35c1.04 1.57 2.402 3.148 3.868 4.73 1.46 1.59 1.804 1.698 2.823 3.237l.588-.023c-1.023-1.592-1.576-1.957-3.035-3.545" fill="#EB996E" mask="url(#f)"/>
            <path d="M432.636 117.195s.041-7.863-.66-10.08l-5.648-12.416s-1.454-.878-2.15 1.598c-.683 2.437 1.509 5.022 1.509 5.022l.172 3.25-2.286-1.83-4.4-8.11s-3.03-5.905-3.817-4.968c-.787.938-.526 2.836.781 5.384l2.966 5.78s.448 1.027-1.11-.462c-1.557-1.489-4.939-8.7-5.638-9.6-.7-.902-1.66-3.544-3.177-2.947-1.517.598.426 3.767.426 3.767l4.852 10.693s-2.813-4.05-3.321-4.733c-.51-.683-1.678-3.002-2.6-4.181-.923-1.18-1.927-1.64-2.596-1.356-1.205.511-.84 1.63-.84 1.63l5.18 8.843s2.59 3.966 2.586 4.267c-.004.3-2.258-1.31-2.258-1.31l-2.171-2.724s-2.35-4.079-3.583-3.856c-1.234.222-1.009 1.124-1.009 1.124l4.366 7.427 6.328 8.01 6.77 6.616 3.91-1.24 7.418-3.598z" fill="#FFBE9D" mask="url(#f)"/>
            <path d="M420.184 115.866c.103.006.166-.962.405-2.477.253-1.474.77-3.671 2.601-5.094.803-.633 1.752-.988 2.631-.986h.324l-.022-.345c-.1-1.524-.044-2.976-.1-3.941-.032-.982-.139-1.57-.219-1.557-.057.01-.08.572-.153 1.553-.045.996-.195 2.32-.126 4.04l.302-.345c-1.031-.032-2.144.374-3.038 1.083-1 .777-1.67 1.818-2.047 2.812-.385.996-.53 1.94-.606 2.722-.128 1.57-.028 2.532.048 2.535" fill="#EB996E" mask="url(#f)"/>
            <path d="m499.144 132.079-4.17 19.748 19.583-.018c.752-2.81 4.846-23.96 4.846-23.96l-20.259 4.23z" fill="#FFBE9D" mask="url(#f)"/>
            <path d="M386.008 166.144v.465h-2.188v-.367l1.18-1.117c.287-.275.339-.449.339-.613 0-.27-.187-.428-.552-.428-.288 0-.53.097-.696.309l-.386-.296c.229-.308.642-.49 1.129-.49.644 0 1.06.325 1.06.85 0 .287-.08.55-.492.934l-.793.753h1.4zM386.307 166.288c0-.212.169-.35.376-.35.205 0 .375.138.375.35 0 .203-.17.351-.375.351-.207 0-.376-.148-.376-.35m0-1.613c0-.211.169-.35.376-.35.205 0 .375.139.375.35 0 .203-.17.351-.375.351-.207 0-.376-.148-.376-.35M388.384 163.649v2.96h-.552v-2.499h-.628v-.461zM391.619 165.937h-.527v.672h-.534v-.672h-1.628v-.382l1.462-1.907h.59l-1.378 1.824h.97v-.596h.518v.596h.527zM396.301 165.777h136.694v-1.024H396.301z" fill="#FFF" mask="url(#f)"/>
            <path fill="#FF725E" mask="url(#f)" d="M396.301 166.382h70.398v-2.731H396.3z"/>
            <path d="M468.97 165.266a3.422 3.422 0 0 1-3.426 3.417 3.422 3.422 0 0 1-3.428-3.417 3.422 3.422 0 0 1 3.428-3.417 3.422 3.422 0 0 1 3.427 3.417" fill="#FF725E" mask="url(#f)"/>
            <path d="M539.62 165.258c0-.309-.232-.502-.594-.502-.355 0-.601.214-.601.507 0 .278.22.499.615.499.343 0 .58-.195.58-.504m.535-.025c0 .589-.48.96-1.086.96-.81 0-1.286-.52-1.286-1.472 0-1.015.594-1.573 1.456-1.573.297 0 .58.063.78.19l-.203.415a1.011 1.011 0 0 0-.564-.144c-.56 0-.913.347-.913 1.02v.004c.179-.207.464-.31.793-.31.586 0 1.023.356 1.023.91M540.423 165.83c0-.212.17-.351.376-.351.205 0 .376.139.376.35 0 .203-.17.351-.376.351-.207 0-.376-.148-.376-.35m0-1.612c0-.212.17-.351.376-.351.205 0 .376.14.376.35 0 .203-.17.352-.376.352-.207 0-.376-.149-.376-.351M543.4 164.67c0-.714-.28-1.044-.688-1.044-.403 0-.683.33-.683 1.045 0 .715.28 1.044.683 1.044.408 0 .687-.33.687-1.044m-1.926 0c0-.973.534-1.524 1.239-1.524.708 0 1.243.55 1.243 1.524 0 .972-.535 1.523-1.243 1.523-.705 0-1.24-.551-1.24-1.523M546.25 164.67c0-.714-.279-1.044-.687-1.044-.403 0-.683.33-.683 1.045 0 .715.28 1.044.683 1.044.408 0 .687-.33.687-1.044m-1.926 0c0-.973.535-1.524 1.239-1.524.709 0 1.243.55 1.243 1.524 0 .972-.534 1.523-1.243 1.523-.704 0-1.239-.551-1.239-1.523M551.603 164.487h-1.027v-2.953h2.956v1.024h-1.929zM553.534 168.34h-2.962v-2.947h1.027v1.923h1.935zM558.25 168.34h-2.957v-1.024h1.929v-1.93h1.027zM558.252 164.48h-1.028v-1.921h-1.934v-1.025h2.962z" fill="#FFF" mask="url(#f)"/>
        </g>
        <path d="M502.16 459.502c0 .144-77.72.262-173.572.262-95.884 0-173.588-.118-173.588-.262 0-.145 77.704-.261 173.588-.261 95.852 0 173.573.116 173.573.26" fill="#263238"/>
    </g>
</svg>
