<svg width="558" height="427" viewBox="0 0 558 427" xmlns="http://www.w3.org/2000/svg">
    <g fill="none" fill-rule="evenodd">
        <path fill="#FAFAFA" d="M-2 136h147V54H-2z"/>
        <path d="M146.265 134.015s-.013-.505-.02-1.468l-.02-4.265-.047-16.316-.099-59.558.186.186-146.01.057H.242l.244-.243-.017 81.607-.227-.227 105.011.11 30.174.062 8.045.028 2.078.013c.468.004.714.014.714.014s-.227.01-.687.014l-2.053.013-7.998.028-30.122.062-105.162.11H.016v-.227L0 52.408v-.243h.254l146.011.057h.186v.186c-.04 25.1-.075 45.519-.099 59.672-.02 7.05-.035 12.538-.047 16.274l-.02 4.231c-.007.951-.02 1.43-.02 1.43" fill="#E0E0E0"/>
        <path fill="#E0E0E0" d="M18.088 92.492h20.644V71.859H18.088zM67.085 74.758c0 .134-4.819.243-10.76.243-5.945 0-10.762-.109-10.762-.243 0-.135 4.817-.243 10.762-.243 5.941 0 10.76.108 10.76.243M135.83 82.175c0 .134-20.209.243-45.131.243-24.932 0-45.136-.109-45.136-.243 0-.135 20.204-.243 45.136-.243 24.922 0 45.13.108 45.13.243M105.459 90.497c0 .134-13.278.242-29.655.242-16.38 0-29.657-.108-29.657-.242 0-.135 13.276-.243 29.657-.243 16.377 0 29.655.108 29.655.243M124.648 123.199H24.902c-5.284 0-9.568-4.282-9.568-9.563 0-5.281 4.284-9.562 9.568-9.562h99.746c5.284 0 9.568 4.28 9.568 9.562 0 5.281-4.284 9.563-9.568 9.563"/>
        <path d="m56.054 114.052-.836-2.017-.836 2.017h1.672zm.384.926h-2.447l-.468 1.13h-1.25l2.35-5.27h1.206l2.356 5.27h-1.28l-.467-1.13zM62.073 112.75c0-.58-.377-.919-1.123-.919h-.993v1.83h.993c.746 0 1.123-.34 1.123-.911m1.235 0c0 1.174-.881 1.904-2.29 1.904h-1.061v1.453h-1.22v-5.269h2.282c1.408 0 2.29.73 2.29 1.912M67.512 112.75c0-.58-.377-.919-1.122-.919h-.995v1.83h.995c.745 0 1.122-.34 1.122-.911m1.235 0c0 1.174-.88 1.904-2.29 1.904h-1.062v1.453h-1.22v-5.269h2.282c1.41 0 2.29.73 2.29 1.912M69.614 110.838h1.221v4.275h2.643v.994h-3.864zM76.153 114.24v1.867h-1.221v-1.882l-2.04-3.388h1.295l1.408 2.342 1.408-2.342h1.198zM85.682 110.838v5.27H84.68l-2.63-3.2v3.2h-1.204v-5.27h1.01l2.62 3.199v-3.2zM91.135 113.472c0-1-.707-1.686-1.649-1.686-.94 0-1.649.686-1.649 1.686 0 1.001.708 1.687 1.65 1.687.94 0 1.648-.686 1.648-1.687m-4.533 0c0-1.566 1.22-2.725 2.884-2.725 1.657 0 2.884 1.152 2.884 2.725 0 1.574-1.227 2.726-2.884 2.726-1.665 0-2.884-1.16-2.884-2.726M101.086 110.838l-1.724 5.27H98.05l-1.16-3.569-1.198 3.568H94.39l-1.732-5.27h1.266l1.19 3.704 1.242-3.703h1.13l1.204 3.733 1.229-3.733z" fill="#FFF"/>
        <path fill="#FAFAFA" d="M23.993 192.586h124.06v-69.333H23.993z"/>
        <path d="M148.053 192.586s-.013-.43-.02-1.25l-.02-3.627c-.012-3.186-.027-7.86-.047-13.864l-.1-50.592.187.186-124.05.057h-.01l.244-.243-.016 69.333-.227-.227 89.205.11 25.64.062 6.838.028 1.767.013c.399.004.609.014.609.014s-.192.01-.582.014l-1.742.013-6.792.028-25.588.062-89.355.11h-.228v-.227l-.016-69.333v-.243h.253l124.05.057h.186v.186c-.041 21.327-.076 38.676-.1 50.706l-.046 13.823c-.01 1.57-.016 2.772-.02 3.592-.007.807-.02 1.212-.02 1.212" fill="#263238"/>
        <path fill="#455A64" d="M39.155 157.308h17.539v-17.53H39.155z"/>
        <path d="M80.781 142.241c0 .135-4.093.243-9.141.243-5.05 0-9.143-.108-9.143-.243 0-.134 4.093-.243 9.143-.243 5.048 0 9.141.109 9.141.243" fill="#FF725E"/>
        <path d="M139.187 148.543c0 .134-17.17.243-38.343.243-21.182 0-38.347-.109-38.347-.243 0-.135 17.165-.243 38.347-.243 21.173 0 38.343.108 38.343.243M113.384 155.613c0 .134-11.281.244-25.195.244-13.917 0-25.196-.11-25.196-.244 0-.135 11.279-.243 25.196-.243 13.914 0 25.195.108 25.195.243" fill="#263238"/>
        <path d="M129.687 183.396H44.943a8.126 8.126 0 0 1-8.128-8.124 8.127 8.127 0 0 1 8.128-8.125h84.744a8.127 8.127 0 0 1 8.128 8.125 8.126 8.126 0 0 1-8.128 8.124" fill="#80D363"/>
        <path d="m71.413 175.624-.71-1.716-.712 1.716h1.422zm.327.787H69.66l-.398.96h-1.063l1.998-4.481h1.025l2.005 4.48h-1.09l-.396-.959zM76.527 174.516c0-.492-.32-.781-.954-.781h-.846v1.555h.846c.634 0 .954-.287.954-.774m1.05 0c0 .998-.749 1.62-1.947 1.62h-.903v1.235H73.69v-4.48h1.94c1.198 0 1.948.62 1.948 1.625M81.148 174.516c0-.492-.32-.781-.953-.781h-.846v1.555h.846c.633 0 .953-.287.953-.774m1.05 0c0 .998-.749 1.62-1.946 1.62h-.903v1.235H78.31v-4.48h1.94c1.198 0 1.948.62 1.948 1.625M82.932 172.89h1.038v3.636h2.248v.845h-3.286zM88.488 175.783v1.588h-1.037v-1.6l-1.735-2.881h1.101l1.198 1.99 1.197-1.99h1.019zM96.586 172.89v4.481h-.852l-2.235-2.72v2.72h-1.024v-4.481h.858l2.229 2.72v-2.72zM101.22 175.13c0-.851-.602-1.433-1.404-1.433-.8 0-1.402.582-1.402 1.434 0 .851.602 1.433 1.402 1.433.802 0 1.404-.582 1.404-1.433m-3.856 0c0-1.332 1.037-2.317 2.452-2.317 1.41 0 2.454.978 2.454 2.317 0 1.338-1.044 2.316-2.454 2.316-1.415 0-2.452-.985-2.452-2.316M109.676 172.89l-1.466 4.481h-1.115l-.986-3.034-1.019 3.034h-1.108l-1.473-4.481h1.076l1.012 3.15 1.057-3.15h.96l1.025 3.175 1.045-3.175z" fill="#FFF"/>
        <path fill="#FAFAFA" d="M22.442 373.672h126.21v-70.536H22.443z"/>
        <path d="M148.653 373.672s-.013-.438-.02-1.272l-.02-3.688-.047-14.105-.099-51.47.186.186-126.201.057h-.01l.244-.243-.016 70.535-.227-.227 90.753.11 26.083.062 6.957.028 1.798.013c.406.005.619.014.619.014s-.195.01-.592.014l-1.772.013-6.91.028-26.033.062-90.903.11h-.228v-.227l-.016-70.535v-.243h.253l126.201.057h.186v.186c-.041 21.697-.076 39.347-.1 51.585l-.046 14.062c-.01 1.598-.016 2.82-.02 3.655-.007.822-.02 1.233-.02 1.233" fill="#E0E0E0"/>
        <path fill="#E0E0E0" d="M37.866 337.783H55.71v-17.834H37.866zM80.215 322.454c0 .135-4.165.243-9.3.243-5.138 0-9.301-.108-9.301-.243 0-.134 4.163-.243 9.3-.243 5.136 0 9.301.109 9.301.243M139.633 328.865c0 .135-17.466.243-39.008.243-21.548 0-39.012-.108-39.012-.243 0-.134 17.464-.243 39.012-.243 21.542 0 39.008.109 39.008.243M113.383 336.058c0 .135-11.477.243-25.631.243-14.16 0-25.634-.108-25.634-.243s11.475-.243 25.634-.243c14.154 0 25.631.108 25.631.243M129.969 364.323H43.755c-4.567 0-8.27-3.7-8.27-8.265s3.703-8.265 8.27-8.265h86.214c4.566 0 8.27 3.7 8.27 8.265s-3.704 8.265-8.27 8.265"/>
        <path d="m70.678 356.42-.721-1.743-.722 1.742h1.443zm.332.798h-2.113l-.404.975h-1.08l2.03-4.55h1.04l2.036 4.55h-1.105l-.404-.975zM75.88 355.294c0-.5-.325-.793-.969-.793h-.859v1.58h.86c.643 0 .969-.293.969-.787m1.066 0c0 1.015-.76 1.645-1.978 1.645h-.917v1.255H73v-4.551h1.97c1.217 0 1.978.63 1.978 1.651M80.581 355.294c0-.5-.325-.793-.97-.793h-.857v1.58h.858c.644 0 .97-.293.97-.787m1.067 0c0 1.015-.762 1.645-1.978 1.645h-.917v1.255H77.7v-4.551h1.97c1.217 0 1.979.63 1.979 1.651M82.401 353.643h1.054v3.692h2.283v.86H82.4zM88.05 356.581v1.613h-1.053v-1.626l-1.763-2.925h1.12l1.215 2.022 1.217-2.022h1.034zM96.285 353.643v4.551h-.865l-2.27-2.763v2.763h-1.041v-4.551h.871l2.264 2.763v-2.763zM101 355.918c0-.864-.612-1.456-1.424-1.456-.814 0-1.425.592-1.425 1.456 0 .865.61 1.457 1.425 1.457.812 0 1.424-.592 1.424-1.457m-3.915 0c0-1.352 1.053-2.353 2.49-2.353 1.431 0 2.491.995 2.491 2.353 0 1.36-1.06 2.354-2.49 2.354-1.438 0-2.491-1.002-2.491-2.354M109.598 353.643l-1.49 4.551h-1.132l-1.002-3.081-1.034 3.081h-1.125l-1.496-4.551h1.093l1.027 3.198 1.073-3.198h.976l1.042 3.224 1.06-3.224z" fill="#FFF"/>
        <path fill="#FAFAFA" d="M386.142 407.24h126.21v-70.536h-126.21z"/>
        <path d="M512.353 407.24s-.013-.438-.02-1.272l-.02-3.688c-.012-3.24-.027-7.996-.047-14.105l-.1-51.47.187.186-126.201.058h-.01l.243-.244-.015 70.535-.228-.227 90.754.11 26.083.062 6.956.028 1.799.013c.406.005.619.014.619.014s-.196.01-.592.014l-1.772.013-6.91.028-26.033.062-90.904.11h-.227v-.227l-.017-70.535v-.243h.254l126.2.057h.188v.186l-.1 51.585-.047 14.063-.02 3.654c-.007.822-.02 1.233-.02 1.233" fill="#E0E0E0"/>
        <path fill="#E0E0E0" d="M401.566 371.35h17.843v-17.833h-17.843zM443.915 356.023c0 .134-4.165.243-9.3.243-5.139 0-9.301-.109-9.301-.243 0-.135 4.162-.243 9.3-.243 5.136 0 9.3.108 9.3.243M503.333 362.434c0 .134-17.467.243-39.008.243-21.549 0-39.012-.109-39.012-.243 0-.135 17.463-.243 39.012-.243 21.541 0 39.008.108 39.008.243M477.083 369.626c0 .135-11.477.243-25.631.243-14.16 0-25.634-.108-25.634-.243 0-.134 11.475-.243 25.634-.243 14.154 0 25.63.109 25.63.243M493.669 397.891h-86.214c-4.567 0-8.27-3.7-8.27-8.265s3.703-8.265 8.27-8.265h86.214c4.567 0 8.269 3.7 8.269 8.265a8.267 8.267 0 0 1-8.27 8.265"/>
        <path d="m434.378 389.987-.72-1.742-.723 1.742h1.443zm.333.799h-2.115l-.403.975h-1.08l2.03-4.55h1.04l2.037 4.55h-1.106l-.403-.975zM439.581 388.862c0-.5-.326-.793-.97-.793h-.858v1.58h.859c.643 0 .97-.293.97-.787m1.066 0c0 1.015-.762 1.645-1.978 1.645h-.917v1.255h-1.054v-4.552h1.97c1.217 0 1.979.63 1.979 1.652M444.282 388.862c0-.5-.326-.793-.97-.793h-.858v1.58h.858c.644 0 .97-.293.97-.787m1.067 0c0 1.015-.762 1.645-1.978 1.645h-.917v1.255h-1.053v-4.552h1.97c1.216 0 1.978.63 1.978 1.652M446.101 387.21h1.054v3.693h2.283v.859H446.1zM451.751 390.15v1.612h-1.054v-1.626l-1.762-2.926h1.119l1.215 2.022 1.217-2.022h1.034zM459.985 387.21v4.552h-.865l-2.27-2.763v2.763h-1.041v-4.551h.872l2.263 2.762v-2.762zM464.7 389.486c0-.865-.611-1.456-1.424-1.456s-1.425.591-1.425 1.456.612 1.457 1.425 1.457c.813 0 1.424-.592 1.424-1.457m-3.915 0c0-1.352 1.054-2.353 2.491-2.353 1.43 0 2.49.995 2.49 2.353 0 1.359-1.06 2.354-2.49 2.354-1.437 0-2.491-1.002-2.491-2.354M473.298 387.21l-1.49 4.552h-1.131l-1.002-3.082-1.034 3.082h-1.126l-1.496-4.551h1.093l1.028 3.199 1.073-3.2h.976l1.04 3.225 1.061-3.224z" fill="#FFF"/>
        <path fill="#FAFAFA" d="M411.791 246.085h146.023v-81.607H411.79z"/>
        <path d="M557.814 246.084s-.013-.504-.02-1.467l-.02-4.266-.047-16.315-.1-59.558.187.186-146.011.057h-.011l.244-.243-.017 81.606-.227-.227c42.732.045 79.207.084 105.011.11l30.173.062 8.046.028 2.078.014c.468.004.714.013.714.013s-.227.01-.686.014l-2.054.014-7.998.028-30.122.061-105.162.11h-.227v-.227l-.016-81.606v-.244h.254c55.878.023 107.058.042 146.011.057l.186.001v.186l-.1 59.672-.046 16.274c-.01 1.852-.016 3.268-.02 4.23-.007.952-.02 1.43-.02 1.43" fill="#E0E0E0"/>
        <path fill="#E0E0E0" d="M429.637 204.561h20.644v-20.633h-20.644zM478.633 186.827c0 .135-4.818.243-10.76.243-5.944 0-10.761-.108-10.761-.243 0-.134 4.817-.243 10.761-.243 5.942 0 10.76.109 10.76.243M547.378 194.245c0 .134-20.208.243-45.13.243-24.932 0-45.136-.109-45.136-.243 0-.135 20.204-.243 45.135-.243 24.923 0 45.131.108 45.131.243M517.008 202.566c0 .135-13.279.243-29.655.243-16.382 0-29.657-.108-29.657-.243 0-.134 13.275-.243 29.657-.243 16.376 0 29.655.109 29.655.243M536.197 235.268H436.45c-5.284 0-9.568-4.28-9.568-9.563 0-5.28 4.284-9.562 9.568-9.562h99.746c5.284 0 9.568 4.281 9.568 9.562 0 5.282-4.284 9.563-9.568 9.563"/>
        <path d="m467.603 226.121-.837-2.017-.834 2.017h1.671zm.384.926h-2.447l-.467 1.13h-1.25l2.35-5.27h1.205l2.357 5.27h-1.281l-.467-1.13zM473.622 224.82c0-.58-.376-.919-1.122-.919h-.994v1.83h.994c.746 0 1.122-.34 1.122-.912m1.235 0c0 1.175-.88 1.905-2.29 1.905h-1.061v1.453h-1.22v-5.27h2.282c1.408 0 2.289.73 2.289 1.912M479.061 224.82c0-.58-.377-.919-1.122-.919h-.994v1.83h.994c.745 0 1.122-.34 1.122-.912m1.235 0c0 1.175-.88 1.905-2.29 1.905h-1.061v1.453h-1.22v-5.27h2.282c1.408 0 2.289.73 2.289 1.912M481.164 222.907h1.22v4.276h2.643v.994h-3.863zM487.702 226.31v1.867h-1.22v-1.882l-2.042-3.388h1.295l1.409 2.342 1.409-2.342h1.197zM497.231 222.907v5.27h-1.002l-2.629-3.2v3.2h-1.205v-5.27h1.01l2.621 3.2v-3.2zM502.685 225.542c0-1-.708-1.686-1.65-1.686-.94 0-1.648.685-1.648 1.686 0 1 .707 1.687 1.648 1.687.942 0 1.65-.686 1.65-1.687m-4.534 0c0-1.566 1.22-2.725 2.884-2.725 1.657 0 2.885 1.152 2.885 2.725 0 1.574-1.228 2.726-2.885 2.726-1.664 0-2.884-1.16-2.884-2.726M512.636 222.907l-1.726 5.27h-1.31l-1.16-3.568-1.197 3.568h-1.304l-1.732-5.27h1.266l1.189 3.704 1.243-3.704h1.13l1.205 3.734 1.228-3.734z" fill="#FFF"/>
        <path d="M397.915 408.929c0 .135-72.401.244-161.692.244-89.321 0-161.707-.11-161.707-.244 0-.135 72.386-.243 161.707-.243 89.29 0 161.692.108 161.692.243" fill="#263238"/>
        <path fill="#E0E0E0" d="M203.03 363.314h6.406v-33.707h-6.405z"/>
        <path d="M209.437 363.315c-.01-.011-.022-.25-.032-.695l-.032-1.939c-.018-1.72-.04-4.137-.07-7.132l-.106-23.941.24.24-6.404.003c.483-.486.134-.129.241-.235v2.628l-.001 2.592-.006 5.027-.023 9.267-.082 14.185-.13-.132 4.693.074 1.26.032c.29.01.443.017.452.026.008.008-.128.017-.403.026l-1.231.032-4.772.073-.13.002v-.133c-.021-3.571-.05-8.442-.082-14.185l-.023-9.267-.006-5.027c0-.856 0-1.72-.002-2.592V329.616c.11-.111-.245.234.245-.251l6.404.002h.241l-.001.24-.107 24.112-.069 7.076-.032 1.887c-.01.426-.021.643-.032.633" fill="#263238"/>
        <path d="M221.058 324.502h-29.944a8.036 8.036 0 0 1-8.038-8.033h46.02c0 4.437-3.6 8.033-8.038 8.033" fill="#242429"/>
        <path d="M247.472 318.045h-52.209v-11.16h52.209a5.583 5.583 0 0 1 5.584 5.58c0 3.082-2.501 5.58-5.584 5.58" fill="#AE2F2F"/>
        <path d="M154.695 226.74a5.546 5.546 0 0 0-4.772 6.103l7.531 68.449c1.072 9.54 9.143 16.754 18.748 16.754h19.914a5.589 5.589 0 1 0 0-11.176h-16.905a9.593 9.593 0 0 1-9.51-8.322l-8.761-67.03a5.548 5.548 0 0 0-6.245-4.777" fill="#FF725E"/>
        <path d="m218.13 307.432-56.75.794-5.541-81.539 47.499-.301c4.74 0 8.58 3.876 8.58 8.658l6.212 72.388z" fill="#AE2F2F"/>
        <path d="M154.695 226.74a5.546 5.546 0 0 0-4.772 6.103l7.531 68.449c1.072 9.54 9.143 16.754 18.748 16.754h19.914a5.589 5.589 0 1 0 0-11.176h-18.12c-4.808 0-8.185-3.404-8.82-8.168l-8.236-67.184a5.548 5.548 0 0 0-6.245-4.777" fill="#932727"/>
        <path fill="#242429" d="M200.031 330.95h12.407v-6.448h-12.407z"/>
        <path d="M208.558 390.957h-4.82a3.706 3.706 0 0 1-3.708-3.705v-22.126a3.707 3.707 0 0 1 3.708-3.705h4.82a3.707 3.707 0 0 1 3.707 3.705v22.126a3.706 3.706 0 0 1-3.707 3.705" fill="#E0E0E0"/>
        <path d="M208.558 390.957c-.001-.027.273-.018.768-.132a3.735 3.735 0 0 0 1.866-1.109c.32-.35.606-.808.78-1.357.19-.55.166-1.178.157-1.877l-.037-4.712-.051-12.263-.008-3.543c-.008-.616.033-1.208-.131-1.757a3.456 3.456 0 0 0-2.367-2.403c-.568-.178-1.189-.137-1.85-.14h-3.945c-1.253-.005-2.45.714-3.032 1.784a3.551 3.551 0 0 0-.437 1.734l-.002 1.9-.014 7.243-.053 12.264c-.044.888.037 1.663.406 2.343a3.626 3.626 0 0 0 1.487 1.487c.595.317 1.22.43 1.805.422l1.624.022 2.25.045c.514.016.784.032.784.05 0 .016-.27.033-.785.049-.558.01-1.306.026-2.249.045l-1.624.021a3.917 3.917 0 0 1-1.93-.412 3.9 3.9 0 0 1-1.634-1.58 3.924 3.924 0 0 1-.412-1.191c-.083-.434-.058-.871-.066-1.3l-.052-12.265a44720.836 44720.836 0 0 1-.016-9.143 4.03 4.03 0 0 1 .495-1.97c.66-1.218 2.026-2.04 3.455-2.034h3.946c.63.007 1.32-.04 1.984.164a3.931 3.931 0 0 1 2.687 2.74c.185.644.135 1.294.14 1.882l-.008 3.543-.052 12.263-.036 4.712c-.003.68.01 1.368-.208 1.949-.199.58-.515 1.056-.863 1.415a3.71 3.71 0 0 1-1.983 1.076c-.516.085-.79.035-.79.035" fill="#263238"/>
        <path d="M241.863 389.13h-72.83c-2.136 0-3.9.71-5.242 2.111-2.7 2.82-2.531 7.447-2.523 7.642l3.314-.14c-.035-.948.185-3.734 1.613-5.217.7-.726 1.63-1.08 2.838-1.08h19.108v8.459h3.318v-8.459h50.404a3.871 3.871 0 0 1 3.868 3.866v2.5h3.317v-2.5c0-3.96-3.224-7.182-7.185-7.182" fill="#E0E0E0"/>
        <path d="M241.863 389.13s.308-.023.906.032c.597.056 1.493.242 2.544.781a7.362 7.362 0 0 1 3.022 3.061c.4.764.694 1.668.786 2.662.069.999.027 2.033.045 3.145l.002.119h-.12l-3.317.012h-.123l-.008-.13c-.092-1.62.374-3.6-.98-4.987a3.722 3.722 0 0 0-2.457-1.208c-.975-.027-2.022-.002-3.071-.006l-13.841.028-33.792.04.232-.233.005 8.458v.238h-.237l-3.317.002h-.24v-.24l-.003-8.458.242.242-10.849.001-8.574.01c-.674.032-1.331.215-1.868.587-.541.368-.938.92-1.23 1.52-.574 1.21-.807 2.606-.798 3.93l.002.239-.232.009-3.314.138-.245.01-.004-.239c-.022-1.585.203-3.14.712-4.614.502-1.466 1.348-2.843 2.56-3.82 1.205-.985 2.743-1.483 4.244-1.545 1.493-.028 2.932-.006 4.377-.01l16.516.017 27.548.053 18.264.072 4.91.041 1.27.022c.287.006.433.021.433.021s-.146.015-.432.022l-1.27.022-4.911.04-18.264.072-27.548.054c-5.235.005-10.756.01-16.516.017-1.435.008-2.908-.01-4.353.017-1.427.064-2.853.53-3.975 1.45-1.127.912-1.924 2.203-2.406 3.61-.486 1.404-.703 2.936-.681 4.439l-.25-.228c1.098-.047 2.202-.094 3.315-.14l-.23.248c-.008-1.421.224-2.837.843-4.159.315-.649.76-1.278 1.39-1.706.624-.434 1.381-.638 2.116-.674l8.601-.012 10.849.002h.243l-.001.242-.003 8.458-.238-.238h3.317l-.238.238.005-8.458v-.233h.233l33.792.04 13.84.028c1.06.01 2.071-.01 3.097.024 1.041.084 2 .59 2.652 1.322a3.983 3.983 0 0 1 1.027 2.6l-.005 2.584-.131-.13 3.317.012-.119.118c-.01-1.103.041-2.164-.018-3.127a7.008 7.008 0 0 0-.738-2.597 7.285 7.285 0 0 0-2.919-3.034c-1.023-.547-1.903-.753-2.492-.828-.59-.075-.9-.076-.9-.095" fill="#263238"/>
        <path d="M196.19 404.848a6.488 6.488 0 0 1-6.491 6.487 6.489 6.489 0 0 1-6.49-6.487 6.49 6.49 0 0 1 6.49-6.487 6.489 6.489 0 0 1 6.49 6.487M169.418 403.261a6.488 6.488 0 0 1-6.49 6.487 6.489 6.489 0 0 1-6.491-6.487 6.49 6.49 0 0 1 6.49-6.487 6.489 6.489 0 0 1 6.49 6.487M253.13 403.497a6.488 6.488 0 0 1-6.49 6.487 6.489 6.489 0 0 1-6.491-6.487 6.49 6.49 0 0 1 6.49-6.487 6.489 6.489 0 0 1 6.49 6.487M248.872 306.884c.001.135-16.001.303-35.736.376-19.743.073-35.742.023-35.743-.111 0-.134 15.998-.302 35.74-.376 19.736-.073 35.74-.023 35.74.111" fill="#242429"/>
        <path d="M169.253 297.608c-.134.016-2.102-14.766-4.398-33.014-2.296-18.253-4.05-33.06-3.915-33.076.133-.017 2.102 14.762 4.398 33.016 2.295 18.247 4.049 33.057 3.915 33.074" fill="#263238"/>
        <path d="M160.347 226.585c-.004-.015.167-.066.5-.135.335-.056.833-.134 1.479-.15 1.282-.031 3.19.034 5.39.83 1.083.402 2.24 1.089 3.14 2.136.923 1.021 1.689 2.273 2.41 3.612a286.765 286.765 0 0 0 4.675 8.676c3.438 6.089 6.665 11.543 8.852 15.576 1.105 2.01 1.959 3.66 2.536 4.805l.644 1.33c.142.306.21.47.195.479-.015.008-.112-.142-.282-.434l-.725-1.286-2.668-4.726c-2.262-3.985-5.533-9.408-8.976-15.506a232.165 232.165 0 0 1-4.647-8.702c-.703-1.332-1.44-2.562-2.317-3.556-.855-1.019-1.913-1.666-2.963-2.084-2.116-.812-3.998-.935-5.262-.96-1.276-.015-1.974.138-1.981.095" fill="#242429"/>
        <path d="M150.306 230.127c.116.068-4.182 7.56-9.597 16.73-5.417 9.174-9.902 16.554-10.018 16.485-.116-.068 4.18-7.557 9.598-16.732 5.416-9.171 9.901-16.552 10.017-16.483" fill="#263238"/>
        <path fill="#FAFAFA" d="M123.204 286.271h77.806v-22.93h-77.806z"/>
        <path fill="#263238" d="m144.185 270.462-3.808 8.792h-2.01l-3.796-8.792h2.199l2.677 6.28 2.714-6.28zM149.774 275.825l-1.395-3.366-1.395 3.366h2.79zm.64 1.544h-4.084l-.78 1.885h-2.086l3.922-8.792h2.01l3.934 8.792h-2.136l-.78-1.885zM153.565 274.858c0-2.651 2.036-4.547 4.775-4.547 1.521 0 2.79.553 3.62 1.558l-1.307 1.205c-.59-.678-1.332-1.03-2.212-1.03-1.646 0-2.814 1.156-2.814 2.814 0 1.658 1.168 2.814 2.814 2.814.88 0 1.621-.352 2.212-1.044l1.307 1.207c-.83 1.017-2.099 1.57-3.632 1.57-2.727 0-4.763-1.897-4.763-4.547M168.303 275.825l-1.395-3.366-1.394 3.366h2.79zm.641 1.544h-4.085l-.779 1.885h-2.086l3.922-8.792h2.01l3.933 8.792h-2.136l-.779-1.885zM180.841 270.462v8.792h-1.671l-4.387-5.338v5.338h-2.01v-8.792h1.684l4.373 5.338v-5.338zM184.746 272.12h-2.815v-1.658h7.666v1.658h-2.815v7.134h-2.036z"/>
        <path d="M198.495 284.183a3.348 3.348 0 0 1-.015-.333l-.015-.954-.035-3.676-.08-13.766.145.147-73.388.097c.108-.108-.245.242.24-.243v4.781l-.002 4.722-.004 9.225-.237-.238 52.327.108 15.434.067 4.165.032 1.086.015c.246.006.38.016.38.016a2.86 2.86 0 0 1-.35.015l-1.056.016-4.113.032-15.38.067-52.493.108h-.239v-.238l-.004-9.225-.001-4.722V265.455c.488-.488.138-.135.247-.244l73.388.097h.147v.146l-.081 13.853-.036 3.644-.015.927c-.005.207-.01.31-.015.305" fill="#242429"/>
        <path d="m247.552 37.396-.945-19.855a3.22 3.22 0 0 0-6.412-.25l-2.516 19.9a2.526 2.526 0 0 0 2.503 2.843l4.841.008a2.527 2.527 0 0 0 2.529-2.646M238.547 3.245a4.844 4.844 0 0 1 9.146 3.195 4.846 4.846 0 0 1-6.172 2.974 4.842 4.842 0 0 1-2.974-6.169" fill="#E0E0E0"/>
        <path d="m195.557 62.487-11.571-9.797a2.455 2.455 0 0 0-3.475 3.444l9.797 11.75c.742.89 2.097.93 2.888.083l2.523-2.695a1.925 1.925 0 0 0-.162-2.785M171.816 49.748a3.69 3.69 0 0 1 1.55-4.986 3.692 3.692 0 1 1 3.44 6.536 3.696 3.696 0 0 1-4.99-1.55" fill="#F5F5F5"/>
        <path d="m185.744 16.309 17.79 30.127a5.67 5.67 0 0 0 7.143 2.315 5.665 5.665 0 0 0 3.042-7.19l-12.44-33.04a4.448 4.448 0 0 0-6.232-2.369l-7.542 3.963a4.443 4.443 0 0 0-1.761 6.194M227.829 62.068c.701 4.654-2.505 8.994-7.162 9.694-4.655.701-8.998-2.504-9.699-7.157-.7-4.654 2.506-8.994 7.161-9.695 4.656-.7 8.999 2.504 9.7 7.158" fill="#E0E0E0"/>
        <path d="M290.485 126.28c-.054.143-2.052-.486-4.463-1.403-2.413-.918-4.323-1.776-4.269-1.918.054-.141 2.052.488 4.463 1.405s4.322 1.775 4.269 1.917" fill="#455A64"/>
        <path d="M278.52 145.144c-.978-.109-3.46 1.144-5.557 3.642-.034.038-.07.07-.105.11-1.486 1.673-2.41-3.465-2.51-5.36-.063-1.23-1.33-2.072-2.555-1.714l-6.524 2.51-1.85-.066c-.953.279-1.537 1.198-1.359 2.143l2.322 10.181-.126 2.727 12.53 2.597.672-6.802c.244-.774.56-1.686.971-2.723a8.673 8.673 0 0 1 1.58-2.564c.707-.793 1.664-1.79 2.448-2.334.07-.04.15-.095.216-.125.16-.073.28-.175.383-.287.688-.648.417-1.83-.537-1.935" fill="#FFBE9D"/>
        <path d="M275.773 116.454s-7.477-.93-18.72-9.866c-11.242-8.936-17.327-21.637-18.582-21.454-1.255.182-7.006-1.854-15.337 21.913-8.33 23.77-3.704 28.67-1.623 28.432 2.081-.24 15.867-5.516 24.805-5.344 8.938.172 20.74 3.707 20.74 3.707l8.717-17.388z" fill="#FDA228"/>
        <path d="m292.506 127.406-2.051 4.985-.92 2.232a6.23 6.23 0 0 1-7.825 3.507l-16.215-3.99 7.177-21.724 16.473 6.878a6.225 6.225 0 0 1 3.36 8.112" fill="#263238"/>
        <path d="m286.12 134.772-5.432 9.626-2.482-.8-16.952 12.65-4.21-9.158s9.864-3.77 11.8-7.149c1.935-3.378-.102-4.248-.102-4.248l4.776-4.99 12.601 4.069z" fill="#263238"/>
        <path d="M224.02 107.383c-4.413 12.866-5.697 24.081-2.869 25.051 2.828.97 8.699-8.675 13.112-21.542 4.413-12.866 5.698-24.082 2.87-25.05-2.83-.97-8.7 8.675-13.113 21.54" fill="#242429"/>
        <path fill="#455A64" d="m294.5 134.141-4.381-.935 2.161-5.252 3.38 1.682zM289.457 129.384c-.05.144-2.251-.482-4.917-1.396-2.668-.914-4.79-1.772-4.74-1.915.05-.143 2.25.482 4.917 1.396 2.667.915 4.789 1.772 4.74 1.915M288.1 132.666c-.015.075-.531.006-1.361-.167a48.162 48.162 0 0 1-1.453-.332c-.542-.14-1.112-.364-1.72-.574-2.431-.86-4.309-1.751-4.262-1.882.054-.154 2.034.512 4.442 1.364.603.207 1.167.446 1.692.61.529.156 1.002.306 1.398.438.793.267 1.28.47 1.265.543"/>
        <path d="M235.13 103.568s-6.738-3.346-9.411 5.579c-2.673 8.925 4.159 9.708 4.159 9.708 2.34-4.507 4.109-9.586 5.253-15.287" fill="#FAFAFA"/>
        <path d="M240.936 92.684c.038.003.002.595-.094 1.666-.103 1.07-.244 2.621-.475 4.532l-.596 3.091-.336 1.723-.178.9c-.067.302-.164.602-.247.91a8147.298 8147.298 0 0 1-1.376 4.853c-.092.34-.238.666-.357 1.003l-.762 2.04-.765 2.039c-.133.332-.238.673-.39.99l-.446.95-1.706 3.616c-.14.286-.264.576-.412.848l-.46.797-.878 1.523-1.585 2.724c-1.078 1.59-1.989 2.849-2.614 3.722-.63.87-.994 1.341-1.025 1.32-.032-.022.272-.533.847-1.44l2.47-3.819 1.514-2.738.847-1.521.444-.796c.144-.271.264-.562.4-.847.53-1.15 1.088-2.355 1.665-3.605l.439-.944c.15-.316.253-.655.384-.986l.757-2.026.76-2.023c.118-.335.264-.658.357-.996l.29-1 1.113-3.81c.085-.304.185-.601.256-.901.063-.301.125-.598.188-.891l.36-1.707.659-3.062.645-4.49c.162-1.062.27-1.648.307-1.645" fill="#263238"/>
        <path d="M265.719 139.762c-.697.245-1.088 1.018-.885 1.755.39 1.408 1.023 3.62 1.52 4.967.16.435.334.878.64 1.216.305.338.775.553 1.205.423.454-.136.747-.623.815-1.11.07-.488-.045-.98-.161-1.455-.325-1.315-.904-3.287-1.406-4.895-.234-.75-1.01-1.153-1.728-.901" fill="#FFBE9D"/>
        <path d="M263.621 142.162c-.697.245-1.088 1.019-.885 1.755.39 1.408 1.024 3.62 1.52 4.968.16.434.334.877.64 1.215.305.339.775.554 1.205.425.454-.138.747-.625.816-1.112.069-.487-.044-.98-.162-1.455-.325-1.315-.904-3.287-1.406-4.894-.234-.75-1.009-1.154-1.728-.902" fill="#FFBE9D"/>
        <path d="M261.657 143.641c-.63.21-.982.88-.796 1.517.357 1.222.936 3.139 1.389 4.308.145.376.303.76.581 1.054.278.293.703.48 1.092.37.41-.117.674-.539.735-.96.06-.422-.043-.848-.15-1.261-.298-1.14-.828-2.85-1.286-4.243a1.234 1.234 0 0 0-1.565-.785" fill="#FFBE9D"/>
        <path d="M259.182 144.011a1.24 1.24 0 0 0-.8 1.525c.359 1.227.94 3.153 1.396 4.327.146.378.305.764.584 1.06.279.294.707.484 1.097.371.412-.117.677-.54.738-.965.06-.423-.043-.852-.151-1.266-.299-1.144-.83-2.863-1.291-4.263a1.24 1.24 0 0 0-1.573-.789" fill="#FFBE9D"/>
        <path d="M266.861 147.745c-.133.046-.633-1.072-1.115-2.497-.482-1.425-.764-2.616-.63-2.662.134-.045.634 1.073 1.115 2.497.483 1.425.764 2.618.63 2.662M264.617 149.703c-.135.041-.664-1.245-1.181-2.874-.517-1.628-.828-2.986-.694-3.032.134-.045.663 1.241 1.182 2.874.517 1.634.829 2.991.693 3.032M262.412 149.83c-.127.056-.733-1.036-1.221-2.488-.492-1.452-.67-2.687-.535-2.719.14-.033.538 1.13 1.02 2.556.48 1.428.868 2.593.736 2.65" fill="#EB996E"/>
        <path d="M340.354 115.852c-3.563-6.018-9.999-9.923-16.744-11.78-2.839-.782-4.763-.565-7.688-.235-2.926.33-5.692 1.45-7.73 3.573-2.423 2.52-4.577 5.429-5.478 8.806-.924 3.47-1.853 6.962-2.127 10.541-.273 3.58.145 7.291 1.79 10.482l8.772 2.937c4.95.928 9.97 1.86 14.991 1.464 5.02-.396 10.128-2.285 13.372-6.135 4.507-5.35 4.406-13.635.842-19.653" fill="#242429"/>
        <path d="M345.097 142.24c.086-2.067-.675-4.226-2.278-5.534-1.6-1.308-4.078-1.575-5.762-.374l-1.672 1.47c-2.364.607-4.143 2.916-4.24 5.353-.097 2.437 1.424 4.83 3.624 5.884 2.2 1.055 4.949.777 6.963-.599 2.015-1.374 3.263-3.764 3.365-6.2" fill="#263238"/>
        <path d="M342.385 148.04c-.062-.042.651-.522.758-1.719.1-1.164-.507-2.802-1.445-4.362a12.322 12.322 0 0 0-3.168-3.443c-.97-.727-1.664-1.045-1.63-1.115.015-.043.765.175 1.81.855 1.047.663 2.37 1.835 3.37 3.468.5.812.873 1.648 1.118 2.437.25.785.363 1.558.26 2.199-.096.641-.38 1.107-.623 1.366-.248.26-.436.335-.45.313M337.62 150.035c-.146-.032.883-2.66.506-6.01-.327-3.353-1.88-5.71-1.744-5.772.042-.028.485.512.987 1.519.504 1.001 1.019 2.494 1.202 4.208.177 1.714-.017 3.28-.301 4.364-.283 1.089-.604 1.71-.65 1.69" fill="#455A64"/>
        <path d="M308.18 158.963c.542-3.15 1.75-9.903 1.746-9.889 0 0-7.223-1.928-7.817-11.648-.295-4.835.7-12.618 1.72-18.96.917-5.707 6.974-12.748 14.039-11.697l3.193.114 11.283 6.602a3.383 3.383 0 0 1 2.683 3.706l-6.182 40.815-17.49 34.208-3.95-24.267.775-8.984z" fill="#FFBE9D"/>
        <path d="M307.082 125.433c-.086.647.39 1.252 1.065 1.354.672.101 1.287-.338 1.373-.985.086-.645-.391-1.252-1.063-1.354-.674-.101-1.29.34-1.375.985M305.629 122.347c.137.175 1.134-.423 2.456-.292 1.322.112 2.226.886 2.386.738.077-.064-.051-.369-.444-.717-.386-.346-1.066-.712-1.89-.79-.823-.074-1.546.163-1.973.434-.437.272-.603.549-.535.627M312.353 133.528c.013-.074-.795-.295-2.11-.595-.334-.067-.647-.165-.681-.4-.056-.252.12-.602.322-.979l1.247-2.472c1.74-3.523 3.035-6.434 2.893-6.502-.144-.07-1.67 2.73-3.41 6.254-.42.87-.823 1.699-1.207 2.492-.164.371-.426.784-.303 1.307.067.261.297.468.508.547.21.087.4.108.566.135 1.332.201 2.163.288 2.175.213" fill="#263238"/>
        <path d="M309.927 149.074s6.403 1.04 13.158-2.179c0 0-4.06 6.305-13.56 4.482l.402-2.303z" fill="#EB996E"/>
        <path d="M306.665 117.687c.204.322 1.145.099 2.241.19 1.1.052 2.003.397 2.247.104.108-.143-.009-.458-.387-.781-.372-.322-1.017-.618-1.772-.668-.754-.049-1.433.16-1.843.43-.417.271-.573.568-.486.725M322.198 126.4c-.064.648-.666 1.128-1.345 1.074-.678-.054-1.177-.623-1.112-1.272.063-.648.666-1.13 1.344-1.075.679.054 1.178.624 1.113 1.273M323.123 123.446c-.173.14-1.007-.67-2.324-.844-1.312-.193-2.37.354-2.491.173-.06-.08.134-.347.595-.597.455-.25 1.2-.45 2.02-.336.82.115 1.468.51 1.824.87.362.366.46.673.376.734M322.924 118.942c-.271.267-1.137-.165-2.225-.326-1.082-.2-2.04-.07-2.21-.411-.074-.165.112-.444.554-.673.435-.228 1.13-.37 1.878-.246.745.125 1.358.483 1.695.84.344.359.43.684.308.816" fill="#263238"/>
        <path d="m332.997 130.6-1.905 1.455c-6.066-7.878-17.354-27.008-16.733-25.877 0 0 5.172-1.258 10.316.446 5.144 1.704 14.759 5.873 13.656 12.076-1.103 6.203-5.334 11.9-5.334 11.9" fill="#242429"/>
        <path d="M336.926 136.707c-.038-.007.056-.543.166-1.513.114-.968.19-2.384.075-4.121-.2-3.467-1.476-8.246-4.32-12.752-2.847-4.51-6.42-7.855-9.081-10.102a89.15 89.15 0 0 0-3.237-2.59c-.777-.597-1.206-.93-1.188-.957.01-.012.128.054.348.192.218.139.54.343.943.624.81.553 1.964 1.387 3.335 2.487 2.726 2.196 6.372 5.536 9.26 10.108 2.886 4.573 4.136 9.452 4.256 12.971.076 1.764-.05 3.194-.22 4.164-.063.487-.17.857-.223 1.11-.06.252-.099.383-.114.38" fill="#455A64"/>
        <path d="M323.476 104.914c.009-.013.132.05.36.181.228.13.558.334.978.603a48.974 48.974 0 0 1 3.446 2.45 55.41 55.41 0 0 1 4.731 4.12c1.676 1.656 3.507 3.54 4.96 5.884a14.938 14.938 0 0 1 1.656 3.658c.36 1.254.51 2.511.52 3.703.014 2.391-.469 4.5-.964 6.213a42.383 42.383 0 0 1-1.86 5.043c-.108.239-.173.362-.187.357-.031-.013.15-.534.475-1.475.323-.94.802-2.298 1.267-4.01.452-1.708.893-3.793.856-6.121a13.671 13.671 0 0 0-.529-3.589 14.696 14.696 0 0 0-1.615-3.545c-1.416-2.287-3.217-4.162-4.868-5.824a62.47 62.47 0 0 0-4.64-4.166 72.342 72.342 0 0 0-3.346-2.554c-.807-.583-1.258-.899-1.24-.928M333.1 130.781c-.027.017-.283-.321-.722-.947l-1.828-2.673a752.968 752.968 0 0 1-5.885-8.905 746.758 746.758 0 0 1-5.778-8.978l-1.708-2.749c-.395-.655-.602-1.026-.576-1.042.026-.017.281.32.72.945l1.827 2.67a764.819 764.819 0 0 1 5.89 8.91 765.458 765.458 0 0 1 5.777 8.98l1.708 2.748c.395.655.6 1.024.575 1.041" fill="#455A64"/>
        <path d="M331.177 133.127c.071-.713 1.059-2.314 1.774-2.356 1.909-.111 5.285.367 4.854 5.146-.589 6.53-7.028 4.593-7.023 4.405.005-.148.151-4.734.395-7.195" fill="#FFBE9D"/>
        <path d="M332.585 137.868c.031-.018.107.09.29.196.181.102.498.191.85.094.714-.19 1.394-1.234 1.532-2.409a3.76 3.76 0 0 0-.172-1.657c-.156-.496-.435-.858-.778-.95a.582.582 0 0 0-.7.25c-.104.176-.074.31-.11.318-.019.015-.13-.123-.053-.387a.725.725 0 0 1 .295-.387.864.864 0 0 1 .644-.11c.5.081.912.586 1.097 1.12.214.54.31 1.19.231 1.856-.16 1.313-.946 2.484-1.915 2.672-.47.077-.842-.096-1.026-.267-.188-.18-.208-.33-.185-.339" fill="#EB996E"/>
        <path d="M346.525 374.934c-.133 1.029-2.668 29.764-2.668 29.764h-13.171l-2.31-29.645 18.149-.12z" fill="#FFBE9D"/>
        <path d="M330.652 400.419s9.248 6.56 13.725.88l1.17 2.753 5.26 19.607c.34 1.27-.255 2.668-1.479 3.147-.942.37-1.98.161-2.691-.514-3.805-3.617-17.734-16.991-17.598-18.806l.054-4.815a2.448 2.448 0 0 1 1.56-2.252" fill="#AE2F2F"/>
        <path d="m348.874 426.939-19.842-21.128.005 1.052c-.1 1.14.399 1.59.94 2.32 1.605 2.164 6.049 7.004 16.584 17.11a2.543 2.543 0 0 0 2.313.646" fill="#263238"/>
        <path d="M331.939 402.679c.624.428.831 1.367.43 2.008-.402.64-1.356.859-1.988.443-.63-.417-.915-1.537-.443-2.129.47-.591 1.605-.787 2.118-.231" fill="#FFF"/>
        <path d="M343.154 416.118c.14.068.695-1.234 2.17-1.94 1.452-.748 2.826-.404 2.856-.557.021-.061-.294-.253-.876-.333-.575-.082-1.415.003-2.223.403-.807.403-1.382 1.02-1.664 1.53-.287.51-.325.878-.263.897M344.936 419.435c.119.106.913-.704 2.195-1.077 1.275-.4 2.385-.167 2.424-.322.071-.127-1.126-.649-2.582-.2-1.46.434-2.167 1.532-2.037 1.599M339.844 411.872c.117.118 1.331-1.134 3.276-1.89 1.932-.785 3.675-.708 3.68-.873.04-.133-1.807-.47-3.882.367-2.082.815-3.194 2.327-3.074 2.396M339.403 405.903c.068.149 1.436-.43 3.222-.501 1.784-.097 3.2.35 3.254.197.067-.122-1.363-.841-3.28-.742-1.918.082-3.275.931-3.196 1.046" fill="#263238"/>
        <path d="M343.641 405.348c.031-.006.025-.344-.139-.929a6.54 6.54 0 0 0-1.187-2.28c-.349-.403-.732-.935-1.473-1.128-.37-.1-.863.058-1.092.435-.228.368-.243.786-.18 1.174.316 1.544 1.927 2.792 3.711 2.689 1.786-.136 3.184-1.43 3.626-2.898.087-.374.112-.818-.155-1.195-.264-.381-.79-.454-1.129-.329-.705.244-1.084.748-1.452 1.137a7.277 7.277 0 0 0-1.31 2.207c-.21.57-.248.905-.217.913.097.048.392-1.314 1.813-2.863.364-.362.777-.813 1.29-.96.25-.071.488-.011.617.176.13.18.136.496.056.792-.38 1.204-1.662 2.385-3.173 2.476-1.502.103-2.917-.997-3.182-2.237-.06-.3-.037-.617.09-.825a.554.554 0 0 1 .599-.25c.51.103.925.556 1.265.934 1.364 1.599 1.519 3.006 1.622 2.96" fill="#263238"/>
        <path fill="#FFBE9D" d="m274.194 365.583 2.27 36.678 15.95-.11 2.696-38.108z"/>
        <path d="m276.174 397.839-.009 1.06s-18.013 7.146-18.218 10.555l35.71-.037-.498-11.876c-5.308 2.463-10.863 2.746-16.985.298" fill="#AE2F2F"/>
        <path d="M289.547 401.342c.691.187 1.17.964 1.01 1.662-.16.698-.946 1.191-1.64 1.014-.694-.175-1.297-1.089-1.06-1.765.236-.676 1.19-1.204 1.822-.867" fill="#FFF"/>
        <path d="m293.657 409.417-.12-2.856-34.182 1.081s-1.59.693-1.408 1.812l35.71-.037zM276.04 399c.006.173.878.251 1.737.811.873.537 1.316 1.291 1.476 1.222.161-.034-.1-1.075-1.152-1.735-1.045-.668-2.1-.459-2.06-.299M272.296 400.551c-.039.17.716.465 1.31 1.202.614.718.764 1.515.938 1.508.163.027.283-.994-.471-1.896-.747-.908-1.773-.98-1.777-.814M270.174 405.034c.159.037.4-.835-.049-1.788-.442-.957-1.264-1.333-1.338-1.188-.098.144.432.655.789 1.444.374.78.425 1.515.598 1.532" fill="#263238"/>
        <path d="M295.106 252.061c-.474 1.374-19.39 65.417-19.39 65.417l-3.254 75.991 23.545 1.358 8.426-75.873L325.94 271.5l-9.451-38.603h-19.237l-2.146 19.164z" fill="#242429"/>
        <path d="M311.863 232.897c.335.915 12.4 44.379 12.4 44.379l1.677 64.79v53.598h21.45l9.997-118.212s1.764-21.451-1.253-28.713c-3.016-7.262-15.244-19.91-15.244-19.91l-29.027 4.068z" fill="#242429"/>
        <path d="M313.587 237.342c.033-.008.204.532.486 1.514l1.213 4.151 4.117 13.67c1.584 5.35 2.881 10.238 3.63 13.821.388 1.789.644 3.248.792 4.26.146 1.014.212 1.575.18 1.58-.035.006-.163-.546-.366-1.546-.205-1-.513-2.445-.942-4.218-.833-3.553-2.178-8.414-3.76-13.76-1.586-5.343-3.036-10.18-3.983-13.712a108.984 108.984 0 0 1-1.064-4.2c-.226-.996-.335-1.551-.303-1.56M320.991 237.342c.034.08-.75.1-1.344.965-.282.414-.447 1.04-.187 1.64.236.59.862 1.134 1.59 1.172.73.03 1.404-.454 1.694-1.02.314-.573.206-1.211-.036-1.65-.511-.916-1.289-1.009-1.249-1.085.003-.027.184-.049.492.054.303.1.731.358 1.055.856.323.476.512 1.284.139 2.025-.343.717-1.146 1.337-2.117 1.307-.968-.06-1.711-.752-1.986-1.496-.303-.772-.04-1.56.326-2.004.368-.467.817-.683 1.128-.755.316-.074.495-.036.495-.009M340.039 268.55c.008 0 .016.11.023.326l.02.957.028 3.683c.02 3.198-.015 7.825-.106 13.542-.168 11.434-.681 27.224-1.35 44.655-.671 17.438-1.238 33.222-1.496 44.651-.134 5.715-.221 10.34-.26 13.536l-.062 3.681-.029.957c-.01.216-.019.326-.027.326-.009 0-.016-.11-.023-.326l-.02-.957-.027-3.682c-.02-3.197.014-7.824.104-13.541.17-11.435.682-27.225 1.352-44.663.67-17.432 1.237-33.215 1.494-44.644.135-5.715.223-10.34.26-13.536l.064-3.682.029-.957c.009-.216.017-.326.026-.326M306.935 260.746c.007.003-.03.116-.109.334l-.363.963-1.446 3.68-5.4 13.503c-2.24 5.713-4.884 12.531-7.373 20.251-2.47 7.71-4.913 16.34-5.935 25.634-.49 4.645-.706 9.223-.99 13.628l-.69 12.718-1.11 21.54c-.336 6.132-.655 11.091-.912 14.516l-.32 3.94-.098 1.025c-.025.23-.042.347-.05.347-.01 0-.008-.12 0-.351.012-.256.03-.596.05-1.028l.228-3.947c.2-3.427.465-8.387.757-14.52l1.007-21.544.66-12.723c.28-4.412.492-8.978.983-13.653 1.03-9.35 3.494-18.003 5.994-25.721 2.518-7.727 5.197-14.54 7.48-20.24 2.295-5.697 4.224-10.277 5.545-13.446l1.529-3.647.408-.943c.095-.213.147-.32.155-.316" fill="#455A64"/>
        <path d="M339.295 156.415s12.764 2.38 15.57 4.716c2.74 2.284 28.362 35.652 28.893 42.38.531 6.727-2.579 9.196-4.35 10.789-1.772 1.593-32.317 22.32-32.317 22.32l-9.39-15.582 26.394-15.757-12.739-21.78-12.06-27.086z" fill="#80D363"/>
        <path d="M372.624 199.315c.026.154-2.528.132-5.068 1.753-2.57 1.574-3.667 3.879-3.794 3.787-.05-.021.14-.623.698-1.47.552-.846 1.519-1.902 2.838-2.73 1.32-.822 2.695-1.23 3.697-1.355 1.006-.13 1.63-.039 1.629.015" fill="#FF725E"/>
        <path d="m308.371 158.029 3.383 30.685 17.267-34.6 11.133 11.304s6.84 40.412 6.935 40.699c.096.286-4.683 23.12-4.683 23.12l-31.64 6.114-9.655-2.453-1.529-35.942-.67-27.526 9.46-11.401z" fill="#FFF"/>
        <path d="m304.27 159.334-8.218 1.91a7.004 7.004 0 0 0-2.97 1.498c-7.017 6-22.174 18.693-22.174 18.693l2.789-22.522-14.558-1.391s-4.382 28.384-3.926 35.855c.529 8.67 8.306 10.8 19.632 6.138 12.544-5.164 20.248-9.985 20.248-9.985l9.177-30.196zM350.094 183.583l-1.5 26.91 1.507 5.234s14.171 26.734 16.474 44.439l-17.537 2.833s-4.783-22.84-8.149-34.17c-3.365-11.332-13.285-16.112-16.65-27.798-3.367-11.684-2.127-19.829-2.127-20.537 0-.709 6.909-26.38 6.909-26.38l1.239-5.368 6.201 5.9 15.943 5.31-2.31 23.627z" fill="#80D363"/>
        <path d="M358.455 233.621s-6.032 4.607-9.083 6.18a6.959 6.959 0 0 1-.701.299 2.798 2.798 0 0 1-3.431-1.289 38.927 38.927 0 0 1-1.008-1.946c-.649-1.386-1.344-3.059-1.967-4.508l1.967-.481 2.859 4.743 8.245-5.648 1.571-1.075 1.548 3.725z" fill="#4A842A"/>
        <path d="m308.524 154.999-3.834 4.007-9.187 3.223s-2.251 27.114-1.028 32.872c1.179 5.548 3.417 12.293 3.607 20.263.19 7.97-8.923 50.096-8.923 50.096l11.012 4.174s5.62-48.767 4.519-59.393c-1.102-10.626 1.746-32.07 1.746-32.07L308.524 155z" fill="#80D363"/>
        <path d="M329.372 206.697c-.013.011-.151-.14-.405-.441a9.223 9.223 0 0 1-.938-1.443c-.698-1.324-1.328-3.455-1.423-6.13-.107-2.676.196-5.838.648-9.325a81.8 81.8 0 0 1 2.333-11.199c2.036-7.328 4.97-13.654 7.5-18.139l.154.268-3.898-.125-.279-.01.164-.219c1.07-1.44 1.93-2.596 2.56-3.441l.694-.9c.16-.2.25-.302.26-.294.01.008-.056.124-.196.34l-.633.944-2.45 3.52-.114-.23 3.9.054.298.004-.144.264c-2.45 4.504-5.323 10.81-7.347 18.096a85.714 85.714 0 0 0-2.358 11.13c-.474 3.463-.81 6.614-.748 9.25.05 2.64.615 4.732 1.248 6.058.646 1.326 1.22 1.934 1.174 1.968" fill="#263238"/>
        <path d="M340.154 181.832c.024.128-1.984.606-4.512.859-2.526.259-4.59.193-4.591.063-.003-.139 2.037-.29 4.543-.547 2.505-.25 4.536-.511 4.56-.375M351.34 175.597c.036.01-.05.494-.196 1.363a85.828 85.828 0 0 0-.43 3.72c-.302 3.15-.605 7.515-.902 12.34l-.75 12.36a156.231 156.231 0 0 1-.284 3.745c-.085.883-.151 1.37-.184 1.367-.034-.002-.032-.493-.005-1.379l.13-3.75c.123-3.168.314-7.542.607-12.373.297-4.828.655-9.196 1.046-12.348.193-1.575.407-2.845.586-3.716.205-.868.353-1.337.382-1.329M371.748 206.14c-.047.139-1.772-.416-3.973-.572-2.2-.174-3.988.117-4.014-.027-.035-.117 1.77-.637 4.05-.458 2.282.163 3.99.947 3.937 1.057M270.999 180.877c.122.055-.455 1.615-1.288 3.485-.835 1.87-1.611 3.341-1.734 3.287-.123-.055.454-1.615 1.289-3.485.833-1.87 1.61-3.342 1.733-3.287M293.92 171.896c.135-.003.346 5.288.471 11.817.126 6.53.12 11.825-.015 11.826-.134.003-.346-5.287-.471-11.817-.126-6.528-.12-11.823.015-11.826M304.818 194.114c-.033 0-.072-.484-.115-1.363l-.137-3.726c-.093-3.146-.19-7.494-.265-12.296a931.16 931.16 0 0 1-.123-12.301c.008-1.504.013-2.756.019-3.727.015-.88.039-1.367.073-1.367.033 0 .073.487.116 1.367.035.97.08 2.223.136 3.726.094 3.146.19 7.492.266 12.294.075 4.8.116 9.146.122 12.294l-.019 3.73c-.015.88-.039 1.368-.073 1.369" fill="#263238"/>
        <path d="M374.025 218.17c.008.013-.165.148-.503.397l-1.498 1.075-5.616 3.934-19.182 13.24-.209.143-.13-.217-4.206-6.97-5.182-8.612-.123-.203.204-.12c7.592-4.494 14.193-8.4 18.94-11.208 2.334-1.36 4.211-2.454 5.546-3.23l1.497-.848c.343-.19.525-.283.532-.27.007.013-.16.129-.49.34l-1.456.916-5.475 3.35-18.852 11.354.08-.324 5.196 8.604 4.197 6.975-.34-.074 19.278-13.102 5.697-3.816 1.543-1.008c.354-.225.543-.337.552-.325" fill="#263238"/>
        <path d="M328.086 204.679c-.453-3.992.215-8.024 1.084-11.948a117.081 117.081 0 0 1 11.8-31.24c-1.185-.801-2.868-.446-3.98.456-1.111.9-1.776 2.227-2.379 3.525-4.086 8.794-6.776 18.277-7.71 27.928-.217 2.248-.326 3.694-.14 5.648.186 1.956.188 4.013 1.403 5.556" fill="#4A842A"/>
        <path d="M293.889 173.853c-2.905 5.052-2.52 11.124.259 16.246 0-5.634 0-10.517-.337-16.168" fill="#38771C"/>
        <path d="M316.497 136.425c-.075-.328-.234-.667-.537-.812-.187-.091-.403-.094-.61-.091a14.33 14.33 0 0 0-3.598.514l-.068.185c.076.52.152 1.043.323 1.54.172.496.447.968.859 1.296.766.606 1.944.578 2.723-.013.778-.59 1.126-1.666.908-2.619" fill="#EB996E"/>
        <path d="M312.89 139.28c.018-.082.618.172 1.514-.088.436-.134.929-.41 1.259-.898.33-.478.503-1.161.335-1.809-.077-.321-.245-.607-.467-.722-.218-.119-.53-.079-.837-.016l-1.688.317c-.965.167-1.569.237-1.583.172-.015-.066.563-.256 1.509-.508l1.667-.42c.311-.068.72-.174 1.15.03.415.216.621.635.72 1.026.209.81-.022 1.628-.44 2.192a2.573 2.573 0 0 1-1.54.97c-1.047.196-1.637-.212-1.6-.245" fill="#263238"/>
        <path d="M333.283 140.219c-.25-.662-1.068-1.223-1.756-1.059l.018.003a1.419 1.419 0 0 0-1.032.64c-.38.596-.31 1.447.171 1.966.481.52 1.334.651 1.944.292.61-.36.905-1.18.655-1.842" fill="#FAFAFA"/>
        <path d="m338.106 221.966-10.81-9.58-9.132.787s.315 1.495 1.575 1.732c1.26.236 5.826.314 5.826.314l2.14 2.125-5.447-.548-6.928 4.088s-.158 1.26 1.653.945c1.81-.315 5.275-1.731 5.275-1.731l4.028.236-4.397.63-5.693 4.012s1.18 1.338 2.992.787c1.81-.55 4.015-1.416 4.015-1.416l4.96-.473-4.96 1.26-3.7 4.563s1.151.866 2.386 0c1.235-.865 2.1-1.652 2.1-1.652l5.512-.236s6.087 4.406 8.2 4.878c2.113.473 6.532-.811 6.532-.811l-6.127-9.91z" fill="#FFBE9D"/>
        <path fill="#FAFAFA" d="M384.876 360.698h167.61v-93.671h-167.61z"/>
        <path d="M552.486 360.698s-.013-.578-.02-1.683l-.02-4.892-.047-18.725-.099-68.372.186.186-167.597.057h-.013l.244-.243-.017 93.672-.227-.227 120.547.11 34.63.062 9.231.028 2.385.013c.537.005.817.014.817.014s-.262.01-.79.014l-2.359.013-9.184.028-34.58.062-120.697.11h-.227v-.227l-.016-93.672v-.243h.256l167.597.057h.186v.186c-.041 28.81-.076 52.245-.1 68.487l-.046 18.683-.02 4.857c-.007 1.094-.02 1.645-.02 1.645" fill="#263238"/>
        <path fill="#CFCFCF" d="M405.36 313.036h23.695v-23.684H405.36z"/>
        <path d="M461.6 292.68c0 .135-5.531.243-12.352.243-6.823 0-12.352-.108-12.352-.243 0-.134 5.529-.243 12.352-.243 6.82 0 12.351.109 12.351.243" fill="#FF725E"/>
        <path d="M540.507 301.194c0 .135-23.196.243-51.802.243-28.618 0-51.809-.108-51.809-.243s23.19-.243 51.809-.243c28.606 0 51.802.108 51.802.243M505.647 310.746c0 .134-15.242.244-34.04.244-18.802 0-34.04-.11-34.04-.244 0-.135 15.238-.243 34.04-.243 18.798 0 34.04.108 34.04.243" fill="#263238"/>
        <path d="M527.673 348.283H413.18c-6.065 0-10.982-4.915-10.982-10.977s4.917-10.976 10.982-10.976h114.493c6.065 0 10.982 4.914 10.982 10.976 0 6.062-4.917 10.977-10.982 10.977" fill="#80D363"/>
        <path d="m448.939 337.783-.96-2.317-.96 2.317h1.92zm.44 1.063h-2.808l-.537 1.295h-1.435l2.697-6.047h1.384l2.705 6.047h-1.47l-.535-1.295zM455.847 336.288c0-.665-.432-1.054-1.288-1.054h-1.141v2.1h1.141c.856 0 1.288-.39 1.288-1.046m1.418 0c0 1.347-1.01 2.186-2.628 2.186h-1.22v1.667h-1.4v-6.048h2.62c1.617 0 2.628.838 2.628 2.195M462.09 336.288c0-.665-.432-1.054-1.287-1.054h-1.142v2.1h1.142c.855 0 1.288-.39 1.288-1.046m1.417 0c0 1.347-1.01 2.186-2.628 2.186h-1.219v1.667h-1.4v-6.048h2.62c1.616 0 2.627.838 2.627 2.195M464.504 334.094h1.4V339h3.034v1.14h-4.434zM472.008 337.999v2.142h-1.4v-2.16l-2.343-3.888h1.487l1.616 2.688 1.617-2.688h1.375zM482.946 334.094v6.048h-1.148l-3.018-3.672v3.672h-1.383v-6.048h1.159l3.008 3.672v-3.672zM489.206 337.117c0-1.149-.812-1.935-1.892-1.935-1.081 0-1.894.786-1.894 1.935s.813 1.935 1.894 1.935c1.08 0 1.892-.786 1.892-1.935m-5.203 0c0-1.797 1.4-3.128 3.311-3.128 1.902 0 3.31 1.322 3.31 3.128 0 1.807-1.408 3.129-3.31 3.129-1.91 0-3.31-1.332-3.31-3.129M500.628 334.094l-1.98 6.048h-1.504l-1.33-4.096-1.376 4.096h-1.495l-1.989-6.048h1.453l1.366 4.25 1.425-4.25h1.298l1.383 4.285 1.41-4.285z" fill="#FFF"/>
        <path fill="#FAFAFA" d="M370.642 136.993h136.106V60.927H370.642z"/>
        <path d="M506.749 136.993s-.013-.47-.02-1.37l-.02-3.976c-.012-3.493-.027-8.621-.047-15.21l-.1-55.51.187.186-136.097.057h-.01l.243-.243c-.005 26.898-.01 52.625-.016 76.066l-.227-.227 97.875.11 28.127.062 7.5.028 1.938.013c.438.005.667.014.667.014s-.211.01-.64.014l-1.912.013-7.454.028-28.075.062-98.026.11h-.228v-.227l-.016-76.066v-.243h.254l136.097.057h.186v.186l-.1 55.624-.046 15.169c-.01 1.724-.016 3.043-.02 3.942-.007.886-.02 1.331-.02 1.331" fill="#263238"/>
        <path fill="#CFCFCF" d="M387.275 98.29h19.242V79.057h-19.242z"/>
        <path d="M432.944 81.76c0 .134-4.49.242-10.03.242-5.54 0-10.03-.108-10.03-.242 0-.135 4.49-.243 10.03-.243 5.54 0 10.03.108 10.03.243" fill="#FF725E"/>
        <path d="M497.021 88.673c0 .135-18.835.243-42.066.243-23.239 0-42.071-.108-42.071-.243 0-.134 18.832-.243 42.071-.243 23.23 0 42.066.109 42.066.243M468.713 96.43c0 .134-12.377.243-27.64.243-15.27 0-27.645-.109-27.645-.243 0-.135 12.375-.243 27.644-.243 15.264 0 27.641.108 27.641.243" fill="#263238"/>
        <path d="M486.6 126.911h-92.974c-4.926 0-8.918-3.99-8.918-8.913 0-4.922 3.992-8.913 8.918-8.913h92.973c4.926 0 8.919 3.99 8.919 8.913s-3.993 8.913-8.919 8.913" fill="#80D363"/>
        <path d="m422.662 118.385-.778-1.88-.78 1.88h1.558zm.358.862h-2.28l-.436 1.052h-1.165l2.19-4.91h1.122l2.198 4.91h-1.193l-.436-1.052zM428.273 117.171c0-.54-.351-.856-1.046-.856h-.926v1.705h.926c.695 0 1.046-.316 1.046-.849m1.15 0c0 1.094-.82 1.775-2.133 1.775h-.99v1.353h-1.136v-4.91h2.126c1.313 0 2.133.68 2.133 1.782M433.343 117.171c0-.54-.352-.856-1.046-.856h-.927v1.705h.927c.694 0 1.046-.316 1.046-.849m1.15 0c0 1.094-.821 1.775-2.134 1.775h-.989v1.353h-1.137v-4.91h2.126c1.313 0 2.133.68 2.133 1.782M435.303 115.39h1.136v3.984h2.465v.926h-3.601zM441.396 118.56v1.74h-1.137v-1.754l-1.902-3.156h1.208l1.311 2.18 1.314-2.18h1.115zM450.277 115.39v4.91h-.933l-2.45-2.982v2.982h-1.122v-4.91h.94l2.442 2.98v-2.98zM455.362 117.845c0-.934-.66-1.572-1.538-1.572-.876 0-1.536.638-1.536 1.572 0 .933.66 1.571 1.536 1.571.878 0 1.538-.638 1.538-1.571m-4.225 0c0-1.459 1.137-2.54 2.687-2.54 1.545 0 2.688 1.074 2.688 2.54s-1.143 2.538-2.688 2.538c-1.55 0-2.687-1.079-2.687-2.538M464.635 115.39l-1.607 4.91h-1.221l-1.082-3.326-1.115 3.326h-1.214l-1.614-4.91h1.179l1.109 3.45 1.158-3.45h1.053l1.122 3.48 1.144-3.48z" fill="#FFF"/>
    </g>
</svg>
