<svg width="599" height="459" viewBox="0 0 599 459" xmlns="http://www.w3.org/2000/svg">
    <g fill="none" fill-rule="evenodd">
        <path fill="#FAFAFA" d="M0 145h157V57H0z"/>
        <path d="M157.012 144.058s-.014-.543-.02-1.578c-.006-1.045-.014-2.578-.023-4.585-.012-4.027-.03-9.94-.05-17.538l-.107-64.021.2.2c-41.815.015-96.754.037-156.739.06H.261l.262-.26-.018 87.722-.244-.244 112.727.118 32.39.066 8.637.03 2.23.015c.503.005.767.015.767.015s-.244.01-.737.015l-2.204.014-8.586.03-32.336.066-112.888.119H.017v-.244L0 56.336v-.263h.273c59.985.025 114.924.046 156.74.062h.199v.2l-.106 64.144c-.023 7.58-.039 13.478-.05 17.494l-.023 4.548c-.007 1.022-.02 1.537-.02 1.537" fill="#E0E0E0"/>
        <path fill="#E0E0E0" d="M19.417 99.423h22.16v-22.18h-22.16zM72.014 80.36c0 .144-5.172.26-11.55.26-6.382 0-11.553-.116-11.553-.26 0-.145 5.17-.261 11.552-.261 6.379 0 11.55.116 11.55.26M145.81 88.333c0 .144-21.693.261-48.447.261-26.764 0-48.452-.117-48.452-.261 0-.145 21.688-.261 48.452-.261 26.754 0 48.447.116 48.447.26M113.208 97.278c0 .145-14.254.261-31.834.261-17.585 0-31.837-.116-31.837-.26 0-.146 14.252-.262 31.837-.262 17.58 0 31.834.116 31.834.261M133.807 132.43H26.732c-5.672 0-10.271-4.601-10.271-10.279 0-5.676 4.599-10.278 10.27-10.278h107.076c5.672 0 10.27 4.602 10.27 10.278 0 5.678-4.598 10.28-10.27 10.28"/>
        <path d="m60.172 122.599-.897-2.169-.897 2.169h1.794zm.413.995h-2.627l-.502 1.214h-1.342l2.523-5.664h1.294l2.53 5.664h-1.374l-.502-1.214zM66.634 121.199c0-.623-.404-.987-1.205-.987h-1.067v1.966h1.067c.8 0 1.205-.364 1.205-.98m1.326 0c0 1.263-.947 2.048-2.458 2.048h-1.14v1.562h-1.31v-5.664h2.45c1.511 0 2.458.784 2.458 2.055M72.472 121.199c0-.623-.404-.987-1.204-.987H70.2v1.966h1.068c.8 0 1.204-.364 1.204-.98m1.326 0c0 1.263-.945 2.048-2.458 2.048H70.2v1.562h-1.31v-5.664h2.45c1.513 0 2.458.784 2.458 2.055M74.73 119.144h1.31v4.596h2.837v1.068h-4.148zM81.748 122.801v2.007h-1.31v-2.023l-2.191-3.642h1.39l1.512 2.517 1.512-2.517h1.286zM91.977 119.144v5.664h-1.075l-2.822-3.44v3.44h-1.294v-5.664h1.084l2.814 3.439v-3.44zM97.832 121.976c0-1.076-.76-1.813-1.77-1.813-1.011 0-1.77.737-1.77 1.813 0 1.075.759 1.813 1.77 1.813 1.01 0 1.77-.738 1.77-1.813m-4.867 0c0-1.684 1.31-2.93 3.097-2.93 1.778 0 3.095 1.238 3.095 2.93 0 1.691-1.317 2.93-3.095 2.93-1.788 0-3.097-1.247-3.097-2.93M108.514 119.144l-1.852 5.664h-1.407l-1.245-3.835-1.286 3.835h-1.398l-1.86-5.664h1.359l1.277 3.98 1.334-3.98h1.212l1.294 4.013 1.318-4.013z" fill="#FFF"/>
        <path fill="#FAFAFA" d="M25.756 207.018h133.175V132.49H25.756z"/>
        <path d="M158.931 207.018s-.014-.463-.02-1.344c-.006-.89-.014-2.194-.023-3.898l-.05-14.903-.106-54.384.2.2-133.165.061h-.01l.26-.26L26 207.017l-.243-.244 95.76.119 27.523.066 7.34.03 1.898.014c.427.005.653.015.653.015s-.205.01-.624.015l-1.87.014-7.291.03-27.468.067-95.921.118h-.244v-.244l-.018-74.529v-.26h.272l133.164.06h.2v.2l-.106 54.506-.05 14.86-.023 3.86c-.007.868-.02 1.303-.02 1.303" fill="#263238"/>
        <path fill="#455A64" d="M42.032 169.097H60.86v-18.843H42.032z"/>
        <path d="M86.717 152.9c0 .145-4.395.262-9.814.262-5.42 0-9.814-.117-9.814-.261 0-.145 4.393-.261 9.814-.261 5.42 0 9.814.116 9.814.26" fill="#FF725E"/>
        <path d="M149.413 159.675c0 .144-18.43.26-41.16.26-22.738 0-41.164-.116-41.164-.26 0-.145 18.426-.262 41.164-.262 22.73 0 41.16.117 41.16.262M121.715 167.274c0 .145-12.11.263-27.046.263-14.94 0-27.048-.118-27.048-.263 0-.144 12.108-.26 27.048-.26 14.936 0 27.046.116 27.046.26" fill="#263238"/>
        <path d="M139.216 197.14h-90.97c-4.82 0-8.726-3.91-8.726-8.733 0-4.824 3.906-8.734 8.725-8.734h90.97c4.82 0 8.727 3.91 8.727 8.734 0 4.823-3.907 8.733-8.726 8.733" fill="#80D363"/>
        <path d="m76.66 188.785-.762-1.844-.764 1.844h1.526zm.352.847h-2.235l-.427 1.031h-1.14l2.144-4.817h1.1l2.152 4.817h-1.169l-.425-1.031zM82.15 187.594c0-.53-.343-.84-1.024-.84h-.908v1.673h.908c.68 0 1.024-.31 1.024-.833m1.128 0c0 1.073-.805 1.74-2.09 1.74h-.97v1.33h-1.114v-4.818h2.083c1.286 0 2.09.668 2.09 1.748M87.11 187.594c0-.53-.343-.84-1.023-.84h-.908v1.673h.908c.68 0 1.024-.31 1.024-.833m1.128 0c0 1.073-.805 1.74-2.09 1.74h-.97v1.33h-1.114v-4.818h2.083c1.286 0 2.09.668 2.09 1.748M89.025 185.846h1.114v3.91h2.414v.907h-3.528zM94.99 188.956v1.707h-1.114v-1.72l-1.862-3.097h1.182l1.285 2.14 1.286-2.14h1.094zM103.683 185.846v4.817h-.915l-2.399-2.925v2.925h-1.1v-4.817h.922l2.392 2.925v-2.925zM108.657 188.255c0-.916-.647-1.542-1.507-1.542-.859 0-1.505.626-1.505 1.542 0 .915.646 1.54 1.505 1.54.86 0 1.507-.625 1.507-1.54m-4.139 0c0-1.432 1.113-2.49 2.632-2.49 1.514 0 2.635 1.05 2.635 2.49 0 1.438-1.121 2.49-2.635 2.49-1.519 0-2.632-1.059-2.632-2.49M117.735 185.846l-1.575 4.817h-1.196l-1.058-3.261-1.094 3.261h-1.19l-1.581-4.817h1.155l1.087 3.386 1.134-3.386h1.031l1.1 3.413 1.121-3.413z" fill="#FFF"/>
        <path fill="#FAFAFA" d="M24.091 401.675h135.484v-75.821H24.091z"/>
        <path d="M159.575 401.675s-.014-.47-.02-1.367c-.006-.906-.014-2.231-.023-3.965l-.05-15.162-.106-55.327.2.2-135.474.062h-.01l.26-.262c-.005 26.811-.012 52.456-.017 75.821l-.243-.244 97.421.119 28 .066 7.467.03 1.931.014c.436.005.664.015.664.015s-.21.01-.635.015l-1.903.014-7.418.03-27.944.067-97.583.118h-.244v-.244l-.018-75.821v-.261h.272l135.473.061h.2v.2l-.106 55.45-.05 15.117-.023 3.929a62.587 62.587 0 0 1-.02 1.325" fill="#E0E0E0"/>
        <path fill="#E0E0E0" d="M40.648 363.096h19.155v-19.17H40.648zM86.109 346.62c0 .144-4.47.26-9.984.26-5.515 0-9.984-.116-9.984-.26 0-.145 4.469-.262 9.984-.262 5.513 0 9.984.117 9.984.261M149.893 353.51c0 .145-18.75.262-41.874.262-23.132 0-41.879-.117-41.879-.261 0-.145 18.747-.261 41.879-.261 23.124 0 41.874.116 41.874.26M121.714 361.242c0 .145-12.32.262-27.515.262-15.199 0-27.517-.117-27.517-.262 0-.144 12.318-.26 27.517-.26 15.195 0 27.515.116 27.515.26M139.518 391.626H46.97c-4.902 0-8.877-3.977-8.877-8.885 0-4.907 3.975-8.884 8.877-8.884h92.548c4.902 0 8.877 3.977 8.877 8.884 0 4.908-3.975 8.885-8.877 8.885"/>
        <path d="m75.872 383.13-.775-1.874-.775 1.873h1.55zm.356.858h-2.27l-.433 1.049h-1.159l2.179-4.892h1.117l2.185 4.892h-1.186l-.433-1.049zM81.456 381.92c0-.538-.35-.853-1.04-.853h-.923v1.699h.922c.692 0 1.041-.315 1.041-.846m1.145 0c0 1.09-.817 1.769-2.123 1.769h-.985v1.349h-1.13v-4.893h2.115c1.306 0 2.123.678 2.123 1.775M86.502 381.92c0-.538-.35-.853-1.04-.853h-.922v1.699h.921c.692 0 1.041-.315 1.041-.846m1.146 0c0 1.09-.818 1.769-2.123 1.769h-.985v1.349h-1.13v-4.893h2.115c1.305 0 2.123.678 2.123 1.775M88.456 380.145h1.13v3.97h2.451v.922h-3.581zM94.52 383.304v1.733h-1.13v-1.747l-1.893-3.145h1.201l1.306 2.174 1.305-2.174h1.111zM103.36 380.145v4.892h-.929l-2.437-2.97v2.97h-1.117v-4.892h.935l2.43 2.97v-2.97zM108.42 382.591c0-.93-.656-1.566-1.528-1.566-.874 0-1.529.637-1.529 1.566 0 .93.655 1.566 1.53 1.566.871 0 1.528-.636 1.528-1.566m-4.203 0c0-1.453 1.131-2.53 2.674-2.53 1.536 0 2.674 1.07 2.674 2.53 0 1.461-1.138 2.53-2.674 2.53-1.543 0-2.674-1.077-2.674-2.53M117.65 380.145l-1.598 4.892h-1.215l-1.076-3.312-1.11 3.312h-1.208l-1.606-4.892h1.173l1.103 3.438 1.152-3.438h1.048l1.118 3.466 1.138-3.466z" fill="#FFF"/>
        <path fill="#FAFAFA" d="M414.515 437.759h135.483v-75.822H414.515z"/>
        <path d="M549.998 437.759s-.014-.471-.02-1.367c-.006-.906-.014-2.232-.023-3.965l-.05-15.162-.106-55.327.2.2-135.474.062h-.01l.26-.262-.017 75.821-.243-.244 97.42.118c11.98.029 21.481.05 28.001.067l7.467.03 1.931.014c.435.005.664.015.664.015s-.21.01-.635.015l-1.903.014-7.418.03-27.945.067-97.582.118h-.244v-.244l-.018-75.821v-.261h.272c51.845.023 99.33.045 135.473.06h.201v.2l-.107 55.452-.05 15.116-.023 3.928c-.007.884-.02 1.326-.02 1.326" fill="#E0E0E0"/>
        <path fill="#E0E0E0" d="M431.072 399.18h19.154v-19.17h-19.154zM476.532 382.703c0 .145-4.47.261-9.984.261-5.515 0-9.984-.116-9.984-.26 0-.145 4.469-.262 9.984-.262 5.513 0 9.984.117 9.984.261M540.316 389.595c0 .144-18.75.262-41.874.262-23.132 0-41.879-.118-41.879-.262 0-.145 18.747-.262 41.879-.262 23.124 0 41.874.117 41.874.262M512.137 397.326c0 .145-12.32.261-27.514.261-15.2 0-27.518-.116-27.518-.26 0-.145 12.318-.262 27.518-.262 15.194 0 27.514.117 27.514.261M529.941 427.71h-92.548c-4.902 0-8.877-3.979-8.877-8.885 0-4.907 3.975-8.884 8.877-8.884h92.548c4.903 0 8.877 3.977 8.877 8.884 0 4.906-3.974 8.885-8.877 8.885"/>
        <path d="m466.295 419.213-.774-1.873-.776 1.873h1.55zm.357.859h-2.27l-.434 1.048h-1.158l2.179-4.892h1.117l2.186 4.892h-1.188l-.432-1.048zM471.88 418.004c0-.539-.35-.853-1.041-.853h-.922v1.698h.922c.69 0 1.04-.314 1.04-.845m1.146 0c0 1.09-.818 1.768-2.124 1.768h-.984v1.35h-1.131v-4.894h2.115c1.306 0 2.124.678 2.124 1.776M476.926 418.004c0-.539-.35-.853-1.041-.853h-.921v1.698h.921c.691 0 1.04-.314 1.04-.845m1.147 0c0 1.09-.818 1.768-2.124 1.768h-.984v1.35h-1.131v-4.894h2.115c1.306 0 2.124.678 2.124 1.776M478.879 416.228h1.13v3.97h2.451v.923h-3.581zM484.944 419.388v1.733h-1.132v-1.747l-1.892-3.146h1.202l1.304 2.173 1.307-2.173h1.11zM493.783 416.228v4.893h-.929l-2.436-2.97v2.97H489.3v-4.893h.936l2.43 2.97v-2.97zM498.844 418.675c0-.93-.656-1.566-1.528-1.566-.873 0-1.53.636-1.53 1.566s.657 1.565 1.53 1.565c.872 0 1.528-.635 1.528-1.565m-4.202 0c0-1.454 1.13-2.53 2.674-2.53 1.535 0 2.673 1.07 2.673 2.53 0 1.46-1.138 2.53-2.673 2.53-1.544 0-2.674-1.077-2.674-2.53M508.074 416.228l-1.6 4.893h-1.214l-1.076-3.313-1.11 3.313h-1.208l-1.606-4.893h1.174l1.102 3.44 1.153-3.44h1.047l1.117 3.467 1.14-3.467z" fill="#FFF"/>
        <path fill="#FAFAFA" d="M442.048 264.526h156.751v-87.722H442.048z"/>
        <path d="M598.8 264.526s-.014-.542-.021-1.578l-.022-4.585c-.012-4.026-.03-9.94-.05-17.538-.026-15.185-.063-37.091-.107-64.021l.2.2-156.74.061h-.011l.261-.261-.018 87.722-.243-.244 112.727.119 32.39.066 8.636.03 2.231.015c.503.004.767.014.767.014s-.244.01-.737.015l-2.205.014-8.586.03-32.335.067-112.888.118h-.244v-.244l-.017-87.722v-.262h.273l156.739.061.2.001v.2l-.107 64.144-.05 17.494-.022 4.547a84.503 84.503 0 0 1-.021 1.537" fill="#E0E0E0"/>
        <path fill="#E0E0E0" d="M461.205 219.891h22.16v-22.18h-22.16zM513.801 200.828c0 .145-5.172.261-11.55.261-6.382 0-11.553-.116-11.553-.26 0-.145 5.171-.262 11.553-.262 6.378 0 11.55.117 11.55.261M587.597 208.801c0 .145-21.693.262-48.447.262-26.763 0-48.452-.117-48.452-.262 0-.144 21.69-.26 48.452-.26 26.754 0 48.447.116 48.447.26M554.995 217.747c0 .144-14.254.26-31.833.26-17.586 0-31.837-.116-31.837-.26 0-.145 14.251-.262 31.837-.262 17.58 0 31.833.117 31.833.262M575.594 252.9H468.52c-5.672 0-10.27-4.603-10.27-10.28s4.598-10.279 10.27-10.279h107.075c5.673 0 10.271 4.602 10.271 10.279s-4.598 10.28-10.27 10.28"/>
        <path d="m501.96 243.067-.897-2.168-.897 2.168h1.795zm.413.995h-2.627l-.502 1.215h-1.342l2.523-5.665h1.294l2.53 5.665h-1.375l-.5-1.215zM508.422 241.667c0-.622-.404-.987-1.204-.987h-1.068v1.967h1.068c.8 0 1.204-.365 1.204-.98m1.325 0c0 1.263-.945 2.047-2.457 2.047h-1.14v1.562h-1.309v-5.663h2.449c1.512 0 2.457.784 2.457 2.054M514.26 241.667c0-.622-.404-.987-1.204-.987h-1.068v1.967h1.068c.8 0 1.204-.365 1.204-.98m1.326 0c0 1.263-.945 2.047-2.458 2.047h-1.14v1.562h-1.31v-5.663h2.45c1.513 0 2.458.784 2.458 2.054M516.518 239.612h1.31v4.596h2.837v1.069h-4.147zM523.536 243.27v2.006h-1.31v-2.022l-2.191-3.642h1.39l1.512 2.517 1.512-2.517h1.286zM533.766 239.612v5.665h-1.076l-2.822-3.44v3.44h-1.294v-5.665h1.084l2.814 3.44v-3.44zM539.62 242.444c0-1.075-.76-1.813-1.771-1.813-1.01 0-1.77.738-1.77 1.813 0 1.076.76 1.813 1.77 1.813 1.011 0 1.77-.737 1.77-1.813m-4.866 0c0-1.683 1.31-2.93 3.096-2.93 1.779 0 3.096 1.239 3.096 2.93 0 1.692-1.317 2.93-3.096 2.93-1.787 0-3.096-1.246-3.096-2.93M550.302 239.612l-1.853 5.665h-1.406l-1.245-3.836-1.285 3.836h-1.4l-1.859-5.665h1.359l1.276 3.981 1.335-3.98h1.212l1.294 4.013 1.318-4.014z" fill="#FFF"/>
        <path d="M427.152 439.575c0 .144-77.72.262-173.573.262-95.884 0-173.588-.118-173.588-.262 0-.145 77.704-.262 173.588-.262 95.852 0 173.573.117 173.573.262" fill="#263238"/>
        <path fill="#E0E0E0" d="M217.949 390.542h6.876v-36.234h-6.876z"/>
        <path d="M224.825 390.542c-.01-.012-.023-.268-.034-.747l-.034-2.084-.075-7.667-.115-25.735.258.258c-2.208 0-4.52.002-6.874.004.518-.524.144-.139.26-.253v2.825l-.003 2.786-.006 5.403-.024 9.962-.088 15.248-.14-.142c2.134.035 3.827.06 5.038.08l1.353.034c.31.01.475.019.484.028.01.009-.137.018-.432.028-.34.01-.776.02-1.322.034-1.231.02-2.952.045-5.122.079l-.14.003v-.144l-.088-15.248-.025-9.962-.006-5.403c0-.92 0-1.849-.002-2.786V354.318c.118-.12-.263.252.263-.27l6.874.002h.26l-.002.259-.114 25.918-.074 7.606-.036 2.029c-.01.458-.022.691-.034.68" fill="#263238"/>
        <path d="M237.3 348.82h-32.144c-4.765 0-8.628-3.865-8.628-8.635h49.4c0 4.77-3.863 8.636-8.627 8.636" fill="#242429"/>
        <path d="M265.655 341.88h-56.044v-11.997h56.044a5.997 5.997 0 0 1 5.994 5.999 5.997 5.997 0 0 1-5.994 5.998" fill="#AE2F2F"/>
        <path d="M166.061 243.733a5.96 5.96 0 0 0-5.123 6.56l8.086 73.578c1.15 10.255 9.814 18.01 20.125 18.01h21.377a6.005 6.005 0 0 0 6.001-6.008 6.004 6.004 0 0 0-6.001-6.006h-18.148a10.302 10.302 0 0 1-10.208-8.946l-9.405-72.053a5.957 5.957 0 0 0-6.704-5.135" fill="#FF725E"/>
        <path d="m234.158 330.471-60.92.854-5.949-87.65 50.989-.324c5.088 0 9.211 4.167 9.211 9.307l6.669 77.813z" fill="#AE2F2F"/>
        <path d="M166.061 243.733a5.96 5.96 0 0 0-5.123 6.56l8.086 73.578c1.15 10.255 9.814 18.01 20.125 18.01h21.377a6.005 6.005 0 0 0 6.001-6.008 6.004 6.004 0 0 0-6.001-6.006h-19.451c-5.162 0-8.787-3.659-9.468-8.78l-8.842-72.219a5.957 5.957 0 0 0-6.704-5.135" fill="#932727"/>
        <path fill="#242429" d="M214.728 355.752h13.32v-6.932h-13.32z"/>
        <path d="M223.882 420.256h-5.174a3.981 3.981 0 0 1-3.98-3.983v-23.784c0-2.2 1.782-3.983 3.98-3.983h5.174a3.982 3.982 0 0 1 3.98 3.983v23.784c0 2.2-1.783 3.983-3.98 3.983" fill="#E0E0E0"/>
        <path d="M223.882 420.256c-.001-.03.293-.02.825-.142a3.955 3.955 0 0 0 2.841-2.652c.203-.59.177-1.266.167-2.017-.01-1.5-.024-3.195-.039-5.065l-.055-13.181-.01-3.81c-.007-.662.037-1.297-.14-1.888-.155-.6-.488-1.154-.923-1.61a3.767 3.767 0 0 0-1.618-.973c-.609-.191-1.275-.147-1.985-.15h-4.235c-1.345-.006-2.63.766-3.255 1.917a3.821 3.821 0 0 0-.47 1.865l-.001 2.042-.016 7.785c-.02 4.952-.04 9.415-.056 13.183-.047.955.04 1.788.436 2.52a3.895 3.895 0 0 0 1.596 1.597c.639.34 1.309.463 1.937.454l1.744.023 2.415.049c.552.018.842.035.842.053 0 .018-.29.036-.842.053l-2.415.048-1.744.023a4.2 4.2 0 0 1-2.071-.442 4.19 4.19 0 0 1-1.754-1.7 4.222 4.222 0 0 1-.443-1.28c-.088-.465-.062-.936-.07-1.398l-.056-13.183a48135.81 48135.81 0 0 1-.017-9.827 4.337 4.337 0 0 1 .53-2.118c.71-1.31 2.176-2.194 3.71-2.187h4.235c.677.008 1.417-.043 2.13.177a4.263 4.263 0 0 1 1.84 1.111c.493.52.868 1.15 1.045 1.834.199.692.145 1.39.15 2.022l-.008 3.81c-.02 4.95-.04 9.413-.056 13.181l-.039 5.065c-.003.732.01 1.47-.223 2.095a4.114 4.114 0 0 1-.926 1.522 3.981 3.981 0 0 1-2.13 1.156c-.553.091-.846.038-.846.038" fill="#263238"/>
        <path d="M259.634 418.292h-78.181c-2.293 0-4.186.763-5.627 2.269-2.9 3.031-2.717 8.005-2.708 8.215l3.557-.15c-.038-1.02.199-4.014 1.731-5.608.753-.782 1.75-1.161 3.047-1.161h20.512v9.092h3.561v-9.092h54.108a4.158 4.158 0 0 1 4.152 4.155v2.686h3.56v-2.686c0-4.257-3.46-7.72-7.712-7.72" fill="#E0E0E0"/>
        <path d="M259.634 418.292s.33-.025.973.034c.64.06 1.603.26 2.73.84a7.908 7.908 0 0 1 3.245 3.29c.43.822.745 1.793.843 2.862.074 1.073.03 2.185.05 3.38l.001.128h-.13l-3.56.013-.132.001-.008-.142c-.1-1.74.401-3.87-1.052-5.359a3.994 3.994 0 0 0-2.638-1.299c-1.047-.029-2.17-.003-3.297-.007l-14.858.03-36.275.044.25-.25.005 9.091v.256h-.255l-3.56.002h-.258v-.258l-.003-9.091.26.26h-11.646l-9.204.01c-.724.036-1.43.233-2.005.633-.582.394-1.008.988-1.321 1.634-.616 1.3-.866 2.8-.856 4.223l.002.257-.249.01-3.558.149-.263.01-.004-.256c-.023-1.705.217-3.376.764-4.96.54-1.577 1.447-3.056 2.748-4.107 1.293-1.058 2.944-1.594 4.556-1.66 1.603-.03 3.147-.007 4.698-.012l17.73.02 29.572.056 19.606.078 5.271.044 1.364.023c.307.007.464.023.464.023s-.157.016-.464.023l-1.364.024-5.271.044-19.606.077-29.572.057c-5.62.006-11.546.012-17.73.02-1.54.007-3.122-.012-4.672.017-1.532.069-3.063.57-4.267 1.558-1.21.981-2.066 2.368-2.583 3.88-.522 1.51-.755 3.158-.732 4.773l-.267-.245 3.558-.151-.247.267c-.009-1.528.24-3.05.905-4.47.338-.698.816-1.374 1.492-1.834.67-.467 1.483-.686 2.271-.725l9.234-.012c3.989 0 7.93 0 11.646.002h.26v.26l-.003 9.091-.256-.256 3.56.001-.255.255.005-9.091v-.251h.25l36.275.043 14.858.03c1.138.01 2.223-.011 3.324.026a4.315 4.315 0 0 1 2.847 1.421 4.284 4.284 0 0 1 1.102 2.794l-.005 2.778-.14-.14 3.56.014-.128.126c-.01-1.186.044-2.326-.019-3.361a7.541 7.541 0 0 0-.793-2.791 7.826 7.826 0 0 0-3.133-3.263c-1.098-.587-2.043-.808-2.675-.89-.634-.08-.966-.08-.965-.1" fill="#263238"/>
        <path d="M210.604 435.187a6.97 6.97 0 0 1-6.967 6.974 6.97 6.97 0 0 1-6.967-6.974c0-3.85 3.12-6.973 6.967-6.973a6.97 6.97 0 0 1 6.967 6.973M181.866 433.482a6.97 6.97 0 0 1-6.968 6.973 6.97 6.97 0 0 1-6.967-6.973c0-3.851 3.12-6.974 6.967-6.974a6.97 6.97 0 0 1 6.968 6.974M271.729 433.736a6.97 6.97 0 0 1-6.968 6.973 6.97 6.97 0 0 1-6.967-6.973c0-3.85 3.12-6.973 6.967-6.973a6.97 6.97 0 0 1 6.968 6.973M267.158 329.883c.001.144-17.177.325-38.362.403-21.193.079-38.367.025-38.368-.12-.001-.143 17.173-.324 38.366-.403 21.185-.078 38.364-.025 38.364.12" fill="#242429"/>
        <path d="M181.69 319.91c-.144.019-2.258-15.871-4.722-35.487-2.465-19.62-4.347-35.537-4.203-35.555.143-.018 2.257 15.869 4.721 35.49 2.464 19.615 4.347 35.534 4.203 35.552" fill="#263238"/>
        <path d="M172.128 243.565c-.004-.016.18-.07.538-.145.359-.06.893-.143 1.587-.161 1.376-.034 3.424.037 5.785.891 1.163.433 2.406 1.172 3.371 2.297.991 1.098 1.813 2.444 2.588 3.883a308.394 308.394 0 0 0 5.019 9.326c3.69 6.545 7.154 12.409 9.502 16.744a166.218 166.218 0 0 1 2.722 5.165c.28.577.507 1.05.69 1.43.153.329.227.505.21.514-.015.008-.12-.152-.302-.467l-.778-1.382-2.864-5.08c-2.429-4.283-5.94-10.113-9.636-16.668a249.678 249.678 0 0 1-4.988-9.355c-.755-1.43-1.547-2.754-2.487-3.821-.918-1.096-2.054-1.791-3.181-2.241-2.271-.873-4.292-1.004-5.65-1.033-1.369-.015-2.118.15-2.126.103" fill="#242429"/>
        <path d="M161.35 247.372c.124.074-4.489 8.127-10.302 17.985-5.816 9.861-10.63 17.794-10.754 17.72-.124-.073 4.488-8.124 10.303-17.986 5.813-9.859 10.628-17.792 10.753-17.719" fill="#263238"/>
        <path fill="#FAFAFA" d="M132.256 307.725h83.523v-24.65h-83.523z"/>
        <path fill="#263238" d="m154.779 290.73-4.088 9.451h-2.158l-4.074-9.45h2.36l2.874 6.75 2.913-6.75zM160.778 296.495l-1.497-3.618-1.497 3.618h2.994zm.688 1.66h-4.385l-.836 2.026h-2.24l4.21-9.45h2.159l4.222 9.45h-2.293l-.837-2.025zM164.849 295.456c0-2.85 2.185-4.888 5.126-4.888 1.632 0 2.995.595 3.885 1.675l-1.403 1.295c-.634-.729-1.43-1.106-2.374-1.106-1.767 0-3.022 1.242-3.022 3.024s1.255 3.025 3.022 3.025c.944 0 1.74-.379 2.374-1.122l1.403 1.297c-.89 1.093-2.253 1.687-3.898 1.687-2.928 0-5.113-2.038-5.113-4.887M180.67 296.495l-1.498-3.618-1.497 3.618h2.994zm.688 1.66h-4.386l-.836 2.026h-2.24l4.21-9.45h2.159l4.222 9.45h-2.293l-.836-2.025zM194.129 290.73v9.451h-1.795l-4.708-5.738v5.738h-2.158v-9.45h1.808l4.694 5.737v-5.738zM198.32 292.512H195.3v-1.781h8.229v1.781h-3.022v7.67h-2.186z"/>
        <path d="M213.08 305.48a3.603 3.603 0 0 1-.016-.358l-.016-1.025c-.01-.92-.021-2.242-.038-3.952l-.087-14.798.157.158-78.78.104c.115-.116-.264.26.257-.26v5.139l-.002 5.076-.004 9.916-.255-.256 56.172.116 16.568.072 4.471.035 1.165.016c.264.006.408.017.408.017.006.005-.12.01-.374.016l-1.134.017-4.416.034-16.51.072-56.35.117h-.256l-.001-.256-.004-9.916-.001-5.076v-5.14c.524-.524.148-.145.266-.262 32.294.042 60.97.08 78.78.105h.157v.156l-.087 14.891-.038 3.917-.016.997a2.592 2.592 0 0 1-.016.328" fill="#242429"/>
        <path d="m265.741 40.198-1.014-21.343a3.46 3.46 0 0 0-3.194-3.286 3.459 3.459 0 0 0-3.69 3.017l-2.7 21.392a2.714 2.714 0 0 0 2.686 3.055l5.198.01a2.715 2.715 0 0 0 2.714-2.845M256.074 3.488a5.199 5.199 0 0 1 6.624-3.196 5.206 5.206 0 0 1 3.195 6.63 5.2 5.2 0 1 1-9.819-3.434" fill="#E0E0E0"/>
        <path d="m209.926 67.17-12.422-10.532a2.635 2.635 0 0 0-3.492.073 2.642 2.642 0 0 0-.238 3.629l10.517 12.632c.797.956 2.251.998 3.1.088l2.709-2.896a2.072 2.072 0 0 0-.174-2.994M184.44 53.476a3.97 3.97 0 0 1 1.664-5.36 3.964 3.964 0 0 1 5.356 1.665 3.971 3.971 0 0 1-1.664 5.36 3.964 3.964 0 0 1-5.355-1.665" fill="#F5F5F5"/>
        <path d="m199.391 17.53 19.097 32.385a6.083 6.083 0 0 0 7.668 2.489 6.092 6.092 0 0 0 3.267-7.729L216.068 9.16a4.772 4.772 0 0 0-6.69-2.547l-8.096 4.26a4.78 4.78 0 0 0-1.89 6.657M244.569 66.72c.752 5.002-2.69 9.668-7.688 10.42-4.998.753-9.66-2.692-10.412-7.694-.752-5.002 2.69-9.668 7.687-10.42 4.999-.753 9.66 2.69 10.413 7.694" fill="#E0E0E0"/>
        <path d="M311.828 135.744c-.058.153-2.202-.523-4.79-1.509-2.59-.987-4.64-1.909-4.582-2.062.057-.151 2.201.525 4.79 1.511 2.588.985 4.64 1.907 4.582 2.06" fill="#455A64"/>
        <path d="M298.984 156.02c-1.05-.116-3.713 1.231-5.964 3.916-.037.041-.077.075-.114.117-1.594 1.8-2.587-3.724-2.693-5.76-.068-1.322-1.43-2.227-2.744-1.843l-7.003 2.699-1.985-.071c-1.024.299-1.651 1.287-1.46 2.303l2.492 10.944-.134 2.931 13.45 2.792.722-7.312c.261-.832.6-1.813 1.042-2.927a9.325 9.325 0 0 1 1.695-2.756c.76-.853 1.787-1.925 2.628-2.51.077-.041.162-.102.233-.134.172-.078.3-.188.41-.308.74-.696.448-1.967-.575-2.08" fill="#FFBE9D"/>
        <path d="M296.036 125.181s-8.027-1-20.095-10.606c-12.069-9.606-18.6-23.258-19.948-23.061-1.348.196-7.52-1.994-16.464 23.555-8.942 25.55-3.976 30.82-1.742 30.563 2.234-.258 17.033-5.93 26.627-5.745 9.595.185 22.263 3.985 22.263 3.985l9.36-18.69z" fill="#FDA228"/>
        <path d="m313.998 136.954-2.202 5.358-.987 2.4a6.685 6.685 0 0 1-8.4 3.77l-17.407-4.29 7.704-23.352 17.684 7.393a6.694 6.694 0 0 1 3.608 8.721" fill="#263238"/>
        <path d="m307.142 144.871-5.83 10.348-2.665-.86-18.198 13.598-4.518-9.844s10.589-4.052 12.667-7.685c2.077-3.631-.11-4.566-.11-4.566l5.126-5.365 13.528 4.374z" fill="#263238"/>
        <path d="M240.48 115.43c-4.737 13.83-6.116 25.886-3.08 26.929 3.036 1.041 9.338-9.326 14.076-23.157 4.737-13.83 6.116-25.886 3.08-26.928-3.037-1.041-9.338 9.326-14.076 23.156" fill="#242429"/>
        <path fill="#455A64" d="m316.139 144.194-4.704-1.006 2.32-5.645 3.628 1.808zM310.725 139.08c-.053.155-2.416-.518-5.278-1.5-2.864-.983-5.141-1.905-5.088-2.06.053-.153 2.415.52 5.278 1.501 2.863.984 5.14 1.906 5.088 2.06M309.27 142.608c-.018.08-.572.006-1.463-.18a51.644 51.644 0 0 1-1.56-.356c-.581-.152-1.193-.392-1.847-.618-2.609-.925-4.624-1.882-4.574-2.023.058-.165 2.184.55 4.768 1.467.648.223 1.253.479 1.817.654.567.17 1.075.33 1.5.472.852.287 1.374.505 1.358.584"/>
        <path d="M252.407 111.329s-7.234-3.597-10.103 5.997c-2.87 9.594 4.465 10.436 4.465 10.436 2.512-4.845 4.41-10.305 5.638-16.433" fill="#FAFAFA"/>
        <path d="M258.64 99.63c.04.002.001.639-.102 1.79-.11 1.15-.262 2.818-.51 4.872l-.64 3.323-.36 1.852c-.064.318-.127.64-.191.968-.072.324-.177.647-.265.977a8774.53 8774.53 0 0 1-1.477 5.217c-.1.366-.256.716-.384 1.078l-.817 2.193-.822 2.191c-.143.358-.255.725-.419 1.066l-.478 1.02-1.832 3.887c-.15.308-.283.62-.442.911-.167.29-.33.576-.493.857-.324.563-.64 1.109-.943 1.637l-1.701 2.929c-1.158 1.708-2.136 3.062-2.807 4-.677.936-1.067 1.443-1.1 1.42-.034-.024.292-.573.91-1.548.641-.995 1.544-2.39 2.65-4.105.5-.902 1.043-1.887 1.626-2.944l.91-1.635.476-.855c.154-.292.283-.604.428-.91l1.789-3.875.47-1.016c.162-.34.272-.704.413-1.06l.813-2.177.815-2.175c.127-.36.284-.707.384-1.07.104-.362.209-.72.31-1.075l1.195-4.095c.091-.328.199-.647.275-.97l.202-.958.387-1.834.707-3.292.692-4.827c.175-1.141.29-1.77.33-1.768" fill="#263238"/>
        <path d="M285.243 150.235c-.749.264-1.168 1.095-.95 1.887.418 1.513 1.098 3.892 1.631 5.34.172.467.359.943.687 1.307.328.363.833.594 1.294.455.487-.147.802-.67.875-1.195.075-.524-.048-1.052-.173-1.563-.348-1.414-.97-3.534-1.51-5.261-.25-.807-1.082-1.24-1.854-.97" fill="#FFBE9D"/>
        <path d="M282.991 152.816c-.749.263-1.168 1.095-.95 1.886.418 1.514 1.099 3.892 1.631 5.34.172.467.359.943.687 1.307.328.363.833.594 1.294.456.487-.148.802-.671.875-1.195.075-.524-.047-1.053-.173-1.564-.348-1.413-.97-3.534-1.51-5.261-.25-.807-1.082-1.24-1.854-.97" fill="#FFBE9D"/>
        <path d="M280.882 154.405a1.327 1.327 0 0 0-.854 1.631c.383 1.313 1.005 3.374 1.49 4.63.157.405.327.817.625 1.133.298.316.754.518 1.172.398.44-.125.723-.578.789-1.031.065-.454-.047-.912-.162-1.356-.319-1.225-.888-3.063-1.38-4.561a1.325 1.325 0 0 0-1.68-.844" fill="#FFBE9D"/>
        <path d="M278.226 154.803c-.68.227-1.059.95-.858 1.64.384 1.318 1.008 3.39 1.497 4.65.158.407.328.822.627 1.14.3.316.759.52 1.177.4.443-.127.728-.582.793-1.038.065-.455-.046-.916-.162-1.361-.32-1.23-.892-3.077-1.386-4.583a1.331 1.331 0 0 0-1.688-.848" fill="#FFBE9D"/>
        <path d="M286.47 158.817c-.144.05-.681-1.153-1.198-2.684-.518-1.532-.82-2.813-.676-2.862.143-.048.68 1.153 1.197 2.685.518 1.532.82 2.813.676 2.861M284.06 160.922c-.145.044-.713-1.339-1.268-3.09-.555-1.75-.888-3.21-.745-3.259.144-.048.712 1.334 1.269 3.09.556 1.755.89 3.215.744 3.259M281.693 161.058c-.136.06-.787-1.113-1.311-2.674-.528-1.56-.719-2.888-.574-2.923.15-.036.577 1.214 1.095 2.747.515 1.535.931 2.787.79 2.85" fill="#EB996E"/>
        <path d="M365.362 124.534c-3.825-6.47-10.734-10.667-17.975-12.664-3.047-.84-5.113-.606-8.253-.252-3.14.355-6.11 1.56-8.298 3.841-2.6 2.71-4.913 5.835-5.88 9.466-.992 3.73-1.99 7.484-2.284 11.331-.293 3.85.156 7.837 1.923 11.267l9.416 3.158c5.314.997 10.703 1.999 16.093 1.573 5.389-.425 10.872-2.456 14.354-6.595 4.838-5.75 4.73-14.656.904-21.125" fill="#242429"/>
        <path d="M370.453 152.898c.092-2.22-.725-4.541-2.445-5.947-1.719-1.407-4.378-1.694-6.185-.402l-1.796 1.58c-2.536.653-4.447 3.134-4.552 5.754-.103 2.62 1.53 5.191 3.891 6.325 2.361 1.134 5.313.835 7.475-.644 2.163-1.477 3.503-4.046 3.612-6.666" fill="#263238"/>
        <path d="M367.542 159.133c-.066-.044.7-.56.814-1.847.107-1.251-.544-3.012-1.552-4.689a13.239 13.239 0 0 0-3.4-3.701c-1.041-.781-1.787-1.123-1.75-1.198.016-.046.821.188 1.943.919 1.124.713 2.545 1.972 3.617 3.728a11.59 11.59 0 0 1 1.2 2.62c.27.843.39 1.675.279 2.363-.102.69-.407 1.19-.667 1.468-.267.28-.47.36-.484.337M362.427 161.278c-.157-.034.947-2.86.543-6.459-.351-3.606-2.018-6.14-1.872-6.205.045-.03.52.55 1.06 1.632.54 1.077 1.093 2.68 1.29 4.524.19 1.842-.018 3.525-.324 4.691-.303 1.17-.648 1.837-.697 1.817" fill="#455A64"/>
        <path d="M330.824 170.876c.582-3.387 1.877-10.646 1.874-10.63 0 0-7.754-2.073-8.391-12.522-.317-5.197.75-13.563 1.845-20.38.986-6.135 7.488-13.704 15.071-12.574l3.428.122 12.113 7.097a3.636 3.636 0 0 1 2.88 3.985l-6.636 43.873-18.776 36.772-4.241-26.086.833-9.657z" fill="#FFBE9D"/>
        <path d="M329.645 134.833c-.092.695.42 1.346 1.143 1.455.721.109 1.382-.363 1.474-1.058.092-.694-.42-1.346-1.141-1.456-.724-.109-1.384.365-1.476 1.059M328.085 131.516c.147.188 1.218-.455 2.637-.314 1.419.12 2.389.952 2.56.793.084-.07-.054-.397-.475-.77-.415-.373-1.145-.767-2.03-.849-.883-.08-1.659.174-2.118.465-.468.293-.647.59-.574.675M335.303 143.535c.014-.08-.853-.317-2.265-.64-.358-.072-.694-.178-.731-.43-.06-.27.13-.648.346-1.052l1.339-2.658c1.867-3.787 3.257-6.916 3.105-6.99-.154-.074-1.793 2.937-3.66 6.724l-1.296 2.679c-.176.398-.457.842-.325 1.405.071.28.318.502.545.587.225.094.429.117.607.146 1.43.216 2.322.31 2.335.229" fill="#263238"/>
        <path d="M332.699 160.246s6.874 1.117 14.125-2.342c0 0-4.358 6.777-14.556 4.817l.43-2.475z" fill="#EB996E"/>
        <path d="M329.198 126.506c.219.346 1.228.106 2.405.205 1.18.056 2.15.427 2.412.111.116-.154-.01-.492-.415-.84-.4-.345-1.092-.663-1.902-.718-.81-.052-1.539.172-1.98.463-.447.292-.614.611-.52.779M345.872 135.872c-.07.697-.716 1.213-1.444 1.155-.728-.058-1.263-.67-1.194-1.367.068-.697.715-1.214 1.443-1.156.728.058 1.264.67 1.195 1.368M346.865 132.697c-.186.15-1.082-.721-2.495-.908-1.409-.207-2.544.38-2.674.187-.065-.086.143-.374.638-.642.489-.268 1.29-.484 2.17-.361.879.123 1.575.547 1.957.936.389.392.494.722.404.788M346.651 127.855c-.29.287-1.22-.177-2.388-.35-1.162-.214-2.19-.076-2.374-.442-.078-.177.122-.477.596-.724.467-.245 1.214-.396 2.016-.264.8.135 1.458.52 1.82.903.37.386.46.735.33.877" fill="#263238"/>
        <path d="m357.464 140.387-2.045 1.564c-6.512-8.469-18.628-29.032-17.962-27.816 0 0 5.551-1.353 11.074.48 5.522 1.831 15.843 6.313 14.66 12.98-1.185 6.668-5.727 12.792-5.727 12.792" fill="#242429"/>
        <path d="M361.682 146.952c-.04-.008.06-.584.178-1.626.122-1.042.204-2.563.08-4.43-.214-3.728-1.583-8.864-4.637-13.708-3.056-4.848-6.891-8.444-9.748-10.86a95.72 95.72 0 0 0-3.474-2.784c-.835-.641-1.296-.999-1.276-1.028.01-.013.138.058.373.206.234.15.58.369 1.013.671.87.595 2.108 1.49 3.58 2.674 2.926 2.36 6.84 5.95 9.94 10.865 3.098 4.915 4.44 10.16 4.568 13.943.083 1.897-.053 3.433-.234 4.476-.069.524-.184.922-.24 1.193-.064.271-.107.412-.123.408" fill="#455A64"/>
        <path d="M347.244 112.776c.009-.014.141.053.385.195.246.14.6.358 1.051.648.9.581 2.184 1.457 3.699 2.634a59.504 59.504 0 0 1 5.079 4.428c1.8 1.78 3.764 3.806 5.324 6.325a16.068 16.068 0 0 1 1.778 3.932c.386 1.348.548 2.7.558 3.981.015 2.57-.503 4.836-1.035 6.678a45.6 45.6 0 0 1-1.996 5.422c-.116.256-.186.388-.2.383-.035-.014.159-.574.51-1.585.345-1.01.86-2.471 1.359-4.311.486-1.836.958-4.077.92-6.58a14.714 14.714 0 0 0-.569-3.858 15.807 15.807 0 0 0-1.734-3.81c-1.52-2.459-3.453-4.475-5.225-6.261a67.092 67.092 0 0 0-4.98-4.478 77.669 77.669 0 0 0-3.593-2.746c-.866-.626-1.351-.966-1.331-.997M357.574 140.582c-.028.018-.303-.346-.774-1.019l-1.962-2.872a809.506 809.506 0 0 1-6.318-9.573 802.85 802.85 0 0 1-6.202-9.65l-1.834-2.956c-.424-.704-.646-1.102-.619-1.12.028-.019.302.344.774 1.016l1.96 2.87a822.25 822.25 0 0 1 6.323 9.578 822.976 822.976 0 0 1 6.202 9.652l1.833 2.955c.425.704.646 1.1.617 1.119" fill="#455A64"/>
        <path d="M355.511 143.103c.076-.766 1.136-2.487 1.904-2.532 2.049-.12 5.674.395 5.21 5.531-.631 7.02-7.544 4.937-7.539 4.736.006-.16.163-5.09.425-7.735" fill="#FFBE9D"/>
        <path d="M357.022 148.2c.033-.02.115.096.312.21.194.11.534.206.912.101.766-.205 1.496-1.326 1.644-2.589a4.047 4.047 0 0 0-.184-1.782c-.168-.533-.467-.922-.835-1.021a.624.624 0 0 0-.751.27c-.112.188-.08.332-.118.34-.021.017-.14-.131-.058-.415a.78.78 0 0 1 .317-.416.927.927 0 0 1 .69-.118c.539.087.98.63 1.18 1.205a4.17 4.17 0 0 1 .247 1.994c-.173 1.411-1.016 2.67-2.056 2.872-.505.083-.903-.103-1.101-.287-.202-.193-.224-.354-.199-.364" fill="#EB996E"/>
        <path d="M371.986 403.032c-.143 1.106-2.864 31.995-2.864 31.995h-14.139l-2.478-31.867 19.48-.128z" fill="#FFBE9D"/>
        <path d="M354.947 430.426s9.928 7.053 14.734.948l1.256 2.958 5.646 21.076c.365 1.365-.274 2.868-1.588 3.384a2.726 2.726 0 0 1-2.889-.553c-4.084-3.889-19.037-18.265-18.89-20.216l.057-5.175a2.631 2.631 0 0 1 1.674-2.422" fill="#AE2F2F"/>
        <path d="m374.508 458.934-21.3-22.71.005 1.13c-.106 1.225.429 1.709 1.01 2.494 1.723 2.326 6.492 7.529 17.802 18.392a2.728 2.728 0 0 0 2.483.694" fill="#263238"/>
        <path d="M356.329 432.856c.669.46.892 1.47.46 2.159-.43.687-1.455.923-2.133.476-.677-.448-.982-1.653-.476-2.288.505-.636 1.723-.847 2.274-.25" fill="#FFF"/>
        <path d="M368.367 447.303c.15.073.747-1.327 2.33-2.085 1.559-.805 3.033-.435 3.066-.6.022-.065-.316-.272-.94-.358-.618-.088-1.52.003-2.387.433-.866.433-1.484 1.097-1.786 1.644-.309.55-.349.944-.283.966M370.28 450.867c.128.115.98-.756 2.357-1.157 1.369-.43 2.56-.18 2.602-.346.076-.137-1.21-.697-2.772-.214-1.567.466-2.326 1.646-2.186 1.717M364.814 442.738c.126.127 1.43-1.22 3.517-2.03 2.074-.846 3.945-.762 3.95-.94.043-.143-1.94-.505-4.167.395-2.235.876-3.428 2.5-3.3 2.575M364.341 436.322c.073.16 1.542-.462 3.459-.54 1.914-.103 3.436.378 3.493.213.072-.13-1.463-.904-3.522-.798-2.058.089-3.515 1.002-3.43 1.125" fill="#263238"/>
        <path d="M368.89 435.725c.034-.006.027-.37-.149-.998a7.034 7.034 0 0 0-1.274-2.451c-.375-.434-.786-1.005-1.582-1.213-.396-.107-.926.063-1.172.468-.244.395-.26.844-.193 1.262.34 1.66 2.069 3.001 3.984 2.89 1.917-.146 3.417-1.538 3.892-3.115.093-.402.12-.88-.166-1.284-.284-.41-.849-.488-1.212-.354-.757.262-1.164.804-1.558 1.222a7.825 7.825 0 0 0-1.407 2.373c-.225.611-.266.972-.233.981.104.051.421-1.412 1.947-3.077.39-.39.834-.874 1.385-1.032.268-.077.522-.013.66.189.141.193.147.532.061.85-.408 1.295-1.783 2.565-3.406 2.662-1.612.11-3.13-1.071-3.416-2.404-.064-.323-.039-.663.098-.887a.595.595 0 0 1 .642-.268c.548.11.993.597 1.359 1.003 1.464 1.719 1.63 3.231 1.74 3.183" fill="#263238"/>
        <path fill="#FFBE9D" d="m294.34 392.98 2.437 39.427 17.123-.12 2.893-40.962z"/>
        <path d="m296.466 427.653-.01 1.14s-19.336 7.681-19.556 11.346l38.333-.04-.534-12.766c-5.697 2.647-11.661 2.952-18.233.32" fill="#AE2F2F"/>
        <path d="M310.821 431.418c.743.202 1.256 1.037 1.084 1.787-.17.75-1.014 1.28-1.76 1.091-.745-.189-1.392-1.171-1.138-1.898.254-.726 1.278-1.294 1.957-.931" fill="#FFF"/>
        <path d="m315.233 440.099-.128-3.07-36.694 1.163s-1.706.744-1.51 1.947l38.332-.04zM296.322 428.9c.006.187.943.272 1.865.873.937.578 1.413 1.388 1.585 1.314.172-.036-.108-1.156-1.237-1.865-1.122-.718-2.254-.493-2.213-.322M292.304 430.569c-.043.182.768.5 1.405 1.292.66.772.82 1.629 1.007 1.62.176.03.304-1.068-.506-2.037-.802-.976-1.902-1.054-1.906-.875M290.025 435.387c.17.04.43-.896-.052-1.92-.475-1.03-1.358-1.434-1.437-1.278-.105.154.464.704.847 1.552.401.838.457 1.628.642 1.646" fill="#263238"/>
        <path d="M316.789 270.95c-.51 1.477-20.814 70.32-20.814 70.32l-3.493 81.686 25.274 1.46 9.046-81.559 23.087-51.01-10.146-41.497h-20.65l-2.304 20.6z" fill="#242429"/>
        <path d="M334.778 250.35c.36.984 13.311 47.705 13.311 47.705l1.8 69.646v57.615h23.025l10.732-127.071s1.894-23.06-1.345-30.866c-3.237-7.805-16.364-21.402-16.364-21.402l-31.16 4.373z" fill="#242429"/>
        <path d="M336.628 255.129c.036-.01.22.571.522 1.627l1.302 4.462 4.42 14.694c1.7 5.751 3.092 11.006 3.896 14.858.416 1.922.691 3.49.85 4.58.157 1.088.228 1.692.193 1.698-.037.005-.174-.588-.393-1.663-.22-1.075-.55-2.628-1.01-4.534-.894-3.82-2.339-9.044-4.037-14.791-1.702-5.743-3.259-10.944-4.275-14.74-.514-1.898-.9-3.441-1.142-4.514-.243-1.072-.36-1.668-.326-1.677M344.576 255.129c.036.086-.805.107-1.443 1.037-.302.445-.48 1.118-.2 1.762.253.635.925 1.22 1.707 1.26.784.032 1.507-.488 1.818-1.096.337-.616.221-1.302-.038-1.773-.55-.985-1.384-1.085-1.341-1.167.003-.03.198-.052.528.058.325.107.784.385 1.132.92.347.512.55 1.381.15 2.177-.37.77-1.231 1.438-2.273 1.405-1.04-.064-1.837-.808-2.132-1.608-.325-.83-.043-1.677.35-2.154.395-.502.877-.735 1.211-.812.34-.08.531-.038.531-.01M365.023 288.675c.01 0 .017.118.025.35l.021 1.03.03 3.958c.023 3.438-.015 8.412-.113 14.557-.18 12.292-.731 29.264-1.45 48.002-.72 18.744-1.329 35.712-1.605 47.997-.144 6.143-.237 11.115-.279 14.55-.029 1.694-.05 3.02-.067 3.958-.013.43-.024.77-.03 1.028-.01.232-.02.35-.03.35-.009 0-.017-.118-.024-.35l-.021-1.028-.03-3.958c-.022-3.437.015-8.411.112-14.557.182-12.291.732-29.265 1.451-48.01.72-18.738 1.328-35.703 1.604-47.99.144-6.142.239-11.114.279-14.55l.068-3.957.031-1.03c.01-.232.02-.35.028-.35M329.487 280.286c.008.003-.031.125-.116.36l-.39 1.034-1.552 3.956-5.797 14.515c-2.404 6.141-5.243 13.47-7.915 21.769-2.653 8.287-5.274 17.565-6.372 27.555-.524 4.993-.757 9.915-1.062 14.65l-.74 13.67c-.45 8.71-.853 16.556-1.193 23.155-.36 6.59-.703 11.922-.979 15.603-.147 1.816-.261 3.237-.343 4.237l-.105 1.1c-.027.247-.045.374-.054.374-.01 0-.008-.129 0-.378l.055-1.105.244-4.242c.215-3.684.5-9.016.813-15.608l1.08-23.16.71-13.676c.3-4.742.527-9.65 1.055-14.676 1.104-10.051 3.75-19.352 6.433-27.649 2.704-8.306 5.58-15.629 8.03-21.756 2.464-6.124 4.534-11.047 5.952-14.454l1.642-3.92.438-1.014c.102-.228.158-.343.166-.34" fill="#455A64"/>
        <path d="M364.225 168.137s13.702 2.557 16.714 5.069c2.942 2.455 30.445 38.324 31.015 45.556.571 7.231-2.767 9.885-4.669 11.597-1.902 1.713-34.691 23.993-34.691 23.993l-10.08-16.75 28.333-16.937-13.674-23.412-12.948-29.116z" fill="#80D363"/>
        <path d="M400.003 214.252c.028.166-2.714.142-5.44 1.884-2.76 1.691-3.937 4.17-4.074 4.07-.053-.022.152-.67.75-1.58.593-.909 1.63-2.044 3.047-2.934 1.418-.884 2.893-1.322 3.968-1.456 1.08-.14 1.75-.042 1.749.016" fill="#FF725E"/>
        <path d="m331.03 169.871 3.63 32.985 18.536-37.193 11.95 12.15s7.343 43.442 7.446 43.75c.103.308-5.028 24.853-5.028 24.853l-33.965 6.572-10.363-2.637-1.642-38.635-.718-29.59 10.153-12.255z" fill="#FFF"/>
        <path d="m326.626 171.275-8.822 2.052a7.515 7.515 0 0 0-3.187 1.61c-7.533 6.45-23.803 20.095-23.803 20.095l2.993-24.21-15.628-1.496s-4.703 30.512-4.214 38.543c.568 9.32 8.917 11.608 21.074 6.597 13.467-5.55 21.737-10.732 21.737-10.732l9.85-32.46zM375.817 197.34l-1.61 28.927 1.618 5.626s15.213 28.738 17.684 47.77l-18.825 3.045s-5.135-24.55-8.747-36.73c-3.613-12.181-14.262-17.32-17.875-29.881-3.614-12.56-2.282-21.316-2.282-22.077 0-.761 7.416-28.357 7.416-28.357l1.33-5.77 6.657 6.341 17.114 5.709-2.48 25.397z" fill="#80D363"/>
        <path d="M384.793 251.129s-6.476 4.952-9.751 6.643c-.195.1-.459.21-.753.32-1.397.527-2.967-.074-3.683-1.384-.399-.732-.81-1.51-1.081-2.092-.697-1.49-1.443-3.289-2.112-4.846l2.112-.518 3.068 5.1 8.851-6.072 1.687-1.156 1.662 4.005z" fill="#4A842A"/>
        <path d="m331.193 166.615-4.116 4.307-9.862 3.464s-2.416 29.146-1.103 35.336c1.265 5.964 3.668 13.214 3.872 21.781.204 8.568-9.578 53.85-9.578 53.85l11.82 4.488s6.033-52.422 4.85-63.845c-1.181-11.422 1.876-34.472 1.876-34.472l2.241-24.91z" fill="#80D363"/>
        <path d="M353.573 222.187c-.014.012-.162-.15-.435-.474-.268-.327-.624-.842-1.007-1.551-.75-1.423-1.426-3.714-1.527-6.59-.116-2.876.21-6.275.695-10.023a88.035 88.035 0 0 1 2.505-12.039c2.185-7.877 5.336-14.677 8.051-19.498l.165.288-4.185-.135-.299-.01.176-.236 2.747-3.699.746-.967c.173-.216.268-.324.28-.316.011.009-.06.133-.21.366l-.68 1.015-2.63 3.782-.123-.246 4.187.058.319.004-.154.284c-2.63 4.842-5.715 11.62-7.887 19.452a92.247 92.247 0 0 0-2.531 11.964c-.509 3.723-.87 7.11-.803 9.943.053 2.839.66 5.087 1.34 6.513.693 1.425 1.31 2.079 1.26 2.115" fill="#263238"/>
        <path d="M365.147 195.459c.026.137-2.13.65-4.843.923-2.712.278-4.927.208-4.93.068-.002-.15 2.187-.312 4.878-.589 2.69-.269 4.869-.549 4.895-.402M377.155 188.757c.039.01-.053.53-.21 1.464a92.38 92.38 0 0 0-.462 4c-.324 3.385-.65 8.078-.968 13.264l-.805 13.287c-.113 1.7-.218 3.075-.305 4.025-.092.95-.163 1.473-.198 1.47-.036-.003-.034-.53-.005-1.483l.139-4.031c.132-3.405.338-8.108.652-13.3.319-5.19.703-9.886 1.123-13.274.208-1.693.436-3.058.629-3.994.22-.933.38-1.437.41-1.428M399.063 221.589c-.051.148-1.903-.448-4.265-.616-2.361-.187-4.281.126-4.31-.028-.037-.127 1.9-.685 4.349-.493 2.449.175 4.282 1.018 4.226 1.137M290.91 194.432c.132.059-.487 1.736-1.382 3.746-.896 2.01-1.73 3.592-1.86 3.533-.133-.059.486-1.735 1.382-3.746.895-2.01 1.73-3.593 1.86-3.533M315.516 184.778c.144-.003.371 5.684.506 12.702.135 7.02.128 12.711-.016 12.713-.145.003-.372-5.684-.506-12.703-.136-7.018-.129-12.71.016-12.712M327.215 208.66c-.036.002-.078-.52-.124-1.465l-.147-4.004c-.1-3.382-.203-8.056-.285-13.219-.081-5.164-.125-9.838-.131-13.222l.02-4.006c.016-.946.042-1.47.078-1.47.036.001.078.524.125 1.47l.146 4.005c.1 3.382.204 8.054.285 13.215.081 5.16.126 9.832.132 13.216l-.02 4.008c-.017.947-.043 1.472-.079 1.473" fill="#263238"/>
        <path d="M401.507 234.52c.008.014-.177.16-.54.426l-1.608 1.156-6.03 4.229c-5.19 3.587-12.386 8.56-20.59 14.232l-.224.154-.14-.234-4.516-7.491-5.562-9.259-.132-.217.22-.13 20.33-12.047c2.506-1.463 4.521-2.638 5.954-3.473.67-.381 1.205-.683 1.607-.911.368-.204.564-.304.571-.29.008.013-.172.138-.525.366l-1.563.984-5.878 3.6-20.237 12.206.086-.349 5.577 9.25 4.506 7.497-.364-.08 20.693-14.083 6.115-4.102 1.657-1.084c.38-.242.583-.363.593-.35" fill="#263238"/>
        <path d="M352.193 220.017c-.487-4.29.23-8.625 1.163-12.842a125.962 125.962 0 0 1 12.667-33.582c-1.272-.861-3.079-.48-4.272.49-1.193.968-1.907 2.394-2.554 3.79-4.386 9.452-7.274 19.647-8.277 30.02-.233 2.417-.35 3.97-.15 6.072.2 2.102.201 4.314 1.506 5.972" fill="#4A842A"/>
        <path d="M315.483 186.882c-3.12 5.43-2.705 11.957.278 17.463 0-6.057 0-11.305-.362-17.38" fill="#38771C"/>
        <path d="M339.752 146.649c-.08-.353-.251-.717-.576-.874-.201-.097-.433-.1-.656-.097-1.303.019-2.605.205-3.862.552l-.072.199c.08.558.162 1.12.346 1.655.185.534.48 1.042.922 1.393.822.652 2.087.622 2.923-.013.835-.635 1.209-1.792.975-2.815" fill="#EB996E"/>
        <path d="M335.88 149.718c.019-.088.663.184 1.625-.095.468-.144.997-.441 1.351-.965.354-.515.541-1.249.36-1.945-.083-.345-.263-.653-.501-.776-.234-.128-.57-.085-.899-.017l-1.812.34c-1.036.18-1.684.255-1.699.185-.016-.07.604-.274 1.62-.545.583-.147 1.177-.298 1.79-.451.333-.074.773-.188 1.233.032.446.232.668.682.774 1.102.224.87-.024 1.75-.474 2.356a2.761 2.761 0 0 1-1.651 1.042c-1.124.211-1.757-.227-1.717-.263" fill="#263238"/>
        <path d="M357.771 150.727c-.269-.712-1.146-1.315-1.885-1.138l.02.003a1.523 1.523 0 0 0-1.108.687c-.409.642-.333 1.556.183 2.114.517.559 1.432.7 2.087.313.655-.386.972-1.268.703-1.98" fill="#FAFAFA"/>
        <path d="m362.948 238.6-11.603-10.297-9.804.845s.338 1.607 1.691 1.861c1.352.255 6.254.339 6.254.339l2.297 2.284-5.846-.59-7.437 4.395s-.17 1.354 1.774 1.016c1.944-.339 5.663-1.861 5.663-1.861l4.323.254-4.72.677-6.111 4.312s1.267 1.439 3.211.847c1.944-.592 4.31-1.522 4.31-1.522l5.325-.509-5.325 1.354-3.972 4.906s1.237.93 2.562 0c1.326-.93 2.255-1.776 2.255-1.776l5.916-.254s6.535 4.736 8.803 5.243c2.268.509 7.011-.871 7.011-.871l-6.577-10.653z" fill="#FFBE9D"/>
        <path fill="#FAFAFA" d="M413.155 387.73H593.08V287.037H413.155z"/>
        <path d="M593.08 387.729s-.014-.62-.02-1.809c-.006-1.194-.014-2.955-.023-5.259l-.05-20.128-.106-73.496.2.2-179.912.062h-.014l.262-.262-.018 100.692-.244-.244 129.404.118c15.91.028 28.526.05 37.176.067l9.908.03 2.56.014c.576.005.877.015.877.015s-.28.01-.848.015l-2.531.014-9.86.03-37.12.066-129.566.119h-.244v-.244l-.017-100.692v-.262h.275l179.911.063h.2v.2l-.106 73.618-.05 20.084-.023 5.221a112.082 112.082 0 0 1-.02 1.768" fill="#263238"/>
        <path fill="#CFCFCF" d="M435.144 336.495h25.436v-25.459h-25.436z"/>
        <path d="M495.515 314.614c0 .144-5.936.26-13.258.26-7.325 0-13.26-.116-13.26-.26 0-.145 5.935-.261 13.26-.261 7.322 0 13.258.116 13.258.26" fill="#FF725E"/>
        <path d="M580.221 323.766c0 .144-24.9.26-55.608.26-30.721 0-55.615-.116-55.615-.26 0-.145 24.894-.261 55.615-.261 30.708 0 55.608.116 55.608.26M542.8 334.033c0 .145-16.362.262-36.54.262-20.185 0-36.543-.117-36.543-.262 0-.144 16.358-.26 36.543-.26 20.178 0 36.54.116 36.54.26" fill="#263238"/>
        <path d="M566.444 374.383H443.538c-6.51 0-11.788-5.283-11.788-11.8 0-6.515 5.278-11.797 11.788-11.797h122.906c6.51 0 11.79 5.282 11.79 11.798s-5.28 11.8-11.79 11.8" fill="#80D363"/>
        <path d="m481.925 363.096-1.03-2.49-1.03 2.49h2.06zm.473 1.143h-3.015l-.576 1.392h-1.54l2.894-6.5h1.486l2.904 6.5h-1.578l-.575-1.392zM489.341 361.49c0-.715-.464-1.133-1.383-1.133h-1.225v2.257h1.225c.919 0 1.383-.418 1.383-1.124m1.522 0c0 1.448-1.085 2.35-2.821 2.35h-1.309v1.792h-1.503v-6.502h2.812c1.736 0 2.82.901 2.82 2.36M496.043 361.49c0-.715-.464-1.133-1.383-1.133h-1.225v2.257h1.225c.919 0 1.383-.418 1.383-1.124m1.522 0c0 1.448-1.085 2.35-2.821 2.35h-1.309v1.792h-1.503v-6.502h2.812c1.736 0 2.82.901 2.82 2.36M498.634 359.13h1.503v5.276h3.256v1.226h-4.76zM506.689 363.329v2.303h-1.503v-2.322l-2.515-4.18h1.597l1.735 2.89 1.735-2.89h1.476zM518.431 359.13v6.502h-1.233l-3.24-3.947v3.947h-1.483v-6.501h1.243l3.23 3.947v-3.947zM525.151 362.381c0-1.235-.872-2.08-2.03-2.08-1.162 0-2.034.845-2.034 2.08s.872 2.08 2.033 2.08c1.16 0 2.031-.845 2.031-2.08m-5.585 0c0-1.932 1.503-3.362 3.554-3.362 2.041 0 3.554 1.42 3.554 3.362 0 1.942-1.513 3.363-3.554 3.363-2.051 0-3.554-1.431-3.554-3.363M537.412 359.13l-2.126 6.502h-1.614l-1.428-4.402-1.476 4.402h-1.606l-2.135-6.501h1.56l1.466 4.569 1.53-4.57h1.393l1.486 4.607 1.512-4.606z" fill="#FFF"/>
        <path fill="#FAFAFA" d="M397.875 147.259h146.107V65.493H397.875z"/>
        <path d="M543.983 147.26s-.014-.507-.021-1.473c-.005-.976-.014-2.405-.023-4.275l-.05-16.349-.106-59.67.2.2-146.097.061h-.01l.26-.261c-.005 28.914-.012 56.569-.018 81.766l-.242-.244 105.066.119 30.194.066 8.05.03 2.081.014c.47.005.716.015.716.015s-.227.01-.687.015l-2.053.014-8.001.03-30.139.067-105.227.118h-.245v-.244l-.017-81.766v-.261h.272l146.097.061h.2v.2l-.107 59.793-.05 16.305-.022 4.237c-.007.953-.021 1.431-.021 1.431" fill="#263238"/>
        <path fill="#CFCFCF" d="M415.73 105.655h20.656V84.982h-20.655z"/>
        <path d="M464.755 87.886c0 .145-4.82.261-10.766.261-5.948 0-10.768-.116-10.768-.26 0-.145 4.82-.262 10.768-.262 5.945 0 10.766.117 10.766.261" fill="#FF725E"/>
        <path d="M533.54 95.318c0 .145-20.22.261-45.157.261-24.946 0-45.162-.116-45.162-.261 0-.145 20.216-.261 45.162-.261 24.938 0 45.157.116 45.157.261M503.152 103.656c0 .145-13.286.261-29.672.261-16.391 0-29.675-.116-29.675-.261 0-.145 13.284-.261 29.675-.261 16.386 0 29.672.116 29.672.26" fill="#263238"/>
        <path d="M522.353 136.422h-99.805c-5.288 0-9.574-4.29-9.574-9.582 0-5.29 4.286-9.58 9.574-9.58h99.805c5.287 0 9.573 4.29 9.573 9.58 0 5.292-4.286 9.582-9.573 9.582" fill="#80D363"/>
        <path d="m453.718 127.256-.836-2.02-.837 2.02h1.673zm.384.927h-2.448l-.468 1.131h-1.25l2.35-5.278h1.205l2.36 5.278h-1.281l-.468-1.13zM459.74 125.952c0-.58-.377-.92-1.122-.92h-.995v1.832h.995c.745 0 1.123-.34 1.123-.912m1.234 0c0 1.176-.88 1.907-2.29 1.907h-1.062v1.455h-1.22v-5.277h2.282c1.41 0 2.29.73 2.29 1.915M465.183 125.952c0-.58-.378-.92-1.123-.92h-.995v1.832h.995c.745 0 1.123-.34 1.123-.912m1.234 0c0 1.176-.881 1.907-2.29 1.907h-1.062v1.455h-1.22v-5.277h2.282c1.409 0 2.29.73 2.29 1.915M467.287 124.037h1.22v4.282h2.645v.996h-3.865zM473.828 127.445v1.87h-1.22v-1.885l-2.042-3.393h1.296l1.408 2.344 1.41-2.344h1.197zM483.362 124.037v5.278h-1.002l-2.63-3.205v3.205h-1.204v-5.278h1.01l2.62 3.204v-3.204zM488.82 126.676c0-1.004-.708-1.69-1.65-1.69s-1.65.686-1.65 1.69c0 1.003.708 1.689 1.65 1.689s1.65-.686 1.65-1.69m-4.536 0c0-1.567 1.22-2.73 2.886-2.73 1.657 0 2.885 1.155 2.885 2.73 0 1.577-1.228 2.73-2.885 2.73-1.665 0-2.886-1.16-2.886-2.73M498.774 124.037l-1.725 5.278h-1.31l-1.162-3.575-1.197 3.575h-1.303l-1.732-5.278h1.265l1.19 3.709 1.244-3.71h1.13l1.205 3.741 1.228-3.74z" fill="#FFF"/>
    </g>
</svg>
