<svg width="12" height="9" viewBox="0 0 12 9" fill="none" xmlns="http://www.w3.org/2000/svg">
<path d="M10.6736 3.33021H2.93778L5.13646 1.13153C5.25808 1.00561 5.32538 0.836947 5.32386 0.661882C5.32234 0.486817 5.25212 0.319354 5.12833 0.19556C5.00453 0.0717661 4.83707 0.0015465 4.66201 2.52402e-05C4.48694 -0.00149602 4.31828 0.0658027 4.19236 0.187427L0.853936 3.52585C0.728765 3.65106 0.658447 3.82085 0.658447 3.9979C0.658447 4.17494 0.728765 4.34474 0.853936 4.46995L4.19236 7.80837C4.25395 7.87214 4.32762 7.92301 4.40908 7.958C4.49054 7.99299 4.57816 8.01141 4.66681 8.01218C4.75547 8.01295 4.84339 7.99606 4.92544 7.96249C5.0075 7.92891 5.08205 7.87934 5.14474 7.81665C5.20743 7.75396 5.25701 7.67941 5.29058 7.59735C5.32415 7.5153 5.34104 7.42738 5.34027 7.33872C5.3395 7.25007 5.32108 7.16245 5.28609 7.08099C5.2511 6.99953 5.20023 6.92586 5.13646 6.86427L2.93778 4.66558H10.6736C10.8506 4.66558 11.0205 4.59524 11.1457 4.47002C11.2709 4.34481 11.3412 4.17498 11.3412 3.9979C11.3412 3.82082 11.2709 3.65099 11.1457 3.52578C11.0205 3.40056 10.8506 3.33021 10.6736 3.33021Z" fill="#535353"/>
</svg>
