<svg width="63" height="63" viewBox="0 0 63 63" fill="none" xmlns="http://www.w3.org/2000/svg">
<g clip-path="url(#clip0_176_1360)">
<path d="M58.3378 0H4.64672C2.08325 0 0 2.03369 0 4.54247V58.454C0 60.9628 2.08325 63 4.64672 63H58.3378C60.9065 63 62.9982 60.9628 62.9982 58.454V4.54247C62.9982 2.03369 60.9065 0 58.3378 0Z" fill="#007BB5"/>
<path d="M9.33543 23.6179H18.6887V53.6824H9.33543V23.6179ZM14.0146 8.67285C17.0037 8.67285 19.4303 11.1005 19.4303 14.0912C19.4303 17.0828 17.0036 19.5103 14.0146 19.5103C11.0137 19.5103 8.59375 17.0828 8.59375 14.0912C8.59375 11.1005 11.0137 8.67285 14.0146 8.67285Z" fill="white"/>
<path d="M24.5508 23.6181H33.5076V27.7282H33.6357C34.8816 25.3646 37.9304 22.8721 42.4764 22.8721C51.9372 22.8721 53.6857 29.0972 53.6857 37.1942V53.6826H44.3426V39.0622C44.3426 35.5758 44.2827 31.0906 39.4874 31.0906C34.6254 31.0906 33.8835 34.8905 33.8835 38.8126V53.6826H24.5508V23.6181Z" fill="white"/>
</g>
<defs>
<clipPath id="clip0_176_1360">
<rect width="63" height="63" fill="white"/>
</clipPath>
</defs>
</svg>
