<svg width="84" height="85" viewBox="0 0 84 85" fill="none" xmlns="http://www.w3.org/2000/svg">
<path d="M64.3827 44.248C72.916 44.248 79.8338 50.7573 79.8338 58.7872C79.8338 66.8172 72.916 73.3264 64.3827 73.3264C55.8494 73.3264 48.9316 66.8172 48.9316 58.7872C48.9316 50.7573 55.8494 44.248 64.3827 44.248Z" fill="#3BD55A"/>
<path d="M10.0085 44.0703C10.0085 44.0703 2.91999 61.6058 4.32233 62.8821C5.72467 64.1585 19.8893 54.2205 19.8893 54.2205L10.0085 44.0703Z" fill="white"/>
<path d="M36.2624 11.459C52.1344 11.459 65.0015 22.2619 65.0015 35.5878C65.0015 48.9137 52.1344 59.7166 36.2624 59.7166C20.3905 59.7166 7.52344 48.9137 7.52344 35.5878C7.52344 22.2619 20.3905 11.459 36.2624 11.459Z" fill="white"/>
<path d="M56.6738 58.5947L59.0669 56.1935L62.5277 59.9459L70.4693 51.9648L73.1974 54.8856L62.5277 65.3037L56.6738 58.5947Z" fill="white" stroke="white" stroke-width="2.50713"/>
<path d="M26.6621 25.0594L31.2504 29.4712C31.2504 29.4712 36.9063 23.619 38.8111 29.9043C38.8111 29.9043 39.0931 34.7004 32.7786 34.9348L33.1335 42.7643L39.7919 42.1166C39.7919 42.1166 39.2184 40.2822 39.7919 39.1735C40.3655 38.0648 46.0369 34.4832 45.7545 28.5685C45.472 22.6539 42.7732 19.5858 36.8357 19.8277C30.8981 20.0696 26.6621 25.0594 26.6621 25.0594Z" fill="#3BD55A"/>
<circle cx="36.7961" cy="47.1379" r="2.92499" fill="#3BD55A"/>
</svg>
