<svg width="14" height="18" viewBox="0 0 14 18" fill="none" xmlns="http://www.w3.org/2000/svg">
<path d="M6.99674 9.00033C7.45508 9.00033 7.84744 8.83713 8.17383 8.51074C8.50022 8.18435 8.66341 7.79199 8.66341 7.33366C8.66341 6.87533 8.50022 6.48296 8.17383 6.15658C7.84744 5.83019 7.45508 5.66699 6.99674 5.66699C6.53841 5.66699 6.14605 5.83019 5.81966 6.15658C5.49327 6.48296 5.33008 6.87533 5.33008 7.33366C5.33008 7.79199 5.49327 8.18435 5.81966 8.51074C6.14605 8.83713 6.53841 9.00033 6.99674 9.00033ZM6.99674 17.3337C4.76063 15.4309 3.09049 13.6635 1.98633 12.0316C0.882161 10.3996 0.330078 8.88921 0.330078 7.50033C0.330078 5.41699 1.00022 3.75727 2.34049 2.52116C3.68077 1.28505 5.23286 0.666992 6.99674 0.666992C8.76063 0.666992 10.3127 1.28505 11.653 2.52116C12.9933 3.75727 13.6634 5.41699 13.6634 7.50033C13.6634 8.88921 13.1113 10.3996 12.0072 12.0316C10.903 13.6635 9.23286 15.4309 6.99674 17.3337Z" fill="#115DFC"/>
</svg>
