<svg width="20" height="20" viewBox="0 0 20 20" fill="none" xmlns="http://www.w3.org/2000/svg">
<path d="M14.6664 8.66656H5.33303C4.80259 8.66656 4.29388 8.87728 3.9188 9.25236C3.54372 9.62743 3.33301 10.1361 3.33301 10.6666V16C3.33301 16.5304 3.54372 17.0391 3.9188 17.4142C4.29388 17.7893 4.80259 18 5.33303 18H14.6664C15.1969 18 15.7056 17.7893 16.0807 17.4142C16.4557 17.0391 16.6665 16.5304 16.6665 16V10.6666C16.6665 10.1361 16.4557 9.62743 16.0807 9.25236C15.7056 8.87728 15.1969 8.66656 14.6664 8.66656ZM9.99973 14.6666C9.73602 14.6666 9.47823 14.5884 9.25897 14.4419C9.0397 14.2954 8.8688 14.0872 8.76788 13.8435C8.66696 13.5999 8.64056 13.3318 8.69201 13.0731C8.74345 12.8145 8.87044 12.5769 9.05692 12.3905C9.24339 12.204 9.48097 12.077 9.73961 12.0255C9.99825 11.9741 10.2663 12.0005 10.51 12.1014C10.7536 12.2023 10.9619 12.3732 11.1084 12.5925C11.2549 12.8118 11.3331 13.0696 11.3331 13.3333C11.3331 13.6869 11.1926 14.026 10.9425 14.2761C10.6925 14.5261 10.3534 14.6666 9.99973 14.6666Z" fill="#FDA228"/>
<path d="M13.9996 7.33329H12.6662V5.99995C12.6737 5.30069 12.4033 4.62705 11.9144 4.12704C11.4255 3.62702 10.7581 3.34152 10.0589 3.33326H10.0309C9.68249 3.32717 9.33631 3.38979 9.01213 3.51755C8.68795 3.64531 8.39213 3.8357 8.14156 4.07784C7.891 4.31999 7.69061 4.60913 7.55185 4.92876C7.41309 5.24838 7.33867 5.59222 7.33286 5.94062V7.33329H5.99951V5.93328C6.01021 4.88775 6.43252 3.88856 7.17492 3.15228C7.91731 2.416 8.91996 2.00197 9.96555 1.99992H10.0062C10.532 1.99894 11.0528 2.10201 11.5386 2.30318C12.0245 2.50436 12.4657 2.79967 12.8368 3.17209C13.208 3.54452 13.5019 3.98671 13.7014 4.47318C13.901 4.95966 14.0023 5.48081 13.9996 6.00662V7.33329Z" fill="#FDA228"/>
</svg>
