<svg xmlns="http://www.w3.org/2000/svg" xmlns:xlink="http://www.w3.org/1999/xlink" width="242" height="76" viewBox="0 0 242 76">
    <defs>
        <path id="q9prxs1wqa" d="M0 0L242 0 242 66 0 66z"/>
    </defs>
    <g fill="none" fill-rule="evenodd">
        <g>
            <g>
                <path fill="#3BD55A" d="M83.013 0L34.55 47.395 20.85 28.746 14 34.272 33.201 60 89 6.037z" transform="translate(-239.000000, -316.000000) translate(182.000000, 316.000000) translate(57.000000, 0.000000)"/>
                <g>
                    <path fill="#3BD55A" d="M179.156 37.877c1.286 1.24 2.924 1.858 4.911 1.858 1.988 0 3.625-.618 4.912-1.858 1.287-1.239 1.93-2.825 1.93-4.756 0-1.9-.643-3.468-1.93-4.708-1.287-1.238-2.924-1.859-4.912-1.859-1.987 0-3.625.621-4.911 1.86-1.287 1.24-1.93 2.807-1.93 4.707 0 1.931.643 3.517 1.93 4.756zm11.753-16.44h6.158v22.982c0 3.734-1.246 6.583-3.739 8.546-2.492 1.963-5.497 2.946-9.016 2.946-2.64 0-4.96-.5-6.965-1.498-2.003-.998-3.543-2.462-4.617-4.393l5.375-3.042c1.238 2.252 3.373 3.38 6.403 3.38 1.986 0 3.55-.516 4.69-1.546 1.14-1.03 1.711-2.494 1.711-4.393v-2.607c-1.856 2.446-4.463 3.669-7.819 3.669-3.454 0-6.346-1.2-8.674-3.597-2.331-2.398-3.495-5.318-3.495-8.763 0-3.411 1.173-6.325 3.519-8.74 2.345-2.413 5.229-3.62 8.65-3.62 3.356 0 5.963 1.223 7.82 3.67v-2.994zM72.055 38.408c1.27 1.272 2.884 1.907 4.838 1.907 1.955 0 3.576-.635 4.863-1.907 1.287-1.271 1.93-2.904 1.93-4.9 0-1.997-.643-3.63-1.93-4.902-1.287-1.27-2.908-1.906-4.863-1.906-1.954 0-3.568.635-4.838 1.906-1.27 1.273-1.906 2.905-1.906 4.902 0 1.996.635 3.629 1.906 4.9zm11.631-16.971h6.305v24.14h-6.305V42.73c-1.889 2.35-4.545 3.525-7.966 3.525-3.258 0-6.051-1.231-8.381-3.694-2.33-2.462-3.494-5.48-3.494-9.052 0-3.574 1.164-6.591 3.494-9.054 2.33-2.462 5.123-3.693 8.381-3.693 3.421 0 6.077 1.175 7.966 3.524v-2.848zM109.295 20.76c2.67 0 4.878.886 6.622 2.656 1.743 1.77 2.614 4.217 2.614 7.339v14.823h-6.304v-14.05c0-1.61-.44-2.84-1.319-3.694-.88-.852-2.053-1.28-3.52-1.28-1.63 0-2.931.5-3.909 1.497-.977.998-1.466 2.495-1.466 4.49v13.037h-6.304V21.436h6.304v2.705c1.531-2.253 3.959-3.38 7.282-3.38M137.884 27.424h-5.521v10.042c0 .838.21 1.449.634 1.835.423.387 1.043.604 1.857.652.814.048 1.825.041 3.03-.024v5.649c-4.333.482-7.387.08-9.163-1.207-1.777-1.287-2.663-3.59-2.663-6.905V27.424h-4.253v-5.987h4.253V16.56l6.305-1.883v6.76h5.521v5.987zM148.538 38.408c1.27 1.272 2.884 1.907 4.84 1.907 1.953 0 3.574-.635 4.861-1.907 1.287-1.271 1.931-2.904 1.931-4.9 0-1.997-.644-3.63-1.93-4.902-1.288-1.27-2.909-1.906-4.863-1.906-1.955 0-3.568.635-4.839 1.906-1.27 1.273-1.906 2.905-1.906 4.902 0 1.996.636 3.629 1.906 4.9zm11.632-16.971h6.304v24.14h-6.304V42.73c-1.89 2.35-4.545 3.525-7.966 3.525-3.258 0-6.052-1.231-8.382-3.694-2.33-2.462-3.494-5.48-3.494-9.052 0-3.574 1.164-6.591 3.494-9.054 2.33-2.462 5.124-3.693 8.382-3.693 3.42 0 6.076 1.175 7.966 3.524v-2.848zM208.014 31.238h12.463c-.36-1.641-1.1-2.864-2.224-3.67-1.124-.803-2.403-1.207-3.837-1.207-1.694 0-3.095.427-4.203 1.28s-1.84 2.051-2.199 3.597zm.099 4.828c.846 3.026 3.143 4.539 6.89 4.539 2.41 0 4.236-.805 5.474-2.414l5.083 2.896c-2.412 3.445-5.963 5.167-10.654 5.167-4.041 0-7.283-1.207-9.726-3.62-2.443-2.416-3.666-5.458-3.666-9.126 0-3.638 1.206-6.671 3.617-9.102 2.411-2.43 5.505-3.645 9.285-3.645 3.584 0 6.541 1.223 8.87 3.669 2.33 2.446 3.495 5.473 3.495 9.078 0 .804-.082 1.657-.244 2.558h-18.424z" transform="translate(-239.000000, -316.000000) translate(182.000000, 316.000000) translate(57.000000, 0.000000) translate(0.000000, 10.000000)"/>
                    <g transform="translate(-239.000000, -316.000000) translate(182.000000, 316.000000) translate(57.000000, 0.000000) translate(0.000000, 10.000000)">
                        <mask id="po53p1bo7b" fill="#fff">
                            <use xlink:href="#q9prxs1wqa"/>
                        </mask>
                        <path fill="#FFF" d="M93.203 0L93.203 0 89.706 3.314 86.136 6.697 235.221 6.697 235.221 59.303 6.779 59.303 6.779 6.697 60.511 6.697 67.5 0 0 0 0 66 242 66 242 0z" mask="url(#po53p1bo7b)"/>
                    </g>
                </g>
            </g>
        </g>
    </g>
</svg>
