<svg width="137" height="58" xmlns="http://www.w3.org/2000/svg" xmlns:xlink="http://www.w3.org/1999/xlink">
    <defs>
        <path id="a" d="M0 58h137V0H0z"/>
    </defs>
    <g fill="none" fill-rule="evenodd">
        <path fill="#3BD55A" d="M17.736 25 10 17.435l4.037-4.998 3.65 3.827L30.716 0 35 3.451z"/>
        <path fill="#000" d="M22.682 0H0v35h35V11.738l-5.515 6.881v10.866H5.515V5.515H19.49L23.908 0zM56.078 8.275v.786c0 1.892-.678 3.49-2.033 4.792-1.356 1.303-3.17 1.954-5.445 1.954-2.318 0-4.234-.764-5.75-2.292-1.517-1.529-2.274-3.399-2.274-5.611 0-2.213.757-4.083 2.274-5.611C44.366.764 46.282 0 48.6 0c1.414 0 2.712.342 3.892 1.026 1.181.685 2.092 1.594 2.734 2.73l-1.356.785c-.481-.931-1.196-1.673-2.143-2.227a6.092 6.092 0 0 0-3.127-.83c-1.91 0-3.47.62-4.679 1.857-1.21 1.237-1.815 2.758-1.815 4.563 0 1.805.605 3.326 1.815 4.563 1.21 1.237 2.77 1.856 4.68 1.856 1.72 0 3.097-.433 4.132-1.3 1.035-.865 1.625-1.968 1.771-3.307h-6.079V8.275h7.653zM60.232 14.104h7.434v1.441h-8.964V.262h8.855v1.441h-7.325v5.415h6.779v1.44h-6.779zM79.911.262v1.441h-4.7v13.842H73.68V1.703h-4.701V.263zM44.14 32.243h5.838v2.882h-8.856V19.842h3.018z"/>
        <mask id="b" fill="#fff">
            <use xlink:href="#a"/>
        </mask>
        <path fill="#000" mask="url(#b)" d="M51.683 35.125H54.7V19.842h-3.017zM64.802 35.43c-2.303 0-4.206-.763-5.707-2.292-1.501-1.528-2.252-3.413-2.252-5.654 0-2.256.75-4.145 2.252-5.666 1.501-1.521 3.404-2.282 5.707-2.282 1.385 0 2.664.324 3.837.972 1.173.648 2.088 1.525 2.745 2.63l-2.602 1.507a4.04 4.04 0 0 0-1.619-1.605c-.7-.385-1.486-.578-2.361-.578-1.487 0-2.686.466-3.597 1.397-.911.932-1.366 2.14-1.366 3.625 0 1.47.455 2.67 1.366 3.602.911.932 2.11 1.397 3.597 1.397.875 0 1.665-.193 2.372-.578a3.914 3.914 0 0 0 1.608-1.583l2.602 1.506c-.657 1.107-1.568 1.984-2.734 2.631-1.166.648-2.449.972-3.848.972M76.26 32.243h6.45v2.882h-9.468V19.842h9.359v2.882H76.26v3.253h5.794v2.838H76.26zM93.686 19.842h3.018v15.283h-2.296l-6.56-9.345v9.345h-3.017V19.842h2.293l6.562 9.31zM104.532 35.43c-1.517 0-2.792-.338-3.827-1.015a5.429 5.429 0 0 1-2.186-2.761l2.58-1.507c.597 1.558 1.77 2.336 3.52 2.336.845 0 1.465-.153 1.859-.458.393-.306.59-.691.59-1.157 0-.539-.24-.957-.722-1.256-.48-.298-1.34-.622-2.58-.971a15.948 15.948 0 0 1-1.738-.612 7.46 7.46 0 0 1-1.421-.818 3.337 3.337 0 0 1-1.083-1.3c-.248-.523-.371-1.135-.371-1.833 0-1.383.492-2.486 1.476-3.308.984-.822 2.168-1.234 3.553-1.234 1.239 0 2.328.303 3.269.906.94.604 1.672 1.445 2.197 2.522l-2.536 1.463c-.613-1.31-1.59-1.965-2.93-1.965-.627 0-1.12.142-1.476.426a1.343 1.343 0 0 0-.536 1.102c0 .48.2.87.601 1.168.401.299 1.17.623 2.307.972.466.146.82.258 1.06.338.241.08.57.204.985.371.415.168.736.324.962.47.225.146.484.342.776.59.291.247.514.502.667.763.153.263.284.579.394.95.109.371.163.775.163 1.212 0 1.412-.513 2.533-1.541 3.362-1.028.83-2.365 1.245-4.012 1.245M114.961 32.243h6.45v2.882h-9.467V19.842h9.358v2.882h-6.34v3.253h5.794v2.838h-5.795zM129.611 32.243c1.327 0 2.405-.44 3.236-1.32.831-.881 1.247-2.027 1.247-3.44 0-1.411-.416-2.557-1.247-3.438-.83-.88-1.91-1.321-3.236-1.321h-3.061v9.52h3.061zm0-12.401c2.1 0 3.852.735 5.259 2.205 1.407 1.47 2.11 3.283 2.11 5.437 0 2.154-.703 3.966-2.11 5.436-1.407 1.47-3.16 2.205-5.259 2.205h-6.078V19.842h6.078zM.003 58H137V39.837H.003z"/>
        <path fill="#FFF" mask="url(#b)" d="M12.766 46.453H10.06v1.602h2.629v1.274H10.06v2.606H8.726v-6.756h4.04zM19.252 50.144c.42.415.938.623 1.557.623.618 0 1.137-.208 1.556-.623.419-.415.628-.944.628-1.587 0-.644-.21-1.174-.628-1.593-.42-.418-.938-.627-1.556-.627-.619 0-1.138.209-1.557.627-.419.419-.628.95-.628 1.593s.21 1.172.628 1.587m4.05.908c-.683.679-1.514 1.018-2.493 1.018-.98 0-1.81-.34-2.49-1.018-.68-.68-1.02-1.51-1.02-2.495 0-.985.34-1.816 1.02-2.495.68-.679 1.51-1.019 2.49-1.019.98 0 1.81.34 2.494 1.019.682.679 1.024 1.51 1.024 2.495 0 .984-.342 1.816-1.024 2.495M30.465 46.424v1.998h1.372a.85.85 0 0 0 .648-.295c.18-.196.27-.432.27-.71a.995.995 0 0 0-.27-.704.856.856 0 0 0-.648-.29h-1.372zm2.378 5.51-1.368-2.344h-1.01v2.345h-1.334v-6.756h2.706c.626 0 1.157.218 1.595.656.439.438.658.965.658 1.583 0 .418-.12.806-.358 1.163a2.236 2.236 0 0 1-.947.805l1.498 2.549h-1.44zM46.55 50.66h2.85v1.275h-4.185v-6.756h4.138v1.274h-2.804v1.438h2.562v1.255h-2.562zM60.826 45.179v6.756h-1.324v-4.382l-1.908 3.134-.156.006-1.9-3.124v4.366h-1.333v-6.756h1.372l1.94 3.19 1.931-3.19zM68.472 48.47a.934.934 0 0 0 .706-.294c.187-.197.28-.44.28-.73 0-.295-.093-.54-.28-.733a.941.941 0 0 0-.706-.29h-1.189v2.047h1.189zm0-3.291c.65 0 1.199.218 1.643.656.445.438.667.975.667 1.612 0 .637-.222 1.174-.667 1.612-.444.437-.992.656-1.643.656h-1.189v2.22H65.95v-6.756h2.523zM76.853 50.66h2.58v1.275H75.52v-6.756h1.334zM85.281 50.144c.419.415.938.623 1.556.623.62 0 1.138-.208 1.557-.623.419-.415.628-.944.628-1.587 0-.644-.21-1.174-.628-1.593-.42-.418-.938-.627-1.557-.627-.618 0-1.137.209-1.556.627-.419.419-.628.95-.628 1.593s.21 1.172.628 1.587m4.05.908c-.683.679-1.514 1.018-2.494 1.018-.979 0-1.809-.34-2.489-1.018-.68-.68-1.02-1.51-1.02-2.495 0-.985.34-1.816 1.02-2.495.68-.679 1.51-1.019 2.49-1.019.979 0 1.81.34 2.493 1.019.683.679 1.025 1.51 1.025 2.495 0 .984-.342 1.816-1.025 2.495M100.022 45.179l-2.32 4.121v2.635h-1.324V49.3l-2.31-4.121h1.508l1.466 2.812 1.472-2.812zM105.87 50.66h2.851v1.275h-4.185v-6.756h4.137v1.274h-2.803v1.438h2.561v1.255h-2.561zM114.86 46.424v1.998h1.372a.85.85 0 0 0 .648-.295c.18-.196.27-.432.27-.71a.995.995 0 0 0-.27-.704.856.856 0 0 0-.648-.29h-1.373zm2.377 5.51-1.367-2.344h-1.01v2.345h-1.334v-6.756h2.706c.625 0 1.157.218 1.595.656.438.438.657.965.657 1.583 0 .418-.12.806-.357 1.163a2.236 2.236 0 0 1-.948.805l1.499 2.549h-1.44zM125.53 52.07c-.67 0-1.233-.15-1.69-.449a2.4 2.4 0 0 1-.967-1.22l1.14-.667c.265.689.783 1.033 1.557 1.033.373 0 .647-.068.821-.203a.622.622 0 0 0 .261-.511.62.62 0 0 0-.319-.555c-.212-.132-.593-.275-1.14-.43a7.09 7.09 0 0 1-.769-.27c-.21-.09-.419-.21-.628-.362a1.474 1.474 0 0 1-.479-.574 1.876 1.876 0 0 1-.164-.81c0-.612.217-1.1.653-1.463.434-.364.958-.546 1.57-.546.548 0 1.03.134 1.445.401.416.267.74.639.972 1.115l-1.122.646c-.27-.579-.702-.868-1.295-.868-.277 0-.494.063-.652.188a.594.594 0 0 0-.237.488c0 .212.088.384.266.516.177.132.517.275 1.02.43.206.064.362.114.468.149.107.035.252.09.435.164.184.074.326.143.426.208.1.064.214.15.343.26.129.11.227.222.295.338.067.116.125.256.174.42.048.164.072.343.072.535 0 .625-.227 1.12-.681 1.487-.455.367-1.046.55-1.774.55"/>
    </g>
</svg>
