<svg width="194" height="82" viewBox="0 0 194 82" fill="none" xmlns="http://www.w3.org/2000/svg">
<g clip-path="url(#clip0_626_692)">
<path fill-rule="evenodd" clip-rule="evenodd" d="M24.1433 35.8749L13.344 25.3297L18.9792 18.3628L24.0735 23.6969L42.2654 1.0249L48.2435 5.83523L24.1433 35.8749Z" fill="#3BD55A"/>
<path fill-rule="evenodd" clip-rule="evenodd" d="M31.9299 0H0V49.2H49.2698V16.5004L41.5057 26.1734V41.4469H7.76411V7.7531H27.4361L33.6575 0H31.9299ZM79.4096 11.6993V12.8104C79.4096 15.4857 78.4499 17.7438 76.5304 19.5857C74.611 21.4276 72.0407 22.3481 68.8218 22.3481C65.5381 22.3481 62.8242 21.2677 60.6779 19.107C58.5305 16.9463 57.4568 14.3028 57.4568 11.1735C57.4568 8.04727 58.5305 5.40277 60.6779 3.24105C62.8242 1.08035 65.5381 0 68.8207 0C70.8223 0 72.6597 0.4838 74.3328 1.45037C76.0039 2.41797 77.2941 3.70435 78.2025 5.3095L76.2831 6.4206C75.6015 5.10347 74.5894 4.0549 73.2489 3.2718C71.9063 2.48972 70.4312 2.0992 68.8207 2.0992C66.116 2.0992 63.9081 2.97455 62.195 4.7232C60.4808 6.47185 59.6247 8.6223 59.6247 11.1746C59.6247 13.7268 60.4808 15.8762 62.195 17.6249C63.9081 19.3745 66.116 20.2489 68.8207 20.2489C71.2565 20.2489 73.2068 19.6369 74.6726 18.4131C76.1383 17.1882 76.9739 15.6292 77.1812 13.736H68.5734V11.6993H79.4096ZM85.2923 19.9403H95.8196V21.978H83.1254V0.37105H95.6656V2.40772H85.2923V10.0634H94.8906V12.1001H85.2933L85.2923 19.9403ZM113.158 0.37105V2.40772H106.502V21.978H104.335V2.40772H97.6775V0.37105H113.158ZM62.5039 45.5848H70.771V49.6592H58.2318V28.0522H62.5039V45.5848Z" fill="#242429"/>
<mask id="mask0_626_692" style="mask-type:alpha" maskUnits="userSpaceOnUse" x="0" y="0" width="194" height="82">
<path d="M0 82H194V0H0V82Z" fill="white"/>
</mask>
<g mask="url(#mask0_626_692)">
<path fill-rule="evenodd" clip-rule="evenodd" d="M73.1863 49.6599H77.4595V28.0529H73.1863V49.6599ZM91.7631 50.0914C88.5021 50.0914 85.8076 49.0111 83.6818 46.8504C81.5571 44.6897 80.4926 42.0247 80.4926 38.8554C80.4926 35.6666 81.5561 32.9965 83.6818 30.846C85.8076 28.6956 88.5021 27.6204 91.7631 27.6204C93.7237 27.6204 95.5353 28.0785 97.1972 28.9939C98.859 29.9092 100.153 31.1494 101.083 32.7136L97.3984 34.8425C96.8684 33.8826 96.0731 33.0952 95.1073 32.5742C94.1168 32.0289 93.0021 31.7562 91.7631 31.7562C89.6589 31.7562 87.9601 32.4153 86.6698 33.7314C85.3796 35.0485 84.735 36.7562 84.735 38.8564C84.735 40.9341 85.3796 42.6325 86.6698 43.9486C87.9601 45.2657 89.6579 45.9238 91.7631 45.9238C93.0021 45.9238 94.1219 45.6511 95.1227 45.1058C96.1235 44.5616 96.8831 43.8143 97.3984 42.8683L101.083 44.9982C100.154 46.5624 98.8641 47.8026 97.2136 48.7179C95.561 49.6333 93.7442 50.0914 91.7631 50.0914ZM107.988 45.5845H117.122V49.6589H103.715V28.0519H116.967V32.1263H107.988V36.7254H116.193V40.7383H107.988V45.5845ZM132.665 28.0519H136.938V49.6589H133.687L124.398 36.4477V49.6599H120.125V28.0529H123.373L132.665 41.2139V28.0519ZM148.023 50.0914C145.876 50.0914 144.07 49.6128 142.604 48.6564C141.166 47.7347 140.076 46.3605 139.508 44.7512L143.162 42.6212C144.008 44.824 145.669 45.9238 148.146 45.9238C149.344 45.9238 150.222 45.7085 150.779 45.276C151.337 44.8445 151.615 44.2992 151.615 43.6401C151.615 42.8795 151.274 42.2871 150.592 41.8658C149.912 41.4435 148.693 40.9853 146.939 40.4923C146.103 40.2516 145.281 39.9627 144.478 39.6272C143.767 39.3161 143.092 38.9277 142.466 38.469C141.805 37.9986 141.277 37.3664 140.932 36.6332C140.581 35.8921 140.406 35.028 140.406 34.0399C140.406 32.0853 141.103 30.5273 142.497 29.3639C143.89 28.2015 145.566 27.6204 147.527 27.6204C149.283 27.6204 150.825 28.0478 152.157 28.9016C153.488 29.7554 154.525 30.9434 155.268 32.4666L151.676 34.534C150.81 32.6818 149.426 31.7562 147.527 31.7562C146.639 31.7562 145.944 31.9571 145.437 32.3579C144.931 32.7597 144.679 33.2794 144.679 33.9169C144.679 34.5955 144.962 35.1469 145.531 35.5682C146.099 35.9905 147.187 36.4477 148.797 36.9417C149.457 37.1477 149.958 37.3076 150.299 37.4204C150.64 37.5331 151.104 37.7084 151.692 37.9452C152.281 38.182 152.735 38.4034 153.055 38.6084C153.374 38.8144 153.74 39.0922 154.153 39.4417C154.567 39.7922 154.882 40.152 155.097 40.522C155.315 40.8931 155.501 41.34 155.656 41.8648C155.815 42.422 155.893 42.9992 155.888 43.5786C155.888 45.5743 155.159 47.1589 153.705 48.3315C152.249 49.5051 150.355 50.0914 148.023 50.0914ZM162.792 45.5845H171.927V49.6589H158.52V28.0519H171.771V32.1263H162.792V36.7254H170.997V40.7383H162.792V45.5845ZM183.537 45.5845C185.416 45.5845 186.943 44.9623 188.12 43.717C189.296 42.4726 189.885 40.8521 189.885 38.8554C189.885 36.8597 189.296 35.2392 188.12 33.9938C186.943 32.7495 185.416 32.1263 183.537 32.1263H179.203V45.5845H183.537ZM183.537 28.0519C186.51 28.0519 188.992 29.0912 190.983 31.1699C192.975 33.2486 193.971 35.8101 193.971 38.8554C193.971 41.9017 192.976 44.4632 190.984 46.5419C188.992 48.6206 186.509 49.6589 183.537 49.6589H174.93V28.0519H183.537ZM45.0841 65.6335H43.1399V68.4584H45.0841C45.4392 68.4584 45.7461 68.319 46.0007 68.0412C46.2573 67.7645 46.3846 67.4293 46.3846 67.0388C46.3846 66.6472 46.2563 66.3151 46.0007 66.0425C45.8861 65.9127 45.745 65.809 45.5869 65.7382C45.4288 65.6675 45.2573 65.6325 45.0841 65.6335ZM164.592 65.6335H162.648V68.4584H164.591C164.947 68.4584 165.253 68.319 165.509 68.0412C165.764 67.7645 165.892 67.4293 165.892 67.0388C165.892 66.6472 165.764 66.3151 165.509 66.0425C165.394 65.9126 165.253 65.8088 165.095 65.7381C164.936 65.6674 164.766 65.6324 164.592 65.6335ZM122.967 65.5105C122.091 65.5105 121.356 65.8057 120.764 66.3971C120.17 66.9886 119.874 67.7399 119.874 68.6491C119.874 69.5582 120.17 70.3065 120.764 70.8938C121.356 71.4801 122.091 71.7733 122.967 71.7733C123.843 71.7733 124.578 71.4801 125.171 70.8938C125.763 70.3065 126.06 69.5582 126.06 68.6491C126.06 67.7389 125.763 66.9886 125.171 66.3971C124.578 65.8057 123.843 65.5105 122.967 65.5105ZM96.9601 65.6335H95.2767V68.5261H96.9601C97.3624 68.5261 97.695 68.3877 97.9598 68.1099C98.2247 67.8332 98.3571 67.4888 98.3571 67.0798C98.3571 66.6616 98.2236 66.3151 97.9598 66.0425C97.831 65.9083 97.6756 65.8025 97.5034 65.7319C97.3312 65.6613 97.1461 65.6284 96.9601 65.6335ZM29.4665 65.5105C28.5899 65.5105 27.855 65.8057 27.2627 66.3971C26.6694 66.9886 26.3728 67.7399 26.3728 68.6491C26.3728 69.5582 26.6694 70.3065 27.2627 70.8938C27.856 71.4801 28.5899 71.7733 29.4665 71.7733C30.3421 71.7733 31.077 71.4801 31.6703 70.8938C32.2636 70.3065 32.5603 69.5582 32.5603 68.6491C32.5603 67.7389 32.2626 66.9886 31.6703 66.3971C31.077 65.8057 30.3421 65.5105 29.4665 65.5105Z" fill="#242429"/>
<path fill-rule="evenodd" clip-rule="evenodd" d="M180.271 72.8389C179.627 73.3575 178.79 73.6168 177.759 73.6168C176.81 73.6168 176.011 73.4047 175.363 72.9813C174.728 72.5741 174.246 71.9672 173.994 71.2563L175.61 70.3143C175.983 71.288 176.718 71.7739 177.814 71.7739C178.343 71.7739 178.731 71.6786 178.978 71.4869C179.093 71.4049 179.187 71.2965 179.251 71.1707C179.315 71.0449 179.348 70.9055 179.347 70.7643C179.347 70.4281 179.196 70.1667 178.896 69.9801C178.594 69.7936 178.055 69.5906 177.28 69.3723C176.91 69.2658 176.547 69.1382 176.192 68.99C175.877 68.8526 175.579 68.6811 175.302 68.4785C175.01 68.2706 174.777 67.991 174.624 67.6667C174.469 67.3387 174.391 66.9574 174.391 66.5208C174.391 65.6567 174.699 64.9679 175.315 64.4533C175.931 63.9398 176.673 63.6825 177.54 63.6825C178.316 63.6825 178.997 63.8711 179.586 64.2483C180.174 64.6266 180.633 65.1514 180.962 65.8248L179.374 66.7391C178.991 65.9201 178.379 65.5111 177.54 65.5111C177.147 65.5111 176.84 65.5993 176.616 65.7776C176.509 65.8577 176.423 65.9619 176.365 66.0816C176.306 66.2014 176.277 66.3333 176.28 66.4664C176.28 66.7668 176.406 67.0097 176.657 67.1962C176.908 67.3828 177.39 67.5857 178.101 67.803C178.394 67.8943 178.614 67.965 178.765 68.0152C178.916 68.0654 179.121 68.1423 179.381 68.2469C179.641 68.3514 179.842 68.4498 179.984 68.54C180.124 68.6312 180.286 68.7553 180.469 68.909C180.652 69.0628 180.79 69.2227 180.887 69.3867C180.982 69.5507 181.064 69.7475 181.133 69.9801C181.202 70.2118 181.236 70.4639 181.236 70.7376C181.236 71.6191 180.915 72.3202 180.271 72.8389ZM166.015 73.4252L164.079 70.1103H162.649V73.4262H160.76V63.8742H164.592C165.012 63.8669 165.429 63.9454 165.817 64.105C166.205 64.2645 166.557 64.5016 166.85 64.8018C167.471 65.4209 167.782 66.1671 167.782 67.0404C167.782 67.6319 167.613 68.1792 167.275 68.6845C166.945 69.1833 166.479 69.5785 165.933 69.8243L168.055 73.4262H166.016L166.015 73.4252ZM153.956 73.4252H148.029V63.8732H153.887V65.6751H149.918V67.7077H153.545V69.481H149.918V71.6242H153.956V73.4252ZM138.352 69.7003V73.4252H136.476V69.7003L133.205 63.8732H135.34L137.416 67.8502L139.501 63.8732H141.636L138.352 69.7003ZM126.498 72.1767C125.531 73.1371 124.353 73.6168 122.967 73.6168C121.579 73.6168 120.405 73.1371 119.442 72.1767C118.479 71.2173 117.998 70.0416 117.998 68.6497C117.998 67.2577 118.479 66.0821 119.442 65.1227C120.405 64.1622 121.579 63.6825 122.967 63.6825C124.353 63.6825 125.531 64.1622 126.498 65.1227C127.466 66.0821 127.948 67.2577 127.948 68.6487C127.948 70.0416 127.466 71.2173 126.498 72.1767ZM112.482 73.4252H106.939V63.8732H108.828V71.6242H112.482V73.4252ZM99.2867 69.359C98.6575 69.9781 97.8815 70.2866 96.9598 70.2866H95.2764V73.4252H93.3877V63.8732H96.9598C97.8815 63.8732 98.6575 64.1827 99.2867 64.8008C99.917 65.4199 100.231 66.1794 100.231 67.0804C100.231 67.9804 99.917 68.7409 99.2867 69.359ZM86.1338 73.4252H84.2584V67.2301L81.5558 71.6611L81.3361 71.6693L78.6468 67.2536V73.4252H76.7581V63.8732H78.7012L81.448 68.3832L84.1814 63.8732H86.1338V73.4262V73.4252ZM69.9537 73.4252H64.027V63.8732H69.886V65.6751H65.9167V67.7077H69.5442V69.481H65.9167V71.6242H69.9537V73.4252ZM46.5075 73.4252L44.5705 70.1103H43.1397V73.4262H41.251V63.8742H45.0838C45.5036 63.8669 45.9205 63.9454 46.3089 64.105C46.6972 64.2645 47.0488 64.5016 47.342 64.8018C47.963 65.4209 48.273 66.1671 48.273 67.0404C48.2743 67.6271 48.0975 68.2003 47.7659 68.6845C47.4358 69.1833 46.971 69.5785 46.4253 69.8243L48.547 73.4262H46.5075V73.4252ZM32.9972 72.1767C32.0303 73.1371 30.852 73.6168 29.4662 73.6168C28.0795 73.6168 26.9042 73.1371 25.9414 72.1767C24.9786 71.2173 24.4972 70.0416 24.4972 68.6497C24.4972 67.2577 24.9786 66.0821 25.9414 65.1227C26.9042 64.1622 28.0795 63.6825 29.4662 63.6825C30.852 63.6825 32.0303 64.1622 32.9972 65.1227C33.9652 66.0821 34.4487 67.2577 34.4487 68.6487C34.4487 70.0416 33.9652 71.2173 32.9972 72.1767ZM18.0777 65.6751H14.2449V67.9404H17.9679V69.7413H14.2449V73.4252H12.3563V63.8732H18.0777V65.6751ZM0.00390625 82.0003H194V56.322H0.00390625V82.0003Z" fill="#242429"/>
</g>
</g>
<defs>
<clipPath id="clip0_626_692">
<rect width="194" height="82" fill="white"/>
</clipPath>
</defs>
</svg>
