<svg xmlns="http://www.w3.org/2000/svg" xmlns:xlink="http://www.w3.org/1999/xlink" width="135" height="56" viewBox="0 0 135 56">
    <defs>
        <path id="224urnicra" d="M0 0L134.922 0 134.922 37.112 0 37.112z"/>
        <path id="blfs6izfzc" d="M0 0L4.225 0 4.225 6.027 0 6.027z"/>
        <path id="81qmeu2ike" d="M0 55L135 55 135 0 0 0z"/>
    </defs>
    <g fill="none" fill-rule="evenodd">
        <g>
            <path fill="#3BD55A" d="M45.728 0L19.234 26.067 11.746 15.811 8 18.849 18.497 33 49 3.319z" transform="translate(-97.000000, -18.000000) translate(97.000000, 18.000000)"/>
            <g transform="translate(-97.000000, -18.000000) translate(97.000000, 18.000000) translate(0.000000, 1.000000)">
                <path fill="#3BD55A" d="M99.963 25.758c.717.697 1.63 1.045 2.737 1.045 1.109 0 2.022-.348 2.74-1.045.717-.697 1.075-1.588 1.075-2.675 0-1.067-.358-1.95-1.076-2.646-.717-.696-1.63-1.046-2.739-1.046-1.107 0-2.02.35-2.737 1.046-.719.696-1.076 1.579-1.076 2.646 0 1.087.357 1.978 1.076 2.675zm6.552-9.245h3.434v12.924c0 2.099-.695 3.701-2.085 4.805-1.389 1.103-3.065 1.656-5.027 1.656-1.47 0-2.765-.28-3.882-.841-1.117-.562-1.976-1.385-2.575-2.472l2.997-1.71c.69 1.268 1.88 1.901 3.57 1.901 1.107 0 1.979-.29 2.615-.869.636-.579.953-1.402.953-2.47V27.97c-1.035 1.375-2.488 2.063-4.36 2.063-1.925 0-3.537-.675-4.835-2.023-1.299-1.349-1.948-2.99-1.948-4.928 0-1.917.653-3.556 1.961-4.914 1.308-1.357 2.916-2.035 4.823-2.035 1.871 0 3.324.688 4.36 2.063v-1.684zM40.251 26.056c.709.716 1.607 1.073 2.698 1.073 1.09 0 1.994-.357 2.71-1.073.718-.714 1.077-1.633 1.077-2.755 0-1.122-.359-2.041-1.076-2.756-.717-.714-1.622-1.072-2.711-1.072-1.09 0-1.99.358-2.698 1.072-.708.715-1.062 1.634-1.062 2.756 0 1.122.354 2.04 1.062 2.755zm6.485-9.543h3.515v13.575h-3.515v-1.602c-1.054 1.322-2.534 1.982-4.442 1.982-1.817 0-3.374-.693-4.672-2.077-1.3-1.385-1.948-3.081-1.948-5.09 0-2.01.649-3.706 1.948-5.09 1.298-1.386 2.855-2.077 4.672-2.077 1.908 0 3.388.66 4.442 1.98v-1.6zM61.013 16.133c1.49 0 2.72.499 3.692 1.494.972.996 1.458 2.37 1.458 4.126v8.335h-3.515v-7.9c0-.905-.245-1.598-.735-2.077-.491-.48-1.145-.72-1.962-.72-.91 0-1.635.282-2.18.842-.545.562-.818 1.403-.818 2.525v7.33h-3.515V16.513h3.515v1.522c.854-1.268 2.208-1.902 4.06-1.902M76.953 19.88h-3.079v5.647c0 .472.117.814.354 1.032.235.216.58.338 1.035.366.455.027 1.018.024 1.69-.013v3.176c-2.416.272-4.119.045-5.11-.68-.99-.723-1.484-2.017-1.484-3.881V19.88h-2.371v-3.367h2.371v-2.741l3.515-1.059v3.8h3.079v3.367zM82.893 26.056c.708.716 1.607 1.073 2.697 1.073s1.994-.357 2.711-1.073c.718-.714 1.076-1.633 1.076-2.755 0-1.122-.358-2.041-1.076-2.756-.717-.714-1.621-1.072-2.71-1.072-1.091 0-1.99.358-2.698 1.072-.709.715-1.063 1.634-1.063 2.756 0 1.122.354 2.04 1.063 2.755zm6.484-9.543h3.515v13.575h-3.515v-1.602c-1.053 1.322-2.534 1.982-4.44 1.982-1.817 0-3.375-.693-4.674-2.077-1.299-1.385-1.948-3.081-1.948-5.09 0-2.01.65-3.706 1.948-5.09 1.299-1.386 2.857-2.077 4.673-2.077 1.907 0 3.388.66 4.441 1.98v-1.6zM116.052 22.025H123c-.2-.923-.613-1.61-1.24-2.063-.626-.453-1.34-.68-2.138-.68-.945 0-1.727.24-2.344.72-.618.48-1.027 1.154-1.226 2.023zm.055 2.715c.472 1.7 1.753 2.552 3.841 2.552 1.345 0 2.361-.453 3.052-1.357l2.835 1.628c-1.346 1.938-3.325 2.905-5.94 2.905-2.254 0-4.061-.679-5.423-2.036-1.363-1.357-2.044-3.068-2.044-5.13 0-2.046.673-3.752 2.017-5.12 1.343-1.365 3.07-2.049 5.177-2.049 1.998 0 3.646.688 4.945 2.064 1.299 1.375 1.948 3.077 1.948 5.104 0 .452-.046.932-.136 1.439h-10.272z"/>
                <g transform="translate(0.078300, 4.459684)">
                    <mask id="mzkxlsiotb" fill="#fff">
                        <use xlink:href="#224urnicra"/>
                    </mask>
                    <path fill="#000" d="M51.963 0L51.963 0 50.014 1.863 48.024 3.766 131.143 3.766 131.143 33.346 3.779 33.346 3.779 3.766 33.737 3.766 37.633 0 0 0 0 37.112 134.922 37.112 134.922 0z" mask="url(#mzkxlsiotb)"/>
                </g>
                <g transform="translate(0.000000, 47.312385)">
                    <mask id="483jb9plyd" fill="#fff">
                        <use xlink:href="#blfs6izfzc"/>
                    </mask>
                    <path fill="#979797" d="M2.209 6.027c-.545 0-1.01-.127-1.396-.382C.426 5.391.156 5.042 0 4.6l.667-.382c.227.704.747 1.054 1.558 1.054.4 0 .705-.08.917-.244.21-.164.316-.38.316-.652 0-.277-.106-.484-.316-.623-.212-.139-.565-.285-1.058-.44l-.557-.19c-.13-.045-.29-.116-.481-.212-.192-.097-.334-.197-.43-.299-.094-.103-.178-.237-.253-.403C.288 2.042.25 1.854.25 1.644c0-.504.178-.904.534-1.2C1.139.148 1.573 0 2.083 0c.462 0 .863.117 1.205.348.34.234.598.54.77.922l-.65.374c-.25-.599-.692-.897-1.325-.897-.317 0-.572.078-.767.233-.195.154-.29.365-.29.63 0 .254.091.448.274.58.183.134.5.272.95.416l.34.12.315.11c.141.05.246.093.313.125.066.033.156.08.27.142.114.061.199.119.253.174.056.056.122.123.196.204.075.08.13.162.163.246.033.083.062.178.087.286.025.109.038.223.038.345 0 .51-.186.916-.558 1.216-.372.302-.86.453-1.458.453" mask="url(#483jb9plyd)"/>
                </g>
                <path fill="#979797" d="M7.116 49.653c-.389 0-.712.11-.967.328-.255.22-.413.511-.475.877h2.783c-.06-.393-.216-.693-.467-.897-.25-.205-.541-.308-.874-.308zm-1.442 1.835c.073.37.243.66.513.863.27.206.601.308.996.308.549 0 .95-.202 1.2-.606l.616.348c-.406.626-1.017.938-1.833.938-.662 0-1.199-.205-1.613-.618-.413-.412-.62-.933-.62-1.565 0-.626.202-1.145.608-1.56.405-.415.93-.624 1.575-.624.61 0 1.11.215 1.496.644.385.43.579.945.579 1.548 0 .105-.01.213-.026.324h-3.49zM11.973 53.34c-.628 0-1.15-.209-1.566-.627-.416-.418-.625-.937-.625-1.556 0-.62.209-1.14.625-1.557.417-.419.938-.627 1.566-.627.411 0 .78.098 1.108.295.328.196.573.46.733.792l-.608.349c-.106-.221-.267-.399-.487-.53-.22-.134-.467-.2-.746-.2-.416 0-.765.14-1.046.422-.28.283-.42.635-.42 1.056 0 .415.14.763.42 1.045.28.282.63.424 1.046.424.279 0 .528-.065.75-.195.222-.13.392-.307.509-.527l.616.356c-.177.327-.434.588-.767.784-.333.197-.702.296-1.108.296M17.448 49.08h.725v4.151h-.725v-.597c-.294.47-.744.706-1.35.706-.49 0-.88-.154-1.175-.46-.294-.308-.441-.724-.441-1.25v-2.55h.725v2.508c0 .337.091.599.274.784.183.186.436.279.758.279.361 0 .653-.112.876-.336.221-.225.333-.57.333-1.035v-2.2zM19.997 49.778c.239-.515.672-.772 1.3-.772v.755c-.355-.016-.66.078-.917.282-.255.206-.383.535-.383.99v2.199h-.725v-4.15h.725v.696z"/>
                <mask id="sn3sdpbgzf" fill="#fff">
                    <use xlink:href="#81qmeu2ike"/>
                </mask>
                <path fill="#979797" d="M22.005 53.231h.725v-4.15h-.725v4.15zm.367-4.905c-.14 0-.256-.048-.35-.142-.095-.094-.143-.208-.143-.34 0-.133.048-.249.143-.345.094-.097.21-.145.35-.145.133 0 .247.048.342.145.093.096.141.212.141.345 0 .132-.048.246-.141.34-.095.094-.209.142-.342.142zM26.104 49.778h-1.108v2.25c0 .205.04.35.12.436.082.086.205.13.371.133.167.002.372-.001.617-.013v.648c-.633.083-1.097.032-1.392-.153-.294-.186-.441-.537-.441-1.051v-2.25h-.824v-.697h.824v-.947l.725-.216v1.163h1.108v.697zM29.962 49.08h.775l-1.7 4.409c-.178.47-.426.829-.746 1.075s-.687.356-1.104.329v-.673c.51.038.882-.244 1.12-.849l.08-.155-1.817-4.135h.775l1.39 3.181 1.227-3.181zM35.502 48.973c.49 0 .881.154 1.175.46.294.308.442.724.442 1.25v2.549h-.724v-2.508c0-.338-.093-.598-.276-.784-.183-.186-.436-.278-.758-.278-.36 0-.653.112-.876.336-.221.224-.333.568-.333 1.033v2.201h-.725V47.42h.725v2.258c.296-.47.746-.705 1.35-.705M38.128 53.231h.725v-4.15h-.725v4.15zm.366-4.905c-.14 0-.256-.048-.35-.142-.094-.094-.142-.208-.142-.34 0-.133.048-.249.142-.345.094-.097.21-.145.35-.145.134 0 .247.048.342.145.093.096.141.212.141.345 0 .132-.048.246-.141.34-.095.094-.208.142-.342.142zM40.685 49.778c.238-.515.672-.772 1.3-.772v.755c-.356-.016-.66.078-.917.282-.255.206-.383.535-.383.99v2.199h-.725v-4.15h.725v.696zM42.693 53.231h.725v-4.15h-.725v4.15zm.366-4.905c-.138 0-.255-.048-.35-.142-.094-.094-.14-.208-.14-.34 0-.133.046-.249.14-.345.095-.097.212-.145.35-.145.134 0 .248.048.342.145.095.096.142.212.142.345 0 .132-.047.246-.142.34-.094.094-.208.142-.342.142zM46.6 48.973c.49 0 .882.154 1.176.46.294.308.44.724.44 1.25v2.549h-.723v-2.508c0-.338-.093-.598-.275-.784-.184-.186-.437-.278-.759-.278-.36 0-.653.112-.875.336-.222.224-.333.568-.333 1.033v2.201h-.726V49.08h.726v.598c.295-.47.745-.705 1.35-.705M50.142 52.186c.283.282.636.424 1.058.424.422 0 .775-.142 1.058-.424.284-.282.425-.634.425-1.055 0-.415-.141-.763-.425-1.046-.283-.282-.636-.423-1.058-.423-.422 0-.775.141-1.058.423-.283.283-.425.631-.425 1.046 0 .421.142.773.425 1.055zm2.541-3.105h.717v3.977c0 .614-.209 1.09-.625 1.432-.417.34-.917.51-1.5.51-.467 0-.87-.088-1.208-.262-.339-.174-.595-.425-.767-.751l.633-.356c.229.465.68.697 1.36.697.433 0 .772-.114 1.02-.341.247-.227.37-.536.37-.929v-.59c-.366.553-.888.83-1.567.83-.593 0-1.097-.21-1.508-.63-.41-.421-.616-.933-.616-1.537 0-.603.205-1.114.616-1.531.411-.419.915-.627 1.508-.627.684 0 1.205.274 1.567.821v-.713zM55.583 52.376L55.041 54.394 54.416 54.394 54.749 52.376zM59.315 50.19c0 .156.082.282.245.377.164.094.359.175.586.241l.683.2c.228.067.422.192.581.376.158.185.238.421.238.71 0 .377-.145.679-.437.905-.292.228-.665.34-1.12.34-.406 0-.754-.088-1.042-.265-.29-.177-.495-.412-.617-.705l.625-.358c.066.2.191.358.375.473.183.117.402.174.658.174.239 0 .436-.045.592-.136.156-.091.232-.233.232-.427 0-.16-.08-.288-.241-.385-.162-.097-.356-.18-.582-.247l-.682-.204c-.23-.069-.425-.19-.585-.368-.162-.178-.242-.404-.242-.68 0-.361.14-.657.421-.89.28-.232.632-.348 1.054-.348.338 0 .64.076.904.228.263.153.462.364.595.635l-.608.341c-.15-.355-.447-.532-.891-.532-.206 0-.381.047-.525.142-.145.095-.217.23-.217.402M64.606 49.778h-1.108v2.25c0 .205.04.35.12.436.082.086.205.13.371.133.167.002.372-.001.617-.013v.648c-.634.083-1.097.032-1.392-.153-.294-.186-.441-.537-.441-1.051v-2.25h-.826v-.697h.826v-.947l.725-.216v1.163h1.108v.697zM67.222 52.642c.423 0 .776-.142 1.059-.427.284-.285.424-.638.424-1.059 0-.42-.14-.773-.424-1.059-.283-.285-.636-.427-1.059-.427-.416 0-.766.142-1.05.427-.283.286-.424.639-.424 1.06 0 .42.141.773.424 1.058.284.285.634.427 1.05.427zm1.483-3.561h.725v4.15h-.725v-.713c-.361.548-.886.821-1.574.821-.584 0-1.08-.21-1.492-.635-.41-.423-.616-.939-.616-1.548 0-.61.206-1.125.616-1.548.412-.424.908-.636 1.492-.636.688 0 1.213.274 1.574.822v-.713zM76.113 49.08v4.151h-.725v-3.453h-1.542v3.453h-.725v-3.453h-1.55v3.453h-.724v-3.453h-.666v-.697h.666v-.125c0-.559.157-.982.47-1.27.314-.288.765-.412 1.354-.373v.697c-.733-.061-1.1.255-1.1.946v.125h1.55v-.208c0-1.095.606-1.644 1.817-1.644.238 0 .524.036.858.108v.656c-.328-.044-.613-.067-.858-.067-.378 0-.654.071-.829.212-.175.141-.263.387-.263.735v.208h2.267zM79.287 48.973c.489 0 .88.154 1.175.46.294.308.44.724.44 1.25v2.549h-.723v-2.508c0-.338-.093-.598-.275-.784-.184-.186-.437-.278-.759-.278-.36 0-.652.112-.875.336-.222.224-.333.568-.333 1.033v2.201h-.725V49.08h.725v.598c.295-.47.745-.705 1.35-.705M82.828 52.186c.283.282.636.424 1.058.424.422 0 .775-.142 1.058-.424.284-.282.426-.634.426-1.055 0-.415-.142-.763-.426-1.046-.283-.282-.636-.423-1.058-.423-.422 0-.775.141-1.058.423-.283.283-.424.631-.424 1.046 0 .421.141.773.424 1.055zm2.542-3.105h.716v3.977c0 .614-.208 1.09-.625 1.432-.416.34-.917.51-1.5.51-.467 0-.869-.088-1.208-.262-.338-.174-.594-.425-.767-.751l.634-.356c.228.465.68.697 1.359.697.433 0 .773-.114 1.02-.341.247-.227.37-.536.37-.929v-.59c-.366.553-.888.83-1.566.83-.594 0-1.097-.21-1.508-.63-.411-.421-.616-.933-.616-1.537 0-.603.205-1.114.616-1.531.41-.419.914-.627 1.508-.627.684 0 1.205.274 1.567.821v-.713zM91.235 52.642c.422 0 .775-.142 1.058-.427.284-.285.425-.638.425-1.059 0-.42-.14-.773-.425-1.059-.283-.285-.636-.427-1.058-.427-.416 0-.766.142-1.05.427-.283.286-.424.639-.424 1.06 0 .42.141.773.424 1.058.284.285.634.427 1.05.427zm1.483-3.561h.725v4.15h-.725v-.713c-.361.548-.886.821-1.574.821-.584 0-1.08-.21-1.493-.635-.41-.423-.616-.939-.616-1.548 0-.61.207-1.125.616-1.548.413-.424.91-.636 1.493-.636.688 0 1.213.274 1.574.822v-.713zM96.617 48.973c.49 0 .881.154 1.175.46.295.308.442.724.442 1.25v2.549h-.724v-2.508c0-.338-.093-.598-.276-.784-.183-.186-.436-.278-.758-.278-.36 0-.653.112-.875.336-.222.224-.333.568-.333 1.033v2.201h-.726V49.08h.726v.598c.295-.47.745-.705 1.35-.705M101.209 52.642c.422 0 .775-.142 1.058-.427.284-.285.424-.638.424-1.059 0-.42-.14-.773-.424-1.059-.283-.285-.636-.427-1.058-.427-.417 0-.767.142-1.05.427-.283.286-.425.639-.425 1.06 0 .42.142.773.424 1.058.284.285.634.427 1.05.427zm1.482-5.221h.725v5.81h-.725v-.713c-.36.548-.885.821-1.574.821-.583 0-1.08-.21-1.492-.635-.41-.423-.616-.939-.616-1.548 0-.61.206-1.125.616-1.548.412-.424.909-.636 1.492-.636.689 0 1.213.274 1.574.822v-2.373zM108.866 49.778h-1.108v2.25c0 .205.04.35.12.436.081.086.205.13.37.133.168.002.373-.001.618-.013v.648c-.634.083-1.097.032-1.392-.153-.294-.186-.441-.537-.441-1.051v-2.25h-.825v-.697h.825v-.947l.725-.216v1.163h1.108v.697zM110.474 49.778c.238-.515.671-.772 1.3-.772v.755c-.356-.016-.661.078-.917.282-.255.206-.383.535-.383.99v2.199h-.726v-4.15h.726v.696zM114.223 52.642c.422 0 .775-.142 1.058-.427.284-.285.424-.638.424-1.059 0-.42-.14-.773-.424-1.059-.283-.285-.636-.427-1.058-.427-.417 0-.766.142-1.05.427-.283.286-.425.639-.425 1.06 0 .42.142.773.425 1.058.284.285.633.427 1.05.427zm1.482-3.561h.726v4.15h-.726v-.713c-.36.548-.885.821-1.573.821-.584 0-1.08-.21-1.493-.635-.41-.423-.616-.939-.616-1.548 0-.61.206-1.125.616-1.548.412-.424.909-.636 1.493-.636.688 0 1.213.274 1.573.822v-.713zM117.531 53.231h.725v-4.15h-.725v4.15zm.367-4.905c-.14 0-.255-.048-.35-.142-.095-.094-.143-.208-.143-.34 0-.133.048-.249.143-.345.095-.097.21-.145.35-.145.133 0 .247.048.342.145.094.096.141.212.141.345 0 .132-.047.246-.141.34-.095.094-.209.142-.342.142zM121.438 48.973c.49 0 .881.154 1.175.46.295.308.442.724.442 1.25v2.549h-.724v-2.508c0-.338-.093-.598-.276-.784-.183-.186-.436-.278-.758-.278-.36 0-.653.112-.875.336-.222.224-.334.568-.334 1.033v2.201h-.725V49.08h.725v.598c.296-.47.746-.705 1.35-.705M124.063 53.231h.725v-4.15h-.725v4.15zm.366-4.905c-.138 0-.255-.048-.35-.142-.094-.094-.141-.208-.141-.34 0-.133.047-.249.141-.345.095-.097.212-.145.35-.145.134 0 .247.048.342.145.095.096.141.212.141.345 0 .132-.046.246-.141.34-.095.094-.208.142-.342.142zM127.97 48.973c.49 0 .882.154 1.176.46.294.308.44.724.44 1.25v2.549h-.723v-2.508c0-.338-.093-.598-.275-.784-.184-.186-.437-.278-.759-.278-.36 0-.653.112-.875.336-.222.224-.333.568-.333 1.033v2.201h-.725V49.08h.725v.598c.295-.47.745-.705 1.35-.705M131.512 52.186c.282.282.636.424 1.058.424.422 0 .775-.142 1.058-.424.284-.282.425-.634.425-1.055 0-.415-.141-.763-.425-1.046-.283-.282-.636-.423-1.058-.423-.422 0-.776.141-1.058.423-.283.283-.425.631-.425 1.046 0 .421.142.773.425 1.055zm2.541-3.105h.716v3.977c0 .614-.208 1.09-.624 1.432-.417.34-.917.51-1.5.51-.467 0-.87-.088-1.208-.262-.339-.174-.595-.425-.767-.751l.633-.356c.229.465.68.697 1.36.697.432 0 .772-.114 1.02-.341.247-.227.37-.536.37-.929v-.59c-.366.553-.889.83-1.567.83-.593 0-1.097-.21-1.508-.63-.41-.421-.616-.933-.616-1.537 0-.603.205-1.114.616-1.531.411-.419.915-.627 1.508-.627.684 0 1.205.274 1.567.821v-.713z" mask="url(#sn3sdpbgzf)"/>
            </g>
        </g>
    </g>
</svg>
