<svg width="189" height="80" xmlns="http://www.w3.org/2000/svg" xmlns:xlink="http://www.w3.org/1999/xlink">
    <defs>
        <path id="a" d="M0 80h189V0H0z"/>
    </defs>
    <g fill="none" fill-rule="evenodd">
        <path fill="#3BD55A" d="M23.521 35 13 24.712l5.49-6.797 4.963 5.204L41.176 1 47 5.693z"/>
        <path fill="#FFF" d="M31.107 0H0v48h48V16.098l-7.564 9.437v14.901H7.564V7.564h19.165L32.79 0zM77.363 11.414v1.084c0 2.61-.935 4.813-2.805 6.61-1.87 1.797-4.374 2.695-7.51 2.695-3.199 0-5.843-1.054-7.934-3.162-2.092-2.108-3.138-4.687-3.138-7.74 0-3.05 1.046-5.63 3.138-7.739C61.205 1.054 63.849 0 67.047 0c1.95 0 3.74.472 5.37 1.415 1.628.944 2.885 2.199 3.77 3.765l-1.87 1.084c-.664-1.285-1.65-2.308-2.956-3.072-1.308-.763-2.745-1.144-4.314-1.144-2.635 0-4.786.854-6.455 2.56-1.67 1.706-2.504 3.804-2.504 6.294 0 2.49.834 4.587 2.504 6.293 1.669 1.707 3.82 2.56 6.455 2.56 2.373 0 4.273-.597 5.701-1.791 1.428-1.195 2.242-2.716 2.444-4.563h-8.386v-1.987h10.557zM83.094 19.454H93.35v1.988H80.983V.362H93.2v1.987H83.094v7.469h9.351v1.987h-9.35zM110.242.362v1.987h-6.485v19.093h-2.111V2.349H95.16V.362zM60.893 44.473h8.054v3.975H56.731v-21.08h4.162z"/>
        <mask id="b" fill="#fff">
            <use xlink:href="#a"/>
        </mask>
        <path fill="#FFF" mask="url(#b)" d="M71.3 48.449h4.163v-21.08H71.3zM89.398 48.87c-3.177 0-5.802-1.054-7.873-3.162-2.07-2.108-3.107-4.708-3.107-7.8 0-3.111 1.036-5.716 3.107-7.814s4.696-3.147 7.873-3.147c1.91 0 3.675.447 5.294 1.34 1.619.893 2.88 2.103 3.786 3.629l-3.59 2.077a5.574 5.574 0 0 0-2.232-2.213c-.965-.532-2.051-.798-3.258-.798-2.05 0-3.705.643-4.962 1.927-1.257 1.285-1.885 2.951-1.885 5 0 2.027.628 3.684 1.885 4.968 1.257 1.285 2.911 1.927 4.962 1.927 1.207 0 2.298-.266 3.273-.798.975-.531 1.715-1.26 2.217-2.183l3.59 2.078c-.905 1.526-2.162 2.736-3.77 3.629-1.61.893-3.38 1.34-5.31 1.34M105.205 44.473h8.898v3.975h-13.061v-21.08h12.91v3.975h-8.747v4.487h7.993v3.915h-7.993zM129.246 27.368h4.163v21.08h-3.168l-9.049-12.889v12.89h-4.163v-21.08h3.164l9.053 12.84zM144.208 48.87c-2.092 0-3.851-.467-5.279-1.4a7.488 7.488 0 0 1-3.017-3.81l3.56-2.078c.824 2.149 2.443 3.222 4.856 3.222 1.167 0 2.022-.21 2.565-.632.543-.421.814-.953.814-1.596 0-.742-.332-1.32-.996-1.731-.663-.412-1.85-.859-3.559-1.34a22.004 22.004 0 0 1-2.398-.844 10.293 10.293 0 0 1-1.96-1.13 4.604 4.604 0 0 1-1.494-1.791c-.342-.723-.513-1.566-.513-2.53 0-1.907.679-3.427 2.037-4.562 1.357-1.134 2.99-1.701 4.901-1.701 1.71 0 3.213.417 4.51 1.25 1.297.833 2.307 1.992 3.031 3.478l-3.499 2.017c-.844-1.807-2.192-2.71-4.042-2.71-.865 0-1.543.196-2.036.587-.493.392-.739.899-.739 1.521 0 .662.276 1.2.83 1.611.553.412 1.613.858 3.182 1.34.643.201 1.131.357 1.463.467.332.11.784.281 1.357.512.574.231 1.016.447 1.328.647.311.201.668.472 1.07.813.403.342.71.693.92 1.054.212.362.393.798.544 1.31a5.9 5.9 0 0 1 .226 1.672c0 1.947-.71 3.493-2.127 4.637-1.418 1.145-3.263 1.717-5.535 1.717M158.596 44.473h8.9v3.975h-13.062v-21.08h12.91v3.975h-8.748v4.487h7.994v3.915h-7.994zM178.807 44.473c1.83 0 3.318-.607 4.464-1.822 1.146-1.214 1.72-2.795 1.72-4.743 0-1.947-.574-3.528-1.72-4.743-1.146-1.214-2.634-1.822-4.464-1.822h-4.223v13.13h4.223zm0-17.105c2.896 0 5.314 1.014 7.254 3.042 1.94 2.028 2.911 4.527 2.911 7.498 0 2.972-.97 5.471-2.91 7.499-1.941 2.028-4.36 3.041-7.255 3.041h-8.386v-21.08h8.386zM43.922 64.033h-1.894v2.756h1.894c.346 0 .645-.136.893-.407.25-.27.374-.597.374-.978 0-.382-.125-.706-.374-.972a1.181 1.181 0 0 0-.893-.4M160.35 64.033h-1.894v2.756h1.893c.347 0 .645-.136.894-.407.249-.27.373-.597.373-.978 0-.382-.124-.706-.373-.972a1.182 1.182 0 0 0-.894-.4M119.798 63.913c-.854 0-1.57.288-2.147.865-.578.577-.867 1.31-.867 2.197s.289 1.617.867 2.19c.577.572 1.293.858 2.147.858.853 0 1.569-.286 2.147-.858.577-.573.866-1.303.866-2.19 0-.888-.289-1.62-.866-2.197-.578-.577-1.294-.865-2.147-.865M94.461 64.033h-1.64v2.822h1.64c.392 0 .716-.135.974-.406.258-.27.387-.606.387-1.005 0-.408-.13-.746-.387-1.012a1.3 1.3 0 0 0-.974-.4M28.707 63.913c-.854 0-1.57.288-2.147.865-.578.577-.867 1.31-.867 2.197s.289 1.617.867 2.19c.578.572 1.293.858 2.147.858.853 0 1.569-.286 2.147-.858.578-.573.867-1.303.867-2.19 0-.888-.29-1.62-.867-2.197-.578-.577-1.294-.865-2.147-.865"/>
        <path d="M175.625 71.062c-.627.506-1.443.759-2.447.759-.925 0-1.703-.207-2.334-.62a3.313 3.313 0 0 1-1.334-1.683l1.574-.919c.364.95 1.08 1.424 2.147 1.424.516 0 .894-.093 1.134-.28a.858.858 0 0 0 .36-.705c0-.328-.147-.583-.44-.765-.294-.182-.819-.38-1.574-.593a9.775 9.775 0 0 1-1.06-.373 4.557 4.557 0 0 1-.867-.499 2.031 2.031 0 0 1-.66-.792c-.151-.32-.227-.692-.227-1.118 0-.843.3-1.515.9-2.017.6-.501 1.323-.752 2.167-.752.756 0 1.42.184 1.994.552.573.369 1.02.881 1.34 1.538l-1.547.892c-.373-.799-.969-1.198-1.787-1.198-.382 0-.682.086-.9.26a.82.82 0 0 0-.327.672c0 .293.123.53.367.712.245.182.714.38 1.407.592.285.089.5.158.647.207.147.049.347.124.6.226.253.102.449.198.587.286.137.089.295.21.473.36s.313.306.407.466c.093.16.173.352.24.579.067.226.1.472.1.739 0 .86-.313 1.544-.94 2.05zm-13.889.572L159.85 68.4h-1.393v3.235h-1.84v-9.319h3.733a3 3 0 0 1 2.2.905c.605.604.908 1.332.908 2.184 0 .577-.165 1.111-.494 1.604a3.09 3.09 0 0 1-1.307 1.112l2.067 3.514h-1.987zm-11.748 0h-5.774v-9.319h5.707v1.758h-3.867v1.983h3.534v1.73h-3.534v2.091h3.934v1.757zM134.786 68v3.634h-1.827V68l-3.187-5.685h2.08l2.023 3.88 2.031-3.88h2.08l-3.2 5.685zm-11.548 2.416c-.942.937-2.09 1.405-3.44 1.405-1.352 0-2.496-.468-3.434-1.405-.938-.936-1.407-2.083-1.407-3.441 0-1.358.469-2.505 1.407-3.441.938-.937 2.082-1.405 3.434-1.405 1.35 0 2.498.468 3.44 1.405.943.936 1.413 2.083 1.413 3.44 0 1.359-.47 2.506-1.413 3.442zm-13.655 1.218h-5.4v-9.319h1.84v7.562h3.56v1.757zm-12.855-3.967c-.613.604-1.369.905-2.267.905h-1.64v3.062h-1.84v-9.319h3.48c.898 0 1.654.302 2.267.905.614.604.92 1.345.92 2.224 0 .878-.306 1.62-.92 2.223zm-12.814 3.967h-1.827V65.59l-2.633 4.323-.214.008-2.62-4.308v6.021h-1.84v-9.319h1.893l2.676 4.4 2.663-4.4h1.902v9.32zm-15.763 0h-5.774v-9.319h5.708v1.758h-3.867v1.983h3.534v1.73h-3.534v2.091h3.933v1.757zm-22.842 0L43.422 68.4h-1.394v3.235h-1.84v-9.319h3.734a3 3 0 0 1 2.2.905c.605.604.907 1.332.907 2.184a2.83 2.83 0 0 1-.494 1.604 3.088 3.088 0 0 1-1.306 1.112l2.067 3.514h-1.987zm-13.162-1.218c-.942.937-2.09 1.405-3.44 1.405-1.351 0-2.496-.468-3.434-1.405-.938-.936-1.407-2.083-1.407-3.441 0-1.358.469-2.505 1.407-3.441.938-.937 2.083-1.405 3.434-1.405 1.35 0 2.498.468 3.44 1.405.943.936 1.414 2.083 1.414 3.44 0 1.359-.471 2.506-1.414 3.442zm-14.535-6.343h-3.734v2.21h3.627v1.757h-3.627v3.594h-1.84v-9.319h5.574v1.758zM.004 80H189V54.948H.004V80z" fill="#FFF" mask="url(#b)"/>
    </g>
</svg>
