<svg width="227" height="93" xmlns="http://www.w3.org/2000/svg" xmlns:xlink="http://www.w3.org/1999/xlink">
    <defs>
        <path id="a" d="M0 0h226.868v62.754H0z"/>
        <path id="c" d="M0 0h7.103v10.192H0z"/>
        <path id="e" d="M0 93h227V0H0z"/>
    </defs>
    <g fill="none" fill-rule="evenodd">
        <path fill="#3BD55A" d="M77.493 0 32.907 43.445 20.303 26.352 14 31.416 31.666 55 83 5.532z"/>
        <g>
            <path d="M168.085 43.554c1.207 1.179 2.742 1.768 4.604 1.768 1.863 0 3.4-.59 4.605-1.768 1.206-1.178 1.81-2.685 1.81-4.522 0-1.805-.604-3.297-1.81-4.476-1.206-1.176-2.742-1.767-4.605-1.767-1.862 0-3.397.59-4.604 1.767-1.207 1.179-1.809 2.67-1.809 4.476 0 1.837.602 3.344 1.81 4.522zm11.018-15.631h5.774v21.852c0 3.549-1.168 6.258-3.506 8.126-2.335 1.865-5.154 2.8-8.452 2.8-2.474 0-4.65-.475-6.528-1.423-1.879-.95-3.323-2.342-4.33-4.18l5.04-2.89c1.16 2.142 3.16 3.214 6.002 3.214 1.861 0 3.328-.49 4.397-1.47 1.07-.98 1.603-2.372 1.603-4.177v-2.479c-1.74 2.325-4.184 3.489-7.33 3.489-3.238 0-5.948-1.141-8.132-3.421-2.183-2.28-3.275-5.056-3.275-8.332 0-3.243 1.099-6.014 3.298-8.31 2.198-2.295 4.903-3.441 8.11-3.441 3.145 0 5.59 1.163 7.33 3.488v-2.846zM67.682 44.06c1.19 1.21 2.702 1.812 4.536 1.812 1.831 0 3.352-.602 4.558-1.813 1.206-1.208 1.81-2.762 1.81-4.66 0-1.896-.604-3.45-1.81-4.659-1.206-1.208-2.727-1.813-4.558-1.813-1.834 0-3.345.605-4.536 1.813-1.191 1.209-1.787 2.763-1.787 4.66 0 1.897.596 3.45 1.787 4.66zm10.903-16.137h5.911v22.954h-5.91v-2.71c-1.772 2.235-4.261 3.351-7.47 3.351-3.054 0-5.672-1.17-7.856-3.51-2.184-2.343-3.276-5.212-3.276-8.608 0-3.399 1.092-6.266 3.276-8.608 2.184-2.342 4.802-3.511 7.857-3.511 3.208 0 5.697 1.116 7.468 3.35v-2.708zM102.592 27.28c2.504 0 4.574.843 6.209 2.526 1.633 1.683 2.451 4.008 2.451 6.977v14.093h-5.91v-13.36c0-1.529-.412-2.7-1.236-3.51-.826-.81-1.926-1.216-3.3-1.216-1.528 0-2.75.474-3.665 1.422-.916.95-1.375 2.372-1.375 4.27v12.394h-5.91V27.922h5.91v2.573c1.435-2.143 3.712-3.215 6.826-3.215M129.395 33.616h-5.177v9.548c0 .797.197 1.377.596 1.745.395.366.976.572 1.74.62.764.044 1.711.039 2.84-.023v5.37c-4.061.46-6.925.075-8.59-1.148-1.665-1.224-2.496-3.412-2.496-6.564v-9.548h-3.988v-5.694h3.988v-4.635l5.91-1.79v6.425h5.177v5.694zM139.382 44.06c1.192 1.21 2.703 1.812 4.536 1.812 1.832 0 3.353-.602 4.559-1.813 1.206-1.208 1.81-2.762 1.81-4.66 0-1.896-.604-3.45-1.81-4.659-1.206-1.208-2.727-1.813-4.559-1.813-1.833 0-3.344.605-4.536 1.813-1.19 1.209-1.786 2.763-1.786 4.66 0 1.897.595 3.45 1.786 4.66zm10.904-16.137h5.91v22.954h-5.91v-2.71c-1.772 2.235-4.26 3.351-7.467 3.351-3.054 0-5.675-1.17-7.858-3.51-2.184-2.343-3.276-5.212-3.276-8.608 0-3.399 1.092-6.266 3.276-8.608 2.183-2.342 4.804-3.511 7.858-3.511 3.206 0 5.695 1.116 7.467 3.35v-2.708zM195.14 37.242h11.682c-.335-1.561-1.03-2.723-2.084-3.488-1.053-.766-2.253-1.149-3.596-1.149-1.588 0-2.903.406-3.94 1.216-1.04.813-1.727 1.952-2.063 3.421zm.091 4.59c.794 2.877 2.948 4.316 6.46 4.316 2.26 0 3.97-.765 5.131-2.295l4.766 2.753c-2.262 3.277-5.59 4.913-9.987 4.913-3.789 0-6.829-1.148-9.12-3.443-2.29-2.295-3.436-5.187-3.436-8.676 0-3.458 1.131-6.342 3.392-8.654 2.259-2.31 5.161-3.466 8.705-3.466 3.36 0 6.131 1.163 8.315 3.49 2.184 2.325 3.276 5.202 3.276 8.63 0 .764-.077 1.577-.229 2.432h-17.273z" fill="#3BD55A"/>
            <g transform="translate(.132 7.54)">
                <mask id="b" fill="#fff">
                    <use xlink:href="#a"/>
                </mask>
                <path fill="#FFF" mask="url(#b)" d="m87.375 0-3.277 3.15-3.347 3.217h139.763v50.018H6.354V6.367h50.374L63.279 0H0v62.754h226.869V0z"/>
            </g>
            <g transform="translate(0 80)">
                <mask id="d" fill="#fff">
                    <use xlink:href="#c"/>
                </mask>
                <path d="M3.714 10.192c-.916 0-1.699-.216-2.347-.646A3.416 3.416 0 0 1 0 7.776l1.122-.645c.382 1.19 1.256 1.783 2.62 1.783.672 0 1.185-.137 1.541-.413.354-.278.532-.644.532-1.104 0-.467-.178-.818-.532-1.052-.356-.235-.95-.483-1.78-.745-.407-.14-.718-.248-.936-.321a6.762 6.762 0 0 1-.809-.359c-.322-.163-.561-.332-.72-.504a2.558 2.558 0 0 1-.428-.682 2.318 2.318 0 0 1-.189-.955c0-.852.298-1.527.897-2.028C1.916.25 2.644 0 3.502 0c.777 0 1.451.197 2.026.59a3.672 3.672 0 0 1 1.295 1.557l-1.092.632c-.42-1.011-1.163-1.516-2.229-1.516-.532 0-.96.131-1.289.394-.327.26-.488.617-.488 1.066 0 .43.153.756.46.981.31.225.843.458 1.598.702l.571.203.53.187c.238.085.414.156.526.21.113.057.263.138.456.24.19.104.333.202.425.295.093.094.204.209.33.346.125.135.217.274.273.414.056.141.105.303.146.485.043.184.063.377.063.583 0 .862-.312 1.548-.938 2.057-.625.51-1.444.766-2.451.766" fill="#979797" mask="url(#d)"/>
            </g>
            <path d="M11.965 83.96c-.654 0-1.197.185-1.626.553-.429.372-.694.865-.797 1.483h4.678c-.101-.665-.363-1.171-.785-1.517-.42-.347-.91-.52-1.47-.52zM9.542 87.06c.121.627.408 1.115.861 1.46.453.348 1.011.52 1.674.52.924 0 1.598-.341 2.017-1.024l1.038.589c-.684 1.058-1.71 1.586-3.083 1.586-1.112 0-2.015-.348-2.712-1.046-.694-.696-1.043-1.578-1.043-2.646 0-1.058.341-1.936 1.023-2.638.681-.702 1.564-1.055 2.648-1.055 1.026 0 1.865.364 2.515 1.089.648.726.974 1.599.974 2.618 0 .178-.015.36-.043.547H9.54zM20.133 90.192c-1.057 0-1.933-.352-2.634-1.06-.7-.705-1.05-1.584-1.05-2.63 0-1.05.35-1.928 1.05-2.633.7-.708 1.577-1.06 2.634-1.06.69 0 1.312.166 1.863.498.55.333.963.78 1.232 1.34l-1.022.59a2.074 2.074 0 0 0-.819-.897 2.359 2.359 0 0 0-1.254-.338c-.7 0-1.287.238-1.759.715-.472.478-.708 1.073-.708 1.784 0 .702.236 1.291.708 1.768.472.477 1.058.717 1.759.717.468 0 .887-.11 1.26-.33.375-.22.66-.518.856-.892l1.036.603a3.394 3.394 0 0 1-1.289 1.326c-.56.332-1.182.5-1.863.5M29.338 82.99h1.22v7.02h-1.22V89c-.495.795-1.251 1.193-2.27 1.193-.822 0-1.48-.26-1.976-.779-.494-.52-.741-1.223-.741-2.113v-4.31h1.219v4.239c0 .57.153 1.013.46 1.327.31.313.735.47 1.276.47.607 0 1.097-.189 1.472-.568.373-.379.56-.963.56-1.749v-3.72zM33.625 84.17c.4-.87 1.13-1.306 2.186-1.306v1.278c-.598-.028-1.111.131-1.542.477-.429.347-.644.904-.644 1.672v3.719h-1.22v-7.018h1.22v1.178z" fill="#979797"/>
            <mask id="f" fill="#fff">
                <use xlink:href="#e"/>
            </mask>
            <path d="M37.001 90.009h1.22V82.99H37v7.019zm.617-8.295a.794.794 0 0 1-.588-.24.782.782 0 0 1-.24-.574c0-.225.08-.42.24-.584a.785.785 0 0 1 .588-.245c.224 0 .415.082.575.245a.815.815 0 0 1 .237.584c0 .223-.08.417-.237.574-.16.16-.35.24-.575.24zM43.894 84.17H42.03v3.804c0 .347.068.593.203.737.136.147.344.22.623.226.281.003.626-.002 1.038-.023v1.096c-1.066.14-1.845.054-2.341-.26-.495-.312-.742-.905-.742-1.776V84.17h-1.386v-1.178h1.386V81.39l1.22-.366v1.967h1.863v1.178zM50.38 82.99h1.304l-2.858 7.455c-.3.795-.718 1.401-1.255 1.818a2.641 2.641 0 0 1-1.856.555v-1.137c.856.064 1.483-.413 1.884-1.435l.133-.263-3.055-6.992h1.304l2.335 5.38 2.064-5.38zM59.697 82.808c.822 0 1.481.261 1.975.779.495.52.742 1.224.742 2.113v4.31h-1.217v-4.24c0-.571-.156-1.012-.463-1.325-.309-.316-.734-.471-1.275-.471-.607 0-1.098.19-1.472.568-.373.38-.56.961-.56 1.747v3.721h-1.22v-9.827h1.22v3.819c.496-.796 1.253-1.194 2.27-1.194M64.11 90.009h1.22V82.99h-1.22v7.019zm.617-8.295a.794.794 0 0 1-.588-.24.782.782 0 0 1-.24-.574c0-.225.08-.42.24-.584a.785.785 0 0 1 .588-.245c.225 0 .416.082.575.245a.815.815 0 0 1 .238.584c0 .223-.08.417-.238.574-.16.16-.35.24-.575.24zM68.41 84.17c.402-.87 1.13-1.306 2.186-1.306v1.278c-.597-.028-1.11.131-1.54.477-.43.347-.645.904-.645 1.672v3.719h-1.22v-7.018h1.22v1.178zM71.787 90.009h1.22V82.99h-1.22v7.019zm.617-8.295a.8.8 0 0 1-.588-.24.78.78 0 0 1-.238-.574c0-.225.078-.42.238-.584a.79.79 0 0 1 .588-.245c.224 0 .415.082.575.245.159.164.237.359.237.584a.78.78 0 0 1-.237.574c-.16.16-.35.24-.575.24zM78.358 82.808c.822 0 1.481.261 1.976.779.494.52.741 1.224.741 2.113v4.31h-1.217v-4.24c0-.571-.155-1.012-.463-1.325-.309-.316-.734-.471-1.275-.471-.607 0-1.097.19-1.472.568-.373.38-.56.961-.56 1.747v3.721h-1.22v-7.02h1.22v1.012c.496-.796 1.253-1.194 2.27-1.194M84.312 88.241c.476.477 1.07.717 1.78.717s1.303-.24 1.779-.717c.477-.476.715-1.071.715-1.782 0-.702-.238-1.292-.715-1.77-.476-.477-1.07-.715-1.78-.715s-1.303.238-1.779.715c-.475.478-.713 1.068-.713 1.77 0 .71.238 1.306.713 1.782zm4.274-5.25h1.204v6.725c0 1.038-.35 1.845-1.05 2.421-.7.576-1.542.863-2.521.863-.787 0-1.463-.148-2.032-.443-.57-.294-1-.718-1.29-1.27l1.065-.602c.384.786 1.144 1.178 2.285 1.178.728 0 1.3-.191 1.715-.576.416-.383.624-.906.624-1.57v-1c-.616.937-1.494 1.405-2.635 1.405-.998 0-1.845-.355-2.536-1.066-.69-.712-1.035-1.577-1.035-2.597 0-1.021.344-1.885 1.035-2.59.691-.708 1.538-1.06 2.536-1.06 1.15 0 2.026.463 2.635 1.388v-1.206zM93.461 88.564l-.91 3.411H91.5l.56-3.411zM99.737 84.865c0 .265.139.479.412.638.275.16.603.297.985.41.38.11.763.223 1.148.337.384.113.71.325.978.636.266.312.4.712.4 1.201 0 .637-.245 1.147-.735 1.53-.491.384-1.118.576-1.884.576-.682 0-1.266-.15-1.751-.45a2.502 2.502 0 0 1-1.038-1.192l1.05-.604c.113.336.323.604.632.799.307.197.676.295 1.107.295.4 0 .732-.077.994-.231.262-.154.392-.394.392-.723 0-.27-.135-.486-.407-.65a4.306 4.306 0 0 0-.977-.417l-1.149-.346a2.117 2.117 0 0 1-.983-.623c-.271-.3-.406-.683-.406-1.15 0-.61.234-1.109.708-1.503.47-.392 1.062-.59 1.771-.59.57 0 1.077.13 1.521.387a2.47 2.47 0 0 1 1 1.074l-1.022.576c-.251-.6-.751-.9-1.499-.9-.346 0-.64.08-.882.241a.766.766 0 0 0-.365.68M108.634 84.17h-1.863v3.804c0 .347.067.593.202.737.137.147.344.22.623.226.281.003.626-.002 1.038-.023v1.096c-1.066.14-1.845.054-2.341-.26-.494-.312-.742-.905-.742-1.776V84.17h-1.387v-1.178h1.387V81.39l1.22-.366v1.967h1.863v1.178zM113.033 89.013c.71 0 1.304-.24 1.78-.722.477-.483.713-1.08.713-1.79 0-.712-.236-1.309-.714-1.79-.475-.483-1.069-.723-1.779-.723-.7 0-1.288.24-1.766.722-.475.482-.713 1.08-.713 1.79 0 .712.238 1.308.713 1.79.478.483 1.066.723 1.766.723zm2.493-6.022h1.22v7.019h-1.22v-1.207c-.607.927-1.489 1.389-2.646 1.389-.982 0-1.817-.357-2.51-1.074-.69-.715-1.036-1.587-1.036-2.618 0-1.03.347-1.902 1.036-2.617.693-.717 1.528-1.076 2.51-1.076 1.157 0 2.04.464 2.646 1.39v-1.206zM127.982 82.99v7.02h-1.219v-5.84h-2.592v5.84h-1.22v-5.84h-2.604v5.84h-1.22v-5.84h-1.12v-1.18h1.12v-.21c0-.945.265-1.66.793-2.148.526-.486 1.284-.696 2.275-.63v1.178c-1.232-.103-1.848.432-1.848 1.6v.21h2.605v-.35c0-1.852 1.019-2.78 3.054-2.78.401 0 .882.06 1.444.183v1.109a10.89 10.89 0 0 0-1.444-.113c-.635 0-1.099.12-1.393.359-.294.238-.442.653-.442 1.242v.35h3.811zM133.32 82.808c.821 0 1.48.261 1.975.779.494.52.742 1.224.742 2.113v4.31h-1.218v-4.24c0-.571-.155-1.012-.462-1.325-.31-.316-.734-.471-1.276-.471-.606 0-1.097.19-1.472.568-.372.38-.56.961-.56 1.747v3.721h-1.219v-7.02h1.22v1.012c.496-.796 1.252-1.194 2.27-1.194M139.274 88.241c.476.477 1.07.717 1.78.717.709 0 1.303-.24 1.778-.717.478-.476.716-1.071.716-1.782 0-.702-.238-1.292-.716-1.77-.475-.477-1.07-.715-1.779-.715-.71 0-1.303.238-1.78.715-.475.478-.713 1.068-.713 1.77 0 .71.238 1.306.714 1.782zm4.274-5.25h1.204v6.725c0 1.038-.35 1.845-1.05 2.421-.701.576-1.542.863-2.522.863-.786 0-1.462-.148-2.032-.443-.569-.294-1-.718-1.29-1.27l1.066-.602c.384.786 1.144 1.178 2.285 1.178.728 0 1.3-.191 1.715-.576.416-.383.624-.906.624-1.57v-1c-.616.937-1.495 1.405-2.635 1.405-.999 0-1.845-.355-2.536-1.066-.691-.712-1.036-1.577-1.036-2.597 0-1.021.345-1.885 1.036-2.59.69-.708 1.537-1.06 2.536-1.06 1.15 0 2.026.463 2.635 1.388v-1.206zM153.41 89.013c.71 0 1.304-.24 1.78-.722.477-.483.713-1.08.713-1.79 0-.712-.236-1.309-.713-1.79-.476-.483-1.07-.723-1.78-.723-.7 0-1.288.24-1.766.722-.475.482-.713 1.08-.713 1.79 0 .712.238 1.308.713 1.79.478.483 1.066.723 1.766.723zm2.493-6.022h1.22v7.019h-1.22v-1.207c-.607.927-1.489 1.389-2.646 1.389-.982 0-1.817-.357-2.51-1.074-.689-.715-1.035-1.587-1.035-2.618 0-1.03.346-1.902 1.035-2.617.693-.717 1.528-1.076 2.51-1.076 1.157 0 2.04.464 2.646 1.39v-1.206zM162.46 82.808c.823 0 1.482.261 1.976.779.495.52.742 1.224.742 2.113v4.31h-1.217v-4.24c0-.571-.156-1.012-.463-1.325-.309-.316-.734-.471-1.275-.471-.607 0-1.098.19-1.472.568-.373.38-.56.961-.56 1.747v3.721h-1.22v-7.02h1.22v1.012c.496-.796 1.252-1.194 2.27-1.194M170.18 89.013c.71 0 1.304-.24 1.78-.722.477-.483.713-1.08.713-1.79 0-.712-.236-1.309-.713-1.79-.476-.483-1.07-.723-1.78-.723-.7 0-1.288.24-1.765.722-.476.482-.714 1.08-.714 1.79 0 .712.238 1.308.714 1.79.477.483 1.065.723 1.766.723zm2.493-8.83h1.22v9.827h-1.22v-1.207c-.606.927-1.489 1.389-2.646 1.389-.981 0-1.817-.357-2.51-1.074-.689-.715-1.035-1.587-1.035-2.618 0-1.03.346-1.902 1.035-2.617.693-.717 1.529-1.076 2.51-1.076 1.157 0 2.04.464 2.646 1.39v-4.013zM183.056 84.17h-1.864v3.804c0 .347.068.593.203.737.136.147.344.22.623.226.281.003.626-.002 1.038-.023v1.096c-1.066.14-1.845.054-2.341-.26-.495-.312-.742-.905-.742-1.776V84.17h-1.386v-1.178h1.386V81.39l1.22-.366v1.967h1.863v1.178zM185.76 84.17c.4-.87 1.128-1.306 2.185-1.306v1.278c-.598-.028-1.11.131-1.542.477-.428.347-.644.904-.644 1.672v3.719h-1.219v-7.018h1.22v1.178zM192.064 89.013c.71 0 1.303-.24 1.78-.722.477-.483.713-1.08.713-1.79 0-.712-.236-1.309-.714-1.79-.476-.483-1.07-.723-1.78-.723-.7 0-1.288.24-1.765.722-.476.482-.714 1.08-.714 1.79 0 .712.238 1.308.714 1.79.477.483 1.065.723 1.766.723zm2.493-6.022h1.219v7.019h-1.22v-1.207c-.606.927-1.488 1.389-2.646 1.389-.981 0-1.816-.357-2.51-1.074-.688-.715-1.035-1.587-1.035-2.618 0-1.03.347-1.902 1.036-2.617.693-.717 1.528-1.076 2.51-1.076 1.157 0 2.039.464 2.646 1.39v-1.206zM197.627 90.009h1.219V82.99h-1.22v7.019zm.616-8.295a.797.797 0 0 1-.588-.24.782.782 0 0 1-.24-.574c0-.225.08-.42.24-.584a.788.788 0 0 1 .588-.245c.224 0 .415.082.575.245.159.164.238.359.238.584a.78.78 0 0 1-.238.574c-.16.16-.35.24-.575.24zM204.196 82.808c.823 0 1.482.261 1.976.779.495.52.742 1.224.742 2.113v4.31h-1.217v-4.24c0-.571-.156-1.012-.463-1.325-.309-.316-.734-.471-1.275-.471-.607 0-1.098.19-1.472.568-.373.38-.56.961-.56 1.747v3.721h-1.22v-7.02h1.22v1.012c.496-.796 1.252-1.194 2.27-1.194M208.609 90.009h1.219V82.99h-1.22v7.019zm.616-8.295a.8.8 0 0 1-.588-.24.78.78 0 0 1-.238-.574c0-.225.079-.42.238-.584a.79.79 0 0 1 .588-.245c.225 0 .416.082.575.245.16.164.238.359.238.584a.78.78 0 0 1-.238.574c-.16.16-.35.24-.575.24zM215.18 82.808c.822 0 1.482.261 1.976.779.494.52.742 1.224.742 2.113v4.31h-1.218v-4.24c0-.571-.155-1.012-.462-1.325-.31-.316-.734-.471-1.276-.471-.606 0-1.097.19-1.472.568-.372.38-.56.961-.56 1.747v3.721h-1.219v-7.02h1.22v1.012c.496-.796 1.252-1.194 2.27-1.194M221.134 88.241c.476.477 1.07.717 1.78.717s1.303-.24 1.779-.717c.477-.476.715-1.071.715-1.782 0-.702-.238-1.292-.715-1.77-.476-.477-1.07-.715-1.78-.715s-1.303.238-1.779.715c-.475.478-.713 1.068-.713 1.77 0 .71.238 1.306.713 1.782zm4.274-5.25h1.204v6.725c0 1.038-.35 1.845-1.05 2.421-.7.576-1.542.863-2.521.863-.787 0-1.463-.148-2.032-.443-.57-.294-1-.718-1.29-1.27l1.065-.602c.384.786 1.144 1.178 2.285 1.178.728 0 1.3-.191 1.715-.576.416-.383.624-.906.624-1.57v-1c-.616.937-1.494 1.405-2.635 1.405-.998 0-1.845-.355-2.536-1.066-.69-.712-1.035-1.577-1.035-2.597 0-1.021.344-1.885 1.035-2.59.691-.708 1.538-1.06 2.536-1.06 1.15 0 2.026.463 2.635 1.388v-1.206z" fill="#979797" mask="url(#f)"/>
        </g>
    </g>
</svg>
