<svg xmlns="http://www.w3.org/2000/svg" xmlns:xlink="http://www.w3.org/1999/xlink" width="12" height="14" viewBox="0 0 10 12">
    <defs>
        <path fill="#242429" id="js7nrs7zxa" d="M5 0c2.761 0 5 2.239 5 5 0 1.686-.901 3.338-2.387 4.906-.51.538-1.054 1.028-1.598 1.462-.191.152-.369.286-.529.402-.097.07-.168.12-.209.146-.168.112-.386.112-.554 0-.04-.027-.112-.076-.21-.146-.16-.116-.337-.25-.528-.402-.544-.434-1.089-.924-1.598-1.462C.901 8.338 0 6.686 0 5c0-2.761 2.239-5 5-5zm0 1C2.79 1 1 2.79 1 5c0 1.377.786 2.818 2.113 4.219.475.5.985.96 1.495 1.366.14.111.27.212.392.301.121-.09.252-.19.392-.3.51-.407 1.02-.866 1.495-1.367C8.214 7.819 9 6.377 9 5c0-2.21-1.79-4-4-4zm0 2c1.105 0 2 .895 2 2s-.895 2-2 2-2-.895-2-2 .895-2 2-2zm0 1c-.552 0-1 .448-1 1s.448 1 1 1 1-.448 1-1-.448-1-1-1z"/>
    </defs>
    <g fill="#242429" fill-rule="evenodd">
        <g>
            <g>
                <g transform="translate(-353.000000, -446.000000) translate(318.000000, 402.000000) translate(35.000000, 44.000000)">
                    <use fill="#CFCFCF" fill-rule="nonzero" xlink:href="#js7nrs7zxa"/>
                </g>
            </g>
        </g>
    </g>
</svg>
