<svg width="10" height="12" xmlns="http://www.w3.org/2000/svg" xmlns:xlink="http://www.w3.org/1999/xlink">
    <defs>
        <path d="M5 0a5 5 0 0 1 5 5c0 1.686-.901 3.338-2.387 4.906a15.566 15.566 0 0 1-2.336 2.01.5.5 0 0 1-.554 0 14.208 14.208 0 0 1-.737-.548 15.566 15.566 0 0 1-1.599-1.462C.901 8.338 0 6.686 0 5a5 5 0 0 1 5-5zm0 1a4 4 0 0 0-4 4c0 1.377.786 2.818 2.113 4.219A14.578 14.578 0 0 0 5 10.886a14.578 14.578 0 0 0 1.887-1.668C8.214 7.819 9 6.378 9 5a4 4 0 0 0-4-4zm0 2a2 2 0 1 1 0 4 2 2 0 0 1 0-4zm0 1a1 1 0 1 0 0 2 1 1 0 0 0 0-2z" id="a"/>
    </defs>
    <use fill="#CFCFCF" fill-rule="nonzero" xlink:href="#a"/>
</svg>
