<svg width="30" height="26" viewBox="0 0 30 26" fill="none" xmlns="http://www.w3.org/2000/svg">
<path d="M29 0.357142H11.2857C11.1286 0.357142 11 0.485714 11 0.642857V2.64286C11 2.8 11.1286 2.92857 11.2857 2.92857H29C29.1572 2.92857 29.2857 2.8 29.2857 2.64286V0.642857C29.2857 0.485714 29.1572 0.357142 29 0.357142ZM29 15.5H11.2857C11.1286 15.5 11 15.6286 11 15.7857V17.7857C11 17.9429 11.1286 18.0714 11.2857 18.0714H29C29.1572 18.0714 29.2857 17.9429 29.2857 17.7857V15.7857C29.2857 15.6286 29.1572 15.5 29 15.5ZM29 23.0714H1.00001C0.842866 23.0714 0.714294 23.2 0.714294 23.3571V25.3571C0.714294 25.5143 0.842866 25.6429 1.00001 25.6429H29C29.1572 25.6429 29.2857 25.5143 29.2857 25.3571V23.3571C29.2857 23.2 29.1572 23.0714 29 23.0714ZM29 7.92857H1.00001C0.842866 7.92857 0.714294 8.05714 0.714294 8.21429V10.2143C0.714294 10.3714 0.842866 10.5 1.00001 10.5H29C29.1572 10.5 29.2857 10.3714 29.2857 10.2143V8.21429C29.2857 8.05714 29.1572 7.92857 29 7.92857Z" fill="white"/>
</svg>
