<svg xmlns="http://www.w3.org/2000/svg" width="32" height="32" viewBox="0 0 32 32">
    <g fill="none" fill-rule="evenodd">
        <g fill="#000" fill-rule="nonzero">
            <path d="M24.7 17H7.3c-.166 0-.3-.224-.3-.5v-1c0-.276.134-.5.3-.5h17.4c.166 0 .3.224.3.5v1c0 .276-.134.5-.3.5zM24.7 11H7.3c-.166 0-.3-.224-.3-.5v-1c0-.276.134-.5.3-.5h17.4c.166 0 .3.224.3.5v1c0 .276-.134.5-.3.5zM16.688 23H7.313C7.14 23 7 22.776 7 22.5v-1c0-.276.14-.5.313-.5h9.375c.172 0 .312.224.312.5v1c0 .276-.14.5-.313.5z"/>
        </g>
    </g>
</svg>
