<?xml version="1.0" encoding="utf-8"?>
<!-- Generator: Adobe Illustrator 26.0.2, SVG Export Plug-In . SVG Version: 6.00 Build 0)  -->
<svg version="1.1" id="Layer_1" xmlns="http://www.w3.org/2000/svg" xmlns:xlink="http://www.w3.org/1999/xlink" x="0px" y="0px"
	 viewBox="0 0 1963.8 1000" style="enable-background:new 0 0 1963.8 1000;" xml:space="preserve">
<style type="text/css">
	.st0{fill:#58595B;}
	.st1{fill:#802E8B;}
	.st2{fill:#852E8A;}
	.st3{fill:#7B2F8D;}
	.st4{fill:#808285;}
	.st5{fill:#955FA2;}
	.st6{fill:#9962A3;}
	.st7{fill:#B48EBC;}
	.st8{fill:#A4A6A8;}
	.st9{fill:#B08ABA;}
	.st10{fill:#CD2C7C;}
	.st11{fill:#F04F26;}
	.st12{fill:#59595B;}
	.st13{fill:#C92C7D;}
	.st14{fill:#F15525;}
	.st15{fill:#C52B7D;}
	.st16{fill:#F26B3A;}
	.st17{fill:#BF2C7F;}
	.st18{fill:#595A5C;}
	.st19{fill:#F3723B;}
	.st20{fill:#842464;}
	.st21{fill:#F15825;}
	.st22{fill:#F26539;}
	.st23{fill:#F15B39;}
	.st24{fill:#F16039;}
	.st25{fill:#BB2D80;}
	.st26{fill:#F4773B;}
	.st27{fill:#F05338;}
	.st28{fill:#F78F3E;}
	.st29{fill:#2E2763;}
	.st30{fill:#F99D3F;}
	.st31{fill:#FBAC40;}
	.st32{fill:#F8973E;}
	.st33{fill:#F7943E;}
	.st34{fill:#F6873D;}
	.st35{fill:#B62C80;}
	.st36{fill:#F6893D;}
	.st37{fill:#F47A3B;}
	.st38{fill:#FBB040;}
	.st39{fill:#FAA740;}
	.st40{fill:#F5823C;}
	.st41{fill:#F9A13F;}
	.st42{fill:#F47D3C;}
	.st43{fill:#B12C82;}
	.st44{fill:#AC2D83;}
	.st45{fill:#A52D84;}
	.st46{fill:#B32C81;}
	.st47{fill:#F5803C;}
	.st48{fill:#9F2D85;}
	.st49{fill:#FAA440;}
	.st50{fill:#962E87;}
	.st51{fill:#A92C83;}
	.st52{fill:#F05038;}
	.st53{fill:#902E88;}
	.st54{fill:#9C2D86;}
	.st55{fill:#EF4637;}
	.st56{fill:#892E8A;}
	.st57{fill:#F04C37;}
	.st58{fill:#F04A37;}
	.st59{fill:#6D2F8F;}
	.st60{fill:#762F8E;}
	.st61{fill:#722F8E;}
	.st62{fill:#5B2664;}
	.st63{fill:#532664;}
	.st64{fill:#562664;}
	.st65{fill:#592664;}
	.st66{fill:#612664;}
	.st67{fill:#5F2664;}
	.st68{fill:#4C2664;}
	.st69{fill:#EF4826;}
	.st70{fill:#882364;}
	.st71{fill:#8B2364;}
	.st72{fill:#902364;}
	.st73{fill:#932264;}
	.st74{fill:#952264;}
	.st75{fill:#992264;}
	.st76{fill:#9C2164;}
	.st77{fill:#EE2527;}
	.st78{fill:#6B2564;}
	.st79{fill:#6E2564;}
	.st80{fill:#712564;}
	.st81{fill:#812464;}
	.st82{fill:#742564;}
	.st83{fill:#772564;}
	.st84{fill:#7B2464;}
	.st85{fill:#7E2464;}
	.st86{fill:#EE3627;}
	.st87{fill:#EE3027;}
	.st88{fill:#322763;}
	.st89{fill:#EF3F27;}
	.st90{fill:#EE2D27;}
	.st91{fill:#682664;}
	.st92{fill:#642664;}
	.st93{fill:#412763;}
	.st94{fill:#3D2764;}
	.st95{fill:#382763;}
	.st96{fill:#492664;}
	.st97{fill:#452764;}
	.st98{fill:#4F2664;}
</style>
<path class="st0" d="M956.3,436.9c14.4-6.1,28.8-12.2,43.3-18.3c3.8-1.6,7.5-3.1,11.5-4.8c0,7.5,0,14.6,0,21.9
	c1.4-0.3,1.8-1.4,2.4-2.1c10.8-13,24.2-21.5,41.1-23.5c19.6-2.3,38.4-0.1,54.7,12.5c7,5.5,11.9,12.6,15.8,20.9
	c3.9-6.2,8.2-11.8,13.4-16.7c13.9-12.8,30.6-17.8,49.2-17.3c9.9,0.3,19.5,1.7,28.7,5.7c17.8,7.7,27.9,21.9,32.7,40.2
	c2.2,8.3,3.2,16.7,3.3,25.3c0.1,25.3,0,50.7,0,76c0,11.2,4.2,14.6,15.3,12.4c2-0.4,4-0.9,6-1.4c1.4-0.4,2.2-0.4,2.8,1.3
	c3.6,9.8,7.3,19.6,11,29.4c0.5,1.2,0.4,1.9-0.8,2.6c-18.8,11.5-39,15.6-60.6,10.4c-14.3-3.5-21.7-13.5-24.6-27.4
	c-2.2-10.5-1.8-21.1-1.8-31.7c0-19.9,0.1-39.9-0.1-59.8c0-5.5-1-10.9-2.7-16.2c-3.3-10.6-10.8-15.9-21.6-17.2
	c-14.2-1.7-26.3,2.4-36.8,12.3c-4.1,3.8-5.6,7.5-5.6,13c0.3,32.9,0.1,65.8,0.1,98.7c0,8.2,0,16.5,0.1,24.7c0,2.1-0.6,2.6-2.6,2.6
	c-15.9-0.2-31.8-0.3-47.7-0.2c-2.7,0-2.4-1.5-2.4-3.1c0-35.1,0-70.3,0-105.4c0-6.7-0.3-13.3-1.6-19.9c-2.9-15.2-11.5-22.5-26.9-23.2
	c-16.6-0.8-29.4,6-39.9,18.3c-1,1.2-1,2.5-1,3.8c0,42,0,84,0.1,126.1c0,2.9-0.5,3.9-3.7,3.9c-17.1-0.2-34.2-0.1-51.2-0.1
	C956.3,552.8,956.3,494.8,956.3,436.9z"/>
<path class="st1" d="M473.5,237.2c6.5,0,13,0,19.4,0c1.2,0.6,2.6,0.2,3.8,0.3c0.3,0,0.6,0,0.9,0.1c4.2,4.9,9.1,9,13.5,13.6
	c1,1,2.4,2.2,0.3,3.5c-0.8,0.3-1.5,0.3-2.3,0.3c-3.8,0-7.6,0.6-11.4,1c-3.3,0.2-6.5,0.7-9.7,1.2c-1.4,0-2.7,0.4-4.1,0.2
	c-3.6-5.6-9-9.6-13.5-14.5c-0.9-0.9-1.9-1.7-2.6-2.8c-0.6-0.8-1.6-1.6-0.6-2.8c0.7-0.1,1.5,0,2.2,0
	C470.8,237.4,472.2,237.8,473.5,237.2z"/>
<path class="st2" d="M467,237.9c1.2,2.7,3.6,4.3,5.6,6.3c3.3,3.4,6.8,6.8,10.2,10.2c0.8,0.8,1.7,1.5,0.7,2.7c-1.9,1.8-4.6,1.3-6.8,2
	c-3.4,0.6-6.7,1.2-10,2.1c-1.2,0.2-2.3,0.7-3.6,0.4c-6.2-5.8-11.9-11.9-18-17.8c-0.9-0.9-3.3-2.2-1.1-4.2c5.9-0.6,11.8-1.2,17.7-1.9
	c0.8-0.1,1.8,0.5,2.3-0.6c0.6,0,1.2,0,1.8,0C466.1,237.6,466.8,237.3,467,237.9z"/>
<path class="st3" d="M511.8,254.2c0.8-1.3-0.4-1.8-1-2.4c-3.4-3.4-6.8-7-10.6-10c-1.3-1-1.7-2.6-2.5-3.9c0.6-0.8,1.7,0,2.4-0.7
	c0.6,0,1.2,0,1.8,0c3,1.1,6.2,0.8,9.3,1.2c6,0.7,12,1,17.9,2.3c-0.1,1.4,0.9,2.1,1.7,2.9c2.5,2.6,5.2,5,7.6,7.8
	c0.8,0.9,2.5,2.1,0.4,3.5c-2.3,0.4-4.7,0.4-7,0c-5.2-0.5-10.3-0.5-15.5,0C514.7,255,513.1,255.5,511.8,254.2z"/>
<path class="st4" d="M1712.1,615.5c4.4,0.1,8.7-0.8,13,0.5c-4.3,0-8.6,0-13,0c-0.2-0.1-0.2-0.2-0.2-0.3
	C1712,615.6,1712.1,615.5,1712.1,615.5z"/>
<path class="st5" d="M497.1,237.7c-1.4-0.1-2.9,0.6-4.2-0.5c1.4,0,2.7,0,4.1,0c0.2,0.1,0.3,0.2,0.2,0.3
	C497.2,237.7,497.1,237.7,497.1,237.7z"/>
<path class="st6" d="M473.5,237.2c-1.3,1.1-2.8,0.4-4.2,0.6c-0.2-0.1-0.2-0.3-0.2-0.4c0.1-0.1,0.1-0.2,0.2-0.2
	C470.7,237.2,472.1,237.2,473.5,237.2z"/>
<path class="st7" d="M469.4,237.2c0,0.2,0,0.4,0,0.6c-0.8,0-1.5,0.1-2.3,0.1c-0.5-0.1-1,0-1.2-0.7
	C467,237.2,468.2,237.2,469.4,237.2z"/>
<path class="st8" d="M1712.1,615.5c0,0.2,0.1,0.3,0.1,0.5c-1.2,0-2.4,0-3.5,0C1709.7,614.9,1710.9,615.5,1712.1,615.5z"/>
<path class="st9" d="M497.1,237.7c0-0.2-0.1-0.4,0-0.5c1,0,2,0,2.9,0c-0.6,1-1.6,0.4-2.4,0.7C497.5,237.8,497.3,237.8,497.1,237.7z"
	/>
<path class="st0" d="M1384,467.2c0-28.3,0-56.5,0-84.8c0-1.8,0.3-3,2.2-3.8c16.9-7,33.8-14,50.7-21.2c2.3-1,2.7-0.6,2.7,1.8
	c-0.1,17.5-0.1,34.9,0,52.4c0,4.1-0.6,3.7,3.8,3.7c13,0,25.9,0,38.9,0c8.2,0,16.5,0.2,24.7,0.1c2.2,0,2.5,0.7,2.5,2.7
	c-0.1,14-0.1,28.1,0,42.1c0,2.2-0.7,2.5-2.7,2.5c-21.4-0.1-42.8,0-64.2-0.1c-2.4,0-3.3,0.3-3.3,3.1c0.1,24.5,0.1,49.1,0.1,73.6
	c0,4.1,0.6,8.2,1.7,12.2c3.7,13,13.4,20.4,27,20.7c12.6,0.3,24.6-2,35.9-7.7c1.4-0.7,2.1-0.8,2.7,1c3.7,10.2,7.4,20.4,11.3,30.5
	c0.7,1.8,0,2.4-1.3,3.1c-12.5,6.6-25.8,10.8-39.8,12.8c-16.6,2.4-33.3,2.2-49.7-1.7c-24.3-5.7-38.9-22.4-42-47.4
	c-0.8-6.4-1.2-12.9-1.2-19.4C1384.1,518.3,1384,492.8,1384,467.2z"/>
<path class="st10" d="M328.8,702.1c-0.6,0.7-1.1,1.3-1.8,2c-20.3,20.3-40.7,40.6-60.9,61c-1.9,1.9-2.8,1.7-4.5-0.1
	c-41.3-42.6-68.7-92.8-81.5-150.8c-4.5-20.5-7-41.3-7.1-62.4c0-1,0.1-2,0.1-2.9c1.7-1.2,3-0.5,4.1,0.8c2,2.4,4.3,4.5,6.5,6.8
	c45.6,45.6,91.1,91.1,136.7,136.7c1.1,1.1,2.3,2.1,3.2,3.5c0.8,1.2,1.4,2.1,3.2,1.4C328.3,697.4,329.1,699.2,328.8,702.1z"/>
<path class="st11" d="M702.7,327.8c7.4-7.3,14.7-14.6,22.1-21.9c1-1,2-1.9,3-2.8c0.9-0.4,1.5,0.1,2.1,0.6
	c41.6,41.7,83.3,83.4,125.1,125c2.5,2.4,3.7,4.9,3.4,8.2c0,1.7,0,3.5,0.1,5.2c0,1.3,0,2.6-0.2,3.9c-0.4,1.3-0.4,2.6-0.4,3.9
	c-0.1,2.5-0.6,4.9-0.8,7.4c-1.3,9.4-2.6,18.8-5.1,28c-1.6,6-2.7,12.2-5.3,18c-1.2,0.8-2-0.1-2.9-0.7c-1.1-0.8-2-1.9-3-2.9
	C790.9,449.8,741,399.9,691.1,350c-1.7-1.7-3.4-3.3-5-4.9c-0.2-0.9,0.3-1.5,0.9-2.1c4.8-4.9,9.6-9.7,14.5-14.5
	C701.8,328.1,702.2,327.9,702.7,327.8z"/>
<path class="st12" d="M1302.8,513.3c0-31.5,0-63-0.1-94.5c0-2.5,0.4-3.3,3.1-3.3c16.4,0.2,32.8,0.1,49.2,0c2.2,0,3,0.4,3,2.8
	c-0.1,63.4-0.1,126.8,0,190.2c0,2.1-0.4,2.8-2.7,2.8c-16.6-0.1-33.2-0.1-49.8,0c-2.5,0-2.8-0.8-2.8-3
	C1302.9,576.7,1302.8,545,1302.8,513.3z"/>
<path class="st12" d="M1535.4,513.5c0-31.6,0-63.2-0.1-94.8c0-2.6,0.6-3.2,3.2-3.2c16.3,0.1,32.6,0.1,48.9,0c2.3,0,3.1,0.4,3.1,3
	c-0.1,63.3-0.1,126.6,0,189.9c0,2.5-0.7,3.1-3.1,3c-16.3-0.1-32.6-0.1-48.9,0c-2.9,0-3.2-0.9-3.2-3.4
	C1535.5,576.5,1535.4,545,1535.4,513.5z"/>
<path class="st13" d="M328.8,702.1c-0.6-0.1-1.2,0-0.5-1c0.7-1-0.1-2-0.7-2.6c-0.8-0.8-1,0.4-1.5,0.7c-1.2,0.9-1.8,0-2.2-0.9
	c-0.7-1.6-1.9-2.7-3.1-3.9c-47-47-94-94-141.1-141.1c-1-1-2.2-2-3-3.3c-0.9-1.6-2.3-1.2-3.6-1.3c-0.2-4.7-0.2-9.5,0.1-14.2
	c0.4-1.2-0.1-2.5,0.4-3.8c-0.2-8.5,1-16.8,2.1-25.1c0.6-4.9,1.2-9.9,2.5-14.7c1.1-0.5,1.9,0.2,2.6,0.8c0.8,0.6,1.4,1.3,2.1,2
	c32.9,32.9,65.9,65.9,98.8,98.8c2.1,2.1,3.9,4.4,6.5,6c0.6,0.6,1,1.4,1.4,2.2c2.5,6.7,5.5,13.3,8.8,19.7c2.4,5.3,5.5,10.1,8.3,15.2
	c3.9,6.4,8,12.7,12.3,18.8c3.6,4.8,7.2,9.6,11.1,14.2c3.3,4.2,6.8,8.1,10.7,11.8c1.4,1.9,3.5,3.2,3.9,5.7
	C339.6,691.7,334.2,696.9,328.8,702.1z"/>
<path class="st14" d="M857.7,436.4c0.5-3-0.9-4.9-3-7c-40-39.9-79.9-79.8-119.9-119.8c-2.2-2.2-4.6-4.4-6.9-6.5
	c9.6-10,19.5-19.8,29.4-29.5c1.6-0.3,2,1,1.9,1.9c-0.4,2.3,0.5,3.1,2.5,3.7c1.1,0.3,1.8,1.5,2.6,2.3c26,26,52,52,78,78
	c1.4,1.4,2.7,2.9,4.4,3.9c0.9,0.5,1.4,1.3,1.5,2.4c0.2,2,1.5,2.9,3.2,3.4c0.2,0.1,0.4,0.3,0.5,0.6c0.3,1.2-1,1.5-1.3,2.5
	c1.1,0.6,2.5,0.6,2.9,2.1c1.7,7.7,2.9,15.5,3.7,23.4c-0.1,1.2,0.1,2.4,0.5,3.5c1.4,8.6,1.5,17.2,1.4,25.8c0,2.9,0.5,5.9-0.5,8.8
	C858.4,436.4,858.1,436.5,857.7,436.4z"/>
<path class="st15" d="M287.9,598.9c-2.4-1-3.9-3.1-5.7-4.8c-33.5-33.6-67.1-67.1-100.6-100.7c-1-1-2-1.8-3.3-2.3
	c1.8-12.3,5.2-24.2,8.8-36c1.4-4.7,2.8-9.5,4.9-14c1.4,0.4,2.2,1.6,3.2,2.5c21.2,21.2,42.5,42.5,63.7,63.7
	c4.2,4.1,8.1,8.5,12.7,12.2c1.4,3.3,0.9,6.8,1.2,10.2c1.3,16.7,4.7,33,9.3,49.1c1.6,5.9,3.7,11.6,5.7,17.4
	C288,596.9,288.7,597.9,287.9,598.9z"/>
<path class="st16" d="M597.2,775c-9.8,1.3-19.6,1.9-29.5,1.8c-5.3-5.2-10.5-10.5-15.8-15.8c-5.3-5.3-10.5-10.5-15.8-15.8
	c-5.7-5.7-11.4-11.4-17-17c-5.3-5.3-10.7-10.7-16-16c-5.5-5.5-11.1-11.1-16.6-16.6c-5.5-5.5-11.1-11.1-16.6-16.6
	c-5.5-5.5-10.9-10.9-16.4-16.4c-5.5-5.5-11.1-11.1-16.6-16.6c-5.4-5.4-10.8-10.8-16.2-16.2c-3.1-3.1-6.4-6-9.2-9.5
	c-0.2-0.9,0.4-1.6,0.8-2.3c2.7-3,6-5.4,8.6-8.4c0.8-0.9,1.8-1.8,2.5-2.8c0.7-0.9,1.3-1.8,2.5-2.2c1.1,0,1.7,0.8,2.4,1.5
	c9,8.9,18.7,16.9,28.9,24.4c0.9,0.7,2,1.3,2.4,2.5c0.8,3.4,3.6,5.5,5.9,7.8c4,3.9,7.9,7.9,11.8,11.8c5.5,5.5,11.1,11.1,16.6,16.6
	c5.4,5.4,10.8,10.8,16.2,16.2c5.7,5.7,11.4,11.3,17,17c5.4,5.4,10.8,10.8,16.2,16.2c5.6,5.6,11.2,11.2,16.8,16.8
	c5.4,5.4,10.8,10.8,16.2,16.2c5.6,5.6,11.2,11.3,16.8,16.8c1.3,1.3,2.5,2.7,3.8,4.1C597.6,773.1,598,774,597.2,775z"/>
<path class="st17" d="M270.8,518.8c-1.2,0.2-2-0.5-2.8-1.3c-25.1-25.1-50.2-50.3-75.4-75.4c-0.3-0.3-0.6-0.8-0.9-1.2
	c0.7-3.6,2.3-6.8,3.7-10.1c4.4-10.9,9.3-21.6,15.2-31.7c1.1,0.2,1.5,1.2,2.1,1.9c4.9,5.6,10.4,10.6,15.6,15.9
	c3.8,3.9,7.7,7.7,11.6,11.6c3.8,3.8,7.6,7.6,11.4,11.4c4,3.9,7.8,7.9,11.8,11.8c3.3,3.2,6.2,6.8,10,9.5c0.9,0.7,1.7,1.3,1.8,2.5
	c0,4.3-1.1,8.5-1.6,12.8c-1.4,12.5-2,25.1-1.8,37.8C271.7,515.8,272,517.5,270.8,518.8z"/>
<path class="st18" d="M1330.7,324.2c19.6,0.2,35,15.8,34.8,35.4c-0.2,19.3-15.9,34.7-35.4,34.5c-19.2-0.2-34.7-15.8-34.6-35
	C1295.5,339.6,1311.2,324.1,1330.7,324.2z"/>
<path class="st18" d="M1598,359.3c0,19.4-15.6,35-35,34.9c-19.4,0-35.1-15.6-35.1-34.9c-0.1-19.4,15.9-35.2,35.2-35
	C1582.7,324.4,1598,339.8,1598,359.3z"/>
<path class="st19" d="M597.2,775c-0.2-2.8-2.5-4.1-4.1-5.8c-4.2-4.5-8.6-8.7-13-13c-3.6-3.6-7.1-7.1-10.7-10.7
	c-4.1-4.1-8.3-8.2-12.5-12.3c-3.9-3.9-7.8-7.8-11.7-11.7c-4.1-4.1-8.2-8.3-12.3-12.5c-3.5-3.6-7.1-7.1-10.7-10.7
	c-4.3-4.3-8.6-8.7-13-13c-3.6-3.6-7.3-7.2-11-10.8c-4.1-4.1-8.3-8.2-12.4-12.4c-3.6-3.6-7.2-7.3-10.8-11c-2.7-2.7-5.3-5.4-8-8
	c-2.6-2.4-4.9-5-7.3-7.6c-0.7-0.7-1.9-1.4-0.7-2.7c2.8,0.5,5,2.3,7.2,3.8c16.2,10.7,33.4,19.4,51.7,26c1,0.4,2.1,0.7,2.7,1.6
	c0.7,1.6,2,2.7,3.2,3.8c32.9,32.9,65.7,65.7,98.6,98.6c1,1,3,1.8,2.2,4C615.8,772.9,606.5,774.4,597.2,775z"/>
<path class="st20" d="M344.6,686.2c-1.5-1.7-2.9-3.5-4.4-5.2c-1-1.8-0.9-3.8-0.9-5.7c0-31.4,0-62.8,0-94.2c0-79.7,0-159.3,0-239
	c0-2.4-0.1-4.7-0.1-7.1c-0.3-1.5,0.6-2.6,1.5-3.6c2.1-2.4,4.1-5,6.8-6.8c1-0.6,2-1.5,3-0.1c0.9,1.7,1.1,3.6,1.2,5.4
	c0.1,1.7,0,3.3,0,5c0,113.4,0,226.7,0,340.1c0,1.2,0,2.4-0.1,3.5c-0.2,2.9-3.5,6.7-6.7,7.7l-0.2,0L344.6,686.2z"/>
<path class="st21" d="M851.7,369.7c-2.6,0.1-4.1-1-4.1-3.7c0-0.7-0.2-1.3-0.9-1.7c-2.3-1.1-3.8-3.1-5.5-4.8
	c-26.1-26.1-52.3-52.2-78.4-78.3c-1-1-1.6-2.5-3.6-1.7c-0.9,0.4-1.7-0.1-1-1.5c0.8-1.6,1.1-3.2-0.8-4.3c8.5-8.5,17-17.1,25.4-25.7
	c1.3-1.3,1.9-0.6,2.8,0.3c9.5,9.5,18.2,19.7,26.2,30.5c0.4,1,1.2,1.7,1.8,2.5l0,0c15,20.8,26,43.7,33.8,68.1
	c1.8,5.6,3.4,11.3,4.7,17C852.2,367.5,852.7,368.7,851.7,369.7z"/>
<path class="st22" d="M411.4,620c3.6,2.4,6.2,5.8,9.3,8.8c4.1,4,8.1,8.1,12.2,12.2c3.8,3.8,7.7,7.7,11.5,11.5c4,4,8,8,12,12
	c3.9,3.9,7.8,7.8,11.7,11.7c4.1,4.1,8.3,8.2,12.5,12.3c3.6,3.5,7.1,7.1,10.7,10.7c4.1,4.1,8.2,8.3,12.3,12.5
	c3.9,3.9,7.8,7.8,11.7,11.7c4.1,4.1,8.3,8.2,12.5,12.3c3.6,3.5,7.1,7.1,10.7,10.7c4.1,4.1,8.2,8.3,12.3,12.5
	c3.9,3.9,7.9,7.7,11.7,11.7c1.9,2,4.6,3.4,5.5,6.3c-7.5,0.2-14.9,0.2-22.4-0.6c-1-0.5-1.9-1-2.6-1.9c-2.8-3.8-6.4-6.9-9.7-10.2
	C491.4,722.4,449.7,680.7,408,639c-1.7-1.7-3.3-3.4-5.2-4.8c-1.1-0.8-2-1.9-2.2-3.4c0.1-1.5,1.5-2.3,2.2-3.5
	C405.7,625,407.9,621.7,411.4,620z"/>
<path class="st23" d="M522.9,773.9c-9.8-1-19.4-2.7-28.9-5.3c-0.8-1.8-2.2-2.9-3.6-4.3c-36.1-36.2-72.3-72.3-108.5-108.5
	c-1-1-2.2-1.9-2.9-3.3c-0.1-1.6,1.4-2.3,2-3.5c2.9-3.4,6-6.5,9.9-8.7c1.4,0.2,2.2,1.3,3.1,2.1c42.1,42.1,84.2,84.1,126.2,126.2
	c1,1,2,2.1,3,3.3C524,772.9,523.9,773,522.9,773.9z"/>
<path class="st24" d="M522.9,773.9c0.9-0.6,0.5-1.1-0.1-1.6c-1.5-1.4-2.8-3-4.3-4.4c-41.6-41.6-83.2-83.2-124.8-124.8
	c-0.9-0.9-1.6-2-2.9-2.5c0.1-1.5,1.5-2.2,2.1-3.4c2.4-2.6,4.9-5.1,8.1-6.8c0.7,1.7,1.7,3,3.3,4c1,0.6,1.8,1.6,2.6,2.4
	c43.9,43.9,87.8,87.8,131.7,131.7c2.4,2.4,4.6,5.1,6.8,7.6c-0.8,0-1.6-0.1-2.4-0.1c-1.3-0.5-2.8,0.2-4.2-0.4
	C533.4,775.5,528.1,775,522.9,773.9z"/>
<path class="st25" d="M274.4,462.9c-4.4-2.4-7.4-6.5-11-9.8c-2.8-2.6-5.5-5.4-8.2-8.2c-2.1-2.2-4.3-4.2-6.3-6.4
	c-2.2-2.4-4.6-4.7-6.9-7.1c-2.5-2.5-5-5.1-7.6-7.6c-4.1-4-8.4-7.7-12.2-12c-3.8-4.2-8.5-7.8-11.5-12.7c4.6-9.1,9.9-17.7,15.9-26
	c2.3,1.1,3.9,3,5.6,4.7c6.1,6.1,12.2,12.1,18.3,18.2c7,7.1,14.1,14.1,21.1,21.2c3.3,3.4,6.6,6.7,10,9.9c0.7,0.7,1.5,1.3,1.7,2.3
	c0.1,2.9-1.4,5.3-1.9,8.1c-2.2,7.4-3.8,14.9-5.4,22.4C275.7,461.1,276,462.5,274.4,462.9z"/>
<path class="st26" d="M624.9,770.9c-0.1-1.5-1.3-2.1-2.2-3c-33.2-33.3-66.5-66.5-99.8-99.8c-0.9-0.9-2.3-1.6-2.3-3.2
	c1-0.7,1.9-0.2,2.8,0.1c8.7,3,17.7,5,26.6,7.1c0.9,0.2,1.7,0.4,2.4,1c1.1,1.7,2.4,3.1,3.8,4.5c28.3,28.2,56.5,56.5,84.7,84.7
	c0.8,0.8,1.7,1.6,2.4,2.6c0.5,0.7,0.8,1.4-0.3,1.9C637.2,768.5,631.1,770,624.9,770.9z"/>
<path class="st27" d="M379,652.4c1.2,0.4,1.9,1.4,2.7,2.3c36.8,36.8,73.5,73.5,110.3,110.3c1,1,2.8,1.6,2,3.7
	c-6.8-0.8-13.3-3.3-19.8-5.1c-3.1-0.9-6.2-1.7-9.1-3.1c-2.6-2.8-5-5.8-7.7-8.5c-28.6-28.5-57.1-57.1-85.7-85.7
	c-1.1-1.1-2.5-2-2.9-3.6c0-1.2,1-1.9,1.5-2.9C373.2,657.2,375.6,654.2,379,652.4z"/>
<path class="st28" d="M754.5,711.9c-6.7,5.6-13.9,10.6-21.3,15.3c-0.7,0.5-1.5,0.9-2.3,1.3c-1.4-0.9-2.4-2.3-3.6-3.5
	c-16.8-16.8-33.6-33.6-50.4-50.4c-1.5-1.5-3.5-2.8-2.8-5.4c0.6-0.9,1.6-1.1,2.5-1.4c7-2.4,14-4.6,20.8-7.2c1.9-0.3,3.5-1.8,5.5-1.4
	c1.8,1.2,3,3.1,4.5,4.6c15.4,15.3,30.7,30.7,46.1,46C754.1,710.3,755.2,710.7,754.5,711.9z"/>
<path class="st29" d="M702.7,327.8c-4.8,4.9-9.7,9.9-14.5,14.8c-0.7,0.8-1.4,1.6-2.2,2.4c-0.1,1.3-1.2,2-2,2.8
	c-8.4,8.2-16.3,16.9-25.2,24.6c-0.8,0.7-1.6,2.7-3.2,0.8c-0.6-3.5-1-7-1-10.5c0-20.8,0-41.6,0-62.4c0-2.7,0.2-5.3,0.8-7.9
	c0.8-2,2-0.9,3-0.4c3.1,1.7,6,3.9,8.9,5.8l0,0c0.8,0.7,1.6,1.5,2.6,1.8C681.6,308.2,692.5,317.6,702.7,327.8z"/>
<path class="st30" d="M818.9,644.3c-6.6,9.1-13.1,18.3-20.7,26.6c-0.7,0.8-1.5,1.5-2.2,2.3c-2.6,0-3.9-2.1-5.4-3.6
	c-12.2-11.9-24.2-24-36.2-36.1c-0.6-0.6-1.2-1.3-1.3-2.2c0.6-2.1,2.7-2.7,4.2-4c6.6-4.9,12.9-10.1,18.8-15.8c1.7-1.6,3.2-3.4,5.6-4
	c4.4,3.2,8,7.4,11.9,11.2c4.2,4.1,8.3,8.2,12.4,12.4C810.2,635.6,814.8,639.7,818.9,644.3z"/>
<path class="st31" d="M845.8,503.5c3-7.5,4.6-15.3,6.4-23.1c1.6-7.1,2.9-14.3,3.7-21.6c0-0.5,0.3-0.9,0.5-1.3
	c6.2,6.2,12.7,12.1,18.2,18.9c0,11.9-1.3,23.6-3,35.3c-2.1,14.4-5.2,28.7-9.3,42.6c-0.1,0.4-0.3,0.7-0.5,1c-0.8,0.4-1.3-0.2-1.7-0.7
	c-6.6-8-14-15.2-21.8-21.9c-2.4-2.1,0.2-2.9,0.9-4.2c-0.4-1.1-2-1.1-2.1-2.4c0.9-4.5,3.2-8.6,4.7-12.9c0.8-2.3,1.4-4.7,2.1-7
	C844.3,505.2,844.5,504,845.8,503.5z"/>
<path class="st32" d="M753.3,631.2c0.7,0.8,1.3,1.7,2.1,2.4c11.5,11.5,23,23,34.5,34.5c1.9,1.8,4,3.4,6,5.1
	c-7.1,8.4-14.9,16.2-23.2,23.4c-7.9-8.4-16.3-16.3-24.4-24.5c-5.4-5.4-10.9-10.7-16.1-16.3c-1.7-1.8-3.8-3.1-5.2-5.2
	c-0.5-0.7-1.2-1.3-1.2-2.3c1.1-2.1,3.3-2.6,5.1-3.7c6.3-3.7,12.4-7.5,18.3-11.7C750.5,632.1,751.6,630.9,753.3,631.2z"/>
<path class="st33" d="M726.2,648.3c2.7,3.9,6.4,6.7,9.7,10c4.1,4.2,8.1,8.4,12.2,12.5c3.6,3.6,7.3,7.2,11,10.8
	c4.2,4.1,8.3,8.2,12.4,12.3c0.7,0.7,1.1,1.6,1.2,2.6c-5.8,5.5-11.8,10.7-18.2,15.2c-0.6-1.4-2-2.1-3-3.1
	c-15.1-15.2-30.3-30.4-45.5-45.6c-1.1-1.1-2.2-2.2-2.8-3.7c0.1-1.3,1.3-1.6,2.3-2c6-2.6,12.1-5.2,17.7-8.6
	C724.1,648.3,725,647.6,726.2,648.3z"/>
<path class="st34" d="M713.9,738.6c-5.9,3.6-12,6.6-18.3,9.3c-4.9-7.3-11.8-12.6-17.7-18.9c-3.7-4-7.7-7.8-11.5-11.7
	c-3.8-3.9-7.7-7.8-11.6-11.6c-3.7-3.6-7.3-7.3-11-10.9c-4.7-4.6-9-9.5-14.1-13.6c-1.1-0.9-3.2-1.8-1.3-3.8c8-1.2,16-2.3,24.1-3.5
	c0.2,0,0.5,0.1,0.5,0.2c0.1,3.3,2.7,4.9,4.7,6.9c18,18,36.1,36.1,54,54.1C712.6,736,714.2,736.7,713.9,738.6z"/>
<path class="st35" d="M282.6,429.3c-5.2-5.1-10.5-10-15.5-15.3c-5.5-5.8-11.1-11.3-16.8-17c-5.3-5.3-10.5-10.6-15.9-15.8
	c-2.7-2.6-5.7-5-7.9-8.1c3.8-6.2,8.2-12.1,12.9-17.6c1.2-0.5,2.1,0.3,2.9,1c3.5,3.8,7.3,7.3,11,11c4,4.1,8.1,8.2,12.2,12.2
	c3.5,3.4,7,6.9,10.4,10.3c5.2,5.4,10.8,10.5,15.7,16.2c-0.1,2.5-1.8,4.6-2.3,7c-1.8,4.8-3.7,9.6-5.2,14.5
	C283.9,428.5,283.7,429.3,282.6,429.3z"/>
<path class="st36" d="M713.9,738.6c-0.8-0.9-1.5-1.8-2.3-2.6c-19.3-19.3-38.6-38.6-57.9-57.9c-1.1-1.1-2.7-2.1-0.5-3.6
	c0.9-1.1,2.2-1.1,3.4-1.5c3.9-0.8,7.8-1.8,11.6-2.8c0.9-0.2,1.8-0.4,2.6-0.7c1.2-0.3,2.4-0.9,3.6,0.1c0.2,1.8,1.4,2.9,2.6,4.1
	c17.3,17.3,34.5,34.5,51.8,51.8c0.9,0.9,2.1,1.5,2.2,3C725.4,732.2,719.8,735.7,713.9,738.6z"/>
<path class="st37" d="M643.2,766.7c0.8-1.7-0.9-2.2-1.7-3c-29-29-58-58-86.9-87c-0.9-0.9-2.1-1.5-2.1-3c0.6-0.6,1.4-0.6,2.2-0.4
	c6,1.4,12.1,1.9,18.1,2.7c0.6,0.1,1.1,0.3,1.6,0.6c18.8,19,37.8,37.9,56.7,56.9c8.4,8.4,16.8,16.8,25.2,25.2c1,1,2.7,1.9,1.6,3.9
	C653,764,648.2,765.8,643.2,766.7z"/>
<path class="st38" d="M874.6,476.4c-2.2-0.3-2.7-2.4-3.9-3.7c-4.3-4.3-8.6-8.6-12.9-12.8c-0.7-0.7-1.6-1.2-1.4-2.4
	c-0.3-2.6,0.5-5.1,0.7-7.7c0.6-1.1-0.2-2.4,0.5-3.6c0-1.4,0.1-2.7,0.1-4.1c0.6-1.9-0.2-4,0.5-5.9c0-11.8,0.2-23.6-1.3-35.4
	c-0.5-0.9,0.2-2-0.5-3c-0.8-8.1-2.4-16.1-3.7-24.1c-1.3-1.1-0.6-2.8-1-4.1c0,0,0,0,0,0c-1.4-8.5-4.1-16.7-6.8-24.8
	c-7.2-21.6-17.2-41.7-29.9-60.6c-0.6-0.9-1.7-1.7-1.6-3c4.8,5.3,8.5,11.4,12.4,17.4c23.2,36.1,38.1,75.4,45.1,117.6
	c2.2,13.5,3.5,27.2,3.8,40.9C875,463.7,875.3,470,874.6,476.4z"/>
<path class="st39" d="M837.6,526.5c0.4,0.2,0.8,0.5,1.3,0.6c0.9,0.2,1.5,0.5,1.6,1.4c0,0.8-0.5,1.2-1.2,1.5c-2,0.7-2.2,1.5-0.1,2.5
	c0.6,0.3,1.2,0.7,1.6,1.2c6,6,12,12,18.1,18c1.2,1.2,1.3,3.1,3,3.9c-2.9,11.2-7.1,21.9-11.5,32.6c-1.2,2.8-2.5,5.5-3.8,8.2
	c-2.3-1.4-4.3-3.1-6.1-5c-7.4-7.4-14.8-14.8-22.2-22.2c-1-1-2.1-1.8-2.3-3.3c0-0.9,0.4-1.7,0.9-2.4c7.2-11,13.5-22.6,18.9-34.7
	C836,527.8,836.1,526.4,837.6,526.5z"/>
<path class="st40" d="M627.8,678c0,1.1,0.9,1.8,1.6,2.3c5.6,4.2,10.2,9.5,15.1,14.5c3.8,3.9,8.1,7.3,11.7,11.3
	c3.7,4.1,8,7.6,11.6,11.8c1.8,2.1,3.8,4.2,6,5.9c2.5,2,4.4,4.4,6.6,6.5c4.6,4.4,8.9,9.2,13.6,13.5c1.2,1.1,0.9,2.7,1.5,4
	c-4.6,1.8-8.8,4.5-13.6,5.9c-1.1-0.5-2-1.2-2.8-2.1c-22.7-22.7-45.4-45.4-68.1-68.1c-0.7-0.7-1.4-1.4-1.9-2.2c-0.5-1-1.1-2,0.3-2.8
	c1.2-0.4,2.5-0.3,3.8-0.4c2.3,0,4.7,0.3,7-0.4C622.8,677.9,625.4,676.1,627.8,678z"/>
<path class="st41" d="M818.9,644.3c-1.1,0-1.7-0.8-2.4-1.5c-3.8-3.8-7.7-7.6-11.5-11.4c-4.1-4.1-8.1-8.3-12.2-12.4
	c-2.9-2.9-6-5.8-8.9-8.7c-0.8-0.8-1.5-1.8-2.3-2.6c-0.1-0.6,0.2-1.2,0.6-1.6c5.8-6.1,11.6-12.3,17.1-18.8c0.4-0.5,1-0.9,1.8-0.9
	c1.5,0.2,2.4,1.3,3.4,2.2c9.9,9.8,19.6,19.8,29.7,29.4c0.4,0.4,0.9,0.8,0.6,1.5C829.9,628.1,824.8,636.5,818.9,644.3z"/>
<path class="st42" d="M657.9,762.5c0.2-1.7-1.1-2.4-2.1-3.4c-24.9-24.9-49.9-49.8-74.7-74.8c-2.2-2.2-4.8-4.2-6.3-7.1
	c2.3-1.1,4.6-0.1,6.9,0c1.4,0.5,2.9,0.4,4.4,0.3c2.3,0.1,4.7-0.2,6.9,0.3c0.3,0.1,0.6,0.3,0.8,0.5c1.6,3.8,5.2,6.1,7.9,9
	c4.3,4.5,8.7,8.9,13.2,13.2c3.9,3.8,7.8,7.7,11.6,11.5c3.9,3.8,7.8,7.7,11.6,11.6c3.7,3.8,7.4,7.5,11.2,11.2
	c3.9,3.8,7.7,7.7,11.6,11.6c2.9,2.8,5.7,5.6,8.3,8.7c0.7,0.8,2,1.4,1.6,2.9C666.7,760,662.3,761.2,657.9,762.5z"/>
<path class="st43" d="M251.3,341.4c4.4-5.3,9.1-10.2,14.1-14.8c1.1,0.3,1.8,1.2,2.5,1.9c13,13,25.9,25.9,38.9,38.9
	c1.3,1.3,2.5,2.5,3.2,4.2c0,2.5-2.2,3.9-2.9,6c-2,3.1-3.7,6.4-5.5,9.6c-0.6,1.1-1,2.4-2.4,2.9c-2.9-1-4.6-3.6-6.6-5.6
	c-13.5-13.2-26.7-26.6-40-39.9C251.8,343.7,250.6,342.9,251.3,341.4z"/>
<path class="st44" d="M309.8,371.5c-14.4-14.4-28.7-28.9-43.1-43.4c-0.5-0.5-0.8-1.1-1.2-1.6c5.4-5.6,11.1-10.8,17.2-15.8
	c1.1,3,3.4,5.2,5.7,7.4c11,10.8,21.7,21.9,32.8,32.6c0.9,0.8,1.6,1.7,1.4,3c-1,2.4-2.6,4.6-4.1,6.8c-2.2,3-4.3,6-6.3,9
	C311.5,370.4,311.1,371.6,309.8,371.5z"/>
<path class="st45" d="M349.7,323.7c-3.9,2.8-6.9,6.4-10,10c-1.2,2.3-2.8,4.2-5.4,5.1c-1.5-0.3-2.3-1.4-3.2-2.4
	c-6.3-6.8-13-13.2-19.6-19.7c-4.8-4.8-9.5-9.8-14.5-14.5c-0.6-0.6-1.4-1.2-1-2.2c6.4-5.2,13-9.9,20.1-14c2.4,1.4,3.7,3.7,5.6,5.6
	c8.8,8.7,17.5,17.5,26.2,26.2c1.3,1.3,2.8,2.5,2.8,4.7C350.7,323.1,350.4,323.6,349.7,323.7z"/>
<path class="st46" d="M251.3,341.4c0,1.4,1.1,2,1.9,2.8c13.2,13.2,26.4,26.4,39.6,39.6c2,2,4.2,4,6.3,6c0.6,0.9,0.1,1.7-0.2,2.5
	c-2.1,3.9-3.8,8-5.7,12c-0.4,0.8-0.4,2-1.8,1.9c-2.1-0.2-2.6-2.2-3.8-3.4c-3.9-3.9-7.7-7.9-11.6-11.7c-4-3.9-8.3-7.6-12-11.7
	c-2-2.2-4.4-4-6.3-6.4c-1.8-2.3-4.2-4-6.2-6.2c-2.8-3.1-6.2-5.9-8.9-9.1c-0.9-1-1.9-1.7-3.1-2.2
	C243.1,350.5,247.1,345.9,251.3,341.4z"/>
<path class="st47" d="M670.8,758c-4.2-4.7-8.5-9.3-13.2-13.6c-4-3.7-7.4-8.2-11.5-11.8c-4.1-3.7-7.7-7.9-11.8-11.6
	c-2.3-2.1-4.9-4.2-6.7-6.8c-1.4-2-3.5-3.3-5.2-5.1c-5.3-5.7-11.1-10.8-16.5-16.3c-3.5-3.6-7-7.2-10.7-10.7c-0.8-0.7-1.6-1.7-1.6-3
	c0.8-0.7,1.8-0.8,2.7-0.8c3.2,0,6.4,0,9.6-0.1c1.1,0,2.2,0,3,0.9c0.2,1.8,1.5,2.9,2.6,4.1c22.7,22.7,45.4,45.4,68,68
	c0.8,0.8,1.6,1.7,2.4,2.6C678.3,755.2,674.7,757,670.8,758z"/>
<path class="st48" d="M350.4,322.6c-0.2-1.7-1.3-2.8-2.4-3.9c-9.1-9.1-18.3-18.2-27.4-27.4c-1.6-1.6-3.3-3.2-4.4-5.3
	c6.7-4.7,13.9-8.7,21.2-12.5c10.3,10.3,20.6,20.6,30.9,30.9c0.5,0.5,1,1,1.2,1.7c0,1.1-0.7,1.8-1.5,2.4c-2.7,2-5.1,4.3-7.8,6.3
	c-2.3,2.3-5,4.3-7.4,6.6C352.1,322.1,351.6,323,350.4,322.6z"/>
<path class="st49" d="M834.6,619.5c-9.9-9.2-19.2-19.1-28.9-28.6c-1.5-1.5-3.1-2.9-4.7-4.4c-0.4-1.2,0.4-2,1.1-2.8
	c3.1-4,6.2-8,9.1-12.1c1.1-1.3,1.9-2.7,2.9-4.1c0.6-0.8,1-1.8,2.2-1.6c3.5,4.3,7.7,8.1,11.7,12c5.6,5.5,10.7,11.4,16.8,16.4
	c0.7,0.5,1.1,1.3,1.7,2c-3.1,6.9-6.3,13.8-10.1,20.3C835.8,617.5,835.2,618.5,834.6,619.5z"/>
<path class="st50" d="M358,263.6c8.9-4.3,18.2-7.7,27.6-10.7c2.4,1,3.4,3.5,5.1,5.2c6.4,6.2,12.7,12.6,18.9,18.9
	c0.9,0.9,2.3,1.7,2,3.3c-2.9,2.6-6.6,3.6-9.9,5.6c-3,1.7-6,3.4-8.9,5.3c-2.1,0.7-3.5,2.9-6,2.9c-1-0.4-1.7-1.3-2.5-2
	c-7.3-7.3-14.5-14.6-21.8-21.8c-1.6-1.6-2.8-3.5-4.5-5C357.7,264.8,357.5,264.2,358,263.6z"/>
<path class="st51" d="M296.1,300.1c2.2,2.7,5,4.9,7.3,7.5c2.5,2.8,5.3,5.4,8,8c2.3,2.2,4.4,4.6,6.8,6.7c2.4,2.1,4.5,4.6,6.8,6.7
	c3.4,3.1,5.9,7,9.6,9.7c0.6,1.1-0.2,1.9-0.8,2.5c-1.3,1.3-2.4,2.9-3.6,4.2c-2.1,2.2-3.8,4.8-5.8,7c-0.6,0.7-1,1.8-2.3,1.5
	c-0.1-0.9-0.5-1.6-1.2-2.3c-12.1-11.9-24.1-23.9-36.1-35.8c-1.4-1.4-2.4-2.9-2.2-4.9C286.9,307,291.3,303.3,296.1,300.1z"/>
<path class="st52" d="M369.1,662.3c0.5,1.2,1.6,2,2.5,2.9c28.6,28.6,57.1,57.1,85.7,85.7c2.6,2.6,5.1,5.4,7.6,8.2
	c0.4,0.4,1,0.8,0.2,1.4c-6.1-1.7-12-3.7-17.6-6.5c-0.8-1.8-2.3-2.9-3.6-4.3c-26-26-51.9-51.9-77.9-77.9c-1-1-2.3-1.9-2.9-3.3
	C364.3,665.6,366.3,663.6,369.1,662.3z"/>
<path class="st53" d="M411.6,280.1c-7-7.1-14.1-14.2-21.1-21.4c-1.8-1.8-3.3-3.9-4.9-5.8c9.5-3.3,19.1-6.1,29-8
	c1.7,0.7,3.1,1.7,4.3,3c6.1,6.1,12.3,12.3,18.4,18.5c0.6,0.6,1.3,1.3,1.1,2.3c-0.7,1.6-2.3,1.6-3.6,2.2c-3.9,1.5-7.8,3-11.6,4.7
	c-3.8,1.2-7.1,3.6-10.8,4.9C412.1,280.4,411.8,280.3,411.6,280.1z"/>
<path class="st54" d="M358,263.6c1.7,2,3.2,4.1,5,5.9c7.2,7.3,14.5,14.6,21.8,21.8c0.8,0.8,1.4,1.6,2.1,2.4c-0.1,2-2.1,2.3-3.2,3.3
	c-0.9,0.7-1.9,1.3-2.8,1.9c-3.5,2.3-6.8,5-10.3,7.3c-0.4,0.1-0.8,0.1-1.2-0.2c-2.4-1.7-4.3-4-6.4-6.1c-7.9-7.9-15.8-15.8-23.7-23.7
	c-0.8-0.8-1.9-1.5-1.9-2.9C344,269.8,350.8,266.4,358,263.6z"/>
<path class="st55" d="M345.1,686.2c2.1-2.2,4.5-4.1,6.3-6.6c0.4-1.9,1.5-3.2,3.6-3.2c1,0.4,1.6,1.1,2.3,1.8
	c19,18.9,37.9,37.9,56.8,56.8c0.7,0.7,1.5,1.3,1.8,2.3c0.2,0.6,0.4,1.4-0.8,1.2c-3.1-1-5.6-2.9-8.3-4.5
	C384.2,720.6,363.6,704.8,345.1,686.2z"/>
<path class="st56" d="M438.2,268.5c-4.8-5-9.6-10-14.5-14.9c-3-3-6-5.8-9.1-8.7c9.7-2.5,19.5-4.1,29.4-5.2c-0.9,2.4,1.2,3.4,2.5,4.6
	c5.2,5.3,10.6,10.4,15.8,15.7c0.3,0.3,0.4,0.9,0.6,1.3c-1.9,1.8-4.5,1.8-6.7,2.6c-3.2,0.8-6.4,2-9.6,2.8c-1.8,0.5-3.5,1.2-5.3,1.7
	C440.2,268.8,439.2,269.3,438.2,268.5z"/>
<path class="st57" d="M363.1,668.3c0.8,0.7,1.7,1.3,2.4,2.1c26.7,26.7,53.4,53.4,80,80.1c0.9,0.9,2.6,1.6,1.8,3.4
	c-4.6-1.6-9.1-3.6-13.5-5.8c-5.2-6.5-11.6-11.9-17.4-17.8c-5.4-5.5-10.9-10.9-16.4-16.3c-5.5-5.4-10.9-10.9-16.3-16.4
	c-3.8-3.9-7.8-7.7-11.6-11.6c-4.4-4.4-9-8.7-13.2-13.3c-0.3-1.3,0.8-2,1.3-3C361.1,669,361.7,667.8,363.1,668.3z"/>
<path class="st58" d="M359,672.5c2.6,0.6,3.7,3.1,5.4,4.7c2.3,2.1,4.8,4.2,6.7,6.8c1.6,2.2,3.9,3.8,5.7,5.8
	c5.3,5.6,11.3,10.6,16.5,16.3c5.3,5.7,11.1,10.8,16.2,16.6c3.6,4,8.1,7.3,11.6,11.3c3.9,4.5,9.1,7.7,12.2,12.9
	c0.3,0.4,0.5,0.8,0.5,1.3c-6.5-2.7-12.8-5.9-18.8-9.6c1.3-1.6-0.6-2-1.2-2.7c-17.1-17.2-34.3-34.4-51.5-51.6
	c-2.5-2.6-5.4-4.8-7.5-7.8C355.6,674.4,356.9,673.1,359,672.5z"/>
<path class="st59" d="M667.4,297.8c-4-1.7-7.3-4.6-11.2-6.5c-1.8,0-3-1.3-4.4-2c-6.6-3.6-12.9-7.6-19.9-10.4
	c-7.3-3.6-14.9-6.5-22.5-9.3c-6.3-2.2-12.6-4.5-19.2-5.8c-0.6-0.1-1.1-0.3-1.6-0.7c-0.2-0.2-0.4-0.4-0.4-0.7
	c0.3-1.5-0.6-2.3-1.5-3.2c-1-1-2-1.8-2.8-3c-0.5-0.8-1.1-1.8,0.6-1.9c21.4,6.8,41.3,16.7,60.5,28.2c7.1,4.3,14.1,8.9,20.8,13.9
	C666.3,296.7,667.1,297,667.4,297.8z"/>
<path class="st60" d="M539.5,254.2c-2.7-4.5-7-7.4-10.4-11.3c-0.5-0.6-2.5-1.5-0.1-2.3c8.3,1.1,16.6,2.4,24.7,4.6
	c2.5,3,5.6,5.3,7.9,8.4c0.7,0.9,1.9,1.9,0.6,3.3c-0.9,0.4-1.9,0.4-2.9,0.2c-5-0.6-10-1.3-15-1.5
	C542.7,255.2,540.9,255.5,539.5,254.2z"/>
<path class="st61" d="M562.4,256.6c-1.2-3.9-5-5.6-7.2-8.7c-0.6-0.8-1.7-1.4-1.5-2.6c7.6,1.6,15.1,3.6,22.5,6
	c2.8,0.9,5.7,1.5,8.2,2.9c-1.3,0.8-0.3,1.4,0.2,2c1.3,1.4,2.7,2.7,4,4.1c0.7,0.8,1.1,1.5-0.4,1.7c-1.3,1-2.6,0.5-3.9,0.1
	c-4.5-1.2-9.1-2.1-13.7-3c-1.9-0.4-3.8-0.6-5.6-1C564,257.9,562.9,257.8,562.4,256.6z"/>
<path class="st22" d="M538.8,775.7c1.4,0.1,2.9-0.5,4.2,0.4C541.6,776.2,540.2,776.2,538.8,775.7z"/>
<path class="st59" d="M670,299.7c-1.3,0-2.2-0.6-2.6-1.8C668.5,298,669.3,298.8,670,299.7z"/>
<path class="st38" d="M813.5,281.3c-1.2-0.5-1.8-1.3-1.8-2.5C812.5,279.5,813.3,280.2,813.5,281.3z"/>
<path class="st10" d="M173.6,530.9c-0.1,1.3,0.5,2.6-0.4,3.8C173.2,533.4,172.8,532.1,173.6,530.9z"/>
<path class="st0" d="M1810.6,483c-7.1-32.8-25.6-56-57.7-67.1c-22.1-7.6-44.8-7.2-67.3-1.8c-30.6,7.3-52.9,25-65.1,54.3
	c-9.4,22.5-10.7,45.8-6.3,69.6c3.4,18.6,11.2,35.3,24.6,48.9c15.7,16,35.2,24,57,27.4c3.7,0.6,7.5,0.3,11.1,1.7c0.6,0,1.2,0,1.8,0
	c1.3-0.6,2.6-0.2,4-0.3c4.2,0.2,8.4-0.4,12.5,0.3c1.2,0,2.4,0,3.5,0c3.2-0.6,6.4-0.4,9.6-0.8c9.7-1.2,19.1-3.7,28.2-7.1
	c10.3-3.9,20.2-8.7,29.3-15c3.2-2.2,3.3-2.5,2-6.3c-0.6-1.9-1.4-3.7-2.1-5.5c-2.6-6.9-5-13.8-7.7-20.7c-1.6-4.2-2.2-4.4-6.1-2.1
	c-1.9,1.1-3.9,2.3-5.9,3.3c-19.7,9.5-40.6,13.1-62.4,11c-23.6-2.3-40.7-17-46.7-40.1c-1.2-4.7-1.2-4.8,3.7-4.8
	c36.6,0,73.2,0,109.7,0c7.8,0,15.5,0,23.3,0c5,0,5.4-0.4,6.6-5.2c1-4,0.9-8.1,1.6-12.2c0-7.9,0-15.7,0-23.6
	C1810.7,485.8,1810.9,484.3,1810.6,483z M1760.5,495.1c-11.7,0-23.4,0-35,0c-3.8,0-7.7,0-11.5,0c-15.2,0-30.4-0.1-45.6,0.1
	c-3,0-3-1-2.5-3.3c5-23.5,20.5-37.1,44.4-39.2c9.5-0.9,18.8-0.2,27.8,3.1c18,6.7,24.5,22.8,25.1,37.7
	C1763.1,495.9,1761.5,495.1,1760.5,495.1z"/>
<path class="st62" d="M476.4,258.5c2.4-0.5,4.7-0.9,7.1-1.4c1.4-0.1,2.8-0.3,4.1-0.4c0.9,0.9,0.9,2.1,0.9,3.3c0,1.4,0,2.7,0,4.1
	c0,89.9,0,179.8,0,269.7c0,2.3,0,4.5,0.2,6.8c0.4,1.1,0.3,2.1-0.5,3c-3.1,3.1-5.8,6.6-9.6,9c-0.5,0.2-1,0.3-1.6,0
	c-1.2-0.8-1.4-2.1-1.5-3.4c-0.1-1.2-0.1-2.4-0.1-3.5c0-93.8,0-187.7,0-281.5C475.5,262.2,475,260.2,476.4,258.5z"/>
<path class="st63" d="M511.8,254.2c5.6-0.5,11.3-0.4,17-0.4c1,0,2.2-0.3,3.1,0.5c-0.1,0.1-0.3,0.3-0.4,0.4c-2.6,1-5.2,0.5-7.9,0.6
	c-2.2,0-3.3,0.9-3.1,3.2c0,1,0,2,0,2.9c0,80.4,0,160.9,0,241.3c0,2.1,0,4.1,0.2,6.2c0.6,1.4,0,2.4-0.9,3.4c-1.3,1.4-2.7,2.7-4,4.1
	c-1.5,1.4-2.8,2.9-4.4,4.2c-0.9,0.8-1.9,1.6-2.9,0.2c-1-2.3-1.1-4.8-1.1-7.2c0-84.7,0-169.4,0-254.1c0-1.8-0.6-4.1,2.1-4.9
	C510.2,254.3,511,254.2,511.8,254.2z"/>
<path class="st64" d="M509.4,254.4c-1.5,1-1.1,2.6-1.1,4c0,78.2,0,156.4,0,234.5c0,7.3,0,14.5,0,21.8c0,2.2,0.3,4.4,1.2,6.5
	c0.2,0.8-0.2,1.3-0.6,1.8c-2.6,2.8-5.3,5.5-8.1,8.1c-0.9,0.8-1.9,1.4-3.1,0.4c-1.1-1.5-0.9-3.2-0.9-4.8c0-10,0-20,0-30
	c0-78.4,0-156.8,0-235.2c0-2-0.5-4.2,0.9-6C501.5,254.7,505.4,254.2,509.4,254.4z"/>
<path class="st65" d="M497.6,255.5c0,90.7,0,181.4,0,272.1c0,1.5-0.7,3.2,1.2,4.2c0.2,0.6-0.1,1.2-0.5,1.6c-2.4,2.6-5,5.2-7.6,7.6
	c-0.6,0.5-1.3,0.9-2.1,0.8c-0.7-0.5-1.1-1.1-1.1-2c0-0.7,0-1.4,0-2.1c0-93.7,0-187.4,0-281.1C490.9,255.9,494.2,255.3,497.6,255.5z"
	/>
<path class="st66" d="M455.8,263.2c2.4-0.6,4.7-1.3,7.1-2c1.2-0.2,2.4-0.4,3.5-0.5c0.9,0.8,0.9,1.9,0.9,3c0.1,1.4,0,2.7,0,4.1
	c0,95.5,0,190.9,0,286.4c0,2.6,0,5.1,0.4,7.6c0.3,1.4-0.3,2.5-1.2,3.4c-2.4,2.4-4.7,4.9-7.3,7.2c-1,0.9-2,1.9-3.6,1.1
	c-1.2-1.6-0.9-3.4-0.9-5.1c0-21,0-42,0-63c0-78.7,0-157.5,0-236.2C454.9,267.2,454.5,265.1,455.8,263.2z"/>
<path class="st67" d="M467.5,563c-1.1-1.6-1.1-3.5-1.1-5.4c0-97.6,0-195.2,0-292.8c0-1.4,0-2.7,0-4.1c3.2-1.3,6.6-1.7,10-2.3
	c0,96.5,0,192.9,0,289.4c0,1.7-0.6,3.6,1.6,4.5c0.4,0.5,0.2,0.9-0.1,1.3C474.9,557.2,471.4,560.4,467.5,563z"/>
<path class="st68" d="M539.5,254.2c1.6,0.2,3.1,0.4,4.7,0.6c1.2,1.4,0.9,3.1,0.9,4.8c0,16.8,0,33.6,0,50.3c0,55.8,0,111.7,0,167.5
	c0,2.2-0.1,4.3,0.4,6.4c0.5,1.6-0.4,2.8-1.4,3.9c-2.3,2.4-4.7,4.7-7.1,6.9c-1.5,1.3-2.4,3.8-5.2,2.9c-1.4-1.6-1-3.5-1-5.4
	c0-27.3,0-54.6,0-81.9c0-50.2,0-100.3,0-150.5c0-1.9-0.5-4,0.9-5.7c0,0,0-0.1,0-0.1C534.4,254.2,536.9,254.2,539.5,254.2z"/>
<path class="st69" d="M816.3,565.8c-1.5,2-3.1,4-4.6,6c-2.1-1.3-3.7-3.2-5.4-4.9c-5.3-5.6-10.9-10.9-16.3-16.4
	c-5.4-5.4-10.8-10.8-16.2-16.1c-4-3.9-7.9-7.9-11.8-11.8c-3.8-3.8-7.6-7.6-11.4-11.4c-3.8-3.8-7.6-7.6-11.4-11.4
	c-4.1-4.1-8.2-8.1-12.2-12.2c-3.9-4-7.9-7.9-11.8-11.8c-3.7-3.8-7.5-7.5-11.2-11.2c-4.1-4.1-8.3-8.3-12.4-12.4
	c-3.8-3.8-7.6-7.6-11.4-11.4c-3.9-3.8-7.7-7.7-11.6-11.6c-4.1-4.1-8.1-8.2-12.2-12.2c-3.7-3.7-7.4-7.5-11.2-11.2
	c-2.6-2.5-4.9-5.3-7.9-7.4c-0.9-0.6-1.6-1.4-1.9-2.6c0-0.8,0.4-1.3,1.1-1.5c0.9,0,1.3-0.4,1.2-1.3c0.2-0.9,0.9-1.5,1.5-2.2
	c5.2-5.2,10.4-10.4,15.6-15.6c0.6-0.6,1.2-1.1,1.9-1.4c9.8-9.6,19.7-19.2,29.5-28.9c1.6,0.1,2.3,1.4,3.3,2.3
	c51,50.9,101.9,101.9,152.9,152.8c1.2,1.2,2.4,2.3,3.7,3.4c-2.3,7.8-5.4,15.3-8.3,23C831.4,540.1,824.3,553.2,816.3,565.8z"/>
<path class="st31" d="M858.2,436.3c-0.2,2,0.5,4-0.5,5.9c0-1.9,0-3.8,0-5.7C857.8,436.4,858,436.3,858.2,436.3z"/>
<path class="st31" d="M857.6,446.3c-0.1,1.2,0.4,2.5-0.5,3.6C857.1,448.6,856.7,447.4,857.6,446.3z"/>
<path class="st70" d="M329.7,345c1.1-2.5,3.8-3.9,4.8-6.4c1.7-1.6,3.4-3.2,5.2-4.8c0.7,1.1,0.6,2.2,0.6,3.4c0,114.1,0,228.2,0,342.3
	c0,0.5,0,1,0,1.5c-3.9-3.6-7.5-7.5-10.6-11.8c-0.5-3.6-0.9-7.2-0.9-10.8c0-102.6,0-205.2,0-307.9C328.8,348.5,328.7,346.6,329.7,345
	z"/>
<path class="st71" d="M329.7,345c0,103.9,0,207.8,0,311.6c0,2.5-0.1,5.1,0.5,7.6c0.4,1.6,0.4,3.3-0.5,4.9
	c-4.2-4.4-7.7-9.2-11.1-14.2c-0.5-4.7-0.9-9.3-0.9-14c0-92.1,0-184.3,0-276.4c0-1.4,0.1-2.7,0.3-4.1c1.4-2.2,2.8-4.3,4.2-6.5
	C324.6,350.9,327.2,347.9,329.7,345z"/>
<path class="st72" d="M317.9,360.3c1.2,1.1,0.6,2.6,0.6,3.9c0,92.1,0,184.3,0,276.4c0,3.2,0.8,6.4,0.7,9.6c-0.1,1.6-0.2,3.1-0.6,4.6
	c-4.6-5.9-8.7-12.3-12.4-18.9c0.2-3.6,0.2-7.3,0.2-10.9c0-80.2,0-160.3,0-240.5c0-2.4-0.4-4.9,0.3-7.3c0.4-2.3,2.5-3.6,3-5.8
	C312.7,367.9,314.6,363.6,317.9,360.3z"/>
<path class="st73" d="M306.7,377.4c0.5,1.5,0.6,3,0.6,4.6c0,83.3,0,166.7,0,250c0,1.4,0.4,3-1.2,4c-3.1-4.9-6.1-9.9-8.3-15.3
	c-0.3-2.3-0.4-4.7-0.4-7c0-70.9,0-141.9,0-212.8c0-2.9,0-5.9,1-8.7c0.2-0.8,0.4-1.6,0.7-2.3c2-3.4,3.9-6.7,5.9-10.1
	C305.5,378.8,305.8,377.8,306.7,377.4z"/>
<path class="st74" d="M298.5,392.1c0,2.1,0,4.3,0,6.4c0,72.8,0,145.7,0,218.5c0,1.2,0.5,2.6-0.6,3.6c-3.7-6.4-6.6-13-8.9-20
	c0.4-2.3,0.3-4.7,0.3-7c0-55.7,0-111.5,0-167.2c0-4,1-8-0.2-12c-0.2-0.6-0.2-1.1-0.5-1.7c1-2.2,1.9-4.3,2.9-6.5
	C294.1,401.7,295.5,396.5,298.5,392.1z"/>
<path class="st75" d="M288.6,412.8c2.2,1.9,2.4,4.5,2.1,7c-0.2,1.8-0.4,3.5-0.4,5.2c0,57.3,0,114.6,0,171.9c0,1.4,0.6,3-1.2,3.9
	c-0.4-0.6-0.8-1.2-1.1-1.8c-1.9-5.9-4.4-11.7-5.9-17.7c-0.2-0.8-0.3-1.5-0.5-2.3c-0.7-3.3-1-6.6-1-9.9c0-36.7,0-73.4,0-110.1
	c0-7.2-0.3-14.3,0.3-21.5c-0.1-2.9,1.9-5.3,1.8-8.2C284.6,423.8,286.6,418.3,288.6,412.8z"/>
<path class="st21" d="M851.7,369.7c0.8,1.2,0.7,2.7,1,4.1c-0.4-0.1-0.9-0.5-1.3-0.3c-0.8,0.2-1.5,0.4-1.9-0.6c-0.4-1,0.3-1.4,1-1.7
	C851.2,370.9,851.7,370.5,851.7,369.7z"/>
<path class="st21" d="M856.4,398c0.8,0.9,0.5,1.9,0.5,3C856.1,400.1,856.5,399,856.4,398z"/>
<path class="st76" d="M280.8,437.5c1,0.8,0.6,2,0.6,3c0,46.1,0,92.3,0,138.4c-3-8.5-4.7-17.2-6.5-26c-2.3-11.3-3-22.7-4.1-34.1
	c0-6.9-0.3-13.9,0.1-20.8c0.5-10.7,1.3-21.4,3.2-31.9c0.2-1,0.2-2.1,0.2-3.2c1.8-7.5,3.5-15,5.3-22.4
	C279.9,439.4,280.1,438.3,280.8,437.5z"/>
<path class="st77" d="M467.5,563c3.1-4,7.7-6.4,10.6-10.6c0.2-0.2,0.5-0.4,0.7-0.6c2.5,1.2,3.9,3.5,5.8,5.3
	c5.6,5.4,11,10.9,16.4,16.4c5.4,5.4,10.8,10.8,16.2,16.2c5.5,5.4,10.9,10.9,16.4,16.4c5.5,5.5,11.1,11.1,16.6,16.6
	c5.4,5.4,10.8,10.8,16.2,16.2c5.6,5.6,11.2,11.2,16.8,16.8c5.5,5.6,11.1,11,16.6,16.7c1.4,1.4,3.1,2.5,4.1,4.2
	c0.8,1.3,1,2.5-1.2,2.3c-3-0.2-6,0.3-9-0.3c-2.5,0-5.1,0-7.6,0c-1.3-0.7-2.8,0.1-4.1-0.5c-2.4-0.2-4.8,0-7.1-0.6
	c-6.4-1.4-12.9-1.3-19.2-3c-1-0.3-2.1-0.4-3.1-0.6c-6.7-1.7-13.4-3.4-20.1-5.2c-3.9-1.1-7.8-2.4-11.7-3.6c-5-2.1-9.9-4.1-14.9-6.2
	c-13.7-5.7-26.7-12.7-39.1-20.9c-2.4-1.6-5.2-2.6-7.4-4.7c-6.6-5.3-13.6-10.1-19.8-15.8c-4.5-4.1-9.1-8.3-13.6-12.4
	c-0.4-1.1,0.7-1.5,1.2-2c2.7-2.8,5.6-5.3,8.1-8.4c2.8-3.3,6.4-5.7,9.2-8.9c0.8-1,1.8-1.8,2.5-2.8c3.4-2.9,6.3-6.4,9.9-9
	C460.7,570.3,464.3,566.8,467.5,563z"/>
<path class="st78" d="M435.7,594.8c-2.9,3.7-6.5,6.7-9.8,10c-0.7,0.8-1.4,1.5-2.1,2.3c-1.6-0.2-1.7-1.4-1.9-2.6
	c-0.2-1.3-0.1-2.5-0.1-3.8c0-106.6,0-213.2,0-319.7c0-2-0.4-4.2,1-6c3.8-1.8,7.7-3.4,11.8-4.7c1.1,1.1,1,2.5,1,3.8
	c-0.2,105.8,0,211.7,0,317.5C435.6,592.6,435.3,593.7,435.7,594.8z"/>
<path class="st79" d="M422.8,275c0,109.5,0,218.9,0,328.4c0,1.3-0.5,2.8,1,3.8c-3.3,4.2-7.5,7.5-11.2,11.2c-1.5,0.4-1.6-0.8-1.8-1.7
	c-0.3-1.2-0.2-2.5-0.2-3.8c0-108.4,0-216.8,0-325.1c0-2.6-0.3-5.3,1.5-7.6C415.6,278,419.1,276.4,422.8,275z"/>
<path class="st80" d="M412.2,280.1c-1.2,10.7-0.5,21.3-0.5,32c-0.1,100.9,0,201.7,0,302.6c0,1.2-0.9,2.8,0.9,3.6
	c-0.4,0.6-0.8,1.1-1.2,1.7c-2.7,2.6-5.5,5.1-8.2,7.7c-2.6,0.1-2.3-2-2.4-3.4c-0.1-2.3,0.5-4.7,0.5-7c0-107.5,0-215,0-322.5
	c0-3.1-1.3-6.2,0.3-9.3c3.1-2.2,6.7-3.5,10-5.4C411.8,280.1,412,280.1,412.2,280.1z"/>
<path class="st81" d="M359,672.5c-1.3,1.3-2.7,2.7-4,4c-1.6,0.5-2.5,2-3.6,3.1c-0.8-1.2-0.4-2.5-0.4-3.7c0-114.9,0-229.8,0-344.7
	c0-2.6-0.3-5.1-1.2-7.5c0.2-0.4,0.4-0.7,0.6-1.1c3.1-2.7,6.3-5.4,9.4-8.2c1.2,0.8,1.4,2.1,1.5,3.4c0.1,1.4,0.1,2.7,0.1,4.1
	c0,112.6,0,225.1,0,337.7c0,3.5-0.4,7-0.6,10.6C360.2,670.9,359.6,671.7,359,672.5z"/>
<path class="st82" d="M401.6,285.5c0.2,2.7,0.6,5.4,0.6,8c0,108.3,0,216.7,0.1,325c0,2-0.7,3.8-0.6,5.8c0.1,1.4-0.1,2.8,1.6,3.4
	c-0.7,0.9-1.5,1.8-2.2,2.7c-2.6,2.4-5.2,4.8-7.7,7.2c-1.5-0.5-1.5-1.9-1.8-3.1c-0.3-1.6-0.2-3.3-0.2-5c0-109.8,0-219.7,0-329.5
	c0-3.2-0.5-6.5,1.5-9.4C395.4,288.5,398.5,287,401.6,285.5z"/>
<path class="st83" d="M392.8,290.7c-0.4,3.7-0.6,7.3-0.6,11c0,109.9,0,219.8,0,329.7c0,2.2,0.1,4.3,1,6.3c-0.8,1-1.6,2-2.4,2.9
	c-3.1,3-6.3,5.9-9.4,8.9c-1.5-0.2-1.5-1.4-1.5-2.4c0-1.7,0.1-3.3,0.1-5c0-110.5,0-221.1,0-331.6c0-2.1,0-4.1-0.3-6.2
	c-0.2-2-0.2-3.9,0.7-5.8c2.2-1.6,4.3-3.1,6.5-4.7C389.1,293.2,390.5,291.2,392.8,290.7z"/>
<path class="st84" d="M380.4,298.5c0.2,3,0.6,5.9,0.6,8.9c0,112.5,0,225,0.1,337.5c0,1.5-1.5,3.2,0.3,4.6c-0.8,1-1.6,1.9-2.4,2.9
	c-2.7,2.6-5.5,5.1-8.2,7.7c-1.8-0.8-1.9-2.4-1.7-4c0.5-4.8,0.3-9.6,0.3-14.4c0-109.9,0-219.8,0-329.7c0-2-0.4-4.2,0.9-6
	C373.4,303.1,377,300.9,380.4,298.5z"/>
<path class="st85" d="M370.4,306c0,1.1,0,2.2,0,3.2c0,114.1,0,228.2,0.1,342.3c0,2.8-1.7,5.8,0.4,8.5c-0.6,0.7-1.1,1.5-1.7,2.2
	c-2,2-4,4-6,6c-1.1,0.1-1.6,1.1-2.3,1.8c-0.7-0.9-1.2-1.9-0.9-3c1-4,0.5-8,0.5-12c0-111.9,0-223.9,0-335.8c0-1.7-0.1-3.3-0.6-4.9
	c3.2-2.8,6.3-5.5,9.5-8.3C369.7,306.1,370,306.1,370.4,306z"/>
<path class="st86" d="M536.6,494.1c2.9-2.9,6.1-5.5,8.6-8.9c-0.1-1.2,1-1.6,1.7-2.2c3.6-3.7,7.5-7.1,10.8-11.1
	c3.5-3.4,7.1-6.6,10.5-10.2c0.9-0.9,1.8-1.8,2.6-2.8c3-2.7,5.8-5.7,8.7-8.5c0.9-0.9,1.6-1.9,3-2.1c1.6,0.3,2.8,1.4,3.2,2.8
	c1.3,4,4.8,6.2,7.4,8.9c5.9,6.1,12,12.1,18,18.1c5.4,5.4,10.8,10.8,16.2,16.1c4,3.9,7.9,7.9,11.8,11.9c3.8,3.8,7.6,7.6,11.4,11.4
	c3.9,3.8,7.7,7.7,11.6,11.6c4,4,8,8,12,12c3.8,3.8,7.6,7.6,11.4,11.4c4,4,8,8,12,12c3.9,4,7.9,7.9,11.8,11.8
	c3.8,3.8,7.6,7.6,11.4,11.4c4,3.9,7.9,7.9,11.8,11.8c4.1,4,8.2,8.1,12.2,12.2c3.6,3.6,7.3,7.1,10.6,10.9c0.3,0.4,0.5,0.9,1,1.1
	c2.3,0.9,2,2.3,0.8,3.9c-1.4,1.2-2.8,2.3-4.2,3.5c-8.8,6.1-17.8,11.8-27.1,17.1c-7.7,3.7-15.3,7.4-23,11.1c-1.8,0.6-3.5,1.2-5.3,1.8
	c-1.5-2.6-3.6-4.6-5.7-6.7C642,604.3,591.7,554,541.4,503.7c-1.2-1.2-2.4-2.6-4-3.5c-1.9-1.1-3-2.3-1-4.3
	C536.9,495.4,537,494.7,536.6,494.1z"/>
<path class="st87" d="M536.6,494.1c1.8,0.9,1.3,2,0,2.8c-1.6,1-0.9,1.8,0.2,2.3c2.4,1.1,4,3.1,5.8,4.9
	c50.8,50.8,101.6,101.6,152.4,152.4c1.4,1.4,3,2.6,2.9,4.9c-7.9,2.8-15.7,5.5-23.6,8.3c-1.2,0.2-2.4,0.4-3.5,0.6
	c-1-0.5-1.7-0.2-2.3,0.6c-3.8,1.3-7.8,2.1-11.8,2.9c-0.7-1.8-2.1-3-3.4-4.4C607,623,560.7,576.7,514.4,530.4
	c-5.5-5.5-4.4-4.2,0.4-10.1c1.5-1.8,2.2-2.8,0.4-4.5c1.5-2.2,3.9-3.5,5.3-5.9c-0.2-1.3,0.8-2,1.6-2.7c3.8-3,6.8-7,11-9.7
	C534.4,496.6,535.6,495.4,536.6,494.1z"/>
<path class="st88" d="M636.6,394.4c-0.4,0.4-0.8,0.8-1.2,1.2c-1.4,2.8-2.4,3.3-4.5,2.5c-0.7-1.7-0.5-3.5-0.5-5.2
	c0-35.4,0-70.8,0-106.2c0-2-0.1-3.9-0.1-5.9c0-1.2,0-2.5,1.8-2.4c5.4,1.7,10.1,4.9,15.1,7.5c3.1,1.6,6.2,3.2,8.9,5.4
	c-1.3,24.1-0.3,48.3-0.5,72.4c0,3.4,0.7,6.7,1,10.1c-4.2,5.1-9.2,9.4-13.8,14.2c-1.7,1.8-3.4,3.5-5,5.3
	C637.7,393.9,637.3,394.3,636.6,394.4z"/>
<path class="st89" d="M631.8,398.6c1.2-1,2.4-2,3.6-2.9c2.2,2.4,5,4.2,7.2,6.7c2.3,2.6,4.9,5,7.4,7.4c4.1,4,8.2,8,12.3,12
	c1.9,1.9,3.8,3.9,5.7,5.8c4.5,4.5,9.2,8.9,13.5,13.6c3.7,3.9,7.6,7.5,11.2,11.4c3.8,4.2,8.2,7.7,12,11.8c2.1,2.2,4.3,4.2,6.3,6.4
	c2.2,2.4,4.6,4.7,6.9,7.1c2.4,2.5,4.9,4.9,7.4,7.4c2.2,2.2,4.4,4.4,6.6,6.6c4.2,4.2,8.3,8.4,12.5,12.5c4,3.9,8.2,7.7,12.1,11.8
	c2,2.1,4.1,4.1,6.2,6.2c2.4,2.4,4.7,4.9,7.1,7.3c2.5,2.6,5,5.1,7.6,7.6c2.4,2.4,4.9,4.7,7.4,7c2,1.9,3.8,3.8,5.8,5.8
	c4.5,4.5,9.2,8.9,13.5,13.6c2.6,2.7,6,4.7,7.7,8.3c-2.6,4.2-5.8,8.1-8.8,12c-0.6,0.8-1.2,1.7-1.8,2.6c-6.5,7.1-13,14.1-19.5,21.2
	c-7.1,6.2-13.9,12.7-21.5,18.4c-0.8,0.6-1.8,1.2-2.6,1.8c0.2-1.4,0.6-2.5-1.5-3.5c-1.3-0.6-2.5-2.7-3.8-4.1
	c-4.4-4.7-9.1-9-13.5-13.6c-3.7-3.9-7.6-7.5-11.2-11.4c-3.8-4.1-8.1-7.8-12-11.8c-2-2.1-4.1-4.1-6.2-6.2c-2.4-2.4-4.7-4.9-7.1-7.3
	c-2.5-2.6-5-5.1-7.6-7.6c-4.1-4-8.3-7.9-12.3-12c-1.8-1.9-3.7-3.7-5.6-5.6c-4.5-4.6-9.1-9-13.5-13.6c-3.7-3.9-7.6-7.5-11.2-11.4
	c-3.8-4.1-8.2-7.7-12-11.8c-2-2.1-4.1-4.1-6.2-6.2c-2.4-2.4-4.7-4.9-7.1-7.3c-2.4-2.5-4.9-4.9-7.4-7.4c-4.1-4-8.2-8-12.3-12
	c-1.9-1.9-3.8-3.9-5.7-5.8c-4.5-4.5-8.8-9.2-13.7-13.5c-0.9-0.8-1.5-1.9-1.8-3c-0.6-1.9-1.8-3.2-3.4-4.2c-0.1-1.6,1.3-2.3,2.1-3.2
	c1.5-1.6,3.2-3,4.5-4.8c5.4-5.2,10.8-10.4,16.1-15.8c1.2-1.2,2.4-2.3,3.4-3.7c5.7-5.4,11.2-10.9,16.8-16.4
	C627.3,402.6,629.2,400.1,631.8,398.6z"/>
<path class="st39" d="M862.1,546.1c-0.2,0.2-0.4,0.5-0.6,0.6c-0.4,0.1-0.7-0.2-0.7-0.6c0-0.2,0.4-0.5,0.6-0.5
	C861.6,545.6,861.8,545.9,862.1,546.1z"/>
<path class="st90" d="M515.2,515.8c1.3,0.1,2.2,0.8,2.4,2.2c0.2,1.3-0.9,1.8-1.7,2.1c-2.2,1-2.3,3.9-4.4,5c-0.5,0.3-0.2,1.1,0.2,1.5
	c0.7,0.7,1.4,1.4,2.1,2.1c47.1,47.1,94.2,94.2,141.3,141.4c0.9,0.9,2.8,1.5,1.6,3.5c-1.2,0.3-2.4,0.5-3.6,0.8
	c-8.4,1.4-16.8,2.8-25.3,3.5c-2.6,0.2-5.1,0.4-7.7,0.6c-2.3,0.7-4.7-0.3-7.1,0.5c-1.4,0-2.7,0-4.1,0c-5.1,0-10.2,0-15.3-0.1
	c0-0.2,0-0.3-0.1-0.5c2.7,0,5.5,0,8.2,0c0.6,0,1.5,0.4,1.9-0.3c0.3-0.7-0.3-1.3-0.7-1.8c-3.7-3.7-7.4-7.4-11.1-11.1
	c-3.8-3.8-7.7-7.7-11.5-11.5c-4-4-8-8-11.9-12c-3.9-3.9-7.8-7.8-11.7-11.7c-4.1-4.1-8.3-8.2-12.5-12.3c-3.6-3.5-7.1-7.1-10.7-10.7
	c-4.3-4.3-8.7-8.6-13-13c-3.6-3.6-7.2-7.3-10.8-11c-4.1-4.1-8.2-8.2-12.4-12.4c-3.8-3.8-7.6-7.5-11.2-11.3c-2.5-2.6-5.7-4.5-7.4-7.8
	c3.5-3.1,6.9-6.3,9.9-10c3.7-3,6.9-6.5,10.2-10c3.5-3.5,7.1-7.1,10.6-10.6C511.4,519.4,513.3,517.6,515.2,515.8z"/>
<path class="st90" d="M668.5,670.8c0.1-0.7-0.4-1.7,0.5-2c1-0.3,1.4,0.7,1.8,1.4C670.1,670.6,669.3,670.9,668.5,670.8z"/>
<path class="st47" d="M613.1,679c2.3-1.1,4.7-0.3,7.1-0.5C617.9,679.6,615.4,678.8,613.1,679z"/>
<path class="st37" d="M581.9,677.9c1.4,0.1,2.8-0.5,4.1,0.5C584.7,678.2,583.2,678.9,581.9,677.9z"/>
<path class="st91" d="M435.7,594.8c-0.7-0.1-1-0.5-1-1.2c0-1,0-2,0-2.9c0-104.5,0-208.9,0-313.4c0-2.3,0-4.7,0-7
	c1.2-0.6,2.4-1.1,3.6-1.7c2.7-0.8,5.5-1.6,8.2-2.4c0.8,1.1,0.8,2.4,0.9,3.7c0.1,1.7,0.1,3.3,0.1,5c0,101.8,0,203.5,0,305.3
	c0,1-0.3,2,0.1,2.9c-2.9,3.5-6,6.7-9.6,9.5C437,593.1,436.4,594,435.7,594.8z"/>
<path class="st92" d="M447.4,583c-0.7-0.1-1-0.5-1-1.2c0-1,0-2,0-2.9c0-102.3,0-204.7,0.1-307c0-1.9-0.9-3.8-0.1-5.7
	c3.1-1,6.3-1.9,9.4-2.9c0,102.4,0,204.7,0,307.1c0,1.1-0.8,2.7,1,3.3C454.2,577.2,450.6,579.9,447.4,583z"/>
<path class="st93" d="M589.4,441c-1.9,3-5,4.8-7,7.6c-4,3.3-7.1,7.5-11.2,10.6c-1.3-0.3-1.2-1.4-1.3-2.3c-0.2-1.2-0.1-2.4-0.1-3.5
	c0-63.1,0-126.2,0-189.3c0-1.9-0.5-4,0.9-5.6c5,0.5,9.9,1.9,14.8,3.1c0.9,0.2,1.9,0.5,2.8,0.5c0,0.2,0.1,0.3,0.1,0.5
	c1,0.7,1.2,1.7,1.1,2.9c-0.4,9.3-0.2,18.6-0.2,28c0,45.2,0,90.5,0,135.7C589.3,433,590,437,589.4,441z"/>
<path class="st94" d="M589.4,441c-1.9-2.4-0.9-5.3-0.9-7.8c-0.2-55.3-0.1-110.6-0.2-165.9c0-1.6,1.2-3.2,0.1-4.8
	c6.3,1.3,12.5,3.3,18.6,5.4c0.9,0.3,1.8,0.8,2.7,1.1c-0.6,23.4-0.2,46.9-0.2,70.3c-0.1,25.5,0,51,0,76.5c0,2-0.1,3.9-0.5,5.8
	c-4.7,5.6-10.2,10.6-15.4,15.7C592.1,438.5,590.7,439.6,589.4,441z"/>
<path class="st95" d="M608.9,421.6c-0.8-0.9-0.5-2.1-0.5-3.1c0-48.6,0-97.2,0-145.8c0-1.3-0.5-2.8,1.2-3.6
	c7.7,2.5,15.3,5.5,22.5,9.4c-0.6,0.3-1.1,0.7-1.1,1.5c0.9,38.4,0.1,76.8,0.4,115.3c0,1.1-0.4,2.4,0.5,3.4
	c-6,6.8-12.6,13.1-19.2,19.4C611.4,419.1,610.1,420.3,608.9,421.6z"/>
<path class="st96" d="M558.2,472.2c-4,4.6-8.3,8.9-13,12.9c-1.4-1.4-1.1-3.1-1.1-4.7c0-75.2,0-150.4,0-225.6
	c5.2,0,10.3,0.7,15.4,1.7c-1.7,1.9-1.4,4.2-1.4,6.4c0,48.3,0,96.5,0,144.8c0,21.3,0.1,42.6,0,63.9
	C558.1,471.9,558.1,472.1,558.2,472.2z"/>
<path class="st97" d="M558.2,472.2c-1.7-0.5-1-1.9-1-3c0-18.4,0-36.9,0-55.3c0-51.3,0-102.6,0-153.9c0-1.7-0.6-3.8,2.4-3.5
	c1,0,1.9,0,2.9,0c2.7,0.6,5.5,1.2,8.2,1.8c0,65.7,0,131.4,0,197.1c0,1.2-0.4,2.6,0.4,3.7c-3.1,3.9-6.8,7.3-10.5,10.6
	C559.8,470.6,558.9,471.3,558.2,472.2z"/>
<path class="st98" d="M533,497.6c-3.7,4.6-8.7,7.9-12.5,12.3c-1.5-0.9-1-2.4-1-3.7c0-18.6,0-37.3,0-55.9c0-64.1,0-128.1,0-192.2
	c0-3.8,0-3.8,3.8-3.8c2.8,0,5.7,0,8.5,0c0,79.9,0,159.7,0.1,239.6C531.9,495.1,530.8,496.9,533,497.6z"/>
<path class="st89" d="M636.6,394.4c0.4-0.4,0.7-0.7,1.1-1.1c0.6,0.4,0.9,1,0.2,1.6C637.5,395.2,637,394.9,636.6,394.4z"/>
<path class="st86" d="M589,450.3c-0.8,0-1.1-0.3-1.1-0.9c0-0.5,0-1,0.6-1.1c0.5,0,0.8,0.4,1,0.9C589.5,449.8,589.2,450.1,589,450.3z
	"/>
</svg>
