<svg xmlns="http://www.w3.org/2000/svg" xmlns:xlink="http://www.w3.org/1999/xlink" version="1.1" id="Layer_1" x="0px" y="0px" viewBox="0 0 666 548.4" style="enable-background:new 0 0 666 548.4;" xml:space="preserve">
<style type="text/css">
	.st0{fill:url(#Subtraction_1_00000128471606306514043010000017680346868862123966_);}
	.st1{fill:url(#Subtraction_3_00000015339551811297078520000003189039422654359182_);}
	.st2{fill:url(#Subtraction_2_00000146472202561610182760000012250420471900061867_);}
	.st3{fill:#E63316;}
	.st4{fill:#575756;}
</style>
<g id="Group_10349" transform="translate(857.261 2382)">
	
		<linearGradient id="Subtraction_1_00000078015788860138925720000012180898481442195133_" gradientUnits="userSpaceOnUse" x1="-3556.3022" y1="-2051.7188" x2="-3555.9099" y2="-2051.5435" gradientTransform="matrix(286.6259 0 0 -286.6199 1018682.8125 -590307.625)">
		<stop offset="0" style="stop-color:#CC2073"/>
		<stop offset="1" style="stop-color:#66103A"/>
	</linearGradient>
	<path id="Subtraction_1" style="fill:url(#Subtraction_1_00000078015788860138925720000012180898481442195133_);" d="   M-698.6-2095.4L-698.6-2095.4c-3.8-3.8-7.5-7.8-11-11.9s-6.7-8.5-9.8-12.9c-3-4.5-5.9-9.1-8.5-13.9c-2.6-4.8-5-9.7-7.2-14.7   s-4.1-10.3-5.7-15.5c-1.7-5.3-3.1-10.7-4.2-16.2c-1.1-5.5-2-11.1-2.6-16.8c-1.2-11.4-1.2-22.9,0-34.4c0.6-5.6,1.4-11.1,2.5-16.6   c1.1-5.4,2.5-10.8,4.1-16.1c1.6-5.2,3.5-10.4,5.6-15.4s4.5-9.9,7.1-14.6c2.6-4.7,5.4-9.4,8.4-13.8c3-4.4,6.2-8.8,9.6-12.9   s7-8.1,10.8-11.9c3.8-3.8,7.8-7.4,11.9-10.8s8.5-6.6,12.9-9.6c4.5-3,9.1-5.8,13.8-8.4c4.7-2.6,9.7-5,14.6-7.1   c5-2.1,10.2-4,15.4-5.6c5.3-1.6,10.7-3,16.1-4.1c5.5-1.1,11-2,16.6-2.5c11.4-1.2,23-1.2,34.4,0c5.6,0.6,11.2,1.4,16.8,2.6   c5.4,1.1,10.9,2.5,16.2,4.2c5.2,1.6,10.4,3.6,15.5,5.7c5,2.1,10,4.5,14.7,7.2c4.7,2.6,9.4,5.5,13.9,8.5c4.4,3,8.8,6.3,12.9,9.8   s8.1,7.1,11.9,11L-698.6-2095.4z"/>
	
		<linearGradient id="Subtraction_3_00000013195000307851163160000014814692088427300737_" gradientUnits="userSpaceOnUse" x1="-3554.863" y1="-2052.0298" x2="-3555.4465" y2="-2052.2327" gradientTransform="matrix(233.1467 0 0 -233.1413 828292.5625 -480704.9688)">
		<stop offset="0" style="stop-color:#38245D"/>
		<stop offset="1" style="stop-color:#881C5C"/>
	</linearGradient>
	<path id="Subtraction_3" style="fill:url(#Subtraction_3_00000013195000307851163160000014814692088427300737_);" d="   M-654.4-2138.7L-654.4-2138.7c-3.1-3.1-6.1-6.3-8.9-9.7s-5.5-6.9-8-10.5s-4.8-7.4-6.9-11.3c-2.1-3.9-4.1-7.9-5.8-12   c-1.8-4.1-3.3-8.3-4.6-12.6s-2.5-8.7-3.4-13.1c-0.9-4.5-1.6-9.1-2.1-13.6c-0.9-9.3-1-18.7,0-28c0.5-4.5,1.2-9.1,2.1-13.5   c0.9-4.4,2-8.8,3.4-13.1c1.3-4.2,2.9-8.4,4.6-12.5c1.7-4,3.6-8,5.7-11.9c2.1-3.8,4.4-7.6,6.8-11.2c2.4-3.6,5.1-7.1,7.8-10.5   c2.7-3.4,5.7-6.6,8.8-9.7c3.1-3.1,6.3-6,9.7-8.8s6.9-5.4,10.5-7.8c3.6-2.4,7.4-4.7,11.2-6.8c3.9-2.1,7.9-4,11.9-5.7   c4.1-1.7,8.3-3.3,12.5-4.6c4.3-1.3,8.7-2.5,13.1-3.4c4.5-0.9,9-1.6,13.5-2.1c9.3-0.9,18.7-0.9,28,0c4.6,0.5,9.1,1.2,13.6,2.1   c4.4,0.9,8.8,2.1,13.1,3.4c4.3,1.3,8.5,2.9,12.6,4.6c4.1,1.7,8.1,3.7,12,5.8s7.7,4.4,11.3,6.9c3.6,2.5,7.2,5.1,10.5,8   c3.4,2.8,6.6,5.8,9.7,8.9L-654.4-2138.7z"/>
	
		<linearGradient id="Subtraction_2_00000016763610497019087950000004313365889097995434_" gradientUnits="userSpaceOnUse" x1="-3562.5586" y1="-2054.396" x2="-3562.6116" y2="-2053.8071" gradientTransform="matrix(1.735667e-14 -283.456 -286.62 -1.755041e-14 -589286.1875 -1012061.6875)">
		<stop offset="0" style="stop-color:#F7AE33"/>
		<stop offset="1" style="stop-color:#E73F2B"/>
	</linearGradient>
	<path id="Subtraction_2" style="fill:url(#Subtraction_2_00000016763610497019087950000004313365889097995434_);" d="   M-368.3-2255.6c0,5.7-0.3,11.3-0.9,16.9c-1.1,11-3.4,21.8-6.7,32.3c-1.6,5.1-3.5,10.3-5.6,15.2s-4.5,9.8-7.1,14.5   s-5.4,9.3-8.4,13.7s-6.2,8.7-9.6,12.8c-3.4,4.1-7,8-10.8,11.8c-3.8,3.7-7.8,7.3-11.9,10.7s-8.5,6.6-12.9,9.5   c-4.5,3-9.1,5.8-13.8,8.3c-4.7,2.6-9.7,4.9-14.6,7c-5,2.1-10.2,4-15.4,5.6c-5.3,1.6-10.7,3-16.1,4.1c-5.5,1.1-11.1,1.9-16.6,2.5   c-5.7,0.6-11.4,0.9-17.1,0.9c-5.8,0-11.5-0.3-17.3-0.9c-5.6-0.6-11.2-1.4-16.8-2.5c-5.4-1.1-10.9-2.5-16.2-4.1   c-5.2-1.6-10.4-3.5-15.5-5.7c-5-2.1-10-4.5-14.7-7.1s-9.4-5.4-13.9-8.4c-4.4-3-8.8-6.3-12.9-9.7c-4.1-3.4-8.1-7.1-11.9-10.8   l236.9-234.2c3.8,3.7,7.5,7.7,11,11.8c3.4,4.1,6.7,8.4,9.8,12.8c3,4.4,5.9,9,8.5,13.7s5,9.6,7.2,14.6c2.2,5,4.1,10.1,5.7,15.3   c3.4,10.6,5.6,21.5,6.8,32.6C-368.6-2267-368.3-2261.3-368.3-2255.6z"/>
	<path id="Subtraction_4" class="st3" d="M-612.2-2183L-612.2-2183c3.1,3.1,6.3,6.1,9.7,8.9s6.9,5.5,10.5,8   c3.6,2.5,7.4,4.8,11.3,6.9c3.9,2.1,7.9,4.1,12,5.8c4.1,1.8,8.3,3.3,12.6,4.6c4.3,1.3,8.7,2.5,13.1,3.4c4.5,0.9,9.1,1.6,13.6,2.1   c9.3,0.9,18.7,1,28,0c4.5-0.5,9.1-1.1,13.5-2.1c4.4-0.9,8.8-2,13.1-3.4c4.2-1.3,8.4-2.9,12.5-4.6c4-1.7,8-3.6,11.9-5.7   c3.8-2.1,7.6-4.4,11.2-6.8c3.6-2.4,7.1-5.1,10.5-7.8c3.4-2.8,6.6-5.7,9.7-8.8s6-6.3,8.8-9.7c2.8-3.3,5.4-6.9,7.8-10.5   c2.4-3.6,4.7-7.4,6.8-11.2c2.1-3.9,4-7.9,5.7-11.9c1.7-4.1,3.3-8.3,4.6-12.5c1.3-4.3,2.5-8.7,3.4-13.1c0.9-4.5,1.6-9,2.1-13.5   c0.9-9.3,0.9-18.7,0-28c-0.5-4.6-1.2-9.1-2.1-13.6c-0.9-4.4-2.1-8.8-3.4-13.1c-1.3-4.3-2.9-8.5-4.6-12.6s-3.7-8.1-5.8-12   s-4.4-7.7-6.9-11.3s-5.1-7.2-8-10.5c-2.8-3.4-5.8-6.6-8.9-9.7L-612.2-2183z"/>
	<path id="Path_10792" class="st4" d="M-579.1-1848.1l-6.2-15.5c0,0-1.8,2-6.9,2c-5.1,0-6.5-4.8-6.5-10.7v-46.8   c0-30.7-15.6-48.1-46-48.1c-27.4,0-44.1,18.3-46.8,22.1c-6.7-14.3-20.4-22.1-40.6-22.1c-24.5,0-40.3,14.5-44.9,19.4v-18.3   l-35.5,9.4v119.2h35.5v-83.9c5.1-4.6,16.9-14,32.8-14c15.3,0,22.6,7,22.6,26.6v71.3h35.5v-80.4c0-2-0.2-4-0.5-5.9   c6.2-4.8,16.7-11.6,30.1-11.6c15.3,0,22.3,7,22.3,26.6v41.4c0,20.7,7.3,31.5,29.9,31.5C-586.4-1836-579.1-1848.1-579.1-1848.1z    M-532.3-2005.2c0-12.4-9.1-21-22.1-21c-13.2,0-22.3,8.6-22.3,21s9.1,21,22.3,21C-541.4-1984.2-532.3-1992.8-532.3-2005.2   L-532.3-2005.2z M-572.1-1837.6h35.5v-125.9h-35.5V-1837.6z M-417.7-1844.3l-10-28c0,0-9.1,6.7-24.7,6.7   c-13.4,0-18.8-5.6-18.8-19.4v-48.4h44.9v-30.4h-44.9v-37.9l-35.5,9.4v112.4c0,33.1,18.6,46.3,48.1,46.3   C-433.6-1833.6-417.7-1844.3-417.7-1844.3L-417.7-1844.3z M-372.5-2005.2c0-12.4-9.1-21-22.1-21c-13.2,0-22.3,8.6-22.3,21   s9.1,21,22.3,21C-381.7-1984.2-372.5-1992.8-372.5-2005.2L-372.5-2005.2z M-412.3-1837.6h35.5v-125.9h-35.5V-1837.6z    M-329.7-1892.2h95.5c0,0,2.7-7.3,2.7-18.8c0-21.8-16.4-56.2-62.9-56.2c-47.9,0-70.5,30.4-70.5,66.4c0,36.3,23.1,67.2,71.8,67.2   c33.6,0,55.4-18.3,55.4-18.3l-10.5-22.6c0,0-15.3,11.8-42.5,11.8C-314.4-1862.6-326.8-1874.7-329.7-1892.2z M-264.1-1911.6H-330   c3-17.2,14.8-28.8,35.2-28.8s30.1,11.3,30.7,27.4V-1911.6z"/>
</g>
</svg>