<svg width="33" height="33" viewBox="0 0 33 33" fill="none" xmlns="http://www.w3.org/2000/svg">
<mask id="mask0_7892_1063" style="mask-type:alpha" maskUnits="userSpaceOnUse" x="0" y="0" width="33" height="33">
<rect x="0.00195312" y="0.826172" width="32" height="32" fill="#D9D9D9"/>
</mask>
<g mask="url(#mask0_7892_1063)">
<path d="M8.0026 26.1596C6.89149 26.1596 5.94705 25.7707 5.16927 24.9929C4.39149 24.2151 4.0026 23.2707 4.0026 22.1596H1.33594V10.1596C1.33594 9.42625 1.59705 8.79848 2.11927 8.27625C2.64149 7.75403 3.26927 7.49292 4.0026 7.49292H22.6693L30.6693 15.4929V22.1596H28.0026C28.0026 23.2707 27.6137 24.2151 26.8359 24.9929C26.0582 25.7707 25.1137 26.1596 24.0026 26.1596C22.8915 26.1596 21.9471 25.7707 21.1693 24.9929C20.3915 24.2151 20.0026 23.2707 20.0026 22.1596H12.0026C12.0026 23.2707 11.6137 24.2151 10.8359 24.9929C10.0582 25.7707 9.11372 26.1596 8.0026 26.1596ZM20.0026 14.1596H25.3359L21.3359 10.1596H20.0026V14.1596ZM12.0026 14.1596H17.3359V10.1596H12.0026V14.1596ZM4.0026 14.1596H9.33594V10.1596H4.0026V14.1596ZM8.0026 23.8263C8.46927 23.8263 8.86372 23.6651 9.18594 23.3429C9.50816 23.0207 9.66927 22.6263 9.66927 22.1596C9.66927 21.6929 9.50816 21.2985 9.18594 20.9763C8.86372 20.654 8.46927 20.4929 8.0026 20.4929C7.53594 20.4929 7.14149 20.654 6.81927 20.9763C6.49705 21.2985 6.33594 21.6929 6.33594 22.1596C6.33594 22.6263 6.49705 23.0207 6.81927 23.3429C7.14149 23.6651 7.53594 23.8263 8.0026 23.8263ZM24.0026 23.8263C24.4693 23.8263 24.8637 23.6651 25.1859 23.3429C25.5082 23.0207 25.6693 22.6263 25.6693 22.1596C25.6693 21.6929 25.5082 21.2985 25.1859 20.9763C24.8637 20.654 24.4693 20.4929 24.0026 20.4929C23.5359 20.4929 23.1415 20.654 22.8193 20.9763C22.4971 21.2985 22.3359 21.6929 22.3359 22.1596C22.3359 22.6263 22.4971 23.0207 22.8193 23.3429C23.1415 23.6651 23.5359 23.8263 24.0026 23.8263ZM4.0026 19.4929H5.06927C5.44705 19.0929 5.88038 18.7707 6.36927 18.5263C6.85816 18.2818 7.4026 18.1596 8.0026 18.1596C8.6026 18.1596 9.14705 18.2818 9.63594 18.5263C10.1248 18.7707 10.5582 19.0929 10.9359 19.4929H21.0693C21.4471 19.0929 21.8804 18.7707 22.3693 18.5263C22.8582 18.2818 23.4026 18.1596 24.0026 18.1596C24.6026 18.1596 25.147 18.2818 25.6359 18.5263C26.1248 18.7707 26.5582 19.0929 26.9359 19.4929H28.0026V16.8263H4.0026V19.4929Z" fill="#5E5E5E"/>
</g>
</svg>
