<svg xmlns="http://www.w3.org/2000/svg" xmlns:xlink="http://www.w3.org/1999/xlink" width="20" height="20" viewBox="0 0 20 20">
    <defs>
        <path id="6yhe53h7ia" d="M10 14.167c1.38 0 2.5 1.119 2.5 2.5 0 1.38-1.12 2.5-2.5 2.5s-2.5-1.12-2.5-2.5c0-1.381 1.12-2.5 2.5-2.5zm0 1.666c-.46 0-.833.373-.833.834 0 .46.373.833.833.833.46 0 .833-.373.833-.833 0-.46-.373-.834-.833-.834zM10 7.5c1.38 0 2.5 1.12 2.5 2.5s-1.12 2.5-2.5 2.5-2.5-1.12-2.5-2.5S8.62 7.5 10 7.5zm0 1.667c-.46 0-.833.373-.833.833 0 .46.373.833.833.833.46 0 .833-.373.833-.833 0-.46-.373-.833-.833-.833zm0-8.334c1.38 0 2.5 1.12 2.5 2.5 0 1.381-1.12 2.5-2.5 2.5s-2.5-1.119-2.5-2.5c0-1.38 1.12-2.5 2.5-2.5zM10 2.5c-.46 0-.833.373-.833.833 0 .46.373.834.833.834.46 0 .833-.373.833-.834 0-.46-.373-.833-.833-.833z"/>
    </defs>
    <g fill="none" fill-rule="evenodd">
        <g>
            <g>
                <g>
                    <g transform="translate(-1329.000000, -300.000000) translate(289.000000, 283.000000) translate(32.000000, 16.000000) translate(1008.000000, 1.000000)">
                        <mask id="pjw9o628fb" fill="#fff">
                            <use xlink:href="#6yhe53h7ia"/>
                        </mask>
                        <use fill="#000" xlink:href="#6yhe53h7ia"/>
                        <g fill="#000" mask="url(#pjw9o628fb)">
                            <path d="M0 0H20V20H0z"/>
                        </g>
                    </g>
                </g>
            </g>
        </g>
    </g>
</svg>
