<svg width="18" height="18" viewBox="0 0 18 18" fill="none" xmlns="http://www.w3.org/2000/svg">
<path d="M11 3.5C11 4.32843 10.3284 5 9.5 5C8.67157 5 8 4.32843 8 3.5C8 2.67157 8.67157 2 9.5 2C10.3284 2 11 2.67157 11 3.5Z" fill="#242429"/>
<path d="M11 8.5C11 9.32843 10.3284 10 9.5 10C8.67157 10 8 9.32843 8 8.5C8 7.67157 8.67157 7 9.5 7C10.3284 7 11 7.67157 11 8.5Z" fill="#242429"/>
<path d="M11 13.5C11 14.3284 10.3284 15 9.5 15C8.67157 15 8 14.3284 8 13.5C8 12.6716 8.67157 12 9.5 12C10.3284 12 11 12.6716 11 13.5Z" fill="#242429"/>
</svg>
