<svg width="115" height="115" viewBox="0 0 115 115" xmlns="http://www.w3.org/2000/svg">
    <g fill="#CFCFCF" fill-rule="nonzero">
        <path d="M107.818 29h-7.182v43c0 3.956-3.217 7.167-7.181 7.167H49.128L36 93.5h35.91L93.454 115V93.5h14.363c3.965 0 7.182-3.21 7.182-7.167V36.167c0-3.956-3.217-7.167-7.182-7.167z"/>
        <path d="M7.167 0h71.666A7.17 7.17 0 0 1 86 7.167v50.166a7.17 7.17 0 0 1-7.167 7.167H43L21.5 86V64.5H7.167A7.17 7.17 0 0 1 0 57.333V7.167A7.17 7.17 0 0 1 7.167 0z"/>
    </g>
</svg>
