<svg width="154" height="154" viewBox="0 0 154 154" fill="none" xmlns="http://www.w3.org/2000/svg">
<rect width="154" height="154" fill="white"/>
<path fill-rule="evenodd" clip-rule="evenodd" d="M60.0921 13.8056C52.6018 13.8056 46.5297 19.849 46.5297 27.3041V64.1479H45.0371V27.3041C45.0371 19.0286 51.7775 12.3202 60.0921 12.3202H131.636C139.951 12.3202 146.691 19.0286 146.691 27.3041V126.991C146.691 135.266 139.951 141.975 131.636 141.975H92.1885V140.489H131.636C139.127 140.489 145.199 134.446 145.199 126.991V27.3041C145.199 19.849 139.127 13.8056 131.636 13.8056H60.0921Z" fill="#E1E4E5"/>
<path fill-rule="evenodd" clip-rule="evenodd" d="M93.5283 30.36C93.5283 29.0935 94.5599 28.0668 95.8324 28.0668H123.907C125.179 28.0668 126.211 29.0935 126.211 30.36C126.211 31.6264 125.179 32.6531 123.907 32.6531H95.8324C94.5599 32.6531 93.5283 31.6264 93.5283 30.36ZM93.5283 47.8231C93.5283 46.5567 94.5599 45.53 95.8324 45.53H123.907C125.179 45.53 126.211 46.5567 126.211 47.8231C126.211 49.0896 125.179 50.1163 123.907 50.1163H95.8324C94.5599 50.1163 93.5283 49.0896 93.5283 47.8231ZM93.5283 65.1199C93.5283 63.8534 94.5599 62.8268 95.8324 62.8268H123.907C125.179 62.8268 126.211 63.8534 126.211 65.1199C126.211 66.3864 125.179 67.413 123.907 67.413H95.8324C94.5599 67.413 93.5283 66.3864 93.5283 65.1199ZM93.5283 82.7495C93.5283 81.483 94.5599 80.4563 95.8324 80.4563H123.907C125.179 80.4563 126.211 81.483 126.211 82.7495C126.211 84.016 125.179 85.0426 123.907 85.0426H95.8324C94.5599 85.0426 93.5283 84.016 93.5283 82.7495ZM93.5283 100.047C93.5283 98.7801 94.5599 97.7534 95.8324 97.7534H123.907C125.179 97.7534 126.211 98.7801 126.211 100.047C126.211 101.313 125.179 102.34 123.907 102.34H95.8324C94.5599 102.34 93.5283 101.313 93.5283 100.047ZM93.5283 117.676C93.5283 116.41 94.5599 115.383 95.8324 115.383H123.907C125.179 115.383 126.211 116.41 126.211 117.676C126.211 118.943 125.179 119.969 123.907 119.969H95.8324C94.5599 119.969 93.5283 118.943 93.5283 117.676Z" fill="#E1E4E5"/>
<path d="M86.4054 43.142C86.4054 34.5282 79.3892 27.5453 70.7344 27.5453C62.0796 27.5453 55.0635 34.5282 55.0635 43.142C55.0635 51.7558 62.0796 58.7387 70.7344 58.7387C79.3892 58.7387 86.4054 51.7558 86.4054 43.142Z" fill="#CFCFCF"/>
<path fill-rule="evenodd" clip-rule="evenodd" d="M76.9393 39.2467C77.5453 39.857 77.5395 40.8406 76.9263 41.4438L70.093 48.1649C69.4849 48.763 68.5065 48.763 67.8985 48.1649L63.7987 44.1323C63.1855 43.5291 63.1797 42.5455 63.7857 41.9352C64.3917 41.3249 65.38 41.3192 65.9932 41.9223L68.9957 44.8756L74.7318 39.2337C75.345 38.6306 76.3333 38.6364 76.9393 39.2467Z" fill="white"/>
<path fill-rule="evenodd" clip-rule="evenodd" d="M28.4668 81.2026C28.4668 75.4541 33.151 70.8029 38.926 70.8029H55.923C61.6982 70.8029 66.3825 75.454 66.3825 81.2026V88.9737C66.3825 90.4254 65.2 91.6022 63.7414 91.6022C62.2828 91.6022 61.1003 90.4254 61.1003 88.9737V81.2026C61.1003 78.364 58.7875 76.0601 55.923 76.0601H38.926C36.0619 76.0601 33.749 78.3639 33.749 81.2026V88.9737C33.749 90.4254 32.5665 91.6022 31.1079 91.6022C29.6493 91.6022 28.4668 90.4254 28.4668 88.9737V81.2026Z" fill="#CFCFCF"/>
<path fill-rule="evenodd" clip-rule="evenodd" d="M74.7713 139.609H19.9815C15.6568 139.609 12.1543 136.123 12.1543 131.819V104.93L32.8314 118.511L32.8335 118.512C34.6735 119.721 36.7711 120.488 38.9603 120.751C40.6531 123.341 43.5866 125.053 46.9219 125.053H47.5149C50.8345 125.053 53.7558 123.357 55.4523 120.788C57.7624 120.566 59.9827 119.785 61.9193 118.512L61.9214 118.511L82.5985 104.93V131.819C82.5985 136.123 79.096 139.609 74.7713 139.609ZM39.5915 109.606C41.3323 107.502 43.9696 106.16 46.9219 106.16H47.5149C50.5046 106.16 53.1713 107.536 54.9109 109.686C55.2261 109.6 55.5256 109.464 55.7983 109.285L55.8004 109.284L81.3333 92.5142C79.9369 90.3823 77.5203 88.9739 74.7713 88.9739H19.9815C17.2325 88.9739 14.8156 90.3823 13.4195 92.5145L38.9521 109.284L38.9542 109.285C39.1545 109.416 39.3685 109.524 39.5915 109.606Z" fill="#CFCFCF"/>
<path d="M12.1546 104.93L13.6092 102.737C13.2112 102.475 12.7493 102.326 12.2728 102.304C11.7962 102.283 11.3228 102.39 10.9027 102.615C10.4826 102.84 10.1317 103.174 9.88709 103.582C9.64251 103.99 9.51347 104.456 9.51367 104.93H12.1546ZM32.8317 118.51L34.2872 116.317L34.2863 116.316L32.8317 118.51ZM32.8338 118.512L31.3783 120.705H31.3786L32.8338 118.512ZM38.9606 120.751L41.1745 119.318C40.964 118.996 40.6851 118.724 40.3574 118.521C40.0298 118.317 39.6613 118.188 39.278 118.142L38.9606 120.751ZM55.4526 120.788L55.1986 118.172C54.8057 118.21 54.4263 118.335 54.0883 118.538C53.7504 118.741 53.4624 119.016 53.2457 119.345L55.4526 120.788ZM61.9196 118.512L63.3748 120.705L63.376 120.704L61.9196 118.512ZM61.9217 118.51L60.4671 116.316L60.465 116.318L61.9217 118.51ZM82.5988 104.93H85.2397C85.2398 104.455 85.1106 103.99 84.866 103.582C84.6213 103.175 84.2704 102.841 83.8504 102.616C83.4304 102.391 82.9571 102.283 82.4806 102.304C82.0041 102.326 81.5423 102.475 81.1442 102.736L82.5988 104.93ZM39.5918 109.606L38.6774 112.072C39.1917 112.261 39.7522 112.286 40.2814 112.143C40.8105 112.001 41.282 111.698 41.6304 111.277L39.5918 109.606ZM54.9112 109.686L52.8545 111.335C53.1775 111.734 53.6107 112.03 54.1009 112.188C54.591 112.345 55.1167 112.356 55.6132 112.22L54.9112 109.686ZM55.7986 109.285L54.3443 107.091L54.3431 107.092L55.7986 109.285ZM55.8007 109.284L57.255 111.477H57.2553L55.8007 109.284ZM81.3336 92.5142L82.7882 94.7082C83.3706 94.3256 83.7772 93.7291 83.9192 93.0491C84.0611 92.3691 83.927 91.6608 83.546 91.0788L81.3336 92.5142ZM13.4198 92.5145L11.2071 91.0792C10.8262 91.661 10.6921 92.3693 10.8341 93.0493C10.9761 93.7293 11.3828 94.3257 11.9652 94.7082L13.4198 92.5145ZM38.9524 109.284L37.4978 111.477L37.4987 111.478L38.9524 109.284ZM38.9545 109.285L40.4103 107.092L40.4085 107.09L38.9545 109.285ZM19.9818 142.238H74.7716V136.981H19.9818V142.238ZM9.51367 131.819C9.51367 137.575 14.1986 142.238 19.9818 142.238V136.981C17.1157 136.981 14.7955 134.672 14.7955 131.819H9.51367ZM9.51367 104.93V131.819H14.7955V104.93H9.51367ZM34.2863 116.316L13.6092 102.737L10.7 107.124L31.3771 120.704L34.2863 116.316ZM34.2893 116.319L34.2872 116.317L31.3762 120.704L31.3783 120.705L34.2893 116.319ZM39.278 118.142C37.4954 117.927 35.7874 117.303 34.289 116.318L31.3786 120.705C33.5605 122.139 36.0476 123.049 38.6434 123.361L39.278 118.142ZM46.9222 122.425C44.5177 122.425 42.4006 121.194 41.1745 119.318L36.747 122.185C38.9063 125.488 42.6561 127.682 46.9222 127.682V122.425ZM47.5152 122.425H46.9222V127.682H47.5152V122.425ZM53.2457 119.345C52.0168 121.205 49.9085 122.425 47.5152 122.425V127.682C51.761 127.682 55.4957 125.509 57.6596 122.232L53.2457 119.345ZM60.4644 116.318C58.8875 117.355 57.0796 117.991 55.1986 118.172L55.7066 123.405C58.4457 123.141 61.0784 122.214 63.3748 120.705L60.4644 116.318ZM60.465 116.318L60.4629 116.319L63.376 120.704L63.3781 120.703L60.465 116.318ZM81.1442 102.736L60.4671 116.316L63.3763 120.704L84.0534 107.124L81.1442 102.736ZM85.2397 131.819V104.93H79.9579V131.819H85.2397ZM74.7716 142.238C80.5548 142.238 85.2397 137.575 85.2397 131.819H79.9579C79.9579 134.672 77.6377 136.981 74.7716 136.981V142.238ZM41.6304 111.277C42.891 109.753 44.7924 108.789 46.9222 108.789V103.532C43.1475 103.532 39.7739 105.251 37.553 107.935L41.6304 111.277ZM46.9222 108.789H47.5152V103.532H46.9222V108.789ZM47.5152 108.789C49.6718 108.789 51.5944 109.778 52.8545 111.335L56.9682 108.037C54.7485 105.294 51.3379 103.532 47.5152 103.532V108.789ZM54.3431 107.092C54.302 107.119 54.2569 107.139 54.2095 107.152L55.6132 112.22C56.1959 112.06 56.7497 111.81 57.2541 111.478L54.3431 107.092ZM54.3464 107.089L54.3443 107.091L57.2529 111.479L57.255 111.477L54.3464 107.089ZM79.879 90.3204L54.3461 107.089L57.2553 111.477L82.7882 94.7082L79.879 90.3204ZM74.7716 91.6023C76.5913 91.6023 78.1922 92.5311 79.1212 93.9495L83.546 91.0788C81.6826 88.2339 78.4498 86.3455 74.7716 86.3455V91.6023ZM19.9818 91.6023H74.7716V86.3455H19.9818V91.6023ZM15.6322 93.9495C16.5612 92.5311 18.1621 91.6023 19.9818 91.6023V86.3455C16.3036 86.3455 13.0705 88.2339 11.2071 91.0792L15.6322 93.9495ZM40.407 107.089L14.8744 90.3204L11.9652 94.7082L37.4978 111.477L40.407 107.089ZM40.4085 107.09L40.4064 107.089L37.4987 111.478L37.5008 111.479L40.4085 107.09ZM40.5062 107.14C40.4725 107.128 40.4403 107.111 40.4103 107.092L37.499 111.478C37.8676 111.72 38.263 111.92 38.6774 112.072L40.5062 107.14Z" fill="#CFCFCF"/>
<path fill-rule="evenodd" clip-rule="evenodd" d="M21.9881 71.6267H21.0045C20.7666 71.6267 20.5751 71.8194 20.5751 72.0538V73.0327C20.5751 73.2695 20.7687 73.4601 21.0045 73.4601H21.9881C22.1018 73.4596 22.2107 73.4144 22.2911 73.3344C22.3715 73.2543 22.4168 73.1459 22.4172 73.0327V72.0538C22.4174 71.9977 22.4063 71.9421 22.3848 71.8902C22.3633 71.8383 22.3317 71.7912 22.2918 71.7515C22.2519 71.7118 22.2046 71.6804 22.1525 71.659C22.1004 71.6375 22.0445 71.6266 21.9881 71.6267ZM18.5772 71.6267H17.5939C17.4802 71.6271 17.3713 71.6722 17.2908 71.7522C17.2104 71.8322 17.165 71.9406 17.1645 72.0538V73.0327C17.1645 73.2695 17.3581 73.4601 17.5939 73.4601H18.5772C18.691 73.4597 18.8 73.4146 18.8804 73.3345C18.9609 73.2544 19.0063 73.146 19.0067 73.0327V72.0538C19.0062 71.9406 18.9608 71.8322 18.8803 71.7522C18.7999 71.6722 18.691 71.6271 18.5772 71.6267ZM15.1654 71.6267H14.1818C14.0681 71.6271 13.9592 71.6722 13.8787 71.7522C13.7983 71.8322 13.7529 71.9406 13.7524 72.0538V73.0327C13.7524 73.2695 13.946 73.4601 14.1818 73.4601H15.1654C15.2792 73.4596 15.3881 73.4144 15.4685 73.3344C15.5488 73.2543 15.5942 73.1459 15.5946 73.0327V72.0538C15.5947 71.9977 15.5837 71.9421 15.5622 71.8902C15.5406 71.8383 15.509 71.7912 15.4692 71.7515C15.4293 71.7118 15.3819 71.6804 15.3298 71.659C15.2777 71.6375 15.2218 71.6266 15.1654 71.6267ZM11.7555 71.6267H10.7722C10.6585 71.6271 10.5495 71.6722 10.4691 71.7522C10.3886 71.8322 10.3432 71.9406 10.3428 72.0538V73.0327C10.3428 73.2695 10.5364 73.4601 10.7722 73.4601H11.7555C11.9934 73.4601 12.1867 73.2674 12.1867 73.0327V72.0538C12.1855 71.9405 12.1396 71.8323 12.0589 71.7524C11.9782 71.6725 11.8693 71.6274 11.7555 71.6267ZM8.34552 71.6267H7.36222C7.12429 71.6267 6.93066 71.8194 6.93066 72.0538V73.0327C6.93066 73.2695 7.12429 73.4601 7.36222 73.4601H8.34552C8.45928 73.4597 8.56828 73.4146 8.64873 73.3345C8.72918 73.2544 8.77455 73.146 8.77495 73.0327V72.0538C8.77447 71.9406 8.72906 71.8322 8.64862 71.7522C8.56818 71.6722 8.45923 71.6271 8.34552 71.6267ZM18.4534 75.3277H17.4698C17.3561 75.3281 17.2471 75.3732 17.1667 75.4532C17.0863 75.5332 17.0409 75.6416 17.0404 75.7548V76.7355C17.0408 76.8488 17.0861 76.9572 17.1666 77.0373C17.247 77.1174 17.356 77.1625 17.4698 77.1629H18.4534C18.691 77.1629 18.8825 76.9702 18.8825 76.7355V75.7569C18.8829 75.7006 18.8721 75.6448 18.8506 75.5927C18.8292 75.5406 18.7977 75.4932 18.7578 75.4533C18.7179 75.4134 18.6705 75.3818 18.6182 75.3602C18.566 75.3387 18.51 75.3276 18.4534 75.3277ZM15.0425 75.3277H14.0592C13.9455 75.3281 13.8366 75.3732 13.7561 75.4532C13.6757 75.5332 13.6303 75.6416 13.6298 75.7548V76.7355C13.6302 76.8488 13.6756 76.9572 13.756 77.0373C13.8365 77.1174 13.9455 77.1625 14.0592 77.1629H15.0425C15.1563 77.1625 15.2653 77.1174 15.3457 77.0373C15.4262 76.9572 15.4716 76.8488 15.472 76.7355V75.7569C15.4723 75.7006 15.4614 75.6448 15.44 75.5927C15.4185 75.5406 15.3869 75.4932 15.347 75.4533C15.3071 75.4134 15.2596 75.3818 15.2074 75.3602C15.1551 75.3387 15.0991 75.3276 15.0425 75.3277ZM11.6323 75.3277H10.6487C10.411 75.3277 10.2174 75.5201 10.2174 75.7548V76.7355C10.2174 76.9702 10.411 77.1629 10.6487 77.1629H11.6323C11.746 77.1624 11.8549 77.1172 11.9353 77.0372C12.0157 76.9571 12.061 76.8487 12.0614 76.7355V75.7569C12.0615 75.6434 12.0164 75.5345 11.9359 75.454C11.8555 75.3736 11.7463 75.3282 11.6323 75.3277ZM15.1654 67.6511H14.1818C14.0681 67.6515 13.9591 67.6967 13.8786 67.7768C13.7982 67.8568 13.7528 67.9653 13.7524 68.0785V69.0575C13.7524 69.294 13.946 69.4846 14.1818 69.4846H15.1654C15.2791 69.4841 15.388 69.4389 15.4684 69.3589C15.5487 69.279 15.5941 69.1706 15.5946 69.0575V68.0785C15.5947 68.0224 15.5837 67.9668 15.5622 67.9149C15.5406 67.863 15.509 67.8159 15.4692 67.7762C15.4293 67.7365 15.382 67.705 15.3298 67.6835C15.2777 67.6621 15.2218 67.6511 15.1654 67.6511ZM11.7555 67.6511H10.7722C10.6584 67.6515 10.5494 67.6967 10.469 67.7768C10.3885 67.8568 10.3432 67.9653 10.3428 68.0785V69.0575C10.3428 69.294 10.5364 69.4846 10.7722 69.4846H11.7555C11.8695 69.4846 11.9789 69.4397 12.0598 69.3597C12.1406 69.2796 12.1863 69.171 12.1867 69.0575V68.0785C12.1855 67.9652 12.1397 67.8569 12.059 67.777C11.9783 67.697 11.8693 67.6518 11.7555 67.6511Z" fill="#E1E4E5"/>
<path d="M22.9298 54.0603C21.7184 54.0603 20.7365 53.083 20.7365 51.8774C20.7365 50.6718 21.7184 49.6945 22.9298 49.6945C24.1411 49.6945 25.123 50.6718 25.123 51.8774C25.123 53.083 24.1411 54.0603 22.9298 54.0603Z" fill="#CFCFCF"/>
<path d="M30.0085 37.161C28.577 37.161 27.4164 36.006 27.4164 34.5812C27.4164 33.1564 28.577 32.0014 30.0085 32.0014C31.4401 32.0014 32.6006 33.1564 32.6006 34.5812C32.6006 36.006 31.4401 37.161 30.0085 37.161Z" fill="#E1E4E5"/>
<path d="M136.794 89.2358C136.069 89.2358 135.481 89.821 135.481 90.5428C135.481 91.2646 136.069 91.8497 136.794 91.8497C137.519 91.8497 138.107 91.2646 138.107 90.5428C138.107 89.821 137.519 89.2358 136.794 89.2358Z" fill="#CFCFCF"/>
<path d="M137.586 57.3444C136.375 57.3444 135.393 56.3671 135.393 55.1615C135.393 53.956 136.375 52.9787 137.586 52.9787C138.797 52.9787 139.779 53.956 139.779 55.1615C139.779 56.3671 138.797 57.3444 137.586 57.3444Z" fill="#CFCFCF"/>
<path d="M136.268 109.526C135.833 109.526 135.48 109.877 135.48 110.311C135.48 110.744 135.833 111.096 136.268 111.096C136.704 111.096 137.057 110.744 137.057 110.311C137.057 109.877 136.704 109.526 136.268 109.526Z" fill="#E1E4E5"/>
<path d="M136.714 77.3725C135.945 77.3725 135.321 76.7519 135.321 75.9864C135.321 75.2209 135.945 74.6003 136.714 74.6003C137.483 74.6003 138.106 75.2209 138.106 75.9864C138.106 76.7519 137.483 77.3725 136.714 77.3725Z" fill="#E1E4E5"/>
<path d="M136.354 43.8281C135.755 43.8281 135.27 43.3449 135.27 42.7489C135.27 42.1528 135.755 41.6697 136.354 41.6697C136.953 41.6697 137.438 42.1528 137.438 42.7489C137.438 43.3449 136.953 43.8281 136.354 43.8281Z" fill="#E1E4E5"/>
<path d="M35.9509 42.9999H35.9989C36.2839 47.0165 39.285 47.0784 39.285 47.0784C39.285 47.0784 35.9755 47.1424 35.9755 51.7834C35.9755 47.1424 32.666 47.0784 32.666 47.0784C32.666 47.0784 35.666 47.0165 35.9509 42.9999Z" fill="#E1E4E5"/>
</svg>
