<svg width="32" height="32" viewBox="0 0 32 32" fill="none" xmlns="http://www.w3.org/2000/svg">
<path d="M9 2H3C2.44772 2 2 2.44772 2 3V29C2 29.5523 2.44772 30 3 30H9C9.55228 30 10 29.5523 10 29V3C10 2.44772 9.55228 2 9 2Z" fill="#AEAEAE"/>
<path d="M29 11.5H23C22.4477 11.5 22 11.9477 22 12.5V29C22 29.5523 22.4477 30 23 30H29C29.5523 30 30 29.5523 30 29V12.5C30 11.9477 29.5523 11.5 29 11.5Z" fill="#AEAEAE"/>
<path d="M29 2H13C12.4477 2 12 2.44772 12 3V8.5C12 9.05228 12.4477 9.5 13 9.5H29C29.5523 9.5 30 9.05228 30 8.5V3C30 2.44772 29.5523 2 29 2Z" fill="#AEAEAE"/>
<path d="M19 22H13C12.4477 22 12 22.4477 12 23V29C12 29.5523 12.4477 30 13 30H19C19.5523 30 20 29.5523 20 29V23C20 22.4477 19.5523 22 19 22Z" fill="#AEAEAE"/>
<path d="M19 11.5H13C12.4477 11.5 12 11.9477 12 12.5V18.5C12 19.0523 12.4477 19.5 13 19.5H19C19.5523 19.5 20 19.0523 20 18.5V12.5C20 11.9477 19.5523 11.5 19 11.5Z" fill="#AEAEAE"/>
</svg>
