<svg width="108" height="124" viewBox="0 0 108 124" xmlns="http://www.w3.org/2000/svg" xmlns:xlink="http://www.w3.org/1999/xlink">
    <defs>
        <path id="a" d="M0 0h93v124H0z"/>
        <path id="c" d="M0 0h82v19H0z"/>
        <path id="e" d="M0 0h82v19H0z"/>
    </defs>
    <g fill="none" fill-rule="evenodd">
        <g>
            <mask id="b" fill="#fff">
                <use xlink:href="#a"/>
            </mask>
            <path d="M68.382 36.274v-.006c-3.059 0-6.118-.025-9.176.008-2.22.024-3.67 1.386-3.746 3.422-.08 2.133 1.274 3.76 3.505 3.789 6.278.08 12.557.065 18.835-.005 1.798-.02 3.041-1.196 3.367-2.765.496-2.39-1.02-4.381-3.487-4.429-3.098-.06-6.199-.014-9.298-.014M68.33 62.02c3.099 0 6.199.032 9.297-.011 2.144-.03 3.61-1.514 3.64-3.555.03-2.032-1.413-3.646-3.534-3.666-6.239-.058-12.478-.05-18.716-.005-1.956.014-3.349 1.35-3.534 3.144-.238 2.3 1.221 4.037 3.55 4.077 3.098.054 6.198.013 9.297.016m.02-37.047c2.979 0 5.957.015 8.936-.004 2.42-.016 3.961-1.424 3.98-3.587.02-2.204-1.566-3.665-4.036-3.67a4704.66 4704.66 0 0 0-17.75 0c-2.489.005-4.039 1.435-4.025 3.665.013 2.175 1.534 3.575 3.96 3.591 2.978.02 5.956.005 8.935.005m-23.1 48.344c-10.513 0-21.026 0-31.539.002-.483 0-.97-.015-1.448.04-2.26.259-3.694 2.58-2.943 4.734.585 1.68 1.907 2.488 4.112 2.488 21.146.002 42.293.002 63.44-.004.52 0 1.05-.035 1.557-.139 1.794-.367 2.912-1.84 2.83-3.67-.099-2.169-1.595-3.445-4.108-3.447-10.633-.008-21.267-.004-31.901-.004M37.363 39.54c5.527-6.738 3.022-14.63-1.242-18.494-4.774-4.327-12.291-4.472-17.157-.267-2.505 2.164-4.02 4.902-4.552 8.17-.657 4.031.503 7.556 2.878 10.398-1.77 1.942-3.652 3.67-5.129 5.695-3.017 4.139-3.363 8.98-2.997 13.89.132 1.776 1.668 3.02 3.49 3.076 1.49.045 2.982.017 4.473.017 8.18.001 16.36.009 24.54-.004 2.543-.004 3.955-1.435 3.977-3.972.01-1.13.011-2.26-.011-3.39-.089-4.454-1.611-8.369-4.581-11.668-1.122-1.246-2.45-2.304-3.689-3.45M3.534 0h85.838c2.64.93 3.632 2.817 3.628 5.583-.041 30.382-.026 60.764-.026 91.147v1.583H26.447c-3.002 0-4.316 1.33-4.319 4.364-.003 3.308.071 6.619-.02 9.925-.118 4.363-1.75 7.978-5.793 10.037-3.934 2.003-7.9 1.804-11.582-.655-3.541-2.365-4.705-5.952-4.704-10.058.008-35.385.022-70.77-.03-106.155C-.003 2.979.857 1.003 3.535 0" fill="#CFCFCF" mask="url(#b)"/>
        </g>
        <g transform="translate(26 105)">
            <mask id="d" fill="#fff">
                <use xlink:href="#c"/>
            </mask>
            <path d="M0 18.995h24.764c15.277 0 30.554.015 45.83-.008 4.918-.008 8.442-2.377 10.524-6.975.933-2.06.89-4.283.878-6.493C81.974 1.749 80.303 0 76.688 0L5.101 0H3.524c0 3.373.128 6.613-.035 9.838-.167 3.31-1.526 6.244-3.489 9.157" fill="#FFF" mask="url(#d)"/>
        </g>
        <g transform="translate(26 105)">
            <mask id="f" fill="#fff">
                <use xlink:href="#e"/>
            </mask>
            <path d="M0 18.995c1.963-2.913 3.322-5.848 3.489-9.157.163-3.225.035-6.465.035-9.838h73.164c3.615 0 5.286 1.749 5.308 5.519.012 2.21.055 4.433-.878 6.493-2.082 4.598-5.606 6.967-10.523 6.975-15.277.023-30.554.008-45.831.008H0z" fill="#CFCFCF" mask="url(#f)"/>
        </g>
        <path d="M38 55H16.003c-.17-5.802 4.987-10.968 10.905-11 6.005-.033 11.168 5.032 11.09 11M34 31.015c.02 3.228-2.669 5.943-5.927 5.985-3.224.04-6.008-2.646-6.072-5.858-.067-3.408 2.608-6.143 6.006-6.142 3.37.001 5.971 2.612 5.993 6.015" fill="#CFCFCF"/>
    </g>
</svg>
