<?xml version="1.0" encoding="UTF-8"?><svg version="1.1" width="358px" height="234px" viewBox="0 0 358.0 234.0" xmlns="http://www.w3.org/2000/svg" xmlns:xlink="http://www.w3.org/1999/xlink"><defs><clipPath id="i0"><path d="M1440,0 L1440,1014 L0,1014 L0,0 L1440,0 Z"></path></clipPath><clipPath id="i1"><path d="M357.7918,0 L357.7918,1 L0,1 L0,0 L357.7918,0 Z"></path></clipPath><clipPath id="i2"><path d="M178.905,0.339 L181.862913,0.339021545 L196.471416,0.33976572 C197.434643,0.33985014 198.395633,0.33994143 199.354325,0.340039535 L205.078402,0.340709505 C291.460362,0.3520977 357.792,0.41901 357.792,0.5 C357.792,0.58099 291.460362,0.6479023 205.078402,0.659290495 L199.354325,0.659960465 C198.395633,0.66005857 197.434643,0.66014986 196.471416,0.66023428 L181.862913,0.660978455 C180.878852,0.6609928 179.89286,0.661 178.905,0.661 L175.946052,0.660978455 L161.332831,0.66023428 C160.369313,0.66014986 159.408038,0.66005857 158.449066,0.659960465 L152.723361,0.659290495 C66.3175604,0.6479023 0,0.58099 0,0.5 C0,0.41901 66.3175604,0.3520977 152.723361,0.340709505 L158.449066,0.340039535 C159.408038,0.33994143 160.369313,0.33985014 161.332831,0.33976572 L175.946052,0.339021545 C176.930454,0.3390072 177.91679,0.339 178.905,0.339 Z"></path></clipPath><clipPath id="i3"><path d="M2.29097149,0 C4.38597149,0.074 6.35297149,1.211 7.73497149,2.788 C9.11697149,4.365 9.96497149,6.347 10.5069715,8.373 C11.5549715,12.292 10.9109715,16.916 9.79297149,20.816 C5.55097149,19.3 2.93397149,14.775 1.75097149,12.397 C-0.118028514,8.637 -1.21502851,0.707 2.29097149,0 Z"></path></clipPath><clipPath id="i4"><path d="M9.21448649,0.420026133 C10.0564865,0.982026133 10.4204865,2.08502613 10.3114865,3.09202613 C10.2034865,4.09902613 9.69248649,5.02002613 9.09148649,5.83402613 C7.02848649,8.62702613 4.51948649,10.9510261 1.05948649,11.2380261 C-0.279513508,9.31602613 -0.310513508,6.64302613 0.747486492,4.55402613 C1.80548649,2.46402613 3.83848649,0.957026133 6.07748649,0.270026133 C7.11248649,-0.0479738675 8.31448649,-0.181973867 9.21448649,0.420026133 Z"></path></clipPath><clipPath id="i5"><path d="M5.2302456,0.00106949278 C5.2772456,0.0540694928 4.2392456,0.693069493 3.0912456,2.22406949 C1.9302456,3.72906949 0.815245599,6.19906949 0.435245599,9.08906949 C0.0402455993,11.9810695 0.529245599,14.6270695 0.813245599,16.5150695 C0.964245599,17.4630695 1.0872456,18.2310695 1.1572456,18.7650695 C1.2282456,19.2980695 1.2532456,19.5950695 1.2342456,19.5980925 C1.2132456,19.6010695 1.1492456,19.3110695 1.0442456,18.7840695 C0.931245599,18.2030695 0.784245599,17.4520695 0.608245599,16.5500695 C0.273245599,14.6720695 -0.257754401,12.0020695 0.144245599,9.04906949 C0.530245599,6.11006949 1.7002456,3.59806949 2.9272456,2.09706949 C3.5302456,1.33806949 4.1082456,0.801069493 4.5362456,0.471069493 C4.7432456,0.297069493 4.9252456,0.190069493 5.0412456,0.108069493 C5.1592456,0.0300694928 5.2242456,-0.00693050722 5.2302456,0.00106949278 Z"></path></clipPath><clipPath id="i6"><path d="M0.00124291167,0 C0.00638576881,-0.00222605084 0.0278551566,0.0330648253 0.0645315414,0.103653043 L0.130811425,0.235730929 C0.143712299,0.262063595 0.157528626,0.290532982 0.172242912,0.321104411 C0.285242912,0.565104411 0.430242912,0.878104411 0.609242912,1.26610441 C0.984242912,2.08810441 1.51124291,3.28510441 2.15024291,4.76910441 C3.42824291,7.73710441 5.13624291,11.8621044 6.92024291,16.4591044 C8.70324291,21.0591044 10.2222429,25.2581044 11.2792429,28.3111044 C11.8082429,29.8381044 12.2262429,31.0771044 12.5032429,31.9371044 C12.6322429,32.3441044 12.7362429,32.6731044 12.8172429,32.9291044 C12.8862429,33.1571044 12.9172429,33.2781044 12.9082429,33.2821616 C12.8982429,33.2851044 12.8482429,33.1701044 12.7612429,32.9491044 C12.6672429,32.6971044 12.5452429,32.3741044 12.3952429,31.9751044 C12.0732429,31.0921044 11.6282429,29.8731044 11.0842429,28.3811044 C9.97724291,25.3461044 8.42724291,21.1621044 6.64624291,16.5661044 C4.86324291,11.9721044 3.18724291,7.83710441 1.95824291,4.85010441 C1.35524291,3.38110441 0.861242912,2.18110441 0.504242912,1.31110441 C0.345242912,0.915104411 0.217242912,0.594104411 0.117242912,0.345104411 C0.0322429117,0.123104411 -0.00775708833,0.00410441103 0.00124291167,0 Z"></path></clipPath><clipPath id="i7"><path d="M0.194065903,1.26484066 C0.753065903,0.13884066 2.2620659,-0.0721593403 3.5160659,0.0188406597 C8.4410659,0.37584066 13.1120659,3.27884066 15.6140659,7.53584066 L15.6600659,7.87384066 C10.8050659,9.84684066 4.7920659,8.50484066 1.2370659,4.65384066 C0.383065903,3.72884066 -0.366934097,2.39284066 0.194065903,1.26484066 Z"></path></clipPath><clipPath id="i8"><path d="M0.785032566,0.038816063 C1.03803257,0.055816063 1.34703257,0.078816063 1.70103257,0.144816063 C2.05503257,0.210816063 2.46603257,0.248816063 2.90303257,0.370816063 C3.34403257,0.478816063 3.83003257,0.586816063 4.33303257,0.767816063 C4.84603257,0.919816063 5.37303257,1.13981606 5.92603257,1.37381606 C7.01903257,1.86981606 8.17903257,2.51981606 9.28303257,3.36381606 C10.3800326,4.21881606 11.3060326,5.17381606 12.0590326,6.10981606 C12.4210326,6.59081606 12.7670326,7.04581606 13.0360326,7.50781606 C13.3340326,7.95181606 13.5550326,8.39881606 13.7630326,8.80181606 C13.9860326,9.19781606 14.1170326,9.58981606 14.2630326,9.91881606 C14.4100326,10.2478161 14.5010326,10.5438161 14.5740326,10.7868161 C14.6193326,10.9320161 14.6576126,11.0578661 14.6884946,11.1630701 L14.7402826,11.3455661 C14.7750326,11.4740661 14.7885326,11.5428161 14.7790326,11.5458161 C14.7160326,11.5678161 14.4140326,10.4838161 13.5790326,8.89681606 C13.3620326,8.50481606 13.1330326,8.07081606 12.8310326,7.63881606 C12.5570326,7.18881606 12.2090326,6.74681606 11.8470326,6.27981606 C11.0950326,5.36781606 10.1810326,4.43681606 9.10403257,3.59681606 C8.01903257,2.76781606 6.88503257,2.12281606 5.81503257,1.62081606 C5.27303257,1.38381606 4.75803257,1.15881606 4.25503257,0.998816063 C3.76303257,0.810816063 3.28603257,0.692816063 2.85403257,0.572816063 C1.11503257,0.133816063 -0.0069674338,0.073816063 0,0.00981606304 C0.0010325662,-0.010183937 0.280032566,0.000816063044 0.785032566,0.038816063 Z"></path></clipPath><clipPath id="i9"><path d="M15.0837173,0 C15.4457173,9.014 16.0007173,18.019 16.7477173,27.009 C16.9877173,29.893 17.2287173,32.907 16.1257173,35.584 C15.1267173,38.009 13.0187173,39.951 10.5207173,40.75 C8.02171731,41.548 5.17871731,41.187 2.95771731,39.791 C0.965717307,38.537 -0.564282693,36.086 0.200717307,33.86 C0.584717307,32.743 1.49171731,31.824 1.68071731,30.658 C1.92371731,29.16 0.914717307,27.706 0.995717307,26.191 C1.04549509,25.2558889 1.49764323,24.4219136 1.98993404,23.5989122 L2.36101909,22.98231 C2.850742,22.1591605 3.29005064,21.3244444 3.31671731,20.388 C3.35271731,19.105 2.59071731,17.899 2.63371731,16.617 C2.70371731,14.513 4.80571731,13.104 5.68671731,11.192 C6.46771731,9.493 6.23071731,7.527 6.40371731,5.665 C6.57571731,3.803 7.46371731,1.707 9.28571731,1.287 Z"></path></clipPath><clipPath id="i10"><path d="M5.88601174,0.00144498584 C5.90701174,0.0364449858 5.42601174,0.183444986 4.82801174,0.796444986 C4.23001174,1.40044499 3.63101174,2.53644499 3.39701174,4.04844499 C3.27401174,4.80044499 3.25601174,5.64544499 3.22501174,6.55244499 C3.19301174,7.45944499 3.16401174,8.44444499 2.93401174,9.46144499 C2.79067841,10.149445 2.49845619,10.8058894 2.18030804,11.4607042 L1.8580721,12.1160842 C1.80444384,12.2255931 1.75123396,12.3353339 1.69901174,12.445445 C1.23301174,13.419445 0.805011741,14.561445 1.21701174,15.627445 C1.61001174,16.682445 2.60901174,17.432445 2.98301174,18.571445 C3.16701174,19.138445 3.10701174,19.767445 2.86801174,20.275445 C2.64001174,20.792445 2.30201174,21.215445 1.97901174,21.611445 C1.33201174,22.395445 0.683011741,23.140445 0.535011741,24.007445 C0.380011741,24.870445 0.619011741,25.702445 0.814011741,26.439445 C1.02201174,27.176445 1.22201174,27.869445 1.22701174,28.500445 C1.24401174,29.125445 1.13901174,29.669445 0.950011741,30.071445 C0.763011741,30.475445 0.507011741,30.726445 0.315011741,30.853445 C0.178583169,30.9470164 0.0773586795,30.9875266 0.0306531402,31.0030368 L0.00201174075,31.011445 C-0.0369882593,30.975445 0.500011741,30.816445 0.835011741,30.021445 C0.997011741,29.632445 1.08001174,29.109445 1.04701174,28.508445 C1.02601174,27.903445 0.819011741,27.244445 0.595011741,26.501445 C0.387011741,25.765445 0.117011741,24.910445 0.271011741,23.960445 C0.428011741,22.995445 1.11801174,22.203445 1.74801174,21.424445 C2.06601174,21.029445 2.38401174,20.619445 2.58501174,20.152445 C2.79701174,19.691445 2.84101174,19.162445 2.68201174,18.666445 C2.36201174,17.653445 1.37001174,16.909445 0.914011741,15.740445 C0.689011741,15.154445 0.686011741,14.511445 0.815011741,13.932445 C0.938011741,13.346445 1.17401174,12.816445 1.41301174,12.310445 C1.89801174,11.301445 2.43301174,10.375445 2.64401174,9.39344499 C3.07901174,7.42844499 2.87601174,5.55144499 3.17201174,4.01044499 C3.44001174,2.46644499 4.09301174,1.30444499 4.73901174,0.708444986 C5.05401174,0.399444986 5.35901174,0.235444986 5.55801174,0.124444986 C5.77001174,0.0334449858 5.88201174,-0.00855501416 5.88601174,0.00144498584 Z"></path></clipPath><clipPath id="i11"><path d="M32.813,0 L43.033,4.955 L36.534,23.097 C34.761,28.045 29.212,30.506 24.355,28.498 L0,26.034 L3.89,17.377 L27.219,16.127 L32.813,0 Z"></path></clipPath><clipPath id="i12"><path d="M32.921,0 C32.099,10.114 25.566,49.189 25.894,50.783 C26.06824,51.62924 30.0977632,64.5797744 34.2413528,77.8195069 L34.759625,79.475125 C39.079,93.27025 43.353,106.845 43.353,106.845 L34.319,111.315 C34.319,111.315 24.926,93.381 18.371,75.783 L19.425,112.627 L8.795,112.627 L0,1.575 L9.819,1.03 C9.8198,0.9872 9.82028,0.95176 9.820568,0.92464 L9.820984,0.8692 Z"></path></clipPath><clipPath id="i13"><path d="M0.183,0.861 L0.212178438,0.965445848 C1.02070146,3.80566856 3.86897782,11.7162977 3.98168968,11.1078231 C3.98168968,11.1078231 4.01494654,14.0014109 4.04774333,16.9874781 L4.05501022,17.6514324 C4.08634853,20.5252975 4.11494423,23.292514 4.11068968,23.4518231 C4.11068968,23.4518231 1.00301781,5.23147936 0.192603746,0.91086608 L0.183,0.861 Z"></path></clipPath><clipPath id="i14"><path d="M0.0854930585,0 C0.109493059,0 0.133493059,0.24 0.154493059,0.672 C0.173493059,1.104 0.207493059,1.729 0.280493059,2.496 C0.310493059,2.88 0.365493059,3.298 0.427493059,3.746 C0.497493059,4.192 0.569493059,4.67 0.681493059,5.166 C0.888493059,6.161 1.19149306,7.238 1.56649306,8.353 C2.33149306,10.579 3.14549306,12.559 3.69149306,14.008 C3.96849306,14.732 4.18549306,15.32 4.32749306,15.73 C4.46949306,16.139 4.53749306,16.37 4.51549306,16.379 C4.49249306,16.388 4.38149306,16.175 4.19949306,15.781 C3.99249306,15.311 3.74649306,14.752 3.46049306,14.102 C2.85549306,12.676 2.00349306,10.711 1.23149306,8.465 C0.853493059,7.341 0.555493059,6.244 0.362493059,5.23 C0.257493059,4.725 0.195493059,4.238 0.137493059,3.784 C0.0864930585,3.328 0.0464930585,2.903 0.0314930585,2.514 C-0.0105069415,1.737 -0.00550694149,1.107 0.0174930585,0.673 C0.0384930585,0.239 0.0614930585,0 0.0854930585,0 Z"></path></clipPath><clipPath id="i15"><path d="M18.1999052,0 L18.2299052,4.118 L17.5579052,4.163 C14.5689052,4.338 2.34890521,4.842 0.348905211,4.243 C-1.61739987,3.65249153 5.29420828,1.95117581 6.96192942,1.55578602 L7.13028363,1.51609715 C7.24984661,1.48808187 7.31590521,1.473 7.31590521,1.473 L7.31090521,0.474 L18.1999052,0 Z"></path></clipPath><clipPath id="i16"><path d="M18.383,0.359600812 C18.383,0.364600812 18.319,0.371600812 18.197,0.380600812 C18.036,0.390600812 17.861,0.401600812 17.662,0.414600812 C17.127,0.439600812 16.47,0.470600812 15.693,0.506600812 C14.031,0.572600812 11.732,0.632600812 9.193,0.644600812 C6.653,0.655600812 4.354,0.614600812 2.691,0.563600812 C1.914,0.534600812 1.256,0.509600812 0.721,0.488600812 C0.523,0.477600812 0.347,0.468600812 0.186,0.459600812 C0.064,0.451600812 0,0.444600812 0,0.440600812 C0,0.435600812 0.065,0.433600812 0.187,0.432600812 C0.348,0.434600812 0.524,0.435600812 0.723,0.437600812 C1.258,0.446600812 1.916,0.457600812 2.693,0.470600812 C4.0234,0.493000812 5.7602,0.513480812 7.70116,0.515656812 L8.68771704,0.515143627 C8.85466667,0.51477859 9.0228,0.514267479 9.192,0.513600812 C11.73,0.501600812 14.028,0.455600812 15.69,0.413600812 C16.467,0.393600812 17.125,0.377600812 17.66,0.363600812 C17.859,0.359600812 18.035,0.356600812 18.196,0.353600812 C18.318,0.353600812 18.383,0.355600812 18.383,0.359600812 Z"></path></clipPath><clipPath id="i17"><path d="M0.786935581,0.685258152 C1.10493558,1.19425815 1.07893558,1.70125815 1.04593558,1.69325815 C1.00593558,1.69825815 0.972935581,1.22825815 0.674935581,0.754258152 C0.383935581,0.276258152 -0.0220644192,0.0372581517 0.000935580805,0.00325815167 C0.00893558081,-0.0287418483 0.473935581,0.173258152 0.786935581,0.685258152 Z"></path></clipPath><clipPath id="i18"><path d="M0.2125,0.0505034951 C0.2425,0.0305034951 0.3965,0.215503495 0.5555,0.464503495 C0.7145,0.712503495 0.8185,0.929503495 0.7875,0.949503495 C0.7565,0.969503495 0.6035,0.783503495 0.4445,0.535503495 C0.2855,0.286503495 0.1815,0.0695034951 0.2125,0.0505034951 Z"></path></clipPath><clipPath id="i19"><path d=""></path></clipPath><clipPath id="i20"><path d="M1.132,0.4915 C1.132,0.5275 0.88,0.5605 0.567,0.5655 C0.254,0.5705 0.001,0.5445 0,0.5085 C0,0.4725 0.252,0.4395 0.565,0.4345 C0.878,0.4295 1.131,0.4555 1.132,0.4915 Z"></path></clipPath><clipPath id="i21"><path d="M1.28212327,0.409036782 C1.29412327,0.441036782 1.01912327,0.567036782 0.652123271,0.595036782 C0.285123271,0.625036782 -0.00687672863,0.544036782 0.000123271368,0.510036782 C0.00612327137,0.473036782 0.293123271,0.493036782 0.641123271,0.464036782 C0.990123271,0.438036782 1.27012327,0.373036782 1.28212327,0.409036782 Z"></path></clipPath><clipPath id="i22"><path d="M1.854,0.94 L1.8432982,0.91394059 C1.7981302,0.81424459 1.7292502,0.69240459 1.6208502,0.56480459 C1.4868502,0.40880459 1.2848502,0.25680459 1.0248502,0.18080459 C0.778850205,0.10880459 0.428850205,0.0908045902 0.194850205,0.24080459 C0.0848502047,0.32280459 0.128850205,0.45280459 0.251850205,0.52580459 C0.366850205,0.59880459 0.514850205,0.64380459 0.643850205,0.69080459 C0.907850205,0.78080459 1.1528502,0.83880459 1.3608502,0.87480459 C1.54662798,0.907249035 1.70218409,0.925076195 1.81768539,0.936801847 L1.854,0.94 Z M1.875,0.991 L1.81537308,0.993153013 C1.6978749,0.994853973 1.53896132,0.989026812 1.3478502,0.96680459 C1.1328502,0.94180459 0.879850205,0.89180459 0.605850205,0.80580459 C0.469850205,0.75880459 0.327850205,0.72280459 0.180850205,0.63280459 C0.111850205,0.58680459 0.0358502047,0.52280459 0.00785020472,0.41780459 C-0.0211497953,0.31280459 0.0338502047,0.19580459 0.112850205,0.13880459 C0.776850205,-0.20819541 1.4448502,0.16380459 1.6928502,0.50680459 C1.8016502,0.64680459 1.8637302,0.78360459 1.8995702,0.89314059 L1.914,0.946 L1.95966709,0.950878664 C2.01440825,0.956693479 2.043853,0.961471257 2.043853,0.96880459 C2.0441854,0.97380459 2.01474034,0.98080459 1.95940659,0.986063849 L1.925,0.988 L1.9352422,1.03495659 C1.9488102,1.11332459 1.9462502,1.15700459 1.9398502,1.15780459 C1.9302502,1.16140459 1.9206502,1.11828459 1.8952422,1.04482859 L1.875,0.991 Z"></path></clipPath><clipPath id="i23"><path d="M0.775625282,0.000483347704 C0.937625282,0.0204833477 1.01662528,0.203483348 0.991625282,0.320483348 C0.979625282,0.442483348 0.925625282,0.547483348 0.874625282,0.632483348 C0.771625282,0.806483348 0.655625282,0.947483348 0.547625282,1.05448335 C0.329625282,1.26848335 0.157625282,1.35048335 0.149625282,1.33748335 C0.137625282,1.32148335 0.288625282,1.21248335 0.479625282,0.991483348 C0.574625282,0.880483348 0.677625282,0.740483348 0.769625282,0.572483348 C0.864625282,0.425483348 0.928625282,0.160483348 0.753625282,0.129483348 C0.579625282,0.113483348 0.402625282,0.287483348 0.296625282,0.426483348 C0.187625282,0.577483348 0.127625282,0.740483348 0.101625282,0.880483348 C0.0496252823,1.16348335 0.114625282,1.34448335 0.0916252823,1.34948335 C0.0816252823,1.35748335 -0.0213747177,1.17948335 0.00962528227,0.866483348 C0.0256252823,0.712483348 0.0816252823,0.530483348 0.197625282,0.357483348 C0.320625282,0.202483348 0.477625282,-0.0115166523 0.775625282,0.000483347704 Z"></path></clipPath><clipPath id="i24"><path d="M3.62674539,0.0225440766 C3.76574539,0.0415440766 3.84074539,0.0625440766 3.83975526,0.0705440766 C3.83774539,0.0945440766 3.52974539,0.0425440766 3.03974539,0.101544077 C2.55474539,0.157544077 1.88074539,0.358544077 1.29674539,0.827544077 C0.711745389,1.29754408 0.369745389,1.91254408 0.210745389,2.37354408 C0.0467453894,2.83854408 0.0317453894,3.15054408 0.0077453894,3.14756552 C-0.000254610598,3.14756552 -0.0042546106,3.06954408 0.0067453894,2.92954408 C0.0177453894,2.78854408 0.0497453894,2.58654408 0.122745389,2.34454408 C0.262745389,1.86354408 0.604745389,1.21554408 1.21374539,0.725544077 C1.82374539,0.236544077 2.53074539,0.0425440766 3.03074539,0.00954407657 C3.28274539,-0.00945592343 3.48774539,0.00254407657 3.62674539,0.0225440766 Z"></path></clipPath><clipPath id="i25"><path d="M3.16604325,0.431125724 C3.17101689,0.465125724 2.46401689,0.578125724 1.58401689,0.582125724 C0.70301689,0.588125724 -0.00398311039,0.482125724 0,0.448125724 C0.00348130433,0.415192391 0.534981034,0.445352391 1.24429211,0.450074761 L1.58301689,0.450125724 C2.45501689,0.447125724 3.16201689,0.393125724 3.16604325,0.431125724 Z"></path></clipPath><clipPath id="i26"><path d="M16.7013277,0 L16.7013277,11.1944 L0,11.1944 L0,0 L16.7013277,0 Z"></path></clipPath><clipPath id="i27"><path d="M14.9873277,0 L16.7013277,3.745 L16.1073277,4.061 C14.9551579,4.66160377 12.2423533,6.03075472 9.37123642,7.41061521 L8.61958024,7.77032347 C5.10369827,9.445445 1.53391259,11.0387736 0.44032768,11.183 C-1.86967232,11.486 5.66132768,5.802 5.66132768,5.802 L5.24832768,4.893 L14.9873277,0 Z"></path></clipPath><clipPath id="i28"><path d="M16.7371018,0.000414782457 C16.73905,0.00441478246 16.68305,0.0374147825 16.57605,0.0954147825 C16.43405,0.170414782 16.27805,0.253414782 16.10205,0.346414782 C15.62405,0.587414782 15.03705,0.885414782 14.34405,1.23641478 C12.85405,1.97741478 10.78205,2.97441478 8.47005003,4.02441478 C6.15705003,5.07441478 4.04305003,5.97941478 2.50505003,6.61441478 C1.78505003,6.90541478 1.17405003,7.15241478 0.678050028,7.35241478 C0.492050028,7.42441478 0.328050028,7.48741478 0.178050028,7.54541478 C0.0630500278,7.58741478 0.00205002781,7.60841478 0,7.60341478 C-0.00194997219,7.59941478 0.0560500278,7.57141478 0.168050028,7.52041478 C0.315050028,7.45641478 0.476050028,7.38541478 0.658050028,7.30541478 C0.798621456,7.24512907 0.948417375,7.18092499 1.10734449,7.11280254 L1.61142612,6.89668009 C1.87707044,6.78274131 2.16305003,6.65998621 2.46905003,6.52841478 C3.99705003,5.87241478 6.10405003,4.95441478 8.41605003,3.90541478 C10.72605,2.85541478 12.80305,1.87241478 14.30305,1.15241478 C15.00305,0.816414782 15.59705,0.531414782 16.07905,0.300414782 C16.25905,0.215414782 16.41805,0.140414782 16.56405,0.0724147825 C16.67505,0.0214147825 16.73505,-0.00358521754 16.7371018,0.000414782457 Z"></path></clipPath><clipPath id="i29"><path d="M0.997057085,0.315146886 C1.49605708,0.649146886 1.67905708,1.12214689 1.64605708,1.12814689 C1.61205708,1.14914689 1.38905708,0.734146886 0.923057085,0.424146886 C0.462057085,0.106146886 -0.00594291544,0.0541468864 5.70845643e-05,0.0141468864 C-0.00594291544,-0.0178531136 0.501057085,-0.0238531136 0.997057085,0.315146886 Z"></path></clipPath><clipPath id="i30"><path d="M0.535500062,0.4455 C0.782500062,0.6065 0.966500062,0.7625 0.946500062,0.7925 C0.926500062,0.8225 0.710500062,0.7165 0.463500062,0.5545 C0.217500062,0.3935 0.0335000621,0.2375 0.0535000621,0.2075 C0.0725000621,0.1775 0.288500062,0.2835 0.535500062,0.4455 Z"></path></clipPath><clipPath id="i31"><path d="M1.02673308,0.2605 C1.04173308,0.2935 0.824733079,0.4275 0.541733079,0.5595 C0.258733079,0.6915 0.0167330786,0.7725 0.000733078553,0.7395 C-0.0142669214,0.7065 0.202733079,0.5725 0.485733079,0.4405 C0.769733079,0.3085 1.01173308,0.2275 1.02673308,0.2605 Z"></path></clipPath><clipPath id="i32"><path d="M1.12826926,0.187796432 C1.15226926,0.211796432 0.953269263,0.439796432 0.629269263,0.615796432 C0.307269263,0.792796432 0.00826926301,0.838796432 0.00026926301,0.804796432 C-0.00973073699,0.768796432 0.260269263,0.669796432 0.566269263,0.499796432 C0.874269263,0.333796432 1.10326926,0.159796432 1.12826926,0.187796432 Z"></path></clipPath><clipPath id="i33"><path d="M1.62660778,0.204112956 C1.78420778,0.287312956 1.89700778,0.387152956 1.97422378,0.472400956 L2.009,0.514 L1.952,0.533 L1.98723278,0.566737956 L1.992,0.571 L1.93808926,0.5980526 C1.83157075,0.647890734 1.68416334,0.707890734 1.50060778,0.766112956 C1.29460778,0.831112956 1.04260778,0.889112956 0.758607783,0.923112956 C0.614607783,0.935112956 0.470607783,0.960112956 0.299607783,0.939112956 C0.217607783,0.925112956 0.121607783,0.898112956 0.0536077829,0.813112956 C-0.0153922171,0.730112956 -0.0133922171,0.600112956 0.0346077829,0.516112956 C0.498607783,-0.0728870437 1.25960778,-0.00688704375 1.62660778,0.204112956 Z M0.884607783,0.181112956 C0.630607783,0.216112956 0.303607783,0.343112956 0.151607783,0.575112956 C0.0846077829,0.695112956 0.177607783,0.796112956 0.320607783,0.812112956 C0.454607783,0.832112956 0.608607783,0.812112956 0.745607783,0.802112956 C1.02260778,0.776112956 1.27060778,0.729112956 1.47560778,0.676112956 C1.65783001,0.62944629 1.80686704,0.581989499 1.91701245,0.545418855 L1.952,0.533 L1.93139978,0.514664956 C1.84944778,0.442152956 1.73680778,0.359112956 1.58560778,0.287112956 C1.39960778,0.200112956 1.15260778,0.144112956 0.884607783,0.181112956 Z"></path></clipPath><clipPath id="i34"><path d="M0.968521032,0.386964434 C1.00752103,0.502964434 0.785521032,0.442964434 0.774521032,0.540964434 C0.751521032,0.741964434 0.703521032,0.918964434 0.648521032,1.05996443 C0.537521032,1.34496443 0.414521032,1.48996443 0.402521032,1.48196443 C0.383521032,1.47096443 0.476521032,1.31096443 0.560521032,1.03096443 C0.602521032,0.890964434 0.638521032,0.720964434 0.653521032,0.529964434 C0.679521032,0.355964434 0.630521032,0.0889644345 0.458521032,0.131964434 C0.292521032,0.188964434 0.202521032,0.419964434 0.162521032,0.589964434 C0.125521032,0.772964434 0.136521032,0.945964434 0.170521032,1.08396443 C0.238521032,1.36396443 0.372521032,1.50196443 0.353521032,1.51596443 C0.347521032,1.52696443 0.180521032,1.40696443 0.0805210317,1.10896443 C0.0325210317,0.961964434 0.00852103165,0.772964434 0.0435210317,0.566964434 C0.0925210317,0.375964434 0.148521032,0.116964434 0.425521032,0.00496443448 C0.580521032,-0.0430355655 0.943521032,0.269964434 0.968521032,0.386964434 Z"></path></clipPath><clipPath id="i35"><path d="M2.48700458,0.00234674963 C2.49500458,0.0253467496 2.19200458,0.10334675 1.77000458,0.35834675 C1.35100458,0.60734675 0.818004579,1.06734675 0.477004579,1.73534675 C0.136004579,2.40334675 0.0760045786,3.10434675 0.120004579,3.59034675 C0.161004579,4.08134675 0.275004579,4.37234675 0.252004579,4.37934675 C0.244004579,4.38234675 0.208004579,4.31234675 0.161004579,4.18034675 C0.114004579,4.04834675 0.0610045786,3.85034675 0.0270045786,3.59934675 C-0.0419954214,3.10334675 0.00500457863,2.37234675 0.360004579,1.67534675 C0.716004579,0.97934675 1.28100458,0.51334675 1.72400458,0.27834675 C1.94600458,0.15734675 2.13800458,0.0843467496 2.27300458,0.0453467496 C2.40800458,0.00634674963 2.48500458,-0.00565325037 2.48700458,0.00234674963 Z"></path></clipPath><clipPath id="i36"><path d="M2.88116015,0.00222719702 C2.89916015,0.031227197 2.30116015,0.424227197 1.49916015,0.787227197 C0.699160148,1.1542272 0.0101601479,1.3472272 0.000160147862,1.3142272 C-0.0118398521,1.2782272 0.652160148,1.0312272 1.44516015,0.668227197 C2.23916015,0.308227197 2.86216015,-0.030772803 2.88116015,0.00222719702 Z"></path></clipPath><clipPath id="i37"><path d="M32.624,0 C32.624,0 36.986,0.275 41.154,2.226 L41.439,2.3 L41.438,2.359 C44.715,3.958 47.637,6.649 48.479,11.036 C49.851,18.192 49.419,21.453 49.419,21.453 L40.106,21.287 L41.919,43.41 L15.169,45.976 L15.346,35.059 C15.346,35.059 14.9373101,33.9712653 14.4908254,32.7966687 L14.3322772,32.3801282 C14.0939127,31.7547966 13.857185,31.1381222 13.6771282,30.6786161 L13.671,30.664 L0,24.08 C0,24.08 1.67692555,19.3030031 3.51380375,14.5266419 L3.78358095,13.8282213 C5.27169875,9.99303324 6.8155,6.30923684 7.624,5.268 C12.458,-0.958 21.191,0.132 21.191,0.132 Z M13.518,30.277 C13.5482581,30.3521613 13.5822206,30.4375286 13.6192837,30.5314722 L13.671,30.664 L13.723,30.689 L12.416,21.596 L12.417569,21.6251301 C12.4402607,22.1646731 12.7134222,28.2789333 13.518,30.277 Z"></path></clipPath><clipPath id="i38"><path d="M14.956,0 L16.009,12.121 L0,12.121 L1.697,4.891 L14.956,0 Z"></path></clipPath><clipPath id="i39"><path d="M7.24701482,0.254633927 C9.25301482,0.246633927 11.0680148,0.310633927 12.3800148,0.387633927 C13.6920148,0.465633927 14.5010148,0.550633927 14.4990185,0.597633927 C14.4970148,0.647633927 13.6840148,0.650633927 12.3720148,0.637633927 C11.3620148,0.627633927 10.0573403,0.610533336 8.59863749,0.606814628 L7.70605761,0.60635309 L7.24801482,0.607633927 C5.24801482,0.617633927 3.43801482,0.664633927 2.12701482,0.705633927 C1.39868149,0.727300594 0.824051856,0.744028989 0.456621332,0.745873982 L0.261454873,0.745115409 C0.092008233,0.742411705 0.0010049398,0.733633927 0,0.716633927 C-0.00398518059,0.670633927 0.802014819,0.559633927 2.11301482,0.455633927 C3.42401482,0.351633927 5.24001482,0.264633927 7.24701482,0.254633927 Z"></path></clipPath><clipPath id="i40"><path d="M0.257,0 C0.306,-0.00199571962 0.377,0.69700428 0.453,1.82900428 C0.529,2.96100428 0.609,4.52600428 0.676,6.25500428 C0.744,7.98400428 0.785,9.55000428 0.797,10.6850043 C0.7985,10.8267543 0.799546875,10.9617543 0.800134766,11.0894809 L0.800515625,11.4503168 C0.7985,12.1262545 0.77975,12.5215054 0.743,12.5230086 C0.695,12.5250043 0.623,11.8260043 0.547,10.6940043 C0.471,9.56200428 0.391,7.99800428 0.324,6.26800428 C0.257,4.53900428 0.216,2.97300428 0.203,1.83900428 C0.2015,1.69725428 0.200453125,1.56223866 0.199865234,1.43448474 L0.199484375,1.07353546 C0.2015,0.397316513 0.22025,0.00150321028 0.257,0 Z"></path></clipPath><clipPath id="i41"><path d="M0,0 L19.512,21.457 L19.512,22.636 C18.1288636,25.4929545 13.9630537,25.6711074 13.5872014,25.6814004 L13.56,25.682 C3.558,26.381 0,0 0,0 Z"></path></clipPath><clipPath id="i42"><path d="M1.915,0 L2.417,10.744 L3.28,10.764 L1.24,15.202 L0,12.933 L1.915,0 Z"></path></clipPath><clipPath id="i43"><path d="M0.0504844958,0 C0.101484496,0 0.136484496,0.955 0.269484496,2.492 C0.400484496,4.028 0.659484496,6.143 1.1164845,8.45 C1.5764845,10.756 2.1284845,12.816 2.5494845,14.3 C2.7464845,14.989 2.9134845,15.576 3.0514845,16.059 C3.1684845,16.475 3.2234845,16.709 3.2024845,16.716162 C3.1814845,16.723 3.0864845,16.503 2.9324845,16.098 C2.7764845,15.694 2.5704845,15.103 2.3314845,14.367 C1.8534845,12.894 1.2624845,10.834 0.800484496,8.513 C0.340484496,6.191 0.114484496,4.055 0.0414844958,2.507 C0.00448449581,1.733 -0.00751550419,1.106 0.00448449581,0.673 C0.0124844958,0.24 0.0284844958,0.001 0.0504844958,0 Z"></path></clipPath><clipPath id="i44"><path d="M0.101704825,0.000856703761 C0.186704825,-0.0251432962 0.434704825,0.543856704 0.654704825,1.2718567 C0.874704825,1.9998567 0.983704825,2.6108567 0.898704825,2.6368567 C0.813704825,2.6628567 0.565704825,2.0938567 0.345704825,1.3658567 C0.125704825,0.637856704 0.0157048245,0.0268567038 0.101704825,0.000856703761 Z"></path></clipPath><clipPath id="i45"><path d="M0.609780247,0.000308137319 C0.701780247,0.0173081373 0.604780247,0.877308137 0.623780247,1.93430814 C0.635780247,2.99130814 0.757780247,3.84730814 0.666780247,3.86730814 C0.584780247,3.88830814 0.314780247,3.03430814 0.300780247,1.93930814 C0.281780247,0.843308137 0.526780247,-0.0186918627 0.609780247,0.000308137319 Z"></path></clipPath><clipPath id="i46"><path d="M7.13237939,3.38702797 C11.0313794,5.33502797 14.1603794,6.97902797 14.1203794,7.05902797 C14.0803794,7.13902797 10.8873794,5.62402797 6.98837939,3.67602797 C3.08837939,1.72702797 -0.0396206071,0.0830279715 0.000379392915,0.00302797153 C0.0403793929,-0.0769720285 3.23237939,1.43802797 7.13237939,3.38702797 Z"></path></clipPath><clipPath id="i47"><path d="M17.3482373,5.45423176 L16.3492373,30.9092318 C16.2359992,33.7938746 13.7232385,36.010501 10.6612394,35.9758109 L10.4362373,35.9692318 C7.24123733,35.8192318 4.70923733,33.2782318 4.77723733,30.2912318 C4.78332304,30.0225175 4.78901937,29.7525763 4.79434835,29.4835926 L4.80452304,28.9475495 C4.84493121,26.7247507 4.86084957,24.6695904 4.86503325,24.0462813 L4.86581855,23.924826 C4.86591406,23.9093811 4.86599243,23.896389 4.86605447,23.8859306 L4.86623733,23.8542318 C4.86623733,23.8542318 0.845237328,23.0792318 0.144237328,17.7882318 C-0.0885505505,16.0297772 -0.0132408627,13.4462478 0.183701877,10.8262455 L0.237714803,10.1424577 C0.623981819,5.47134104 1.34523733,0.902231763 1.34523733,0.902231763 C7.21923733,-1.31776824 13.3232373,0.694231763 17.3482373,5.45423176 Z"></path></clipPath><clipPath id="i48"><path d="M0.614239426,0.00138271496 L0.714196601,0.00217760602 C1.0851966,0.032177606 1.3691966,0.345177606 1.3471966,0.701177606 C1.3261966,1.05817761 1.0061966,1.32217761 0.635196601,1.29317761 C0.263196601,1.26317761 -0.0208033991,0.951177606 0.00119660091,0.594177606 C0.0231966009,0.237177606 0.342196601,-0.026822394 0.714196601,0.00217760602 Z"></path></clipPath><clipPath id="i49"><path d="M1.33887401,0.127738532 C1.79187401,0.136738532 2.17887401,0.310738532 2.40287401,0.485738532 C2.63087401,0.660738532 2.71187401,0.821738532 2.67187401,0.859738532 C2.59087401,0.947738532 2.06687401,0.559738532 1.33987401,0.548738532 C0.612874011,0.528738532 0.0918740106,0.893738532 0.00987401056,0.803738532 C-0.0301259894,0.762738532 0.0498740106,0.605738532 0.277874011,0.439738532 C0.500874011,0.274738532 0.885874011,0.117738532 1.33887401,0.127738532 Z"></path></clipPath><clipPath id="i50"><path d="M0.614239426,0.00139805392 L0.714196601,0.00217040554 C1.0851966,0.0321704055 1.3691966,0.345170406 1.3471966,0.701170406 C1.3251966,1.05817041 1.0061966,1.32217041 0.635196601,1.29317041 C0.263196601,1.26317041 -0.0208033991,0.951170406 0.00119660091,0.594170406 C0.0231966009,0.238170406 0.342196601,-0.0268295945 0.714196601,0.00217040554 Z"></path></clipPath><clipPath id="i51"><path d="M1.33987401,0.127375471 C1.79287401,0.136375471 2.17887401,0.310375471 2.40287401,0.485375471 C2.63187401,0.660375471 2.71187401,0.821375471 2.67287401,0.860375471 C2.59087401,0.947375471 2.06687401,0.559375471 1.34087401,0.548375471 C0.613874011,0.528375471 0.0918740106,0.893375471 0.00987401056,0.803375471 C-0.0301259894,0.763375471 0.0498740106,0.605375471 0.277874011,0.439375471 C0.500874011,0.274375471 0.886874011,0.117375471 1.33987401,0.127375471 Z"></path></clipPath><clipPath id="i52"><path d="M2.32833878,0.000474957508 C2.40833878,0.0324749575 1.81433878,1.67347496 0.999338776,3.66747496 C0.795338776,4.15547496 0.600338776,4.62147496 0.413338776,5.06647496 C0.318338776,5.28047496 0.235338776,5.47847496 0.275338776,5.61447496 C0.303338776,5.74147496 0.478338776,5.78247496 0.663338776,5.80647496 C1.39333878,5.91947496 1.84333878,6.00947496 1.83933878,6.05047496 C1.83533878,6.09147496 1.37833878,6.07647496 0.642338776,6.01747496 C0.550338776,6.01047496 0.446338776,6.00547496 0.328338776,5.96547496 C0.209338776,5.93047496 0.0763387761,5.82647496 0.0293387761,5.68647496 C-0.0576612239,5.40547496 0.0693387761,5.16947496 0.144338776,4.96047496 C0.323338776,4.51147496 0.511338776,4.04347496 0.707338776,3.55147496 C1.52233878,1.55747496 2.24733878,-0.0315250425 2.32833878,0.000474957508 Z"></path></clipPath><clipPath id="i53"><path d="M7.105,0 C7.105,0 5.3,3.575 0.039,2.946 L0,1.7 C0,1.7 3.539,2.02 7.105,0 Z"></path></clipPath><clipPath id="i54"><path d="M1.40902457,0.0396290925 C2.23602457,0.196629092 2.70102457,0.760629092 2.55002457,0.975629092 C2.40102457,1.20262909 1.84802457,1.10262909 1.22802457,0.990629092 C0.611024567,0.866629092 0.0590245674,0.756629092 0.00402456736,0.489629092 C-0.0569754326,0.234629092 0.583024567,-0.119370908 1.40902457,0.0396290925 Z"></path></clipPath><clipPath id="i55"><path d="M2.70157755,0.584917006 C2.64557755,0.849917006 2.05357755,0.946917006 1.37057755,0.981917006 C0.686577549,1.00891701 0.0885775492,0.967917006 0.00757754916,0.708917006 C-0.0734224508,0.457917006 0.503577549,0.0509170056 1.32557755,0.0139170056 C2.14757755,-0.0250829944 2.75957755,0.327917006 2.70157755,0.584917006 Z"></path></clipPath><clipPath id="i56"><path d="M0.385836421,0.104529289 C0.567836421,0.051529289 0.779836421,0.143529289 0.866836421,0.311529289 C0.953836421,0.479529289 0.905836421,0.706529289 0.757836421,0.823529289 C0.609836421,0.942529289 0.377836421,0.938529289 0.233836421,0.816529289 C0.0888364214,0.694529289 0.0468364214,0.467529289 0.137836421,0.301529289 C0.214836421,0.162529289 0.387836421,0.074529289 0.540836421,0.117529289 Z"></path></clipPath><clipPath id="i57"><path d="M0.419330923,0.016112262 C0.737330923,-0.053887738 0.886330923,0.125112262 0.853330923,0.154112262 C0.830330923,0.199112262 0.677330923,0.153112262 0.505330923,0.250112262 C0.421330923,0.298112262 0.351330923,0.376112262 0.338330923,0.479112262 C0.320330923,0.584112262 0.365330923,0.719112262 0.450330923,0.780112262 C0.531330923,0.842112262 0.674330923,0.842112262 0.764330923,0.793112262 C0.856330923,0.748112262 0.901330923,0.660112262 0.912330923,0.565112262 C0.933330923,0.372112262 0.821330923,0.259112262 0.849330923,0.218112262 C0.855330923,0.173112262 1.09733092,0.225112262 1.16133092,0.551112262 C1.19233092,0.700112262 1.13633092,0.938112262 0.937330923,1.06811226 C0.753330923,1.19411226 0.473330923,1.22811226 0.240330923,1.06411226 C0.016330923,0.892112262 -0.036669077,0.617112262 0.022330923,0.405112262 C0.080330923,0.180112262 0.272330923,0.048112262 0.419330923,0.016112262 Z"></path></clipPath><clipPath id="i58"><path d="M0.0816228033,2.43982969 C3.2496228,0.00182968726 7.6896228,-0.675170313 11.4396228,0.708829687 C15.1896228,2.09182969 18.1266228,5.48882969 18.9536228,9.39982969 C19.0214228,9.72082969 19.0769028,10.0472297 19.1294708,10.3750057 L19.2335117,11.0312001 C19.4097339,12.1239408 19.6232895,13.202163 20.2226228,14.1168297 C21.0156228,15.3268297 22.3666228,16.0548297 23.2976228,17.1618297 C24.4436228,18.5248297 24.8696228,20.4588297 24.4046228,22.1768297 C24.2859561,22.6138297 24.1139561,23.0364964 23.9334376,23.4560149 L23.6618728,24.0843297 C23.3951228,24.7130797 23.1596228,25.3473297 23.1066228,26.0248297 C22.9991561,27.3984964 23.6465561,28.6619375 24.3653931,29.9067761 L24.6997478,30.4803297 C25.5358728,31.9125797 26.3271228,33.3388297 26.0236228,34.8998297 C25.6896228,36.6118297 24.1086228,37.8258297 23.5686228,39.4838297 C23.2056228,40.5978297 23.3266228,41.8718297 22.7216228,42.8748297 C21.9876228,44.0898297 20.3946228,44.5168297 18.9796228,44.4008297 C15.4816228,44.1128297 12.4966228,40.8338297 12.5376228,37.3248297 C12.5458402,36.6275688 12.6559479,35.9221567 12.7803284,35.2184884 L12.888392,34.616002 C13.1391597,33.2122739 13.3468837,31.8268297 12.8106228,30.5388297 C12.2056228,29.0868297 10.6916228,27.8768297 10.9206228,26.3198297 C11.1076228,25.0508297 12.4306228,24.1688297 12.5896228,22.8958297 C12.7156228,21.8818297 12.0656228,20.9378297 11.9296228,19.9258297 C11.7166228,18.3578297 13.2466228,17.2388297 13.8736228,15.7858297 C14.5996228,14.1038297 12.9706228,14.4958297 11.2366228,12.6208297 C9.5036228,10.7458297 9.9816228,8.78282969 9.9816228,8.78282969 C9.5086228,7.10182969 7.5656228,7.88982969 3.3726228,7.20682969 C-0.149497197,6.63394969 -0.0765851967,3.65991289 0.0369129153,2.72288684 L0.0605598033,2.55489169 C0.0726028033,2.48067969 0.0816228033,2.43982969 0.0816228033,2.43982969 Z"></path></clipPath><clipPath id="i59"><path d="M0.000890352226,0 C0.000890352226,0 0.492890352,0.232 1.14889035,0.944 C1.77889035,1.654 2.55489035,2.919 2.66389035,4.671 C2.70089035,5.535 2.56889035,6.513 2.11589035,7.438 C1.68789035,8.357 1.00389035,9.227 0.791890352,10.296 C0.574890352,11.372 1.08389035,12.481 1.63589035,13.56 C1.90589035,14.11 2.19189035,14.679 2.36689035,15.312 C2.54089035,15.941 2.56589035,16.65 2.37489035,17.298 C2.19889035,17.948 1.90789035,18.531 1.68089035,19.113 C1.44989035,19.696 1.24989035,20.282 1.09589035,20.868 C0.785890352,22.041 0.621890352,23.209 0.640890352,24.322 C0.647890352,26.556 1.41389035,28.509 2.46489035,29.821 C3.49389035,31.165 4.71089035,31.89 5.57589035,32.247 C6.45289035,32.602 6.98689035,32.656 6.97889035,32.692 C6.97689035,32.703 6.84589035,32.689 6.59589035,32.652 C6.34689035,32.613 5.98089035,32.531 5.52989035,32.364 C4.63489035,32.037 3.36589035,31.324 2.28589035,29.963 C1.74889035,29.288 1.24589035,28.47 0.906890352,27.508 C0.559890352,26.551 0.360890352,25.468 0.342890352,24.326 C0.316890352,23.184 0.477890352,21.986 0.789890352,20.787 C0.945890352,20.187 1.14789035,19.589 1.38289035,18.995 C1.61489035,18.398 1.89989035,17.823 2.06289035,17.214 C2.23989035,16.608 2.21589035,15.988 2.05689035,15.396 C1.92809035,14.9232 1.72569035,14.4728 1.51317835,14.030464 L1.35289035,13.7 C1.08289035,13.151 0.807890352,12.603 0.629890352,12.02 C0.449890352,11.443 0.382890352,10.82 0.499890352,10.239 C0.746890352,9.072 1.45589035,8.208 1.87489035,7.321 C2.31789035,6.443 2.45589035,5.515 2.43589035,4.681 C2.36089035,2.993 1.64089035,1.745 1.05389035,1.025 C0.440890352,0.305 -0.0231096478,0.031 0.000890352226,0 Z"></path></clipPath><clipPath id="i60"><path d="M0.0596489689,0 C0.0696489689,0 0.0719614689,0.0212522596 0.0723364689,0.061990024 L0.0722068392,0.168922743 C0.0730170244,0.322766907 0.0841489689,0.576286153 0.178648969,0.907036153 C0.328648969,1.46703615 0.794648969,2.23303615 1.66664897,2.82003615 C2.52664897,3.42903615 3.78564897,3.69503615 5.18264897,3.83603615 C6.56564897,3.99203615 8.21764897,4.07903615 9.66964897,4.99603615 C10.386649,5.44303615 10.941649,6.14503615 11.201649,6.89503615 C11.477649,7.63203615 11.631649,8.35803615 12.002649,8.92803615 C12.757649,10.0810362 14.007649,10.6090362 15.016649,10.8190362 C16.051649,11.0280362 16.923649,10.9960362 17.517649,10.9850362 C18.114649,10.9660362 18.446649,10.9490362 18.4486581,10.9730362 C18.450649,10.9940362 18.123649,11.0530362 17.525649,11.1110362 C16.928649,11.1600362 16.048649,11.2290362 14.972649,11.0430362 C13.922649,10.8520362 12.593649,10.3350362 11.752649,9.08903615 C11.5160775,8.7318933 11.3614653,8.3316484 11.2222,7.92393994 L11.0164857,7.3112344 C10.9813428,7.20966881 10.9450775,7.10875044 10.906649,7.00903615 C10.653649,6.30203615 10.164649,5.69103615 9.49464897,5.26703615 C8.13864897,4.40703615 6.54364897,4.30203615 5.14864897,4.13203615 C3.74564897,3.97403615 2.42864897,3.67603615 1.53564897,3.00703615 C0.636648969,2.36703615 0.175648969,1.53603615 0.0576489689,0.937036153 C-0.0103510311,0.638036153 -0.00535103114,0.397036153 0.00864896886,0.238036153 C0.0316489689,0.0790361533 0.0486489689,-0.00196384667 0.0596489689,0 Z"></path></clipPath><clipPath id="i61"><path d="M0.00152017684,0.00126333591 C0.00652017684,-0.00273666409 0.0164401768,0.00286333591 0.0320161768,0.0166233359 L0.0964481768,0.0809433359 C0.179320177,0.166863336 0.319720177,0.313263336 0.537520177,0.481263336 C0.898520177,0.761263336 1.50752018,1.05926334 2.32452018,1.17326334 C3.14052018,1.30326334 4.12252018,1.25126334 5.22452018,1.12726334 C6.31652018,1.04026334 7.60452018,0.903263336 8.85252018,1.43326334 C9.47052018,1.69526334 9.97452018,2.15926334 10.3325202,2.66226334 C10.6975202,3.16526334 10.9585202,3.68926334 11.2345202,4.16426334 C11.5075202,4.63826334 11.7885202,5.07226334 12.1275202,5.40626334 C12.4625202,5.74526334 12.8305202,6.00626334 13.1935202,6.19326334 C13.9195202,6.57126334 14.5925202,6.68726334 15.0505202,6.71226334 C15.1529646,6.71826334 15.2453844,6.72115222 15.3272201,6.72232369 L15.5404155,6.72207952 C15.6906859,6.71990531 15.7713097,6.71570778 15.7735466,6.73126334 C15.7765202,6.74726334 15.5235202,6.82626334 15.0475202,6.83826334 C14.5755202,6.85126334 13.8685202,6.76726334 13.0905202,6.39726334 C12.7025202,6.21326334 12.3055202,5.94926334 11.9395202,5.59726334 C11.5675202,5.24626334 11.2625202,4.79226334 10.9775202,4.31426334 C10.4185202,3.37126334 9.88052018,2.20926334 8.72252018,1.72826334 C7.58652018,1.24126334 6.33652018,1.34926334 5.24952018,1.42326334 C4.15252018,1.53126334 3.12552018,1.56326334 2.28652018,1.39826334 C1.44252018,1.25126334 0.808520177,0.901263336 0.457520177,0.578263336 C0.280520177,0.418263336 0.159520177,0.275263336 0.0935201768,0.169263336 C0.0235201768,0.0652633359 -0.00747982316,0.00826333591 0.00152017684,0.00126333591 Z"></path></clipPath><clipPath id="i62"><path d="M0.00157853115,0.00075 C0.00557853115,-0.00325 0.0305785311,0.00875 0.0765785311,0.03675 C0.122578531,0.06675 0.195578531,0.10575 0.274578531,0.17775 C0.440578531,0.31275 0.660578531,0.55175 0.846578531,0.91675 C1.23857853,1.63975 1.40657853,2.85575 1.25457853,4.28375 C1.20457853,4.99675 1.12057853,5.77875 1.22257853,6.59475 C1.30457853,7.41875 1.72957853,8.19575 2.22757853,9.00175 C2.46857853,9.40975 2.72257853,9.83575 2.90157853,10.31875 C3.08557853,10.79775 3.16857853,11.34575 3.08857853,11.88375 C2.93757853,12.96775 2.29857853,13.88475 1.97857853,14.89175 C1.81257853,15.39475 1.75957853,15.91175 1.84957853,16.40975 C1.94357853,16.90575 2.16157853,17.36975 2.42657853,17.79675 C2.95857853,18.65375 3.65157853,19.39075 4.11857853,20.24075 C5.07057853,21.92375 5.39057853,23.67675 5.41157853,25.11675 C5.42257853,26.56675 5.15657853,27.72375 4.88957853,28.48175 C4.75057853,28.86075 4.63357853,29.15075 4.53257853,29.33775 C4.43957853,29.52775 4.38557853,29.62475 4.37557853,29.619934 C4.34357853,29.60575 4.54157853,29.20675 4.76957853,28.44375 C4.99757853,27.68375 5.22257853,26.54075 5.18257853,25.12175 C5.13457853,23.71275 4.79557853,22.00875 3.86157853,20.38975 C3.40857853,19.57875 2.71957853,18.85475 2.15857853,17.96375 C1.87957853,17.51875 1.63957853,17.01975 1.53457853,16.46775 C1.43057853,15.91475 1.49357853,15.32775 1.67157853,14.79475 C2.01857853,13.72475 2.64157853,12.82375 2.77557853,11.84075 C2.94157853,10.85375 2.44257853,9.95375 1.97157853,9.15375 C1.73257853,8.74575 1.49357853,8.34275 1.30757853,7.92175 C1.12157853,7.49975 1.00457853,7.05675 0.956578531,6.62775 C0.862578531,5.76575 0.963578531,4.97475 1.02757853,4.26475 C1.20657853,2.84875 1.07457853,1.68575 0.733578531,0.97075 C0.402578531,0.24775 -0.0294214689,0.03075 0.00157853115,0.00075 Z"></path></clipPath><clipPath id="i63"><path d="M33.2791951,0 L33.2889261,0.0274457031 C33.4272319,0.418209883 35.0145542,4.92505752 36.4267452,9.90883521 L36.622495,10.6069751 C37.6910704,14.4597409 38.6120076,18.4937125 38.6511951,21.064 C38.8341951,33.173 35.4331951,45.13 35.8251951,54.736 L36.7181951,84.358 L4.41919512,84.358 C4.41919512,84.358 4.37745512,83.96235 4.30208412,83.23556 L4.25289067,82.7602653 C3.81924537,78.5626038 2.61705919,66.724048 1.60034785,54.8341348 L1.47684444,53.3784865 C0.721756619,44.4067705 0.0946251186,35.5824 0.0061951186,30.173 C-0.233804881,15.553 6.57919512,1.129 6.57919512,1.129 L33.2791951,0 Z"></path></clipPath><clipPath id="i64"><path d="M34.0689324,0.000715151911 C34.0738121,0.0107151519 33.9228121,0.124715152 33.6328121,0.330715152 C33.5588121,0.383715152 33.4778121,0.440715152 33.3898121,0.502715152 C33.3068121,0.573715152 33.2248121,0.662715152 33.1308121,0.752715152 C32.9438121,0.932715152 32.7248121,1.13671515 32.5368121,1.41771515 C31.6738121,2.47371515 31.0458121,4.36071515 30.4478121,6.71371515 C30.1178121,7.88271515 29.7848121,9.19371515 29.0958121,10.4777152 C28.9118121,10.7907152 28.7458121,11.1237152 28.5028121,11.4147152 C28.3868121,11.5637152 28.2818121,11.7237152 28.1548121,11.8657152 L27.7428121,12.2767152 C27.1858121,12.8257152 26.4798121,13.2387152 25.7348121,13.5647152 C24.2408121,14.2207152 22.5528121,14.5307152 21.0118121,15.3037152 C19.4608121,16.0597152 18.2978121,17.5237152 17.5858121,19.2107152 C16.8338121,20.8897152 16.3778121,22.6527152 15.7508121,24.2987152 C15.1348121,25.9317152 14.2958121,27.5217152 12.9628121,28.5257152 C11.6418121,29.5657152 10.0088121,29.8037152 8.59381212,29.8947152 C7.15581212,29.9787152 5.82481212,29.9377152 4.63081212,30.1177152 C3.44181212,30.2827152 2.38781212,30.6597152 1.64281212,31.2457152 C0.894812117,31.8337152 0.458812117,32.5707152 0.253812117,33.2017152 C0.0408121173,33.8397152 0.0798121173,34.3777152 0.149812117,34.7207152 C0.218812117,35.0687152 0.316812117,35.2357152 0.294812117,35.2447152 C0.294812117,35.2447152 0.178812117,35.0877152 0.0868121173,34.7357152 C-0.00618788273,34.3897152 -0.0671878827,33.8317152 0.133812117,33.1647152 C0.327812117,32.5047152 0.761812117,31.7317152 1.52981212,31.1047152 C2.30081212,30.4777152 3.38381212,30.0757152 4.59681212,29.8927152 C5.81281212,29.6937152 7.15881212,29.7227152 8.57581212,29.6277152 C9.97681212,29.5267152 11.5398121,29.2807152 12.7828121,28.2887152 C14.0408121,27.3317152 14.8498121,25.8027152 15.4548121,24.1867152 C16.0708121,22.5597152 16.5238121,20.7937152 17.2908121,19.0777152 C18.0108121,17.3617152 19.2438121,15.8037152 20.8688121,15.0227152 C22.4718121,14.2267152 24.1598121,13.9257152 25.6168121,13.2917152 C26.3428121,12.9777152 27.0168121,12.5877152 27.5498121,12.0687152 L27.9448121,11.6807152 C28.0678121,11.5447152 28.1698121,11.3917152 28.2818121,11.2507152 C28.5168121,10.9737152 28.6788121,10.6517152 28.8608121,10.3507152 C29.5398121,9.11171515 29.8858121,7.81471515 30.2278121,6.65271515 C30.8518121,4.31171515 31.5248121,2.39471515 32.4378121,1.34071515 C32.6378121,1.05971515 32.8688121,0.857715152 33.0668121,0.681715152 C33.1648121,0.593715152 33.2518121,0.506715152 33.3398121,0.439715152 C33.4318121,0.380715152 33.5168121,0.326715152 33.5958121,0.277715152 C33.9018121,0.0857151519 34.0638121,-0.00928484809 34.0689324,0.000715151911 Z"></path></clipPath><clipPath id="i65"><path d="M36.7832989,0 C36.7942989,-0.000990986168 36.8062989,0.181009014 36.8172989,0.530009014 C36.8232989,0.878009014 36.7812989,1.39500901 36.6322989,2.04400901 C36.3222989,3.33400901 35.3802989,5.10500901 33.6162989,6.70800901 C32.7442989,7.51300901 31.6922989,8.29100901 30.4892989,8.99100901 C29.2932989,9.70200901 27.9732989,10.377009 26.6212989,11.141009 C25.2732989,11.907009 23.8842989,12.774009 22.6632989,13.924009 C21.4272989,15.060009 20.5002989,16.554009 19.6662989,18.136009 C18.8232989,19.716009 18.0772989,21.324009 17.0672989,22.716009 C16.5652989,23.411009 15.9992989,24.046009 15.3722989,24.590009 C14.7422989,25.129009 14.0542989,25.568009 13.3572989,25.932009 C11.9562989,26.659009 10.5292989,27.109009 9.20829886,27.523009 C7.88329886,27.932009 6.64729886,28.295009 5.56729886,28.748009 C4.48529886,29.194009 3.54729886,29.699009 2.79029886,30.235009 C2.03229886,30.771009 1.45529886,31.334009 1.04729886,31.842009 C0.221298864,32.865009 0.0472988641,33.605009 0.00129886413,33.581009 C-0.00970113587,33.577009 0.0492988641,33.405009 0.173298864,33.078009 C0.316298864,32.762009 0.538298864,32.290009 0.948298864,31.765009 C1.34829886,31.235009 1.92429886,30.648009 2.68429886,30.088009 C3.44529886,29.529009 4.38929886,29.003009 5.47929886,28.537009 C6.56829886,28.065009 7.81029886,27.687009 9.12829886,27.267009 C10.4432989,26.844009 11.8532989,26.387009 13.2182989,25.669009 C13.8992989,25.309009 14.5642989,24.880009 15.1712989,24.356009 C15.7752989,23.828009 16.3222989,23.212009 16.8102989,22.531009 C17.7942989,21.170009 18.5332989,19.574009 19.3812989,17.985009 C20.2182989,16.396009 21.1722989,14.859009 22.4462989,13.694009 C23.7012989,12.518009 25.1162989,11.646009 26.4752989,10.882009 C27.8392989,10.121009 29.1612989,9.45500901 30.3542989,8.76100901 C31.5512989,8.07600901 32.5932989,7.32200901 33.4622989,6.53900901 C35.2182989,4.98200901 36.1692989,3.26800901 36.5112989,2.01200901 C36.8442989,0.743009014 36.7332989,-0.00299098617 36.7832989,0 Z"></path></clipPath><clipPath id="i66"><path d="M32.6879564,0 C32.6879564,0 32.9349564,0.684 32.9449564,1.983 C32.9349564,3.26 32.6169564,5.21 31.2709564,7.133 C30.6139564,8.092 29.6769564,9.004 28.4859564,9.693 C27.2829564,10.359 25.8729564,10.792 24.3879564,11.123 C22.9059564,11.473 21.3269564,11.736 19.7929564,12.305 C18.2499564,12.836 16.8159564,13.848 15.9139564,15.323 C15.0039564,16.794 14.5359564,18.455 13.9729564,20.01 C13.6919564,20.791 13.3919564,21.555 13.0229564,22.273 C12.6449564,22.986 12.1839564,23.643 11.6369564,24.196 C10.5269564,25.321 9.06495643,25.81 7.76595643,26.148 C6.44895643,26.481 5.20895643,26.694 4.12495643,27.051 C1.97695643,27.785 0.612956431,29.289 0.248956431,30.49 C0.0529564314,31.093 0.0769564314,31.598 0.129956431,31.926 C0.199956431,32.252 0.254956431,32.423 0.240956431,32.4280714 C0.235956431,32.43 0.217956431,32.39 0.186956431,32.308 C0.159956431,32.225 0.102956431,32.106 0.0669564314,31.939 C-0.00904356861,31.608 -0.0560435686,31.085 0.128956431,30.453 C0.473956431,29.192 1.84395643,27.621 4.05395643,26.835 C5.15195643,26.457 6.39995643,26.229 7.69895643,25.889 C8.98295643,25.543 10.3819564,25.058 11.4269564,23.985 C11.9459564,23.455 12.3849564,22.824 12.7499564,22.131 C13.1049564,21.431 13.3989564,20.68 13.6749564,19.904 C14.2309564,18.358 14.6969564,16.679 15.6399564,15.152 C16.5769564,13.613 18.1029564,12.544 19.6829564,12.009 C21.2589564,11.43 22.8469564,11.173 24.3219564,10.833 C25.7999564,10.512 27.1819564,10.095 28.3549564,9.46 C29.5119564,8.803 30.4319564,7.928 31.0849564,7.001 C32.4219564,5.142 32.7719564,3.239 32.8189564,1.981 C32.8479564,0.702 32.6449564,0.006 32.6879564,0 Z"></path></clipPath><clipPath id="i67"><path d="M31.0851538,0 C31.0961538,-0.000994402465 31.1111538,0.132005598 31.1281538,0.389005598 C31.1431538,0.645005598 31.1231538,1.0280056 31.0141538,1.5080056 C30.7951538,2.4620056 30.0581538,3.7690056 28.6711538,4.8560056 C27.9891538,5.4060056 27.1631538,5.9110056 26.2141538,6.3150056 C25.2681538,6.7200056 24.2211538,7.0410056 23.1291538,7.3820056 C22.0371538,7.7230056 20.8911538,8.0800056 19.7771538,8.6060056 C18.6551538,9.1190056 17.6191538,9.8710056 16.7261538,10.8310056 C15.8221538,11.7780056 15.0421538,12.8120056 14.1771538,13.7260056 C13.3151538,14.6440056 12.3361538,15.4010056 11.3211538,15.9610056 C9.28115377,17.0870056 7.16615377,17.4730056 5.42715377,17.4930056 C3.67415377,17.5120056 2.28315377,17.1440056 1.37015377,16.8190056 C0.910153775,16.6590056 0.568153775,16.4980056 0.341153775,16.3780056 C0.112153775,16.2640056 -0.00484622532,16.1990056 0,16.1890056 C0.00515377468,16.1790056 0.132153775,16.2240056 0.368153775,16.3190056 C0.602153775,16.4190056 0.949153775,16.5600056 1.41115377,16.7000056 C2.32615377,16.9850056 3.70215377,17.3130056 5.42315377,17.2650056 C7.13115377,17.2170056 9.19515377,16.8130056 11.1761538,15.7010056 C12.1631538,15.1470056 13.1051538,14.4120056 13.9471538,13.5090056 C14.7941538,12.6090056 15.5711538,11.5740056 16.4931538,10.6080056 C17.4011538,9.6290056 18.4921538,8.8390056 19.6421538,8.3200056 C20.7861538,7.7850056 21.9461538,7.4310056 23.0411538,7.0980056 C24.1371538,6.7650056 25.1781538,6.4550056 26.1101538,6.0680056 C27.0411538,5.6850056 27.8551538,5.2020056 28.5301538,4.6770056 C29.9011538,3.6370056 30.6421538,2.3940056 30.8921538,1.4760056 C31.1371538,0.548005598 31.0401538,-0.000994402465 31.0851538,0 Z"></path></clipPath><clipPath id="i68"><path d="M4.98930612,0.000604312058 C5.76830612,-0.0333956879 5.66330612,1.37860431 5.66330612,1.37860431 C5.66330612,1.37860431 5.78729068,2.82538826 5.98797893,4.34717866 L6.06191802,4.8851619 C6.27999979,6.40561434 6.56922278,7.83968765 6.88230612,7.81560431 C7.55430612,7.76460431 7.35530612,3.94060431 7.19830612,2.65760431 C7.04230612,1.39060431 7.57930612,0.785604312 8.19630612,1.16860431 C8.61630612,1.42960431 9.19230612,5.34260431 9.31830612,6.61560431 C9.44530612,7.88760431 9.88030612,9.43860431 10.2363061,9.38560431 C10.8993061,9.28760431 9.75930612,4.76160431 10.5683061,4.49860431 C11.1633061,4.30660431 11.4373061,4.57360431 11.6673061,6.27860431 C11.7116394,6.60527098 11.8155214,7.15277792 11.9231747,7.73056959 L12.0150717,8.22879181 C12.0601811,8.47716681 12.1030561,8.72110431 12.1393061,8.94560431 C12.2363061,9.55060431 12.4133061,10.6396043 12.2073061,11.2146043 C12.0283061,11.7136043 11.8853061,12.1586043 11.7643061,12.5616043 C12.5953061,16.5966043 15.9423061,26.6366043 20.2593061,34.1306043 C20.2593061,34.1306043 21.0873061,32.9406043 21.4263061,31.2016043 L26.5893061,31.0796043 L32.3013061,31.0826043 C32.3013061,31.0826043 29.7073061,44.0886043 23.3153061,47.0226043 C11.8913061,52.2666043 4.60530612,23.6186043 2.94430612,14.6636043 C1.95630612,12.0206043 0.824306115,8.82960431 0.439306115,7.09360431 C-0.237860552,4.0439932 -0.0177000577,3.80678024 0.337396479,3.76456299 L0.401306115,3.75860431 C1.44830612,3.68060431 1.87630612,9.38660431 2.49330612,8.08860431 C3.10830612,6.79060431 1.16130612,1.19060431 2.25930612,1.15360431 C3.68830612,1.10560431 4.02730612,7.09060431 4.09330612,7.59460431 C4.15730612,8.08360431 4.88730612,8.00060431 4.80330612,7.55060431 C4.68230612,6.90260431 3.58530612,0.0616043121 4.98930612,0.000604312058 Z"></path></clipPath><clipPath id="i69"><path d="M6.017,9.311 L6.0225135,9.30238042 L6.0331615,9.27175642 C6.1001615,9.04775642 6.0891615,8.72775642 6.0791615,8.43875642 C6.0661615,8.14175642 6.0411615,7.84075642 6.0151615,7.53775642 C5.9711615,7.01775642 5.9211615,6.49775642 5.9021615,5.97275642 C5.8951615,5.70875642 5.8931615,5.44475642 5.9241615,5.17275642 C5.9431615,5.03575642 5.9621615,4.89775642 6.0271615,4.74975642 C6.0591615,4.67675642 6.1041615,4.59775642 6.1841615,4.52875642 C6.2201615,4.49575642 6.2781615,4.47075642 6.3241615,4.44975642 L6.4281615,4.41975642 C6.5671615,4.38575642 6.7441615,4.36475642 6.9171615,4.43975642 C7.0891615,4.51675642 7.1931615,4.65875642 7.2601615,4.78375642 C7.3991615,5.04275642 7.4531615,5.29875642 7.5121615,5.55175642 C7.6121615,6.05975642 7.6711615,6.55675642 7.7671615,7.04175642 C7.9291615,8.02275642 8.1311615,8.96375642 8.2421615,9.93375642 C8.2831615,10.4167564 8.3321615,10.9107564 8.1661615,11.4167564 C8.0191615,11.8587564 7.8751615,12.2957564 7.7311615,12.7277564 L7.744,12.687 L7.92479981,13.464588 C8.57583569,16.1692234 9.40875814,18.6584075 10.2077107,20.9095707 L10.4461615,21.5777564 C11.4051615,24.2217564 12.3591615,26.5117564 13.1971615,28.3877564 C14.0321615,30.2667564 14.7761615,31.7187564 15.2801615,32.7167564 C15.5311615,33.1927564 15.7291615,33.5687564 15.8771615,33.8487564 C16.0101615,34.1077564 16.0761615,34.2437564 16.0681615,34.2488975 C16.0591615,34.2537564 15.9781615,34.1257564 15.8281615,33.8767564 C15.6691615,33.6027564 15.4551615,33.2347564 15.1831615,32.7687564 C14.6481615,31.7847564 13.8741615,30.3437564 13.0111615,28.4727564 C12.1441615,26.6047564 11.1641615,24.3187564 10.1831615,21.6747564 C9.2111615,19.0277564 8.1651615,16.0457564 7.4101615,12.7137564 L7.4001615,12.6717564 L7.4131615,12.6327564 C7.5571615,12.1937564 7.7021615,11.7507564 7.8481615,11.3027564 C7.9811615,10.9117564 7.9471615,10.4307564 7.9031615,9.96875642 C7.7941615,9.03675642 7.5851615,8.06675642 7.4221615,7.09075642 C7.3261615,6.60175642 7.2651615,6.10475642 7.1701615,5.62475642 C7.0601615,5.16375642 6.9241615,4.59175642 6.5131615,4.76075642 L6.4321615,4.78375642 C6.4241615,4.79475642 6.4181615,4.78975642 6.4081615,4.79975642 C6.3911615,4.81575642 6.3671615,4.84775642 6.3491615,4.89175642 C6.3091615,4.97875642 6.2891615,5.09875642 6.2741615,5.21475642 C6.2461615,5.45375642 6.2471615,5.70675642 6.2551615,5.96075642 C6.2731615,6.46975642 6.3221615,6.98575642 6.3671615,7.50775642 C6.3931615,7.81175642 6.4181615,8.11575642 6.4311615,8.42375642 C6.4371615,8.73475642 6.4661615,9.03175642 6.3661615,9.38775642 C6.3371615,9.46875642 6.2881615,9.60775642 6.1131615,9.66575642 C5.9321615,9.71275642 5.7881615,9.59375642 5.7421615,9.53075642 C5.6141615,9.38275642 5.5491615,9.23775642 5.4861615,9.09275642 C5.3641615,8.80275642 5.2811615,8.50975642 5.2071615,8.21675642 C5.0601615,7.63475642 4.9761615,7.02975642 4.9211615,6.45375642 C4.8541615,5.87775642 4.7741615,5.30575642 4.6871615,4.74075642 C4.5991615,4.17575642 4.5041615,3.61675642 4.3941615,3.06875642 C4.2781615,2.53175642 4.1711615,1.95375642 3.9641615,1.51075642 C3.9456615,1.47575642 3.9389115,1.46275642 3.9316615,1.45350642 L3.8961615,1.41875642 C3.8471615,1.38975642 3.7971615,1.36975642 3.7481615,1.35575642 C3.6501615,1.33075642 3.5611615,1.34075642 3.4821615,1.38875642 C3.3191615,1.48775642 3.2191615,1.72875642 3.1771615,1.96775642 C3.0861615,2.45175642 3.2171615,2.98475642 3.2421615,3.51975642 C3.3161615,4.57675642 3.3511615,5.60875642 3.2831615,6.61975642 C3.2631615,6.87275642 3.2361615,7.12375642 3.1831615,7.37575642 C3.1581615,7.50175642 3.1231615,7.62875642 3.0671615,7.75675642 C3.0091615,7.86875642 2.9351615,8.06375642 2.6771615,8.08275642 C2.5181615,8.06775642 2.4621615,7.97375642 2.4181615,7.91975642 C2.4011615,7.89842309 2.38760595,7.87764531 2.37582817,7.85716383 L2.3131615,7.73575642 C2.2611615,7.61675642 2.2201615,7.49875642 2.1841615,7.38075642 C2.1121615,7.14575642 2.0611615,6.91275642 2.0111615,6.68175642 C1.6491615,4.82775642 1.4931615,3.09275642 1.3481615,1.50775642 L1.3481615,1.48775642 C1.3641615,1.20475642 1.3441615,0.908756422 1.2671615,0.657756422 C1.1961615,0.394756422 1.0241615,0.223756422 0.803161501,0.233756422 L0.793161501,0.233756422 L0.769161501,0.229756422 C0.552161501,0.191756422 0.364161501,0.512756422 0.315161501,0.792756422 C0.250161501,1.08375642 0.245161501,1.38975642 0.225161501,1.68575642 C0.195161501,2.27675642 0.182161501,2.83475642 0.190161501,3.35275642 C0.191161501,4.38975642 0.410161501,5.26475642 0.476161501,5.99375642 C0.565161501,6.71775642 0.625161501,7.27875642 0.640161501,7.66275642 C0.667161501,7.88575642 0.494161501,7.99375642 0.406161501,8.02075642 C0.310161501,8.05075642 0.258161501,8.04175642 0.258161501,8.04175642 C0.256161501,8.03375642 0.308161501,8.02875642 0.394161501,7.99075642 C0.470161501,7.96075642 0.614161501,7.84575642 0.575161501,7.66675642 C0.541161501,7.28975642 0.460161501,6.73075642 0.352161501,6.01075642 C0.268161501,5.29075642 0.0301615006,4.41475642 0.0101615006,3.35775642 C-0.00683849937,2.83375642 -0.00183849937,2.27175642 0.0201615006,1.67675642 C0.0361615006,1.37975642 0.0341615006,1.07075642 0.103161501,0.744756422 C0.139161501,0.584756422 0.187161501,0.417756422 0.293161501,0.263756422 C0.397161501,0.114756422 0.578161501,-0.0362435781 0.827161501,0.00775642193 L0.793161501,0.00375642193 C0.952161501,-0.00124357807 1.1291615,0.0517564219 1.2531615,0.171756422 C1.3781615,0.287756422 1.4481615,0.437756422 1.4951615,0.584756422 C1.5881615,0.882756422 1.6101615,1.18775642 1.5961615,1.50575642 L1.5961615,1.48575642 L1.596,1.487 L1.65679627,2.08366267 C1.78079236,3.29444392 1.92539002,4.59297517 2.16694861,5.94213142 L2.2961615,6.62075642 C2.3471615,6.84575642 2.3991615,7.07375642 2.4681615,7.29375642 C2.5021615,7.40375642 2.5411615,7.51075642 2.5851615,7.61175642 L2.63353187,7.7032379 L2.6591615,7.73975642 C2.6651615,7.75325642 2.6715365,7.76113142 2.67723963,7.76635017 L2.688,7.775 C2.7009855,7.77308442 2.7048335,7.77238042 2.7089775,7.76914842 L2.7221615,7.74975642 C2.7451615,7.72475642 2.7701615,7.68075642 2.7901615,7.63375642 C2.8301615,7.53875642 2.8621615,7.42775642 2.8841615,7.31275642 C2.9311615,7.08375642 2.9561615,6.84175642 2.9741615,6.59675642 C3.0351615,5.61575642 2.9961615,4.58775642 2.9181615,3.54475642 C2.8971615,3.28275642 2.8711615,3.02375642 2.8401615,2.75875642 C2.8081615,2.48375642 2.8011615,2.19875642 2.8511615,1.90975642 C2.9061615,1.62975642 3.0011615,1.30675642 3.3091615,1.10275642 C3.4621615,1.00575642 3.6661615,0.984756422 3.8331615,1.03075642 C3.9161615,1.05375642 3.9941615,1.08575642 4.0631615,1.12775642 C4.1311615,1.16375642 4.2421615,1.28875642 4.2581615,1.34575642 C4.5191615,1.90375642 4.6011615,2.44175642 4.7291615,3.00075642 C4.8421615,3.55575642 4.9391615,4.11875642 5.0281615,4.68775642 C5.1171615,5.25675642 5.1991615,5.83075642 5.2681615,6.41375642 C5.3251615,6.99975642 5.4051615,7.56375642 5.5481615,8.13175642 C5.6191615,8.41275642 5.7001615,8.69575642 5.8101615,8.95475642 C5.8631615,9.08375642 5.9321615,9.21275642 6.0001615,9.29075642 C6.0061615,9.29875642 6.01171706,9.30508976 6.01664298,9.31001568 L6.017,9.311 Z"></path></clipPath><clipPath id="i70"><path d="M12.3647854,0.000675936029 C12.4805754,0.00206134795 12.544,0.00509389233 12.544,0.00509389233 L7.55,8.46909389 C7.55,8.46909389 7.5275756,8.49187987 7.4854501,8.53436926 L7.30269358,8.7178651 C6.4883813,9.53227286 3.86121622,12.1214182 2.426,13.0840939 C2.0955,13.3055939 2.49225,12.2203439 2.971625,11.0797189 L3.13359259,10.6991762 C3.56895062,9.68808155 4.013,8.74309389 4.013,8.74309389 L0,8.74309389 C0.229,4.60709389 5.754,1.25909389 8.954,0.417093892 C10.2520769,0.0750938923 11.4734675,0.00916489825 12.1021975,0.000971907808 Z"></path></clipPath><clipPath id="i71"><path d="M1.3444617,0 L1.3444617,14.8480144 L0,14.8480144 L0,0 L1.3444617,0 Z"></path></clipPath><clipPath id="i72"><path d="M0.0197595169,0 C0.0593595169,-0.00314502348 0.155052017,0.666817714 0.281139767,1.77843172 L0.324259517,2.16500968 C0.471509517,3.50601106 0.652759517,5.36051106 0.832759517,7.41101106 C1.19275952,11.5110111 1.41375952,14.8410111 1.32475952,14.8490255 C1.23575952,14.8570111 0.871759517,11.5390111 0.511759517,7.43901106 C0.213934517,4.05568606 0.0120776419,1.19712293 0.000523516914,0.295741834 L0.000540766914,0.153739978 C0.00233764191,0.0539088419 0.00863451691,0.00100138237 0.0197595169,0 Z"></path></clipPath><clipPath id="i73"><path d="M12.3754016,0.000520343397 C12.4469702,0.0515007356 9.84168378,3.83469951 6.52051508,8.50713017 L6.32040158,8.78852034 C2.90340158,13.5915203 0.0744015822,17.4425203 0.00140158218,17.3905203 C-0.0705984178,17.3385203 2.64040158,13.4045203 6.05740158,8.60152034 C9.47340158,3.80052034 12.3024016,-0.0514796566 12.3754016,0.000520343397 Z"></path></clipPath><clipPath id="i74"><path d="M14.1981529,0.00861190978 C14.2160764,0.0956119098 11.0520764,0.81961191 7.13207645,1.62561191 C3.21007645,2.43161191 0.018076446,3.01361191 0,2.92661191 C-0.017923554,2.83961191 3.14507645,2.11561191 7.06707645,1.30961191 C10.9870764,0.50361191 14.1800764,-0.0783880902 14.1981529,0.00861190978 Z"></path></clipPath><clipPath id="i75"><path d="M179.835,0 C184.818,-0.00499726003 188.337,6.83400274 186.734,13.4090027 L160.792,119.778003 C158.68,128.439003 152.861,134.269003 146.296,134.301003 L0,135.023003 L2.869,120.274003 L24.783,7.60700274 C25.638,3.21000274 28.497,0.16000274 31.766,0.15600274 Z"></path></clipPath><clipPath id="i76"><path d="M160.795012,0 C165.605012,-0.0159498595 169.679012,3.79905014 170.314012,8.91305014 L185.803012,133.73205 C185.805012,133.74605 187.676012,155.92105 208.690012,151.26405 C208.690012,151.26405 206.940012,156.68005 188.604012,156.30005 L23.9740116,156.625066 C19.1700116,156.63405 15.1040116,152.82405 14.4670116,147.71705 L0.0860116212,32.3530501 C-0.678988379,26.2150501 3.75601162,20.7530501 9.52801162,20.7230501 L103.991012,20.2300501 L120.120012,3.08605014 C121.906012,1.18705014 124.316012,0.119050141 126.830012,0.111050141 Z"></path></clipPath><clipPath id="i77"><path d="M5.552,0 L48.315,38.47 L42.763,44.433 L0,5.964 L5.552,0 Z"></path></clipPath><clipPath id="i78"><path d="M38.693,0 L44.829,5.52 L6.136,47.077 L0,41.557 L38.693,0 Z"></path></clipPath></defs><g transform="translate(-542.0 -377.0)"><g clip-path="url(#i0)"><g transform="translate(438.0 289.0)"><g transform="translate(58.0 49.0)"><g transform="translate(45.99999999999997 39.807499999998186)"><g transform="translate(0.0 229.8814)"><g clip-path="url(#i1)"><g transform="translate(-0.0002000000000066393 0.0)"><g clip-path="url(#i2)"><polygon points="0.0002,0.339 357.792,0.339 357.792,0.661 0.0002,0.661 0.0002,0.339" stroke="none" fill="#253138"></polygon></g></g></g></g><g transform="translate(17.51102851405027 191.5692)"><g clip-path="url(#i3)"><polygon points="-2.22044605e-16,0 11.0378806,0 11.0378806,20.816 -2.22044605e-16,20.816 -2.22044605e-16,0" stroke="none" fill="#C5C5C5"></polygon></g></g><g transform="translate(32.34911350834866 205.8967738674964)"><g clip-path="url(#i4)"><polygon points="0,1.11022302e-15 10.3303176,1.11022302e-15 10.3303176,11.2380261 0,11.2380261 0,1.11022302e-15" stroke="none" fill="#C5C5C5"></polygon></g></g><g transform="translate(32.64135440071754 210.63203050722478)"><g clip-path="url(#i5)"><polygon points="1.11022302e-15,-8.18789481e-16 5.23178261,-8.18789481e-16 5.23178261,19.5981152 1.11022302e-15,19.5981152 1.11022302e-15,-8.18789481e-16" stroke="none" fill="#253138"></polygon></g></g><g transform="translate(21.1690570883309 197.5340955889663)"><g clip-path="url(#i6)"><polygon points="-1.31838984e-15,-9.9119365e-05 12.9097645,-9.9119365e-05 12.9097645,33.2822167 -1.31838984e-15,33.2822167 -1.31838984e-15,-9.9119365e-05" stroke="none" fill="#253138"></polygon></g></g><g transform="translate(13.225534096765452 214.0300593403412)"><g clip-path="url(#i7)"><polygon points="-5.82867088e-16,4.57966998e-16 15.6600659,4.57966998e-16 15.6600659,8.77703345 -5.82867088e-16,8.77703345 -5.82867088e-16,4.57966998e-16" stroke="none" fill="#C5C5C5"></polygon></g></g><g transform="translate(18.65106743379957 217.3966839369558)"><g clip-path="url(#i8)"><polygon points="-3.2264749e-05,-1.28369537e-16 14.7819911,-1.28369537e-16 14.7819911,11.5461449 -3.2264749e-05,11.5461449 -3.2264749e-05,-1.28369537e-16" stroke="none" fill="#253138"></polygon></g></g><g transform="translate(290.681782692692 21.884799999999984)"><g clip-path="url(#i9)"><polygon points="1.92068583e-14,0 16.9510152,0 16.9510152,41.1672864 1.92068583e-14,41.1672864 1.92068583e-14,0" stroke="none" fill="#DF705F"></polygon></g></g><g transform="translate(294.6749882592508 23.883655014160645)"><g clip-path="url(#i10)"><polygon points="-9.75174802e-15,-3.09474668e-15 5.88667417,-3.09474668e-15 5.88667417,31.011445 -9.75174802e-15,31.011445 -9.75174802e-15,-3.09474668e-15" stroke="none" fill="#455A63"></polygon></g></g><g transform="translate(256.9848 69.58429999999998)"><g clip-path="url(#i11)"><polygon points="0,0 43.033,0 43.033,29.1990149 0,29.1990149 0,0" stroke="none" fill="#FF9A6C"></polygon></g></g><g transform="translate(294.69859999999994 114.77879999999999)"><g clip-path="url(#i12)"><polygon points="0,0 43.353,0 43.353,112.627 0,112.627 0,0" stroke="none" fill="#FFBF9C"></polygon></g></g><g transform="translate(309.3926103167759 180.3149768889499)"><g clip-path="url(#i13)"><polygon points="2.22044605e-14,-2.44249065e-15 4.11111151,-2.44249065e-15 4.11111151,23.4518231 2.22044605e-14,23.4518231 2.22044605e-14,-2.44249065e-15" stroke="none" fill="#A26956"></polygon></g></g><g transform="translate(308.8593069414861 175.0432)"><g clip-path="url(#i14)"><polygon points="1.23998034e-14,0 4.51955609,0 4.51955609,16.379274 1.23998034e-14,16.379274 1.23998034e-14,0" stroke="none" fill="#A26956"></polygon></g></g><g transform="translate(295.9778947890555 226.4802)"><g clip-path="url(#i15)"><polygon points="-2.45359288e-14,0 18.2299052,0 18.2299052,4.52800122 -2.45359288e-14,4.52800122 -2.45359288e-14,0" stroke="none" fill="#DF705F"></polygon></g></g><g transform="translate(295.97659999999996 229.9894991878211)"><g clip-path="url(#i16)"><polygon points="0,0.353600812 18.383,0.353600812 18.383,0.646399188 0,0.646399188 0,0.353600812" stroke="none" fill="#253138"></polygon></g></g><g transform="translate(298.7202644191949 229.0067418483263)"><g clip-path="url(#i17)"><polygon points="-2.09832152e-14,2.02095285e-16 1.06466294,2.02095285e-16 1.06466294,1.6933516 -2.09832152e-14,1.6933516 -2.09832152e-14,2.02095285e-16" stroke="none" fill="#253138"></polygon></g></g><g transform="translate(302.1692 228.1171965049243)"><g clip-path="url(#i18)"><polygon points="0.207033392,0.0490232877 0.792966608,0.0490232877 0.792966608,0.950976712 0.207033392,0.950976712 0.207033392,0.0490232877" stroke="none" fill="#253138"></polygon></g></g><g transform="translate(302.9932 227.7972137655385)"><g clip-path="url(#i19)"><polygon points="0.158182989,0.193527654 0.841817011,0.193527654 0.841817011,0.806472346 0.158182989,0.806472346 0.158182989,0.193527654" stroke="none" fill="#253138"></polygon></g></g><g transform="translate(303.25109999999995 227.0837)"><g clip-path="url(#i20)"><polygon points="0,0.433883669 1.132,0.433883669 1.132,0.566116331 0,0.566116331 0,0.433883669" stroke="none" fill="#253138"></polygon></g></g><g transform="translate(303.2887767286325 226.4444632179693)"><g clip-path="url(#i21)"><polygon points="-1.78745907e-14,0.398421909 1.28250138,0.398421909 1.28250138,0.601578091 -1.78745907e-14,0.601578091 -1.78745907e-14,0.398421909" stroke="none" fill="#253138"></polygon></g></g><g transform="translate(300.5419497952756 227.1542954097986)"><g clip-path="url(#i22)"><polygon points="2.51708376e-15,3.05311332e-16 2.04385579,3.05311332e-16 2.04385579,1.15801358 2.51708376e-15,1.15801358 2.51708376e-15,3.05311332e-16" stroke="none" fill="#253138"></polygon></g></g><g transform="translate(302.3140747177311 226.8086166522963)"><g clip-path="url(#i23)"><polygon points="0.00383036317,-3.33066907e-16 0.996169637,-3.33066907e-16 0.996169637,1.34974192 0.00383036317,1.34974192 0.00383036317,-3.33066907e-16" stroke="none" fill="#253138"></polygon></g></g><g transform="translate(310.2879546105979 227.3152559234288)"><g clip-path="url(#i24)"><polygon points="-1.51120436e-14,-1.04083409e-17 3.83976494,-1.04083409e-17 3.83976494,3.14758666 -1.51120436e-14,3.14758666 -1.51120436e-14,-1.04083409e-17" stroke="none" fill="#253138"></polygon></g></g><g transform="translate(305.7469831103914 229.0549742759128)"><g clip-path="url(#i25)"><polygon points="-1.67476281e-05,0.417629546 3.16606933,0.417629546 3.16606933,0.582370454 -1.67476281e-05,0.582370454 -1.67476281e-05,0.417629546" stroke="none" fill="#253138"></polygon></g></g><g transform="translate(310.3842071118827 229.2695299584344)"><g clip-path="url(#i19)"><polygon points="0.343728991,0.189409509 0.656271009,0.189409509 0.656271009,0.810590491 0.343728991,0.810590491 0.343728991,0.189409509" stroke="none" fill="#253138"></polygon></g></g><g transform="translate(311.1301741309447 228.1708)"><g clip-path="url(#i19)"><polygon points="0.292547678,0.28854286 0.707452322,0.28854286 0.707452322,0.71145714 0.292547678,0.71145714 0.292547678,0.28854286" stroke="none" fill="#253138"></polygon></g></g><g transform="translate(312.1669968967793 227.581432403549)"><g clip-path="url(#i19)"><polygon points="0.191082613,0.362207547 0.808917387,0.362207547 0.808917387,0.637792453 0.191082613,0.637792453 0.191082613,0.362207547" stroke="none" fill="#253138"></polygon></g></g><g transform="translate(313.1272 227.3511578992027)"><g clip-path="url(#i19)"><polygon points="0.335778086,0.411670672 0.664221914,0.411670672 0.664221914,0.588329328 0.335778086,0.588329328 0.335778086,0.411670672" stroke="none" fill="#253138"></polygon></g></g><g transform="translate(323.1434723200739 221.1906)"><g transform=""><g clip-path="url(#i26)"><g transform=""><g transform=""><g clip-path="url(#i27)"><polygon points="2.23709939e-14,0 16.7013277,0 16.7013277,11.1944 2.23709939e-14,11.1944 2.23709939e-14,0" stroke="none" fill="#DF705F"></polygon></g></g></g></g></g></g><g transform="translate(323.1439499721874 224.6450852175431)"><g clip-path="url(#i28)"><polygon points="-4.75951828e-05,-1.66533454e-16 16.7371509,-1.66533454e-16 16.7371509,7.60414044 -4.75951828e-05,7.60414044 -4.75951828e-05,-1.66533454e-16" stroke="none" fill="#253138"></polygon></g></g><g transform="translate(325.0657429154357 229.8151531135573)"><g clip-path="url(#i29)"><polygon points="-1.27675648e-14,3.6429193e-17 1.6497949,3.6429193e-17 1.6497949,1.12891322 -1.27675648e-14,1.12891322 -1.27675648e-14,3.6429193e-17" stroke="none" fill="#253138"></polygon></g></g><g transform="translate(328.0068999379393 227.3539)"><g clip-path="url(#i30)"><polygon points="0.0520123043,0.202423839 0.947987696,0.202423839 0.947987696,0.797576161 0.0520123043,0.797576161 0.0520123043,0.202423839" stroke="none" fill="#253138"></polygon></g></g><g transform="translate(328.6278 226.7248)"><g clip-path="url(#i19)"><polygon points="0.0665338033,0.349188592 0.933466197,0.349188592 0.933466197,0.650811408 0.0665338033,0.650811408 0.0665338033,0.349188592" stroke="none" fill="#253138"></polygon></g></g><g transform="translate(328.6168669214468 225.941)"><g clip-path="url(#i31)"><polygon points="-2.66357032e-14,0.253132036 1.02746616,0.253132036 1.02746616,0.746867964 -2.66357032e-14,0.746867964 -2.66357032e-14,0.253132036" stroke="none" fill="#253138"></polygon></g></g><g transform="translate(328.3910307369896 225.2784035676113)"><g clip-path="url(#i32)"><polygon points="-1.52393289e-14,0.184811554 1.13022203,0.184811554 1.13022203,0.815188446 -1.52393289e-14,0.815188446 -1.52393289e-14,0.184811554" stroke="none" fill="#253138"></polygon></g></g><g transform="translate(326.09189221706094 226.9552870437487)"><g clip-path="url(#i33)"><polygon points="2.66800471e-14,0.0527706169 2.13676302,0.0527706169 2.13676302,0.947229383 2.66800471e-14,0.947229383 2.66800471e-14,0.0527706169" stroke="none" fill="#253138"></polygon></g></g><g transform="translate(327.7249789683481 226.027335565523)"><g clip-path="url(#i34)"><polygon points="0.0268882757,-3.53016227e-16 0.973111724,-3.53016227e-16 0.973111724,1.51665374 0.0268882757,1.51665374 0.0268882757,-3.53016227e-16" stroke="none" fill="#253138"></polygon></g></g><g transform="translate(335.9686954213737 222.0347532503733)"><g clip-path="url(#i35)"><polygon points="-1.48631107e-14,-8.11850587e-16 2.48715933,-8.11850587e-16 2.48715933,4.37943931 -1.48631107e-14,4.37943931 -1.48631107e-14,-8.11850587e-16" stroke="none" fill="#253138"></polygon></g></g><g transform="translate(331.6776398521382 226.0869728029787)"><g clip-path="url(#i36)"><polygon points="-1.33750433e-14,-3.33066907e-16 2.88155592,-3.33066907e-16 2.88155592,1.31786163 -1.33750433e-14,1.31786163 -1.33750433e-14,-3.33066907e-16" stroke="none" fill="#253138"></polygon></g></g><g transform="translate(335.9344730133437 225.036862075091)"><g clip-path="url(#i19)"><polygon points="0.43031872,0.161016234 0.56968128,0.161016234 0.56968128,0.838983766 0.43031872,0.838983766 0.43031872,0.161016234" stroke="none" fill="#253138"></polygon></g></g><g transform="translate(336.2033211069966 223.7324040183449)"><g clip-path="url(#i19)"><polygon points="0.382506045,0.227969255 0.617493955,0.227969255 0.617493955,0.772030745 0.382506045,0.772030745 0.382506045,0.227969255" stroke="none" fill="#253138"></polygon></g></g><g transform="translate(336.9149916868325 222.7868238900031)"><g clip-path="url(#i19)"><polygon points="0.256342753,0.269961144 0.743657247,0.269961144 0.743657247,0.730038856 0.256342753,0.730038856 0.256342753,0.269961144" stroke="none" fill="#253138"></polygon></g></g><g transform="translate(337.6900000000001 222.1668640706151)"><g clip-path="url(#i19)"><polygon points="0.36925308,0.367170804 0.63074692,0.367170804 0.63074692,0.632829196 0.36925308,0.632829196 0.36925308,0.367170804" stroke="none" fill="#253138"></polygon></g></g><g transform="translate(284.2031 52.989599999999996)"><g clip-path="url(#i37)"><polygon points="0,0 49.4835012,0 49.4835012,45.976 0,45.976 0,0" stroke="none" fill="#3AD559"></polygon></g></g><g transform="translate(318.1177 66.17429999999999)"><g clip-path="url(#i38)"><polygon points="0,0 16.009,0 16.009,12.121 0,12.121 0,0" stroke="none" fill="#80D262"></polygon></g></g><g transform="translate(319.6272851805907 77.6972660727433)"><g clip-path="url(#i39)"><polygon points="-1.47100574e-05,0.253956782 14.4990222,0.253956782 14.4990222,0.746043218 -1.47100574e-05,0.746043218 -1.47100574e-05,0.253956782" stroke="none" fill="#253138"></polygon></g></g><g transform="translate(318.8678 66.11509571962108)"><g clip-path="url(#i40)"><polygon points="0.199302014,-4.26210122e-06 0.800697986,-4.26210122e-06 0.800697986,12.5230128 0.199302014,12.5230128 0.199302014,-4.26210122e-06" stroke="none" fill="#253138"></polygon></g></g><g transform="translate(304.55780000000004 72.37679999999997)"><g clip-path="url(#i41)"><polygon points="0,0 19.512,0 19.512,25.6956493 0,25.6956493 0,0" stroke="none" fill="#000000"></polygon></g></g><g transform="translate(317.2098 67.66999999999999)"><g clip-path="url(#i42)"><polygon points="0,0 3.28,0 3.28,15.202 0,15.202 0,0" stroke="none" fill="#000000"></polygon></g></g><g transform="translate(296.346515504186 71.33279999999996)"><g clip-path="url(#i43)"><polygon points="-1.29340982e-14,0 3.20687411,0 3.20687411,16.7163168 -1.29340982e-14,16.7163168 -1.29340982e-14,0" stroke="none" fill="#253138"></polygon></g></g><g transform="translate(302.6946951754587 92.99274329623887)"><g clip-path="url(#i44)"><polygon points="0.0724230171,7.32736354e-15 0.927576983,7.32736354e-15 0.927576983,2.63771341 0.0724230171,2.63771341 0.0724230171,7.32736354e-15" stroke="none" fill="#253138"></polygon></g></g><g transform="translate(304.3093197527928 91.66129186268111)"><g clip-path="url(#i45)"><polygon points="0.29973391,-4.4408921e-16 0.70026609,-4.4408921e-16 0.70026609,3.86768724 0.29973391,3.86768724 0.29973391,-4.4408921e-16" stroke="none" fill="#253138"></polygon></g></g><g transform="translate(284.0837206070853 76.92157202846855)"><g clip-path="url(#i46)"><polygon points="2.04281037e-14,-5.23973226e-15 14.1207587,-5.23973226e-15 14.1207587,7.06205596 2.04281037e-14,7.06205596 2.04281037e-14,-5.23973226e-15" stroke="none" fill="#253138"></polygon></g></g><g transform="translate(299.0539626716674 24.969268237187578)"><g clip-path="url(#i47)"><polygon points="1.87350135e-14,1.26565425e-14 17.3482373,1.26565425e-14 17.3482373,35.9762125 1.87350135e-14,35.9762125 1.87350135e-14,1.26565425e-14" stroke="none" fill="#FFBF9C"></polygon></g></g><g transform="translate(300.0925033990926 34.73982239398407)"><g clip-path="url(#i48)"><polygon points="-2.15942715e-14,-9.5843472e-16 1.34839325,-9.5843472e-16 1.34839325,1.29535521 -2.15942715e-14,1.29535521 -2.15942715e-14,-9.5843472e-16" stroke="none" fill="#253138"></polygon></g></g><g transform="translate(299.8322259894447 33.64226146839457)"><g clip-path="url(#i49)"><polygon points="3.60822483e-15,0.127285069 2.68167698,0.127285069 2.68167698,0.872714931 3.60822483e-15,0.872714931 3.60822483e-15,0.127285069" stroke="none" fill="#253138"></polygon></g></g><g transform="translate(307.4710033990926 35.19902959446421)"><g clip-path="url(#i50)"><polygon points="-2.15942715e-14,-6.51388665e-15 1.34839325,-6.51388665e-15 1.34839325,1.29534801 -2.15942715e-14,1.29534801 -2.15942715e-14,-6.51388665e-15" stroke="none" fill="#253138"></polygon></g></g><g transform="translate(307.4132259894448 34.10262452872752)"><g clip-path="url(#i51)"><polygon points="3.60822483e-15,0.126922008 2.68233207,0.126922008 2.68233207,0.873077992 3.60822483e-15,0.873077992 3.60822483e-15,0.126922008" stroke="none" fill="#253138"></polygon></g></g><g transform="translate(302.8053612238527 34.18042504249158)"><g clip-path="url(#i52)"><polygon points="-1.71529457e-14,1.15172628e-14 2.33555808,1.15172628e-14 2.33555808,6.07361466 -1.71529457e-14,6.07361466 -1.71529457e-14,1.15172628e-14" stroke="none" fill="#253138"></polygon></g></g><g transform="translate(303.9202 47.1233)"><g clip-path="url(#i53)"><polygon points="0,0 7.105,0 7.105,3.02023396 0,3.02023396 0,0" stroke="none" fill="#A26956"></polygon></g></g><g transform="translate(307.200775432639 31.83237090754895)"><g clip-path="url(#i54)"><polygon points="-4.11042728e-15,1.60982339e-15 2.57827187,1.60982339e-15 2.57827187,1.11218065 -4.11042728e-15,1.11218065 -4.11042728e-15,1.60982339e-15" stroke="none" fill="#253138"></polygon></g></g><g transform="translate(299.8183224508447 31.15568299440133)"><g clip-path="url(#i55)"><polygon points="4.15726481e-15,0.0109438816 2.70538138,0.0109438816 2.70538138,0.989056118 4.15726481e-15,0.989056118 4.15726481e-15,0.0109438816" stroke="none" fill="#253138"></polygon></g></g><g transform="translate(304.1154635786303 41.85407071096466)"><g clip-path="url(#i56)"><polygon points="0.0898624759,0.0895486489 0.910137524,0.0895486489 0.910137524,0.910451351 0.0898624759,0.910451351 0.0898624759,0.0895486489" stroke="none" fill="#A26956"></polygon></g></g><g transform="translate(303.9733690770395 41.8891877380282)"><g clip-path="url(#i57)"><polygon points="-1.32359401e-14,-6.13398221e-15 1.1693232,-6.13398221e-15 1.1693232,1.1751514 -1.32359401e-14,1.1751514 -1.32359401e-14,-6.13398221e-15" stroke="none" fill="#253138"></polygon></g></g><g transform="translate(300.0926771967135 20.854670312737596)"><g clip-path="url(#i58)"><polygon points="2.40502063e-14,1.33226763e-15 26.0898469,1.33226763e-15 26.0898469,44.419127 2.40502063e-14,44.419127 2.40502063e-14,1.33226763e-15" stroke="none" fill="#DF705F"></polygon></g></g><g transform="translate(313.67810964777425 32.27759999999998)"><g clip-path="url(#i59)"><polygon points="-1.28785871e-14,0 6.97897899,0 6.97897899,32.6956516 -1.28785871e-14,32.6956516 -1.28785871e-14,0" stroke="none" fill="#455A63"></polygon></g></g><g transform="translate(301.5910510311357 22.72426384667239)"><g clip-path="url(#i60)"><polygon points="-1.42108547e-14,-3.48730629e-05 18.4486671,-3.48730629e-05 18.4486671,11.1651616 -1.42108547e-14,11.1651616 -1.42108547e-14,-3.48730629e-05" stroke="none" fill="#455A63"></polygon></g></g><g transform="translate(302.72847982316 21.91913666409184)"><g clip-path="url(#i61)"><polygon points="2.60069744e-14,1.20038528e-14 15.7735725,1.20038528e-14 15.7735725,6.8395181 2.60069744e-14,6.8395181 2.60069744e-14,1.20038528e-14" stroke="none" fill="#455A63"></polygon></g></g><g transform="translate(318.13102146885467 34.01264999999998)"><g clip-path="url(#i62)"><polygon points="-1.70974346e-14,1.37668739e-14 5.41190834,1.37668739e-14 5.41190834,29.6201049 -1.70974346e-14,29.6201049 -1.70974346e-14,1.37668739e-14" stroke="none" fill="#455A63"></polygon></g></g><g transform="translate(292.8432048814008 94.74629999999999)"><g clip-path="url(#i63)"><polygon points="2.43485787e-14,0 38.658331,0 38.658331,84.358 2.43485787e-14,84.358 2.43485787e-14,0" stroke="none" fill="#253138"></polygon></g></g><g transform="translate(296.3858878827298 130.4637848480889)"><g clip-path="url(#i64)"><polygon points="7.95197241e-15,-4.10782519e-15 34.069047,-4.10782519e-15 34.069047,35.2447152 7.95197241e-15,35.2447152 7.95197241e-15,-4.10782519e-15" stroke="none" fill="#F9F9F9"></polygon></g></g><g transform="translate(293.8361011358709 112.15529098616788)"><g clip-path="url(#i65)"><polygon points="-2.07696273e-14,-8.95984973e-06 36.8178477,-8.95984973e-06 36.8178477,33.5815763 -2.07696273e-14,33.5815763 -2.07696273e-14,-8.95984973e-06" stroke="none" fill="#F9F9F9"></polygon></g></g><g transform="translate(292.7427435686106 94.58699999999999)"><g clip-path="url(#i66)"><polygon points="1.57929225e-14,0 32.9449564,0 32.9449564,32.428138 1.57929225e-14,32.428138 1.57929225e-14,0" stroke="none" fill="#F9F9F9"></polygon></g></g><g transform="translate(297.2379462253189 160.4694944024654)"><g clip-path="url(#i67)"><polygon points="-0.000144640277,-5.53527325e-06 31.1325439,-5.53527325e-06 31.1325439,17.4937117 -0.000144640277,17.4937117 -0.000144640277,-5.53527325e-06" stroke="none" fill="#F9F9F9"></polygon></g></g><g transform="translate(298.6904938848567 47.2412956879416)"><g clip-path="url(#i68)"><polygon points="-1.22124533e-15,9.1038288e-15 32.3013061,9.1038288e-15 32.3013061,47.6585578 -1.22124533e-15,47.6585578 -1.22124533e-15,9.1038288e-15" stroke="none" fill="#FFBF9C"></polygon></g></g><g transform="translate(302.9914384993744 47.188443578072594)"><g clip-path="url(#i69)"><polygon points="1.40824852e-14,-7.02909952e-15 16.0688113,-7.02909952e-15 16.0688113,34.2490308 1.40824852e-14,34.2490308 1.40824852e-14,-7.02909952e-15" stroke="none" fill="#A26956"></polygon></g></g><g transform="translate(250.34520000000003 86.84840610766716)"><g clip-path="url(#i70)"><polygon points="0,-1.14439708e-14 12.544,-1.14439708e-14 12.544,13.1130652 0,13.1130652 0,-1.14439708e-14" stroke="none" fill="#FF9A6C"></polygon></g></g><g transform="translate(316.3031404830863 0.0)"><g transform=""><g clip-path="url(#i71)"><g transform=""><g transform="translate(-5.684341886080802e-14 -0.0010110589236660417)"><g clip-path="url(#i72)"><polygon points="0,0.00101105892 1.3444617,0.00101105892 1.3444617,14.8490255 0,14.8490255 0,0.00101105892" stroke="none" fill="#253138"></polygon></g></g></g></g></g></g><g transform="translate(322.8574984178176 0.20147965660362388)"><g clip-path="url(#i73)"><polygon points="-1.70026753e-14,-1.24344979e-14 12.3768414,-1.24344979e-14 12.3768414,17.3910408 -1.70026753e-14,17.3910408 -1.70026753e-14,-1.24344979e-14" stroke="none" fill="#253138"></polygon></g></g><g transform="translate(328.3494235539849 18.02778809021976)"><g clip-path="url(#i74)"><polygon points="-7.57996522e-05,-8.8817842e-16 14.1982286,-8.8817842e-16 14.1982286,2.93522382 -7.57996522e-05,2.93522382 -7.57996522e-05,-8.8817842e-16" stroke="none" fill="#253138"></polygon></g></g><g transform="translate(106.9875 95.55299726002751)"><g clip-path="url(#i75)"><polygon points="0,-2.73697125e-06 187.125603,-2.73697125e-06 187.125603,135.023003 0,135.023003 0,-2.73697125e-06" stroke="none" fill="#CA515B"></polygon></g></g><g transform="translate(106.9875 95.55299726002751)"><g clip-path="url(#i75)"><polygon points="0,-2.73697125e-06 187.125603,-2.73697125e-06 187.125603,135.023003 0,135.023003 0,-2.73697125e-06" stroke="none" fill="#253138"></polygon></g></g><g transform="translate(53.44678837883653 74.46124985945659)"><g clip-path="url(#i76)"><polygon points="0,-4.98273569e-05 208.690012,-4.98273569e-05 208.690012,156.625082 0,156.625082 0,-4.98273569e-05" stroke="none" fill="#3AD559"></polygon></g></g><g transform="translate(119.9477 143.4207)"><g transform="translate(0.0 1.3218000000000245)"><g clip-path="url(#i77)"><polygon points="0,0 48.315,0 48.315,44.433 0,44.433 0,0" stroke="none" fill="#FFFFFF"></polygon></g></g><g transform="translate(1.7426000000000244 0.0)"><g clip-path="url(#i78)"><polygon points="0,0 44.829,0 44.829,47.077 0,47.077 0,0" stroke="none" fill="#FFFFFF"></polygon></g></g></g></g></g></g></g></g></svg>