<svg width="20" height="20" viewBox="0 0 20 20" xmlns="http://www.w3.org/2000/svg">
    <path d="M19.756 5.613 14.386.244a.833.833 0 0 0-.59-.244H6.204a.833.833 0 0 0-.589.244l-5.37 5.37A.833.833 0 0 0 0 6.201v7.595c0 .221.088.433.244.59l5.37 5.369a.833.833 0 0 0 .59.244h7.593a.833.833 0 0 0 .589-.244l5.37-5.37a.833.833 0 0 0 .244-.588V6.201a.833.833 0 0 0-.244-.589zM11.37 4.167l-.538 7.5H9.167l-.507-7.5h2.71zM10 16.667a1.667 1.667 0 1 1 0-3.334 1.667 1.667 0 0 1 0 3.334z" fill="#FFF" fill-rule="nonzero"/>
</svg>
