<?xml version="1.0" encoding="UTF-8"?>
<svg width="32px" height="32px" viewBox="0 0 32 32" version="1.1" xmlns="http://www.w3.org/2000/svg" xmlns:xlink="http://www.w3.org/1999/xlink">
    <title>o-warning</title>
    <g id="Staffing---Web" stroke="none" stroke-width="1" fill="none" fill-rule="evenodd">
        <g id="Staffing-NoApplicants" transform="translate(-949.000000, -877.000000)" fill="#CC2B2B" fill-rule="nonzero">
            <g id="o-warning" transform="translate(949.000000, 877.000000)">
                <path d="M31.707,9.08 L22.92,0.293 C22.7325073,0.105450625 22.4781948,0 22.213,0 L9.787,0 C9.52180519,0 9.26749273,0.105450625 9.08,0.293 L0.293,9.08 C0.105450625,9.26749273 0,9.52180519 0,9.787 L0,22.213 C0,22.4781948 0.105450625,22.7325073 0.293,22.92 L9.08,31.707 C9.26749273,31.8945494 9.52180519,32 9.787,32 L22.213,32 C22.4781948,32 22.7325073,31.8945494 22.92,31.707 L31.707,22.92 C31.8945494,22.7325073 32,22.4781948 32,22.213 L32,9.787 C32,9.52180519 31.8945494,9.26749273 31.707,9.08 Z M17.929,7 L17,19 L15,19 L14.071,7 L17.929,7 Z M16,25 C14.8954305,25 14,24.1045695 14,23 C14,21.8954305 14.8954305,21 16,21 C17.1045695,21 18,21.8954305 18,23 C18,24.1045695 17.1045695,25 16,25 Z" id="Shape"></path>
            </g>
        </g>
    </g>
</svg>