<?xml version="1.0" encoding="utf-8"?>
<!-- Generator: Adobe Illustrator 26.0.2, SVG Export Plug-In . SVG Version: 6.00 Build 0)  -->
<svg version="1.1" id="Layer_1" xmlns="http://www.w3.org/2000/svg" xmlns:xlink="http://www.w3.org/1999/xlink" x="0px" y="0px"
	 viewBox="0 0 98 50" style="enable-background:new 0 0 98 50;" xml:space="preserve">
<style type="text/css">
	.st0{fill:#2C3187;}
	.st1{fill:#FD773C;}
	.st2{fill:#FE773C;}
</style>
<g>
	<g>
		<path class="st0" d="M1.2,22.4c0.1-0.5,0.3-1.1,0.4-1.6C3.8,10.8,10,4.4,19.7,1.5c6.6-2,13.1-1.3,19.3,1.7
			c0.2,0.1,0.3,0.1,0.5,0.2c3.3,1.8,6.1,4.1,8.5,7.1c0.2,0.2,0.3,0.5,0.5,0.7c3.3,4.6,4.8,9.7,4.5,15.4c-0.3,4.9-2.1,9.3-5.1,13.2
			c-3.5-0.9-6.3-2.9-8.4-6c1.4-2,2.3-4.3,2.5-6.8c0.4-3.9-0.3-7.4-2.7-10.6c-1.3-1.8-2.8-3.4-4.7-4.4c-1.2-0.7-2.6-1.1-4-1.6
			c-1.8-0.5-3.7-0.6-5.6-0.3C15,11.7,9.3,22.4,13.6,31.7c3,6.7,10.8,10.3,17.5,8.3c2.3,2.8,5.2,5.1,8.4,6.8
			c-6.1,3.1-12.5,3.9-19,2.1c-10-2.7-16.5-9.1-18.9-19.5c-0.1-0.5-0.3-1.1-0.4-1.6C1.2,26,1.2,24.2,1.2,22.4z"/>
		<path class="st0" d="M65.3,4.2c7.9-4.9,15.9-4.1,24-0.6c2.2,0.9,4.2,2.2,6.1,3.6c-1.9,2.4-3.7,4.7-5.5,7c-1.2-0.8-2.4-1.7-3.6-2.5
			c-3.9-2.3-8.1-3.3-12.6-2.1c-2.4,0.6-4.2,2-4.8,4.5c-0.3,1.3,0,2.5,0.9,3.5c1,1,2.1,1.7,3.5,1.9c4.2,0.8,8.5,1.6,12.7,2.4
			c1.3,0.3,2.5,0.6,3.7,1.1c7,2.8,8.6,9.2,7,14.6c-1.6,5.6-5.6,9-10.9,10.7c-2.1,0.7-4.3,0.9-6.5,1.3c-0.2,0-0.4,0.1-0.6,0.2
			c-0.8,0-1.5,0-2.3,0c-0.2-0.1-0.3-0.1-0.5-0.2c-1.2-0.2-2.5-0.3-3.7-0.5c-2.8-0.5-5.5-1.3-8.1-2.7c0.2-0.1,0.5-0.3,0.7-0.4
			c2.7-1.5,5.1-3.4,7-5.9c2.2,0.8,4.5,1.2,6.9,1.1c2.5-0.1,4.8-0.8,6.7-2.5c2.4-2.1,2.3-5.3-0.3-7.1c-0.9-0.6-2-1.1-3.1-1.4
			c-2.6-0.6-5.2-0.9-7.8-1.5c-3.2-0.7-6.5-1.5-9.4-3.1c-3.1-1.6-5.1-4.1-5.7-7.6c-0.4-2.2-0.1-4.3,0.4-6.4c0.4-0.9,0.8-1.9,1.2-2.8
			C61.8,7.2,63.5,5.6,65.3,4.2z"/>
		<path class="st1" d="M65.3,4.2c-1.9,1.4-3.5,3.1-4.6,5.1c-0.5,0.9-0.8,1.8-1.2,2.8C55.9,10,52,9.4,48,10.5
			c-2.3-2.9-5.2-5.3-8.5-7.1c2.7-1.5,5.6-2.3,8.6-2.7C54-0.1,59.6,0.9,64.9,3.9C65,4,65.2,4.1,65.3,4.2z"/>
		<path class="st2" d="M64.1,46.7c-2.5,1.2-5.1,2.1-7.8,2.6C50.7,50.2,45.2,49.5,40,47c-0.2-0.1-0.4-0.2-0.6-0.2
			c-3.2-1.7-6.1-4-8.4-6.8c-0.1-0.2-0.2-0.3-0.4-0.5c-4.5-6.2-6-12.9-4.1-20.4c0.8-3.1,2.3-5.9,4.2-8.5c1.3,0.5,2.7,0.9,4,1.6
			c1.9,1,3.4,2.6,4.7,4.4c-2,3.1-2.9,6.4-2.6,10.1c0.2,2.7,1.1,5.1,2.7,7.3c2,3,4.8,5,8.4,6c0.3,0.1,0.6,0.2,0.8,0.2
			c5.5,1,10.2-0.5,14.1-4.5c0.2-0.2,0.4-0.5,0.6-0.8c2.4,2.6,5.2,4.4,8.4,5.6c-2,2.4-4.3,4.3-7,5.9C64.6,46.4,64.4,46.6,64.1,46.7z"
			/>
	</g>
</g>
<g>
</g>
<g>
</g>
<g>
</g>
<g>
</g>
<g>
</g>
<g>
</g>
<g>
</g>
<g>
</g>
<g>
</g>
<g>
</g>
<g>
</g>
<g>
</g>
<g>
</g>
<g>
</g>
<g>
</g>
</svg>
