<svg width="49" height="49" viewBox="0 0 49 49" fill="none" xmlns="http://www.w3.org/2000/svg">
<path d="M24.1705 4.06836C13.0731 4.06836 4.07031 13.0712 4.07031 24.1686C4.07031 35.266 13.0731 44.2688 24.1705 44.2688C35.268 44.2688 44.2708 35.266 44.2708 24.1686C44.2708 13.0712 35.268 4.06836 24.1705 4.06836ZM23.1232 36.0112V27.673H17.7659C17.0207 27.673 16.5171 26.8674 16.8797 26.2028L24.2914 11.762C24.7546 10.8154 26.1846 11.1578 26.1846 12.2253V20.6641H31.3003C32.0455 20.6641 32.5288 21.4496 32.2066 22.1143L25.0366 36.4543C24.5532 37.421 23.1232 37.0786 23.1232 36.0112Z" fill="#47D6B5"/>
</svg>
