<svg width="41" height="41" viewBox="0 0 41 41" fill="none" xmlns="http://www.w3.org/2000/svg">
<g clip-path="url(#clip0_176_1871)">
<path fill-rule="evenodd" clip-rule="evenodd" d="M0 23.0732C0 22.3656 0.573635 21.792 1.28125 21.792H3.84375C4.55137 21.792 5.125 22.3656 5.125 23.0732C5.125 23.7809 4.55137 24.3545 3.84375 24.3545H2.5625V38.8753H8.11458C8.8222 38.8753 9.39583 39.449 9.39583 40.1566C9.39583 40.8642 8.8222 41.4378 8.11458 41.4378H1.28125C0.573635 41.4378 0 40.8642 0 40.1566V23.0732Z" fill="#5C5C5C"/>
<path fill-rule="evenodd" clip-rule="evenodd" d="M11.9609 28.1982C11.9609 27.4906 12.5346 26.917 13.2422 26.917H16.6589C17.3665 26.917 17.9401 27.4906 17.9401 28.1982C17.9401 28.9059 17.3665 29.4795 16.6589 29.4795H13.2422C12.5346 29.4795 11.9609 28.9059 11.9609 28.1982Z" fill="#5C5C5C"/>
<path fill-rule="evenodd" clip-rule="evenodd" d="M11.9609 33.3232C11.9609 32.6156 12.5346 32.042 13.2422 32.042H16.6589C17.3665 32.042 17.9401 32.6156 17.9401 33.3232C17.9401 34.0309 17.3665 34.6045 16.6589 34.6045H13.2422C12.5346 34.6045 11.9609 34.0309 11.9609 33.3232Z" fill="#5C5C5C"/>
<path fill-rule="evenodd" clip-rule="evenodd" d="M11.9609 23.0732C11.9609 22.3656 12.5346 21.792 13.2422 21.792H16.6589C17.3665 21.792 17.9401 22.3656 17.9401 23.0732C17.9401 23.7809 17.3665 24.3545 16.6589 24.3545H13.2422C12.5346 24.3545 11.9609 23.7809 11.9609 23.0732Z" fill="#5C5C5C"/>
<path fill-rule="evenodd" clip-rule="evenodd" d="M17.5895 3.26304C17.9068 3.02065 18.319 2.94009 18.7043 3.04516L37.496 8.17016C38.0534 8.32218 38.4401 8.82848 38.4401 9.40626V40.1563C38.4401 40.8639 37.8665 41.4375 37.1589 41.4375H8.11719C7.40957 41.4375 6.83594 40.8639 6.83594 40.1563V16.2396C6.83594 15.532 7.40957 14.9583 8.11719 14.9583H21.7839C22.4915 14.9583 23.0651 15.532 23.0651 16.2396V38.875H35.8776V10.3849L19.6484 5.95874V11.9688C19.6484 12.6764 19.0748 13.25 18.3672 13.25C17.6596 13.25 17.0859 12.6764 17.0859 11.9688V4.28126C17.0859 3.88193 17.2721 3.50543 17.5895 3.26304ZM20.5026 38.875V17.5208H9.39844V38.875H20.5026Z" fill="#5C5C5C"/>
<path fill-rule="evenodd" clip-rule="evenodd" d="M26.9062 13.25C27.6139 13.25 28.1875 13.8236 28.1875 14.5313V33.3229C28.1875 34.0305 27.6139 34.6042 26.9062 34.6042C26.1986 34.6042 25.625 34.0305 25.625 33.3229V14.5313C25.625 13.8236 26.1986 13.25 26.9062 13.25Z" fill="#5C5C5C"/>
<path fill-rule="evenodd" clip-rule="evenodd" d="M32.0312 14.958C32.7389 14.958 33.3125 15.5316 33.3125 16.2393V33.3226C33.3125 34.0302 32.7389 34.6038 32.0312 34.6038C31.3236 34.6038 30.75 34.0302 30.75 33.3226V16.2393C30.75 15.5316 31.3236 14.958 32.0312 14.958Z" fill="#5C5C5C"/>
</g>
<defs>
<clipPath id="clip0_176_1871">
<rect width="41" height="41" fill="white"/>
</clipPath>
</defs>
</svg>
