<svg width="42" height="31" viewBox="0 0 42 31" fill="none" xmlns="http://www.w3.org/2000/svg">
<path fill-rule="evenodd" clip-rule="evenodd" d="M0.875 1.4375C0.875 0.712626 1.46263 0.125 2.1875 0.125H40.6875C41.4124 0.125 42 0.712626 42 1.4375V10.1875C42 10.9124 41.4124 11.5 40.6875 11.5C38.5126 11.5 36.75 13.2626 36.75 15.4375C36.75 17.6124 38.5126 19.375 40.6875 19.375C41.4124 19.375 42 19.9626 42 20.6875V29.4375C42 30.1624 41.4124 30.75 40.6875 30.75H2.1875C1.46263 30.75 0.875 30.1624 0.875 29.4375V20.6875C0.875 19.9626 1.46263 19.375 2.1875 19.375C4.36238 19.375 6.125 17.6124 6.125 15.4375C6.125 13.2626 4.36238 11.5 2.1875 11.5C1.46263 11.5 0.875 10.9124 0.875 10.1875V1.4375ZM3.5 2.75V9.00625C6.4956 9.61422 8.75 12.2624 8.75 15.4375C8.75 18.6126 6.4956 21.2608 3.5 21.8688V28.125H39.375V21.8688C36.3794 21.2608 34.125 18.6126 34.125 15.4375C34.125 12.2624 36.3794 9.61422 39.375 9.00625V2.75H3.5Z" fill="#5C5C5C"/>
<path fill-rule="evenodd" clip-rule="evenodd" d="M13.125 11.9375C13.125 11.2126 13.7126 10.625 14.4375 10.625H28.4375C29.1624 10.625 29.75 11.2126 29.75 11.9375C29.75 12.6624 29.1624 13.25 28.4375 13.25H14.4375C13.7126 13.25 13.125 12.6624 13.125 11.9375Z" fill="#5C5C5C"/>
<path fill-rule="evenodd" clip-rule="evenodd" d="M13.125 18.9375C13.125 18.2126 13.7126 17.625 14.4375 17.625H28.4375C29.1624 17.625 29.75 18.2126 29.75 18.9375C29.75 19.6624 29.1624 20.25 28.4375 20.25H14.4375C13.7126 20.25 13.125 19.6624 13.125 18.9375Z" fill="#5C5C5C"/>
</svg>
