<svg width="148" height="98" viewBox="0 0 148 98" fill="none" xmlns="http://www.w3.org/2000/svg">
<g clip-path="url(#clip0_176_1055)">
<path d="M74.0003 87.5083C103.789 87.5083 127.938 86.5748 127.938 85.4232C127.938 84.2715 103.789 83.3379 74.0003 83.3379C44.2113 83.3379 20.0625 84.2715 20.0625 85.4232C20.0625 86.5748 44.2113 87.5083 74.0003 87.5083Z" fill="url(#paint0_linear_176_1055)"/>
<path d="M102.285 19.9268H36.3428C34.708 19.9268 33.3828 21.243 33.3828 22.8668V75.9501C33.3828 77.5738 34.708 78.8901 36.3428 78.8901H102.285C103.92 78.8901 105.245 77.5738 105.245 75.9501V22.8668C105.245 21.243 103.92 19.9268 102.285 19.9268Z" fill="white" stroke="#E1E4E5" stroke-width="4"/>
<path fill-rule="evenodd" clip-rule="evenodd" d="M41.4414 38.8249V39.5931C41.4414 40.0173 41.7833 40.3614 42.2046 40.3614H51.364C51.7853 40.3614 52.1272 40.0173 52.1272 39.5931V38.8127C52.1272 36.488 49.4878 34.9776 46.7844 34.9776C44.0807 34.9776 41.4414 36.4888 41.4414 38.8127M44.8679 28.2288C43.8096 29.2801 43.8096 30.9844 44.8679 32.0357C45.9263 33.087 47.6423 33.087 48.7008 32.0357C49.7592 30.9844 49.7592 29.2801 48.7008 28.2288C47.6423 27.1776 45.9263 27.1776 44.8679 28.2288Z" fill="#5C5C5C"/>
<path d="M52.7884 42.4668H40.455C40.0009 42.4668 39.6328 42.8324 39.6328 43.2835C39.6328 43.7345 40.0009 44.1001 40.455 44.1001H52.7884C53.2425 44.1001 53.6106 43.7345 53.6106 43.2835C53.6106 42.8324 53.2425 42.4668 52.7884 42.4668Z" fill="#E1E4E5"/>
<path d="M52.7884 45.7334H40.455C40.0009 45.7334 39.6328 46.099 39.6328 46.5501C39.6328 47.0011 40.0009 47.3667 40.455 47.3667H52.7884C53.2425 47.3667 53.6106 47.0011 53.6106 46.5501C53.6106 46.099 53.2425 45.7334 52.7884 45.7334Z" fill="#E1E4E5"/>
<path fill-rule="evenodd" clip-rule="evenodd" d="M41.4414 63.6511V64.4193C41.4414 64.8434 41.7833 65.1876 42.2046 65.1876H51.364C51.7853 65.1876 52.1272 64.8434 52.1272 64.4193V63.6389C52.1272 61.3141 49.4878 59.8038 46.7844 59.8038C44.0807 59.8038 41.4414 61.3149 41.4414 63.6389M44.8679 53.055C43.8096 54.1062 43.8096 55.8106 44.8679 56.8618C45.9263 57.9132 47.6423 57.9132 48.7008 56.8618C49.7592 55.8106 49.7592 54.1062 48.7008 53.055C47.6423 52.0038 45.9263 52.0038 44.8679 53.055Z" fill="#5C5C5C"/>
<path d="M52.7884 67.293H40.455C40.0009 67.293 39.6328 67.6586 39.6328 68.1096C39.6328 68.5607 40.0009 68.9263 40.455 68.9263H52.7884C53.2425 68.9263 53.6106 68.5607 53.6106 68.1096C53.6106 67.6586 53.2425 67.293 52.7884 67.293Z" fill="#E1E4E5"/>
<path d="M52.7884 70.5596H40.455C40.0009 70.5596 39.6328 70.9252 39.6328 71.3762C39.6328 71.8273 40.0009 72.1929 40.455 72.1929H52.7884C53.2425 72.1929 53.6106 71.8273 53.6106 71.3762C53.6106 70.9252 53.2425 70.5596 52.7884 70.5596Z" fill="#E1E4E5"/>
<path fill-rule="evenodd" clip-rule="evenodd" d="M61.9961 38.8249V39.5931C61.9961 40.0173 62.338 40.3614 62.7593 40.3614H71.9187C72.34 40.3614 72.6819 40.0173 72.6819 39.5931V38.8127C72.6819 36.488 70.0425 34.9776 67.3391 34.9776C64.6354 34.9776 61.9961 36.4888 61.9961 38.8127M65.4226 28.2288C64.3643 29.2801 64.3643 30.9844 65.4226 32.0357C66.481 33.087 68.197 33.087 69.2555 32.0357C70.3139 30.9844 70.3139 29.2801 69.2555 28.2288C68.197 27.1776 66.481 27.1776 65.4226 28.2288Z" fill="#3BD55A"/>
<path d="M73.3431 41.4668H61.0097C60.5556 41.4668 60.1875 41.8324 60.1875 42.2835C60.1875 42.7345 60.5556 43.1001 61.0097 43.1001H73.3431C73.7972 43.1001 74.1653 42.7345 74.1653 42.2835C74.1653 41.8324 73.7972 41.4668 73.3431 41.4668Z" fill="url(#paint1_linear_176_1055)"/>
<path d="M73.3431 44.0996H61.0097C60.5556 44.0996 60.1875 44.4652 60.1875 44.9163C60.1875 45.3673 60.5556 45.7329 61.0097 45.7329H73.3431C73.7972 45.7329 74.1653 45.3673 74.1653 44.9163C74.1653 44.4652 73.7972 44.0996 73.3431 44.0996Z" fill="url(#paint2_linear_176_1055)"/>
<path fill-rule="evenodd" clip-rule="evenodd" d="M61.9961 63.6511V64.4193C61.9961 64.8434 62.338 65.1876 62.7593 65.1876H71.9187C72.34 65.1876 72.6819 64.8434 72.6819 64.4193V63.6389C72.6819 61.3141 70.0425 59.8038 67.3391 59.8038C64.6354 59.8038 61.9961 61.3149 61.9961 63.6389M65.4226 53.055C64.3643 54.1062 64.3643 55.8106 65.4226 56.8618C66.481 57.9132 68.197 57.9132 69.2555 56.8618C70.3139 55.8106 70.3139 54.1062 69.2555 53.055C68.197 52.0038 66.481 52.0038 65.4226 53.055Z" fill="#5C5C5C"/>
<path d="M73.3431 67.293H61.0097C60.5556 67.293 60.1875 67.6586 60.1875 68.1096C60.1875 68.5607 60.5556 68.9263 61.0097 68.9263H73.3431C73.7972 68.9263 74.1653 68.5607 74.1653 68.1096C74.1653 67.6586 73.7972 67.293 73.3431 67.293Z" fill="#E1E4E5"/>
<path d="M73.3431 70.5596H61.0097C60.5556 70.5596 60.1875 70.9252 60.1875 71.3762C60.1875 71.8273 60.5556 72.1929 61.0097 72.1929H73.3431C73.7972 72.1929 74.1653 71.8273 74.1653 71.3762C74.1653 70.9252 73.7972 70.5596 73.3431 70.5596Z" fill="#E1E4E5"/>
<path fill-rule="evenodd" clip-rule="evenodd" d="M82.5508 38.8249V39.5931C82.5508 40.0171 82.8927 40.3614 83.314 40.3614H92.4734C92.8947 40.3614 93.2365 40.0171 93.2365 39.5931V38.8127C93.2365 36.488 90.5972 34.9776 87.8938 34.9776C85.1901 34.9776 82.5508 36.4888 82.5508 38.8127M82.5508 63.6516V64.4198C82.5508 64.8438 82.8927 65.1881 83.314 65.1881H92.4734C92.8947 65.1881 93.2365 64.8438 93.2365 64.4198V63.6393C93.2365 61.3146 90.5972 59.8043 87.8938 59.8043C85.1901 59.8043 82.5508 61.3154 82.5508 63.6393M85.9773 28.2288C84.9189 29.2801 84.9189 30.9844 85.9773 32.0358C87.0357 33.087 88.7517 33.087 89.8102 32.0358C90.8685 30.9844 90.8685 29.2801 89.8102 28.2288C88.7517 27.1776 87.0357 27.1776 85.9773 28.2288ZM85.9773 53.0555C84.9189 54.1067 84.9189 55.8111 85.9773 56.8625C87.0357 57.9137 88.7517 57.9137 89.8102 56.8625C90.8685 55.8111 90.8685 54.1067 89.8102 53.0555C88.7517 52.0043 87.0357 52.0043 85.9773 53.0555Z" fill="#5C5C5C"/>
<path d="M93.8977 42.4668H81.5644C81.1103 42.4668 80.7422 42.8324 80.7422 43.2835C80.7422 43.7345 81.1103 44.1001 81.5644 44.1001H93.8977C94.3518 44.1001 94.72 43.7345 94.72 43.2835C94.72 42.8324 94.3518 42.4668 93.8977 42.4668Z" fill="#E1E4E5"/>
<path d="M93.8977 67.293H81.5644C81.1103 67.293 80.7422 67.6586 80.7422 68.1096C80.7422 68.5607 81.1103 68.9263 81.5644 68.9263H93.8977C94.3518 68.9263 94.72 68.5607 94.72 68.1096C94.72 67.6586 94.3518 67.293 93.8977 67.293Z" fill="#E1E4E5"/>
<path d="M90.1155 45.7334H81.5644C81.1103 45.7334 80.7422 46.099 80.7422 46.5501C80.7422 47.0011 81.1103 47.3667 81.5644 47.3667H90.1155C90.5696 47.3667 90.9377 47.0011 90.9377 46.5501C90.9377 46.099 90.5696 45.7334 90.1155 45.7334Z" fill="#E1E4E5"/>
<path d="M93.8977 70.5596H81.5644C81.1103 70.5596 80.7422 70.9252 80.7422 71.3762C80.7422 71.8273 81.1103 72.1929 81.5644 72.1929H93.8977C94.3518 72.1929 94.72 71.8273 94.72 71.3762C94.72 70.9252 94.3518 70.5596 93.8977 70.5596Z" fill="#E1E4E5"/>
<path d="M76.509 44L89.6228 55.1142C89.8326 55.2917 89.9662 55.5473 89.9944 55.8256C90.0226 56.1039 89.9433 56.3824 89.7736 56.6009C89.6028 56.8209 89.3542 56.962 89.0824 56.9934C88.8107 57.0247 88.5379 56.9438 88.3241 56.7682L75 45.7907L76.509 44Z" fill="#D9D9D9"/>
<path d="M28.6736 61.8479C26.7978 63.5605 23.4825 63.0117 23.4825 63.0117C23.4825 63.0117 23.2106 59.6864 25.0879 57.9748C26.9637 56.2622 30.2775 56.8099 30.2775 56.8099C30.2775 56.8099 30.5495 60.1352 28.6736 61.8479Z" fill="url(#paint3_linear_176_1055)"/>
<path d="M27.4636 49.4897C28.0994 49.4897 28.6147 50.0016 28.6147 50.633C28.6147 51.2645 28.0994 51.7764 27.4636 51.7764C26.8279 51.7764 26.3125 51.2645 26.3125 50.633C26.3125 50.0016 26.8279 49.4897 27.4636 49.4897Z" fill="#E1E4E5"/>
<path d="M116.425 32.8301C117.151 32.8301 117.74 32.2451 117.74 31.5235C117.74 30.8018 117.151 30.2168 116.425 30.2168C115.698 30.2168 115.109 30.8018 115.109 31.5235C115.109 32.2451 115.698 32.8301 116.425 32.8301Z" fill="#545454"/>
<path d="M112.152 41.9766C113.06 41.9766 113.797 41.2454 113.797 40.3433C113.797 39.4412 113.06 38.71 112.152 38.71C111.244 38.71 110.508 39.4412 110.508 40.3433C110.508 41.2454 111.244 41.9766 112.152 41.9766Z" fill="#E1E4E5"/>
<path d="M108.502 27.9402C108.428 28.2165 108.593 28.5005 108.871 28.5745C109.149 28.6486 109.435 28.4846 109.51 28.2083C109.584 27.932 109.419 27.648 109.141 27.574C108.863 27.4999 108.577 27.6639 108.502 27.9402Z" fill="#E1E4E5"/>
<path d="M113.631 24.9898C114.085 24.9898 114.453 24.6241 114.453 24.1731C114.453 23.7221 114.085 23.3564 113.631 23.3564C113.177 23.3564 112.809 23.7221 112.809 24.1731C112.809 24.6241 113.177 24.9898 113.631 24.9898Z" fill="#E1E4E5"/>
<path d="M107.642 14.8633H107.617C107.468 16.8798 105.902 16.9108 105.902 16.9108C105.902 16.9108 107.629 16.9432 107.629 19.2733C107.629 16.9432 109.356 16.9108 109.356 16.9108C109.356 16.9108 107.79 16.8798 107.642 14.8633Z" fill="#E1E4E5"/>
<path d="M26.2274 22.2135C27.3627 22.2135 28.283 23.1276 28.283 24.2552C28.283 25.3828 27.3627 26.2969 26.2274 26.2969C25.0922 26.2969 24.1719 25.3828 24.1719 24.2552C24.1719 23.1276 25.0922 22.2135 26.2274 22.2135Z" fill="url(#paint4_linear_176_1055)"/>
<path d="M37.7397 16.4964C37.1494 16.4964 36.6708 16.0211 36.6708 15.4347C36.6708 14.8484 37.1494 14.373 37.7397 14.373C38.33 14.373 38.8086 14.8484 38.8086 15.4347C38.8086 16.0211 38.33 16.4964 37.7397 16.4964Z" fill="#E1E4E5"/>
<path d="M80 37C80 44.1797 74.1797 50 67 50C59.8203 50 54 44.1797 54 37C54 29.8203 59.8203 24 67 24C74.1797 24 80 29.8203 80 37ZM55.5061 37C55.5061 43.3479 60.6521 48.4939 67 48.4939C73.3479 48.4939 78.4939 43.3479 78.4939 37C78.4939 30.6521 73.3479 25.5061 67 25.5061C60.6521 25.5061 55.5061 30.6521 55.5061 37Z" fill="#D9D9D9"/>
</g>
<defs>
<linearGradient id="paint0_linear_176_1055" x1="76.3004" y1="89.8466" x2="76.2955" y2="78.7998" gradientUnits="userSpaceOnUse">
<stop stop-color="white"/>
<stop offset="1" stop-color="#EEEEEE"/>
</linearGradient>
<linearGradient id="paint1_linear_176_1055" x1="67.1764" y1="41.4668" x2="67.1764" y2="43.1001" gradientUnits="userSpaceOnUse">
<stop stop-color="#E1E4E5"/>
<stop offset="1" stop-color="#E1E4E5" stop-opacity="0"/>
</linearGradient>
<linearGradient id="paint2_linear_176_1055" x1="67.1764" y1="44.0996" x2="67.1764" y2="45.7329" gradientUnits="userSpaceOnUse">
<stop stop-color="#E1E4E5"/>
<stop offset="1" stop-color="#E1E4E5" stop-opacity="0"/>
</linearGradient>
<linearGradient id="paint3_linear_176_1055" x1="21.2426" y1="67.6461" x2="35.0394" y2="48.1361" gradientUnits="userSpaceOnUse">
<stop stop-color="white"/>
<stop offset="1" stop-color="#EEEEEE"/>
</linearGradient>
<linearGradient id="paint4_linear_176_1055" x1="28.3706" y1="17.8826" x2="28.2456" y2="28.6972" gradientUnits="userSpaceOnUse">
<stop stop-color="white"/>
<stop offset="1" stop-color="#EEEEEE"/>
</linearGradient>
<clipPath id="clip0_176_1055">
<rect width="148" height="98" fill="white"/>
</clipPath>
</defs>
</svg>
