<svg width="148" height="98" viewBox="0 0 148 98" fill="none" xmlns="http://www.w3.org/2000/svg">
<g clip-path="url(#clip0_510_101)">
<path d="M111.887 20.7381V29.3469H111.662V29.2552H36.2255V29.3469H36V20.7381C36.001 19.747 36.3933 18.7967 37.0909 18.0959C37.7886 17.3951 38.7345 17.001 39.7211 17H108.166C109.153 17.001 110.099 17.3951 110.796 18.0959C111.494 18.7967 111.886 19.747 111.887 20.7381Z" fill="#E1E4E5"/>
<path d="M108.166 17H39.7211C38.7345 17.001 37.7886 17.3951 37.0909 18.0959C36.3933 18.7967 36.001 19.747 36 20.7381V69.8991C36.001 70.8902 36.3933 71.8404 37.0909 72.5412C37.7886 73.2421 38.7345 73.6362 39.7211 73.6372H108.166C109.153 73.6362 110.099 73.2421 110.796 72.5412C111.494 71.8404 111.886 70.8902 111.887 69.8991V20.7381C111.886 19.747 111.494 18.7967 110.796 18.0959C110.099 17.3951 109.153 17.001 108.166 17ZM111.662 69.8991C111.661 70.8301 111.292 71.7225 110.637 72.3808C109.981 73.0391 109.093 73.4094 108.166 73.4106H39.7211C38.7944 73.4094 37.9059 73.0391 37.2506 72.3808C36.5954 71.7225 36.2267 70.8301 36.2255 69.8991V20.7381C36.2267 19.8071 36.5954 18.9146 37.2506 18.2564C37.9059 17.5981 38.7944 17.2277 39.7211 17.2265H108.166C109.093 17.2277 109.981 17.5981 110.637 18.2564C111.292 18.9146 111.661 19.8071 111.662 20.7381V69.8991Z" fill="#E1E4E5"/>
<path d="M51.3372 25.4392C52.5827 25.4392 53.5924 24.4249 53.5924 23.1737C53.5924 21.9225 52.5827 20.9082 51.3372 20.9082C50.0917 20.9082 49.082 21.9225 49.082 23.1737C49.082 24.4249 50.0917 25.4392 51.3372 25.4392Z" fill="white"/>
<path d="M96.5521 25.4392C97.7976 25.4392 98.8073 24.4249 98.8073 23.1737C98.8073 21.9225 97.7976 20.9082 96.5521 20.9082C95.3066 20.9082 94.2969 21.9225 94.2969 23.1737C94.2969 24.4249 95.3066 25.4392 96.5521 25.4392Z" fill="white"/>
<path d="M57.8524 48.4336H44.4367C43.8683 48.4329 43.3234 48.2058 42.9216 47.8021C42.5197 47.3984 42.2936 46.851 42.293 46.2801V39.9103C42.2936 39.3394 42.5197 38.792 42.9216 38.3883C43.3234 37.9846 43.8683 37.7575 44.4367 37.7568H57.8524C58.4208 37.7575 58.9657 37.9846 59.3675 38.3883C59.7694 38.792 59.9955 39.3394 59.9961 39.9103V46.2801C59.9955 46.851 59.7694 47.3984 59.3675 47.8021C58.9657 48.2058 58.4208 48.4329 57.8524 48.4336Z" fill="#2E5A37"/>
<path d="M80.6727 48.4336H67.257C66.6887 48.4329 66.1438 48.2058 65.7419 47.8021C65.34 47.3984 65.1139 46.851 65.1133 46.2801V39.9103C65.1139 39.3394 65.34 38.792 65.7419 38.3883C66.1438 37.9846 66.6887 37.7575 67.257 37.7568H80.6727C81.2411 37.7575 81.786 37.9846 82.1878 38.3883C82.5897 38.792 82.8158 39.3394 82.8164 39.9103V46.2801C82.8158 46.851 82.5897 47.3984 82.1878 47.8021C81.786 48.2058 81.2411 48.4329 80.6727 48.4336Z" fill="#3BD55A"/>
<path d="M80.6752 64.8913H67.2595C66.6739 64.8906 66.1125 64.6567 65.6984 64.2407C65.2844 63.8247 65.0514 63.2608 65.0508 62.6725V56.3027C65.0514 55.7145 65.2844 55.1505 65.6984 54.7346C66.1125 54.3186 66.6739 54.0846 67.2595 54.084H80.6752C81.2608 54.0846 81.8222 54.3186 82.2362 54.7346C82.6503 55.1505 82.8832 55.7145 82.8839 56.3027V62.6725C82.8832 63.2608 82.6503 63.8247 82.2362 64.2407C81.8222 64.6567 81.2608 64.8906 80.6752 64.8913Z" fill="#F2F2F2"/>
<path d="M57.808 64.8913H44.3923C43.8067 64.8906 43.2453 64.6567 42.8312 64.2407C42.4172 63.8247 42.1843 63.2608 42.1836 62.6725V56.3027C42.1843 55.7145 42.4172 55.1505 42.8312 54.7346C43.2453 54.3186 43.8067 54.0846 44.3923 54.084H57.808C58.3936 54.0846 58.955 54.3186 59.369 54.7346C59.7831 55.1505 60.016 55.7145 60.0167 56.3027V62.6725C60.016 63.2608 59.7831 63.8247 59.369 64.2407C58.955 64.6567 58.3936 64.8906 57.808 64.8913Z" fill="#F2F2F2"/>
<path d="M103.495 64.8913H90.0798C89.4942 64.8906 88.9328 64.6567 88.5187 64.2407C88.1047 63.8247 87.8718 63.2608 87.8711 62.6725V56.3027C87.8718 55.7145 88.1047 55.1505 88.5187 54.7346C88.9328 54.3186 89.4942 54.0846 90.0798 54.084H103.495C104.081 54.0846 104.642 54.3186 105.057 54.7346C105.471 55.1505 105.704 55.7145 105.704 56.3027V62.6725C105.704 63.2608 105.471 63.8247 105.057 64.2407C104.642 64.6567 104.081 64.8906 103.495 64.8913Z" fill="#F2F2F2"/>
<path d="M103.495 48.447H90.0798C89.4942 48.4463 88.9328 48.2123 88.5187 47.7964C88.1047 47.3804 87.8718 46.8164 87.8711 46.2282V39.8584C87.8718 39.2702 88.1047 38.7062 88.5187 38.2902C88.9328 37.8743 89.4942 37.6403 90.0798 37.6396H103.495C104.081 37.6403 104.642 37.8743 105.057 38.2902C105.471 38.7062 105.704 39.2702 105.704 39.8584V46.2282C105.704 46.8164 105.471 47.3804 105.057 47.7964C104.642 48.2123 104.081 48.4463 103.495 48.447Z" fill="#F2F2F2"/>
<path d="M51.1417 46.7503C53.1509 46.7503 54.7796 45.1141 54.7796 43.0958C54.7796 41.0776 53.1509 39.4414 51.1417 39.4414C49.1326 39.4414 47.5039 41.0776 47.5039 43.0958C47.5039 45.1141 49.1326 46.7503 51.1417 46.7503Z" fill="white"/>
<path d="M50.782 44.4893C50.7001 44.4894 50.6205 44.4629 50.555 44.4135L50.5509 44.4105L49.696 43.7529C49.6563 43.7225 49.6231 43.6845 49.598 43.6411C49.573 43.5977 49.5568 43.5498 49.5502 43.5001C49.5436 43.4504 49.5469 43.3999 49.5597 43.3514C49.5726 43.303 49.5948 43.2576 49.6252 43.2178C49.6556 43.178 49.6934 43.1446 49.7366 43.1195C49.7798 43.0944 49.8276 43.0781 49.877 43.0716C49.9265 43.065 49.9768 43.0683 50.025 43.0813C50.0732 43.0943 50.1184 43.1167 50.158 43.1472L50.7118 43.5737L52.0203 41.8594C52.0507 41.8196 52.0885 41.7862 52.1317 41.7611C52.1749 41.7361 52.2226 41.7198 52.272 41.7132C52.3215 41.7067 52.3718 41.71 52.4199 41.7229C52.4681 41.7359 52.5133 41.7582 52.5529 41.7887L52.5447 41.7998L52.5531 41.7889C52.6329 41.8505 52.6852 41.9415 52.6983 42.0418C52.7115 42.1421 52.6846 42.2435 52.6234 42.3239L51.0841 44.3404C51.0486 44.3869 51.0028 44.4245 50.9504 44.4503C50.898 44.4761 50.8403 44.4895 50.782 44.4893Z" fill="#6C63FF"/>
<path d="M74.0285 46.6975C76.0376 46.6975 77.6663 45.0614 77.6663 43.0431C77.6663 41.0248 76.0376 39.3887 74.0285 39.3887C72.0193 39.3887 70.3906 41.0248 70.3906 43.0431C70.3906 45.0614 72.0193 46.6975 74.0285 46.6975Z" fill="white"/>
<path d="M73.6684 44.4375C73.5865 44.4377 73.5069 44.4111 73.4414 44.3618L73.4373 44.3587L72.5824 43.7012C72.5024 43.6396 72.4501 43.5487 72.4369 43.4484C72.4237 43.3481 72.4507 43.2466 72.5119 43.1662C72.5732 43.0859 72.6637 43.0333 72.7636 43.0201C72.8634 43.0068 72.9645 43.0339 73.0444 43.0954L73.5982 43.522L74.9068 41.8076C74.9371 41.7678 74.975 41.7345 75.0182 41.7094C75.0613 41.6843 75.109 41.668 75.1585 41.6615C75.2079 41.6549 75.2582 41.6582 75.3064 41.6712C75.3545 41.6841 75.3997 41.7065 75.4393 41.737L75.4312 41.7481L75.4395 41.7371C75.5193 41.7988 75.5716 41.8897 75.5848 41.99C75.5979 42.0903 75.571 42.1917 75.5098 42.2721L73.9706 44.2886C73.935 44.3351 73.8892 44.3727 73.8368 44.3985C73.7844 44.4243 73.7268 44.4377 73.6684 44.4375Z" fill="#6C63FF"/>
<path d="M98.6181 60.2873C98.7376 60.156 98.827 60 98.88 59.8303C98.933 59.6605 98.9483 59.4812 98.9249 59.3049C98.9014 59.1285 98.8397 58.9595 98.7442 58.8097C98.6487 58.6599 98.5216 58.533 98.372 58.4379L96.341 47.5439L93.8711 48.464L96.6441 58.8831C96.5017 59.1462 96.4603 59.4527 96.5277 59.7444C96.5952 60.0362 96.7669 60.2929 97.0102 60.466C97.2535 60.6391 97.5516 60.7165 97.848 60.6836C98.1443 60.6506 98.4183 60.5096 98.6181 60.2873Z" fill="#A0616A"/>
<path d="M78.907 43.6649C78.9131 43.7325 78.9139 43.8005 78.9094 43.8683L83.7119 47.5814L85.0737 47.0196L86.1864 48.9735L83.8716 50.2034C83.6846 50.3027 83.4706 50.3385 83.2617 50.3052C83.0527 50.272 82.8601 50.1716 82.7129 50.019L77.9126 45.0475C77.6585 45.1051 77.3929 45.0836 77.1513 44.9858C76.9097 44.8881 76.7034 44.7188 76.5599 44.5004C76.4164 44.2821 76.3425 44.025 76.3479 43.7634C76.3534 43.5017 76.4381 43.248 76.5906 43.0359C76.7432 42.8238 76.9564 42.6634 77.2019 42.576C77.4474 42.4886 77.7136 42.4783 77.9651 42.5466C78.2165 42.6149 78.4413 42.7584 78.6096 42.9582C78.7778 43.1579 78.8816 43.4044 78.907 43.6649Z" fill="#A0616A"/>
<path d="M90.1299 79.6232H88.7476L88.0898 75.3994L90.1302 75.3995L90.1299 79.6232Z" fill="#A0616A"/>
<path d="M90.4809 80.9696L86.0234 80.9694V80.9128C86.0234 80.6839 86.0683 80.4573 86.1555 80.2458C86.2427 80.0343 86.3705 79.8422 86.5316 79.6804C86.6927 79.5185 86.884 79.3902 87.0945 79.3026C87.305 79.215 87.5306 79.1699 87.7584 79.1699L90.481 79.17L90.4809 80.9696Z" fill="#2F2E41"/>
<path d="M95.3135 79.6232H93.9312L93.2734 75.3994L95.3138 75.3995L95.3135 79.6232Z" fill="#A0616A"/>
<path d="M95.6684 80.9696L91.2109 80.9694V80.9128C91.2109 80.6839 91.2558 80.4573 91.343 80.2458C91.4302 80.0343 91.558 79.8422 91.7191 79.6804C91.8802 79.5185 92.0715 79.3902 92.282 79.3026C92.4925 79.215 92.7181 79.1699 92.9459 79.1699L95.6685 79.17L95.6684 80.9696Z" fill="#2F2E41"/>
<path d="M88.4593 78.7891C88.3331 78.7892 88.2114 78.742 88.118 78.6566C88.0247 78.5713 87.9664 78.454 87.9547 78.3278L86.75 62.0515L86.8069 62.0468L95.0971 61.3623L95.0994 61.4215L95.7584 78.2824C95.7609 78.3509 95.7497 78.4192 95.7254 78.4833C95.701 78.5473 95.6641 78.6058 95.6168 78.6551C95.5694 78.7045 95.5127 78.7438 95.4499 78.7706C95.3871 78.7974 95.3195 78.8112 95.2513 78.8112H93.6258C93.5045 78.8118 93.387 78.7684 93.2948 78.689C93.2027 78.6097 93.1422 78.4996 93.1243 78.379L90.9169 64.7583C90.9147 64.7443 90.9074 64.7315 90.8963 64.7227C90.8852 64.7138 90.8712 64.7094 90.8571 64.7105C90.843 64.7115 90.8297 64.7178 90.82 64.7282C90.8104 64.7386 90.8049 64.7523 90.8048 64.7665L90.7047 78.2148C90.7036 78.3447 90.6533 78.4693 90.564 78.5632C90.4747 78.6572 90.3531 78.7133 90.224 78.7203L88.4865 78.7883C88.4774 78.7889 88.4683 78.7891 88.4593 78.7891Z" fill="#2F2E41"/>
<path d="M89.875 41.4813C91.4045 41.4813 92.6445 40.2357 92.6445 38.6991C92.6445 37.1626 91.4045 35.917 89.875 35.917C88.3454 35.917 87.1055 37.1626 87.1055 38.6991C87.1055 40.2357 88.3454 41.4813 89.875 41.4813Z" fill="#A0616A"/>
<path d="M90.4094 63.0894C89.1989 63.0857 87.9943 62.9203 86.8272 62.5975C86.7149 62.5647 86.6173 62.494 86.5508 62.3973C86.4844 62.3006 86.4531 62.1838 86.4623 62.0667C86.8352 56.4377 86.9228 52.0694 86.1388 49.047C85.8047 47.7589 85.9564 46.4022 86.555 45.3249C87.456 43.7036 89.1119 42.7168 90.8782 42.7509C90.9627 42.7525 91.0479 42.7555 91.134 42.7599C93.8146 42.8986 95.9034 45.3347 95.7903 48.1905L95.2511 61.8025C95.2492 61.9018 95.218 61.9983 95.1615 62.0799C95.105 62.1614 95.0257 62.2243 94.9337 62.2606C93.4873 62.8072 91.9548 63.0879 90.4094 63.0894Z" fill="#3F3D56"/>
<path d="M86.5958 50.0924L84.5213 47.5387C84.4623 47.4661 84.4196 47.3815 84.396 47.2907C84.3725 47.2 84.3687 47.1052 84.3849 47.0128C84.4011 46.9205 84.4369 46.8327 84.4899 46.7555C84.5429 46.6783 84.6119 46.6135 84.6921 46.5655L87.5022 44.8834C87.874 44.582 88.3495 44.4411 88.8246 44.4915C89.2996 44.5418 89.7354 44.7794 90.0364 45.1521C90.3373 45.5248 90.4788 46.0021 90.4299 46.4795C90.381 46.9568 90.1457 47.3952 89.7755 47.6985L87.5792 50.1195C87.5163 50.1888 87.4393 50.2437 87.3534 50.2804C87.2674 50.3171 87.1747 50.3348 87.0813 50.3322C86.988 50.3296 86.8963 50.3069 86.8126 50.2655C86.7288 50.2241 86.6549 50.1651 86.5958 50.0924Z" fill="#3F3D56"/>
<path d="M93.1213 49.7719C93.0361 49.7336 92.9601 49.6773 92.8985 49.6068C92.837 49.5363 92.7913 49.4533 92.7645 49.3635L91.8307 46.2252C91.6279 45.7906 91.605 45.293 91.767 44.8415C91.929 44.39 92.2626 44.0215 92.6947 43.8167C93.1268 43.612 93.6221 43.5878 94.0719 43.7494C94.5218 43.911 94.8894 44.2452 95.0943 44.6788L96.9003 47.4187C96.9518 47.4969 96.986 47.5853 97.0004 47.678C97.0149 47.7707 97.0093 47.8653 96.984 47.9556C96.9587 48.0459 96.9144 48.1297 96.854 48.2012C96.7936 48.2727 96.7186 48.3303 96.634 48.3701L93.6623 49.7674C93.5778 49.8072 93.4857 49.8282 93.3923 49.829C93.299 49.8298 93.2065 49.8103 93.1213 49.7719Z" fill="#3F3D56"/>
<path d="M91.242 40.982L89.1891 40.51C88.9773 40.4613 88.7229 40.3684 88.6936 40.1522C88.6541 39.8616 89.0703 39.6592 89.0319 39.3685C88.9948 39.0869 88.6156 39.0506 88.3452 38.9675C88.0934 38.8788 87.8858 38.6951 87.7665 38.4553C87.6471 38.2156 87.6252 37.9386 87.7056 37.6829C87.4131 38.0971 86.7447 38.1325 86.3653 37.797C85.9858 37.4615 85.9131 36.8528 86.1409 36.3995C86.264 36.1768 86.4377 35.9865 86.6478 35.844C86.8579 35.7015 87.0986 35.6108 87.3502 35.5793C87.856 35.5217 88.3674 35.6175 88.8186 35.8543C88.8487 35.5334 89.2476 35.4033 89.5685 35.4004C90.2351 35.4082 90.8827 35.6246 91.4211 36.0194C91.9596 36.4142 92.3621 36.9678 92.5728 37.6032C92.9665 38.8777 92.7031 40.2749 91.6014 41.0206L91.242 40.982Z" fill="#2F2E41"/>
<path d="M111.918 81H68.9565C68.9266 81 68.8979 80.9881 68.8768 80.9668C68.8556 80.9456 68.8438 80.9168 68.8438 80.8867C68.8438 80.8567 68.8556 80.8279 68.8768 80.8066C68.8979 80.7854 68.9266 80.7734 68.9565 80.7734H111.918C111.948 80.7734 111.977 80.7854 111.998 80.8066C112.019 80.8279 112.031 80.8567 112.031 80.8867C112.031 80.9168 112.019 80.9456 111.998 80.9668C111.977 80.9881 111.948 81 111.918 81Z" fill="#3F3D56"/>
</g>
<path d="M33.2049 57.4749C31.3291 59.1874 28.0137 58.6386 28.0137 58.6386C28.0137 58.6386 27.7419 55.3133 29.6192 53.6017C31.495 51.8892 34.8087 52.4369 34.8087 52.4369C34.8087 52.4369 35.0807 55.7622 33.2049 57.4749Z" fill="url(#paint0_linear_510_101)"/>
<path d="M31.9949 45.1167C32.6306 45.1167 33.146 45.6285 33.146 46.26C33.146 46.8914 32.6306 47.4033 31.9949 47.4033C31.3591 47.4033 30.8438 46.8914 30.8438 46.26C30.8438 45.6285 31.3591 45.1167 31.9949 45.1167Z" fill="#E1E4E5"/>
<path d="M120.956 28.4571C121.683 28.4571 122.272 27.8721 122.272 27.1504C122.272 26.4288 121.683 25.8438 120.956 25.8438C120.23 25.8438 119.641 26.4288 119.641 27.1504C119.641 27.8721 120.23 28.4571 120.956 28.4571Z" fill="#545454"/>
<path d="M116.684 37.6036C117.592 37.6036 118.328 36.8723 118.328 35.9702C118.328 35.0682 117.592 34.3369 116.684 34.3369C115.775 34.3369 115.039 35.0682 115.039 35.9702C115.039 36.8723 115.775 37.6036 116.684 37.6036Z" fill="#E1E4E5"/>
<path d="M113.033 23.5671C112.959 23.8434 113.124 24.1274 113.402 24.2015C113.68 24.2755 113.966 24.1115 114.041 23.8352C114.115 23.5589 113.95 23.2749 113.672 23.2009C113.394 23.1269 113.108 23.2908 113.033 23.5671Z" fill="#E1E4E5"/>
<path d="M118.162 20.6167C118.616 20.6167 118.984 20.2511 118.984 19.8001C118.984 19.349 118.616 18.9834 118.162 18.9834C117.708 18.9834 117.34 19.349 117.34 19.8001C117.34 20.2511 117.708 20.6167 118.162 20.6167Z" fill="#E1E4E5"/>
<path d="M112.173 10.4902H112.148C111.999 12.5067 110.434 12.5378 110.434 12.5378C110.434 12.5378 112.16 12.5701 112.16 14.9002C112.16 12.5701 113.887 12.5378 113.887 12.5378C113.887 12.5378 112.322 12.5067 112.173 10.4902Z" fill="#E1E4E5"/>
<path d="M30.7587 17.8405C31.8939 17.8405 32.8142 18.7546 32.8142 19.8822C32.8142 21.0097 31.8939 21.9238 30.7587 21.9238C29.6234 21.9238 28.7031 21.0097 28.7031 19.8822C28.7031 18.7546 29.6234 17.8405 30.7587 17.8405Z" fill="url(#paint1_linear_510_101)"/>
<path d="M42.271 12.1233C41.6806 12.1233 41.2021 11.648 41.2021 11.0617C41.2021 10.4753 41.6806 10 42.271 10C42.8613 10 43.3398 10.4753 43.3398 11.0617C43.3398 11.648 42.8613 12.1233 42.271 12.1233Z" fill="#E1E4E5"/>
<defs>
<linearGradient id="paint0_linear_510_101" x1="25.7738" y1="63.273" x2="39.5707" y2="43.763" gradientUnits="userSpaceOnUse">
<stop stop-color="white"/>
<stop offset="1" stop-color="#EEEEEE"/>
</linearGradient>
<linearGradient id="paint1_linear_510_101" x1="32.9019" y1="13.5095" x2="32.7768" y2="24.3242" gradientUnits="userSpaceOnUse">
<stop stop-color="white"/>
<stop offset="1" stop-color="#EEEEEE"/>
</linearGradient>
<clipPath id="clip0_510_101">
<rect width="76" height="64" fill="white" transform="translate(36 17)"/>
</clipPath>
</defs>
</svg>
