<svg width="40" height="40" viewBox="0 0 40 40" fill="none" xmlns="http://www.w3.org/2000/svg">
<path fill-rule="evenodd" clip-rule="evenodd" d="M6.25 21.25C6.94036 21.25 7.5 21.8096 7.5 22.5V36.25H32.5V22.5C32.5 21.8096 33.0596 21.25 33.75 21.25C34.4404 21.25 35 21.8096 35 22.5V37.5C35 38.1904 34.4404 38.75 33.75 38.75H6.25C5.55964 38.75 5 38.1904 5 37.5V22.5C5 21.8096 5.55964 21.25 6.25 21.25Z" fill="#5C5C5C"/>
<path fill-rule="evenodd" clip-rule="evenodd" d="M7.706 1.80879C7.93762 1.45979 8.32864 1.25 8.7475 1.25H31.2475C31.6664 1.25 32.0574 1.45979 32.289 1.80879L39.7553 13.0588C39.9176 13.3033 39.9886 13.5972 39.956 13.8889C39.7681 15.5697 38.9672 17.1223 37.7064 18.2498C36.4457 19.3772 34.8136 20.0003 33.1223 20L33.1032 19.9999C32.0803 19.984 31.0733 19.7442 30.1531 19.2972C29.6522 19.0539 29.1837 18.7525 28.7566 18.4002C28.328 18.7596 27.8555 19.0663 27.3492 19.3123C26.4224 19.7624 25.4059 19.9975 24.3755 20L24.3567 19.9999C23.3322 19.9869 22.3232 19.7481 21.4016 19.3005C20.8974 19.0556 20.4263 18.7516 19.9975 18.3959C19.5687 18.7516 19.0976 19.0556 18.5934 19.3005C17.6718 19.7481 16.6628 19.9869 15.6383 19.9999L15.6195 20C14.5892 19.9975 13.5726 19.7624 12.6458 19.3123C12.1375 19.0654 11.6634 18.7573 11.2334 18.396C10.806 18.7462 10.3378 19.0463 9.83791 19.2891C8.9213 19.7343 7.9195 19.9767 6.90075 19.9997C6.89142 19.9999 6.88208 20 6.87274 20C5.18142 20.0003 3.54933 19.3772 2.28858 18.2498C1.02784 17.1223 0.226917 15.5697 0.0389923 13.8889C0.00638063 13.5972 0.0774504 13.3033 0.23975 13.0588L7.706 1.80879ZM9.41816 3.75L2.59216 14.0353C2.78461 14.9401 3.26003 15.7647 3.95507 16.3862C4.75389 17.1006 5.78699 17.4968 6.8583 17.5C7.51295 17.4832 8.15649 17.3265 8.74565 17.0403C9.33902 16.7521 9.86329 16.3393 10.2827 15.8302C10.523 15.5386 10.8823 15.3712 11.2601 15.3751C11.638 15.3789 11.9938 15.5534 12.2281 15.8499C12.6337 16.3629 13.1498 16.7778 13.7381 17.0635C14.3235 17.3479 14.9653 17.497 15.6161 17.5C16.2697 17.4903 16.9132 17.3373 17.5012 17.0517C18.092 16.7647 18.6123 16.3509 19.0249 15.8398C19.2622 15.5459 19.6197 15.375 19.9975 15.375C20.3753 15.375 20.7328 15.5459 20.9701 15.8398C21.3827 16.3509 21.903 16.7647 22.4938 17.0517C23.0818 17.3373 23.7253 17.4903 24.3789 17.5C25.0297 17.497 25.6715 17.3479 26.2569 17.0635C26.8452 16.7778 27.3613 16.3629 27.7669 15.8499C28.0021 15.5522 28.3599 15.3775 28.7393 15.375C29.1188 15.3725 29.4788 15.5425 29.7179 15.8371C30.1324 16.3477 30.6538 16.7611 31.2454 17.0485C31.8341 17.3344 32.478 17.4885 33.1323 17.5C34.2052 17.4979 35.24 17.1015 36.0399 16.3862C36.735 15.7647 37.2104 14.9401 37.4028 14.0353L30.5768 3.75H9.41816Z" fill="#5C5C5C"/>
<path fill-rule="evenodd" clip-rule="evenodd" d="M15 27.5C15 26.8096 15.5596 26.25 16.25 26.25H23.75C24.4404 26.25 25 26.8096 25 27.5V37.5C25 38.1904 24.4404 38.75 23.75 38.75C23.0596 38.75 22.5 38.1904 22.5 37.5V28.75H17.5V37.5C17.5 38.1904 16.9404 38.75 16.25 38.75C15.5596 38.75 15 38.1904 15 37.5V27.5Z" fill="#5C5C5C"/>
</svg>
