<svg width="34" height="34" viewBox="0 0 34 34" fill="none" xmlns="http://www.w3.org/2000/svg">
<g clip-path="url(#clip0_176_1921)">
<path fill-rule="evenodd" clip-rule="evenodd" d="M13.0611 2.43626C13.2604 2.23697 13.5307 2.125 13.8125 2.125H20.8958C21.4826 2.125 21.9582 2.60059 21.9583 3.18732L21.959 7.43732C21.9591 8.02413 21.4835 8.4999 20.8967 8.5C20.3099 8.5001 19.8341 8.02448 19.834 7.43768L19.8335 4.25H14.8752L14.8757 7.43732C14.8758 8.02413 14.4002 8.4999 13.8134 8.5C13.2266 8.5001 12.7508 8.02448 12.7507 7.43768L12.75 3.18768C12.75 2.90585 12.8619 2.63556 13.0611 2.43626Z" fill="#5C5C5C"/>
<path fill-rule="evenodd" clip-rule="evenodd" d="M9.4852 6.375C9.48517 6.375 9.48523 6.375 9.4852 6.375H25.2342C26.0521 6.37508 26.8494 6.63259 27.5128 7.11105C28.1762 7.58951 28.6722 8.26463 28.9305 9.04072L31.1176 15.6015C31.3032 16.1582 31.0024 16.7599 30.4457 16.9455C29.889 17.131 29.2873 16.8302 29.1017 16.2735L26.9144 9.71223C26.797 9.35946 26.5713 9.05205 26.2698 8.83457C25.9683 8.61711 25.606 8.50006 25.2342 8.5C25.2342 8.5 25.2342 8.5 25.2342 8.5H9.48512C9.11344 8.49997 8.75109 8.6169 8.44956 8.83421C8.14804 9.05151 7.92253 9.35817 7.80498 9.71075C7.80498 9.71077 7.80499 9.71073 7.80498 9.71075L5.61765 16.2735C5.4321 16.8302 4.8304 17.131 4.2737 16.9455C3.71701 16.7599 3.41613 16.1582 3.60168 15.6015L5.78901 9.03883C6.04761 8.2631 6.54375 7.58834 7.20713 7.11026C7.87049 6.63219 8.66753 6.37496 9.4852 6.375Z" fill="#5C5C5C"/>
<path fill-rule="evenodd" clip-rule="evenodd" d="M1.77344 26.917C2.36024 26.917 2.83594 27.3927 2.83594 27.9795V31.167H7.08594V27.9795C7.08594 27.3927 7.56163 26.917 8.14844 26.917C8.73524 26.917 9.21094 27.3927 9.21094 27.9795V32.2295C9.21094 32.8163 8.73524 33.292 8.14844 33.292H1.77344C1.18663 33.292 0.710938 32.8163 0.710938 32.2295V27.9795C0.710938 27.3927 1.18663 26.917 1.77344 26.917Z" fill="#5C5C5C"/>
<path fill-rule="evenodd" clip-rule="evenodd" d="M26.5625 26.917C27.1493 26.917 27.625 27.3927 27.625 27.9795V31.167H31.875V27.9795C31.875 27.3927 32.3507 26.917 32.9375 26.917C33.5243 26.917 34 27.3927 34 27.9795V32.2295C34 32.8163 33.5243 33.292 32.9375 33.292H26.5625C25.9757 33.292 25.5 32.8163 25.5 32.2295V27.9795C25.5 27.3927 25.9757 26.917 26.5625 26.917Z" fill="#5C5C5C"/>
<path fill-rule="evenodd" clip-rule="evenodd" d="M3.85883 15.1829C4.05781 14.9856 4.32662 14.875 4.60677 14.875H30.1068C30.3886 14.875 30.6589 14.987 30.8582 15.1863L32.8547 17.1836C32.8546 17.1835 32.8548 17.1837 32.8547 17.1836C33.219 17.5477 33.5076 17.9808 33.7035 18.4571C33.8994 18.9336 33.9989 19.4442 33.9962 19.9594L33.9523 27.985C33.9491 28.5695 33.4743 29.0417 32.8898 29.0417H1.77344C1.18663 29.0417 0.710938 28.566 0.710938 27.9792V19.9261C0.71104 19.4118 0.812994 18.9023 1.01092 18.4276C1.20884 17.9528 1.49881 17.522 1.8641 17.1599L3.85883 15.1829ZM5.0441 17L3.3601 18.669C3.36009 18.6691 3.36012 18.669 3.3601 18.669C3.19409 18.8336 3.06225 19.0295 2.97229 19.2453C2.88235 19.461 2.83601 19.6924 2.83594 19.9261C2.83594 19.9261 2.83594 19.9262 2.83594 19.9261V26.9167H31.8331L31.8712 19.9481C31.8725 19.714 31.8273 19.4819 31.7382 19.2653C31.6491 19.0487 31.518 18.852 31.3524 18.6864L29.6666 17H5.0441Z" fill="#5C5C5C"/>
<path fill-rule="evenodd" clip-rule="evenodd" d="M4.96094 20.8955C4.96094 20.3087 5.43663 19.833 6.02344 19.833H10.2734C10.8602 19.833 11.3359 20.3087 11.3359 20.8955C11.3359 21.4823 10.8602 21.958 10.2734 21.958H6.02344C5.43663 21.958 4.96094 21.4823 4.96094 20.8955Z" fill="#5C5C5C"/>
<path fill-rule="evenodd" clip-rule="evenodd" d="M23.375 20.8955C23.375 20.3087 23.8507 19.833 24.4375 19.833H28.6875C29.2743 19.833 29.75 20.3087 29.75 20.8955C29.75 21.4823 29.2743 21.958 28.6875 21.958H24.4375C23.8507 21.958 23.375 21.4823 23.375 20.8955Z" fill="#5C5C5C"/>
</g>
<defs>
<clipPath id="clip0_176_1921">
<rect width="34" height="34" fill="white"/>
</clipPath>
</defs>
</svg>
