<svg width="39" height="39" viewBox="0 0 39 39" fill="none" xmlns="http://www.w3.org/2000/svg">
<path fill-rule="evenodd" clip-rule="evenodd" d="M2.4375 17.0625C2.4375 16.3894 2.98315 15.8438 3.65625 15.8438H15.8438C16.5168 15.8438 17.0625 16.3894 17.0625 17.0625C17.0625 17.7356 16.5168 18.2812 15.8438 18.2812H3.65625C2.98315 18.2812 2.4375 17.7356 2.4375 17.0625Z" fill="#5C5C5C"/>
<path fill-rule="evenodd" clip-rule="evenodd" d="M21.9375 17.0625C21.9375 16.3894 22.4832 15.8438 23.1562 15.8438H35.3438C36.0168 15.8438 36.5625 16.3894 36.5625 17.0625C36.5625 17.7356 36.0168 18.2812 35.3438 18.2812H23.1562C22.4832 18.2812 21.9375 17.7356 21.9375 17.0625Z" fill="#5C5C5C"/>
<path fill-rule="evenodd" clip-rule="evenodd" d="M2.4375 10.9688C2.4375 10.2957 2.98315 9.75 3.65625 9.75H15.8438C16.5168 9.75 17.0625 10.2957 17.0625 10.9688V21.9375C17.0625 23.8769 16.2921 25.7369 14.9207 27.1082C13.5494 28.4796 11.6894 29.25 9.75 29.25C7.8106 29.25 5.95064 28.4796 4.57928 27.1082C3.20792 25.7369 2.4375 23.8769 2.4375 21.9375V10.9688ZM4.875 12.1875V21.9375C4.875 23.2304 5.38861 24.4704 6.30285 25.3846C7.21709 26.2989 8.45707 26.8125 9.75 26.8125C11.0429 26.8125 12.2829 26.2989 13.1971 25.3846C14.1114 24.4704 14.625 23.2304 14.625 21.9375V12.1875H4.875Z" fill="#5C5C5C"/>
<path fill-rule="evenodd" clip-rule="evenodd" d="M21.9375 10.9688C21.9375 10.2957 22.4832 9.75 23.1562 9.75H35.3438C36.0168 9.75 36.5625 10.2957 36.5625 10.9688V21.9375C36.5625 23.8769 35.7921 25.7369 34.4207 27.1082C33.0494 28.4796 31.1894 29.25 29.25 29.25C27.3106 29.25 25.4506 28.4796 24.0793 27.1082C22.7079 25.7369 21.9375 23.8769 21.9375 21.9375V10.9688ZM24.375 12.1875V21.9375C24.375 23.2304 24.8886 24.4704 25.8029 25.3846C26.7171 26.2989 27.9571 26.8125 29.25 26.8125C30.5429 26.8125 31.7829 26.2989 32.6971 25.3846C33.6114 24.4704 34.125 23.2304 34.125 21.9375V12.1875H24.375Z" fill="#5C5C5C"/>
<path fill-rule="evenodd" clip-rule="evenodd" d="M9.75 26.8125C10.4231 26.8125 10.9688 27.3582 10.9688 28.0312V37.7812C10.9688 38.4543 10.4231 39 9.75 39C9.0769 39 8.53125 38.4543 8.53125 37.7812V28.0312C8.53125 27.3582 9.0769 26.8125 9.75 26.8125Z" fill="#5C5C5C"/>
<path fill-rule="evenodd" clip-rule="evenodd" d="M3.65625 37.7812C3.65625 37.1082 4.2019 36.5625 4.875 36.5625H14.625C15.2981 36.5625 15.8438 37.1082 15.8438 37.7812C15.8438 38.4543 15.2981 39 14.625 39H4.875C4.2019 39 3.65625 38.4543 3.65625 37.7812Z" fill="#5C5C5C"/>
<path fill-rule="evenodd" clip-rule="evenodd" d="M19.5 0C20.1731 0 20.7188 0.545653 20.7188 1.21875V4.875C20.7188 5.5481 20.1731 6.09375 19.5 6.09375C18.8269 6.09375 18.2812 5.5481 18.2812 4.875V1.21875C18.2812 0.545653 18.8269 0 19.5 0Z" fill="#5C5C5C"/>
<path fill-rule="evenodd" clip-rule="evenodd" d="M11.7476 3.21243C12.2235 2.73648 12.9952 2.73648 13.4712 3.21243L16.0561 5.7974C16.5321 6.27335 16.5321 7.04502 16.0561 7.52097C15.5802 7.99693 14.8085 7.99693 14.3326 7.52097L11.7476 4.93601C11.2716 4.46005 11.2716 3.68838 11.7476 3.21243Z" fill="#5C5C5C"/>
<path fill-rule="evenodd" clip-rule="evenodd" d="M27.2593 3.21243C27.7352 3.68838 27.7352 4.46005 27.2593 4.93601L24.6743 7.52097C24.1983 7.99693 23.4267 7.99693 22.9507 7.52097C22.4748 7.04502 22.4748 6.27335 22.9507 5.7974L25.5357 3.21243C26.0116 2.73648 26.7833 2.73648 27.2593 3.21243Z" fill="#5C5C5C"/>
<path fill-rule="evenodd" clip-rule="evenodd" d="M29.25 26.8125C29.9231 26.8125 30.4688 27.3582 30.4688 28.0312V37.7812C30.4688 38.4543 29.9231 39 29.25 39C28.5769 39 28.0312 38.4543 28.0312 37.7812V28.0312C28.0312 27.3582 28.5769 26.8125 29.25 26.8125Z" fill="#5C5C5C"/>
<path fill-rule="evenodd" clip-rule="evenodd" d="M23.1562 37.7812C23.1562 37.1082 23.7019 36.5625 24.375 36.5625H34.125C34.7981 36.5625 35.3438 37.1082 35.3438 37.7812C35.3438 38.4543 34.7981 39 34.125 39H24.375C23.7019 39 23.1562 38.4543 23.1562 37.7812Z" fill="#5C5C5C"/>
</svg>
