<svg width="679" height="507" viewBox="0 0 679 507" fill="none" xmlns="http://www.w3.org/2000/svg">
<g clip-path="url(#clip0_630_792)">
<path d="M264.564 140.744H0V0H264.564V140.744Z" fill="white"/>
<path d="M264.248 0.946777H0.947144V34.3973H264.248V0.946777Z" fill="#E4E4E4"/>
<path d="M264.564 140.744H0V0H264.564V140.744ZM1.89425 138.851H262.67V1.89342H1.89425V138.851Z" fill="#CACACA"/>
<path d="M119.358 62.2993C118.107 62.3033 117.095 63.927 117.097 65.9259C117.1 67.9192 118.11 69.5342 119.358 69.5381H226.139C227.39 69.5341 228.402 67.9105 228.4 65.9116C228.397 63.9182 227.387 62.3032 226.139 62.2993H119.358Z" fill="#E4E4E4"/>
<path d="M119.358 83.2727C118.107 83.2767 117.095 84.9004 117.097 86.8993C117.1 88.8926 118.11 90.5076 119.358 90.5115H226.139C227.39 90.5075 228.402 88.8839 228.4 86.885C228.397 84.8916 227.387 83.2766 226.139 83.2727H119.358Z" fill="#E4E4E4"/>
<path d="M119.358 103.993C118.107 103.997 117.095 105.62 117.097 107.619C117.1 109.613 118.11 111.228 119.358 111.232H165.306C166.557 111.228 167.569 109.604 167.567 107.605C167.564 105.612 166.554 103.997 165.306 103.993H119.358Z" fill="#E4E4E4"/>
<path d="M65.1402 115.454C81.1433 115.454 94.1164 102.487 94.1164 86.4908C94.1164 70.4947 81.1433 57.5273 65.1402 57.5273C49.1371 57.5273 36.1641 70.4947 36.1641 86.4908C36.1641 102.487 49.1371 115.454 65.1402 115.454Z" fill="#E4E4E4"/>
<path d="M579.641 140.744H315.077V0H579.641V140.744Z" fill="white"/>
<path d="M579.326 0.946777H316.025V34.3973H579.326V0.946777Z" fill="#E4E4E4"/>
<path d="M579.641 140.744H315.077V0H579.641V140.744ZM316.972 138.851H577.747V1.89342H316.972V138.851Z" fill="#CACACA"/>
<path d="M434.435 62.2993C433.185 62.3033 432.172 63.927 432.175 65.9259C432.177 67.9192 433.188 69.5342 434.435 69.5381H541.217C542.468 69.5341 543.48 67.9105 543.477 65.9116C543.475 63.9182 542.464 62.3032 541.217 62.2993H434.435Z" fill="#E4E4E4"/>
<path d="M434.435 83.2727C433.185 83.2767 432.172 84.9004 432.175 86.8993C432.177 88.8926 433.188 90.5076 434.435 90.5115H541.217C542.468 90.5075 543.48 88.8839 543.477 86.885C543.475 84.8916 542.464 83.2766 541.217 83.2727H434.435Z" fill="#E4E4E4"/>
<path d="M434.435 103.993C433.185 103.997 432.172 105.62 432.175 107.619C432.177 109.613 433.188 111.228 434.435 111.232H480.384C481.635 111.228 482.647 109.604 482.644 107.605C482.642 105.612 481.631 103.997 480.384 103.993H434.435Z" fill="#E4E4E4"/>
<path d="M380.218 115.454C396.221 115.454 409.194 102.487 409.194 86.4908C409.194 70.4947 396.221 57.5273 380.218 57.5273C364.215 57.5273 351.242 70.4947 351.242 86.4908C351.242 102.487 364.215 115.454 380.218 115.454Z" fill="#E4E4E4"/>
<path d="M457.428 278.69H122.213V100.36H457.428V278.69Z" fill="white"/>
<path d="M457.028 101.56H123.413V143.943H457.028V101.56Z" fill="#242429"/>
<path d="M457.428 278.69H122.213V100.36H457.428V278.69ZM124.613 276.291H455.028V102.759H124.613V276.291Z" fill="#3F3D56" fill-opacity="0.4"/>
<path d="M273.445 179.296C271.86 179.301 270.578 181.359 270.581 183.891C270.584 186.417 271.865 188.463 273.445 188.468H408.743C410.327 188.463 411.61 186.406 411.607 183.873C411.603 181.348 410.323 179.301 408.743 179.296H273.445Z" fill="#E4E4E4"/>
<path d="M273.445 205.871C271.86 205.876 270.578 207.933 270.581 210.466C270.584 212.992 271.865 215.038 273.445 215.043H408.743C410.327 215.038 411.61 212.981 411.607 210.448C411.603 207.922 410.323 205.876 408.743 205.871H273.445Z" fill="#E4E4E4"/>
<path d="M273.445 232.124C271.86 232.129 270.578 234.186 270.581 236.719C270.584 239.245 271.865 241.291 273.445 241.296H331.664C333.249 241.291 334.531 239.233 334.528 236.701C334.525 234.175 333.244 232.129 331.664 232.124H273.445Z" fill="#E4E4E4"/>
<path d="M204.749 246.646C225.026 246.646 241.463 230.216 241.463 209.948C241.463 189.681 225.026 173.25 204.749 173.25C184.472 173.25 168.035 189.681 168.035 209.948C168.035 230.216 184.472 246.646 204.749 246.646Z" fill="#E4E4E4"/>
<path d="M601.108 485.468L592.148 489.457L572.489 456.813L585.713 450.925L601.108 485.468Z" fill="#FFB6B6"/>
<path d="M607.262 493.131L578.373 505.995L578.21 505.63C576.882 502.649 576.792 499.263 577.962 496.216C579.131 493.17 581.463 490.712 584.445 489.384L584.445 489.383L602.09 481.526L607.262 493.131Z" fill="#2F2E41"/>
<path d="M555.956 302.81C556.861 301.939 557.564 300.88 558.016 299.708C558.467 298.536 558.656 297.279 558.569 296.026C558.482 294.774 558.121 293.555 557.512 292.457C556.903 291.358 556.06 290.407 555.043 289.669L545.551 212.001L530.75 215.644L542.609 292.027C541.482 293.817 541.051 295.957 541.398 298.043C541.745 300.129 542.845 302.015 544.491 303.344C546.136 304.674 548.212 305.353 550.325 305.255C552.438 305.156 554.442 304.286 555.956 302.81Z" fill="#FFB6B6"/>
<path d="M550.892 224.513C550.22 225.118 549.372 225.493 548.472 225.584L529.107 227.535C528.498 227.596 527.884 227.526 527.306 227.328C526.727 227.131 526.198 226.811 525.754 226.391C525.311 225.971 524.963 225.46 524.734 224.893C524.506 224.326 524.403 223.717 524.431 223.107L525.335 203.732C525.193 202.3 525.336 200.853 525.758 199.476C526.179 198.1 526.87 196.82 527.791 195.713C529.181 194.014 531.044 192.765 533.144 192.124C535.244 191.483 537.487 191.479 539.589 192.112C541.692 192.745 543.559 193.987 544.956 195.68C546.353 197.374 547.215 199.444 547.436 201.627L552.169 220.312C552.358 221.062 552.34 221.849 552.115 222.59C551.89 223.33 551.467 223.995 550.892 224.513Z" fill="#3BD55A"/>
<path d="M538.829 273.961L484.986 263.262L484.628 255.748L484.635 255.7L490.439 217.157C489.659 215.532 482.755 200.332 492.786 191.81C495.151 189.795 497.334 187.575 499.308 185.176C502.438 181.262 506.47 178.165 511.06 176.151C515.65 174.137 520.66 173.267 525.66 173.614C528.759 173.865 531.766 174.784 534.476 176.307C537.185 177.831 539.533 179.922 541.358 182.438C545.344 187.785 547.148 194.447 546.402 201.073L538.829 273.961Z" fill="#3BD55A"/>
<path d="M484.491 496.492L474.683 496.491L470.017 458.676L484.493 458.677L484.491 496.492Z" fill="#FFB6B6"/>
<path d="M486.993 505.995L455.367 505.994V505.594C455.367 502.331 456.664 499.202 458.972 496.894C461.281 494.587 464.412 493.29 467.676 493.29H467.677L486.993 493.291L486.993 505.995Z" fill="#2F2E41"/>
<path d="M469.429 481.81L467.297 324.341C466.6 300.813 472.761 277.59 485.029 257.498C485.029 257.498 532.631 257.099 540.232 273.492L597.034 471.014L581.034 478.211L513.031 330.27L488.629 482.61L469.429 481.81Z" fill="#2F2E41"/>
<path d="M461.652 217.944C461.989 218.309 462.297 218.7 462.573 219.114L507.134 219.162L512.572 209.806L527.771 216.163L519.755 233.662C519.107 235.076 518.018 236.241 516.651 236.984C515.285 237.726 513.714 238.005 512.175 237.78L462.017 230.419C460.792 231.89 459.147 232.954 457.302 233.469C455.457 233.983 453.5 233.924 451.689 233.299C449.879 232.675 448.301 231.514 447.167 229.971C446.033 228.428 445.395 226.577 445.339 224.663C445.284 222.75 445.812 220.864 446.854 219.258C447.896 217.652 449.403 216.401 451.174 215.671C452.944 214.942 454.896 214.769 456.767 215.175C458.639 215.581 460.343 216.547 461.652 217.944Z" fill="#FFB6B6"/>
<path d="M503.03 220.137L509.522 186.827C510.199 183.351 512.142 180.251 514.974 178.124C517.806 175.998 521.327 174.997 524.854 175.315C527.015 175.51 529.104 176.193 530.962 177.314C532.82 178.434 534.398 179.962 535.578 181.782C536.758 183.602 537.509 185.667 537.773 187.82C538.037 189.972 537.808 192.157 537.104 194.208L526.959 223.736L503.03 220.137Z" fill="#3BD55A"/>
<path d="M525.655 165.882C536.507 165.882 545.304 157.089 545.304 146.241C545.304 135.394 536.507 126.6 525.655 126.6C514.802 126.6 506.005 135.394 506.005 146.241C506.005 157.089 514.802 165.882 525.655 165.882Z" fill="#FFB6B6"/>
<path d="M501.83 135.147H533.031V121.552C526.183 118.832 519.482 116.52 515.431 121.552C511.824 121.552 508.364 122.984 505.814 125.534C503.263 128.083 501.83 131.541 501.83 135.147Z" fill="#2F2E41"/>
<path d="M534.759 119.153C553.412 119.153 558.633 142.523 558.633 155.708C558.633 163.06 555.306 165.69 550.078 166.58L548.232 156.738L543.908 167.004C542.44 167.011 540.897 166.983 539.298 166.953L537.832 163.935L534.562 166.899C521.468 166.918 510.885 168.826 510.885 155.708C510.885 142.523 515.464 119.153 534.759 119.153Z" fill="#2F2E41"/>
<path d="M678.2 507H373.387C373.175 507 372.971 506.916 372.821 506.766C372.671 506.616 372.587 506.412 372.587 506.2C372.587 505.988 372.671 505.785 372.821 505.635C372.971 505.485 373.175 505.401 373.387 505.401H678.2C678.412 505.401 678.616 505.485 678.766 505.635C678.916 505.785 679 505.988 679 506.2C679 506.412 678.916 506.616 678.766 506.766C678.616 506.916 678.412 507 678.2 507Z" fill="#CACACA"/>
</g>
<defs>
<clipPath id="clip0_630_792">
<rect width="679" height="507" fill="white"/>
</clipPath>
</defs>
</svg>
