<svg width="20" height="20" viewBox="0 0 20 20" fill="none" xmlns="http://www.w3.org/2000/svg">
<path d="M2.59268 5.18515C4.02457 5.18515 5.18535 4.02442 5.18535 2.59258C5.18535 1.16074 4.02457 0 2.59268 0C1.16078 0 0 1.16074 0 2.59258C0 4.02442 1.16078 5.18515 2.59268 5.18515Z" fill="black"/>
<path d="M10.0009 5.18515C11.4328 5.18515 12.5936 4.02442 12.5936 2.59258C12.5936 1.16074 11.4328 0 10.0009 0C8.56898 0 7.4082 1.16074 7.4082 2.59258C7.4082 4.02442 8.56898 5.18515 10.0009 5.18515Z" fill="black"/>
<path d="M17.4071 5.18515C18.839 5.18515 19.9998 4.02442 19.9998 2.59258C19.9998 1.16074 18.839 0 17.4071 0C15.9752 0 14.8145 1.16074 14.8145 2.59258C14.8145 4.02442 15.9752 5.18515 17.4071 5.18515Z" fill="black"/>
<path d="M2.59268 20.0001C4.02457 20.0001 5.18535 18.8394 5.18535 17.4075C5.18535 15.9757 4.02457 14.8149 2.59268 14.8149C1.16078 14.8149 0 15.9757 0 17.4075C0 18.8394 1.16078 20.0001 2.59268 20.0001Z" fill="black"/>
<path d="M10.0009 20.0001C11.4328 20.0001 12.5936 18.8394 12.5936 17.4075C12.5936 15.9757 11.4328 14.8149 10.0009 14.8149C8.56898 14.8149 7.4082 15.9757 7.4082 17.4075C7.4082 18.8394 8.56898 20.0001 10.0009 20.0001Z" fill="black"/>
<path d="M17.4071 20.0001C18.839 20.0001 19.9998 18.8394 19.9998 17.4075C19.9998 15.9757 18.839 14.8149 17.4071 14.8149C15.9752 14.8149 14.8145 15.9757 14.8145 17.4075C14.8145 18.8394 15.9752 20.0001 17.4071 20.0001Z" fill="black"/>
<path d="M2.59268 12.5924C4.02457 12.5924 5.18535 11.4316 5.18535 9.9998C5.18535 8.56796 4.02457 7.40723 2.59268 7.40723C1.16078 7.40723 0 8.56796 0 9.9998C0 11.4316 1.16078 12.5924 2.59268 12.5924Z" fill="black"/>
<path d="M10.0009 12.5924C11.4328 12.5924 12.5936 11.4316 12.5936 9.9998C12.5936 8.56796 11.4328 7.40723 10.0009 7.40723C8.56898 7.40723 7.4082 8.56796 7.4082 9.9998C7.4082 11.4316 8.56898 12.5924 10.0009 12.5924Z" fill="black"/>
<path d="M17.4071 12.5924C18.839 12.5924 19.9998 11.4316 19.9998 9.9998C19.9998 8.56796 18.839 7.40723 17.4071 7.40723C15.9752 7.40723 14.8145 8.56796 14.8145 9.9998C14.8145 11.4316 15.9752 12.5924 17.4071 12.5924Z" fill="black"/>
</svg>
