<svg width="30" height="30" viewBox="0 0 30 30" fill="none" xmlns="http://www.w3.org/2000/svg">
<mask id="mask0_6685_8143" style="mask-type:alpha" maskUnits="userSpaceOnUse" x="0" y="0" width="30" height="30">
<rect width="30" height="30" fill="#D9D9D9"/>
</mask>
<g mask="url(#mask0_6685_8143)">
<path d="M20.8125 16.249L13.75 9.18652L20.8125 2.12402L27.875 9.18652L20.8125 16.249ZM3.75 13.749V3.74902H13.75V13.749H3.75ZM16.25 26.249V16.249H26.25V26.249H16.25ZM3.75 26.249V16.249H13.75V26.249H3.75ZM6.25 11.249H11.25V6.24902H6.25V11.249ZM20.8438 12.749L24.375 9.21777L20.8438 5.68652L17.3125 9.21777L20.8438 12.749ZM18.75 23.749H23.75V18.749H18.75V23.749ZM6.25 23.749H11.25V18.749H6.25V23.749Z" fill="#5E5E5E"/>
</g>
</svg>
