<svg width="32" height="32" viewBox="0 0 32 32" fill="none" xmlns="http://www.w3.org/2000/svg">
<path d="M19 31H6C5.20435 31 4.44129 30.6839 3.87868 30.1213C3.31607 29.5587 3 28.7956 3 28V4C3 3.20435 3.31607 2.44129 3.87868 1.87868C4.44129 1.31607 5.20435 1 6 1H20C20.7956 1 21.5587 1.31607 22.1213 1.87868C22.6839 2.44129 23 3.20435 23 4V15" stroke="black" stroke-width="2" stroke-miterlimit="10" stroke-linecap="square"/>
<path d="M30.0412 19.992C29.7032 19.6384 29.2888 19.3668 28.8297 19.1979C28.3706 19.0291 27.879 18.9676 27.3925 19.0181C26.9059 19.0686 26.4374 19.2297 26.0228 19.4892C25.6081 19.7486 25.2583 20.0995 25.0002 20.515C24.742 20.0995 24.3922 19.7486 23.9776 19.4892C23.5629 19.2297 23.0944 19.0686 22.6078 19.0181C22.1213 18.9676 21.6297 19.0291 21.1706 19.1979C20.7115 19.3668 20.2971 19.6384 19.9592 19.992C19.3438 20.6375 19.0005 21.4952 19.0005 22.387C19.0005 23.2789 19.3438 24.1365 19.9592 24.782L25.0002 30L30.0422 24.782C30.6579 24.1366 31.0013 23.2788 31.0011 22.3868C31.0009 21.4948 30.6571 20.6372 30.0412 19.992Z" stroke="black" stroke-width="2" stroke-miterlimit="10" stroke-linecap="square"/>
</svg>
