<svg xmlns="http://www.w3.org/2000/svg" width="44" height="45.706" viewBox="0 0 44 45.706">
  <g id="parent" transform="translate(-2 -1.294)">
    <g id="Group_11152" data-name="Group 11152">
      <rect id="Rectangle_4384" data-name="Rectangle 4384" width="10" height="12" transform="translate(25 18)" fill="#eac3a2"/>
      <path id="Path_11756" data-name="Path 11756" d="M14.993,47A.994.994,0,0,1,14,45.993V33.507a5.314,5.314,0,0,1,2.691-4.353L25,25a7.651,7.651,0,0,0,5,2,7.651,7.651,0,0,0,5-2l8.309,4.155A5.33,5.33,0,0,1,46,33.507V45.993A1,1,0,0,1,45.007,47Z" fill="#42a6dd" fill-rule="evenodd"/>
      <path id="Path_11757" data-name="Path 11757" d="M38,15a8,8,0,0,1-16,0V12a8,8,0,0,1,16,0Z" fill="#ead8c5" fill-rule="evenodd"/>
      <path id="Path_11758" data-name="Path 11758" d="M38,13V8a4.006,4.006,0,0,0-4-4h-.5L32.45,1.9a1.1,1.1,0,0,0-1.373-.531L24.786,3.886A4.778,4.778,0,0,0,22,8v5a4,4,0,0,1,4-4h8A4,4,0,0,1,38,13Z" fill="#444" fill-rule="evenodd"/>
      <path id="Path_11759" data-name="Path 11759" d="M8,22a10,10,0,0,1,20,0v7.993A4,4,0,0,1,24,34H12a4,4,0,0,1-4-4.007Z" fill="#87613e" fill-rule="evenodd"/>
      <rect id="Rectangle_4385" data-name="Rectangle 4385" width="10" height="11.413" transform="translate(13 28)" fill="#eac3a2"/>
      <path id="Path_11760" data-name="Path 11760" d="M2.993,47A1,1,0,0,1,2,46V43.5a5.31,5.31,0,0,1,2.691-4.348L13,35a7.651,7.651,0,0,0,5,2,7.651,7.651,0,0,0,5-2l8.309,4.155A5.324,5.324,0,0,1,34,43.5V46a1,1,0,0,1-.993,1Z" fill="#ed69ab" fill-rule="evenodd"/>
      <path id="Path_11761" data-name="Path 11761" d="M10,23.636V25.09a8,8,0,0,0,16,0V23.636a2.182,2.182,0,0,0-2.182-2.182A6.545,6.545,0,0,1,18,17.91a6.545,6.545,0,0,1-5.818,3.544A2.182,2.182,0,0,0,10,23.636Z" fill="#ead8c5" fill-rule="evenodd"/>
    </g>
  </g>
</svg>
