<svg width="143" height="120" viewBox="0 0 143 120" fill="none" xmlns="http://www.w3.org/2000/svg">
<rect x="16" width="120" height="117.367" rx="58.6834" fill="url(#paint0_linear_782_83181)"/>
<rect x="32" y="34.2324" width="87.6" height="85.768" rx="2" fill="white"/>
<path d="M72.4264 62.6316C71.8465 63.1855 70.9335 63.1853 70.3539 62.6311L66.4873 58.9346C65.7286 58.2094 64.5342 58.2073 63.773 58.9298C62.9578 59.7038 62.9555 61.0022 63.768 61.779L69.6622 67.4139C70.6286 68.3378 72.1509 68.3378 73.1173 67.4139L88.6396 52.5746C89.4481 51.8016 89.4481 50.5102 88.6396 49.7372C87.8811 49.0121 86.6865 49.0119 85.9277 49.7366L72.4264 62.6316Z" fill="#3BD55A" stroke="#3BD55A"/>
<rect x="61" y="79.3711" width="28.8" height="4.51411" rx="2" fill="#F0F0F0"/>
<rect x="61" y="95.1719" width="28.8" height="4.51411" rx="2" fill="#F0F0F0"/>
<rect x="52" y="87.2734" width="48" height="4.51411" rx="2" fill="#F0F0F0"/>
<rect x="132" y="15" width="8" height="8" rx="4" fill="#3BD55A"/>
<rect y="73" width="11" height="11" rx="5.5" fill="#3BD55A"/>
<rect x="14" y="18" width="5" height="5" rx="2.5" fill="#3BD55A"/>
<rect x="138" y="3" width="5" height="5" rx="2.5" fill="#3BD55A"/>
<defs>
<linearGradient id="paint0_linear_782_83181" x1="76" y1="0" x2="76" y2="117.367" gradientUnits="userSpaceOnUse">
<stop stop-color="#7BF393"/>
<stop offset="0.25" stop-color="#63ED7F"/>
<stop offset="0.505208" stop-color="#56E873"/>
<stop offset="0.755208" stop-color="#43D861"/>
<stop offset="1" stop-color="#3BD55A"/>
</linearGradient>
</defs>
</svg>
