<?xml version="1.0" encoding="UTF-8"?>
<svg width="19px" height="21px" viewBox="0 0 19 21" version="1.1" xmlns="http://www.w3.org/2000/svg" xmlns:xlink="http://www.w3.org/1999/xlink">
    <title>pdf-icn</title>
    <defs>
        <polygon id="path-1" points="0 19 19 19 19 0 0 0"></polygon>
    </defs>
    <g id="Staffing---Web" stroke="none" stroke-width="1" fill="none" fill-rule="evenodd">
        <g id="Staffing-Applicants-details-novid" transform="translate(-923.000000, -546.000000)">
            <g id="Group-8" transform="translate(923.000000, 546.000000)">
                <g id="Group-15" transform="translate(0.000000, 1.000000)">
                    <polyline id="Stroke-1" stroke="#000000" stroke-width="1.5" points="11.9136615 0.448769427 11.9136615 5.27573338 16.7406254 5.27573338"></polyline>
                    <polyline id="Stroke-3" stroke="#000000" stroke-width="1.5" stroke-linecap="square" points="16.7409845 7.68975389 16.7409845 5.27627191 11.9140205 0.448410411 2.25919505 0.448410411 2.25919505 7.68975389"></polyline>
                    <polyline id="Stroke-5" stroke="#000000" stroke-width="1.5" stroke-linecap="square" points="2.25901554 16.1375691 2.25901554 18.5510511 16.740805 18.5510511 16.740805 16.1375691"></polyline>
                    <path d="M6.20594265,11.821933 L6.3755775,11.821933 C6.51559356,11.821933 6.62688837,11.7824413 6.70946195,11.7043554 C6.79203552,11.6262695 6.83332231,11.5167698 6.83332231,11.3794464 C6.83332231,11.1460863 6.70407672,11.0303037 6.44648306,11.0303037 L6.20594265,11.0303037 L6.20594265,11.821933 Z M7.77573811,11.3731636 C7.77573811,11.7582078 7.66264821,12.0561907 7.43557088,12.2662147 C7.20849355,12.4762388 6.8862771,12.5803533 6.468024,12.5803533 L6.20594265,12.5803533 L6.20594265,13.7238178 L5.27519486,13.7238178 L5.27519486,10.2781662 L6.468024,10.2781662 C6.90333034,10.2781662 7.23003448,10.3724078 7.44813643,10.5635835 C7.66713591,10.7538618 7.77573811,11.0231234 7.77573811,11.3731636 L7.77573811,11.3731636 Z" id="Fill-7" fill="#000000"></path>
                    <path d="M10.2838207,11.9607823 C10.2838207,11.6448486 10.220993,11.4114885 10.0962351,11.2580094 C9.97147716,11.1054277 9.78209646,11.0300345 9.52719543,11.0300345 L9.25613869,11.0300345 L9.25613869,12.959743 L9.46347017,12.959743 C9.74709245,12.959743 9.95352638,12.878067 10.0854646,12.7138174 C10.2183003,12.5495678 10.2838207,12.2982569 10.2838207,11.9607823 M11.2495725,11.9275733 C11.2495725,12.5028957 11.0916056,12.9462799 10.7747744,13.2568284 C10.4579432,13.5673768 10.0136615,13.7235486 9.43923662,13.7235486 L8.32449336,13.7235486 L8.32449336,10.2778969 L9.5173225,10.2778969 C10.071104,10.2778969 10.4983325,10.4188105 10.7981104,10.7024328 C11.098786,10.9851575 11.2495725,11.3935377 11.2495725,11.9275733" id="Fill-9" fill="#000000"></path>
                    <polygon id="Fill-11" fill="#000000" points="12.7843639 13.7239076 11.8670792 13.7239076 11.8670792 10.2773584 13.9035949 10.2773584 13.9035949 11.0250083 12.7843639 11.0250083 12.7843639 11.6829042 13.8165336 11.6829042 13.8165336 12.4296566 12.7843639 12.4296566"></polygon>
                    <mask id="mask-2" fill="white">
                        <use xlink:href="#path-1"></use>
                    </mask>
                    <g id="Clip-14"></g>
                    <polygon id="Stroke-13" stroke="#000000" stroke-width="1.5" stroke-linecap="square" mask="url(#mask-2)" points="0.448769427 16.1377486 18.5512306 16.1377486 18.5512306 7.6901129 0.448769427 7.6901129"></polygon>
                </g>
            </g>
        </g>
    </g>
</svg>