<?xml version="1.0" encoding="UTF-8"?>
<svg width="45px" height="44px" viewBox="0 0 45 44" version="1.1" xmlns="http://www.w3.org/2000/svg" xmlns:xlink="http://www.w3.org/1999/xlink">
    <title>PDF</title>
    <g id="Chat" stroke="none" stroke-width="1" fill="none" fill-rule="evenodd">
        <g id="Chat-SendingFileToaster" transform="translate(-1022.000000, -423.000000)" fill-rule="nonzero">
            <g id="PDF" transform="translate(1022.000000, 423.000000)">
                <path d="M24,0.0005 C23.446,0.0005 23,0.4465 23,1.0005 L23,2.0005 C23,2.5545 23.446,3.0005 24,3.0005 L34.0039,3.0005 L34.0199,9.4849 C34.0199,10.3102 34.6907,10.9787 35.516,10.981 L42.0004,10.998 L42.0004,39.5 C42.0004,40.3569 41.3573,41 40.5004,41 L17.5004,41 C16.6434,41 16.0004,40.3569 16.0004,39.5 L16.0004,38 C16.0004,37.446 15.5544,37 15.0004,37 L14.0004,37 C13.4464,37 13.0004,37.446 13.0004,38 L13.0004,39.5 C13.0004,41.9671 15.0333,44 17.5004,44 L40.5004,44 C42.9674,44 45.0004,41.9671 45.0004,39.5 L45.0004,9.0137 C45.0004,8.6159 44.8422,8.2344 44.5609,7.9531 L37.0472,0.4395 C36.766,0.1581 36.3845,0 35.9867,0 L24,0.0005 Z M13,21.0005 C13,21.5545 13.446,22.0005 14,22.0005 L15,22.0005 C15.554,22.0005 16,21.5545 16,21.0005 L16,11.0005 C16,10.4465 15.554,10.0005 15,10.0005 L14,10.0005 C13.446,10.0005 13,10.4465 13,11.0005 L13,21.0005 Z" id="Shape" fill="#242429"></path>
                <path d="M17.5,0.0003 C15.033,0.0003 13,2.0332 13,4.5003 L13,7.0003 C13,7.5543 13.446,8.0003 14,8.0003 L15,8.0003 C15.554,8.0003 16,7.5543 16,7.0003 L16,4.5003 C16,3.6434 16.6431,3.0003 17.5,3.0003 L20,3.0003 C20.554,3.0003 21,2.5543 21,2.0003 L21,1.0003 C21,0.4463 20.554,0.0003 20,0.0003 L17.5,0.0003 Z M2,24.0003 C0.89199,24.0003 0,24.8923 0,26.0003 L0,33.0003 C0,34.1083 0.89199,35.0003 2,35.0003 L27,35.0003 C28.10801,35.0003 29,34.1083 29,33.0003 L29,26.0003 C29,24.8923 28.10801,24.0003 27,24.0003 L2,24.0003 Z M6.96484,26.74053 L8.89453,26.74053 C10.43187,26.74053 11.20508,27.34235 11.20508,28.46905 C11.20508,29.66265 10.43187,30.29327 8.89453,30.29327 L8.10156,30.29327 L8.10156,31.24639 L8.57031,31.24639 C8.95226,31.24639 9.14258,31.37035 9.14258,31.75225 C9.14258,32.13425 8.95226,32.26788 8.57031,32.26788 L6.96484,32.26788 C6.58289,32.26788 6.39258,32.13425 6.39258,31.75225 C6.39258,31.42765 6.57356,31.24639 6.88867,31.24639 L6.96487,31.24639 L6.96487,27.77178 L6.89847,27.77178 C6.57381,27.77178 6.39258,27.59036 6.39258,27.25616 C6.39258,26.88376 6.58292,26.74053 6.96487,26.74053 L6.96484,26.74053 Z M12.50977,26.74053 L13.38672,26.74053 L13.66406,26.74053 C14.55209,26.74053 15.28841,26.76053 15.86133,27.10382 C16.59658,27.55262 17.02539,28.3927 17.02539,29.5003 C17.02539,30.6557 16.53777,31.54342 15.70703,31.98272 C15.22004,32.25012 14.61871,32.26788 13.91211,32.26788 L13.38672,32.26788 L12.50977,32.26788 C12.11827,32.26788 11.91797,32.14375 11.91797,31.75225 C11.91797,31.41805 12.09938,31.24639 12.43359,31.24639 L12.50979,31.24639 L12.50979,27.77178 L12.43359,27.77178 C12.09938,27.77178 11.91797,27.59036 11.91797,27.25616 C11.91797,26.87416 12.10872,26.74053 12.50977,26.74053 L12.50977,26.74053 Z M18.30078,26.74053 L22.12109,26.74053 C22.51257,26.74053 22.60742,26.83553 22.60742,27.17022 L22.60742,28.21124 C22.60742,28.61234 22.47396,28.80303 22.10156,28.80303 C21.71961,28.80303 21.60547,28.60274 21.60547,28.21124 L21.60547,27.72296 L19.4375,27.72296 L19.4375,28.91632 L20.24805,28.91632 L20.24805,28.85972 C20.24805,28.50642 20.41145,28.33432 20.72656,28.33432 C21.07986,28.33432 21.20312,28.52681 21.20312,28.91831 L21.20312,29.8812 C21.20312,30.2727 21.07986,30.46518 20.72656,30.46518 C20.41145,30.46518 20.24805,30.30134 20.24805,29.96714 L20.24805,29.88124 L19.4375,29.88124 L19.4375,31.24647 L19.69531,31.24647 C20.07725,31.24647 20.26758,31.37043 20.26758,31.75233 C20.26758,32.13433 20.07725,32.26796 19.69531,32.26796 L18.30078,32.26796 C17.91883,32.26796 17.72852,32.13433 17.72852,31.75233 C17.72852,31.42773 17.90951,31.24647 18.22461,31.24647 L18.30081,31.24647 L18.30081,27.77186 L18.23441,27.77186 C17.90975,27.77186 17.72852,27.59044 17.72852,27.25624 C17.72852,26.88384 17.91886,26.74061 18.30081,26.74061 L18.30078,26.74053 Z M13.98828,27.7424873 C13.90238,27.7424873 13.80839,27.74205 13.71289,27.75249 L13.71289,31.23687 C13.80839,31.24687 13.89457,31.24687 13.98047,31.24687 C15.14541,31.24687 15.68945,30.69411 15.68945,29.49101 C15.68945,28.31651 15.13413,27.74297 13.98828,27.74297 L13.98828,27.7424873 Z M8.10156,27.80889 L8.10156,29.24249 L8.75977,29.24249 C9.49502,29.24249 9.86914,28.98382 9.86914,28.51592 C9.86914,28.04802 9.49502,27.80889 8.75977,27.80889 L8.10156,27.80889 L8.10156,27.80889 Z" id="Shape" fill="#11C111"></path>
            </g>
        </g>
    </g>
</svg>