<svg xmlns="http://www.w3.org/2000/svg" xmlns:xlink="http://www.w3.org/1999/xlink" width="30" height="30" viewBox="0 0 30 30">
  <defs>
    <filter id="Ellipse_93" x="0" y="0" width="30" height="30" filterUnits="userSpaceOnUse">
      <feOffset dy="1" input="SourceAlpha"/>
      <feGaussianBlur stdDeviation="1" result="blur"/>
      <feFlood flood-opacity="0.431"/>
      <feComposite operator="in" in2="blur"/>
      <feComposite in="SourceGraphic"/>
    </filter>
  </defs>
  <g id="Group_10665" data-name="Group 10665" transform="translate(3 2)">
    <g transform="matrix(1, 0, 0, 1, -3, -2)" filter="url(#Ellipse_93)">
      <circle id="Ellipse_93-2" data-name="Ellipse 93" cx="12" cy="12" r="12" transform="translate(3 2)" fill="#fff"/>
    </g>
    <path id="Path_475" data-name="Path 475" d="M8,0A6.957,6.957,0,0,0,1,7a6.722,6.722,0,0,0,2.1,5c.1.1,4.1,3.7,4.2,3.8a1.049,1.049,0,0,0,1.3,0c.1-.1,4.2-3.7,4.2-3.8a6.722,6.722,0,0,0,2.1-5A6.812,6.812,0,0,0,8,0ZM8,9a2,2,0,1,1,2-2A2.006,2.006,0,0,1,8,9Z" transform="translate(4 4)" fill="#fcdf00"/>
  </g>
</svg>
