<svg width="15" height="17" viewBox="0 0 15 17" fill="none" xmlns="http://www.w3.org/2000/svg">
<path d="M14.1125 8.19188L1.00837 0.754377C0.954486 0.72376 0.893507 0.70782 0.83153 0.70815C0.769553 0.70848 0.708748 0.725068 0.65519 0.756257C0.601631 0.787445 0.557195 0.832143 0.52632 0.885883C0.495446 0.939623 0.479215 1.00052 0.479248 1.0625V15.9375C0.479215 15.9995 0.495446 16.0604 0.52632 16.1141C0.557195 16.1679 0.601631 16.2126 0.65519 16.2437C0.708748 16.2749 0.769553 16.2915 0.83153 16.2919C0.893507 16.2922 0.954486 16.2762 1.00837 16.2456L14.1125 8.80813C14.167 8.77724 14.2124 8.73244 14.2439 8.67831C14.2755 8.62418 14.2921 8.56265 14.2921 8.5C14.2921 8.43735 14.2755 8.37582 14.2439 8.32169C14.2124 8.26756 14.167 8.22277 14.1125 8.19188Z" fill="white"/>
</svg>
