<svg width="32" height="32" viewBox="0 0 32 32" fill="none" xmlns="http://www.w3.org/2000/svg">
<rect x="1" width="30.48" height="30.48" rx="15.24" fill="#F3282B"/>
<circle cx="15.9991" cy="16" r="12.1905" fill="#F3282B"/>
<path d="M14.9 19.667C14.4556 19.9559 14 19.9781 13.5333 19.7337C13.0667 19.4892 12.8333 19.1003 12.8333 18.567V11.4336C12.8333 10.9003 13.0667 10.5114 13.5333 10.267C14 10.0225 14.4556 10.0448 14.9 10.3336L20.4333 13.867C20.6333 14.0003 20.7836 14.167 20.884 14.367C20.9844 14.567 21.0342 14.7781 21.0333 15.0003C21.0333 15.2225 20.9836 15.4337 20.884 15.6336C20.7844 15.8336 20.6342 16.0003 20.4333 16.1336L14.9 19.667ZM13.3 28.0336C12.5222 27.8559 11.772 27.6225 11.0493 27.3336C10.3267 27.0448 9.62133 26.6781 8.93333 26.2336C8.57778 26.0114 8.38356 25.7003 8.35067 25.3003C8.31778 24.9003 8.45644 24.5448 8.76667 24.2336C8.98889 24.0114 9.27244 23.8834 9.61733 23.8496C9.96222 23.8159 10.2787 23.8883 10.5667 24.067C11.0556 24.3781 11.5609 24.6394 12.0827 24.851C12.6044 25.0625 13.1436 25.2345 13.7 25.367C14.0111 25.4559 14.2724 25.6283 14.484 25.8843C14.6956 26.1403 14.8009 26.4234 14.8 26.7336C14.8 27.1781 14.6502 27.5283 14.3507 27.7843C14.0511 28.0403 13.7009 28.1234 13.3 28.0336ZM6.86667 22.3336C6.55556 22.6448 6.20533 22.7839 5.816 22.751C5.42667 22.7181 5.12133 22.5345 4.9 22.2003C4.45556 21.5559 4.08356 20.8728 3.784 20.151C3.48444 19.4292 3.24533 18.6679 3.06667 17.867C2.95556 17.467 3.028 17.1114 3.284 16.8003C3.54 16.4892 3.88978 16.3336 4.33333 16.3336C4.64444 16.3336 4.93333 16.4448 5.2 16.667C5.46667 16.8892 5.64444 17.1559 5.73333 17.467C5.86667 18.0448 6.04444 18.5892 6.26667 19.1003C6.48889 19.6114 6.74444 20.1114 7.03333 20.6003C7.21111 20.867 7.28356 21.167 7.25067 21.5003C7.21778 21.8336 7.08978 22.1114 6.86667 22.3336ZM4.36667 13.667C3.92222 13.667 3.56667 13.5114 3.3 13.2003C3.03333 12.8892 2.94444 12.5336 3.03333 12.1336C3.21111 11.3559 3.45556 10.5945 3.76667 9.84965C4.07778 9.10476 4.45556 8.41054 4.9 7.76698C5.12222 7.43365 5.428 7.25587 5.81733 7.23365C6.20667 7.21143 6.55644 7.35587 6.86667 7.66698C7.08889 7.8892 7.21689 8.16698 7.25067 8.50031C7.28444 8.83365 7.212 9.13365 7.03333 9.40032C6.74444 9.86698 6.48889 10.3612 6.26667 10.883C6.04444 11.4048 5.86667 11.955 5.73333 12.5336C5.64444 12.8448 5.472 13.1114 5.216 13.3336C4.96 13.5559 4.67689 13.667 4.36667 13.667ZM18.9333 28.0003C18.5333 28.0892 18.1889 28.0114 17.9 27.767C17.6111 27.5225 17.4667 27.1892 17.4667 26.767C17.4667 26.4559 17.5724 26.167 17.784 25.9003C17.9956 25.6336 18.2564 25.4559 18.5667 25.367C20.9444 24.7448 22.9 23.4839 24.4333 21.5843C25.9667 19.6848 26.7333 17.4901 26.7333 15.0003C26.7333 12.5114 25.9667 10.3003 24.4333 8.36698C22.9 6.43365 20.9444 5.17809 18.5667 4.60031C18.2556 4.51143 17.9942 4.33898 17.7827 4.08298C17.5711 3.82698 17.4658 3.54387 17.4667 3.23365C17.4667 2.81143 17.6169 2.47276 17.9173 2.21765C18.2178 1.96254 18.5676 1.87898 18.9667 1.96698C22.0111 2.63365 24.5111 4.17809 26.4667 6.60031C28.4222 9.02254 29.4 11.8225 29.4 15.0003C29.4 18.1559 28.4169 20.9336 26.4507 23.3336C24.4844 25.7337 21.9787 27.2892 18.9333 28.0003ZM10.4667 5.96698C10.1778 6.14476 9.872 6.21143 9.54933 6.16698C9.22667 6.12254 8.95467 5.9892 8.73333 5.76698C8.42222 5.45587 8.28311 5.10031 8.316 4.70031C8.34889 4.30031 8.54356 3.9892 8.9 3.76698C9.58889 3.32254 10.3 2.95587 11.0333 2.66698C11.7667 2.37809 12.5222 2.14476 13.3 1.96698C13.7 1.87809 14.0502 1.96165 14.3507 2.21765C14.6511 2.47365 14.8009 2.81231 14.8 3.23365C14.8 3.54476 14.6889 3.82831 14.4667 4.08431C14.2444 4.34031 13.9778 4.51231 13.6667 4.60031C13.1111 4.73365 12.5667 4.9172 12.0333 5.15098C11.5 5.38476 10.9778 5.65765 10.4667 5.96698Z" fill="white"/>
</svg>
