<?xml version="1.0" encoding="UTF-8"?>
<svg width="17px" height="20px" viewBox="0 0 17 20" version="1.1" xmlns="http://www.w3.org/2000/svg" xmlns:xlink="http://www.w3.org/1999/xlink">
    <title>Path</title>
    <g id="Staffing---Web" stroke="none" stroke-width="1" fill="none" fill-rule="evenodd">
        <g id="Staffing-Applicants-details-Copy-4" transform="translate(-1111.000000, -312.000000)" fill="#FFFFFF" fill-rule="nonzero" stroke="#3BD55A" stroke-width="3">
            <g id="triangle-right" transform="translate(1114.000000, 315.000000)">
                <path d="M-1.13329797,-0.383839614 C0.229432769,-1.54287345 0.662311361,-1.52804127 0.988857144,-1.50156703 L1.07217239,-1.49516079 C1.49921459,-1.46837777 1.91702548,-1.3303815 2.27530605,-1.08961577 L2.27530605,-1.08961577 L11.4401273,5.03448573 C12.1137399,5.48316626 12.5,6.22176521 12.5,6.99956248 C12.5,7.78325947 12.1108325,8.5211648 11.4419727,8.96428312 L11.4419727,8.96428312 L2.27665385,15.0887141 C1.55750955,15.5703847 0.615786704,15.6326343 -0.17339818,15.2456975 C-0.578362095,15.0448173 -0.905424208,14.7428054 -1.1331264,14.3844378 C-1.36988384,14.0118187 -1.5,13.5779185 -1.5,13.1257702 L-1.5,13.1257702 L-1.5,0.874229831 C-1.5,0.422004755 -1.36995541,-0.0113778372 -1.13329797,-0.383839614 Z" id="Path"></path>
            </g>
        </g>
    </g>
</svg>