<svg width="34" height="34" viewBox="0 0 34 34" fill="none" xmlns="http://www.w3.org/2000/svg">
<path d="M30.9286 14.2143H19.7858V3.07143C19.7858 2.33262 19.4923 1.62406 18.9698 1.10164C18.4474 0.579215 17.7389 0.285721 17.0001 0.285721C16.2612 0.285721 15.5527 0.579215 15.0303 1.10164C14.5078 1.62406 14.2143 2.33262 14.2143 3.07143V14.2143H3.07148C2.33266 14.2143 1.62411 14.5078 1.10168 15.0302C0.579261 15.5526 0.285767 16.2612 0.285767 17C0.285767 17.7388 0.579261 18.4474 1.10168 18.9698C1.62411 19.4922 2.33266 19.7857 3.07148 19.7857H14.2143V30.9286C14.2143 31.6674 14.5078 32.3759 15.0303 32.8984C15.5527 33.4208 16.2612 33.7143 17.0001 33.7143C17.7389 33.7143 18.4474 33.4208 18.9698 32.8984C19.4923 32.3759 19.7858 31.6674 19.7858 30.9286V19.7857H30.9286C31.6674 19.7857 32.376 19.4922 32.8984 18.9698C33.4208 18.4474 33.7143 17.7388 33.7143 17C33.7143 16.2612 33.4208 15.5526 32.8984 15.0302C32.376 14.5078 31.6674 14.2143 30.9286 14.2143Z" fill="#D8D8D8"/>
</svg>
