<svg width="14" height="14" viewBox="0 0 14 14" fill="none" xmlns="http://www.w3.org/2000/svg">
<path d="M7.00156 0.599609C7.21374 0.599609 7.41722 0.683895 7.56725 0.833924C7.71728 0.983953 7.80156 1.18744 7.80156 1.39961V6.19961H12.6016C12.8137 6.19961 13.0172 6.2839 13.1672 6.43392C13.3173 6.58395 13.4016 6.78744 13.4016 6.99961C13.4016 7.21178 13.3173 7.41527 13.1672 7.5653C13.0172 7.71532 12.8137 7.79961 12.6016 7.79961H7.80156V12.5996C7.80156 12.8118 7.71728 13.0153 7.56725 13.1653C7.41722 13.3153 7.21374 13.3996 7.00156 13.3996C6.78939 13.3996 6.58591 13.3153 6.43588 13.1653C6.28585 13.0153 6.20156 12.8118 6.20156 12.5996V7.79961H1.40156C1.18939 7.79961 0.985906 7.71532 0.835877 7.5653C0.685848 7.41527 0.601562 7.21178 0.601562 6.99961C0.601562 6.78744 0.685848 6.58395 0.835877 6.43392C0.985906 6.2839 1.18939 6.19961 1.40156 6.19961H6.20156V1.39961C6.20156 1.18744 6.28585 0.983953 6.43588 0.833924C6.58591 0.683895 6.78939 0.599609 7.00156 0.599609Z" fill="white"/>
</svg>
