<?xml version="1.0" encoding="UTF-8"?>
<svg width="132px" height="130px" viewBox="0 0 132 130" version="1.1" xmlns="http://www.w3.org/2000/svg" xmlns:xlink="http://www.w3.org/1999/xlink">
    <title>pointer-doodle</title>
    <defs>
        <polygon id="path-1" points="0 0 132 0 132 130 0 130"></polygon>
    </defs>
    <g id="Staffing---Web" stroke="none" stroke-width="1" fill="none" fill-rule="evenodd" opacity="0.114350818">
        <g id="Staffing-PremiumPlan" transform="translate(-600.000000, -499.000000)">
            <g id="Group-3" transform="translate(600.000000, 499.000000)">
                <mask id="mask-2" fill="white">
                    <use xlink:href="#path-1"></use>
                </mask>
                <g id="Clip-2"></g>
                <path d="M40.3969925,48.0867487 C51.7506517,48.0980688 61.7784157,44.5759953 70.0534551,36.7127735 C74.8746801,32.1315248 78.0282869,26.6234011 78.6629522,19.8895019 C78.9270934,17.0856663 78.6946077,14.3261887 77.8157804,11.6345374 C75.8264186,5.54202341 70.4592673,2.29177137 64.1058678,3.40794139 C58.2900917,4.42972181 53.7047255,7.62891062 49.6800756,11.7214481 C43.2763388,18.2327838 39.3713049,26.1527425 36.8783104,34.7924865 C35.8344598,38.4099812 35.1743664,42.1370813 34.3565147,45.8180181 C34.2384556,46.3500557 34.2140653,46.9024671 34.1133907,47.7089051 C36.3007287,47.8466211 38.3487309,48.0846582 40.3969925,48.0867487 M31.6281804,43.2857461 C33.2714083,34.3767596 35.8012476,25.7594525 40.3905058,17.8632201 C44.7151038,10.4229462 50.4626392,4.51921141 58.7623283,1.42111749 C62.5908184,-0.00787930555 66.4875493,-0.514385297 70.4325418,0.627574239 C76.1922723,2.29486611 79.7472803,6.24814021 81.2202954,11.9264747 C83.1460869,19.3515327 81.5314008,26.3018059 77.3508089,32.5487991 C69.2714104,44.6213848 57.5329562,50.2107455 43.1818915,50.7123515 C40.0967849,50.8201516 36.9948128,50.4487827 33.782825,50.2927562 C33.6704742,51.1938417 33.5168676,52.1957642 33.4239771,53.2033603 C32.3245997,65.109088 32.6585385,76.9304839 35.6595766,88.5772849 C37.6600956,96.3425066 40.7213309,103.669822 45.8243411,109.934352 C56.0285451,122.461091 69.3824639,127.972826 85.4719822,126.395539 C99.5970479,125.0109 111.362747,118.450307 121.633116,108.991746 C121.759218,108.875435 121.81708,108.68614 122.032441,108.313224 C121.289576,108.458419 120.79269,108.54894 120.298917,108.652872 C113.336281,110.117974 106.379352,111.609381 99.405818,113.020841 C98.5295855,113.198015 97.1398604,114.023021 96.7810125,112.527488 C96.4296891,111.062386 97.9745777,111.083533 98.8928445,110.857359 C107.390769,108.76454 115.903224,106.731295 124.40089,104.637961 C125.289577,104.419008 126.094195,103.882586 126.966536,103.57337 C127.427356,103.410122 127.948113,103.39568 128.445,103.358027 C128.862488,103.326564 129.299437,103.42998 129.701876,103.348227 C130.482883,103.189364 131.398295,102.918316 131.771155,103.779428 C132.052161,104.42855 132.076811,105.363162 131.831611,106.031884 C130.621181,109.333973 129.375202,112.629614 127.966795,115.852014 C126.198503,119.89684 124.287241,123.881578 122.357558,127.853678 C122.142976,128.294679 121.404262,128.48449 120.908673,128.790869 C120.582259,128.20261 120.191756,127.638078 119.959789,127.015261 C119.860671,126.749113 120.055015,126.346539 120.18008,126.031133 C122.32694,120.613789 124.483661,115.200055 126.639603,109.786063 C126.793728,109.39922 126.957454,109.016504 127.11651,108.631724 C126.545674,108.849646 126.216665,109.178978 125.888954,109.509599 C116.953302,118.524581 106.541262,125.116379 94.1193621,128.250321 C80.3850592,131.715399 67.2802323,130.120834 55.130517,122.687523 C45.4037391,116.736336 39.1837076,107.909876 35.1284401,97.482145 C30.0487823,84.4215631 28.9641948,70.8317804 29.931242,56.9959658 C30.1063848,54.4910306 30.3505467,51.9909954 30.5630532,49.4868339 C30.0944491,49.3369969 29.7304117,49.1995388 29.355736,49.1038597 C20.8022846,46.9179408 13.1686567,42.9607982 6.56227335,37.1514531 C4.27711494,35.1419344 2.25635716,32.8306784 0.182148428,30.5955015 C-0.0858848001,30.306659 0.0508562562,29.6467054 0,29.1587679 C0.524130804,29.2387154 1.05708361,29.2856523 1.56798141,29.4169209 C1.74182678,29.4615367 1.86092383,29.7178845 2.00518953,29.8772636 C7.20783644,35.6290982 13.2851591,40.2464522 20.3884288,43.4103094 C23.7099132,44.8895958 27.2145839,45.963471 30.8834995,47.3120045 C31.1943454,45.6307863 31.4117818,44.4583951 31.6281804,43.2857461" id="Fill-1" fill="#000000" mask="url(#mask-2)"></path>
            </g>
        </g>
    </g>
</svg>