<?xml version="1.0" encoding="UTF-8"?>
<svg width="12px" height="12px" viewBox="0 0 12 12" version="1.1" xmlns="http://www.w3.org/2000/svg" xmlns:xlink="http://www.w3.org/1999/xlink">
    <title>Group 4</title>
    <g id="Chat" stroke="none" stroke-width="1" fill="none" fill-rule="evenodd">
        <g id="Chat-Attachments03" transform="translate(-874.000000, -131.000000)" fill="#3BD55A" fill-rule="nonzero">
            <g id="Group-7" transform="translate(233.000000, 60.000000)">
                <g id="Group-4" transform="translate(641.000000, 71.000000)">
                    <path d="M2,12.0000008 L8,12.0000008 C9.1045695,12.0000008 10,11.1045703 10,10.0000008 L10,9.00000081 C10,8.44771606 9.55228475,8.00000081 9,8.00000081 C8.44771525,8.00000081 8,8.44771606 8,9.00000081 L8,10.0000008 L2,10.0000008 L2,4.00000081 L3,4.00000081 C3.55228475,4.00000081 4,3.55228556 4,3.00000081 C4,2.44771606 3.55228475,2.00000081 3,2.00000081 L2,2.00000081 C0.8954305,2.00000081 0,2.89543131 0,4.00000081 L0,10.0000008 C0,11.1045703 0.8954305,12.0000008 2,12.0000008 Z" id="Path"></path>
                    <path d="M11.5,0 L6.5,0 C6.29749112,-0.00036151781 6.11476152,0.12146368 6.03721569,0.308537521 C5.95966986,0.495611362 6.00262316,0.710986613 6.146,0.854000806 L7.939,2.64600081 L5.293,5.29300081 C5.03304342,5.54407528 4.9287874,5.9158787 5.02030284,6.26550813 C5.11181828,6.61513756 5.38486324,6.88818252 5.73449268,6.97969796 C6.08412211,7.0712134 6.45592553,6.96695739 6.707,6.70700081 L9.354,4.06100081 L11.146,5.85400081 C11.2399507,5.94771475 11.3673011,6.0002378 11.5,6 C11.5655115,5.99967037 11.6303508,5.9867704 11.691,5.96200081 C11.8779915,5.88470838 12,5.702337 12,5.5 L12,0.5 C12,0.223858431 11.7761424,0 11.5,0 Z" id="Path"></path>
                </g>
            </g>
        </g>
    </g>
</svg>