<svg width="22" height="22" viewBox="0 0 22 22" xmlns="http://www.w3.org/2000/svg">
    <g fill="none" fill-rule="evenodd">
        <circle stroke="#D8D8D8" stroke-width="3" fill="#FFF" cx="11" cy="11" r="9.5"/>
        <path d="M10 14a1 1 0 0 1-.707-.293l-2-2a1 1 0 1 1 1.414-1.414L10 11.586l3.293-3.293a1 1 0 1 1 1.414 1.414l-4 4A1 1 0 0 1 10 14zM5.407 7.789a1 1 0 0 0 .8-.4 6.034 6.034 0 0 1 1.085-1.106 1 1 0 1 0-1.237-1.572 8.084 8.084 0 0 0-1.446 1.476 1 1 0 0 0 .8 1.6l-.002.002zM5.052 11.791a6.1 6.1 0 0 1-.004-1.552 1 1 0 1 0-1.984-.254 8.059 8.059 0 0 0 .005 2.066 1 1 0 1 0 1.983-.26zM6.224 14.633a1 1 0 1 0-1.591 1.211c.419.55.907 1.044 1.452 1.469a1 1 0 0 0 1.23-1.578 5.991 5.991 0 0 1-1.091-1.102z" fill="#3BD55A" fill-rule="nonzero"/>
        <path d="M11 3a8.2 8.2 0 0 0-1.137.08 1 1 0 0 0 .278 1.981 6 6 0 1 1 0 11.878 1 1 0 0 0-.278 1.981A8 8 0 1 0 11 3z" fill="#3BD55A" fill-rule="nonzero"/>
    </g>
</svg>
