<svg width="36" height="73" viewBox="0 0 36 73" fill="none" xmlns="http://www.w3.org/2000/svg">
<path d="M0 17.0196C0 15.8864 0.491818 14.8091 1.34797 14.0668L15.054 2.18314C16.5047 0.925318 18.6543 0.90763 20.1255 2.1414L34.3427 14.064C35.2281 14.8066 35.7396 15.903 35.7396 17.0586V69.0918C35.7396 71.2503 33.9898 73 31.8314 73H3.90817C1.74974 73 0 71.2503 0 69.0918V17.0196Z" fill="black"/>
<path d="M6.84375 34.8375V30.0392L17.8713 19.0117L28.8988 30.0392V34.8375L17.8713 23.8099L6.84375 34.8375Z" fill="white"/>
<path d="M6.84375 43.9273V39.1291L17.8713 28.1016L28.8988 39.1291V43.9273L17.8713 32.8998L6.84375 43.9273Z" fill="#00CF2E"/>
<path d="M6.84375 53.0191V48.2209L17.8713 37.1934L28.8988 48.2209V53.0191L17.8713 41.9916L6.84375 53.0191Z" fill="#00CF2E"/>
<path d="M6.84375 62.1109V57.3127L17.8713 46.2852L28.8988 57.3127V62.1109L17.8713 51.0834L6.84375 62.1109Z" fill="#00CF2E"/>
</svg>
