<svg xmlns="http://www.w3.org/2000/svg" width="323.996" height="71" viewBox="0 0 323.996 71">
    <g data-name="Group 11156">
        <text data-name="Rated 5-star on TrustPilot" transform="translate(55.996)" style="fill:#fff;font-size:35px;font-family:Gilroy-Bold;font-weight:700;letter-spacing:-.025em"><tspan x="0" y="27">Rated 5-star</tspan><tspan style="font-size:24px"><tspan x="0" y="57">on TrustPilot</tspan></tspan></text>
        <g data-name="Group 11153">
            <path data-name="Path 11762" d="M46 18H30.19L24.952 1.694a1 1 0 0 0-1.9 0L17.81 18H2a1 1 0 0 0-.612 1.791L14 29.554 8.752 45.691a1 1 0 0 0 1.539 1.118L24 36.85l13.709 9.959a1 1 0 0 0 1.539-1.118L34 29.554l12.608-9.763A1 1 0 0 0 46 18z" style="fill:#ffd764" transform="translate(-1 12.353)"/>
        </g>
    </g>
</svg>
