<svg width="14" height="14" viewBox="0 0 14 14" fill="none" xmlns="http://www.w3.org/2000/svg">
<path d="M7.00004 13.6663C5.13893 13.6663 3.56254 13.0205 2.27087 11.7288C0.979207 10.4372 0.333374 8.86079 0.333374 6.99967C0.333374 5.13856 0.979207 3.56217 2.27087 2.27051C3.56254 0.978841 5.13893 0.333008 7.00004 0.333008C7.95837 0.333008 8.87504 0.530925 9.75004 0.926758C10.625 1.32259 11.375 1.88856 12 2.62467V1.16634C12 0.93023 12.0799 0.732313 12.2396 0.572591C12.3993 0.412869 12.5973 0.333008 12.8334 0.333008C13.0695 0.333008 13.2674 0.412869 13.4271 0.572591C13.5868 0.732313 13.6667 0.93023 13.6667 1.16634V5.33301C13.6667 5.56912 13.5868 5.76704 13.4271 5.92676C13.2674 6.08648 13.0695 6.16634 12.8334 6.16634H8.66671C8.4306 6.16634 8.23268 6.08648 8.07296 5.92676C7.91324 5.76704 7.83337 5.56912 7.83337 5.33301C7.83337 5.0969 7.91324 4.89898 8.07296 4.73926C8.23268 4.57954 8.4306 4.49967 8.66671 4.49967H11.3334C10.8889 3.7219 10.2813 3.11079 9.51046 2.66634C8.73962 2.2219 7.90282 1.99967 7.00004 1.99967C5.61115 1.99967 4.4306 2.48579 3.45837 3.45801C2.48615 4.43023 2.00004 5.61079 2.00004 6.99967C2.00004 8.38856 2.48615 9.56912 3.45837 10.5413C4.4306 11.5136 5.61115 11.9997 7.00004 11.9997C7.94448 11.9997 8.80907 11.7601 9.59379 11.2809C10.3785 10.8018 10.9862 10.1594 11.4167 9.35384C11.5278 9.1594 11.6841 9.02398 11.8855 8.94759C12.0868 8.8712 12.2917 8.86773 12.5 8.93717C12.7223 9.00662 12.882 9.15245 12.9792 9.37467C13.0764 9.5969 13.0695 9.80523 12.9584 9.99967C12.3889 11.1108 11.5764 11.9997 10.5209 12.6663C9.46532 13.333 8.29171 13.6663 7.00004 13.6663Z" fill="#000"/>
</svg>
