<svg width="19" height="18" viewBox="0 0 19 18" fill="none" xmlns="http://www.w3.org/2000/svg">
<path d="M18.0718 2.51357L16.8339 3.45857C15.1461 1.35214 12.521 -6.55651e-07 9.57333 -6.55651e-07C4.48346 -6.55651e-07 0.363722 4.01786 0.357137 8.98928C0.350553 13.965 4.47907 18 9.57333 18C13.5526 18 16.9436 15.5357 18.2342 12.0836C18.2671 11.9936 18.2189 11.8929 18.1267 11.8629L16.8822 11.445C16.8388 11.4305 16.7913 11.4331 16.7499 11.4523C16.7085 11.4716 16.6764 11.5058 16.6605 11.5479C16.621 11.655 16.5771 11.7621 16.531 11.8671C16.1513 12.7457 15.607 13.5343 14.9134 14.2114C14.2254 14.8844 13.4109 15.4213 12.5144 15.7929C11.586 16.1764 10.5961 16.3714 9.57772 16.3714C8.55711 16.3714 7.56943 16.1764 6.641 15.7929C5.74369 15.4229 4.92884 14.8857 4.24203 14.2114C3.55219 13.5398 3.00278 12.7436 2.62442 11.8671C2.23154 10.9586 2.03181 9.99429 2.03181 8.99786C2.03181 8.00143 2.23154 7.03714 2.62442 6.12857C3.00413 5.25 3.54845 4.46143 4.24203 3.78429C4.9356 3.10714 5.74331 2.57571 6.641 2.20286C7.56943 1.81929 8.5593 1.62429 9.57772 1.62429C10.5983 1.62429 11.586 1.81929 12.5144 2.20286C13.4117 2.57281 14.2266 3.10997 14.9134 3.78429C15.1307 3.99643 15.3348 4.22143 15.5236 4.45714L14.2023 5.46429C14.1761 5.48403 14.1562 5.51058 14.1448 5.54088C14.1335 5.57117 14.1311 5.60399 14.138 5.63555C14.1448 5.66712 14.1607 5.69614 14.1837 5.71929C14.2068 5.74245 14.236 5.75878 14.2681 5.76643L18.1223 6.68786C18.232 6.71357 18.3396 6.63214 18.3396 6.52286L18.3571 2.64643C18.3549 2.505 18.1859 2.42571 18.0718 2.51357Z" fill="black"/>
</svg>
