<svg width="24" height="25" viewBox="0 0 24 25" fill="none" xmlns="http://www.w3.org/2000/svg">
<path d="M17.5133 17.8571C17.1841 18.1794 16.6904 18.1794 16.3612 17.8571L11.9997 13.5864L7.63823 17.8571C7.30906 18.1794 6.8153 18.1794 6.48614 17.8571C6.15697 17.5348 6.15697 17.0513 6.48614 16.729L10.8476 12.4583L6.48614 8.18771C6.15697 7.86539 6.15697 7.38193 6.48614 7.05962C6.65072 6.89846 6.8153 6.81788 7.06218 6.81788C7.30906 6.81788 7.47364 6.89846 7.63823 7.05962L11.9997 11.3302L16.3612 7.05962C16.5258 6.89846 16.7727 6.81788 16.9373 6.81788C17.1019 6.81788 17.3487 6.89846 17.5133 7.05962C17.8425 7.38193 17.8425 7.86539 17.5133 8.18771L13.1518 12.4583L17.5133 16.729C17.8425 17.0513 17.8425 17.5348 17.5133 17.8571Z" fill="#A4A4A4"/>
</svg>
