<svg width="24" height="24" viewBox="0 0 24 24" fill="none" xmlns="http://www.w3.org/2000/svg">
<mask id="mask0_6024_18652" style="mask-type:alpha" maskUnits="userSpaceOnUse" x="0" y="0" width="24" height="24">
<rect width="24" height="24" fill="#D9D9D9"/>
</mask>
<g mask="url(#mask0_6024_18652)">
<path d="M12 17.0005C12.2833 17.0005 12.5208 16.9047 12.7125 16.713C12.9042 16.5213 13 16.2838 13 16.0005C13 15.7172 12.9042 15.4797 12.7125 15.288C12.5208 15.0963 12.2833 15.0005 12 15.0005C11.7167 15.0005 11.4792 15.0963 11.2875 15.288C11.0958 15.4797 11 15.7172 11 16.0005C11 16.2838 11.0958 16.5213 11.2875 16.713C11.4792 16.9047 11.7167 17.0005 12 17.0005ZM11 13.0005H13V7.00049H11V13.0005ZM8.25 21.0005L3 15.7505V8.25049L8.25 3.00049H15.75L21 8.25049V15.7505L15.75 21.0005H8.25Z" fill="#FFB82E"/>
</g>
</svg>
