<svg width="17" height="17" viewBox="0 0 17 17" fill="none" xmlns="http://www.w3.org/2000/svg">
<path d="M8.5 0C3.808 0 0 3.808 0 8.5C0 13.192 3.808 17 8.5 17C13.192 17 17 13.192 17 8.5C17 3.808 13.192 0 8.5 0ZM8.5 15.3C4.743 15.3 1.7 12.257 1.7 8.5C1.7 4.743 4.743 1.7 8.5 1.7C12.257 1.7 15.3 4.743 15.3 8.5C15.3 12.257 12.257 15.3 8.5 15.3Z" fill="white"/>
<path d="M4.2501 9.77501C4.58825 9.77501 4.91255 9.64068 5.15166 9.40157C5.39077 9.16246 5.5251 8.83816 5.5251 8.50001C5.5251 8.16186 5.39077 7.83755 5.15166 7.59844C4.91255 7.35934 4.58825 7.22501 4.2501 7.22501C3.91195 7.22501 3.58765 7.35934 3.34854 7.59844C3.10943 7.83755 2.9751 8.16186 2.9751 8.50001C2.9751 8.83816 3.10943 9.16246 3.34854 9.40157C3.58765 9.64068 3.91195 9.77501 4.2501 9.77501Z" fill="white"/>
<path d="M8.5001 9.77501C8.83825 9.77501 9.16255 9.64068 9.40166 9.40157C9.64077 9.16246 9.7751 8.83816 9.7751 8.50001C9.7751 8.16186 9.64077 7.83755 9.40166 7.59844C9.16255 7.35934 8.83825 7.22501 8.5001 7.22501C8.16195 7.22501 7.83765 7.35934 7.59854 7.59844C7.35943 7.83755 7.2251 8.16186 7.2251 8.50001C7.2251 8.83816 7.35943 9.16246 7.59854 9.40157C7.83765 9.64068 8.16195 9.77501 8.5001 9.77501Z" fill="white"/>
<path d="M12.7501 9.77501C13.0882 9.77501 13.4125 9.64068 13.6517 9.40157C13.8908 9.16246 14.0251 8.83816 14.0251 8.50001C14.0251 8.16186 13.8908 7.83755 13.6517 7.59844C13.4125 7.35934 13.0882 7.22501 12.7501 7.22501C12.4119 7.22501 12.0876 7.35934 11.8485 7.59844C11.6094 7.83755 11.4751 8.16186 11.4751 8.50001C11.4751 8.83816 11.6094 9.16246 11.8485 9.40157C12.0876 9.64068 12.4119 9.77501 12.7501 9.77501Z" fill="white"/>
</svg>
