<svg width="32" height="32" viewBox="0 0 32 32" fill="none" xmlns="http://www.w3.org/2000/svg">
<mask id="mask0_7892_1038" style="mask-type:alpha" maskUnits="userSpaceOnUse" x="0" y="0" width="32" height="32">
<rect width="32" height="32" fill="#D9D9D9"/>
</mask>
<g mask="url(#mask0_7892_1038)">
<path d="M28.0326 14.7333V25.3333C28.0326 26.0667 27.7715 26.6944 27.2493 27.2167C26.7271 27.7389 26.0993 28 25.366 28H6.6993C5.96597 28 5.33819 27.7389 4.81597 27.2167C4.29375 26.6944 4.03264 26.0667 4.03264 25.3333V14.7333C3.52153 14.2667 3.12708 13.6667 2.8493 12.9333C2.57153 12.2 2.56597 11.4 2.83264 10.5333L4.23264 6C4.41042 5.42222 4.72708 4.94444 5.18264 4.56667C5.63819 4.18889 6.16597 4 6.76597 4H25.2993C25.8993 4 26.4215 4.18333 26.866 4.55C27.3104 4.91667 27.6326 5.4 27.8326 6L29.2326 10.5333C29.4993 11.4 29.4937 12.1889 29.216 12.9C28.9382 13.6111 28.5438 14.2222 28.0326 14.7333ZM18.966 13.3333C19.566 13.3333 20.0215 13.1278 20.3326 12.7167C20.6437 12.3056 20.766 11.8444 20.6993 11.3333L19.966 6.66667H17.366V11.6C17.366 12.0667 17.5215 12.4722 17.8326 12.8167C18.1437 13.1611 18.5215 13.3333 18.966 13.3333ZM12.966 13.3333C13.4771 13.3333 13.8938 13.1611 14.216 12.8167C14.5382 12.4722 14.6993 12.0667 14.6993 11.6V6.66667H12.0993L11.366 11.3333C11.2771 11.8667 11.3937 12.3333 11.716 12.7333C12.0382 13.1333 12.4549 13.3333 12.966 13.3333ZM7.03264 13.3333C7.43264 13.3333 7.78264 13.1889 8.08264 12.9C8.38264 12.6111 8.56597 12.2444 8.63264 11.8L9.36597 6.66667H6.76597L5.43264 11.1333C5.2993 11.5778 5.37153 12.0556 5.6493 12.5667C5.92708 13.0778 6.38819 13.3333 7.03264 13.3333ZM25.0326 13.3333C25.6771 13.3333 26.1437 13.0778 26.4326 12.5667C26.7215 12.0556 26.7882 11.5778 26.6326 11.1333L25.2326 6.66667H22.6993L23.4326 11.8C23.4993 12.2444 23.6826 12.6111 23.9826 12.9C24.2826 13.1889 24.6326 13.3333 25.0326 13.3333ZM6.6993 25.3333H25.366V15.9333C25.2549 15.9778 25.1826 16 25.1493 16H25.0326C24.4326 16 23.9049 15.9 23.4493 15.7C22.9937 15.5 22.5437 15.1778 22.0993 14.7333C21.6993 15.1333 21.2437 15.4444 20.7326 15.6667C20.2215 15.8889 19.6771 16 19.0993 16C18.4993 16 17.9382 15.8889 17.416 15.6667C16.8937 15.4444 16.4326 15.1333 16.0326 14.7333C15.6549 15.1333 15.216 15.4444 14.716 15.6667C14.216 15.8889 13.6771 16 13.0993 16C12.4549 16 11.8715 15.8889 11.3493 15.6667C10.8271 15.4444 10.366 15.1333 9.96597 14.7333C9.4993 15.2 9.03819 15.5278 8.58264 15.7167C8.12708 15.9056 7.61041 16 7.03264 16H6.88264C6.82708 16 6.76597 15.9778 6.6993 15.9333V25.3333Z" fill="#5E5E5E"/>
</g>
</svg>
