<svg width="22" height="20" viewBox="0 0 22 20" fill="none" xmlns="http://www.w3.org/2000/svg">
<path d="M13.9251 0H7.85413C7.6647 0 7.48303 0.0752495 7.34908 0.209194C7.21514 0.343139 7.13989 0.524808 7.13989 0.714235C7.13989 0.903661 7.21514 1.08533 7.34908 1.21927C7.48303 1.35322 7.6647 1.42847 7.85413 1.42847H13.9251C15.5352 1.42847 17.0794 2.06809 18.218 3.20662C19.3565 4.34515 19.9961 5.88934 19.9961 7.49946C19.9961 9.10959 19.3565 10.6538 18.218 11.7923C17.0794 12.9308 15.5352 13.5705 13.9251 13.5705H7.13989V9.28505C7.13975 9.14794 7.10015 9.01376 7.02581 8.89855C6.95147 8.78334 6.84555 8.69196 6.72068 8.63532C6.59581 8.57868 6.45727 8.55919 6.32162 8.57916C6.18597 8.59913 6.05894 8.65773 5.95569 8.74795L0.241813 13.7476C0.165813 13.8146 0.104946 13.897 0.0632541 13.9894C0.0215621 14.0818 0 14.1819 0 14.2833C0 14.3846 0.0215621 14.4848 0.0632541 14.5771C0.104946 14.6695 0.165813 14.7519 0.241813 14.8189L5.95569 19.8186C6.05875 19.9086 6.18553 19.9672 6.32092 19.9873C6.45631 20.0073 6.59462 19.9881 6.71938 19.9318C6.84414 19.8755 6.95011 19.7846 7.02466 19.6698C7.09921 19.555 7.1392 19.4212 7.13989 19.2843V14.9989H13.9251C15.9141 14.9989 17.8216 14.2088 19.228 12.8024C20.6345 11.396 21.4246 9.48844 21.4246 7.49946C21.4246 5.51048 20.6345 3.60296 19.228 2.19654C17.8216 0.79012 15.9141 2.96381e-08 13.9251 0Z" fill="black"/>
</svg>
