<?xml version="1.0" encoding="UTF-8"?>
<svg width="58px" height="70px" viewBox="0 0 58 70" version="1.1" xmlns="http://www.w3.org/2000/svg" xmlns:xlink="http://www.w3.org/1999/xlink">
    <title>Risky</title>
    <defs>
        <polygon id="path-1" points="0 0 58 0 58 70 0 70"></polygon>
        <polygon id="path-3" points="0 0 29.0029173 0 29.0029173 69.9858456 0 69.9858456"></polygon>
    </defs>
    <g id="Simple-Billing" stroke="none" stroke-width="1" fill="none" fill-rule="evenodd">
        <g id="Pay-for-job" transform="translate(-913.000000, -319.000000)">
            <g id="Group-5" transform="translate(899.000000, 306.000000)">
                <g id="Group-10" transform="translate(14.000000, 13.000000)">
                    <g id="Group-9">
                        <g id="Group-3">
                            <mask id="mask-2" fill="white">
                                <use xlink:href="#path-1"></use>
                            </mask>
                            <g id="Clip-2"></g>
                            <path d="M56.7242765,4.58437434 L29.2501023,0.0193646028 C29.0846162,-0.00668643237 28.9156462,-0.00668643237 28.7492891,0.0193646028 L1.27598587,4.58437434 C0.539137301,4.70681421 -0.000869927313,5.3415911 0,6.08665071 L0,38.0434556 C0,47.2620486 4.96980951,55.7138728 14.3685482,62.4828001 C18.7190903,65.5985039 23.4807347,68.1020084 28.5176086,69.921239 C28.8302902,70.0263115 29.1691012,70.0263115 29.4826538,69.921239 C34.5195276,68.1020084 39.280301,65.5985039 43.6317141,62.4828001 C53.0304528,55.7138728 58.0002613,47.2620486 58.0002613,38.0434556 L58.0002613,6.08665071 C58.0002613,5.3415911 57.461125,4.70681421 56.7242765,4.58437434" id="Fill-1" fill="#3BD55A" mask="url(#mask-2)"></path>
                        </g>
                        <g id="Group-6" transform="translate(28.997083, 0.014154)">
                            <mask id="mask-4" fill="white">
                                <use xlink:href="#path-3"></use>
                            </mask>
                            <g id="Clip-5"></g>
                            <path d="M27.7241453,4.57021995 L0.249971088,0.00521020704 C0.167228045,-0.00173673568 0.0836140225,-0.00173673568 0,0.00521020704 L0,69.9861061 C0.164615107,69.9852377 0.327488255,69.9583183 0.483393567,69.9070846 C5.52026744,68.0869856 10.2810408,65.5843495 14.6315829,62.4686457 C24.0303217,55.6997184 29.003614,47.2478942 29.003614,38.0293012 L29.003614,6.07249631 C29.003614,5.32656833 28.4618649,4.69092308 27.7241453,4.57021995" id="Fill-4" fill="#42AF58" mask="url(#mask-4)"></path>
                        </g>
                        <path d="M38.8327151,8.99703248 L28.900936,20.5491317 C28.6339905,20.8601013 28.1640258,20.8958208 27.852121,20.6296756 C27.8380713,20.6170688 27.8240215,20.6044619 27.8106742,20.5911546 L22.2539921,15.0511337 C21.9638644,14.761876 21.9638644,14.2926201 22.2539921,14.002662 L23.305617,12.9541903 C23.5964471,12.6649325 24.0671143,12.6649325 24.3572419,12.9541903 L28.2096876,16.7950847 L36.5735128,7.06677993 C36.8404584,6.75581037 37.310423,6.72009089 37.6216253,6.9869364 L38.7519289,7.95066191 C39.0638337,8.21680703 39.1003631,8.68536253 38.8334176,8.9963321 C38.8334176,8.9963321 38.8327151,8.99703248 38.8327151,8.99703248" id="Fill-7" fill="#FFFFFF"></path>
                    </g>
                    <g id="RISK" transform="translate(14.075698, 28.183871)" fill="#000000" fill-rule="nonzero">
                        <path d="M6.3548928,11.8161288 L4.0214556,7.7946732 L2.2837896,7.7946732 L2.2837896,11.8161288 L0,11.8161288 L0,0.2316888 L4.633776,0.2316888 C5.7039576,0.2316888 6.6141636,0.606804 7.364394,1.3570344 C8.1146244,2.1072648 8.4897396,3.0119544 8.4897396,4.0711032 C8.4897396,4.7882352 8.2856328,5.4529614 7.8774192,6.0652818 C7.4692056,6.6776022 6.9285984,7.1382216 6.2555976,7.44714 L8.8207236,11.8161288 L6.3548928,11.8161288 Z M2.2837896,2.3665356 L2.2837896,5.79222 L4.633776,5.79222 C5.0640552,5.79222 5.433654,5.6239698 5.7425724,5.2874694 C6.0514908,4.950969 6.20595,4.5455136 6.20595,4.0711032 C6.20595,3.5966928 6.0514908,3.1939956 5.7425724,2.8630116 C5.433654,2.5320276 5.0640552,2.3665356 4.633776,2.3665356 L2.2837896,2.3665356 Z" id="Shape"></path>
                        <polygon id="Path" points="10.33225 0.2316888 12.6160396 0.2316888 12.6160396 11.8161288 10.33225 11.8161288"></polygon>
                        <path d="M18.5296532,12.0478176 C17.382242,12.0478176 16.416872,11.791305 15.6335432,11.2782798 C14.8502144,10.7652546 14.2985744,10.06743 13.9786232,9.184806 L15.9314288,8.0429112 C16.3837736,9.2234208 17.271914,9.8136756 18.59585,9.8136756 C19.2357524,9.8136756 19.7046464,9.6978312 20.002532,9.4661424 C20.3004176,9.2344536 20.4493604,8.9420844 20.4493604,8.5890348 C20.4493604,8.1808212 20.2673192,7.8636282 19.9032368,7.6374558 C19.5391544,7.4112834 18.8882192,7.1658036 17.9504312,6.9010164 C17.4318896,6.7465572 16.9933358,6.592098 16.6347698,6.4376388 C16.2762038,6.2831796 15.9176378,6.0763146 15.5590718,5.8170438 C15.2005058,5.557773 14.927444,5.2295472 14.7398864,4.8323664 C14.5523288,4.4351856 14.45855,3.971808 14.45855,3.4422336 C14.45855,2.3941176 14.830907,1.558383 15.575621,0.9350298 C16.320335,0.3116766 17.21675,0 18.264866,0 C19.202654,0 20.0273558,0.2289306 20.7389714,0.6867918 C21.450587,1.144653 22.0049852,1.7817972 22.402166,2.5982244 L20.4824588,3.7070208 C20.0190812,2.7140688 19.2798836,2.2175928 18.264866,2.2175928 C17.7904556,2.2175928 17.4180986,2.3251626 17.147795,2.5403022 C16.8774914,2.7554418 16.7423396,3.03402 16.7423396,3.3760368 C16.7423396,3.7401192 16.8940406,4.0352466 17.1974426,4.261419 C17.5008446,4.4875914 18.0828248,4.7330712 18.9433832,4.9978584 C19.2964328,5.1081864 19.5639782,5.1936906 19.7460194,5.254371 C19.9280606,5.3150514 20.1762986,5.4088302 20.4907334,5.5357074 C20.8051682,5.6625846 21.0478898,5.7811872 21.2188982,5.8915152 C21.3899066,6.0018432 21.5857388,6.150786 21.8063948,6.3383436 C22.0270508,6.5259012 22.195301,6.7189752 22.3111454,6.9175656 C22.4269898,7.116156 22.526285,7.3561194 22.609031,7.6374558 C22.691777,7.9187922 22.73315,8.2249524 22.73315,8.5559364 C22.73315,9.626118 22.3442438,10.4756436 21.5664314,11.1045132 C20.788619,11.7333828 19.7763596,12.0478176 18.5296532,12.0478176 Z" id="Path"></path>
                        <polygon id="Path" points="33.2805396 11.8161288 30.6492168 11.8161288 26.5119168 6.3879912 26.5119168 11.8161288 24.2281272 11.8161288 24.2281272 0.2316888 26.5119168 0.2316888 26.5119168 5.3453916 30.4837248 0.2316888 33.1150476 0.2316888 28.8288048 5.8584168"></polygon>
                    </g>
                    <g id="FREE" transform="translate(14.002567, 43.203130)" fill="#000000" fill-rule="nonzero">
                        <polygon id="Path" points="6.4472738 2.0359812 2.1285258 2.0359812 2.1285258 4.5963818 6.323881 4.5963818 6.323881 6.632363 2.1285258 6.632363 2.1285258 10.79687 0 10.79687 0 0 6.4472738 0"></polygon>
                        <path d="M13.9279623,10.79687 L11.7531642,7.0488137 L10.1336337,7.0488137 L10.1336337,10.79687 L8.0051079,10.79687 L8.0051079,0 L12.3238559,0 C13.321281,0 14.1696065,0.349612933 14.8688324,1.0488388 C15.5680583,1.74806467 15.9176712,2.5912488 15.9176712,3.5783912 C15.9176712,4.24676887 15.7274406,4.86630355 15.3469795,5.43699525 C14.9665184,6.00768695 14.4626644,6.43699107 13.8354177,6.7249076 L16.2261532,10.79687 L13.9279623,10.79687 Z M10.1336337,1.9897089 L10.1336337,5.1824976 L12.3238559,5.1824976 C12.7248825,5.1824976 13.0693541,5.02568592 13.3572706,4.71206255 C13.6451871,4.39843918 13.7891454,4.02054873 13.7891454,3.5783912 C13.7891454,3.13623367 13.6451871,2.7609139 13.3572706,2.4524319 C13.0693541,2.1439499 12.7248825,1.9897089 12.3238559,1.9897089 L10.1336337,1.9897089 Z" id="Shape"></path>
                        <polygon id="Path" points="19.6040311 8.7608888 24.1541406 8.7608888 24.1541406 10.79687 17.4755053 10.79687 17.4755053 0 24.0770201 0 24.0770201 2.0359812 19.6040311 2.0359812 19.6040311 4.3341721 23.6914176 4.3341721 23.6914176 6.3393051 19.6040311 6.3393051"></polygon>
                        <polygon id="Path" points="27.7788041 8.7608888 32.3289136 8.7608888 32.3289136 10.79687 25.6502783 10.79687 25.6502783 0 32.2517931 0 32.2517931 2.0359812 27.7788041 2.0359812 27.7788041 4.3341721 31.8661906 4.3341721 31.8661906 6.3393051 27.7788041 6.3393051"></polygon>
                    </g>
                </g>
            </g>
        </g>
    </g>
</svg>