<svg width="324" height="256" viewBox="0 0 324 256" fill="none" xmlns="http://www.w3.org/2000/svg">
<g clip-path="url(#clip0_201_1598)">
<path d="M62.1665 245.499C78.8819 236.64 94.9773 225.106 110.615 212.919C126.314 200.69 141.806 187.947 157.345 175.388C162.883 170.91 168.405 166.358 173.944 161.846C198.425 143.882 215.699 130.353 215.699 130.353L210.761 124.124C210.761 124.124 210.354 124.41 209.588 124.945C203.155 129.433 171.331 151.285 142.216 164.98C133.39 167.792 123.933 169.662 116.157 167.818C111.5 166.715 107.579 163.951 106.177 158.809C104.976 154.406 105.529 149.143 106.919 144.026C118.222 126.469 136.711 104.537 153.395 85.7019C170.639 66.2302 187.02 46.7514 201.952 27.9586C217.255 11.1814 232.638 -5.49504 247.709 -22.5153C263.126 -39.924 278.303 -58.4366 288.387 -79.6688C296.338 -96.409 303.535 -119.667 292.416 -130.611C279.431 -143.392 257.047 -130.521 241.068 -117.678C239.771 -116.635 239.42 -115.295 239.68 -114.251C153.547 -80.2901 188.004 -55.1302 188.004 -55.1302C188.004 -55.1302 253.415 -94.2039 228.62 -56.7118C228.386 -56.3594 228.14 -55.9995 227.894 -55.6396C227.748 -56.1796 227.555 -56.7147 227.302 -57.2323C224.405 -63.1699 215.806 -60.3661 209.833 -58.6656C202.904 -56.6897 195.912 -53.4939 189.695 -47.9983C188.056 -46.5474 189.388 -44.2388 191.027 -45.6897C196.267 -50.3215 202.081 -53.1531 207.942 -55.0069C213.006 -56.6067 222.352 -60.1749 224.764 -54.9812C225.19 -54.0552 225.384 -53.0829 225.396 -52.0744C191.572 -5.31166 97.7559 69.1147 52.9461 120.835C37.8826 138.221 31.6076 158.673 18.3292 176.668C14.896 181.32 10.9938 185.822 8.85682 191.088C5.91733 198.335 6.88986 205.521 7.94016 212.14C9.09187 219.414 10.264 226.766 13.0576 232.993C22.6139 254.282 38.5361 258.003 62.167 245.483L62.1665 245.499ZM249.376 -117.759C261.989 -126.911 277.224 -134.435 287.372 -126.321C299.118 -116.932 289.455 -92.0802 281.7 -77.0482C271.605 -57.4647 257.176 -40.3984 242.734 -24.1459C239.683 -20.7146 236.624 -17.2978 233.562 -13.8841C283.789 -84.3772 302.369 -134.606 249.376 -117.759ZM103.113 150.248C102.271 157.296 103.494 163.819 108.052 167.597C113.023 171.719 120.278 172.14 127.585 171.186C120.466 173.824 113.856 175.621 108.253 176.117C92.6048 177.491 93.7984 166.456 103.113 150.248ZM22.1291 235.347C28.6736 244.463 40.7139 246.622 59.0787 237.098C75.588 228.537 94.8357 216.628 114.083 203.855C101.361 213.959 88.4424 223.694 75.0577 232.043C61.0512 240.783 42.5853 252.273 29.6638 246.3C25.247 244.261 23.0915 240.236 22.1291 235.347Z" fill="url(#paint0_radial_201_1598)"/>
<path d="M213.987 128.446C213.987 128.446 123.019 193.515 95.9926 195.736C68.9702 197.96 69.64 172.867 107.323 129.226C145.007 85.585 246.48 -23.3757 267.152 -73.5988C287.829 -123.827 259.569 -119.955 227.411 -104.341C195.252 -88.7266 184.844 -65.2815 184.844 -65.2815L214.05 -86.543C214.05 -86.543 286.338 -122.449 259.058 -65.3371C235.303 -15.611 63.7714 133.24 57.9719 189.926C50.2108 265.799 213.987 128.446 213.987 128.446Z" fill="url(#paint1_radial_201_1598)"/>
<path d="M14.5294 230.637C24.0529 251.888 39.9401 255.593 63.5302 243.077C80.2167 234.22 96.2861 222.693 111.899 210.514C127.574 198.293 143.041 185.559 158.556 173.008C159.13 172.546 159.697 172.077 160.27 171.614C176.991 156.259 188.103 145.22 188.103 145.22C188.103 145.22 71.9702 234.958 37.8392 240.831C43.9063 241.247 51.4084 239.389 60.4499 234.695C76.9306 226.137 96.1461 214.232 115.362 201.467C102.66 211.563 89.7616 221.292 76.3992 229.638C62.4161 238.373 43.9811 249.858 31.0898 243.902C27.1793 242.093 25.0449 238.718 23.9479 234.566C10.7465 215.12 20.0079 157.906 58.9395 116.629C104.16 68.6915 219.792 -20.6089 240.47 -58.1251C254.908 -84.3237 232.553 -77.8818 217.753 -71.6069C231.499 -77.0746 242.535 -78.0241 229.82 -58.792C229.586 -58.4399 229.341 -58.0804 229.095 -57.7209C228.949 -58.26 228.758 -58.7942 228.505 -59.3108C225.618 -65.2378 217.035 -62.4327 211.073 -60.7309C204.157 -58.7535 197.177 -55.558 190.97 -50.0666C189.333 -48.6168 190.661 -46.3124 192.298 -47.7623C197.53 -52.3905 203.334 -55.2216 209.184 -57.0765C214.239 -58.6771 223.567 -62.246 225.971 -57.0615C226.396 -56.1371 226.589 -55.1664 226.6 -54.1594C192.817 -7.4441 99.1477 66.9321 54.398 118.605C39.3548 135.974 33.08 156.401 19.8178 174.377C16.3888 179.024 12.4918 183.523 10.356 188.782C7.41805 196.021 8.38415 203.195 9.42821 209.803C10.5731 217.066 11.7382 224.406 14.5223 230.623L14.5294 230.637Z" fill="url(#paint2_radial_201_1598)"/>
<g style="mix-blend-mode:multiply" opacity="0.45">
<path d="M93.7228 189.922C114.706 200.3 208.403 130.573 208.403 130.573L209.697 127.717C209.697 127.717 209.3 128.012 208.553 128.562C202.284 133.177 171.275 155.659 142.999 169.948C134.447 172.942 125.3 175.011 117.83 173.34C113.355 172.34 109.615 169.668 108.339 164.569C107.246 160.203 107.857 154.941 109.273 149.807C115.929 139.214 125.076 127.01 134.85 114.82C135.533 113.966 136.22 113.116 136.907 112.265C137.062 112.077 137.208 111.891 137.363 111.702C138.077 110.822 138.794 109.937 139.512 109.061C139.682 108.851 139.859 108.639 140.029 108.429C140.731 107.573 141.433 106.718 142.131 105.868C142.2 105.78 142.273 105.696 142.343 105.608C143.056 104.745 143.765 103.887 144.478 103.033C144.675 102.794 144.871 102.563 145.068 102.324C145.769 101.485 146.463 100.649 147.163 99.8186C147.356 99.5849 147.549 99.3596 147.741 99.1342C148.35 98.4071 148.962 97.6829 149.567 96.9611C149.721 96.7808 149.875 96.5922 150.029 96.4119C150.714 95.603 151.399 94.794 152.081 93.9904C152.315 93.7147 152.55 93.4389 152.785 93.1631C153.505 92.3144 154.228 91.4687 154.948 90.6283C171.863 70.8342 187.946 51.0515 202.621 31.9843C217.625 14.9197 232.704 -2.04615 247.488 -19.3482C262.61 -37.0453 277.518 -55.8382 287.554 -77.2341C295.468 -94.1034 302.751 -117.458 292.191 -128.135C279.859 -140.603 258.085 -127.283 242.487 -114.128C242.347 -114.014 242.221 -113.887 242.103 -113.763C242.072 -113.729 242.045 -113.7 242.014 -113.665C241.907 -113.549 241.807 -113.427 241.717 -113.304C241.694 -113.272 241.675 -113.246 241.659 -113.216C241.593 -113.125 241.537 -113.025 241.486 -112.931C241.458 -112.877 241.426 -112.826 241.402 -112.777C241.354 -112.68 241.31 -112.58 241.272 -112.482C241.243 -112.403 241.214 -112.324 241.193 -112.247C241.176 -112.193 241.163 -112.143 241.146 -112.089C241.128 -112.018 241.106 -111.941 241.092 -111.867C243.002 -112.71 247.243 -114.46 252.42 -115.825C252.775 -116.086 253.137 -116.349 253.498 -116.603C253.521 -116.619 253.547 -116.639 253.57 -116.655C253.913 -116.9 254.256 -117.144 254.602 -117.386C254.647 -117.417 254.685 -117.445 254.73 -117.476C255.062 -117.705 255.393 -117.933 255.728 -118.159C255.784 -118.197 255.84 -118.236 255.904 -118.277C256.228 -118.495 256.547 -118.707 256.874 -118.922C256.942 -118.969 257.013 -119.012 257.081 -119.058C257.397 -119.265 257.716 -119.47 258.031 -119.669C258.106 -119.717 258.182 -119.766 258.26 -119.811C258.572 -120.005 258.887 -120.204 259.198 -120.389C259.281 -120.44 259.359 -120.486 259.442 -120.537C259.749 -120.725 260.061 -120.91 260.368 -121.09C260.454 -121.138 260.536 -121.189 260.622 -121.237C260.93 -121.417 261.24 -121.594 261.547 -121.766C261.629 -121.809 261.712 -121.86 261.794 -121.902C262.108 -122.076 262.419 -122.245 262.729 -122.414C262.804 -122.454 262.879 -122.494 262.957 -122.531C263.278 -122.699 263.599 -122.868 263.917 -123.03C263.969 -123.055 264.021 -123.08 264.07 -123.108C265.518 -123.832 266.97 -124.476 268.403 -125.023C268.466 -125.047 268.525 -125.074 268.588 -125.099C268.844 -125.193 269.096 -125.281 269.356 -125.372C269.493 -125.42 269.634 -125.473 269.775 -125.518C270.001 -125.594 270.23 -125.667 270.456 -125.735C270.619 -125.787 270.789 -125.842 270.952 -125.894C271.163 -125.957 271.377 -126.017 271.588 -126.072C271.765 -126.12 271.942 -126.168 272.12 -126.217C272.323 -126.269 272.522 -126.316 272.724 -126.361C272.909 -126.403 273.097 -126.451 273.281 -126.485C273.476 -126.527 273.671 -126.56 273.863 -126.597C274.054 -126.633 274.238 -126.667 274.426 -126.698C274.613 -126.729 274.804 -126.758 274.991 -126.78C275.182 -126.809 275.369 -126.831 275.56 -126.851C275.747 -126.874 275.931 -126.891 276.11 -126.904C276.301 -126.923 276.491 -126.935 276.681 -126.946C276.861 -126.959 277.04 -126.962 277.222 -126.971C277.412 -126.975 277.602 -126.978 277.792 -126.981C277.967 -126.98 278.143 -126.978 278.318 -126.976C278.507 -126.971 278.697 -126.966 278.886 -126.953C279.057 -126.946 279.228 -126.931 279.399 -126.916C279.588 -126.902 279.773 -126.875 279.962 -126.853C280.129 -126.833 280.296 -126.812 280.459 -126.786C280.648 -126.756 280.832 -126.721 281.02 -126.683C281.179 -126.651 281.342 -126.617 281.501 -126.586C281.686 -126.542 281.873 -126.496 282.057 -126.443C282.212 -126.399 282.368 -126.362 282.519 -126.312C282.706 -126.257 282.889 -126.188 283.072 -126.12C283.219 -126.064 283.371 -126.014 283.518 -125.958C283.704 -125.887 283.89 -125.798 284.077 -125.718C284.216 -125.652 284.36 -125.6 284.495 -125.528C284.688 -125.434 284.873 -125.329 285.066 -125.226C285.191 -125.155 285.323 -125.095 285.444 -125.019C285.65 -124.896 285.856 -124.765 286.058 -124.629C286.161 -124.559 286.268 -124.503 286.37 -124.425C286.671 -124.213 286.975 -123.991 287.268 -123.752C298.455 -114.64 288.772 -89.6427 281.071 -74.4815C271.049 -54.7298 256.884 -37.3956 242.719 -20.8729C240.88 -18.7284 239.037 -16.5952 237.191 -14.4566C193.781 38.7892 163.692 76.4541 144.201 99.3822C103.297 147.495 75.5304 180.906 93.7345 189.906L93.7228 189.922ZM105.507 156.1C104.591 163.149 105.674 169.629 110.013 173.3C114.746 177.304 121.735 177.567 128.795 176.459C121.892 179.243 115.492 181.178 110.081 181.793C94.9724 183.501 96.2862 172.468 105.507 156.1Z" fill="url(#paint3_radial_201_1598)"/>
</g>
<g opacity="0.45">
<path d="M195.779 -16.4187C205.356 -31.3858 214.897 -44.5881 221.727 -54.5294C221.979 -54.8748 222.238 -55.2308 222.478 -55.5768C222.479 -55.5933 222.476 -55.6045 222.477 -55.621C223.339 -56.8832 224.156 -58.0899 224.915 -59.2335C224.917 -59.214 224.927 -59.1969 224.93 -59.1774C225.168 -59.5346 225.413 -59.9024 225.643 -60.2572C225.885 -60.6362 226.116 -60.9993 226.346 -61.3623C226.381 -61.4184 226.416 -61.4745 226.452 -61.5306C226.667 -61.8806 226.879 -62.2254 227.082 -62.5595C230.81 -68.4547 232.562 -72.2529 231.216 -73.3325C231.203 -73.5153 231.179 -73.6905 231.143 -73.8581C231.136 -73.864 231.141 -73.8775 231.137 -73.8887C231.034 -74.3884 230.844 -74.8071 230.571 -75.1502C230.567 -75.1531 230.56 -75.159 230.557 -75.162C230.283 -75.5051 229.93 -75.7696 229.505 -75.9663C229.502 -75.9692 229.498 -75.9722 229.495 -75.9751C229.066 -76.1664 228.569 -76.2952 228.004 -76.353C227.424 -76.4144 226.798 -76.4121 226.115 -76.3548C222.21 -76.0118 216.546 -73.8252 210.725 -71.0673C209.697 -70.5814 208.663 -70.0736 207.637 -69.5599C206.603 -69.0438 205.583 -68.516 204.575 -67.9876C204.571 -67.9823 204.56 -67.9829 204.556 -67.9776C203.554 -67.4515 202.56 -66.9196 201.591 -66.3918C201.587 -66.3865 201.572 -66.3817 201.565 -66.3794C200.596 -65.8516 199.645 -65.3256 198.731 -64.8114C198.727 -64.8061 198.719 -64.8038 198.712 -64.8014C197.798 -64.2872 196.91 -63.7855 196.062 -63.2926C196.05 -63.2849 196.043 -63.2826 196.032 -63.2749C195.47 -62.9516 194.923 -62.6331 194.395 -62.3246C194.131 -62.1704 193.874 -62.0185 193.621 -61.8719C193.61 -61.8643 193.599 -61.8566 193.584 -61.8519C193.082 -61.5558 192.598 -61.2698 192.14 -60.9962C191.909 -60.8567 191.69 -60.7249 191.474 -60.5985C191.463 -60.5908 191.452 -60.5831 191.437 -60.5784C191.016 -60.3249 190.618 -60.0867 190.242 -59.8557C190.223 -59.8456 190.208 -59.8326 190.193 -59.8279C190.015 -59.7215 189.847 -59.6146 189.679 -59.5159C189.657 -59.5005 189.638 -59.4905 189.612 -59.4781C189.277 -59.2724 188.964 -59.0822 188.681 -58.9096C188.67 -58.9019 188.659 -58.8943 188.644 -58.8895C188.503 -58.8033 188.372 -58.7247 188.245 -58.6431C188.234 -58.6354 188.223 -58.6278 188.216 -58.6254C187.974 -58.4783 187.757 -58.3435 187.574 -58.2236C187.556 -58.2135 187.541 -58.2005 187.522 -58.1905C187.436 -58.1344 187.358 -58.0889 187.288 -58.0457C187.276 -58.038 187.265 -58.0304 187.247 -58.0203C186.945 -57.8295 186.781 -57.7278 186.781 -57.7278C186.781 -57.7278 186.763 -57.7426 186.732 -57.7691C186.711 -57.7867 186.694 -57.8015 186.676 -57.8162C186.673 -57.8192 186.666 -57.8251 186.662 -57.828C186.638 -57.8486 186.613 -57.8693 186.586 -57.8928C186.582 -57.8958 186.575 -57.9017 186.572 -57.9046C186.547 -57.9252 186.516 -57.9518 186.488 -57.9753C186.481 -57.9812 186.474 -57.9871 186.464 -57.996C186.429 -58.0254 186.391 -58.0578 186.349 -58.0932C186.342 -58.0991 186.335 -58.105 186.328 -58.1109C186.29 -58.1433 186.248 -58.1786 186.206 -58.214C186.196 -58.2228 186.189 -58.2287 186.178 -58.2376C186.13 -58.2788 186.081 -58.3201 186.033 -58.3696C186.022 -58.3784 186.008 -58.3902 185.998 -58.3991C185.953 -58.4374 185.904 -58.4786 185.859 -58.5335C185.849 -58.5423 185.839 -58.5511 185.828 -58.56C185.769 -58.6101 185.718 -58.6708 185.655 -58.7238C185.641 -58.7356 185.627 -58.7474 185.61 -58.7621C185.554 -58.8093 185.503 -58.87 185.447 -58.9254C185.437 -58.9342 185.426 -58.9431 185.416 -58.9519C185.35 -59.0162 185.288 -59.0857 185.223 -59.15C185.205 -59.1647 185.191 -59.1765 185.178 -59.1965C185.119 -59.2631 185.057 -59.3244 184.995 -59.394C184.985 -59.4028 184.974 -59.4117 184.964 -59.4205C184.895 -59.496 184.826 -59.5714 184.758 -59.6551C184.74 -59.6699 184.723 -59.6929 184.71 -59.7129C184.638 -59.7913 184.569 -59.875 184.497 -59.9617C184.418 -60.0542 184.343 -60.1438 184.268 -60.2417C184.247 -60.2594 184.234 -60.2877 184.213 -60.3054C184.141 -60.4003 184.063 -60.4928 183.988 -60.5907C183.984 -60.5936 183.977 -60.5995 183.974 -60.6025C183.902 -60.6974 183.827 -60.7953 183.756 -60.8902C183.739 -60.9132 183.722 -60.9362 183.701 -60.9621C183.626 -61.0682 183.552 -61.1744 183.474 -61.2834C183.463 -61.2923 183.457 -61.3064 183.454 -61.3176C183.382 -61.4208 183.315 -61.521 183.248 -61.6295C183.23 -61.6525 183.217 -61.6808 183.2 -61.7038C183.126 -61.8182 183.052 -61.9326 182.978 -62.0553C182.964 -62.0753 182.954 -62.0924 182.941 -62.1125C182.877 -62.218 182.813 -62.3235 182.746 -62.432C182.733 -62.4603 182.712 -62.4863 182.699 -62.5146C182.625 -62.6372 182.555 -62.7652 182.485 -62.8931C182.476 -62.9185 182.459 -62.9415 182.449 -62.9669C182.386 -63.0807 182.33 -63.1968 182.266 -63.3107C182.253 -63.339 182.24 -63.3673 182.223 -63.3903C182.157 -63.5235 182.087 -63.6597 182.025 -63.7983C182.012 -63.8266 181.999 -63.8549 181.985 -63.8833C181.93 -64.0077 181.874 -64.1321 181.815 -64.2595C181.805 -64.2849 181.796 -64.3102 181.782 -64.3385C181.721 -64.4854 181.662 -64.6293 181.604 -64.7814C181.591 -64.818 181.578 -64.8463 181.566 -64.8829C181.514 -65.0209 181.463 -65.1589 181.411 -65.2969C181.405 -65.3193 181.395 -65.3364 181.389 -65.3588C181.335 -65.5163 181.284 -65.6708 181.234 -65.8336C181.221 -65.8702 181.208 -65.9067 181.199 -65.9486C181.152 -66.1002 181.109 -66.2488 181.065 -66.4057C181.059 -66.4199 181.059 -66.4364 181.053 -66.4506C181.01 -66.6157 180.964 -66.7838 180.925 -66.9543C180.916 -66.9962 180.907 -67.038 180.898 -67.0799C180.859 -67.2504 180.82 -67.4291 180.785 -67.6049L194.794 -78.8705C194.794 -78.8705 266.131 -115.54 250.021 -75.7376C233.91 -35.9354 130.289 59.0116 81.6325 129.613C73.4601 141.475 65.4421 153.52 58.1015 165.932C50.7806 178.309 39.661 196.47 40.9433 209.716C42.7377 228.248 65.1547 218.476 77.9446 211.923C88.2694 206.632 98.5206 200.669 108.705 194.513C121.399 186.84 134.054 178.85 146.573 170.427C146.573 170.427 63.5911 241.8 37.6329 236.73C11.6746 231.661 24.9748 186.354 52.9913 137.55C81.0117 88.741 164.527 32.3941 195.764 -16.414L195.779 -16.4187Z" fill="url(#paint4_radial_201_1598)"/>
</g>
</g>
<path d="M228.395 141.294C228.395 141.294 232.31 159.9 251.235 168.248L193.715 203.685L222.029 171.888C222.029 171.888 210.742 164.031 211.074 151.16C211.399 138.296 228.387 141.288 228.387 141.288L228.395 141.294Z" fill="url(#paint5_radial_201_1598)"/>
<path style="mix-blend-mode:screen" d="M194.251 203.086L243.457 167.354C227.102 158.483 225.439 143.49 225.439 143.49L225.33 141.014C227.145 141.078 228.395 141.294 228.395 141.294C228.395 141.294 232.31 159.9 251.235 168.248L193.715 203.685L194.246 203.094L194.251 203.086Z" fill="url(#paint6_radial_201_1598)"/>
<path style="mix-blend-mode:multiply" d="M221.935 171.813C220.855 171.031 210.766 163.344 211.074 151.159C211.399 138.296 228.387 141.288 228.387 141.288C228.387 141.288 232.302 159.894 251.226 168.242L243.449 167.348L221.922 171.816L221.935 171.813Z" fill="url(#paint7_radial_201_1598)"/>
<path style="mix-blend-mode:screen" d="M243.83 167.909C245.773 168.247 247.73 168.547 249.683 168.869L249.604 168.52C247.579 169.662 245.587 170.862 243.582 172.029C241.579 173.21 239.565 174.372 237.59 175.583C233.623 177.994 229.618 180.356 225.668 182.814C221.726 185.277 217.748 187.669 213.84 190.19L207.968 193.942C206.021 195.219 204.068 196.469 202.141 197.77C204.177 196.647 206.182 195.48 208.205 194.324L214.224 190.8C218.244 188.471 222.188 186.022 226.183 183.641C230.169 181.254 234.091 178.766 238.052 176.327C240.027 175.116 241.985 173.858 243.946 172.614C245.899 171.365 247.877 170.132 249.81 168.857L250.266 168.562L249.739 168.513C247.775 168.315 245.808 168.104 243.836 167.936L243.83 167.909Z" fill="url(#paint8_radial_201_1598)"/>
<g style="mix-blend-mode:screen">
<path style="mix-blend-mode:multiply" d="M232.941 158.98L239.256 160.089C240.348 161.177 241.551 162.243 242.859 163.258C244.174 164.278 245.594 165.249 247.144 166.149L239.458 164.863C236.827 163.002 234.684 160.996 232.941 158.98Z" fill="url(#paint9_radial_201_1598)"/>
<path style="mix-blend-mode:multiply" d="M228.437 152.315C227.659 150.803 227.075 149.395 226.634 148.165L231.452 149.325C232.2 150.793 233.108 152.378 234.212 154.009L228.432 152.323L228.437 152.315Z" fill="url(#paint10_radial_201_1598)"/>
</g>
<path d="M210.024 117.066C210.024 117.066 193.269 108.098 190.547 87.5881L140.419 132.876L178.872 114.605C178.872 114.605 183.254 127.638 195.702 130.928C208.15 134.217 210.024 117.066 210.024 117.066Z" fill="url(#paint11_radial_201_1598)"/>
<path style="mix-blend-mode:screen" d="M141.14 132.538L189.226 95.3079C193.164 113.5 207.083 119.292 207.083 119.292L209.428 120.086C209.875 118.321 210.011 117.066 210.011 117.066C210.011 117.066 193.256 108.098 190.534 87.5887L140.406 132.876L141.132 132.533L141.14 132.538Z" fill="url(#paint12_radial_201_1598)"/>
<path style="mix-blend-mode:multiply" d="M178.918 114.718C179.369 115.967 183.922 127.817 195.702 130.928C208.142 134.212 210.025 117.066 210.025 117.066C210.025 117.066 193.269 108.098 190.547 87.5885L189.231 95.3021L178.918 114.718Z" fill="url(#paint13_radial_201_1598)"/>
<path style="mix-blend-mode:screen" d="M188.789 94.7971C189.009 92.8355 189.265 90.8738 189.507 88.9149L189.822 89.0867C188.161 90.7067 186.456 92.2856 184.762 93.8837C183.073 95.4735 181.387 97.0771 179.673 98.6506C176.243 101.784 172.86 104.972 169.393 108.069C165.927 111.167 162.513 114.311 159 117.353L153.753 121.945C151.984 123.458 150.231 124.982 148.451 126.476C150.101 124.836 151.781 123.241 153.456 121.618L158.52 116.835C161.883 113.622 165.341 110.519 168.747 107.37C172.158 104.212 175.643 101.139 179.085 98.0255C180.801 96.4658 182.562 94.9472 184.304 93.404C186.056 91.8799 187.781 90.3257 189.559 88.8181L189.968 88.4683L189.874 88.9899C189.514 90.9302 189.161 92.876 188.779 94.8137L188.789 94.7971Z" fill="url(#paint14_radial_201_1598)"/>
<g style="mix-blend-mode:screen">
<path style="mix-blend-mode:multiply" d="M194.316 107.754L195.02 101.386C194.281 100.032 193.594 98.58 192.99 97.0397C192.377 95.4939 191.846 93.8594 191.408 92.1196L190.492 99.8584C191.536 102.901 192.867 105.526 194.311 107.762L194.316 107.754Z" fill="url(#paint15_radial_201_1598)"/>
<path style="mix-blend-mode:multiply" d="M199.446 113.935C200.685 115.107 201.865 116.063 202.926 116.82L203.169 111.875C201.969 110.752 200.698 109.428 199.446 107.914L199.446 113.935Z" fill="url(#paint16_radial_201_1598)"/>
</g>
<path d="M188.136 135.725L184.652 143.349C184.652 143.349 184.452 152.331 195.638 161.388L206.967 161.306L188.136 135.725Z" fill="url(#paint17_radial_201_1598)"/>
<path style="mix-blend-mode:screen" d="M191.063 157.02C191.615 157.646 192.221 158.279 192.882 158.918L203.818 157.702L203.923 157.187L189.724 137.882L185.178 146.677C185.361 147.353 185.603 148.096 185.933 148.926L190.848 140.813L193.863 146.375L187.474 152.088C187.888 152.813 188.366 153.551 188.912 154.319L196.601 150.558L199.611 154.685L191.07 157.01L191.063 157.02Z" fill="url(#paint18_radial_201_1598)"/>
<path style="mix-blend-mode:multiply" opacity="0.34" d="M191.14 150.337C191.14 150.337 191.976 152.041 195.5 156.318C197.627 158.9 200.983 160.481 203.31 161.34L206.961 161.318L188.129 135.737L184.645 143.361C184.645 143.361 184.559 147.642 188.17 153.275L191.133 150.347L191.14 150.337Z" fill="url(#paint19_radial_201_1598)"/>
<path d="M306.304 70.6808C306.304 70.6808 284.937 64.6665 259.222 73.0257C233.507 81.3849 188.132 135.709 188.132 135.709C188.132 135.709 189.102 156.984 206.964 161.29C206.964 161.29 263.853 148.15 287.556 117.436C309.973 88.3869 306.311 70.6706 306.311 70.6706L306.304 70.6808Z" fill="url(#paint20_radial_201_1598)"/>
<path style="mix-blend-mode:multiply" opacity="0.45" d="M252.547 125.823C300.818 95.2833 306.305 70.6771 306.305 70.6771C306.305 70.6771 284.938 64.6628 259.223 73.022C233.508 81.3812 188.133 135.705 188.133 135.705C188.133 135.705 188.708 148.104 196.93 155.895C210.045 150.169 228.912 140.765 252.543 125.806L252.547 125.823Z" fill="url(#paint21_radial_201_1598)"/>
<path style="mix-blend-mode:multiply" opacity="0.45" d="M240.484 105.426C274.033 77.7732 297.468 75.9618 306.402 76.5684C306.721 72.7326 306.306 70.6777 306.306 70.6777C306.306 70.6777 284.938 64.6634 259.224 73.0226C233.509 81.3818 188.134 135.706 188.134 135.706C188.134 135.706 188.464 142.861 192.231 149.721C202.016 139.379 217.519 124.344 240.491 105.416L240.484 105.426Z" fill="url(#paint22_radial_201_1598)"/>
<path style="mix-blend-mode:multiply" opacity="0.45" d="M268.104 72.3134C268.104 72.3134 267.872 77.1706 269.628 81.0719C269.628 81.0719 253.137 86.4017 228.764 108.19C204.392 129.979 200.153 135.398 200.153 135.398L198.106 127.434C198.106 127.434 243.412 74.5248 268.104 72.3134Z" fill="url(#paint23_radial_201_1598)"/>
<path style="mix-blend-mode:screen" opacity="0.45" d="M290.88 109.343C290.88 109.343 287.003 107.844 284.593 104.782C284.593 104.782 272.807 118.452 249.399 132.827C226.001 147.21 212.304 151.399 212.304 151.399C212.304 151.399 213.737 153.394 219.666 155.616C219.666 155.616 274.018 138.162 290.873 109.353L290.88 109.343Z" fill="url(#paint24_radial_201_1598)"/>
<path d="M303.871 70.3033L320.901 61.3184L306.228 73.3437L303.871 70.3033Z" fill="url(#paint25_radial_201_1598)"/>
<path style="mix-blend-mode:multiply" d="M303.871 70.3032L320.9 61.3184L305.053 71.8117L303.871 70.3032Z" fill="url(#paint26_radial_201_1598)"/>
<path style="mix-blend-mode:multiply" d="M299.794 69.4337C293.299 68.5182 282.463 67.8283 269.755 70.3167C270.612 80.1992 274.821 98.9037 293.829 108.593C308.636 85.7385 306.502 71.759 306.32 70.7483C305.75 70.5927 303.432 69.9873 299.794 69.4337Z" fill="url(#paint27_radial_201_1598)"/>
<path d="M294.554 107.666C307.75 86.6137 306.305 70.6776 306.305 70.6776C306.305 70.6776 291.185 66.4229 271.065 70.052C271.344 78.6622 274.232 98.9075 294.554 107.666Z" fill="url(#paint28_radial_201_1598)"/>
<path style="mix-blend-mode:multiply" d="M273.478 84.0966C289.177 76.8868 300.384 76.2142 306.097 76.5422C306.498 72.8041 306.306 70.6768 306.306 70.6768C306.306 70.6768 306.296 70.6701 306.269 70.6668C306.259 70.6601 306.221 70.6502 306.194 70.647C306.174 70.6336 306.147 70.6303 306.12 70.6271C306.089 70.607 306.045 70.6073 305.998 70.5906C305.96 70.5807 305.913 70.5641 305.859 70.5576C305.811 70.541 305.747 70.5278 305.683 70.5147C305.628 70.5082 305.571 70.4849 305.506 70.4718C305.432 70.4519 305.357 70.432 305.276 70.4223C305.212 70.4092 305.137 70.3893 305.062 70.3695C304.859 70.3233 304.619 70.2672 304.361 70.2146C304.324 70.2047 304.286 70.1948 304.242 70.195C304.114 70.1687 303.985 70.1424 303.846 70.1094C303.755 70.0931 303.663 70.0767 303.561 70.0536C303.423 70.0206 303.277 69.9978 303.131 69.9749C303.03 69.9519 302.911 69.9323 302.803 69.9194C302.647 69.8899 302.481 69.8536 302.318 69.8343C302.21 69.8214 302.098 69.7916 301.98 69.772C301.797 69.7393 301.614 69.7065 301.424 69.684C301.316 69.6711 301.214 69.648 301.096 69.6284C300.384 69.5108 299.605 69.4072 298.762 69.2904C298.643 69.2708 298.535 69.2579 298.41 69.2485C298.166 69.2195 297.922 69.1905 297.678 69.1615C297.526 69.1489 297.38 69.1261 297.228 69.1134C296.967 69.0879 296.707 69.0624 296.446 69.0369C296.294 69.0242 296.141 69.0116 295.996 68.9888C295.718 68.9668 295.43 68.938 295.142 68.9093C295 68.9034 294.855 68.8806 294.712 68.8747C294.408 68.8494 294.103 68.8241 293.781 68.8024C293.727 68.7959 293.673 68.7895 293.622 68.7999C292.891 68.7569 292.133 68.7107 291.351 68.6781C291.253 68.672 291.138 68.6693 291.04 68.6631C290.711 68.6515 290.366 68.6434 290.038 68.6318C289.852 68.6262 289.676 68.6272 289.49 68.6215C289.161 68.61 288.826 68.6086 288.491 68.6072C288.288 68.605 288.095 68.6095 287.892 68.6074C287.557 68.606 287.206 68.6081 286.854 68.6102C286.651 68.608 286.441 68.616 286.238 68.6139C285.879 68.6262 285.517 68.6215 285.158 68.6338C284.993 68.6416 284.827 68.6494 284.651 68.6504C283.819 68.6723 282.963 68.7078 282.093 68.7638C281.999 68.7745 281.901 68.7683 281.806 68.779C281.43 68.7948 281.052 68.8377 280.669 68.8637C280.426 68.8786 280.193 68.9003 279.949 68.9153C279.584 68.9378 279.222 68.9772 278.85 69.0098C278.583 69.0385 278.322 69.057 278.055 69.0857C277.693 69.125 277.314 69.1679 276.942 69.2006C276.675 69.2293 276.391 69.2614 276.117 69.3002C275.739 69.3431 275.37 69.3927 274.985 69.4457C274.711 69.4846 274.42 69.5269 274.146 69.5658C273.145 69.7105 272.138 69.8654 271.121 70.0576C271.232 73.4171 271.747 78.5608 273.522 84.0964L273.478 84.0966Z" fill="url(#paint29_radial_201_1598)"/>
<path style="mix-blend-mode:multiply" d="M302.871 90.5014C307.003 78.5419 306.306 70.6786 306.306 70.6786C306.306 70.6786 299.134 68.6606 288.109 68.591C290.563 76.0919 294.986 84.1733 302.878 90.4912L302.871 90.5014Z" fill="url(#paint30_radial_201_1598)"/>
<path d="M289.508 68.6194C291.573 75.5575 295.608 83.252 303.398 88.948C306.953 77.865 306.318 70.6849 306.318 70.6849C306.318 70.6849 299.745 68.8426 289.518 68.6261L289.508 68.6194Z" fill="url(#paint31_radial_201_1598)"/>
<path style="mix-blend-mode:multiply" d="M306.205 70.6551C306.205 70.6551 306.12 70.6285 306.056 70.6153C306.036 70.6019 306.019 70.6054 305.992 70.6022C305.992 70.6022 305.981 70.5955 305.971 70.5888C305.887 70.5622 305.785 70.5391 305.673 70.5093C305.653 70.4959 305.619 70.5029 305.588 70.4828C305.46 70.4565 305.321 70.4235 305.171 70.3838C305.151 70.3703 305.107 70.3706 305.08 70.3674C305.06 70.354 305.016 70.3542 304.989 70.351C304.812 70.3081 304.619 70.2686 304.416 70.2224C304.213 70.1763 303.992 70.1336 303.772 70.0909C303.752 70.0775 303.708 70.0778 303.681 70.0746C303.413 70.0152 303.128 69.9594 302.827 69.9071C302.807 69.8936 302.773 69.9006 302.746 69.8974C302.461 69.8416 302.17 69.7959 301.858 69.7369C301.804 69.7304 301.75 69.724 301.685 69.7108C301.438 69.6649 301.167 69.6327 300.903 69.5903C300.703 69.561 300.493 69.5251 300.293 69.4958C300.104 69.4733 299.911 69.4338 299.721 69.4112C299.504 69.3855 299.277 69.353 299.05 69.3205C298.725 69.2818 298.407 69.233 298.065 69.1978C298.001 69.1846 297.94 69.1884 297.875 69.1752C297.442 69.1237 297.002 69.0823 296.541 69.0275C296.521 69.0141 296.497 69.0278 296.47 69.0246C296.47 69.0246 296.45 69.0112 296.443 69.0214C295.966 68.9701 295.465 68.9324 294.953 68.8881C294.909 68.8884 294.855 68.8819 294.811 68.8822C294.381 68.8475 293.924 68.8097 293.471 68.7887C292.794 68.7521 292.096 68.7021 291.379 68.6827C291.379 68.6827 291.379 68.6827 291.369 68.676C290.8 68.6523 290.215 68.6321 289.622 68.6221C289.602 68.6087 289.578 68.6224 289.551 68.6192C290.415 71.5241 291.634 74.5759 293.33 77.5469C298.924 76.4815 303.238 76.3847 306.135 76.5535C306.158 76.3639 306.181 76.1742 306.196 75.9948C306.206 75.8256 306.232 75.6528 306.241 75.4836C306.256 75.2602 306.272 75.0367 306.291 74.8302C306.307 74.6508 306.316 74.4815 306.325 74.3123C306.331 74.1261 306.34 73.9569 306.349 73.7876C306.358 73.6184 306.367 73.4491 306.37 73.2901C306.376 73.1479 306.375 73.016 306.374 72.884C306.377 72.7249 306.379 72.5659 306.375 72.417C306.371 72.3121 306.377 72.214 306.383 72.1158C306.379 71.9669 306.378 71.835 306.381 71.7199C306.384 71.6488 306.376 71.571 306.373 71.5102C306.365 71.3884 306.361 71.2835 306.367 71.1853C306.367 71.1413 306.367 71.0974 306.36 71.0636C306.356 70.9587 306.349 70.8809 306.345 70.82C306.345 70.82 306.348 70.7929 306.338 70.7862C306.334 70.7254 306.327 70.6916 306.327 70.6916C306.327 70.6916 306.307 70.6781 306.263 70.6784C306.253 70.6717 306.242 70.665 306.226 70.6685L306.205 70.6551Z" fill="url(#paint32_radial_201_1598)"/>
<path style="mix-blend-mode:multiply" d="M306.119 70.6304C306.119 70.6304 306.034 70.6038 305.99 70.6041C305.953 70.5942 305.905 70.5775 305.861 70.5778C305.807 70.5713 305.749 70.548 305.685 70.5348C305.637 70.5182 305.573 70.505 305.519 70.4986C305.444 70.4787 305.37 70.4589 305.278 70.4425C305.224 70.4361 305.167 70.4127 305.102 70.3996C304.76 70.3204 304.336 70.2315 303.849 70.1296C303.757 70.1132 303.682 70.0933 303.591 70.077C303.452 70.044 303.306 70.0211 303.151 69.9916C303.049 69.9685 302.941 69.9556 302.839 69.9326C302.683 69.903 302.51 69.877 302.327 69.8443C302.226 69.8212 302.117 69.8083 301.999 69.7887C301.816 69.7559 301.633 69.7232 301.433 69.6939C301.325 69.681 301.223 69.6579 301.115 69.645C300.397 69.5377 299.614 69.4171 298.764 69.3105C298.656 69.2977 298.538 69.2781 298.429 69.2652C298.185 69.2362 297.931 69.2005 297.681 69.1816C297.535 69.1588 297.393 69.1529 297.247 69.1301C296.987 69.1046 296.716 69.0723 296.455 69.0468C296.303 69.0342 296.167 69.0181 296.015 69.0055C295.737 68.9834 295.45 68.9547 295.162 68.926C295.02 68.92 294.867 68.9074 294.722 68.8846C294.417 68.8593 294.112 68.8341 293.791 68.8123C293.736 68.8059 293.682 68.7994 293.632 68.8099C292.89 68.7602 292.132 68.7139 291.343 68.6916C291.245 68.6854 291.147 68.6792 291.049 68.673C290.721 68.6615 290.375 68.6533 290.03 68.6452C289.854 68.6463 289.675 68.6304 289.499 68.6315C289.171 68.6199 288.836 68.6185 288.49 68.6104C288.287 68.6083 288.094 68.6128 287.891 68.6106C287.556 68.6092 287.204 68.6113 286.853 68.6134C286.65 68.6113 286.44 68.6193 286.237 68.6171C285.878 68.6294 285.516 68.6248 285.147 68.6304C284.981 68.6381 284.816 68.6459 284.657 68.6435C283.807 68.6688 282.935 68.7079 282.048 68.7673C281.971 68.7745 281.883 68.7751 281.805 68.7823C281.423 68.8083 281.04 68.8342 280.658 68.8602C280.425 68.8819 280.188 68.8867 279.955 68.9084C279.583 68.941 279.211 68.9737 278.839 69.0064C278.571 69.0351 278.311 69.0535 278.044 69.0822C277.672 69.1149 277.303 69.1645 276.931 69.1971C276.664 69.2258 276.38 69.2579 276.106 69.2968C275.727 69.3396 275.359 69.3892 274.973 69.4423C274.7 69.4811 274.409 69.5235 274.128 69.5725C273.127 69.7172 272.13 69.8788 271.103 70.0643C271.323 76.9863 273.24 91.407 284.524 101.359C303.54 83.1592 306.332 70.6832 306.332 70.6832C306.332 70.6832 306.285 70.6666 306.193 70.6502C306.183 70.6435 306.163 70.6301 306.129 70.6371L306.119 70.6304Z" fill="url(#paint33_radial_201_1598)"/>
<path style="mix-blend-mode:multiply" d="M293.554 72.7908C296.553 72.3398 299.972 71.9608 303.889 71.7344C303.889 71.7344 299.298 70.7432 292.592 70.4347C292.905 71.2246 293.224 72.0044 293.554 72.7908Z" fill="url(#paint34_radial_201_1598)"/>
<path style="mix-blend-mode:multiply" d="M289.254 73.5534C288.814 72.4901 288.392 71.4233 287.986 70.353C283.415 70.3972 278.26 70.8171 273.053 72.0054C273.053 72.0054 272.573 75.4429 274.248 79.5105C274.248 79.5105 277.607 75.9374 289.254 73.5534Z" fill="url(#paint35_radial_201_1598)"/>
<path style="mix-blend-mode:screen" d="M294.066 105.478C297.387 100.011 299.615 95.1382 301.15 91.0515C300.435 90.2741 299.72 89.4967 299.011 88.7091C292.914 99.0391 287.868 101.181 287.868 101.181C291.029 105.189 294.066 105.478 294.066 105.478Z" fill="url(#paint36_radial_201_1598)"/>
<path style="mix-blend-mode:screen" d="M302.705 86.4066C304.317 80.8949 304.409 77.6695 304.409 77.6695C303.339 80.295 302.253 82.633 301.186 84.7204C301.69 85.2859 302.201 85.8412 302.705 86.4066Z" fill="url(#paint37_radial_201_1598)"/>
<g style="mix-blend-mode:multiply">
<path d="M234.665 97.8037C227.964 107.986 230.787 121.672 240.969 128.373C251.151 135.074 264.837 132.252 271.538 122.069C278.239 111.887 275.417 98.2008 265.234 91.5C255.052 84.7992 241.366 87.6215 234.665 97.8037Z" fill="url(#paint38_radial_201_1598)"/>
<path d="M238.864 100.567C233.689 108.43 235.869 118.999 243.732 124.174C251.595 129.349 262.164 127.169 267.339 119.306C272.514 111.443 270.334 100.873 262.471 95.6988C254.608 90.5241 244.038 92.7036 238.864 100.567Z" fill="url(#paint39_radial_201_1598)"/>
</g>
<path style="mix-blend-mode:screen" d="M236.903 98.665C230.202 108.847 233.024 122.534 243.207 129.234C253.389 135.935 267.075 133.113 273.776 122.931C280.477 112.748 277.654 99.0621 267.472 92.3613C257.29 85.6606 243.604 88.4828 236.903 98.665Z" fill="url(#paint40_radial_201_1598)"/>
<path d="M238.966 127.089C248.024 135.246 261.979 134.517 270.136 125.46C278.294 116.403 277.565 102.448 268.507 94.29C259.45 86.1325 245.495 86.8618 237.337 95.919C229.18 104.976 229.909 118.931 238.966 127.089Z" fill="url(#paint41_radial_201_1598)"/>
<path style="mix-blend-mode:screen" d="M258.876 89.2455C261.313 89.8265 263.691 90.8072 265.892 92.2559C276.073 98.9561 278.896 112.644 272.196 122.825C266.669 131.223 256.399 134.6 247.263 131.772C256.036 133.865 265.561 130.421 270.806 122.451C277.506 112.27 274.684 98.582 264.502 91.8818C262.719 90.7081 260.822 89.8396 258.876 89.2455Z" fill="url(#paint42_radial_201_1598)"/>
<path d="M241.627 124.17C249.073 130.875 260.544 130.273 267.248 122.827C273.953 115.381 273.351 103.91 265.905 97.2054C258.459 90.5012 246.988 91.1027 240.283 98.5489C233.579 105.995 234.181 117.466 241.627 124.17Z" fill="url(#paint43_radial_201_1598)"/>
<path d="M236.893 108.494C235.668 117.827 242.24 126.386 251.574 127.611C260.907 128.836 269.466 122.263 270.691 112.93C271.916 103.597 265.343 95.0381 256.01 93.8129C246.677 92.5878 238.118 99.1606 236.893 108.494Z" fill="url(#paint44_linear_201_1598)"/>
<path style="mix-blend-mode:screen" opacity="0.25" d="M262.093 122.664C259.696 123.088 256.76 122.733 255.002 120.611C253.113 118.332 253.46 115.098 253.216 112.338C252.7 106.288 252.042 102.16 247.908 97.7011C247.829 97.6204 247.758 97.5295 247.713 97.4417C245.297 98.539 243.142 100.305 241.579 102.679C237.146 109.416 239.01 118.457 245.747 122.89C250.873 126.263 257.341 125.978 262.096 122.681L262.093 122.664Z" fill="url(#paint45_linear_201_1598)"/>
<path style="mix-blend-mode:screen" opacity="0.25" d="M254.565 106.404C255.095 110.258 253.664 114.764 255.519 118.38C257.317 121.885 264.239 122.176 266.351 118.965C270.925 112.015 268.998 102.67 262.048 98.0959C258.083 95.4869 253.35 95.0007 249.162 96.3488C252.044 99.0049 253.995 102.232 254.565 106.404Z" fill="url(#paint46_linear_201_1598)"/>
<path style="mix-blend-mode:screen" d="M248.774 122.062C247.85 119.249 250.987 116.946 252.766 115.108C254.821 112.985 256.178 110.212 256.608 107.296C256.861 105.579 256.85 103.687 257.955 102.341C261.409 98.114 266.356 102.159 267.648 106.032C269.068 110.267 268.45 115.001 265.995 118.732C264.157 121.524 261.23 123.731 257.843 124.438C255.049 125.023 249.88 125.419 248.774 122.062Z" fill="url(#paint47_linear_201_1598)"/>
<path style="mix-blend-mode:screen" d="M247.959 124.766C241.024 120.057 239.117 110.637 243.745 103.605C247.944 97.2253 256.075 95.0112 262.837 98.0299C262.776 97.9896 262.715 97.9494 262.654 97.9091C255.561 93.2411 246.03 95.2064 241.362 102.3C236.694 109.393 238.659 118.924 245.752 123.592C246.466 124.061 247.196 124.439 247.952 124.777L247.959 124.766Z" fill="url(#paint48_linear_201_1598)"/>
<path style="mix-blend-mode:screen" d="M264.235 118.054C263.36 117.741 263.187 115.962 263.863 114.07C264.539 112.177 265.8 110.904 266.675 111.217C267.55 111.53 267.723 113.309 267.047 115.201C266.372 117.093 265.11 118.366 264.235 118.054Z" fill="url(#paint49_linear_201_1598)"/>
<path style="mix-blend-mode:screen" d="M261.125 121.424C260.781 121.125 261 120.305 261.621 119.604C262.243 118.903 263.023 118.584 263.367 118.883C263.71 119.182 263.492 120.002 262.87 120.703C262.248 121.404 261.468 121.723 261.125 121.424Z" fill="url(#paint50_linear_201_1598)"/>
<path style="mix-blend-mode:multiply" opacity="0.45" d="M268.802 99.2383C268.113 98.2881 269.493 97.0787 270.182 98.0288C273.41 102.49 274.947 107.766 274.53 113.261C274.439 114.442 272.611 114.335 272.695 113.163C273.082 108.16 271.747 103.308 268.802 99.2383ZM270.85 118.098C270.382 119.542 269.709 120.852 268.799 122.079C268.105 123.024 269.633 124.03 270.328 123.085C271.318 121.736 272.071 120.26 272.596 118.663C272.955 117.54 271.219 116.982 270.85 118.098ZM245.517 91.1003C235.716 96.0721 231.05 106.38 233.878 117.019C234.183 118.154 235.974 117.785 235.67 116.65C233.049 106.805 237.246 97.342 246.332 92.7467C247.384 92.2125 246.569 90.5661 245.517 91.1003ZM235.855 121.65C236.679 122.995 237.65 124.204 238.814 125.276C239.671 126.06 241.055 124.867 240.194 124.067C239.15 123.102 238.243 122.038 237.491 120.828C236.873 119.837 235.233 120.642 235.845 121.643L235.855 121.65Z" fill="url(#paint51_radial_201_1598)"/>
<path style="mix-blend-mode:screen" d="M219.566 157.741C200.865 150.137 198.007 135.506 196.089 126.591C191.158 132.109 188.134 135.727 188.134 135.727C188.134 135.727 189.103 157.002 206.965 161.308C206.965 161.308 211.96 160.155 219.566 157.741Z" fill="url(#paint52_radial_201_1598)"/>
<path d="M206.955 161.302C206.955 161.302 211.882 160.162 219.407 157.783C201.011 152.935 196.576 133.951 195.572 127.244C191.532 131.829 188.844 135.026 188.138 135.876C188.254 137.676 189.93 157.211 206.949 161.312L206.955 161.302Z" fill="url(#paint53_radial_201_1598)"/>
<path style="mix-blend-mode:multiply" d="M218.059 158.211C218.498 158.077 218.954 157.939 219.417 157.791C201.02 152.943 196.586 133.959 195.582 127.251C195.39 127.476 195.188 127.694 195.004 127.908C195.99 134.531 200.327 153.042 218.059 158.211Z" fill="url(#paint54_radial_201_1598)"/>
<path style="mix-blend-mode:multiply" d="M192.22 149.736C194.527 147.296 197.167 144.594 200.128 141.649C197.211 135.961 196.03 130.321 195.572 127.244C191.532 131.83 188.844 135.026 188.138 135.877C188.138 135.921 188.145 135.954 188.149 136.015C188.149 136.015 188.146 136.042 188.149 136.059C188.266 137.524 188.936 143.763 192.224 149.753L192.22 149.736Z" fill="url(#paint55_radial_201_1598)"/>
<path style="mix-blend-mode:multiply" d="M196.931 155.918C200.043 154.562 203.495 152.979 207.247 151.183C198.85 143.481 196.298 132.133 195.572 127.244C191.532 131.83 188.844 135.027 188.139 135.877C188.139 135.965 188.157 136.093 188.171 136.249C188.171 136.249 188.171 136.249 188.165 136.259C188.396 138.748 189.727 149.088 196.917 155.894L196.931 155.918Z" fill="url(#paint56_radial_201_1598)"/>
<path style="mix-blend-mode:multiply" d="M194.701 130.963C194.701 130.963 195.394 134.837 197.083 138.285L191.149 144.283C191.149 144.283 190.289 140.109 189.48 136.7L194.708 130.953L194.701 130.963Z" fill="url(#paint57_radial_201_1598)"/>
<path style="mix-blend-mode:screen" d="M213.914 157.674C213.914 157.674 210.207 156.871 207.264 153.575L200.492 156.786C200.492 156.786 202.74 159.318 207.685 160.016L213.921 157.664L213.914 157.674Z" fill="url(#paint58_radial_201_1598)"/>
<path style="mix-blend-mode:screen" d="M294.888 77.6401C295.023 77.5683 296.569 80.3676 298.668 82.7272C299.697 83.9156 300.83 85.012 301.711 85.7816C301.936 85.9731 302.14 86.1513 302.32 86.2991C302.415 86.3764 302.5 86.4469 302.575 86.5108C302.616 86.5376 302.596 86.5242 302.606 86.5309C302.606 86.5309 302.606 86.5309 302.616 86.5376C302.653 86.4595 302.676 86.3579 302.709 86.2629C302.786 86.0358 302.872 85.7713 302.965 85.4967C303.331 84.3643 303.785 82.8524 304.199 81.3136C305.02 78.2463 305.559 75.0962 305.715 75.1257C305.878 75.145 305.623 78.351 304.995 81.5018C304.687 83.0805 304.314 84.646 303.989 85.8053C303.909 86.1035 303.83 86.3578 303.774 86.5983C303.671 86.9543 303.574 87.256 303.495 87.5103C303.389 87.8493 303.309 88.1036 303.249 88.2833C303.222 88.368 303.203 88.4426 303.186 88.49C303.145 88.4632 303.125 88.4498 303.125 88.4498C303.125 88.4498 302.815 88.1877 302.275 87.7443C302.156 87.6367 302.009 87.5259 301.85 87.3915C301.765 87.3209 301.686 87.2402 301.591 87.1629C301.407 86.9982 301.2 86.8032 300.982 86.6015C300.104 85.7607 298.994 84.5627 298.015 83.2759C296.023 80.7093 294.723 77.7359 294.868 77.6707L294.888 77.6401ZM281.453 97.2789C282.506 98.4976 284.004 100.038 285.613 101.477C287.222 102.916 288.936 104.219 290.271 105.141C291.617 106.07 292.493 106.603 292.554 106.644C292.554 106.644 292.625 106.69 292.815 106.757C293.032 106.827 293.452 106.899 293.833 106.609C294.24 106.278 294.293 105.977 294.457 105.705C294.607 105.41 294.771 105.094 294.952 104.731C295.677 103.295 296.641 101.388 297.604 99.4802C298.547 97.5594 299.5 95.6452 300.208 94.213C300.897 92.7673 301.338 91.7868 301.266 91.7398C301.205 91.6996 300.625 92.6032 299.811 93.9954C299.014 95.3841 297.953 97.2414 296.891 99.0987C295.85 100.969 294.798 102.833 294.022 104.236C293.821 104.585 293.65 104.911 293.496 105.19C293.346 105.485 293.185 105.73 293.201 105.682C293.201 105.682 293.201 105.682 293.191 105.675C293.14 105.642 293.103 105.632 293.103 105.632C293.164 105.672 292.196 105.123 290.878 104.285C289.54 103.433 287.8 102.215 286.151 100.882C284.495 99.5584 282.93 98.1195 281.783 96.9995C280.636 95.8795 279.897 95.1158 279.837 95.1635C279.776 95.2112 280.404 96.0771 281.467 97.3025L281.453 97.2789ZM224.36 153.341C225.421 153.017 226.941 152.527 228.754 151.924C232.371 150.712 237.193 149.021 241.874 146.99C246.579 144.989 251.069 142.54 254.384 140.632C257.699 138.724 259.863 137.388 259.863 137.388C259.863 137.388 262.028 136.052 265.243 133.962C268.442 131.875 272.672 128.977 276.604 125.709C280.547 122.447 284.129 118.757 286.439 115.691C287.034 114.943 287.547 114.23 287.976 113.577C288.426 112.938 288.795 112.378 289.083 111.896C289.652 110.941 289.967 110.374 289.93 110.364C289.899 110.344 289.52 110.854 288.889 111.768C288.581 112.237 288.171 112.771 287.708 113.386C287.255 114.008 286.717 114.691 286.092 115.419C283.697 118.371 280.064 121.939 276.096 125.082C272.133 128.243 267.892 131.046 264.673 133.075C261.453 135.104 259.265 136.41 259.265 136.41C259.265 136.41 257.114 137.77 253.844 139.721C250.573 141.673 246.155 144.17 241.538 146.258C236.925 148.363 232.171 150.171 228.599 151.516C226.817 152.183 225.321 152.747 224.285 153.145C223.248 153.544 222.654 153.781 222.671 153.822C222.688 153.862 223.296 153.693 224.364 153.358L224.36 153.341ZM195.83 152.574C196.252 153.597 197.072 154.837 198.123 155.88C199.158 156.926 200.388 157.765 201.332 158.328C202.283 158.88 202.945 159.184 202.945 159.184C202.945 159.184 203.613 159.478 204.634 159.858C205.156 160.041 205.706 160.271 206.438 160.446C206.79 160.532 207.237 160.563 207.643 160.479C208.048 160.396 208.406 160.251 208.737 160.104C211.369 158.989 213.985 157.833 213.927 157.677C213.868 157.522 211.146 158.418 208.448 159.344C207.759 159.592 207.228 159.71 206.669 159.517C206.113 159.341 205.509 159.061 205.021 158.871C204.054 158.454 203.426 158.143 203.426 158.143C203.426 158.143 202.781 157.879 201.845 157.394C200.918 156.916 199.722 156.202 198.678 155.281C197.627 154.37 196.751 153.283 196.228 152.369C195.698 151.465 195.477 150.779 195.386 150.807C195.318 150.821 195.401 151.562 195.83 152.574Z" fill="url(#paint59_radial_201_1598)"/>
<defs>
<radialGradient id="paint0_radial_201_1598" cx="0" cy="0" r="1" gradientUnits="userSpaceOnUse" gradientTransform="translate(128.394 68.0665) rotate(126.854) scale(259.813 189.284)">
<stop offset="0.22" stop-color="#DE007B"/>
<stop offset="0.92" stop-color="#FFE245"/>
</radialGradient>
<radialGradient id="paint1_radial_201_1598" cx="0" cy="0" r="1" gradientUnits="userSpaceOnUse" gradientTransform="translate(178.458 58.6851) rotate(126.895) scale(150.48 110.481)">
<stop offset="0.22" stop-color="#DE007B"/>
<stop offset="0.92" stop-color="#FFE245"/>
</radialGradient>
<radialGradient id="paint2_radial_201_1598" cx="0" cy="0" r="1" gradientUnits="userSpaceOnUse" gradientTransform="translate(147.923 96.1377) rotate(126.848) scale(149.301 108.623)">
<stop offset="0.22" stop-color="#DE007B"/>
<stop offset="0.92" stop-color="#FFE245"/>
</radialGradient>
<radialGradient id="paint3_radial_201_1598" cx="0" cy="0" r="1" gradientUnits="userSpaceOnUse" gradientTransform="translate(101.978 113.015) rotate(126.04) scale(204.886 142.651)">
<stop offset="0.22" stop-color="#DE007B"/>
<stop offset="0.92" stop-color="#FFE245"/>
</radialGradient>
<radialGradient id="paint4_radial_201_1598" cx="0" cy="0" r="1" gradientUnits="userSpaceOnUse" gradientTransform="translate(61.8706 229.256) rotate(126.047) scale(340.535 235.648)">
<stop offset="0.22" stop-color="#DE007B"/>
<stop offset="0.92" stop-color="#FFE245"/>
</radialGradient>
<radialGradient id="paint5_radial_201_1598" cx="0" cy="0" r="1" gradientUnits="userSpaceOnUse" gradientTransform="translate(244.71 181.907) rotate(110.188) scale(46.5855 49.0374)">
<stop stop-color="#E0A326"/>
<stop offset="1" stop-color="#FFFF63"/>
</radialGradient>
<radialGradient id="paint6_radial_201_1598" cx="0" cy="0" r="1" gradientUnits="userSpaceOnUse" gradientTransform="translate(235.636 121.882) rotate(162.918) scale(76.3315 76.3315)">
<stop stop-color="#FFFF63"/>
<stop offset="1" stop-color="#E0A326"/>
</radialGradient>
<radialGradient id="paint7_radial_201_1598" cx="0" cy="0" r="1" gradientUnits="userSpaceOnUse" gradientTransform="translate(226.479 169.275) rotate(162.918) scale(15.4174 15.4174)">
<stop stop-color="#FFFF63"/>
<stop offset="1" stop-color="#E0A326"/>
</radialGradient>
<radialGradient id="paint8_radial_201_1598" cx="0" cy="0" r="1" gradientUnits="userSpaceOnUse" gradientTransform="translate(226.205 181.818) rotate(162.918) scale(20.5863 20.5863)">
<stop stop-color="#FFFF63"/>
<stop offset="1" stop-color="#E0A326"/>
</radialGradient>
<radialGradient id="paint9_radial_201_1598" cx="0" cy="0" r="1" gradientUnits="userSpaceOnUse" gradientTransform="translate(240.117 162.517) rotate(162.918) scale(5.71566 5.71566)">
<stop stop-color="#FFFF63"/>
<stop offset="1" stop-color="#E0A326"/>
</radialGradient>
<radialGradient id="paint10_radial_201_1598" cx="0" cy="0" r="1" gradientUnits="userSpaceOnUse" gradientTransform="translate(230.458 151.05) rotate(162.918) scale(3.4294)">
<stop stop-color="#FFFF63"/>
<stop offset="1" stop-color="#E0A326"/>
</radialGradient>
<radialGradient id="paint11_radial_201_1598" cx="0" cy="0" r="1" gradientUnits="userSpaceOnUse" gradientTransform="translate(175.365 89.8076) rotate(176.078) scale(46.5856 49.0374)">
<stop stop-color="#E0A326"/>
<stop offset="1" stop-color="#FFFF63"/>
</radialGradient>
<radialGradient id="paint12_radial_201_1598" cx="0" cy="0" r="1" gradientUnits="userSpaceOnUse" gradientTransform="translate(230.666 115.534) rotate(123.348) scale(76.3315 76.3315)">
<stop stop-color="#FFFF63"/>
<stop offset="1" stop-color="#E0A326"/>
</radialGradient>
<radialGradient id="paint13_radial_201_1598" cx="0" cy="0" r="1" gradientUnits="userSpaceOnUse" gradientTransform="translate(182.604 111.051) rotate(123.348) scale(15.4174 15.4174)">
<stop stop-color="#FFFF63"/>
<stop offset="1" stop-color="#E0A326"/>
</radialGradient>
<radialGradient id="paint14_radial_201_1598" cx="0" cy="0" r="1" gradientUnits="userSpaceOnUse" gradientTransform="translate(170.481 107.809) rotate(123.348) scale(20.5863 20.5863)">
<stop stop-color="#FFFF63"/>
<stop offset="1" stop-color="#E0A326"/>
</radialGradient>
<radialGradient id="paint15_radial_201_1598" cx="0" cy="0" r="1" gradientUnits="userSpaceOnUse" gradientTransform="translate(192.91 99.855) rotate(123.348) scale(5.71567 5.71566)">
<stop stop-color="#FFFF63"/>
<stop offset="1" stop-color="#E0A326"/>
</radialGradient>
<radialGradient id="paint16_radial_201_1598" cx="0" cy="0" r="1" gradientUnits="userSpaceOnUse" gradientTransform="translate(201.212 112.336) rotate(123.348) scale(3.42942 3.4294)">
<stop stop-color="#FFFF63"/>
<stop offset="1" stop-color="#E0A326"/>
</radialGradient>
<radialGradient id="paint17_radial_201_1598" cx="0" cy="0" r="1" gradientUnits="userSpaceOnUse" gradientTransform="translate(190.499 149.103) rotate(115.828) scale(18.1786)">
<stop stop-color="#B30058"/>
<stop offset="1" stop-color="#5C2D7D"/>
</radialGradient>
<radialGradient id="paint18_radial_201_1598" cx="0" cy="0" r="1" gradientUnits="userSpaceOnUse" gradientTransform="translate(226.468 168.825) rotate(123.348) scale(49.0214 49.0213)">
<stop stop-color="#B30058"/>
<stop offset="1" stop-color="#5C2D7D"/>
</radialGradient>
<radialGradient id="paint19_radial_201_1598" cx="0" cy="0" r="1" gradientUnits="userSpaceOnUse" gradientTransform="translate(218.703 163.072) rotate(123.348) scale(41.5303 41.5303)">
<stop stop-color="#B30058"/>
<stop offset="1" stop-color="#5C2D7D"/>
</radialGradient>
<radialGradient id="paint20_radial_201_1598" cx="0" cy="0" r="1" gradientUnits="userSpaceOnUse" gradientTransform="translate(287.045 122.898) rotate(115.828) scale(88.2579 88.2579)">
<stop stop-color="#8DDFEC"/>
<stop offset="0.94" stop-color="#5E8BEA"/>
</radialGradient>
<radialGradient id="paint21_radial_201_1598" cx="0" cy="0" r="1" gradientUnits="userSpaceOnUse" gradientTransform="translate(297.433 129.744) rotate(123.348) scale(117.173 117.173)">
<stop stop-color="#8DDFEC"/>
<stop offset="0.94" stop-color="#5E8BEA"/>
</radialGradient>
<radialGradient id="paint22_radial_201_1598" cx="0" cy="0" r="1" gradientUnits="userSpaceOnUse" gradientTransform="translate(299.91 130.089) rotate(123.348) scale(117.905 117.905)">
<stop stop-color="#8DDFEC"/>
<stop offset="0.94" stop-color="#5E8BEA"/>
</radialGradient>
<radialGradient id="paint23_radial_201_1598" cx="0" cy="0" r="1" gradientUnits="userSpaceOnUse" gradientTransform="translate(263.118 113.535) rotate(123.348) scale(70.6161 70.6161)">
<stop stop-color="#8DDFEC"/>
<stop offset="0.94" stop-color="#5E8BEA"/>
</radialGradient>
<radialGradient id="paint24_radial_201_1598" cx="0" cy="0" r="1" gradientUnits="userSpaceOnUse" gradientTransform="translate(286.083 144.774) rotate(123.348) scale(74.3372 74.3372)">
<stop stop-color="#8DDFEC"/>
<stop offset="0.94" stop-color="#5E8BEA"/>
</radialGradient>
<radialGradient id="paint25_radial_201_1598" cx="0" cy="0" r="1" gradientUnits="userSpaceOnUse" gradientTransform="translate(340.589 58.3662) rotate(123.776) scale(32.0646 32.0646)">
<stop stop-color="#E0A326"/>
<stop offset="1" stop-color="#FFFF63"/>
</radialGradient>
<radialGradient id="paint26_radial_201_1598" cx="0" cy="0" r="1" gradientUnits="userSpaceOnUse" gradientTransform="translate(340.545 58.4327) rotate(123.776) scale(32.1287 32.1287)">
<stop stop-color="#FFFF63"/>
<stop offset="1" stop-color="#E0A326"/>
</radialGradient>
<radialGradient id="paint27_radial_201_1598" cx="0" cy="0" r="1" gradientUnits="userSpaceOnUse" gradientTransform="translate(255.239 60.3262) rotate(123.348) scale(83.8292 83.8291)">
<stop stop-color="#8DDFEC"/>
<stop offset="0.94" stop-color="#5E8BEA"/>
</radialGradient>
<radialGradient id="paint28_radial_201_1598" cx="0" cy="0" r="1" gradientUnits="userSpaceOnUse" gradientTransform="translate(282.086 89.237) rotate(123.348) scale(35.9913 35.9913)">
<stop stop-color="#FFFF63"/>
<stop offset="1" stop-color="#E0A326"/>
</radialGradient>
<radialGradient id="paint29_radial_201_1598" cx="0" cy="0" r="1" gradientUnits="userSpaceOnUse" gradientTransform="translate(260.682 69.0302) rotate(123.348) scale(30.0984 30.0985)">
<stop stop-color="#FFFF63"/>
<stop offset="1" stop-color="#E0A326"/>
</radialGradient>
<radialGradient id="paint30_radial_201_1598" cx="0" cy="0" r="1" gradientUnits="userSpaceOnUse" gradientTransform="translate(307.267 89.8593) rotate(123.348) scale(30.8915 30.8915)">
<stop stop-color="#E0A326"/>
<stop offset="1" stop-color="#FFFF63"/>
</radialGradient>
<radialGradient id="paint31_radial_201_1598" cx="0" cy="0" r="1" gradientUnits="userSpaceOnUse" gradientTransform="translate(294.572 75.1945) rotate(123.348) scale(19.9599 19.9599)">
<stop stop-color="#FFFF63"/>
<stop offset="1" stop-color="#E0A326"/>
</radialGradient>
<radialGradient id="paint32_radial_201_1598" cx="0" cy="0" r="1" gradientUnits="userSpaceOnUse" gradientTransform="translate(280.616 63.2211) rotate(123.348) scale(40.3712 40.3712)">
<stop stop-color="#FFFF63"/>
<stop offset="1" stop-color="#E0A326"/>
</radialGradient>
<radialGradient id="paint33_radial_201_1598" cx="0" cy="0" r="1" gradientUnits="userSpaceOnUse" gradientTransform="translate(308.662 90.8236) rotate(123.348) scale(48.2405 48.2405)">
<stop stop-color="#FFFF63"/>
<stop offset="1" stop-color="#E0A326"/>
</radialGradient>
<radialGradient id="paint34_radial_201_1598" cx="0" cy="0" r="1" gradientUnits="userSpaceOnUse" gradientTransform="translate(306.463 84.6893) rotate(123.348) scale(37.3941 37.3943)">
<stop stop-color="#FFFF63"/>
<stop offset="1" stop-color="#E0A326"/>
</radialGradient>
<radialGradient id="paint35_radial_201_1598" cx="0" cy="0" r="1" gradientUnits="userSpaceOnUse" gradientTransform="translate(306.463 84.6885) rotate(123.348) scale(37.3943 37.3943)">
<stop stop-color="#FFFF63"/>
<stop offset="1" stop-color="#E0A326"/>
</radialGradient>
<radialGradient id="paint36_radial_201_1598" cx="0" cy="0" r="1" gradientUnits="userSpaceOnUse" gradientTransform="translate(305.544 93.0082) rotate(123.348) scale(20.1551 20.1551)">
<stop stop-color="#FFFF63"/>
<stop offset="1" stop-color="#E0A326"/>
</radialGradient>
<radialGradient id="paint37_radial_201_1598" cx="0" cy="0" r="1" gradientUnits="userSpaceOnUse" gradientTransform="translate(305.546 93.0085) rotate(123.348) scale(20.1551 20.1551)">
<stop stop-color="#FFFF63"/>
<stop offset="1" stop-color="#E0A326"/>
</radialGradient>
<radialGradient id="paint38_radial_201_1598" cx="0" cy="0" r="1" gradientUnits="userSpaceOnUse" gradientTransform="translate(253.102 109.937) rotate(123.348) scale(22.0706)">
<stop stop-color="#8DDFEC"/>
<stop offset="0.94" stop-color="#5E8BEA"/>
</radialGradient>
<radialGradient id="paint39_radial_201_1598" cx="0" cy="0" r="1" gradientUnits="userSpaceOnUse" gradientTransform="translate(253.101 109.936) rotate(123.348) scale(17.044)">
<stop stop-color="#8DDFEC"/>
<stop offset="0.94" stop-color="#5E8BEA"/>
</radialGradient>
<radialGradient id="paint40_radial_201_1598" cx="0" cy="0" r="1" gradientUnits="userSpaceOnUse" gradientTransform="translate(255.339 110.798) rotate(123.348) scale(22.0706)">
<stop stop-color="#8DDFEC"/>
<stop offset="0.94" stop-color="#5E8BEA"/>
</radialGradient>
<radialGradient id="paint41_radial_201_1598" cx="0" cy="0" r="1" gradientUnits="userSpaceOnUse" gradientTransform="translate(253.754 110.721) rotate(123.348) scale(22.0706 22.0706)">
<stop stop-color="#E0A326"/>
<stop offset="1" stop-color="#FFFF63"/>
</radialGradient>
<radialGradient id="paint42_radial_201_1598" cx="0" cy="0" r="1" gradientUnits="userSpaceOnUse" gradientTransform="translate(260.082 114.313) rotate(123.348) scale(18.5203 18.5202)">
<stop stop-color="#E0A326"/>
<stop offset="1" stop-color="#FFFF63"/>
</radialGradient>
<radialGradient id="paint43_radial_201_1598" cx="0" cy="0" r="1" gradientUnits="userSpaceOnUse" gradientTransform="translate(253.769 110.689) rotate(123.348) scale(18.142 18.142)">
<stop stop-color="#FFFF63"/>
<stop offset="1" stop-color="#E0A326"/>
</radialGradient>
<linearGradient id="paint44_linear_201_1598" x1="270.86" y1="114.576" x2="230.45" y2="105.363" gradientUnits="userSpaceOnUse">
<stop stop-color="#2F67C5"/>
<stop offset="0.96" stop-color="#09002B"/>
</linearGradient>
<linearGradient id="paint45_linear_201_1598" x1="268.046" y1="115.482" x2="233.46" y2="107.604" gradientUnits="userSpaceOnUse">
<stop stop-color="#2F67C5"/>
<stop offset="0.96" stop-color="#09002B"/>
</linearGradient>
<linearGradient id="paint46_linear_201_1598" x1="269.543" y1="111.076" x2="233.845" y2="102.934" gradientUnits="userSpaceOnUse">
<stop stop-color="#2F67C5"/>
<stop offset="0.96" stop-color="#09002B"/>
</linearGradient>
<linearGradient id="paint47_linear_201_1598" x1="276.974" y1="120.713" x2="253.263" y2="111.069" gradientUnits="userSpaceOnUse">
<stop stop-color="#2F67C5"/>
<stop offset="0.96" stop-color="#09002B"/>
</linearGradient>
<linearGradient id="paint48_linear_201_1598" x1="259.963" y1="111.897" x2="235.135" y2="106.235" gradientUnits="userSpaceOnUse">
<stop stop-color="#2F67C5"/>
<stop offset="0.96" stop-color="#09002B"/>
</linearGradient>
<linearGradient id="paint49_linear_201_1598" x1="273.681" y1="113.259" x2="252.486" y2="116.772" gradientUnits="userSpaceOnUse">
<stop stop-color="#2F67C5"/>
<stop offset="0.96" stop-color="#09002B"/>
</linearGradient>
<linearGradient id="paint50_linear_201_1598" x1="273.057" y1="125.101" x2="254.09" y2="121.31" gradientUnits="userSpaceOnUse">
<stop stop-color="#2F67C5"/>
<stop offset="0.96" stop-color="#09002B"/>
</linearGradient>
<radialGradient id="paint51_radial_201_1598" cx="0" cy="0" r="1" gradientUnits="userSpaceOnUse" gradientTransform="translate(253.506 110.963) rotate(123.348) scale(20.3869 20.3869)">
<stop stop-color="#FFFF63"/>
<stop offset="1" stop-color="#E0A326"/>
</radialGradient>
<radialGradient id="paint52_radial_201_1598" cx="0" cy="0" r="1" gradientUnits="userSpaceOnUse" gradientTransform="translate(196.373 143.004) rotate(123.348) scale(23.498 23.498)">
<stop stop-color="#8DDFEC"/>
<stop offset="0.94" stop-color="#5E8BEA"/>
</radialGradient>
<radialGradient id="paint53_radial_201_1598" cx="0" cy="0" r="1" gradientUnits="userSpaceOnUse" gradientTransform="translate(196.202 143.33) rotate(123.348) scale(23.0344 23.0344)">
<stop stop-color="#FFFF63"/>
<stop offset="1" stop-color="#E0A326"/>
</radialGradient>
<radialGradient id="paint54_radial_201_1598" cx="0" cy="0" r="1" gradientUnits="userSpaceOnUse" gradientTransform="translate(199.676 139.805) rotate(123.348) scale(18.8862 18.8863)">
<stop stop-color="#FFFF63"/>
<stop offset="1" stop-color="#E0A326"/>
</radialGradient>
<radialGradient id="paint55_radial_201_1598" cx="0" cy="0" r="1" gradientUnits="userSpaceOnUse" gradientTransform="translate(204.679 143.432) rotate(123.348) scale(21.6923 21.6924)">
<stop stop-color="#FFFF63"/>
<stop offset="1" stop-color="#E0A326"/>
</radialGradient>
<radialGradient id="paint56_radial_201_1598" cx="0" cy="0" r="1" gradientUnits="userSpaceOnUse" gradientTransform="translate(216.815 152.689) rotate(123.348) scale(35.9302 35.9303)">
<stop stop-color="#FFFF63"/>
<stop offset="1" stop-color="#E0A326"/>
</radialGradient>
<radialGradient id="paint57_radial_201_1598" cx="0" cy="0" r="1" gradientUnits="userSpaceOnUse" gradientTransform="translate(203.818 142.543) rotate(123.348) scale(17.4588 17.4588)">
<stop stop-color="#FFFF63"/>
<stop offset="1" stop-color="#E0A326"/>
</radialGradient>
<radialGradient id="paint58_radial_201_1598" cx="0" cy="0" r="1" gradientUnits="userSpaceOnUse" gradientTransform="translate(223.372 166.805) rotate(123.348) scale(25.145 25.1451)">
<stop stop-color="#FFFF63"/>
<stop offset="1" stop-color="#E0A326"/>
</radialGradient>
<radialGradient id="paint59_radial_201_1598" cx="0" cy="0" r="1" gradientUnits="userSpaceOnUse" gradientTransform="translate(252.831 116.271) rotate(123.348) scale(49.3385 49.3385)">
<stop stop-color="#FFFF63"/>
<stop offset="1" stop-color="#E0A326"/>
</radialGradient>
<clipPath id="clip0_201_1598">
<rect y="77" width="298" height="179" rx="9.53383" fill="white"/>
</clipPath>
</defs>
</svg>
