<svg width="555" height="315" viewBox="0 0 555 315" fill="none" xmlns="http://www.w3.org/2000/svg">
<path d="M554.438 314.054C554.438 314.18 430.31 314.273 277.236 314.273C124.162 314.273 0 314.172 0 314.054C0 313.936 124.103 313.835 277.236 313.835C430.369 313.835 554.438 313.936 554.438 314.054Z" fill="#263238"/>
<path d="M524.889 30.1711L483.311 30.6761L483.967 84.8587L525.554 85.3974L524.889 30.1711Z" fill="#EBEBEB"/>
<path d="M521.927 32.1409L485.545 32.5785L486.143 81.7115L522.533 82.5026L521.927 32.1409Z" fill="#FAFAFA"/>
<path d="M515.912 41.1374L491.767 40.5146L492.179 74.8606L516.316 74.5661L515.912 41.1374Z" fill="#E0E0E0"/>
<path d="M492.179 74.8606L516.106 56.926L491.767 40.5146L492.179 74.8606Z" fill="#F5F5F5"/>
<path d="M81.0545 65.5105L21.2432 66.2343L22.1864 144.184L82.023 144.967L81.0545 65.5105Z" fill="#EBEBEB"/>
<path d="M76.7953 68.3386L24.4541 68.9698L25.3131 139.673L77.6712 140.801L76.7953 68.3386Z" fill="#FAFAFA"/>
<path d="M68.1447 81.2906L33.3965 80.3901L33.9944 129.801L68.7258 129.38L68.1447 81.2906Z" fill="#E0E0E0"/>
<path d="M33.9944 129.801L68.4226 103.997L33.3965 80.3901L33.9944 129.801Z" fill="#F5F5F5"/>
<path d="M129.061 44.2856H106.659V92.2151H129.061V44.2856Z" fill="#F5F5F5"/>
<path d="M157.526 95.5559H129.995V141.861H157.526V95.5559Z" fill="#F5F5F5"/>
<path d="M160.877 43.4522H187.018V0.942602H187.953V43.4522H212.14V0H160.877V43.4522Z" fill="#F5F5F5"/>
<path d="M129.061 95.5559H106.659V141.861H129.061V95.5559Z" fill="#F5F5F5"/>
<path d="M212.139 95.5559H187.943V141.861H212.139V95.5559Z" fill="#F5F5F5"/>
<path d="M157.526 44.2856H129.995V92.2151H157.526V44.2856Z" fill="#F5F5F5"/>
<path d="M212.139 44.2856H187.943V92.2151H212.139V44.2856Z" fill="#F5F5F5"/>
<path d="M129.061 142.695H106.659V184.422H129.061V142.695Z" fill="#F5F5F5"/>
<path d="M129.069 43.4522V0.942602H129.996V43.4522H157.527V0H106.659V43.4522H129.069Z" fill="#F5F5F5"/>
<path d="M157.526 142.695H129.995V184.422H157.526V142.695Z" fill="#F5F5F5"/>
<path d="M212.139 142.695H187.943V184.422H212.139V142.695Z" fill="#F5F5F5"/>
<path d="M187.018 44.2856H160.877V92.2151H187.018V44.2856Z" fill="#F5F5F5"/>
<path d="M187.018 142.695H160.877V184.422H187.018V142.695Z" fill="#F5F5F5"/>
<path d="M187.018 95.5559H160.877V141.861H187.018V95.5559Z" fill="#F5F5F5"/>
<path d="M370.074 44.2856H347.672V92.2151H370.074V44.2856Z" fill="#F5F5F5"/>
<path d="M398.539 95.5559H371.008V141.861H398.539V95.5559Z" fill="#F5F5F5"/>
<path d="M401.89 43.4522H428.031V0.942602H428.957V43.4522H453.153V0H401.89V43.4522Z" fill="#F5F5F5"/>
<path d="M370.074 95.5559H347.672V141.861H370.074V95.5559Z" fill="#F5F5F5"/>
<path d="M453.153 95.5559H428.957V141.861H453.153V95.5559Z" fill="#F5F5F5"/>
<path d="M398.539 44.2856H371.008V92.2151H398.539V44.2856Z" fill="#F5F5F5"/>
<path d="M453.153 44.2856H428.957V92.2151H453.153V44.2856Z" fill="#F5F5F5"/>
<path d="M370.074 142.695H347.672V184.422H370.074V142.695Z" fill="#F5F5F5"/>
<path d="M370.082 43.4522V0.942602H371.009V43.4522H398.539V0H347.672V43.4522H370.082Z" fill="#F5F5F5"/>
<path d="M398.539 142.695H371.008V184.422H398.539V142.695Z" fill="#F5F5F5"/>
<path d="M453.153 142.695H428.957V184.422H453.153V142.695Z" fill="#F5F5F5"/>
<path d="M428.031 44.2856H401.89V92.2151H428.031V44.2856Z" fill="#F5F5F5"/>
<path d="M428.031 142.695H401.89V184.422H428.031V142.695Z" fill="#F5F5F5"/>
<path d="M428.031 95.5559H401.89V141.861H428.031V95.5559Z" fill="#F5F5F5"/>
<path d="M302.187 16.8486H252.254V79.8429H302.187V16.8486Z" fill="#EBEBEB"/>
<path d="M280.996 78.438H274.073V80.1212H280.996V78.438Z" fill="#E0E0E0"/>
<path d="M278.823 38.5376L269.627 39.8842L266.19 48.5191L271.951 55.8074L281.156 54.4608L284.584 45.8259L278.823 38.5376Z" fill="#E0E0E0"/>
<path d="M283.118 44.1174L273.921 45.464L270.485 54.0989L276.254 61.3872L285.451 60.0406L288.887 51.4057L283.118 44.1174Z" fill="#FAFAFA"/>
<path d="M281.972 15.9993H275.05V17.4384H281.972V15.9993Z" fill="#E0E0E0"/>
<path d="M16.4521 231.846V314.054H139.764V231.181L16.4521 231.846Z" fill="#EBEBEB"/>
<path d="M135.106 236.946H21.1172V257.742H135.106V236.946Z" fill="#F5F5F5"/>
<path d="M135.106 262.624H21.1172V283.42H135.106V262.624Z" fill="#F5F5F5"/>
<path d="M135.106 288.292H21.1172V309.088H135.106V288.292Z" fill="#F5F5F5"/>
<path d="M56.4549 236.946H21.1172V257.742H56.4549V236.946Z" fill="#E0E0E0"/>
<path d="M56.4549 262.624H21.1172V283.42H56.4549V262.624Z" fill="#E0E0E0"/>
<path d="M56.2947 288.149H20.957V308.946H56.2947V288.149Z" fill="#E0E0E0"/>
<path d="M59.1338 257.742L70.2673 240.464L82.4873 257.742H59.1338Z" fill="#E0E0E0"/>
<path d="M70.2673 240.464L70.8063 257.742H59.1338L70.2673 240.464Z" fill="#EBEBEB"/>
<path d="M86.3936 257.742L91.135 251.186L96.7692 257.742H86.3936Z" fill="#E0E0E0"/>
<path d="M91.135 251.186L91.5814 257.742H86.3936L91.135 251.186Z" fill="#EBEBEB"/>
<path d="M42.1811 279.279C42.2172 278.314 42.6195 277.4 43.3063 276.721C43.9931 276.043 44.9128 275.651 45.8783 275.626L76.0113 274.936V283.209H45.9709C45.4613 283.208 44.957 283.105 44.4882 282.905C44.0193 282.706 43.5955 282.414 43.2419 282.047C42.8882 281.68 42.6121 281.246 42.4299 280.771C42.2476 280.295 42.163 279.788 42.1811 279.279Z" fill="#F5F5F5"/>
<path d="M45.2391 277.25C44.8314 277.937 44.6162 278.72 44.6162 279.518C44.6162 280.316 44.8314 281.1 45.2391 281.786H76.0122V276.35L45.2391 277.25Z" fill="#EBEBEB"/>
<path d="M49.7358 271.923C49.7615 271.171 50.0742 270.457 50.6098 269.928C51.1454 269.399 51.8632 269.095 52.6161 269.078L76.1044 268.514V274.97H52.6919C52.2958 274.97 51.9036 274.89 51.5388 274.736C51.174 274.582 50.8439 274.356 50.5682 274.072C50.2924 273.788 50.0767 273.451 49.9337 273.082C49.7907 272.713 49.7234 272.319 49.7358 271.923Z" fill="#EBEBEB"/>
<path d="M52.1182 270.408C51.7992 270.942 51.6309 271.553 51.6309 272.175C51.6309 272.798 51.7992 273.408 52.1182 273.943H76.1033V269.735L52.1182 270.408Z" fill="#FAFAFA"/>
<path d="M76.1539 264.391L76.0781 283.361L80.0448 283.42V264.391H76.1539Z" fill="#FAFAFA"/>
<path d="M84.5597 267.025L84.4502 283.369L90.5897 283.419V267.025H84.5597Z" fill="#E0E0E0"/>
<path d="M80.1294 267.025L80.0957 283.369L82.0748 283.419V267.025H80.1294Z" fill="#E0E0E0"/>
<path d="M90.63 267.025L90.5879 283.369L92.5754 283.419V267.025H90.63Z" fill="#FAFAFA"/>
<path d="M81.78 264.391L81.7295 283.361L84.4413 283.42V264.391H81.78Z" fill="#EBEBEB"/>
<path d="M92.7042 264.391L92.6621 283.361L95.3655 283.42V264.391H92.7042Z" fill="#E0E0E0"/>
<path d="M119.485 283.15H110.221L103.525 276.51L103.601 276.442L110.246 269.785H110.288L117.076 269.272L124.563 275.163L119.485 283.15ZM110.339 282.94H119.367L124.319 275.205L117.009 269.466L110.339 269.962L103.82 276.485L110.339 282.94Z" fill="#E0E0E0"/>
<path d="M112.183 283.108L107.029 275.845L107.055 275.786L110.263 269.685L112.242 271.62H115.375L117.051 269.163L120.858 275.172L120.833 275.231L116.883 283.1L116.689 282.999L120.622 275.189L117.043 269.55L115.485 271.831H112.15L112.124 271.797L110.322 270.038L107.274 275.828L112.36 282.99L112.183 283.108Z" fill="#E0E0E0"/>
<path d="M103.683 276.594L103.658 276.384L110.901 275.382L118.514 275.079L124.46 275.071V275.281L118.514 275.29L110.918 275.593L103.683 276.594Z" fill="#E0E0E0"/>
<path d="M113.135 283.083L110.811 275.483L110.819 275.45L112.099 271.688L112.293 271.763L111.03 275.483L113.337 283.016L113.135 283.083Z" fill="#E0E0E0"/>
<path d="M115.18 283.083L114.978 283.024L117.26 275.197L115.34 271.78L115.525 271.671L117.479 275.164L117.47 275.206L115.18 283.083Z" fill="#E0E0E0"/>
<path d="M497.216 186.441C491.767 187.283 489.333 194.016 489.813 199.486C490.293 204.956 492.542 210.334 491.944 215.813C491.178 222.765 485.914 228.648 485.308 235.616C484.583 243.83 490.361 251.119 492.129 259.181C492.971 263.103 492.862 267.252 494.319 270.964C495.565 274.146 497.877 276.798 500.86 278.468C503.843 280.138 507.314 280.722 510.68 280.122C514.047 279.521 517.1 277.773 519.321 275.174C521.542 272.576 522.793 269.288 522.86 265.872C522.986 259.56 519.087 253.618 519.559 247.357C519.913 242.702 522.641 238.301 522.085 233.672C521.395 228.16 516.283 224.254 514.506 219.003C512.729 213.751 514.438 207.961 513.815 202.44C512.695 192.543 507.204 185.608 497.275 186.449" fill="#EBEBEB"/>
<path d="M469.417 234.362C468.491 243.536 472.55 254.325 477.274 262.244C482.056 270.216 489.254 276.459 497.824 280.07C498.784 280.474 499.971 280.81 500.78 280.154C501.069 279.84 501.287 279.466 501.416 279.059C501.546 278.652 501.584 278.221 501.529 277.797C501.597 268.153 498.219 258.668 492.712 250.74C487.465 243.165 482.513 238.696 469.417 234.362Z" fill="#F5F5F5"/>
<path d="M509.402 299.25C509.297 299.089 509.209 298.917 509.141 298.737C508.964 298.341 508.745 297.844 508.484 297.23C507.928 295.926 507.111 294.04 506.059 291.726C500.608 279.657 493.913 268.188 486.082 257.506C484.575 255.453 483.337 253.812 482.469 252.692L481.476 251.379C481.35 251.235 481.245 251.074 481.164 250.9C481.306 251.027 481.439 251.165 481.56 251.312L482.621 252.566C483.547 253.652 484.828 255.259 486.377 257.287C494.402 267.879 501.133 279.389 506.429 291.574C507.44 293.914 508.215 295.825 508.703 297.163C508.931 297.786 509.124 298.291 509.268 298.694C509.335 298.873 509.38 299.06 509.402 299.25Z" fill="#E0E0E0"/>
<path d="M503.49 211.815C503.544 212.093 503.578 212.374 503.591 212.657C503.633 213.28 503.7 214.121 503.776 215.182C503.919 217.429 504.121 220.593 504.374 224.44C504.871 232.292 505.562 243.132 506.404 255.099C507.246 267.067 508.088 277.898 508.686 285.742C508.989 289.63 509.225 292.786 509.402 295C509.469 296.06 509.528 296.91 509.57 297.525C509.593 297.819 509.593 298.114 509.57 298.408C509.509 298.131 509.467 297.85 509.444 297.567C509.377 296.944 509.284 296.102 509.175 295.042C508.964 292.795 508.661 289.647 508.332 285.784C507.625 277.949 506.741 267.117 505.899 255.141C505.056 243.165 504.416 232.325 504.012 224.473C503.835 220.585 503.684 217.412 503.583 215.165C503.583 214.105 503.515 213.263 503.49 212.64C503.472 212.366 503.472 212.09 503.49 211.815Z" fill="#E0E0E0"/>
<path d="M495.051 286.163H518.034V302.995C518.034 305.919 516.871 308.724 514.802 310.791C512.733 312.859 509.927 314.02 507.001 314.02C504.177 314.022 501.46 312.94 499.41 310.999C497.36 309.057 496.134 306.403 495.986 303.584L495.051 286.163Z" fill="#E0E0E0"/>
<path d="M192.555 123.388C193.455 123.444 194.358 123.318 195.209 123.018C196.06 122.718 196.843 122.251 197.51 121.643C198.176 121.036 198.714 120.301 199.091 119.481C199.469 118.662 199.677 117.775 199.705 116.874C199.797 113.221 199.882 109.535 199.882 109.535C199.882 109.535 205.406 108.946 205.777 103.475C206.147 98.005 205.777 85.3641 205.777 85.3641C202.724 83.872 199.329 83.2203 195.94 83.4762C192.552 83.7321 189.293 84.8864 186.499 86.8201L185.657 87.4092L186.306 116.865C186.354 118.533 187.019 120.124 188.174 121.329C189.328 122.534 190.89 123.268 192.555 123.388Z" fill="#B78876"/>
<path d="M203.261 95.025C203.149 94.9134 203.072 94.7709 203.041 94.6157C203.01 94.4605 203.025 94.2996 203.086 94.1532C203.146 94.0069 203.249 93.8818 203.381 93.7937C203.512 93.7057 203.667 93.6587 203.825 93.6587C203.984 93.6587 204.139 93.7057 204.27 93.7937C204.402 93.8818 204.505 94.0069 204.565 94.1532C204.625 94.2996 204.641 94.4605 204.61 94.6157C204.579 94.7709 204.502 94.9134 204.39 95.025C204.24 95.1741 204.037 95.2578 203.825 95.2578C203.614 95.2578 203.411 95.1741 203.261 95.025Z" fill="#263238"/>
<path d="M205.391 94.0746C205.298 94.1672 204.776 93.7211 204.026 93.6875C203.277 93.6538 202.704 94.0073 202.62 93.9063C202.536 93.8053 202.679 93.6959 202.923 93.5192C203.258 93.3038 203.654 93.2006 204.052 93.2246C204.449 93.2492 204.828 93.4029 205.13 93.6622C205.357 93.8558 205.433 94.0325 205.391 94.0746Z" fill="#263238"/>
<path d="M196.092 94.0742C196.202 94.1211 196.299 94.1918 196.378 94.2812C196.457 94.3706 196.514 94.4765 196.547 94.591C196.579 94.7055 196.586 94.8258 196.566 94.9432C196.546 95.0606 196.5 95.172 196.431 95.2693C196.363 95.3667 196.273 95.4475 196.17 95.5059C196.066 95.5642 195.95 95.5987 195.831 95.6068C195.713 95.6148 195.593 95.5963 195.483 95.5524C195.372 95.5086 195.272 95.4406 195.191 95.3534C195.038 95.226 194.938 95.046 194.911 94.8488C194.884 94.6515 194.931 94.4512 195.044 94.287C195.156 94.1228 195.326 94.0065 195.52 93.9609C195.714 93.9153 195.918 93.9437 196.092 94.0405V94.0742Z" fill="#263238"/>
<path d="M197.154 94.344C197.062 94.4366 196.548 93.9905 195.79 93.9569C195.032 93.9232 194.468 94.2767 194.392 94.1757C194.316 94.0747 194.443 93.9653 194.695 93.7885C195.029 93.5722 195.425 93.4693 195.822 93.4951C196.22 93.5209 196.598 93.6739 196.902 93.9316C197.129 94.1252 197.213 94.3019 197.154 94.344Z" fill="#263238"/>
<path d="M199.908 100.168C200.303 100.033 200.719 99.9678 201.137 99.974C201.339 99.974 201.491 99.9235 201.516 99.8141C201.532 99.616 201.491 99.4176 201.398 99.2418C201.23 98.7368 201.061 98.2234 200.876 97.6848C200.378 96.3577 200.011 94.9849 199.781 93.5862C200.419 94.8522 200.924 96.1805 201.289 97.5502L201.777 99.124C201.894 99.3888 201.918 99.6855 201.845 99.9656C201.812 100.039 201.763 100.105 201.702 100.157C201.641 100.21 201.569 100.248 201.491 100.269C201.376 100.284 201.26 100.284 201.146 100.269C200.73 100.309 200.311 100.275 199.908 100.168Z" fill="#263238"/>
<path d="M197.406 100.883L201.061 102.146C200.784 102.533 200.382 102.814 199.923 102.943C199.463 103.071 198.974 103.04 198.535 102.853C196.943 102.171 197.406 100.883 197.406 100.883Z" fill="white"/>
<path d="M199.892 109.451C197.358 109.372 194.904 108.543 192.843 107.069C192.843 107.069 194.342 111.1 199.833 110.873L199.892 109.451Z" fill="#A36957"/>
<path d="M204.573 83.9247C200.051 82.3395 195.17 82.0854 190.508 83.1925C190.508 83.1925 185.851 84.8757 185.641 87.4005C185.539 89.4603 185.584 91.5246 185.775 93.5779L186.171 97.786H187.855L188.024 92.0799C188.024 92.0799 191.224 89.816 191.249 86.3485C192.816 86.1213 200.513 85.1198 205.802 86.8451V85.6248C205.792 85.2507 205.669 84.8883 205.45 84.585C205.231 84.2817 204.925 84.0516 204.573 83.9247Z" fill="#263238"/>
<path d="M186.401 94.0237C186.401 93.8005 186.312 93.5865 186.154 93.4286C185.997 93.2708 185.782 93.1821 185.559 93.1821C184.54 93.1821 182.872 93.5861 182.746 96.4139C182.569 100.445 186.435 99.3932 186.452 99.2754C186.469 99.1575 186.435 95.5891 186.401 94.0237Z" fill="#B78876"/>
<path d="M185.585 97.7269C185.585 97.7269 185.509 97.7774 185.391 97.8279C185.223 97.8944 185.037 97.8944 184.869 97.8279C184.616 97.652 184.413 97.412 184.283 97.1326C184.153 96.8532 184.099 96.5442 184.128 96.2372C184.135 95.8895 184.218 95.5476 184.372 95.2357C184.414 95.1116 184.485 94.9997 184.581 94.9101C184.676 94.8205 184.793 94.756 184.919 94.7223C185.001 94.7024 185.087 94.7127 185.161 94.7514C185.236 94.7901 185.293 94.8546 185.324 94.9327C185.374 95.0506 185.324 95.1263 185.366 95.1347C185.408 95.1431 185.458 95.0674 185.433 94.8991C185.412 94.8004 185.359 94.7116 185.282 94.6466C185.177 94.556 185.041 94.5106 184.903 94.5204C184.735 94.5475 184.577 94.6166 184.443 94.721C184.309 94.8254 184.203 94.9619 184.136 95.1179C183.951 95.4591 183.853 95.8406 183.85 96.2288C183.814 96.5859 183.885 96.9456 184.052 97.2629C184.22 97.5802 184.478 97.8411 184.793 98.013C184.9 98.052 185.014 98.0655 185.126 98.0523C185.239 98.0392 185.347 97.9998 185.442 97.9373C185.576 97.8279 185.602 97.7353 185.585 97.7269Z" fill="#A36957"/>
<path d="M266.27 98.5182C265.176 98.1395 262.902 104.031 262.683 102.482C262.464 100.934 266.262 95.5894 265.1 95.236C263.584 94.7731 261.352 100.993 261.125 101.498C260.897 102.002 260.148 101.7 260.375 101.253C260.704 100.597 264.022 93.679 262.54 93.2329C261.697 92.972 261.386 94.4953 261.386 94.4953C261.386 94.4953 258.758 101.178 258.068 100.934C257.377 100.69 258.775 96.7256 259.348 95.4043C259.92 94.083 259.525 93.3171 258.741 93.5443C258.211 93.6958 256.375 97.6598 255.836 98.9643C255.297 100.269 253.907 103.871 253.149 101.531C252.391 99.1915 250.926 97.685 250.244 97.5504C250.085 97.5349 249.924 97.5697 249.786 97.6498C249.647 97.7299 249.537 97.8513 249.471 97.9971C249.405 98.1428 249.387 98.3055 249.418 98.4624C249.449 98.6193 249.529 98.7624 249.646 98.8717C250.145 99.5353 250.548 100.266 250.842 101.043C251.105 101.657 251.262 102.312 251.305 102.979C251.414 104.316 251.392 105.66 251.238 106.993L237.721 131.307L216.026 123.127L213.045 135.515C213.045 135.515 241.544 148.064 243.321 147.096C247.347 144.908 259.996 109.526 259.996 109.526C261.872 107.126 263.615 104.626 265.218 102.036C266.995 98.8296 266.717 98.6613 266.27 98.5182Z" fill="#B78876"/>
<path d="M229.461 127.385C223.431 124.381 219.161 122.605 215.86 120.543C205.611 114.138 202.949 115.62 200.549 115.35C198.545 115.99 195.589 117.202 194.46 117.421C193.332 117.64 189.197 116.301 186.527 115.51C180.337 115.855 176.581 118.532 170.913 122.807L159.4 131.93L173.027 145.85L177.238 142.652C177.49 148.956 177.718 149.015 178.038 155.478L178.307 180.373L216.82 182.056L214.394 157.187L213.215 137.619L224.256 142.955L229.486 127.385" fill="#7EEB94"/>
<path d="M185.995 116.251L185.944 112.253C185.944 112.253 192.825 112.893 194.282 117.648L185.995 116.251Z" fill="#7EEB94"/>
<path d="M200.582 115.956L199.967 112.084C198.546 112.284 197.227 112.931 196.2 113.931C195.173 114.932 194.492 116.234 194.257 117.647L200.582 115.956Z" fill="#7EEB94"/>
<path d="M201.288 130.103C201.724 130.023 202.167 129.986 202.611 129.994C203.453 129.994 204.775 129.893 206.341 129.851H206.527V130.036C206.527 131.559 206.586 133.301 206.628 135.178V135.288L206.535 135.355L206.165 135.616L204.202 136.996L204.084 137.08L203.967 137.004L201.255 135.321L201.162 135.262V135.161C201.162 133.604 201.162 132.325 201.213 131.45C201.203 131.008 201.228 130.566 201.288 130.129C201.357 130.597 201.402 131.069 201.423 131.542C201.423 132.426 201.524 133.663 201.558 135.136L201.474 134.976L204.211 136.659H203.95L205.912 135.271L206.274 135.01L206.181 135.187C206.181 133.318 206.181 131.568 206.181 130.053L206.367 130.23C204.885 130.23 203.647 130.23 202.762 130.179C202.27 130.18 201.778 130.155 201.288 130.103Z" fill="#263238"/>
<path d="M206.232 131.299C205.407 131.509 204.553 131.58 203.705 131.509C202.857 131.581 202.002 131.507 201.179 131.291C202.001 131.07 202.857 130.996 203.705 131.072C204.554 130.996 205.41 131.073 206.232 131.299Z" fill="#263238"/>
<path d="M194.427 125.113C194.188 123.885 194.098 122.633 194.157 121.384C194.067 120.136 194.126 118.881 194.334 117.647C194.563 118.876 194.651 120.127 194.595 121.376C194.681 122.624 194.624 123.877 194.427 125.113Z" fill="#263238"/>
<path d="M195.799 118.641C195.799 118.591 195.976 118.49 196.195 118.641C196.26 118.7 196.31 118.773 196.341 118.855C196.372 118.937 196.382 119.025 196.372 119.112C196.348 119.224 196.292 119.325 196.21 119.404C196.128 119.483 196.024 119.536 195.912 119.556C195.8 119.576 195.685 119.562 195.58 119.516C195.476 119.47 195.388 119.394 195.328 119.297C195.283 119.222 195.26 119.137 195.26 119.049C195.26 118.962 195.283 118.876 195.328 118.801C195.471 118.548 195.69 118.574 195.69 118.624C195.69 118.675 195.622 118.767 195.614 118.902C195.606 119.037 195.673 119.146 195.833 119.121C195.993 119.096 196.01 118.995 195.959 118.843C195.909 118.692 195.799 118.7 195.799 118.641Z" fill="#263238"/>
<path d="M196.323 121.62C196.323 121.562 196.542 121.562 196.676 121.814C196.715 121.89 196.735 121.973 196.735 122.058C196.735 122.143 196.715 122.227 196.676 122.302C196.622 122.399 196.541 122.479 196.444 122.534C196.346 122.588 196.236 122.614 196.124 122.61C196.013 122.606 195.905 122.571 195.812 122.509C195.719 122.447 195.645 122.361 195.598 122.26C195.568 122.181 195.555 122.096 195.563 122.011C195.57 121.927 195.597 121.845 195.64 121.772C195.8 121.528 196.011 121.553 196.011 121.604C196.011 121.654 195.944 121.747 195.927 121.89C195.91 122.033 195.927 122.159 196.137 122.176C196.348 122.193 196.373 122.067 196.373 121.907C196.373 121.747 196.306 121.679 196.323 121.62Z" fill="#263238"/>
<path d="M192.65 115.552C192.65 115.552 192.498 115.552 192.288 115.594C192.137 115.652 192.002 115.745 191.896 115.867C191.791 115.989 191.717 116.136 191.681 116.293C191.563 116.806 191.475 117.326 191.42 117.85C191.319 118.473 191.21 119.121 191.1 119.794L191.041 120.148L190.763 119.954L190.258 119.6C189.166 118.817 188.135 117.95 187.176 117.008C186.754 116.642 186.391 116.213 186.098 115.737C186.19 115.645 187.976 117.421 190.511 119.239L191.008 119.592L190.671 119.744L191.033 117.774C191.115 117.237 191.241 116.708 191.412 116.192C191.472 116.003 191.582 115.834 191.73 115.702C191.878 115.57 192.059 115.481 192.254 115.443C192.54 115.384 192.667 115.552 192.65 115.552Z" fill="#263238"/>
<path d="M200.834 115.493C200.205 117.202 199.167 118.73 197.811 119.945L197.701 120.038L197.389 120.341L197.339 119.912C197.036 118.221 196.437 116.597 195.57 115.115C195.975 115.443 196.305 115.853 196.539 116.318C197.185 117.4 197.604 118.603 197.768 119.853L197.406 119.727L197.499 119.626C198.723 118.343 199.839 116.961 200.834 115.493Z" fill="#263238"/>
<path opacity="0.3" d="M213.188 137.619L216.801 137.805L224.937 140.59L224.229 142.955L213.188 137.619Z" fill="black"/>
<g opacity="0.3">
<path d="M214.426 150.823C206.738 151.574 199.001 151.706 191.292 151.219C188.643 151.188 186.024 150.663 183.569 149.67C180.606 148.249 178.32 145.723 177.202 142.635L177.893 153.357L214.426 150.823Z" fill="black"/>
</g>
<g opacity="0.7">
<path d="M178.575 126.409C178.473 126.476 177.85 125.761 177.176 124.801C176.706 124.263 176.353 123.633 176.141 122.95C176.242 122.883 176.865 123.598 177.539 124.549C178.009 125.091 178.362 125.724 178.575 126.409Z" fill="white"/>
</g>
<g opacity="0.7">
<path d="M170.662 135.633C170.802 134.751 171.087 133.898 171.504 133.108C171.804 132.263 172.236 131.47 172.784 130.76C172.638 131.641 172.354 132.493 171.942 133.285C171.644 134.131 171.212 134.924 170.662 135.633Z" fill="white"/>
</g>
<g opacity="0.7">
<path d="M180.773 138.966C180.088 138.512 179.487 137.942 178.996 137.283C178.404 136.705 177.914 136.031 177.548 135.288C178.837 136.316 179.929 137.568 180.773 138.983V138.966Z" fill="white"/>
</g>
<g opacity="0.7">
<path d="M186.188 129.371C186.264 129.464 185.632 130.129 184.773 130.861C183.914 131.593 183.148 132.106 183.089 132.014C183.03 131.921 183.653 131.256 184.512 130.524C185.371 129.792 186.112 129.279 186.188 129.371Z" fill="white"/>
</g>
<g opacity="0.7">
<path d="M187.948 125.112C187.864 125.197 187.216 124.658 186.618 123.825C186.02 122.992 185.708 122.209 185.776 122.142C185.843 122.074 186.357 122.748 186.938 123.547C187.519 124.347 188.041 125.028 187.948 125.112Z" fill="white"/>
</g>
<g opacity="0.7">
<path d="M189.441 144.032C188.819 144.646 188.123 145.18 187.369 145.623C186.697 146.182 185.959 146.657 185.171 147.037C185.688 146.318 186.351 145.715 187.116 145.269C187.798 144.701 188.589 144.28 189.441 144.032Z" fill="white"/>
</g>
<g opacity="0.7">
<path d="M191.267 138.637C191.183 138.722 190.425 138.175 189.583 137.409C188.741 136.643 188.151 135.953 188.236 135.869C188.32 135.784 189.078 136.323 189.92 137.089C190.762 137.855 191.318 138.545 191.267 138.637Z" fill="white"/>
</g>
<g opacity="0.7">
<path d="M195.798 132.51C195.896 131.1 196.438 129.756 197.347 128.673C197.226 129.357 196.998 130.019 196.674 130.634C196.477 131.299 196.182 131.932 195.798 132.51Z" fill="white"/>
</g>
<g opacity="0.7">
<path d="M197.822 148.232C197.755 148.324 196.938 147.802 196.138 146.902C195.614 146.404 195.243 145.768 195.068 145.067C195.178 145.008 195.725 145.757 196.466 146.616C197.207 147.474 197.906 148.139 197.822 148.232Z" fill="white"/>
</g>
<g opacity="0.7">
<path d="M200.944 140.725C200.86 140.817 200.102 140.186 199.184 139.319C198.266 138.452 197.643 137.687 197.727 137.594C198.399 137.949 198.996 138.429 199.488 139.008C200.372 139.866 201.029 140.641 200.944 140.725Z" fill="white"/>
</g>
<g opacity="0.7">
<path d="M209.053 146.464C208.489 147.061 207.859 147.592 207.175 148.047C206.579 148.613 205.927 149.118 205.229 149.553C205.631 148.81 206.209 148.177 206.914 147.71C207.517 147.13 208.251 146.703 209.053 146.464Z" fill="white"/>
</g>
<g opacity="0.7">
<path d="M208.817 139.883C208.893 139.984 208.076 140.725 206.998 141.567C206.384 142.129 205.677 142.582 204.909 142.905C205.413 142.242 206.029 141.673 206.728 141.221C207.345 140.662 208.051 140.21 208.817 139.883Z" fill="white"/>
</g>
<g opacity="0.7">
<path d="M210.325 134.463C209.977 133.775 209.798 133.013 209.803 132.241C209.672 131.482 209.729 130.701 209.972 129.969C210.162 130.7 210.253 131.453 210.241 132.208C210.373 132.952 210.401 133.711 210.325 134.463Z" fill="white"/>
</g>
<g opacity="0.7">
<path d="M204.794 132.62C204.904 132.679 204.651 133.344 204.238 134.11C203.826 134.875 203.396 135.448 203.295 135.389C203.194 135.33 203.438 134.665 203.851 133.899C204.264 133.133 204.676 132.561 204.794 132.62Z" fill="white"/>
</g>
<g opacity="0.7">
<path d="M205.144 124.178C203.61 123.501 202.207 122.558 201.001 121.392C201.795 121.667 202.536 122.077 203.191 122.604C203.926 123.015 204.587 123.547 205.144 124.178Z" fill="white"/>
</g>
<g opacity="0.7">
<path d="M210.689 121.099C209.854 121.053 209.046 120.785 208.348 120.324C207.584 119.984 206.922 119.45 206.428 118.776C207.171 119.1 207.884 119.488 208.558 119.937C209.301 120.262 210.014 120.65 210.689 121.099Z" fill="white"/>
</g>
<g opacity="0.7">
<path d="M215.05 124.44C214.468 124.762 213.853 125.019 213.214 125.205C212.624 125.517 212 125.757 211.353 125.921C211.286 125.828 211.993 125.214 213.037 124.793C213.654 124.465 214.359 124.342 215.05 124.44Z" fill="white"/>
</g>
<g opacity="0.7">
<path d="M217.925 133.31C217.96 132.359 218.199 131.426 218.624 130.575C218.92 129.671 219.399 128.837 220.03 128.126C219.787 129.029 219.454 129.906 219.036 130.743C218.749 131.632 218.377 132.492 217.925 133.31Z" fill="white"/>
</g>
<g opacity="0.7">
<path d="M223.862 136.887C223.559 136.161 223.396 135.384 223.382 134.598C223.225 133.83 223.211 133.04 223.34 132.267C223.644 132.989 223.807 133.763 223.82 134.547C223.977 135.318 223.991 136.111 223.862 136.887Z" fill="white"/>
</g>
<g opacity="0.7">
<path d="M165.153 129.364C165.221 130.034 165.147 130.711 164.934 131.35C164.858 132.018 164.637 132.661 164.285 133.235C164.217 132.568 164.292 131.893 164.504 131.257C164.581 130.587 164.802 129.94 165.153 129.364Z" fill="white"/>
</g>
<g opacity="0.7">
<path d="M173.979 141.937C172.516 141.987 171.078 141.555 169.886 140.708C170.598 140.788 171.295 140.966 171.957 141.238C172.66 141.377 173.34 141.612 173.979 141.937Z" fill="white"/>
</g>
<g opacity="0.7">
<path d="M184.092 118.246C184.135 118.364 183.469 118.692 182.686 119.155C181.903 119.618 181.28 119.997 181.195 119.938C181.111 119.879 181.633 119.256 182.459 118.776C183.284 118.297 184.059 118.137 184.092 118.246Z" fill="white"/>
</g>
<g opacity="0.7">
<path d="M173.555 126.644C172.936 126.719 172.308 126.65 171.719 126.442C170.734 126.215 169.951 125.937 169.984 125.82C170.604 125.745 171.232 125.814 171.82 126.022C172.789 126.249 173.631 126.493 173.555 126.644Z" fill="white"/>
</g>
<g opacity="0.7">
<path d="M189.409 116.512C189.367 116.621 188.718 116.445 188.095 115.94C187.472 115.435 187.169 114.829 187.253 114.77C187.337 114.711 187.784 115.132 188.365 115.612C188.946 116.091 189.46 116.394 189.409 116.512Z" fill="white"/>
</g>
<g opacity="0.7">
<path d="M199.547 114.171C199.631 114.256 199.311 114.718 198.831 115.198C198.351 115.678 197.888 115.989 197.803 115.905C197.719 115.821 198.039 115.366 198.519 114.887C198.999 114.407 199.463 114.087 199.547 114.171Z" fill="white"/>
</g>
<path d="M145.723 291.574L140.4 294.654C140.4 294.654 144.316 307.438 141.916 305.166C139.769 303.138 131.743 287.77 129.848 283.974L129.427 283.133L138.489 278.209L145.723 291.574Z" fill="#7EEB94"/>
<g opacity="0.5">
<path d="M132.302 287.896C133.313 287.056 133.978 285.872 134.171 284.572C134.361 283.287 134.061 281.977 133.329 280.903L129.632 283.032L132.302 287.896Z" fill="white"/>
</g>
<path opacity="0.5" d="M142.118 301.017C142.118 301.017 143.238 305.638 142.304 305.512C141.369 305.385 132.678 290.169 129.427 283.125L129.738 282.973L139.727 300.815C139.727 300.815 141.63 300.26 142.118 301.017Z" fill="white"/>
<path d="M129.63 282.762C129.659 282.844 129.695 282.923 129.739 282.998L130.068 283.68L131.348 286.204C132.443 288.3 133.992 291.161 135.778 294.284C137.563 297.406 139.231 300.175 140.477 302.22L141.959 304.585L142.372 305.216L142.524 305.435C142.495 305.351 142.456 305.272 142.406 305.199L142.018 304.543L140.587 302.144C139.374 300.125 137.723 297.322 135.938 294.2C134.152 291.077 132.569 288.216 131.466 286.145L130.135 283.688C130 283.444 129.883 283.225 129.765 283.023C129.647 282.821 129.638 282.754 129.63 282.762Z" fill="#263238"/>
<path d="M139.516 300.925C139.979 300.807 140.453 300.74 140.93 300.723C141.406 300.767 141.875 300.866 142.328 301.017C141.942 300.689 141.446 300.517 140.939 300.538C140.433 300.489 139.927 300.626 139.516 300.925Z" fill="#263238"/>
<path d="M139.263 295.858C139.755 296.003 140.275 296.026 140.779 295.925C140.542 295.824 140.285 295.781 140.029 295.799C139.772 295.759 139.51 295.779 139.263 295.858Z" fill="#263238"/>
<path d="M139.223 294.452C139.223 294.503 139.467 294.629 139.804 294.739C140.141 294.848 140.427 294.907 140.444 294.856C140.461 294.806 140.2 294.68 139.863 294.562C139.526 294.444 139.239 294.402 139.223 294.452Z" fill="#263238"/>
<path d="M140.089 293.048C140.135 293.317 140.242 293.573 140.4 293.797C140.611 294.184 140.83 294.478 140.872 294.453C140.826 294.183 140.719 293.927 140.56 293.704C140.35 293.317 140.139 293.031 140.089 293.048Z" fill="#263238"/>
<path d="M140.847 292.29C140.824 292.608 140.9 292.926 141.066 293.199C141.285 293.67 141.588 293.973 141.63 293.939C141.525 293.647 141.393 293.365 141.234 293.098C141.127 292.818 140.997 292.548 140.847 292.29Z" fill="#263238"/>
<path d="M140.686 295.656C140.805 295.961 140.973 296.246 141.183 296.497C141.4 296.785 141.642 297.053 141.908 297.297C142.061 297.45 142.234 297.583 142.421 297.692C142.478 297.728 142.542 297.752 142.609 297.762C142.676 297.772 142.743 297.768 142.809 297.751C142.879 297.73 142.941 297.688 142.988 297.631C143.034 297.574 143.063 297.505 143.07 297.432C143.044 297.013 142.874 296.616 142.588 296.309C142.303 296.002 141.919 295.804 141.503 295.748C141.258 295.713 141.008 295.73 140.771 295.799C140.683 295.819 140.6 295.857 140.526 295.908C140.844 295.851 141.169 295.851 141.486 295.908C141.821 295.971 142.131 296.129 142.379 296.363C142.683 296.635 142.867 297.016 142.893 297.423C142.893 297.617 142.674 297.659 142.497 297.558C142.328 297.449 142.168 297.328 142.017 297.196C141.753 296.963 141.508 296.71 141.284 296.438C140.905 295.959 140.712 295.656 140.686 295.656Z" fill="#263238"/>
<path d="M140.789 295.892C141.03 295.892 141.263 295.806 141.446 295.648C141.657 295.496 141.825 295.294 141.934 295.059C142.014 294.911 142.056 294.747 142.056 294.579C142.056 294.412 142.014 294.247 141.934 294.099C141.861 294.029 141.763 293.99 141.661 293.99C141.559 293.99 141.461 294.029 141.387 294.099C141.261 294.196 141.157 294.32 141.084 294.461C140.96 294.684 140.864 294.922 140.797 295.168C140.716 295.386 140.693 295.621 140.73 295.85C140.73 295.85 140.789 295.597 140.924 295.202C141.003 294.975 141.108 294.757 141.235 294.554C141.345 294.335 141.623 294.066 141.791 294.259C141.842 294.383 141.865 294.517 141.858 294.651C141.851 294.785 141.813 294.916 141.749 295.033C141.65 295.247 141.507 295.436 141.328 295.589C141.158 295.707 140.978 295.808 140.789 295.892Z" fill="#263238"/>
<path d="M133.436 280.954C133.436 280.954 133.689 281.315 133.958 281.955C134.315 282.79 134.435 283.707 134.303 284.606C134.151 285.504 133.758 286.345 133.166 287.038C132.712 287.56 132.324 287.804 132.324 287.829C132.422 287.795 132.513 287.744 132.594 287.678C132.828 287.518 133.043 287.332 133.234 287.122C133.875 286.432 134.3 285.569 134.455 284.64C134.594 283.708 134.454 282.756 134.051 281.905C133.929 281.649 133.783 281.407 133.613 281.181C133.52 281.021 133.444 280.945 133.436 280.954Z" fill="#263238"/>
<path d="M134.555 288.83C134.774 289.55 135.082 290.24 135.473 290.884C135.809 291.559 136.237 292.185 136.744 292.744C136.786 292.744 136.239 291.902 135.633 290.8C135.026 289.697 134.605 288.805 134.555 288.83Z" fill="#263238"/>
<path d="M133.064 286.213C133.014 286.213 132.921 286.39 132.769 286.592C132.618 286.794 132.475 286.946 132.5 286.988C132.525 287.03 132.753 286.937 132.921 286.701C133.09 286.466 133.115 286.222 133.064 286.213Z" fill="#263238"/>
<path d="M133.73 284.53C133.68 284.53 133.595 284.682 133.528 284.901C133.461 285.119 133.461 285.305 133.528 285.321C133.595 285.338 133.663 285.17 133.73 284.951C133.798 284.732 133.781 284.547 133.73 284.53Z" fill="#263238"/>
<path d="M133.487 282.805C133.445 282.805 133.554 283.015 133.596 283.251C133.639 283.486 133.596 283.688 133.664 283.705C133.731 283.722 133.832 283.503 133.773 283.217C133.714 282.931 133.521 282.763 133.487 282.805Z" fill="#263238"/>
<path d="M133.208 281.652C133.157 281.652 133.132 281.77 133.149 281.904C133.166 282.039 133.225 282.148 133.275 282.14C133.326 282.132 133.351 282.014 133.334 281.879C133.317 281.744 133.208 281.643 133.208 281.652Z" fill="#263238"/>
<path d="M233.015 303.416L232.821 309.568C232.821 309.568 245.757 312.993 242.557 313.826C239.693 314.584 222.403 313.263 218.184 312.867L217.232 312.774L217.839 302.49L233.015 303.416Z" fill="#7EEB94"/>
<g opacity="0.5">
<path d="M222.801 312.858C222.63 311.547 221.975 310.346 220.965 309.492C219.979 308.66 218.717 308.227 217.428 308.28L217.268 312.564L222.801 312.858Z" fill="white"/>
</g>
<path opacity="0.5" d="M239.137 311.47C239.137 311.47 243.651 312.96 243.054 313.683C242.456 314.407 224.938 313.742 217.232 312.774V312.429L237.664 313.389C237.664 313.389 238.236 311.47 239.137 311.47Z" fill="white"/>
<path d="M217.029 312.413H217.29L218.048 312.48L220.828 312.707C223.186 312.884 226.436 313.086 230.032 313.229C233.629 313.372 236.896 313.423 239.254 313.431H242.042H242.808C242.895 313.443 242.983 313.443 243.069 313.431C242.983 313.419 242.895 313.419 242.808 313.431H242.042L239.254 313.38C236.896 313.338 233.637 313.263 230.041 313.128C226.445 312.993 223.194 312.808 220.836 312.665L218.048 312.497H217.29C217.207 312.457 217.12 312.429 217.029 312.413Z" fill="#263238"/>
<path d="M237.689 313.625C237.831 313.17 238.023 312.733 238.261 312.32C238.552 311.939 238.886 311.591 239.255 311.285C238.772 311.445 238.362 311.773 238.101 312.211C237.794 312.615 237.647 313.118 237.689 313.625Z" fill="#263238"/>
<path d="M233.25 311.158C233.25 311.158 233.519 310.931 233.755 310.586C233.991 310.241 234.151 309.938 234.109 309.913C234.067 309.888 233.839 310.14 233.604 310.485C233.368 310.83 233.208 311.125 233.25 311.158Z" fill="#263238"/>
<path d="M232.03 310.452C232.03 310.494 232.316 310.342 232.586 310.115C232.855 309.888 233.057 309.669 233.024 309.627C232.99 309.585 232.737 309.745 232.468 309.972C232.198 310.199 231.996 310.418 232.03 310.452Z" fill="#263238"/>
<path d="M231.296 308.979C231.82 309.121 232.369 309.147 232.904 309.054C232.651 308.952 232.378 308.906 232.104 308.92C231.834 308.881 231.558 308.902 231.296 308.979Z" fill="#263238"/>
<path d="M231.069 307.943C231.328 308.127 231.636 308.23 231.954 308.238C232.264 308.297 232.585 308.268 232.88 308.154C232.581 308.088 232.276 308.054 231.97 308.053C231.674 307.991 231.372 307.954 231.069 307.943Z" fill="#263238"/>
<path d="M233.823 309.837C234.149 309.899 234.483 309.899 234.809 309.837C235.165 309.806 235.517 309.741 235.861 309.644C236.074 309.596 236.281 309.522 236.476 309.425C236.596 309.359 236.686 309.251 236.729 309.122C236.749 309.05 236.747 308.974 236.723 308.903C236.698 308.833 236.654 308.771 236.594 308.726C236.356 308.6 236.092 308.529 235.823 308.517C235.554 308.505 235.285 308.552 235.037 308.656C234.788 308.76 234.565 308.917 234.385 309.117C234.204 309.317 234.07 309.554 233.992 309.812C233.973 309.901 233.973 309.992 233.992 310.081C234.101 309.775 234.263 309.49 234.472 309.24C234.697 308.991 234.989 308.812 235.314 308.726C235.508 308.668 235.711 308.649 235.912 308.67C236.113 308.692 236.308 308.754 236.485 308.852C236.636 308.97 236.569 309.155 236.392 309.248C236.213 309.342 236.023 309.415 235.828 309.467C235.491 309.566 235.147 309.642 234.8 309.694C234.194 309.82 233.823 309.812 233.823 309.837Z" fill="#263238"/>
<path d="M234.076 309.896C234.202 309.692 234.25 309.45 234.211 309.214C234.188 308.958 234.108 308.71 233.975 308.49C233.894 308.334 233.774 308.203 233.626 308.108C233.478 308.014 233.308 307.96 233.133 307.951C233.033 307.972 232.945 308.029 232.885 308.112C232.826 308.195 232.8 308.297 232.813 308.397C232.831 308.555 232.883 308.707 232.964 308.844C233.085 309.067 233.235 309.274 233.411 309.458C233.557 309.639 233.745 309.783 233.958 309.879C233.958 309.879 233.764 309.694 233.512 309.374C233.36 309.186 233.227 308.983 233.116 308.768C232.99 308.549 232.914 308.17 233.158 308.137C233.402 308.103 233.655 308.381 233.798 308.583C233.925 308.78 234.011 309 234.051 309.231C234.078 309.451 234.086 309.674 234.076 309.896Z" fill="#263238"/>
<path d="M217.503 308.229C217.503 308.229 217.941 308.229 218.631 308.313C219.532 308.453 220.377 308.837 221.074 309.424C221.752 310.026 222.255 310.8 222.531 311.663C222.741 312.336 222.75 312.774 222.783 312.774C222.798 312.671 222.798 312.566 222.783 312.463C222.769 312.178 222.724 311.896 222.649 311.621C222.405 310.71 221.895 309.892 221.183 309.273C220.467 308.666 219.589 308.283 218.657 308.17C218.377 308.142 218.095 308.142 217.815 308.17C217.612 308.187 217.503 308.212 217.503 308.229Z" fill="#263238"/>
<path d="M224.784 311.444C225.513 311.636 226.262 311.737 227.016 311.747C227.769 311.818 228.528 311.787 229.273 311.655C229.273 311.604 228.262 311.655 227.024 311.562C225.786 311.47 224.793 311.385 224.784 311.444Z" fill="#263238"/>
<path d="M221.78 311.318C221.78 311.36 221.856 311.537 221.949 311.773C222.041 312.008 222.092 312.21 222.142 312.21C222.193 312.21 222.235 311.966 222.142 311.697C222.05 311.428 221.814 311.284 221.78 311.318Z" fill="#263238"/>
<path d="M220.701 309.871C220.658 309.871 220.751 310.065 220.911 310.233C221.071 310.401 221.214 310.511 221.256 310.468C221.298 310.426 221.197 310.275 221.046 310.107C220.894 309.938 220.734 309.837 220.701 309.871Z" fill="#263238"/>
<path d="M219.109 309.164C219.109 309.214 219.328 309.223 219.547 309.307C219.766 309.391 219.926 309.526 219.968 309.492C220.01 309.459 219.893 309.24 219.615 309.13C219.337 309.021 219.109 309.122 219.109 309.164Z" fill="#263238"/>
<path d="M217.966 308.811C217.966 308.861 218.025 308.945 218.151 308.996C218.277 309.046 218.395 309.055 218.412 308.996C218.429 308.937 218.353 308.861 218.227 308.811C218.101 308.76 217.983 308.769 217.966 308.811Z" fill="#263238"/>
<path d="M187.754 195.059C187.754 195.059 186.643 224.389 182.145 239.596C177.648 254.804 165.571 258.499 157.722 263.397C150.261 268.068 133.577 276.922 133.577 276.922L142.993 293.224C142.993 293.224 189.034 273.749 197.246 256.319C203.545 242.929 210.443 218.279 210.443 218.279L187.754 195.059Z" fill="#263238"/>
<path d="M213.61 181.938C213.61 181.938 233.03 222.588 238.218 233.621C238.762 234.774 239.013 236.043 238.951 237.316L235.523 305.831L215.825 304.838L217.955 238.763L184.58 196.927C181.703 193.378 179.658 189.232 178.592 184.791C178.237 183.339 178.051 181.851 178.036 180.356L213.635 181.938" fill="#263238"/>
<path d="M295.328 274.784L118.504 287.711L109.897 158.112L285.39 145.833L295.328 274.784Z" fill="white"/>
<path d="M295.327 274.784C295.327 274.784 295.251 273.985 295.125 272.436C294.998 270.888 294.821 268.59 294.577 265.602C294.106 259.61 293.415 250.815 292.531 239.58C290.771 217.126 288.261 184.875 285.212 145.85L285.397 146.01L109.913 158.331L110.115 158.095C110.115 158.398 110.115 158.718 110.183 159.046C113.24 205.183 116.137 248.938 118.706 287.703L118.495 287.518L246.085 278.26L282.366 275.659L292 274.978L294.476 274.809L295.318 274.759C295.318 274.759 295.049 274.759 294.476 274.835L292.017 275.028L282.433 275.752L246.219 278.454L118.52 287.913H118.327V287.711C115.75 248.947 112.836 205.234 109.762 159.055C109.762 158.735 109.762 158.407 109.694 158.112V157.893H109.913L285.397 145.656H285.574V145.833C288.547 184.951 291.006 217.21 292.716 239.698C293.558 250.916 294.223 259.694 294.67 265.678C294.889 268.666 295.066 270.946 295.175 272.487C295.285 274.027 295.327 274.784 295.327 274.784Z" fill="#263238"/>
<path d="M252.739 165.451C253.101 165.451 254.651 187.711 256.192 215.215C257.733 242.719 258.718 265.038 258.331 265.063C257.944 265.089 256.428 242.803 254.878 215.291C253.328 187.779 252.377 165.468 252.739 165.451Z" fill="#263238"/>
<path d="M237.03 165.207C237.401 165.207 238.942 187.476 240.491 214.979C242.041 242.483 243.018 264.803 242.631 264.819C242.243 264.836 240.719 242.559 239.178 215.047C237.636 187.535 236.668 165.207 237.03 165.207Z" fill="#263238"/>
<path d="M188.961 165.88C189.323 165.88 190.872 188.141 192.422 215.644C193.972 243.148 194.949 265.476 194.561 265.493C194.174 265.51 192.649 243.232 191.108 215.72C189.567 188.208 188.599 165.897 188.961 165.88Z" fill="#263238"/>
<path d="M204.153 165.207C204.515 165.207 206.065 187.476 207.606 214.979C209.147 242.483 210.132 264.803 209.745 264.828C209.358 264.853 207.842 242.567 206.292 215.055C204.743 187.543 203.791 165.257 204.153 165.207Z" fill="#263238"/>
<path d="M219.337 164.592C219.699 164.592 221.248 186.853 222.79 214.356C224.331 241.86 225.316 264.188 224.937 264.205C224.558 264.222 223.025 241.944 221.476 214.432C219.926 186.92 218.974 164.609 219.337 164.592Z" fill="#263238"/>
<path d="M172.074 168.111C172.436 168.111 173.986 190.371 175.527 217.875C177.068 245.379 178.053 267.698 177.666 267.723C177.279 267.749 175.763 245.463 174.213 217.951C172.663 190.439 171.712 168.128 172.074 168.111Z" fill="#263238"/>
<path d="M155.424 169.104C155.787 169.104 157.336 191.364 158.877 218.868C160.419 246.371 161.387 268.724 161 268.724C160.612 268.724 159.088 246.464 157.538 218.952C155.989 191.44 155.104 169.12 155.424 169.104Z" fill="#263238"/>
<path d="M138.776 170.097C139.146 170.097 140.687 192.366 142.237 219.87C143.787 247.374 144.763 269.693 144.376 269.718C143.989 269.743 142.473 247.458 140.923 219.912C139.374 192.366 138.413 170.122 138.776 170.097Z" fill="#263238"/>
<path d="M160.58 133.133C160.58 133.133 140.957 147.533 144.671 159.03C149.134 172.832 180.514 183.882 180.514 183.882C182.973 185.927 185.668 188.09 187.251 189.117C190.62 191.28 190.738 190.952 190.831 190.472C191.066 189.201 184.994 186.424 186.476 186.163C187.959 185.902 193.694 190.539 193.896 189.184C194.157 187.417 187.773 184.648 187.243 184.37C186.712 184.093 186.923 183.217 187.394 183.529C188.068 183.933 195.26 187.981 195.53 186.256C195.681 185.305 194.149 184.875 194.149 184.875C194.149 184.875 187.26 181.635 187.411 180.827C187.563 180.019 191.622 181.761 192.995 182.46C194.368 183.158 195.067 182.721 194.747 181.803C194.528 181.181 190.401 178.925 189.054 178.269C187.706 177.612 184 175.879 186.19 175.045C188.38 174.212 189.677 172.52 189.727 171.746C189.778 170.972 188.835 170.425 188.346 171.014C187.771 171.576 187.101 172.032 186.367 172.361C185.869 172.618 185.325 172.778 184.767 172.832C181.845 171.039 160.95 158.112 160.866 155.815C160.773 153.34 171.393 144.2 171.393 144.2L160.58 133.133Z" fill="#B78876"/>
<path d="M196.877 91.3985C196.877 91.5248 196.321 91.4995 195.706 91.5921C195.091 91.6847 194.578 91.8362 194.519 91.7268C194.46 91.6174 194.931 91.2555 195.639 91.1545C196.346 91.0535 196.91 91.2891 196.877 91.3985Z" fill="#263238"/>
<path d="M204.549 91.0107C204.465 91.1117 204.069 90.9013 203.547 90.8172C203.025 90.733 202.587 90.7667 202.545 90.6488C202.502 90.531 202.983 90.2617 203.631 90.3795C204.279 90.4973 204.633 90.9266 204.549 91.0107Z" fill="#263238"/>
<path d="M304.171 88.4791C297.636 120.889 273.853 242.746 267.528 275.265C267.114 277.398 267.559 279.608 268.767 281.415C269.975 283.221 271.849 284.477 273.979 284.91L407.472 311.942C408.539 312.158 409.638 312.16 410.705 311.949C411.772 311.738 412.787 311.319 413.692 310.714C414.596 310.109 415.371 309.331 415.973 308.426C416.576 307.52 416.992 306.504 417.2 305.437L435.475 211.219L446.869 212.978C448.213 213.185 449.585 212.861 450.694 212.076C451.804 211.291 452.564 210.105 452.815 208.77L466.711 132.68C466.835 132.004 466.825 131.311 466.68 130.639C466.535 129.967 466.26 129.33 465.868 128.765C465.477 128.2 464.979 127.717 464.401 127.345C463.823 126.973 463.177 126.718 462.5 126.595L452.268 124.677L453.607 117.321C453.992 115.2 453.524 113.012 452.305 111.233C451.087 109.455 449.215 108.228 447.097 107.819L313.73 82.0576C311.612 81.6584 309.422 82.1082 307.633 83.3099C305.844 84.5115 304.601 86.3684 304.171 88.4791Z" fill="#263238"/>
<path d="M314.101 91.6096L270.021 278.017L406.976 309.384L450.138 124.289L314.101 91.6096Z" fill="#E0E0E0"/>
<path d="M298.175 84.6829L266.787 273.632L405.561 295.691L436.115 108.113L298.175 84.6829Z" fill="#EBEBEB"/>
<path d="M277.818 94.572L271.965 286.021L412.431 289.37L417.653 99.386L277.818 94.572Z" fill="white"/>
<path d="M277.829 94.572L417.63 99.2093H417.866V99.386C416.409 152.761 414.615 218.431 412.678 289.362V289.581H412.459H411.432L271.984 286.214H271.782V286.012C275.37 172.783 277.787 96.331 277.846 94.572C277.77 96.331 275.538 172.783 272.17 286.029L271.976 285.827L411.423 289.126H412.451L412.223 289.337C414.194 218.406 416.013 152.735 417.487 99.3523L417.664 99.5375L277.829 94.572Z" fill="#263238"/>
<path d="M397.955 135.524C397.955 135.895 373.785 135.852 343.988 135.449C314.192 135.045 290.03 134.422 290.03 134.06C290.03 133.698 314.201 133.732 344.005 134.136C373.81 134.54 397.964 135.162 397.955 135.524Z" fill="#263238"/>
<path d="M398.966 152.466C398.966 152.828 374.804 152.795 345 152.391C315.195 151.987 291.041 151.355 291.05 150.993C291.058 150.632 315.212 150.665 345.016 151.069C374.821 151.473 398.975 152.104 398.966 152.466Z" fill="#263238"/>
<path d="M400.415 204.385C400.415 204.747 376.245 204.713 346.448 204.309C316.652 203.905 292.482 203.282 292.49 202.912C292.499 202.542 316.652 202.584 346.465 202.996C376.278 203.409 400.415 204.023 400.415 204.385Z" fill="#263238"/>
<path d="M400.415 187.931C400.415 188.293 376.245 188.26 346.448 187.847C316.652 187.435 292.482 186.82 292.49 186.459C292.499 186.097 316.652 186.13 346.465 186.534C376.278 186.938 400.415 187.603 400.415 187.931Z" fill="#263238"/>
<path d="M400.415 171.537C400.415 171.899 376.245 171.865 346.448 171.461C316.652 171.057 292.482 170.434 292.49 170.073C292.499 169.711 316.652 169.744 346.465 170.148C376.278 170.552 400.415 171.175 400.415 171.537Z" fill="#263238"/>
<path d="M398.781 222.715C398.781 223.077 374.611 223.043 344.815 222.639C315.018 222.235 290.856 221.613 290.856 221.251C290.856 220.889 315.027 220.923 344.831 221.327C374.636 221.731 398.79 222.353 398.781 222.715Z" fill="#263238"/>
<path d="M398.495 240.733C398.495 241.095 374.325 241.062 344.529 240.658C314.732 240.254 290.562 239.622 290.57 239.261C290.579 238.899 314.732 238.932 344.545 239.336C374.358 239.74 398.495 240.371 398.495 240.733Z" fill="#263238"/>
<path d="M398.158 258.744C398.158 259.106 373.988 259.072 344.183 258.668C314.379 258.264 290.225 257.641 290.233 257.28C290.242 256.918 314.395 256.951 344.208 257.355C374.021 257.759 398.158 258.382 398.158 258.744Z" fill="#263238"/>
<path d="M415.903 139.404C434.768 139.404 450.061 124.106 450.061 105.235C450.061 86.364 434.768 71.0659 415.903 71.0659C397.037 71.0659 381.744 86.364 381.744 105.235C381.744 124.106 397.037 139.404 415.903 139.404Z" fill="#7EEB94"/>
<path opacity="0.5" d="M415.937 139.404C434.82 139.404 450.129 124.106 450.129 105.235C450.129 86.364 434.82 71.0659 415.937 71.0659C397.053 71.0659 381.744 86.364 381.744 105.235C381.744 124.106 397.053 139.404 415.937 139.404Z" fill="black"/>
<path d="M412.148 139.404C431.013 139.404 446.307 124.106 446.307 105.235C446.307 86.364 431.013 71.0659 412.148 71.0659C393.283 71.0659 377.989 86.364 377.989 105.235C377.989 124.106 393.283 139.404 412.148 139.404Z" fill="#7EEB94"/>
<path d="M412.398 85.1038H411.91C410.942 85.1038 410.158 85.8875 410.158 86.8543V123.624C410.158 124.591 410.942 125.375 411.91 125.375H412.398C413.366 125.375 414.15 124.591 414.15 123.624V86.8543C414.15 85.8875 413.366 85.1038 412.398 85.1038Z" fill="#FAFAFA"/>
<path d="M392.02 105.008V105.479C392.02 106.45 392.808 107.238 393.78 107.238H430.532C431.504 107.238 432.292 106.45 432.292 105.479V105.008C432.292 104.036 431.504 103.249 430.532 103.249H393.78C392.808 103.249 392.02 104.036 392.02 105.008Z" fill="#FAFAFA"/>
</svg>
