<svg width="30" height="22" viewBox="0 0 30 22" fill="none" xmlns="http://www.w3.org/2000/svg">
<path d="M0.333008 21.6666V17.9333C0.333008 17.1777 0.527452 16.4833 0.916341 15.8499C1.30523 15.2166 1.8219 14.7333 2.46634 14.3999C3.84412 13.711 5.24412 13.1944 6.66634 12.8499C8.08856 12.5055 9.53301 12.3333 10.9997 12.3333C12.4663 12.3333 13.9108 12.5055 15.333 12.8499C16.7552 13.1944 18.1552 13.711 19.533 14.3999C20.1775 14.7333 20.6941 15.2166 21.083 15.8499C21.4719 16.4833 21.6663 17.1777 21.6663 17.9333V21.6666H0.333008ZM24.333 21.6666V17.6666C24.333 16.6888 24.0608 15.7499 23.5163 14.8499C22.9719 13.9499 22.1997 13.1777 21.1997 12.5333C22.333 12.6666 23.3997 12.8944 24.3997 13.2166C25.3997 13.5388 26.333 13.9333 27.1997 14.3999C27.9997 14.8444 28.6108 15.3388 29.033 15.8833C29.4552 16.4277 29.6663 17.0221 29.6663 17.6666V21.6666H24.333ZM10.9997 10.9999C9.53301 10.9999 8.27745 10.4777 7.23301 9.43325C6.18856 8.38881 5.66634 7.13325 5.66634 5.66659C5.66634 4.19992 6.18856 2.94436 7.23301 1.89992C8.27745 0.855474 9.53301 0.333252 10.9997 0.333252C12.4663 0.333252 13.7219 0.855474 14.7663 1.89992C15.8108 2.94436 16.333 4.19992 16.333 5.66659C16.333 7.13325 15.8108 8.38881 14.7663 9.43325C13.7219 10.4777 12.4663 10.9999 10.9997 10.9999ZM24.333 5.66659C24.333 7.13325 23.8108 8.38881 22.7663 9.43325C21.7219 10.4777 20.4663 10.9999 18.9997 10.9999C18.7552 10.9999 18.4441 10.9721 18.0663 10.9166C17.6886 10.861 17.3775 10.7999 17.133 10.7333C17.733 10.0221 18.1941 9.23325 18.5163 8.36659C18.8386 7.49992 18.9997 6.59992 18.9997 5.66659C18.9997 4.73325 18.8386 3.83325 18.5163 2.96659C18.1941 2.09992 17.733 1.31103 17.133 0.599919C17.4441 0.488808 17.7552 0.416585 18.0663 0.383252C18.3775 0.349919 18.6886 0.333252 18.9997 0.333252C20.4663 0.333252 21.7219 0.855474 22.7663 1.89992C23.8108 2.94436 24.333 4.19992 24.333 5.66659ZM2.99967 18.9999H18.9997V17.9333C18.9997 17.6888 18.9386 17.4666 18.8163 17.2666C18.6941 17.0666 18.533 16.911 18.333 16.7999C17.133 16.1999 15.9219 15.7499 14.6997 15.4499C13.4775 15.1499 12.2441 14.9999 10.9997 14.9999C9.75523 14.9999 8.5219 15.1499 7.29967 15.4499C6.07745 15.7499 4.86634 16.1999 3.66634 16.7999C3.46634 16.911 3.30523 17.0666 3.18301 17.2666C3.06079 17.4666 2.99967 17.6888 2.99967 17.9333V18.9999ZM10.9997 8.33325C11.733 8.33325 12.3608 8.07214 12.883 7.54992C13.4052 7.0277 13.6663 6.39992 13.6663 5.66659C13.6663 4.93325 13.4052 4.30547 12.883 3.78325C12.3608 3.26103 11.733 2.99992 10.9997 2.99992C10.2663 2.99992 9.63856 3.26103 9.11634 3.78325C8.59412 4.30547 8.33301 4.93325 8.33301 5.66659C8.33301 6.39992 8.59412 7.0277 9.11634 7.54992C9.63856 8.07214 10.2663 8.33325 10.9997 8.33325Z" fill="#303030"/>
</svg>
