<svg width="21" height="28" viewBox="0 0 21 28" fill="none" xmlns="http://www.w3.org/2000/svg">
<path d="M6.55119 23.7196L0.681641 17.7898V4.50133C0.681641 4.50133 0.852355 4.51353 1.15433 4.51353C2.62538 4.50854 4.08689 4.27701 5.48746 3.82709C6.47324 3.51078 7.40909 3.05602 8.26694 2.47644C9.22905 1.82153 10.0553 0.986547 10.7 0.0175781V3.03018C9.8236 3.79074 8.8574 4.44113 7.82294 4.96685C6.99066 5.38995 6.11971 5.73223 5.22206 5.98899C4.37234 6.24339 3.49637 6.40006 2.61114 6.45594L2.6965 16.9326L7.94416 22.3919L6.55119 23.7196ZM18.5299 20.1195L17.1147 18.7L18.7027 16.9333L18.7881 6.45666C17.9034 6.40019 17.028 6.24354 16.1786 5.9897C15.2812 5.73267 14.4105 5.39016 13.5784 4.96685C12.544 4.44113 11.5778 3.79073 10.7014 3.03018V0.0175781C11.3463 0.986615 12.1728 1.8216 13.1352 2.47644C13.993 3.05602 14.9289 3.51078 15.9146 3.82709C17.315 4.27695 18.7762 4.50848 20.2471 4.51353C20.544 4.51353 20.7183 4.50133 20.7197 4.50133V17.7898L18.5327 20.1195H18.5299Z" fill="black"/>
<path d="M7.48438 24.7078L8.93751 23.289L10.6934 25.0498L16.2165 19.5469L17.6462 20.9771L10.6955 27.8738L7.48438 24.7078Z" fill="#3BD55A"/>
</svg>
