<?xml version="1.0" encoding="UTF-8"?>
<svg width="313px" height="54px" viewBox="0 0 313 54" version="1.1" xmlns="http://www.w3.org/2000/svg" xmlns:xlink="http://www.w3.org/1999/xlink">
    <title>Group</title>
    <g id="Find-CV" stroke="none" stroke-width="1" fill="none" fill-rule="evenodd">
        <g id="Staffing-CVsearch-EmptyState" transform="translate(-407.000000, -309.000000)" fill="#000000">
            <g id="Group" transform="translate(398.125605, 300.240678)">
                <g id="Group-3-Copy" transform="translate(35.874395, 36.759322) rotate(54.000000) translate(-35.874395, -36.759322) translate(7.874395, 12.759322)">
                    <path d="M-4.78158773e-13,35.3333839 C0.16136549,35.0928888 0.295082381,34.8328066 0.495805308,34.620074 C0.594986048,34.5149851 0.823455967,34.5071503 0.98324716,34.4376588 C1.25422311,34.3198809 1.50876733,34.1711044 1.78643405,34.067889 C1.99374935,33.990733 2.23333774,33.980684 2.44645826,33.9125551 C2.80608684,33.7975875 3.16364915,33.6738483 3.50881387,33.5298408 C5.11813945,32.8585153 6.72756343,32.1869344 8.32419624,31.4933819 C8.54558182,31.3971498 8.68687501,31.1695991 8.88120236,31.0180123 C9.15316225,30.8058758 9.41154382,30.5641033 9.72532098,30.4113241 C11.6441928,29.4767655 13.6335144,28.6734402 15.6859064,27.9764813 C16.4619366,27.7129075 17.2534147,27.4254885 17.8500734,26.8526946 C18.2676558,26.4517558 18.7916017,26.533766 19.1475897,27.0244646 C19.6304071,27.6899991 19.7986601,28.4446122 19.6015777,29.1952227 C19.5155817,29.5224971 19.16717,29.8955881 18.8196439,30.0569685 C17.3602701,30.7346811 15.8661634,31.3586569 14.3657595,31.9669631 C12.8738175,32.5718629 11.3591466,33.1345227 9.70259206,33.7744237 C10.0706825,33.8953525 10.3148954,34.019262 10.5749496,34.0539226 C12.1492471,34.2640152 13.7225606,34.4901181 15.3051232,34.6391501 C16.6804688,34.7686802 18.0676216,34.8051292 19.4498548,34.8795601 C21.1873872,34.9729819 22.9242309,35.0833507 24.6633377,35.14901 C26.3110367,35.2111777 27.9613924,35.2186718 29.6100755,35.2622744 C30.5936178,35.2882485 31.575881,35.345562 32.559325,35.3739206 C33.6447047,35.4051748 34.7309699,35.4394096 35.8166448,35.4365993 C37.5195427,35.4321709 39.2239165,35.4304677 40.9245513,35.3664265 C42.4656902,35.3083465 44.0126342,35.213988 45.492769,34.785457 C46.3704398,34.5313361 47.2677894,34.3007197 48.0960667,33.9523253 C49.644093,33.3012682 50.9532198,32.3817831 51.7930091,31.0452638 C52.2255473,30.3569913 52.6917361,29.6719549 53.0001016,28.9404205 C53.7323468,27.2031327 53.9895476,25.3933728 53.7927604,23.5492078 C53.6704572,22.4030237 53.5648809,21.2483235 53.3093527,20.1216413 C52.9463787,18.5217185 52.3413566,16.9733182 51.4794287,15.5184249 C50.9575491,14.6375178 50.3339305,13.8017461 49.7556714,12.9458764 C48.8020407,11.5345856 47.6487694,10.2492482 46.4280001,9.00742809 C45.1355019,7.69262488 43.8492025,6.37305264 42.5349593,5.07468553 C41.703927,4.25373191 40.8304871,3.46471372 39.9684608,2.66752006 C39.4413663,2.18014272 39.3758362,1.53359916 39.7240511,0.795677676 C39.9287098,0.361866705 40.2571476,0.111067077 40.7716477,0.0202001147 C41.4858868,-0.105753247 41.770933,0.383838286 42.1098989,0.753182255 C42.5309251,1.21186028 42.8712686,1.72623372 43.2951481,2.18269756 C43.9766222,2.91644615 44.7186082,3.60812512 45.3978192,4.34332145 C46.5260001,5.56444738 47.6524099,6.78812815 48.7279503,8.04382952 C49.7636412,9.25311805 50.7736515,10.4819085 51.7214769,11.743486 C52.6111518,12.9274816 53.4448407,14.1454566 54.1017163,15.4465489 C54.8313048,16.8916487 55.3732567,18.3995122 55.6436423,19.9438248 C55.9077307,21.4517735 55.9267206,22.9950641 55.991562,24.5248141 C56.0496142,25.8949721 55.8052045,27.2528669 55.3484615,28.556003 C55.0103811,29.5205383 54.4687244,30.4333809 53.992401,31.3595085 C53.381672,32.5469958 52.3560172,33.4766151 51.3266234,34.3837518 C50.8116314,34.8376608 50.1710891,35.2078564 49.5274966,35.5249965 C47.9021329,36.3259373 46.1298675,36.8099934 44.3059455,37.1317322 C43.2242064,37.3224932 42.1271178,37.4862582 41.0280614,37.55592 C39.2288362,37.6699508 37.4229202,37.7222397 35.6187753,37.7533236 C34.2242429,37.777339 32.8270539,37.7517055 31.4328167,37.7069959 C29.7173245,37.6518966 28.0039969,37.5472336 26.2888982,37.4779124 C25.5498639,37.448106 24.8083698,37.4659046 24.0690404,37.4397602 C22.4278353,37.3816802 20.7870237,37.3150842 19.1466058,37.2412495 C17.816718,37.1813812 16.4824025,37.1488496 15.1598942,37.0251956 C13.8885506,36.9063106 12.6349179,36.6467394 11.3636727,36.5252996 C10.6292629,36.4552119 9.99354191,36.1728175 9.31698758,35.9864849 C8.63462802,35.7985342 8.50405972,35.4621476 8.68067622,34.8633795 C8.73803968,34.6686159 8.75575053,34.4651659 8.7915658,34.2656333 C8.74679671,34.2317391 8.70212602,34.197845 8.65735694,34.1638657 C7.474174,34.6959526 6.29099106,35.2280396 4.99504907,35.8108826 C5.33332623,36.0799067 5.5502841,36.2600226 5.77649097,36.4311113 C6.68161362,37.1153813 7.58407964,37.8024616 8.49854968,38.4771935 C9.01393531,38.8575232 9.57684505,39.1917808 10.0724536,39.5895686 C10.9321184,40.2795443 11.7738756,40.9879149 12.5890665,41.71715 C13.1512874,42.2200266 13.680645,42.7544129 14.180386,43.3048947 C14.7901311,43.9764756 15.3549103,44.6787146 15.9362197,45.369542 C16.1938141,45.675526 16.5621997,45.9593682 16.6654146,46.3018012 C16.7715812,46.6537723 16.6533122,47.0714878 16.5649547,47.4484963 C16.4528844,47.927102 15.8900731,47.8444106 15.5190308,48 L15.3225388,48 C15.1070569,47.7450275 14.8881311,47.492184 14.6768801,47.2345715 C14.4321752,46.9363371 14.210888,46.6226885 13.9495547,46.3361212 C13.5594241,45.9082715 13.1469581,45.4954102 12.7371488,45.0813566 C12.1480664,44.4861652 11.5955864,43.8575907 10.9498292,43.3120482 C10.0473632,42.5496003 9.07808793,41.8458285 8.1282946,41.1257908 C7.43560371,40.6006019 6.72402126,40.0939782 6.02857535,39.5712589 C5.19006517,38.9409812 4.36168952,38.3005692 3.52347451,37.6699508 C3.40776365,37.5829161 3.26755278,37.480893 3.12684995,37.4653085 C2.57092615,37.4035667 2.00998429,37.3383332 1.45150226,37.3426764 C1.00076122,37.3462532 0.743658765,37.1726096 0.583965966,36.8513817 C0.377044243,36.4349436 0.193540195,36.0098191 -4.78158773e-13,35.5884416 C-4.78158773e-13,35.5033656 -4.78158773e-13,35.4183748 -4.78158773e-13,35.3333839" id="Fill-1"></path>
                </g>
                <text id="Search-our-database" font-family="BradleyHandITCTT-Bold, Bradley Hand" font-size="20" font-style="expanded" font-weight="bold" letter-spacing="-0.380952381">
                    <tspan x="33.6725654" y="22.7593219">Search our database for thousands</tspan>
                    <tspan x="103.586375" y="47.7593219">of verified profiles</tspan>
                </text>
            </g>
        </g>
    </g>
</svg>