<svg xmlns="http://www.w3.org/2000/svg" width="25" height="25" viewBox="0 0 25 25">
    <g fill="none" fill-rule="evenodd">
        <g fill="#000" fill-rule="nonzero">
            <g>
                <g>
                    <g>
                        <path d="M18.875 16.037c1.125-1.49 1.75-3.23 1.75-5.217 0-4.845-3.875-8.82-8.75-8.82S3 5.975 3 10.82c0 4.845 4 8.82 8.875 8.82 2 0 3.875-.621 5.25-1.74l3.75 3.727c.25.249.625.373.875.373s.625-.124.875-.373c.5-.497.5-1.242 0-1.739l-3.75-3.85zm-7 .994c-3.5 0-6.375-2.733-6.375-6.211s2.875-6.336 6.375-6.336 6.375 2.858 6.375 6.336-2.875 6.211-6.375 6.211z" transform="translate(-277.000000, -256.000000) translate(18.000000, 193.000000) translate(80.000000, 63.000000) translate(179.000000, 0.000000)"/>
                    </g>
                </g>
            </g>
        </g>
    </g>
</svg>
