<?xml version="1.0" encoding="UTF-8"?>
<svg width="31px" height="31px" viewBox="0 0 31 31" version="1.1" xmlns="http://www.w3.org/2000/svg" xmlns:xlink="http://www.w3.org/1999/xlink">
    <title>Send</title>
    <g id="Chat" stroke="none" stroke-width="1" fill="none" fill-rule="evenodd">
        <g id="CVsearch-chat" transform="translate(-1025.000000, -963.000000)" fill-rule="nonzero">
            <g id="Rectangle" transform="translate(731.000000, 617.000000)">
                <g id="Send" transform="translate(294.000000, 346.000000)">
                    <path d="M15.5,31 C24.06,31 31,24.06 31,15.5 C31,6.94 24.06,0 15.5,0 C6.94,0 0,6.94 0,15.5 C0,24.06 6.94,31 15.5,31 Z" id="Path" fill="#3BD55A"></path>
                    <path d="M16.67,21.701 C16.553,21.7 16.439,21.668 16.339,21.607 C16.24,21.545 16.159,21.458 16.107,21.353 L14.242,17.621 C14.191,17.52 14.169,17.407 14.177,17.295 C14.185,17.182 14.223,17.074 14.287,16.981 L17.299,12.901 L13.219,15.912 C13.126,15.976 13.018,16.014 12.905,16.022 C12.793,16.029 12.68,16.007 12.58,15.957 L8.846,14.091 C8.737,14.036 8.646,13.951 8.584,13.845 C8.523,13.739 8.494,13.617 8.501,13.495 C8.508,13.373 8.55,13.255 8.622,13.157 C8.695,13.058 8.795,12.983 8.909,12.941 L20.852,8.539 C20.965,8.497 21.087,8.489 21.205,8.515 C21.322,8.54 21.429,8.599 21.514,8.684 C21.599,8.769 21.658,8.876 21.684,8.994 C21.709,9.111 21.701,9.233 21.659,9.346 L17.258,21.29 C17.216,21.405 17.141,21.505 17.042,21.578 C16.944,21.65 16.826,21.693 16.703,21.699 L16.67,21.701 Z" id="Path" fill="#FFFFFF"></path>
                </g>
            </g>
        </g>
    </g>
</svg>