<?xml version="1.0" encoding="utf-8"?>
<!-- Generator: Adobe Illustrator 26.0.2, SVG Export Plug-In . SVG Version: 6.00 Build 0)  -->
<svg version="1.1" id="Layer_1" xmlns="http://www.w3.org/2000/svg" xmlns:xlink="http://www.w3.org/1999/xlink" x="0px" y="0px"
	 viewBox="0 0 160 50" style="enable-background:new 0 0 160 50;" xml:space="preserve">
<style type="text/css">
	.st0{fill:#455560;}
	.st1{fill:#EE2A24;}
</style>
<g>
	<path class="st0" d="M109.8,35.9c-4.9,0-9.5-1.9-12.9-5.2c-3.4-3.4-5.2-7.9-5.2-12.7s1.9-9.3,5.2-12.7c3.4-3.4,8-5.2,12.9-5.2
		c5.3,0,9.4,1.7,12.9,5.3l0.1,0.1l-4.7,4.7L118,10c-2.2-2.5-4.8-3.7-8.2-3.7c-6.6,0-11.1,4.7-11.1,11.7s4.5,11.7,11.1,11.7
		c3.3,0,6-1.2,8.2-3.7l0.1-0.1l4.7,4.7l-0.1,0.1C119.8,34,115.1,35.9,109.8,35.9z"/>
</g>
<path class="st1" d="M159.4,45c0,2.5-7.6,4.6-17.1,4.6c-9.4,0-17.1-2-17.1-4.6c0-2.5,7.6-4.4,17.1-4.4
	C151.7,40.6,159.4,42.5,159.4,45"/>
<g>
	<path class="st0" d="M49.1,35.9c-8.9,0-16.4-6.9-17.3-16c-0.1-0.6-0.1-1.2-0.1-1.9c0-4.8,1.8-9.3,5-12.7C40,1.9,44.3,0,49,0
		c6.2,0,11.7,3.2,14.8,8.6c1.6,2.8,2.2,6.4,2.2,9c0,0.8-0.1,1.5-0.1,2.3V20H38.8c0.5,5.9,4.8,9.9,10.7,9.9c3.5,0,6.4-1.4,8.8-4.2
		l0.1-0.1l5,4.5l-0.1,0.1C60.1,33.8,55,35.9,49.1,35.9z M39,14.4h20c-0.2-1.6-0.6-2.8-1.3-3.9c-1.9-3-5-4.7-8.6-4.7
		c-4.9,0-8.7,3-9.9,7.9C39,14.1,39,14.3,39,14.4z"/>
</g>
<g>
	<path class="st0" d="M14.5,35.9c-2.5,0-5.1-0.5-7.6-1.5c-2.5-1-4.5-2.5-6.2-4.6l-0.3-0.5l-0.1-0.1l5.1-4.4L6,25.5
		c0.8,1.3,2.1,2.4,3.6,3.3c1.5,0.8,3.2,1.3,5.1,1.3c0.8,0,1.6-0.1,2.4-0.2c0.7-0.2,1.5-0.4,2-0.8c0.6-0.3,1.1-0.8,1.4-1.4
		c0.3-0.6,0.5-1.3,0.5-2.2c0-1.5-0.7-2.5-2.1-3.3c-1.5-0.7-3.7-1.5-6.5-2.1c-1.1-0.3-2.3-0.6-3.4-1c-1.2-0.4-2.3-1-3.2-1.7
		S4,15.7,3.4,14.6c-0.6-1.1-0.9-2.4-0.9-4.1c0-1.8,0.4-3.4,1.1-4.7c0.7-1.3,1.7-2.4,2.9-3.3c1.2-0.8,2.6-1.5,4.1-1.9
		c1.5-0.4,3.1-0.6,4.7-0.6c2.4,0,4.8,0.5,7.1,1.4c2.3,1,4.1,2.4,5.3,4.2l0.1,0.2L23,10l-0.2-0.2c-0.7-1.2-1.7-2.1-3.1-2.9
		c-1.3-0.7-2.8-1.1-4.5-1.1c-0.7,0-1.5,0.1-2.2,0.2c-0.7,0.2-1.4,0.4-1.9,0.7c-0.6,0.3-1,0.7-1.4,1.2C9.4,8.5,9.2,9.1,9.2,9.8
		c0,1.3,0.6,2.3,1.8,2.9c1.2,0.7,3.2,1.3,5.6,1.9c1.6,0.4,3.1,0.8,4.5,1.4c1.4,0.5,2.6,1.2,3.6,2c1,0.8,1.9,1.7,2.4,2.9
		c0.6,1.1,0.9,2.4,0.9,4c0,2-0.4,3.7-1.2,5.1c-0.8,1.4-1.8,2.5-3.1,3.4c-1.2,0.9-2.7,1.5-4.3,1.9C17.9,35.7,16.2,35.9,14.5,35.9z"/>
</g>
<g>
	<path class="st0" d="M142.3,35.9c-4.9,0-9.5-1.9-12.9-5.2c-3.4-3.4-5.2-7.9-5.2-12.7s1.9-9.3,5.2-12.7c3.4-3.4,8-5.2,12.9-5.2
		s9.5,1.9,12.9,5.2c3.4,3.4,5.2,7.9,5.2,12.7s-1.9,9.3-5.2,12.7C151.7,34,147.1,35.9,142.3,35.9z M142.3,6.3
		c-6.6,0-11.1,4.7-11.1,11.7s4.5,11.7,11.1,11.7c6.6,0,11.1-4.7,11.1-11.7C153.3,10.9,148.9,6.3,142.3,6.3z"/>
</g>
<path class="st0" d="M92,0.9c-1.3-0.6-2.9-0.8-3.9-0.8c-4,0-8.3,2.7-10.1,6.2h-0.1V0.9h-6.7V35h6.7V18.7c0-7.4,3.5-11.7,9.6-11.7
	c0.9,0,1.8,0.2,2.8,0.5l0.1,0.1L92,0.9L92,0.9z"/>
<g>
</g>
<g>
</g>
<g>
</g>
<g>
</g>
<g>
</g>
<g>
</g>
<g>
</g>
<g>
</g>
<g>
</g>
<g>
</g>
<g>
</g>
<g>
</g>
<g>
</g>
<g>
</g>
<g>
</g>
</svg>
