<svg width="61" height="21" viewBox="0 0 61 21" xmlns="http://www.w3.org/2000/svg">
    <g fill="none" fill-rule="evenodd">
        <g fill="#FFF" fill-rule="nonzero">
            <path d="M28.399 17.196c-.97 0-1.787-.217-2.45-.651a3.482 3.482 0 0 1-1.4-1.771l1.652-.966c.383.999 1.134 1.498 2.254 1.498.541 0 .938-.098 1.19-.294.252-.196.378-.443.378-.742 0-.345-.154-.614-.462-.805-.308-.191-.859-.399-1.652-.623-.439-.13-.81-.261-1.113-.392a4.8 4.8 0 0 1-.91-.525 2.141 2.141 0 0 1-.693-.833c-.159-.336-.238-.728-.238-1.176 0-.887.315-1.594.945-2.121.63-.527 1.388-.791 2.275-.791.793 0 1.491.194 2.093.581.602.387 1.071.926 1.407 1.617l-1.624.938c-.392-.84-1.017-1.26-1.876-1.26-.401 0-.716.091-.945.273a.862.862 0 0 0-.343.707c0 .308.128.558.385.749.257.191.749.399 1.477.623.299.093.525.166.679.217.154.051.364.13.63.238.266.107.471.208.616.301.145.093.31.22.497.378.187.159.329.322.427.49.098.168.182.371.252.609s.105.497.105.777c0 .905-.329 1.624-.987 2.156-.658.532-1.514.798-2.569.798zM36.756 9.804c.766 0 1.398.257 1.897.77.5.513.75 1.223.75 2.128V17h-1.807v-4.074c0-.467-.126-.824-.378-1.071s-.588-.371-1.008-.371c-.466 0-.84.145-1.12.434-.28.29-.42.723-.42 1.302V17h-1.806V7.2h1.806v3.584c.439-.653 1.134-.98 2.086-.98zM45.996 10h1.806v7h-1.806v-.826c-.542.681-1.302 1.022-2.282 1.022-.934 0-1.734-.357-2.401-1.071-.668-.714-1.001-1.589-1.001-2.625s.333-1.911 1-2.625c.668-.714 1.468-1.071 2.402-1.071.98 0 1.74.34 2.282 1.022V10zm-3.332 4.928c.364.364.826.546 1.386.546.56 0 1.024-.184 1.393-.553.368-.369.553-.842.553-1.421 0-.579-.185-1.052-.553-1.421-.369-.369-.833-.553-1.393-.553s-1.022.184-1.386.553c-.364.369-.546.842-.546 1.421 0 .579.182 1.055.546 1.428zM50.979 11.204c.168-.448.446-.784.833-1.008a2.54 2.54 0 0 1 1.295-.336v2.016c-.55-.065-1.043.047-1.477.336-.434.29-.651.77-.651 1.442V17h-1.806v-7h1.806v1.204zM55.15 14.242c.243.877.901 1.316 1.974 1.316.691 0 1.214-.233 1.568-.7l1.456.84c-.69.999-1.708 1.498-3.052 1.498-1.157 0-2.086-.35-2.786-1.05-.7-.7-1.05-1.582-1.05-2.646 0-1.055.346-1.934 1.036-2.639.691-.705 1.578-1.057 2.66-1.057 1.027 0 1.874.355 2.541 1.064.668.71 1.001 1.587 1.001 2.632 0 .233-.023.48-.07.742H55.15zm-.028-1.4h3.57c-.102-.476-.315-.83-.637-1.064a1.826 1.826 0 0 0-1.099-.35c-.485 0-.886.124-1.204.371-.317.247-.527.595-.63 1.043z"/>
        </g>
        <path d="M8.389 14.722v-2.794c0-3.703 2.495-6.706 5.573-6.706h4.982" stroke="#FFF" stroke-width="1.5"/>
        <path stroke="#FFF" stroke-width="1.5" stroke-linecap="square" d="m14.253 9.444 4.691-4.222L14.254 1M7.003 5.222H2.847C1.827 5.222 1 6.05 1 7.07v11.084C1 19.173 1.827 20 2.847 20h11.084c1.02 0 1.847-.827 1.847-1.847V12.61"/>
    </g>
</svg>
