<svg width="400" height="299" viewBox="0 0 400 299" fill="none" xmlns="http://www.w3.org/2000/svg">
<path d="M400 261.92H0V262.12H400V261.92Z" fill="#EBEBEB"/>
<path d="M359.922 274.792H333.426V274.992H359.922V274.792Z" fill="#EBEBEB"/>
<path d="M264.975 276.968H258.023V277.168H264.975V276.968Z" fill="#EBEBEB"/>
<path d="M332.625 267.368H317.273V267.568H332.625V267.368Z" fill="#EBEBEB"/>
<path d="M76.5208 268.712H41.9688V268.912H76.5208V268.712Z" fill="#EBEBEB"/>
<path d="M88.7124 268.712H83.6484V268.912H88.7124V268.712Z" fill="#EBEBEB"/>
<path d="M180.12 272.088H105.176V272.288H180.12V272.088Z" fill="#EBEBEB"/>
<path d="M189.598 226.24H35.1264C33.9163 226.238 32.7565 225.756 31.9015 224.899C31.0466 224.043 30.5664 222.882 30.5664 221.672V4.528C30.5769 3.32482 31.0618 2.17438 31.9156 1.32657C32.7694 0.478767 33.9232 0.00206111 35.1264 0H189.598C190.81 0 191.972 0.48127 192.828 1.33794C193.685 2.1946 194.166 3.35649 194.166 4.568V221.672C194.166 222.884 193.685 224.045 192.828 224.902C191.972 225.759 190.81 226.24 189.598 226.24ZM35.1264 0.160001C33.9693 0.16212 32.8604 0.623252 32.0429 1.44218C31.2255 2.26111 30.7664 3.37092 30.7664 4.528V221.672C30.7664 222.829 31.2255 223.939 32.0429 224.758C32.8604 225.577 33.9693 226.038 35.1264 226.04H189.598C190.756 226.038 191.866 225.577 192.685 224.758C193.503 223.94 193.964 222.83 193.966 221.672V4.528C193.964 3.37018 193.503 2.26039 192.685 1.44169C191.866 0.622992 190.756 0.162115 189.598 0.160001H35.1264Z" fill="#EBEBEB"/>
<path d="M362.65 226.24H208.17C206.959 226.238 205.798 225.756 204.942 224.9C204.086 224.044 203.604 222.883 203.602 221.672V4.528C203.614 3.32409 204.101 2.17366 204.956 1.32607C205.811 0.478487 206.966 0.00203863 208.17 0H362.65C363.851 0.0041636 365.003 0.481799 365.855 1.32938C366.707 2.17697 367.191 3.3262 367.202 4.528V221.672C367.202 222.881 366.723 224.04 365.869 224.896C365.016 225.753 363.858 226.236 362.65 226.24ZM208.17 0.160001C207.012 0.162115 205.902 0.622992 205.083 1.44169C204.265 2.26039 203.804 3.37018 203.802 4.528V221.672C203.804 222.83 204.265 223.94 205.083 224.758C205.902 225.577 207.012 226.038 208.17 226.04H362.65C363.807 226.038 364.917 225.577 365.736 224.758C366.555 223.94 367.015 222.83 367.018 221.672V4.528C367.015 3.37018 366.555 2.26039 365.736 1.44169C364.917 0.622992 363.807 0.162115 362.65 0.160001H208.17Z" fill="#EBEBEB"/>
<path d="M53.4322 261.92H161.992L161.992 32.4879H53.4322L53.4322 261.92Z" fill="#E6E6E6"/>
<path d="M51.0259 261.92H159.586L159.586 32.4879H51.0259L51.0259 261.92Z" fill="#F5F5F5"/>
<path d="M155.258 257.056V37.3516L55.3618 37.3516L55.3618 257.056H155.258Z" fill="#F0F0F0"/>
<path d="M132.247 257.056L106.935 37.3516H78.3594L103.671 257.056H132.247Z" fill="#F8F8F8"/>
<path d="M57.1836 257.056L57.1836 37.3516H55.3596L55.3596 257.056H57.1836Z" fill="#E6E6E6"/>
<path d="M52.817 62.9121L157.793 62.9121V56.3841L52.817 56.3841V62.9121Z" fill="#F5F5F5"/>
<path d="M219.383 261.92V128.8H175.551V261.92H219.383Z" fill="#F0F0F0"/>
<path d="M216.977 171.704V132.688H177.961V171.704H216.977Z" fill="#F5F5F5"/>
<path d="M216.977 214.224V175.208H177.961V214.224H216.977Z" fill="#F5F5F5"/>
<path d="M216.977 256.744V217.728H177.961V256.744H216.977Z" fill="#F5F5F5"/>
<path d="M206.105 132.176H188.801C188.796 132.708 188.896 133.236 189.098 133.728C189.299 134.221 189.596 134.668 189.972 135.044C190.349 135.421 190.796 135.718 191.289 135.919C191.781 136.12 192.309 136.221 192.841 136.216H202.025C202.559 136.22 203.088 136.119 203.582 135.918C204.076 135.717 204.526 135.42 204.905 135.044C205.284 134.669 205.586 134.222 205.792 133.73C205.997 133.238 206.104 132.709 206.105 132.176Z" fill="#E6E6E6"/>
<path d="M206.105 174.696H188.801C188.801 175.768 189.226 176.796 189.984 177.555C190.741 178.314 191.769 178.742 192.841 178.744H202.025C202.559 178.747 203.088 178.645 203.582 178.443C204.077 178.241 204.526 177.943 204.905 177.567C205.285 177.191 205.586 176.744 205.791 176.251C205.997 175.758 206.104 175.23 206.105 174.696Z" fill="#E6E6E6"/>
<path d="M206.105 217.216H188.801C188.801 218.288 189.226 219.316 189.984 220.075C190.741 220.834 191.769 221.262 192.841 221.264H202.025C202.559 221.267 203.088 221.165 203.582 220.963C204.077 220.761 204.526 220.463 204.905 220.087C205.285 219.711 205.586 219.264 205.791 218.771C205.997 218.278 206.104 217.75 206.105 217.216Z" fill="#E6E6E6"/>
<path d="M241.273 261.92V128.8H219.377V261.92H241.273Z" fill="#F5F5F5"/>
<path d="M336.391 258.648H348.543V158.424H336.391V258.648Z" fill="#F0F0F0"/>
<path d="M230.175 261.92H346.863V258.648H230.175V261.92Z" fill="#F0F0F0"/>
<path d="M336.392 158.424H228.488V258.648H336.392V158.424Z" fill="#F0F0F0"/>
<path d="M249.598 216.992H315.246C318.346 216.992 321.319 215.761 323.511 213.569C325.703 211.377 326.934 208.404 326.934 205.304C326.934 202.204 325.703 199.231 323.511 197.04C321.319 194.848 318.346 193.616 315.246 193.616H249.598C246.498 193.616 243.525 194.848 241.333 197.04C239.142 199.231 237.91 202.204 237.91 205.304C237.91 208.404 239.142 211.377 241.333 213.569C243.525 215.761 246.498 216.992 249.598 216.992ZM315.262 194.4C316.694 194.4 318.112 194.682 319.435 195.23C320.758 195.778 321.96 196.581 322.972 197.594C323.985 198.606 324.788 199.809 325.336 201.131C325.884 202.454 326.166 203.872 326.166 205.304C326.166 206.736 325.884 208.154 325.336 209.477C324.788 210.8 323.985 212.002 322.972 213.015C321.96 214.027 320.758 214.83 319.435 215.378C318.112 215.926 316.694 216.208 315.262 216.208H249.598C246.706 216.208 243.933 215.059 241.888 213.015C239.843 210.97 238.694 208.196 238.694 205.304C238.694 202.412 239.843 199.639 241.888 197.594C243.933 195.549 246.706 194.4 249.598 194.4H315.262Z" fill="#F0F0F0"/>
<path d="M249.598 246.072H315.246C318.346 246.072 321.319 244.84 323.511 242.648C325.703 240.457 326.934 237.484 326.934 234.384C326.934 231.284 325.703 228.311 323.511 226.119C321.319 223.927 318.346 222.696 315.246 222.696H249.598C246.498 222.696 243.525 223.927 241.333 226.119C239.142 228.311 237.91 231.284 237.91 234.384C237.91 237.484 239.142 240.457 241.333 242.648C243.525 244.84 246.498 246.072 249.598 246.072ZM315.246 223.48C316.702 223.44 318.152 223.693 319.509 224.223C320.866 224.753 322.103 225.55 323.147 226.566C324.191 227.582 325.02 228.797 325.587 230.139C326.154 231.481 326.445 232.923 326.445 234.38C326.445 235.837 326.154 237.279 325.587 238.621C325.02 239.963 324.191 241.178 323.147 242.194C322.103 243.21 320.866 244.006 319.509 244.536C318.152 245.067 316.702 245.319 315.246 245.28H249.598C248.142 245.319 246.692 245.067 245.336 244.536C243.979 244.006 242.742 243.21 241.698 242.194C240.654 241.178 239.824 239.963 239.257 238.621C238.691 237.279 238.399 235.837 238.399 234.38C238.399 232.923 238.691 231.481 239.257 230.139C239.824 228.797 240.654 227.582 241.698 226.566C242.742 225.55 243.979 224.753 245.336 224.223C246.692 223.693 248.142 223.44 249.598 223.48H315.246Z" fill="#F0F0F0"/>
<path d="M272.538 202.784H292.346C292.992 202.782 293.612 202.524 294.069 202.067C294.526 201.61 294.784 200.99 294.786 200.344C294.784 199.697 294.526 199.078 294.069 198.621C293.612 198.164 292.992 197.906 292.346 197.904H272.538C271.891 197.906 271.272 198.164 270.815 198.621C270.358 199.078 270.1 199.697 270.098 200.344C270.1 200.99 270.358 201.61 270.815 202.067C271.272 202.524 271.891 202.782 272.538 202.784Z" fill="#EBEBEB"/>
<path d="M249.598 187.912H315.246C318.346 187.912 321.319 186.681 323.511 184.489C325.703 182.297 326.934 179.324 326.934 176.224C326.934 173.124 325.703 170.151 323.511 167.959C321.319 165.768 318.346 164.536 315.246 164.536H249.598C246.498 164.536 243.525 165.768 241.333 167.959C239.142 170.151 237.91 173.124 237.91 176.224C237.91 179.324 239.142 182.297 241.333 184.489C243.525 186.681 246.498 187.912 249.598 187.912ZM315.246 165.32C318.138 165.32 320.912 166.469 322.956 168.514C325.001 170.559 326.15 173.332 326.15 176.224C326.15 179.116 325.001 181.89 322.956 183.934C320.912 185.979 318.138 187.128 315.246 187.128H249.598C246.706 187.128 243.933 185.979 241.888 183.934C239.843 181.89 238.694 179.116 238.694 176.224C238.694 173.332 239.843 170.559 241.888 168.514C243.933 166.469 246.706 165.32 249.598 165.32H315.246Z" fill="#F0F0F0"/>
<path d="M272.538 173.704H292.346C292.992 173.702 293.612 173.444 294.069 172.987C294.526 172.53 294.784 171.91 294.786 171.264C294.775 170.624 294.513 170.013 294.057 169.564C293.601 169.115 292.986 168.864 292.346 168.864H272.538C271.897 168.864 271.283 169.115 270.826 169.564C270.37 170.013 270.108 170.624 270.098 171.264C270.1 171.91 270.358 172.53 270.815 172.987C271.272 173.444 271.891 173.702 272.538 173.704Z" fill="#EBEBEB"/>
<path d="M272.538 231.856H292.346C292.986 231.856 293.601 231.605 294.057 231.156C294.513 230.707 294.775 230.096 294.786 229.456C294.773 228.817 294.511 228.207 294.055 227.759C293.599 227.31 292.985 227.058 292.346 227.056H272.538C271.898 227.058 271.285 227.31 270.829 227.759C270.373 228.207 270.11 228.817 270.098 229.456C270.108 230.096 270.37 230.707 270.826 231.156C271.283 231.605 271.897 231.856 272.538 231.856Z" fill="#EBEBEB"/>
<path d="M226.263 158.424H336.383V153.328H226.263V158.424Z" fill="#F0F0F0"/>
<path d="M350.927 153.336H336.391V158.432H350.927V153.336Z" fill="#E6E6E6"/>
<path d="M257.598 73.1116C260.054 74.3436 266.71 73.0156 264.494 77.5196C263.218 79.8789 261.692 82.0943 259.942 84.1276C257.462 87.1916 257.934 90.5276 260.862 91.7116C261.49 91.9269 262.045 92.3151 262.462 92.8316C263.814 94.7676 260.63 97.3596 259.062 99.2956C257.494 101.232 256.87 103.136 258.022 104.576C259.302 106.176 261.958 105.576 264.07 106.056C269.142 107.216 263.926 114.216 264.462 117.808C264.83 120.272 266.862 120.96 269.542 121.304C271.758 121.592 274.71 121.792 274.83 124.056C274.942 126.024 272.382 128.248 271.71 130.312C271.391 131.2 271.27 132.147 271.356 133.086C271.442 134.026 271.732 134.936 272.206 135.752C272.656 136.439 273.244 137.026 273.933 137.475C274.621 137.924 275.395 138.225 276.206 138.36C278.718 138.888 282.518 138.36 282.702 141.176C282.782 142.44 281.902 143.576 282.51 144.728C282.847 145.214 283.285 145.621 283.795 145.92C284.305 146.22 284.874 146.405 285.462 146.464C287.868 146.831 290.319 146.788 292.71 146.336C295.662 145.792 300.022 143.192 298.422 140.688C298.146 140.329 297.802 140.028 297.409 139.802C297.017 139.577 296.583 139.432 296.134 139.376C295.43 139.232 293.366 139.456 293.102 138.976C292.838 138.496 293.55 136.648 293.574 135.984C293.647 134.14 293.356 132.299 292.718 130.568C291.903 128.304 290.604 126.245 288.91 124.536C288.206 123.824 287.094 123.304 286.95 122.272C286.806 121.24 287.454 120.104 288.174 119.072C289.302 117.472 291.054 115.968 291.686 114.272C292.678 111.6 290.27 110.752 288.038 110.144C286.022 109.592 283.366 108.888 284.038 106.44C284.534 104.672 286.766 103.24 287.43 101.496C288.334 99.1836 286.142 99.0956 284.582 98.2956C282.542 97.2236 282.03 95.3036 282.766 92.8796C283.99 88.8796 291.326 83.2236 287.566 80.6236C286.614 79.9596 285.726 79.7436 285.166 78.7436C284.606 77.7436 284.462 76.3436 283.662 75.3996C282.398 73.8716 279.782 73.6156 278.422 72.1996C275.614 69.2876 281.67 64.1276 276.142 62.8956C274.975 62.7454 273.87 62.2839 272.942 61.5596C272.438 61.0876 272.022 58.8076 271.454 58.6476C268.918 57.9436 264.35 62.8636 262.91 64.3756C261.158 66.1996 254.686 71.6396 257.598 73.1116Z" fill="#E0E0E0"/>
<path d="M301.112 140.968C299.608 138.176 293.024 135.368 297.392 132.168C299.748 130.564 302.282 129.241 304.944 128.224C308.768 126.624 310.128 122.944 308.192 119.896C307.747 119.255 307.472 118.512 307.392 117.736C307.232 114.92 311.432 114.248 313.848 113.232C316.264 112.216 317.848 110.664 317.584 108.472C317.312 106.072 314.656 105 313.048 103.2C309.192 98.8635 317.544 94.9355 318.992 90.9195C319.984 88.1675 318.592 86.2235 316.384 84.1835C314.584 82.5115 312.08 80.4795 313.184 78.0795C314.144 75.9995 317.592 75.3115 319.288 73.6155C320.071 72.8488 320.693 71.934 321.119 70.9246C321.544 69.9151 321.765 68.8311 321.768 67.7355C321.73 65.816 320.974 63.9805 319.648 62.5915C317.712 60.4875 314.048 58.6875 315.416 55.6715C316.024 54.3275 317.408 53.7275 317.488 52.1515C317.464 51.4691 317.303 50.7984 317.016 50.1789C316.729 49.5593 316.321 49.0033 315.816 48.5435C313.943 46.7074 311.753 45.225 309.352 44.1675C306.456 42.8875 301.216 42.8475 301.288 46.4075C301.378 47.4557 301.844 48.436 302.6 49.1675C303.152 49.7595 305.088 50.8075 305.064 51.4635C305.04 52.1195 303.464 53.5675 303.04 54.2315C301.98 56.1184 301.257 58.176 300.904 60.3115C300.409 63.1425 300.455 66.0417 301.04 68.8555C301.272 70.0155 301.984 71.2555 301.552 72.3915C301.12 73.5275 299.952 74.2955 298.776 74.8795C296.928 75.8075 294.568 76.2795 293.104 77.6235C290.792 79.7435 292.464 82.1115 294.112 84.1195C295.6 85.9355 297.56 88.3035 295.648 90.3915C294.264 91.8955 291.52 91.9915 290.048 93.3435C288.016 95.1595 289.896 96.6075 290.848 98.4315C292.064 100.832 291.496 103.072 289.544 105.096C286.344 108.44 276.824 109.672 278.752 114.696C279.24 115.968 279.896 116.744 279.872 118.12C279.848 119.496 279.216 121 279.408 122.48C279.704 124.832 281.872 126.72 282.32 129.016C283.232 133.744 275.12 135.272 279.344 139.96C280.331 140.884 281.063 142.047 281.472 143.336C281.672 144.136 280.808 146.72 281.224 147.24C283.088 149.536 289.752 147.344 291.832 146.68C294.288 145.84 302.912 144.288 301.112 140.968Z" fill="#F5F5F5"/>
<path d="M317.977 134.672C317.977 134.672 317.177 153.336 286.633 153.336C256.089 153.336 255.289 134.672 255.289 134.672H317.977Z" fill="#F0F0F0"/>
<path d="M199.999 298.048C285.665 298.048 355.111 293.994 355.111 288.992C355.111 283.991 285.665 279.936 199.999 279.936C114.333 279.936 44.8867 283.991 44.8867 288.992C44.8867 293.994 114.333 298.048 199.999 298.048Z" fill="#D8D8D8"/>
<g opacity="0.2">
<path d="M288.584 282.296L237.632 188.12L186.68 282.296H288.584Z" fill="#7EEB94"/>
<path d="M288.584 122.976L237.632 217.144L186.68 122.976H288.584Z" fill="#7EEB94"/>
</g>
<path d="M246.969 178.576L239.513 192.352C239.33 192.691 239.058 192.975 238.727 193.172C238.397 193.37 238.018 193.474 237.633 193.474C237.247 193.474 236.869 193.37 236.538 193.172C236.207 192.975 235.936 192.691 235.753 192.352L228.297 178.576C227.625 177.331 227.287 175.932 227.318 174.518C227.349 173.103 227.747 171.72 228.473 170.506C229.199 169.291 230.228 168.286 231.459 167.589C232.69 166.891 234.082 166.526 235.497 166.528H239.809C241.22 166.533 242.607 166.903 243.833 167.603C245.058 168.303 246.082 169.309 246.803 170.523C247.524 171.736 247.918 173.116 247.947 174.527C247.977 175.939 247.639 177.334 246.969 178.576Z" fill="#7EEB94"/>
<path d="M238.441 258.52L261.601 268.04C262.053 268.231 262.425 268.571 262.656 269.004C262.886 269.436 262.961 269.935 262.867 270.417C262.773 270.898 262.517 271.333 262.14 271.647C261.764 271.962 261.291 272.137 260.801 272.144H214.505C214.014 272.137 213.541 271.962 213.165 271.647C212.788 271.333 212.532 270.898 212.438 270.417C212.344 269.935 212.419 269.436 212.649 269.004C212.88 268.571 213.253 268.231 213.705 268.04L236.801 258.52C237.06 258.411 237.339 258.355 237.621 258.355C237.902 258.355 238.181 258.411 238.441 258.52Z" fill="#7EEB94"/>
<path d="M237.632 240.408C239.271 240.408 240.6 239.079 240.6 237.44C240.6 235.801 239.271 234.472 237.632 234.472C235.993 234.472 234.664 235.801 234.664 237.44C234.664 239.079 235.993 240.408 237.632 240.408Z" fill="#7EEB94"/>
<path d="M237.633 207.968C238.477 207.968 239.161 207.284 239.161 206.44C239.161 205.596 238.477 204.912 237.633 204.912C236.79 204.912 236.105 205.596 236.105 206.44C236.105 207.284 236.79 207.968 237.633 207.968Z" fill="#7EEB94"/>
<path d="M237.634 222.952C238.593 222.952 239.37 222.175 239.37 221.216C239.37 220.257 238.593 219.48 237.634 219.48C236.676 219.48 235.898 220.257 235.898 221.216C235.898 222.175 236.676 222.952 237.634 222.952Z" fill="#7EEB94"/>
<path d="M288.329 277.648H186.937C185.706 277.652 184.527 278.143 183.658 279.014C182.788 279.885 182.299 281.065 182.297 282.296C182.301 283.525 182.791 284.703 183.661 285.572C184.53 286.442 185.708 286.932 186.937 286.936H288.329C289.558 286.932 290.736 286.442 291.605 285.572C292.474 284.703 292.965 283.525 292.969 282.296C292.967 281.065 292.477 279.885 291.608 279.014C290.739 278.143 289.56 277.652 288.329 277.648Z" fill="#7EEB94"/>
<path d="M288.329 118.336H186.937C185.708 118.34 184.53 118.83 183.661 119.7C182.791 120.569 182.301 121.747 182.297 122.976C182.301 124.205 182.791 125.383 183.661 126.252C184.53 127.122 185.708 127.612 186.937 127.616H288.329C289.558 127.612 290.736 127.122 291.605 126.252C292.474 125.383 292.965 124.205 292.969 122.976C292.965 121.747 292.474 120.569 291.605 119.7C290.736 118.83 289.558 118.34 288.329 118.336Z" fill="#7EEB94"/>
<path d="M155.706 280.544L150.066 278.712L153.57 265.408L159.21 267.24L155.706 280.544Z" fill="#FF8B7B"/>
<path d="M149.976 277.96L156.312 280.016C156.419 280.047 156.51 280.119 156.565 280.216C156.62 280.313 156.635 280.428 156.608 280.536L155.288 285.656C155.204 285.919 155.018 286.139 154.772 286.266C154.527 286.394 154.24 286.419 153.976 286.336C151.784 285.584 150.776 285.112 147.984 284.208C146.264 283.648 140.616 282.192 138.248 281.424C135.88 280.656 136.704 278.336 137.776 278.448C142.576 278.952 146.896 278.728 148.896 277.992C149.243 277.862 149.622 277.85 149.976 277.96Z" fill="#263238"/>
<path opacity="0.2" d="M159.21 267.248L153.57 265.408L151.762 272.272L157.41 274.104L159.21 267.248Z" fill="black"/>
<path d="M174.626 132.576C174.626 132.576 164.506 179.416 162.13 196.256C159.53 214.696 149.762 270.072 149.762 270.072L160.234 272.968C160.234 272.968 174.746 219.264 178.986 201.336C183.586 181.872 195.786 132.536 195.786 132.536L174.626 132.576Z" fill="#7EEB94"/>
<path opacity="0.3" d="M187.137 147.936C183.137 157.008 181.161 176.736 182.713 185.816C185.545 174.176 188.953 160.336 191.585 149.688C190.697 146.6 189.225 143.2 187.137 147.936Z" fill="black"/>
<path d="M160.497 273.176L149.281 270.088L149.505 265.52L162.129 269.88L160.497 273.176Z" fill="#263238"/>
<path d="M147.658 278.296C148.18 278.448 148.716 278.545 149.258 278.584C149.285 278.585 149.312 278.579 149.335 278.567C149.359 278.554 149.379 278.535 149.392 278.512C149.405 278.488 149.412 278.462 149.411 278.435C149.41 278.408 149.401 278.382 149.386 278.36C149.242 278.176 148.002 276.568 147.226 276.616C147.137 276.62 147.05 276.647 146.975 276.695C146.899 276.743 146.837 276.809 146.794 276.888C146.714 277.004 146.666 277.139 146.655 277.279C146.644 277.42 146.67 277.561 146.73 277.688C146.957 277.995 147.287 278.21 147.658 278.296ZM148.93 278.296C147.858 278.168 147.122 277.896 146.946 277.552C146.91 277.471 146.895 277.381 146.905 277.292C146.915 277.203 146.949 277.119 147.002 277.048C147.023 277.009 147.052 276.977 147.089 276.953C147.125 276.929 147.167 276.915 147.21 276.912C147.626 276.864 148.41 277.648 148.93 278.272V278.296Z" fill="#263238"/>
<path d="M149.201 278.576H149.265C149.288 278.571 149.31 278.56 149.328 278.545C149.346 278.53 149.36 278.51 149.369 278.488C149.369 278.424 150.049 276.84 149.657 276.088C149.608 275.993 149.538 275.911 149.452 275.849C149.366 275.786 149.266 275.745 149.161 275.728C149.047 275.694 148.926 275.699 148.815 275.742C148.705 275.786 148.613 275.865 148.553 275.968C148.225 276.544 148.681 277.992 149.137 278.512L149.201 278.576ZM149.201 276.04C149.254 276.055 149.304 276.082 149.347 276.118C149.39 276.153 149.424 276.198 149.449 276.248C149.583 276.892 149.507 277.562 149.233 278.16C148.846 277.561 148.7 276.838 148.825 276.136C148.825 276.064 148.937 275.984 149.137 276.024L149.201 276.04Z" fill="#263238"/>
<path d="M185.393 88.1037C185.089 88.8237 184.833 89.3677 184.553 89.9757C184.273 90.5837 183.969 91.1437 183.673 91.7197C183.081 92.8797 182.457 94.0077 181.809 95.1357C180.5 97.4007 179.057 99.5859 177.489 101.68C175.883 103.845 174.104 105.876 172.169 107.752C170.107 109.781 167.769 111.51 165.225 112.888L165.025 112.992C164.701 113.159 164.357 113.283 164.001 113.36C162.179 113.739 160.292 113.664 158.505 113.144C157.02 112.699 155.608 112.042 154.313 111.192C152.14 109.73 150.189 107.963 148.521 105.944C146.971 104.102 145.562 102.148 144.305 100.096C143.063 98.0792 141.959 95.981 141.001 93.8157C140.754 93.243 140.722 92.6004 140.91 92.006C141.099 91.4115 141.495 90.9049 142.027 90.5792C142.559 90.2535 143.191 90.1304 143.806 90.2327C144.421 90.3349 144.979 90.6555 145.377 91.1357L145.457 91.2317C146.777 92.8317 148.209 94.5357 149.649 96.0877C151.052 97.6329 152.542 99.0967 154.113 100.472C155.501 101.73 157.044 102.805 158.705 103.672C159.326 103.991 159.992 104.212 160.681 104.328C161.066 104.399 161.464 104.366 161.833 104.232L160.609 104.704C162.262 103.589 163.77 102.272 165.097 100.784C166.541 99.1612 167.878 97.4455 169.097 95.6477C170.361 93.8077 171.561 91.8797 172.689 89.8957C173.265 88.9117 173.817 87.9117 174.337 86.8957L175.137 85.3837C175.385 84.8957 175.657 84.3357 175.849 83.9437L175.897 83.8317C176.48 82.601 177.523 81.6482 178.801 81.178C180.079 80.7079 181.491 80.758 182.732 81.3175C183.974 81.8771 184.947 82.9014 185.441 84.1703C185.936 85.4393 185.912 86.8516 185.377 88.1037H185.393Z" fill="#263238"/>
<path opacity="0.3" d="M172.313 98.9679C174.825 92.2959 180.161 92.1839 182.473 93.9519C182.305 94.2639 182.129 94.5759 181.953 94.8879C180.698 97.072 179.322 99.1846 177.833 101.216C176.304 103.306 174.622 105.279 172.801 107.12C172.225 107.688 171.633 108.248 171.017 108.792C170.805 105.464 171.245 102.127 172.313 98.9679Z" fill="black"/>
<path d="M140.802 94.2318L135.602 94.4238L136.898 88.8638C138.688 88.9526 140.465 89.2206 142.202 89.6638C142.518 89.7595 142.807 89.9284 143.046 90.1567C143.285 90.385 143.466 90.6664 143.576 90.978C143.686 91.2896 143.721 91.6227 143.678 91.9504C143.635 92.278 143.516 92.5909 143.33 92.8638C143.048 93.2773 142.672 93.6173 142.232 93.8553C141.792 94.0934 141.302 94.2224 140.802 94.2318Z" fill="#FF8B7B"/>
<path d="M143.713 89.5359C143.203 89.1313 142.618 88.8297 141.993 88.6479C141.561 90.9199 138.793 94.752 138.793 94.752H140.961C141.24 94.7528 141.516 94.6923 141.769 94.5748C142.022 94.4573 142.246 94.2856 142.425 94.0719L143.945 92.2479C144.111 92.0563 144.238 91.8332 144.316 91.5918C144.395 91.3505 144.424 91.0958 144.403 90.8429C144.381 90.5899 144.309 90.3439 144.19 90.1194C144.072 89.8949 143.91 89.6965 143.713 89.5359Z" fill="#7EEB94"/>
<path d="M131.617 91.8639L133.073 87.9438L136.881 88.8719L135.585 94.4239L131.617 91.8639Z" fill="#FF8B7B"/>
<path d="M196.999 283.136H191.071L190.863 269.4H196.791L196.999 283.136Z" fill="#FF8B7B"/>
<path d="M190.76 282.448H197.424C197.479 282.445 197.535 282.454 197.587 282.474C197.64 282.493 197.687 282.522 197.728 282.56C197.769 282.598 197.802 282.644 197.825 282.695C197.849 282.745 197.862 282.8 197.864 282.856L198.184 288.128C198.184 288.405 198.075 288.671 197.88 288.869C197.686 289.066 197.421 289.179 197.144 289.184C194.824 289.144 193.72 289.008 190.744 289.008C188.944 289.008 182.92 289.192 180.432 289.192C177.944 289.192 178.032 286.728 179.064 286.504C183.8 285.512 188.024 284.104 189.696 282.816C189.997 282.572 190.373 282.442 190.76 282.448Z" fill="#263238"/>
<path opacity="0.2" d="M196.799 269.408H190.863L190.975 276.488H196.903L196.799 269.408Z" fill="black"/>
<path d="M186.194 132.576C186.194 132.576 183.93 184.104 184.89 201.088C185.946 219.68 188.154 274.776 188.154 274.776H199.018C199.018 274.776 201.754 221.176 202.41 202.776C203.122 182.776 206.346 132.576 206.346 132.576H186.194Z" fill="#7EEB94"/>
<path d="M199.456 274.776H187.72L186.824 270.408L199.776 271.056L199.456 274.776Z" fill="#263238"/>
<path d="M188.657 283.48C189.196 283.466 189.733 283.396 190.257 283.272C190.283 283.263 190.305 283.248 190.324 283.229C190.342 283.209 190.355 283.186 190.361 283.16C190.364 283.134 190.361 283.108 190.351 283.084C190.341 283.061 190.325 283.04 190.305 283.024C190.113 282.888 188.433 281.744 187.705 282.032C187.624 282.064 187.553 282.116 187.497 282.183C187.441 282.25 187.403 282.33 187.385 282.416C187.349 282.546 187.346 282.683 187.377 282.814C187.407 282.946 187.471 283.067 187.561 283.168C187.876 283.403 188.266 283.514 188.657 283.48ZM189.857 283.072C188.793 283.28 188.017 283.248 187.737 282.976C187.68 282.908 187.641 282.827 187.624 282.74C187.607 282.653 187.613 282.564 187.641 282.48C187.647 282.437 187.664 282.397 187.691 282.363C187.718 282.329 187.753 282.303 187.793 282.288C188.185 282.136 189.169 282.632 189.857 283.072Z" fill="#263238"/>
<path d="M190.209 283.272C190.23 283.278 190.252 283.278 190.273 283.272C190.293 283.26 190.31 283.244 190.322 283.225C190.335 283.205 190.343 283.183 190.345 283.16C190.345 283.088 190.481 281.384 189.881 280.808C189.805 280.733 189.712 280.677 189.611 280.644C189.51 280.61 189.402 280.601 189.297 280.616C189.18 280.62 189.067 280.663 188.977 280.739C188.888 280.814 188.825 280.917 188.801 281.032C188.657 281.68 189.545 282.92 190.137 283.272C190.16 283.279 190.185 283.279 190.209 283.272ZM189.409 280.872C189.464 280.87 189.518 280.88 189.569 280.901C189.62 280.922 189.666 280.952 189.705 280.992C190.035 281.562 190.173 282.225 190.097 282.88C189.585 282.44 188.993 281.496 189.081 281.072C189.081 280.992 189.145 280.896 189.345 280.872H189.409Z" fill="#263238"/>
<path d="M209.312 84.7516C209.401 84.2515 209.388 83.7386 209.273 83.2436C209.159 82.7487 208.947 82.2818 208.648 81.871C208.349 81.4602 207.97 81.1139 207.535 80.8528C207.099 80.5918 206.615 80.4213 206.112 80.3516H206.048C204.136 80.0716 201.736 79.7836 199.384 79.6716C194.894 79.4154 190.394 79.4154 185.904 79.6716C183.832 79.8636 181.808 80.2076 180.192 80.5196H180.128C179.118 80.7237 178.182 81.1996 177.422 81.896C176.663 82.5924 176.107 83.4829 175.816 84.4716C173.88 90.9916 171.568 104.304 174.592 132.568H206.312C206.536 129.736 205.904 120.52 206.368 108.784C206.832 100.718 207.815 92.6907 209.312 84.7516Z" fill="#263238"/>
<path opacity="0.3" d="M209.01 86.4956C208.354 90.2876 207.546 95.4476 206.986 100.896C206.986 100.896 204.089 95.2156 203.561 90.3596C203.033 85.5036 207.202 85.1356 209.01 86.4956Z" fill="black"/>
<g opacity="0.2">
<path d="M187.735 87.2476C187.669 87.2446 187.606 87.2202 187.556 87.1782C187.505 87.1362 187.469 87.0788 187.454 87.0147C187.438 86.9507 187.444 86.8833 187.47 86.8229C187.497 86.7625 187.542 86.7122 187.599 86.6796L197.487 81.5516C197.557 81.5174 197.638 81.5116 197.713 81.5355C197.787 81.5593 197.85 81.6109 197.887 81.6796C197.924 81.7508 197.931 81.8335 197.907 81.9099C197.883 81.9863 197.83 82.0502 197.759 82.0876L187.871 87.1996C187.829 87.2243 187.783 87.2406 187.735 87.2476Z" fill="#F8F8F8"/>
<path d="M192.266 87.7116C192.227 87.7132 192.188 87.7062 192.152 87.691C192.116 87.6758 192.084 87.6527 192.058 87.6236L186.634 82.2396C186.58 82.1819 186.551 82.1062 186.551 82.0276C186.551 81.949 186.58 81.8733 186.634 81.8156C186.691 81.7604 186.767 81.7295 186.846 81.7295C186.925 81.7295 187.001 81.7604 187.058 81.8156L192.474 87.2076C192.529 87.2644 192.56 87.3404 192.56 87.4196C192.56 87.4988 192.529 87.5749 192.474 87.6316C192.446 87.6581 192.414 87.6788 192.378 87.6925C192.342 87.7063 192.304 87.7128 192.266 87.7116Z" fill="#F8F8F8"/>
<path d="M199.408 79.6638C194.921 79.4076 190.423 79.4076 185.936 79.6638H185.712C185.603 80.0755 185.577 80.5048 185.636 80.9265C185.695 81.3482 185.838 81.7539 186.056 82.1198C186.808 83.3198 188.384 83.9918 190.752 84.1198H191.64C198.04 84.1198 200.512 80.2318 200.616 80.0638L200.84 79.7038L199.408 79.6638Z" fill="#F8F8F8"/>
</g>
<path d="M186.576 79.616C190.496 78.688 191.184 76.264 190.92 73.6C190.858 72.9327 190.754 72.2701 190.608 71.616L195.52 67.5359L199.128 64.5439C198.128 68.8879 197 76.7999 199.928 79.6959C199.928 79.6959 197.528 83.6959 190.784 83.3439C185.128 83.0319 186.576 79.616 186.576 79.616Z" fill="#FF8B7B"/>
<path opacity="0.2" d="M190.609 71.6156C190.755 72.2698 190.859 72.9324 190.921 73.5996C192.753 73.2316 195.201 71.2796 195.457 69.4076C195.547 68.7879 195.569 68.1601 195.521 67.5356L190.609 71.6156Z" fill="black"/>
<path d="M188.003 50.7998C185.339 52.3998 185.763 56.3998 185.043 59.2638C186.739 59.4318 189.411 56.4158 189.411 56.4158L191.011 51.8318L188.003 50.7998Z" fill="#263238"/>
<path d="M202.168 58.8474C200.464 64.4954 199.768 67.8794 196.152 70.2394C194.989 71.017 193.635 71.4619 192.238 71.5259C190.84 71.59 189.452 71.2706 188.223 70.6025C186.994 69.9344 185.971 68.943 185.264 67.7354C184.558 66.5279 184.195 65.1502 184.216 63.7514C184.216 58.3674 186.984 50.0314 193.16 48.8794C194.491 48.5949 195.873 48.6656 197.169 49.0843C198.464 49.5031 199.626 50.2552 200.539 51.2651C201.451 52.2751 202.082 53.5073 202.368 54.8382C202.654 56.169 202.585 57.5517 202.168 58.8474Z" fill="#FF8B7B"/>
<path d="M196.85 63.6398C200.85 58.9998 195.85 56.7118 199.938 53.4878C195.338 53.7038 187.762 53.3758 186.41 50.2238C185.058 47.0718 189.218 42.7998 192.682 42.3998C196.682 41.9358 195.818 46.8878 195.818 46.8878C195.818 46.8878 211.122 45.9358 206.266 52.4878C209.946 52.2638 208.93 58.2158 202.53 63.2398C200.922 63.7758 196.85 63.6398 196.85 63.6398Z" fill="#263238"/>
<path d="M205.344 52.5677C205.344 52.5677 208.496 51.6317 208.392 49.1357C209.528 49.9197 209.648 52.3037 205.344 52.5677Z" fill="#263238"/>
<path d="M203.107 64.7434C202.186 65.8807 200.9 66.6638 199.467 66.9594C197.651 67.2874 197.227 65.6074 198.131 63.9674C198.931 62.4954 200.875 60.5514 202.507 60.9594C204.139 61.3674 204.267 63.3114 203.107 64.7434Z" fill="#FF8B7B"/>
<path d="M193.059 58.7042C192.947 59.1682 192.611 59.5041 192.299 59.4321C191.987 59.3601 191.835 58.9442 191.947 58.4802C192.059 58.0162 192.395 57.6802 192.699 57.7442C193.003 57.8082 193.171 58.2322 193.059 58.7042Z" fill="#263238"/>
<path d="M187.752 57.6395C187.64 58.1035 187.304 58.4395 187 58.3755C186.696 58.3115 186.528 57.8875 186.64 57.4235C186.752 56.9595 187.088 56.6235 187.392 56.6875C187.696 56.7515 187.864 57.1755 187.752 57.6395Z" fill="#263238"/>
<path d="M189.384 58.208C188.481 59.5251 187.404 60.7144 186.184 61.744C186.456 62.0372 186.788 62.2672 187.159 62.4179C187.529 62.5685 187.928 62.6362 188.328 62.616L189.384 58.208Z" fill="#FF5652"/>
<path d="M189.959 64.2478C190.513 64.2998 191.072 64.2387 191.601 64.0682C192.131 63.8976 192.62 63.6213 193.039 63.2558C193.053 63.2438 193.064 63.229 193.071 63.2125C193.079 63.1959 193.083 63.178 193.083 63.1598C193.083 63.1417 193.079 63.1237 193.071 63.1072C193.064 63.0906 193.053 63.0758 193.039 63.0638C193.012 63.0379 192.977 63.0234 192.939 63.0234C192.902 63.0234 192.866 63.0379 192.839 63.0638C192.38 63.4548 191.836 63.734 191.25 63.8797C190.664 64.0255 190.053 64.0337 189.463 63.9038C189.445 63.9004 189.427 63.9006 189.409 63.9044C189.391 63.9082 189.375 63.9155 189.36 63.926C189.345 63.9364 189.332 63.9497 189.322 63.9652C189.313 63.9806 189.306 63.9978 189.303 64.0158C189.296 64.0529 189.304 64.0913 189.325 64.1227C189.346 64.1542 189.378 64.1761 189.415 64.1838L189.959 64.2478Z" fill="#263238"/>
<path d="M195.104 57.4077C195.148 57.4224 195.196 57.4224 195.24 57.4077C195.274 57.3931 195.304 57.3718 195.329 57.3451C195.354 57.3185 195.374 57.2871 195.387 57.2527C195.399 57.2183 195.405 57.1817 195.403 57.1451C195.401 57.1085 195.392 57.0727 195.376 57.0397C195.204 56.6307 194.934 56.2705 194.589 55.9913C194.244 55.7121 193.836 55.5226 193.4 55.4397C193.326 55.4305 193.251 55.4503 193.192 55.4951C193.132 55.5399 193.092 55.6061 193.08 55.6797C193.076 55.7165 193.079 55.7539 193.089 55.7895C193.099 55.8252 193.116 55.8585 193.139 55.8876C193.162 55.9166 193.191 55.9407 193.223 55.9586C193.256 55.9765 193.291 55.9877 193.328 55.9917C193.667 56.0633 193.984 56.2155 194.251 56.4356C194.518 56.6556 194.729 56.937 194.864 57.2557C194.888 57.2996 194.922 57.3367 194.964 57.3634C195.006 57.39 195.054 57.4053 195.104 57.4077Z" fill="#263238"/>
<path d="M186.441 54.4555C186.484 54.4711 186.531 54.4749 186.576 54.4664C186.621 54.458 186.663 54.4376 186.697 54.4075C186.973 54.1775 187.299 54.0151 187.649 53.9332C187.999 53.8512 188.363 53.852 188.713 53.9355C188.748 53.947 188.785 53.9515 188.822 53.9487C188.859 53.9459 188.895 53.9359 188.928 53.9192C188.961 53.9025 188.991 53.8794 189.015 53.8513C189.039 53.8232 189.058 53.7906 189.069 53.7555C189.081 53.7203 189.085 53.6831 189.082 53.6462C189.08 53.6093 189.069 53.5732 189.053 53.5402C189.036 53.5071 189.013 53.4777 188.985 53.4535C188.957 53.4294 188.924 53.411 188.889 53.3995C188.451 53.2913 187.994 53.2863 187.554 53.3849C187.114 53.4834 186.703 53.6829 186.353 53.9675C186.295 54.0132 186.257 54.0801 186.248 54.1535C186.239 54.227 186.26 54.301 186.305 54.3595C186.337 54.4067 186.386 54.4407 186.441 54.4555Z" fill="#263238"/>
<path d="M209.603 82.4718L210.267 83.3758L210.867 84.2238C211.267 84.7918 211.627 85.3598 212.003 85.9278C212.731 87.0718 213.419 88.2318 214.083 89.3998C215.414 91.7347 216.621 94.1381 217.699 96.5998C218.259 97.8158 218.739 99.0798 219.251 100.32C219.763 101.56 220.195 102.848 220.587 104.144C221.43 106.723 222.124 109.349 222.667 112.008L222.731 112.312C222.848 112.849 222.859 113.404 222.761 113.944C222.664 114.485 222.46 115.002 222.163 115.464C221.132 117.046 219.909 118.494 218.523 119.776C217.097 121.083 215.478 122.162 213.723 122.976C211.99 123.783 210.136 124.297 208.235 124.496C207.305 124.592 206.368 124.608 205.435 124.544C204.971 124.544 204.507 124.456 204.043 124.384L203.339 124.248L202.539 124.048C202.445 124.025 202.363 123.966 202.313 123.884C202.262 123.801 202.245 123.702 202.267 123.608L203.371 118.968C203.371 118.928 203.579 118.92 203.707 118.888L204.147 118.8C204.451 118.736 204.747 118.664 205.051 118.584C205.643 118.423 206.224 118.22 206.787 117.976C207.877 117.528 208.898 116.928 209.819 116.192C211.62 114.709 213.06 112.835 214.027 110.712L213.523 114.168C212.835 111.904 212.107 109.664 211.227 107.448C210.347 105.232 209.387 103.056 208.339 100.912C207.291 98.7678 206.171 96.6478 204.963 94.5838C204.371 93.5518 203.747 92.5358 203.123 91.5278L202.171 90.0398L201.699 89.3198L201.259 88.6798L201.099 88.4398C200.307 87.3121 199.996 85.9162 200.234 84.5592C200.472 83.2022 201.239 81.9952 202.367 81.2038C203.495 80.4124 204.89 80.1014 206.247 80.3392C207.604 80.577 208.811 81.3441 209.603 82.4718Z" fill="#263238"/>
<path d="M199.025 123.584L197.305 126.4L204.769 126.104C204.769 126.104 206.729 121.08 204.057 120.288L203.017 120.568C201.353 121.033 199.927 122.111 199.025 123.584Z" fill="#FF8B7B"/>
<path d="M202.098 119.64C201.561 120.004 201.099 120.468 200.738 121.008C202.77 122.112 205.602 125.872 205.602 125.872L206.258 123.808C206.342 123.542 206.366 123.26 206.328 122.984C206.291 122.708 206.193 122.443 206.042 122.208L204.802 120.208C204.667 119.988 204.488 119.798 204.276 119.649C204.065 119.5 203.825 119.396 203.572 119.343C203.319 119.29 203.058 119.289 202.805 119.34C202.551 119.391 202.311 119.493 202.098 119.64Z" fill="#7EEB94"/>
<path d="M197.961 130.736L204.113 130.192L204.769 126.104L197.305 126.4L197.961 130.736Z" fill="#FF8B7B"/>
<path d="M122.447 33.0716L122.039 32.3836C123.212 31.6883 124.434 31.0787 125.695 30.5596L125.999 31.3036C124.773 31.804 123.586 32.395 122.447 33.0716Z" fill="#7EEB94"/>
<path d="M110.769 47.1998L109.969 46.9278C111.865 41.6766 115.296 37.1167 119.817 33.8398L120.289 34.4878C115.911 37.6732 112.594 42.1027 110.769 47.1998Z" fill="#7EEB94"/>
<path d="M136.159 80.9355C149.759 80.9355 160.783 69.911 160.783 56.3115C160.783 42.712 149.759 31.6875 136.159 31.6875C122.56 31.6875 111.535 42.712 111.535 56.3115C111.535 69.911 122.56 80.9355 136.159 80.9355Z" fill="#7EEB94"/>
<path opacity="0.6" d="M156.73 56.3111C156.728 61.1096 155.049 65.7566 151.983 69.4476C148.916 73.1386 144.656 75.6413 139.939 76.5225C135.222 77.4038 130.346 76.6081 126.153 74.2731C121.961 71.9382 118.718 68.211 116.984 63.7367C115.25 59.2625 115.135 54.3228 116.658 49.7726C118.182 45.2225 121.249 41.3484 125.328 38.8209C129.407 36.2934 134.241 35.2715 138.994 35.9323C143.747 36.5931 148.119 38.8948 151.354 42.4391C151.36 42.4362 151.367 42.4347 151.374 42.4347C151.381 42.4347 151.387 42.4362 151.394 42.4391C154.843 46.2343 156.746 51.1829 156.73 56.3111Z" fill="#F8F8F8"/>
<path d="M156.727 56.3119C156.727 60.31 155.562 64.2214 153.374 67.5676C151.186 70.9138 148.07 73.5498 144.407 75.1532C140.745 76.7565 136.694 77.2577 132.752 76.5954C128.809 75.933 125.144 74.136 122.207 71.4239C118.615 67.5101 116.677 62.3585 116.798 57.0478C116.92 51.7371 119.091 46.6793 122.857 42.9335C126.624 39.1876 131.694 37.0443 137.005 36.9523C142.316 36.8603 147.457 38.8268 151.351 42.4399C151.357 42.4371 151.364 42.4356 151.371 42.4356C151.378 42.4356 151.385 42.4371 151.391 42.4399C154.84 46.2351 156.743 51.1837 156.727 56.3119Z" fill="#F8F8F8"/>
<path d="M136.16 57.5117C136.003 57.512 135.847 57.4811 135.701 57.4207C135.556 57.3602 135.423 57.2716 135.312 57.1597L125.28 47.1277C125.162 47.0179 125.068 46.8854 125.002 46.7382C124.937 46.591 124.901 46.4321 124.899 46.271C124.896 46.1098 124.925 45.9498 124.986 45.8004C125.046 45.651 125.136 45.5152 125.25 45.4013C125.364 45.2873 125.5 45.1975 125.649 45.1371C125.798 45.0768 125.958 45.0471 126.12 45.05C126.281 45.0528 126.44 45.0881 126.587 45.1537C126.734 45.2193 126.867 45.3138 126.976 45.4317L136.16 54.6157L141.464 49.3117C141.692 49.0998 141.993 48.9844 142.304 48.9899C142.614 48.9953 142.911 49.1213 143.131 49.3411C143.351 49.561 143.477 49.8576 143.482 50.1685C143.488 50.4794 143.372 50.7803 143.16 51.0077L137.008 57.1597C136.783 57.3841 136.478 57.5106 136.16 57.5117Z" fill="#263238"/>
</svg>
