<svg width="29" height="29" viewBox="0 0 29 29" fill="none" xmlns="http://www.w3.org/2000/svg">
<mask id="mask0_6024_13105" style="mask-type:alpha" maskUnits="userSpaceOnUse" x="0" y="0" width="29" height="29">
<rect x="0.167969" y="0.223145" width="28.6827" height="28.6827" fill="#D9D9D9"/>
</mask>
<g mask="url(#mask0_6024_13105)">
<path d="M7.33749 16.9538C6.68018 16.9538 6.11748 16.7198 5.6494 16.2517C5.18131 15.7836 4.94727 15.2209 4.94727 14.5636C4.94727 13.9063 5.18131 13.3436 5.6494 12.8755C6.11748 12.4074 6.68018 12.1733 7.33749 12.1733C7.99481 12.1733 8.55751 12.4074 9.02559 12.8755C9.49368 13.3436 9.72772 13.9063 9.72772 14.5636C9.72772 15.2209 9.49368 15.7836 9.02559 16.2517C8.55751 16.7198 7.99481 16.9538 7.33749 16.9538ZM14.5082 16.9538C13.8509 16.9538 13.2882 16.7198 12.8201 16.2517C12.352 15.7836 12.1179 15.2209 12.1179 14.5636C12.1179 13.9063 12.352 13.3436 12.8201 12.8755C13.2882 12.4074 13.8509 12.1733 14.5082 12.1733C15.1655 12.1733 15.7282 12.4074 16.1963 12.8755C16.6644 13.3436 16.8984 13.9063 16.8984 14.5636C16.8984 15.2209 16.6644 15.7836 16.1963 16.2517C15.7282 16.7198 15.1655 16.9538 14.5082 16.9538ZM21.6789 16.9538C21.0215 16.9538 20.4588 16.7198 19.9908 16.2517C19.5227 15.7836 19.2886 15.2209 19.2886 14.5636C19.2886 13.9063 19.5227 13.3436 19.9908 12.8755C20.4588 12.4074 21.0215 12.1733 21.6789 12.1733C22.3362 12.1733 22.8989 12.4074 23.367 12.8755C23.835 13.3436 24.0691 13.9063 24.0691 14.5636C24.0691 15.2209 23.835 15.7836 23.367 16.2517C22.8989 16.7198 22.3362 16.9538 21.6789 16.9538Z" fill="#303030"/>
</g>
</svg>
