<svg width="71" height="71" viewBox="0 0 71 71" fill="none" xmlns="http://www.w3.org/2000/svg">
<path d="M35.5 71C15.9253 71 0 55.0747 0 35.5C0 15.9253 15.9253 0 35.5 0C55.0747 0 71 15.9253 71 35.5C71 55.0747 55.0747 71 35.5 71Z" fill="#72C472"/>
<path d="M28.4001 53.2522C27.4913 53.2522 26.5825 52.9043 25.8903 52.212L15.2403 41.562C13.8522 40.174 13.8522 37.9304 15.2403 36.5423C16.6283 35.1543 18.8719 35.1543 20.26 36.5423L28.4001 44.6825L50.7403 22.3423C52.1283 20.9543 54.3719 20.9543 55.76 22.3423C57.148 23.7304 57.148 25.974 55.76 27.362L30.91 52.212C30.2177 52.9043 29.3089 53.2522 28.4001 53.2522Z" fill="white"/>
</svg>
