<svg xmlns="http://www.w3.org/2000/svg" width="32" height="32" viewBox="0 0 32 32"><g class="nc-icon-wrapper" stroke-linecap="square" stroke-linejoin="miter" stroke-width="2" fill="none" stroke="#212121" stroke-miterlimit="10"><line x1="20" y1="18" x2="27" y2="18" stroke="#3bd55a"/> <line x1="20" y1="23" x2="27" y2="23" stroke="#3bd55a"/> <circle cx="11" cy="17" r="2" stroke="#3bd55a"/> <path d="M16,26H6v0 c0-2.209,1.791-4,4-4h2C14.209,22,16,23.791,16,26L16,26z" stroke="#3bd55a"/> <polyline points="19,8 31,8 31,31 1,31 1,8 13,8 "/> <path d="M19,11h-6V4 c0-1.657,1.343-3,3-3h0c1.657,0,3,1.343,3,3V11z"/></g></svg>