<svg width="32" height="32" viewBox="0 0 32 32" fill="none" xmlns="http://www.w3.org/2000/svg">
<mask id="mask0_6024_21543" style="mask-type:alpha" maskUnits="userSpaceOnUse" x="0" y="0" width="32" height="32">
<rect width="32" height="32" fill="#D9D9D9"/>
</mask>
<g mask="url(#mask0_6024_21543)">
<path d="M1.33398 40.2174V36.2628C1.33398 35.4625 1.52843 34.7269 1.91732 34.056C2.30621 33.3852 2.82287 32.8732 3.46732 32.5201C4.8451 31.7904 6.2451 31.2431 7.66732 30.8783C9.08954 30.5134 10.534 30.331 12.0007 30.331C13.4673 30.331 14.9118 30.5134 16.334 30.8783C17.7562 31.2431 19.1562 31.7904 20.534 32.5201C21.1784 32.8732 21.6951 33.3852 22.084 34.056C22.4729 34.7269 22.6673 35.4625 22.6673 36.2628V40.2174H1.33398ZM25.334 40.2174V35.9804C25.334 34.9446 25.0618 33.9501 24.5173 32.9968C23.9729 32.0435 23.2007 31.2255 22.2007 30.5428C23.334 30.6841 24.4007 30.9253 25.4007 31.2667C26.4007 31.608 27.334 32.0258 28.2007 32.5201C29.0007 32.9909 29.6118 33.5146 30.034 34.0914C30.4562 34.6681 30.6673 35.2977 30.6673 35.9804V40.2174H25.334ZM12.0007 28.9186C10.534 28.9186 9.27843 28.3655 8.23398 27.2591C7.18954 26.1528 6.66732 24.8228 6.66732 23.2693C6.66732 21.7157 7.18954 20.3857 8.23398 19.2794C9.27843 18.173 10.534 17.6199 12.0007 17.6199C13.4673 17.6199 14.7229 18.173 15.7673 19.2794C16.8118 20.3857 17.334 21.7157 17.334 23.2693C17.334 24.8228 16.8118 26.1528 15.7673 27.2591C14.7229 28.3655 13.4673 28.9186 12.0007 28.9186ZM25.334 23.2693C25.334 24.8228 24.8118 26.1528 23.7673 27.2591C22.7229 28.3655 21.4673 28.9186 20.0007 28.9186C19.7562 28.9186 19.4451 28.8892 19.0673 28.8304C18.6895 28.7715 18.3784 28.7068 18.134 28.6362C18.734 27.8829 19.1951 27.0473 19.5173 26.1293C19.8395 25.2112 20.0007 24.2579 20.0007 23.2693C20.0007 22.2806 19.8395 21.3273 19.5173 20.4093C19.1951 19.4912 18.734 18.6556 18.134 17.9023C18.4451 17.7846 18.7562 17.7081 19.0673 17.6728C19.3784 17.6375 19.6895 17.6199 20.0007 17.6199C21.4673 17.6199 22.7229 18.173 23.7673 19.2794C24.8118 20.3857 25.334 21.7157 25.334 23.2693ZM4.00065 37.3927H20.0007V36.2628C20.0007 36.0039 19.9395 35.7685 19.8173 35.5567C19.6951 35.3448 19.534 35.18 19.334 35.0623C18.134 34.4268 16.9229 33.9501 15.7007 33.6323C14.4784 33.3146 13.2451 33.1557 12.0007 33.1557C10.7562 33.1557 9.52287 33.3146 8.30065 33.6323C7.07843 33.9501 5.86732 34.4268 4.66732 35.0623C4.46732 35.18 4.30621 35.3448 4.18398 35.5567C4.06176 35.7685 4.00065 36.0039 4.00065 36.2628V37.3927ZM12.0007 26.0939C12.734 26.0939 13.3618 25.8174 13.884 25.2642C14.4062 24.711 14.6673 24.046 14.6673 23.2693C14.6673 22.4925 14.4062 21.8275 13.884 21.2743C13.3618 20.7211 12.734 20.4446 12.0007 20.4446C11.2673 20.4446 10.6395 20.7211 10.1173 21.2743C9.5951 21.8275 9.33398 22.4925 9.33398 23.2693C9.33398 24.046 9.5951 24.711 10.1173 25.2642C10.6395 25.8174 11.2673 26.0939 12.0007 26.0939Z" fill="#303030"/>
</g>
</svg>
