<?xml version="1.0" encoding="utf-8"?>
<!-- Generator: Adobe Illustrator 25.4.1, SVG Export Plug-In . SVG Version: 6.00 Build 0)  -->
<svg xmlns="http://www.w3.org/2000/svg" width="25" height="25" viewBox="0 0 25 25">
	 viewBox="0 0 25 25" style="enable-background:new 0 0 25 25;" xml:space="preserve">
<style type="text/css">
	.st0{fill:#242429;}
</style>
<g>
	<g>
		<path class="st0" d="M21.7,15.2h-3.1V4c0-0.5-0.5-1-1-1s-1,0.4-1,1v11.2h-3.1c-0.1,0-0.2,0.1-0.3,0.2c-0.1,0.1,0,0.2,0,0.3
			l4.2,5.1c0.1,0.1,0.2,0.1,0.3,0.1c0.1,0,0.2,0,0.3-0.1l4.2-5.1c0.1-0.1,0.1-0.2,0-0.3C21.9,15.3,21.8,15.2,21.7,15.2L21.7,15.2z
			 M9.5,13.2c0-0.1-0.2-0.2-0.3-0.2H7.7c-0.1,0-0.2,0.1-0.3,0.2L5,20.6c0,0.1,0,0.2,0,0.3C5.1,21,5.2,21,5.3,21h1.1
			c0.1,0,0.2-0.1,0.3-0.2l0.5-1.7h2.7l0.5,1.7c0,0.1,0.2,0.2,0.3,0.2h1.1c0.1,0,0.2,0,0.2-0.1c0.1-0.1,0.1-0.2,0-0.3L9.5,13.2z
			 M7.5,17.7c0.5-1.8,0.9-3,1-3.5c0,0.1,0.1,0.3,0.1,0.5C8.7,15,9,16,9.5,17.7H7.5L7.5,17.7z M10.7,9.6H7l3.8-5.4
			c0-0.1,0.1-0.1,0.1-0.2V3.3c0-0.2-0.1-0.3-0.3-0.3H5.4C5.2,3,5.1,3.1,5.1,3.3v0.8c0,0.2,0.1,0.3,0.3,0.3h3.4L5.1,9.8
			C5,9.9,5,9.9,5,10v0.7C5,10.9,5.1,11,5.3,11h5.4c0.2,0,0.3-0.1,0.3-0.3V9.9C11,9.7,10.9,9.6,10.7,9.6z"/>
	</g>
</g>
</svg>
