<svg xmlns="http://www.w3.org/2000/svg" width="25" height="25" viewBox="0 0 25 25">
    <g fill="none" fill-rule="evenodd">
        <g fill="#242429" fill-rule="nonzero">
            <g>
                <g>
                    <path d="M21.654 15.214h-3.116V3.964c0-.532-.464-.964-1.038-.964-.574 0-1.038.432-1.038.964v11.25h-3.116c-.131 0-.25.07-.31.178-.058.109-.045.24.033.337l4.154 5.142c.065.081.168.129.277.129.109 0 .212-.048.277-.129l4.154-5.142c.078-.098.091-.228.032-.337-.058-.109-.178-.178-.31-.178zM9.536 3.213C9.494 3.085 9.381 3 9.254 3h-1.52c-.126 0-.24.085-.282.213l-2.435 7.362c-.032.098-.018.206.038.29.056.085.148.135.245.135h1.067c.132 0 .249-.092.287-.226l.48-1.67h2.734l.478 1.67c.039.134.155.226.287.226H11.7c.097 0 .189-.05.245-.135.056-.084.07-.192.038-.29L9.536 3.213zM7.532 7.687c.533-1.834.856-2.984.969-3.45.027.132.072.31.136.535.063.225.346 1.197.85 2.915H7.531zM10.677 19.6H7.035l3.801-5.422c.038-.054.058-.118.058-.183v-.675c0-.177-.144-.32-.322-.32H5.428c-.178 0-.323.143-.323.32v.76c0 .177.145.32.323.32h3.437l-3.807 5.417C5.02 19.871 5 19.935 5 20v.68c0 .177.144.32.323.32h5.354c.179 0 .323-.143.323-.32v-.76c0-.177-.144-.32-.323-.32z" transform="translate(-429.000000, -236.000000) translate(289.000000, 173.000000) translate(140.000000, 63.000000)"/>
                </g>
            </g>
        </g>
    </g>
</svg>
