<svg width="16" height="16" viewBox="0 0 16 16" fill="none" xmlns="http://www.w3.org/2000/svg">
<g clip-path="url(#clip0_1_375)">
<path d="M5 6C5.55228 6 6 5.55228 6 5C6 4.44772 5.55228 4 5 4C4.44772 4 4 4.44772 4 5C4 5.55228 4.44772 6 5 6Z" fill="black"/>
<path d="M7.707 0.293C7.51951 0.105451 7.26519 5.66374e-05 7 0L1 0C0.734784 0 0.48043 0.105357 0.292893 0.292893C0.105357 0.48043 0 0.734784 0 1L0 7C5.66374e-05 7.26519 0.105451 7.51951 0.293 7.707L8 15.414C8.37506 15.7889 8.88367 15.9996 9.414 15.9996C9.94433 15.9996 10.4529 15.7889 10.828 15.414L15.414 10.828C15.7889 10.4529 15.9996 9.94433 15.9996 9.414C15.9996 8.88367 15.7889 8.37506 15.414 8L7.707 0.293ZM9.414 14L2 6.586V2H6.586L14 9.414L9.414 14Z" fill="black"/>
</g>
<defs>
<clipPath id="clip0_1_375">
<rect width="16" height="16" fill="white"/>
</clipPath>
</defs>
</svg>
