<svg width="13" height="13" viewBox="0 0 13 13" fill="none" xmlns="http://www.w3.org/2000/svg">
<path d="M4.66667 1H1.73333C1.32832 1 1 1.32832 1 1.73333V4.66667C1 5.07168 1.32832 5.4 1.73333 5.4H4.66667C5.07168 5.4 5.4 5.07168 5.4 4.66667V1.73333C5.4 1.32832 5.07168 1 4.66667 1Z" stroke="#828282" stroke-linecap="round" stroke-linejoin="round"/>
<path d="M11.2668 1H8.33343C7.92842 1 7.6001 1.32832 7.6001 1.73333V4.66667C7.6001 5.07168 7.92842 5.4 8.33343 5.4H11.2668C11.6718 5.4 12.0001 5.07168 12.0001 4.66667V1.73333C12.0001 1.32832 11.6718 1 11.2668 1Z" stroke="#828282" stroke-linecap="round" stroke-linejoin="round"/>
<path d="M4.66667 7.6001H1.73333C1.32832 7.6001 1 7.92842 1 8.33343V11.2668C1 11.6718 1.32832 12.0001 1.73333 12.0001H4.66667C5.07168 12.0001 5.4 11.6718 5.4 11.2668V8.33343C5.4 7.92842 5.07168 7.6001 4.66667 7.6001Z" stroke="#828282" stroke-linecap="round" stroke-linejoin="round"/>
<path d="M11.2668 7.6001H8.33343C7.92842 7.6001 7.6001 7.92842 7.6001 8.33343V11.2668C7.6001 11.6718 7.92842 12.0001 8.33343 12.0001H11.2668C11.6718 12.0001 12.0001 11.6718 12.0001 11.2668V8.33343C12.0001 7.92842 11.6718 7.6001 11.2668 7.6001Z" stroke="#828282" stroke-linecap="round" stroke-linejoin="round"/>
</svg>
