<svg xmlns="http://www.w3.org/2000/svg" width="38" height="44" viewBox="0 0 38 44">
  <g id="Group_11714" data-name="Group 11714" transform="translate(19034 -15048)">
    <g id="privacy" transform="translate(-19039 15046)">
      <g id="Group_11713" data-name="Group 11713">
        <path id="Path_12035" data-name="Path 12035" d="M42.217,6.023l-18-4a1.024,1.024,0,0,0-.434,0l-18,4A1,1,0,0,0,5,7V27a19,19,0,0,0,38,0V7A1,1,0,0,0,42.217,6.023Z" fill="#72c472"/>
        <path id="Path_12036" data-name="Path 12036" d="M42.164,6.005l-18-4a1,1,0,0,0-.164,0V45.979a19.02,19.02,0,0,0,18.947-19v-20A1,1,0,0,0,42.164,6.005Z" fill="#4da34d"/>
      </g>
    </g>
    <path id="Path_12037" data-name="Path 12037" d="M-19026.312,15074.127l10.955,9.009,17.654-21.771" transform="translate(-1.848 -2.953)" fill="none" stroke="#fff" stroke-width="2"/>
  </g>
</svg>
