<svg xmlns="http://www.w3.org/2000/svg" xmlns:xlink="http://www.w3.org/1999/xlink" width="14" height="14" viewBox="0 0 12 12">
    <defs>
        <path fill="#242429" id="b2sa4jozga" d="M5.5 0C8.538 0 11 2.462 11 5.5S8.538 11 5.5 11 0 8.538 0 5.5 2.462 0 5.5 0zm0 1C3.015 1 1 3.015 1 5.5S3.015 10 5.5 10 10 7.985 10 5.5 7.985 1 5.5 1zm0 1c.276 0 .5.224.5.5v2.793l1.354 1.353c.195.196.195.512 0 .708-.196.195-.512.195-.708 0l-1.5-1.5C5.053 5.76 5 5.633 5 5.5v-3c0-.276.224-.5.5-.5z"/>
    </defs>
    <g fill="none" fill-rule="evenodd">
        <g>
            <g>
                <g transform="translate(-352.000000, -474.000000) translate(318.000000, 402.000000) translate(34.500000, 72.500000)">
                    <use fill="#CFCFCF" fill-rule="nonzero" xlink:href="#b2sa4jozga"/>
                </g>
            </g>
        </g>
    </g>
</svg>
