<svg width="25" height="24" viewBox="0 0 25 24" fill="none" xmlns="http://www.w3.org/2000/svg">
<g clip-path="url(#clip0_670_319)">
<path d="M12.3349 4.5C12.1347 4.5 11.9427 4.57902 11.8012 4.71967C11.6596 4.86032 11.5801 5.05109 11.5801 5.25V12C11.5801 12.1989 11.6596 12.3897 11.8012 12.5303C11.9427 12.671 12.1347 12.75 12.3349 12.75H19.1283C19.3285 12.75 19.5205 12.671 19.6621 12.5303C19.8036 12.3897 19.8832 12.1989 19.8832 12C19.8832 11.8011 19.8036 11.6103 19.6621 11.4697C19.5205 11.329 19.3285 11.25 19.1283 11.25H13.0897V5.25C13.0897 5.05109 13.0102 4.86032 12.8686 4.71967C12.7271 4.57902 12.5351 4.5 12.3349 4.5Z" fill="#535353"/>
<path d="M16.1016 0.60029C14.288 0.00963773 12.3593 -0.145661 10.4736 0.147118C8.58795 0.439897 6.7989 1.17242 5.25308 2.28468C3.70726 3.39693 2.44865 4.85726 1.58038 6.54603C0.712104 8.23479 0.25887 10.1039 0.257812 12.0003C0.257812 12.1992 0.337339 12.39 0.478896 12.5306C0.620454 12.6713 0.812447 12.7503 1.01264 12.7503C1.21283 12.7503 1.40483 12.6713 1.54638 12.5306C1.68794 12.39 1.76747 12.1992 1.76747 12.0003C1.76827 9.63892 2.56986 7.3467 4.04287 5.4936C5.51587 3.64049 7.57435 2.33461 9.88606 1.78673C12.1978 1.23885 14.6279 1.48092 16.7841 2.47388C18.9403 3.46685 20.6969 5.15277 21.7704 7.25954C22.8345 9.34137 23.1699 11.7162 22.7235 14.0086C22.2771 16.301 21.0745 18.3802 19.3056 19.9175C17.5368 21.4547 15.3028 22.3623 12.9568 22.4967C10.6107 22.6312 8.28647 21.9848 6.35153 20.6598L8.53449 18.4908C8.63117 18.3947 8.69977 18.2743 8.73296 18.1425C8.76614 18.0107 8.76267 17.8724 8.7229 17.7424C8.68314 17.6124 8.60859 17.4956 8.5072 17.4044C8.40581 17.3133 8.28141 17.2512 8.14726 17.2248L1.64292 15.9498C1.52177 15.9259 1.39658 15.932 1.27833 15.9674C1.16008 16.0028 1.05237 16.0665 0.964669 16.1529C0.876966 16.2393 0.811939 16.3458 0.775294 16.4629C0.738649 16.5801 0.731505 16.7045 0.754489 16.825L1.97504 23.35C2.00013 23.4844 2.06165 23.6093 2.15298 23.7114C2.24431 23.8135 2.36198 23.8889 2.49327 23.9295C2.62457 23.97 2.76451 23.9741 2.898 23.9414C3.03148 23.9087 3.15344 23.8403 3.2507 23.7438L5.2759 21.7315C6.68905 22.7469 8.30673 23.4461 10.0177 23.7811C11.7287 24.1161 13.4924 24.079 15.1876 23.6723C16.8828 23.2656 18.4692 22.4989 19.8378 21.425C21.2064 20.3511 22.3247 18.9954 23.1158 17.4512C23.9069 15.907 24.3521 14.2109 24.4207 12.4795C24.4893 10.7481 24.1797 9.02247 23.5132 7.42127C22.8467 5.82006 21.8391 4.38126 20.5597 3.2038C19.2803 2.02634 17.7594 1.13815 16.1016 0.60029Z" fill="#535353"/>
</g>
<defs>
<clipPath id="clip0_670_319">
<rect width="24.1545" height="24" fill="white" transform="translate(0.257812)"/>
</clipPath>
</defs>
</svg>
