<svg xmlns="http://www.w3.org/2000/svg" width="203" height="38" viewBox="0 0 203 38">
    <g fill="none" fill-rule="evenodd">
        <g>
            <path fill="#00B67A" d="M164.933 38H203V0h-38.067v38zM123.7 38h38.067V0H123.7v38zm-41.233 0h38.066V0H82.467v38zm-41.234 0H79.3V0H41.233v38zM0 38h38.067V0H0v38z" transform="translate(-618.000000, -3147.000000) translate(618.000000, 3147.000000)"/>
            <path fill="#FFF" d="M198 16.517h-10.16L184.716 7l-3.125 9.517h-10.16l8.225 5.894-3.125 9.517 8.225-5.894 5.06-3.615L198 16.517zm-13.284 9.549l5.772-1.457L192.9 32l-8.184-5.934zm-27.824-9.55h-10.16L143.609 7l-3.125 9.517h-10.16l8.225 5.894-3.125 9.517 8.225-5.894 5.06-3.615 8.184-5.902zm-13.284 9.55l5.772-1.457L151.792 32l-8.184-5.934zm-27.824-9.55h-10.16L102.5 7l-3.125 9.517h-10.16l8.225 5.894-3.124 9.517 8.224-5.894 5.06-3.615 8.184-5.902zm-13.284 9.55l5.772-1.457L110.684 32l-8.184-5.934zm-27.832-9.55H64.517L61.392 7l-3.125 9.517h-10.16l8.226 5.894-3.125 9.517 8.225-5.894 5.06-3.615 8.175-5.902zm-13.276 9.55l5.772-1.457L69.577 32l-8.185-5.934zm-27.831-9.55H23.4L20.284 7l-3.124 9.517H7l8.225 5.894-3.125 9.517 8.225-5.894 5.06-3.615 8.176-5.902zm-13.277 9.55l5.772-1.457L28.47 32l-8.185-5.934z" transform="translate(-618.000000, -3147.000000) translate(618.000000, 3147.000000)"/>
        </g>
    </g>
</svg>
