<svg width="123" height="23" viewBox="0 0 123 23" xmlns="http://www.w3.org/2000/svg">
    <g fill="none" fill-rule="evenodd">
        <path fill="#00B67A" d="M0 23h23V0H0zM25 23h23V0H25zM50 23h23V0H50zM75 23h23V0H75zM100 23h23V0h-23z"/>
        <path d="M119 9.71h-6.117L111.002 4l-1.882 5.71h-6.117l4.952 3.536-1.881 5.71 4.952-3.536 3.046-2.169L119 9.711zm-7.998 5.73 3.475-.875L115.929 19l-4.927-3.56zM94.249 9.71h-6.117L86.251 4l-1.882 5.71h-6.117l4.952 3.536-1.881 5.71 4.952-3.536 3.046-2.169 4.928-3.54zm-7.998 5.73 3.475-.875L91.179 19l-4.928-3.56zM69.498 9.71h-6.117L61.5 4l-1.881 5.71h-6.117l4.952 3.536-1.882 5.71 4.952-3.536 3.047-2.169 4.927-3.54zM61.5 15.44l3.475-.875L66.428 19 61.5 15.44zM44.743 9.71H38.63L36.749 4l-1.881 5.71H28.75l4.952 3.536-1.882 5.71 4.953-3.536 3.046-2.169 4.923-3.54zm-7.994 5.73 3.475-.875L41.677 19l-4.928-3.56zM19.992 9.71h-6.117L11.998 4l-1.881 5.71H4l4.952 3.536-1.881 5.71 4.952-3.536 3.046-2.169 4.923-3.54zm-7.994 5.73 3.476-.875L16.926 19l-4.928-3.56z" fill="#FFF"/>
    </g>
</svg>
