<svg xmlns="http://www.w3.org/2000/svg" xmlns:xlink="http://www.w3.org/1999/xlink" width="329" height="355.813" viewBox="0 0 329 355.813">
  <defs>
    <filter id="Path_11779" x="0" y="7.813" width="329" height="348" filterUnits="userSpaceOnUse">
      <feOffset dx="5" dy="5" input="SourceAlpha"/>
      <feGaussianBlur stdDeviation="10" result="blur"/>
      <feFlood flood-opacity="0.204"/>
      <feComposite operator="in" in2="blur"/>
      <feComposite in="SourceGraphic"/>
    </filter>
  </defs>
  <g id="Group_11175" data-name="Group 11175" transform="translate(4925.125 4855.813)">
    <g transform="matrix(1, 0, 0, 1, -4925.13, -4855.81)" filter="url(#Path_11779)">
      <path id="Path_11779-2" data-name="Path 11779" d="M10,0H259a10,10,0,0,1,10,10V278a10,10,0,0,1-10,10H10A10,10,0,0,1,0,278V10A10,10,0,0,1,10,0Z" transform="translate(25 32.81)" fill="#fff"/>
    </g>
    <path id="Path_11786" data-name="Path 11786" d="M16.5,0h113a16.5,16.5,0,0,1,0,33H16.5a16.5,16.5,0,0,1,0-33Z" transform="translate(-4838.125 -4593)" fill="#73ea8b"/>
    <path id="Path_11780" data-name="Path 11780" d="M5.568.8a4.973,4.973,0,0,1,3.8,1.624A5.619,5.619,0,0,1,10.88,6.4a5.619,5.619,0,0,1-1.512,3.976A4.973,4.973,0,0,1,5.568,12H1.2V.8Zm0,9.792a3.608,3.608,0,0,0,2.8-1.2A4.288,4.288,0,0,0,9.456,6.4,4.288,4.288,0,0,0,8.368,3.408a3.608,3.608,0,0,0-2.8-1.2H2.688v8.384Zm13.168.4a4.279,4.279,0,0,1-5.976,0A4.053,4.053,0,0,1,11.536,8a4.166,4.166,0,0,1,4.208-4.208,4.1,4.1,0,0,1,2.992,1.216A4.04,4.04,0,0,1,19.968,8,4.04,4.04,0,0,1,18.736,10.992Zm-2.992-.144A2.788,2.788,0,0,0,18.576,8a2.788,2.788,0,0,0-2.832-2.848,2.72,2.72,0,0,0-2,.816A2.758,2.758,0,0,0,12.928,8a2.758,2.758,0,0,0,.816,2.032A2.72,2.72,0,0,0,15.744,10.848Zm12.064.144a4.279,4.279,0,0,1-5.976,0A4.053,4.053,0,0,1,20.608,8a4.166,4.166,0,0,1,4.208-4.208,4.1,4.1,0,0,1,2.992,1.216A4.04,4.04,0,0,1,29.04,8,4.04,4.04,0,0,1,27.808,10.992Zm-2.992-.144A2.788,2.788,0,0,0,27.648,8a2.788,2.788,0,0,0-2.832-2.848,2.72,2.72,0,0,0-2,.816A2.758,2.758,0,0,0,22,8a2.758,2.758,0,0,0,.816,2.032A2.72,2.72,0,0,0,24.816,10.848Zm6.7-5.5a2.509,2.509,0,0,1,2.5-1.488V5.312a2.522,2.522,0,0,0-1.76.544,2.3,2.3,0,0,0-.736,1.9V12H30.128V4H31.52Zm10.5,6.864a4.746,4.746,0,0,1-2.68-.736,3.894,3.894,0,0,1-1.56-2.016l1.28-.736a2.818,2.818,0,0,0,2.992,2.032,2.824,2.824,0,0,0,1.76-.472,1.51,1.51,0,0,0,.608-1.256,1.341,1.341,0,0,0-.608-1.2,8.739,8.739,0,0,0-2.032-.848q-.7-.224-1.072-.36a9.092,9.092,0,0,1-.92-.416,2.9,2.9,0,0,1-.824-.576,2.9,2.9,0,0,1-.488-.776,2.624,2.624,0,0,1-.216-1.088A2.857,2.857,0,0,1,39.28,1.448a3.762,3.762,0,0,1,2.5-.856,4,4,0,0,1,2.312.672,4.183,4.183,0,0,1,1.48,1.776l-1.248.72a2.563,2.563,0,0,0-2.544-1.728A2.286,2.286,0,0,0,40.3,2.48a1.474,1.474,0,0,0-.56,1.216,1.3,1.3,0,0,0,.528,1.12,6.912,6.912,0,0,0,1.824.8q.464.144.656.208t.6.224q.408.16.6.256t.52.272a2.115,2.115,0,0,1,.488.336q.16.16.376.392a1.54,1.54,0,0,1,.312.472,3.785,3.785,0,0,1,.168.552,2.947,2.947,0,0,1,.072.664,2.865,2.865,0,0,1-1.072,2.344A4.3,4.3,0,0,1,42.016,12.208ZM52.464,4h1.392v8H52.464V10.848a2.844,2.844,0,0,1-2.592,1.36,2.974,2.974,0,0,1-2.256-.888,3.342,3.342,0,0,1-.848-2.408V4H48.16V8.832a2.063,2.063,0,0,0,.528,1.512,1.951,1.951,0,0,0,1.456.536,2.256,2.256,0,0,0,1.68-.648,2.734,2.734,0,0,0,.64-1.992Zm7.36-.208a3.838,3.838,0,0,1,2.864,1.224A4.131,4.131,0,0,1,63.872,8a4.131,4.131,0,0,1-1.184,2.984,3.838,3.838,0,0,1-2.864,1.224A3.394,3.394,0,0,1,56.8,10.624V15.2H55.408V4H56.8V5.376A3.394,3.394,0,0,1,59.824,3.792Zm-.176,7.072a2.725,2.725,0,0,0,2.016-.824A2.785,2.785,0,0,0,62.48,8a2.785,2.785,0,0,0-.816-2.04,2.9,2.9,0,0,0-4.048,0A2.785,2.785,0,0,0,56.8,8a2.785,2.785,0,0,0,.816,2.04A2.744,2.744,0,0,0,59.648,10.864Zm6.3-2.224a2.638,2.638,0,0,0,.984,1.664,3.06,3.06,0,0,0,1.912.592,2.5,2.5,0,0,0,2.3-1.168l1.184.672a3.909,3.909,0,0,1-3.52,1.808,4.188,4.188,0,0,1-3.1-1.192A4.087,4.087,0,0,1,64.528,8,4.139,4.139,0,0,1,65.7,4.992a4.033,4.033,0,0,1,3.024-1.2,3.68,3.68,0,0,1,2.872,1.24A4.314,4.314,0,0,1,72.7,8.016a4.2,4.2,0,0,1-.048.624ZM68.72,5.1a2.657,2.657,0,0,0-2.768,2.32H71.3A2.666,2.666,0,0,0,70.4,5.7,2.566,2.566,0,0,0,68.72,5.1Zm6.416.24a2.509,2.509,0,0,1,2.5-1.488V5.312a2.522,2.522,0,0,0-1.76.544,2.3,2.3,0,0,0-.736,1.9V12H73.744V4h1.392ZM84.032,4h1.5l-3.2,8H80.7L77.5,4h1.5l2.512,6.512Zm2.832-1.456a.913.913,0,0,1-.672-.272.894.894,0,0,1-.272-.656.921.921,0,0,1,.272-.664.9.9,0,0,1,.672-.28.881.881,0,0,1,.656.28.921.921,0,0,1,.272.664.894.894,0,0,1-.272.656A.894.894,0,0,1,86.864,2.544ZM86.16,12V4h1.392v8ZM90.3,6.16a.842.842,0,0,0,.464.744,4.159,4.159,0,0,0,1.12.448q.656.168,1.312.384a2.543,2.543,0,0,1,1.12.736,1.931,1.931,0,0,1,.464,1.336,2.1,2.1,0,0,1-.84,1.744,3.393,3.393,0,0,1-2.152.656,3.743,3.743,0,0,1-2-.512,2.862,2.862,0,0,1-1.184-1.36l1.2-.688a1.688,1.688,0,0,0,.72.912,2.3,2.3,0,0,0,1.264.336,2.211,2.211,0,0,0,1.136-.264.889.889,0,0,0,.448-.824.842.842,0,0,0-.464-.744,4.159,4.159,0,0,0-1.12-.448q-.656-.168-1.312-.392a2.638,2.638,0,0,1-1.12-.736A1.879,1.879,0,0,1,88.9,6.176,2.129,2.129,0,0,1,89.7,4.464a3.059,3.059,0,0,1,2.024-.672,3.4,3.4,0,0,1,1.736.44,2.818,2.818,0,0,1,1.144,1.224l-1.168.656a1.675,1.675,0,0,0-1.712-1.024,1.763,1.763,0,0,0-1.008.28A.9.9,0,0,0,90.3,6.16Zm12.1,4.832a4.279,4.279,0,0,1-5.976,0A4.053,4.053,0,0,1,95.2,8a4.166,4.166,0,0,1,4.208-4.208A4.1,4.1,0,0,1,102.4,5.008,4.04,4.04,0,0,1,103.632,8,4.04,4.04,0,0,1,102.4,10.992Zm-2.992-.144A2.788,2.788,0,0,0,102.24,8a2.788,2.788,0,0,0-2.832-2.848,2.72,2.72,0,0,0-2,.816A2.758,2.758,0,0,0,96.592,8a2.758,2.758,0,0,0,.816,2.032A2.72,2.72,0,0,0,99.408,10.848Zm6.7-5.5a2.509,2.509,0,0,1,2.5-1.488V5.312a2.522,2.522,0,0,0-1.76.544,2.3,2.3,0,0,0-.736,1.9V12H104.72V4h1.392ZM120.16.8V2.208h-3.312V12h-1.472V2.208h-3.3V.8Zm1.072,4.544a2.509,2.509,0,0,1,2.5-1.488V5.312a2.522,2.522,0,0,0-1.76.544,2.3,2.3,0,0,0-.736,1.9V12H119.84V4h1.392ZM130.72,4h1.392v8H130.72V10.624a3.394,3.394,0,0,1-3.024,1.584,3.838,3.838,0,0,1-2.864-1.224A4.131,4.131,0,0,1,123.648,8a4.131,4.131,0,0,1,1.184-2.984A3.838,3.838,0,0,1,127.7,3.792a3.394,3.394,0,0,1,3.024,1.584Zm-2.848,6.864a2.744,2.744,0,0,0,2.032-.824A2.785,2.785,0,0,0,130.72,8a2.785,2.785,0,0,0-.816-2.04,2.9,2.9,0,0,0-4.048,0A2.785,2.785,0,0,0,125.04,8a2.785,2.785,0,0,0,.816,2.04A2.725,2.725,0,0,0,127.872,10.864Zm6.5-8.32a.913.913,0,0,1-.672-.272.894.894,0,0,1-.272-.656A.921.921,0,0,1,133.7.952a.9.9,0,0,1,.672-.28.881.881,0,0,1,.656.28.921.921,0,0,1,.272.664.894.894,0,0,1-.272.656A.894.894,0,0,1,134.368,2.544Zm-.7,9.456V4h1.392v8Zm6.944-8.208a2.974,2.974,0,0,1,2.256.888,3.342,3.342,0,0,1,.848,2.408V12H142.32V7.168a2.063,2.063,0,0,0-.528-1.512,1.951,1.951,0,0,0-1.456-.536,2.256,2.256,0,0,0-1.68.648,2.734,2.734,0,0,0-.64,1.992V12h-1.392V4h1.392V5.152A2.844,2.844,0,0,1,140.608,3.792Zm5.184-1.248a.913.913,0,0,1-.672-.272.894.894,0,0,1-.272-.656.921.921,0,0,1,.272-.664.9.9,0,0,1,.672-.28.881.881,0,0,1,.656.28.921.921,0,0,1,.272.664.894.894,0,0,1-.272.656A.894.894,0,0,1,145.792,2.544Zm-.7,9.456V4h1.392v8Zm6.944-8.208a2.974,2.974,0,0,1,2.256.888,3.342,3.342,0,0,1,.848,2.408V12h-1.392V7.168a2.063,2.063,0,0,0-.528-1.512,1.951,1.951,0,0,0-1.456-.536,2.256,2.256,0,0,0-1.68.648,2.734,2.734,0,0,0-.64,1.992V12h-1.392V4h1.392V5.152A2.844,2.844,0,0,1,152.032,3.792ZM163.152,4h1.376v7.664a3.37,3.37,0,0,1-1.2,2.76,4.4,4.4,0,0,1-2.88.984,5,5,0,0,1-2.32-.5,3.359,3.359,0,0,1-1.472-1.448l1.216-.688a2.614,2.614,0,0,0,2.608,1.344,2.782,2.782,0,0,0,1.96-.656,2.316,2.316,0,0,0,.712-1.792V10.528a3.4,3.4,0,0,1-3.008,1.6,3.887,3.887,0,0,1-2.9-1.216,4.085,4.085,0,0,1-1.184-2.96A4.058,4.058,0,0,1,157.248,5a3.9,3.9,0,0,1,2.9-1.208,3.38,3.38,0,0,1,3.008,1.584Zm-4.88,5.984a2.848,2.848,0,0,0,4.88-2.032,2.848,2.848,0,1,0-5.7,0A2.758,2.758,0,0,0,158.272,9.984Z" transform="translate(-4873.125 -4798)"/>
    <path id="Path_11781" data-name="Path 11781" d="M4.816,12.208a4.746,4.746,0,0,1-2.68-.736A3.894,3.894,0,0,1,.576,9.456l1.28-.736a2.818,2.818,0,0,0,2.992,2.032,2.824,2.824,0,0,0,1.76-.472,1.51,1.51,0,0,0,.608-1.256,1.341,1.341,0,0,0-.608-1.2,8.739,8.739,0,0,0-2.032-.848q-.7-.224-1.072-.36a9.092,9.092,0,0,1-.92-.416,2.9,2.9,0,0,1-.824-.576,2.9,2.9,0,0,1-.488-.776A2.624,2.624,0,0,1,1.056,3.76,2.857,2.857,0,0,1,2.08,1.448a3.762,3.762,0,0,1,2.5-.856,4,4,0,0,1,2.312.672A4.183,4.183,0,0,1,8.368,3.04L7.12,3.76A2.563,2.563,0,0,0,4.576,2.032,2.286,2.286,0,0,0,3.1,2.48,1.474,1.474,0,0,0,2.544,3.7a1.3,1.3,0,0,0,.528,1.12,6.912,6.912,0,0,0,1.824.8q.464.144.656.208t.6.224q.408.16.6.256t.52.272a2.115,2.115,0,0,1,.488.336q.16.16.376.392a1.54,1.54,0,0,1,.312.472,3.784,3.784,0,0,1,.168.552,2.947,2.947,0,0,1,.072.664,2.865,2.865,0,0,1-1.072,2.344A4.3,4.3,0,0,1,4.816,12.208Zm6.1-3.568A2.638,2.638,0,0,0,11.9,10.3a3.06,3.06,0,0,0,1.912.592,2.5,2.5,0,0,0,2.3-1.168L17.3,10.4a3.909,3.909,0,0,1-3.52,1.808,4.188,4.188,0,0,1-3.1-1.192A4.087,4.087,0,0,1,9.488,8a4.139,4.139,0,0,1,1.168-3.008,4.033,4.033,0,0,1,3.024-1.2,3.68,3.68,0,0,1,2.872,1.24,4.314,4.314,0,0,1,1.112,2.984,4.2,4.2,0,0,1-.048.624ZM13.68,5.1a2.657,2.657,0,0,0-2.768,2.32h5.344a2.666,2.666,0,0,0-.9-1.728A2.566,2.566,0,0,0,13.68,5.1Zm8.768,7.1A4.114,4.114,0,0,1,18.24,8a4.221,4.221,0,0,1,6.336-3.64,3.566,3.566,0,0,1,1.408,1.528l-1.168.672a2.371,2.371,0,0,0-.936-1.024,2.872,2.872,0,0,0-3.44.432A2.772,2.772,0,0,0,19.632,8a2.753,2.753,0,0,0,.808,2.016,2.712,2.712,0,0,0,2.008.816,2.789,2.789,0,0,0,1.44-.376,2.518,2.518,0,0,0,.976-1.016l1.184.688a3.89,3.89,0,0,1-1.472,1.512A4.1,4.1,0,0,1,22.448,12.208ZM32.4,4h1.392v8H32.4V10.848a2.844,2.844,0,0,1-2.592,1.36,2.974,2.974,0,0,1-2.256-.888A3.342,3.342,0,0,1,26.7,8.912V4H28.1V8.832a2.063,2.063,0,0,0,.528,1.512,1.951,1.951,0,0,0,1.456.536,2.256,2.256,0,0,0,1.68-.648A2.734,2.734,0,0,0,32.4,8.24Zm4.336,1.344a2.509,2.509,0,0,1,2.5-1.488V5.312a2.522,2.522,0,0,0-1.76.544,2.3,2.3,0,0,0-.736,1.9V12H35.344V4h1.392Zm4-2.8a.913.913,0,0,1-.672-.272.894.894,0,0,1-.272-.656.921.921,0,0,1,.272-.664.9.9,0,0,1,.672-.28.881.881,0,0,1,.656.28.921.921,0,0,1,.272.664.894.894,0,0,1-.272.656A.894.894,0,0,1,40.736,2.544ZM40.032,12V4h1.392v8Zm7.312-6.656H45.216V9.68a1.217,1.217,0,0,0,.232.84.954.954,0,0,0,.712.256q.48.008,1.184-.024V12a4.117,4.117,0,0,1-2.672-.3,2.209,2.209,0,0,1-.848-2.024V5.344H42.24V4h1.584V2.176l1.392-.416V4h2.128ZM54.192,4H55.68l-3.264,8.5a4.578,4.578,0,0,1-1.432,2.072,3.021,3.021,0,0,1-2.12.632V13.9q1.472.112,2.16-1.632l.144-.3L47.68,4h1.488l2.72,6.272Zm16.48,2.448V7.12a4.841,4.841,0,0,1-1.5,3.64,5.5,5.5,0,0,1-3.984,1.448,5.707,5.707,0,0,1-4.232-1.688A5.633,5.633,0,0,1,59.28,6.4,5.739,5.739,0,0,1,65.152.592,5.62,5.62,0,0,1,68,1.336,5.31,5.31,0,0,1,70,3.3l-1.28.752a3.606,3.606,0,0,0-1.448-1.464A4.326,4.326,0,0,0,60.752,6.4a4.228,4.228,0,0,0,1.24,3.1A4.326,4.326,0,0,0,65.2,10.752a4.251,4.251,0,0,0,2.72-.824,3.358,3.358,0,0,0,1.264-2.136H65.072V6.448ZM77.376,4h1.392v8H77.376V10.848a2.844,2.844,0,0,1-2.592,1.36,2.974,2.974,0,0,1-2.256-.888,3.342,3.342,0,0,1-.848-2.408V4h1.392V8.832a2.063,2.063,0,0,0,.528,1.512,1.951,1.951,0,0,0,1.456.536,2.256,2.256,0,0,0,1.68-.648,2.734,2.734,0,0,0,.64-1.992Zm9.568,0h1.392v8H86.944V10.624a3.394,3.394,0,0,1-3.024,1.584,3.838,3.838,0,0,1-2.864-1.224A4.131,4.131,0,0,1,79.872,8a4.131,4.131,0,0,1,1.184-2.984A3.838,3.838,0,0,1,83.92,3.792a3.394,3.394,0,0,1,3.024,1.584ZM84.1,10.864a2.744,2.744,0,0,0,2.032-.824A2.785,2.785,0,0,0,86.944,8a2.785,2.785,0,0,0-.816-2.04,2.9,2.9,0,0,0-4.048,0A2.785,2.785,0,0,0,81.264,8a2.785,2.785,0,0,0,.816,2.04A2.725,2.725,0,0,0,84.1,10.864Zm7.184-5.52a2.509,2.509,0,0,1,2.5-1.488V5.312a2.522,2.522,0,0,0-1.76.544,2.3,2.3,0,0,0-.736,1.9V12H89.888V4H91.28ZM100.768.8h1.392V12h-1.392V10.624a3.394,3.394,0,0,1-3.024,1.584,3.838,3.838,0,0,1-2.864-1.224A4.131,4.131,0,0,1,93.7,8,4.131,4.131,0,0,1,94.88,5.016a3.838,3.838,0,0,1,2.864-1.224,3.394,3.394,0,0,1,3.024,1.584ZM97.92,10.864a2.744,2.744,0,0,0,2.032-.824A2.785,2.785,0,0,0,100.768,8a2.785,2.785,0,0,0-.816-2.04,2.9,2.9,0,0,0-4.048,0A2.785,2.785,0,0,0,95.088,8a2.785,2.785,0,0,0,.816,2.04A2.725,2.725,0,0,0,97.92,10.864ZM114.464.8V2.208h-3.312V12H109.68V2.208h-3.3V.8Zm1.072,4.544a2.509,2.509,0,0,1,2.5-1.488V5.312a2.522,2.522,0,0,0-1.76.544,2.3,2.3,0,0,0-.736,1.9V12h-1.392V4h1.392ZM125.024,4h1.392v8h-1.392V10.624A3.394,3.394,0,0,1,122,12.208a3.838,3.838,0,0,1-2.864-1.224A4.131,4.131,0,0,1,117.952,8a4.131,4.131,0,0,1,1.184-2.984A3.838,3.838,0,0,1,122,3.792a3.394,3.394,0,0,1,3.024,1.584Zm-2.848,6.864a2.744,2.744,0,0,0,2.032-.824A2.785,2.785,0,0,0,125.024,8a2.785,2.785,0,0,0-.816-2.04,2.9,2.9,0,0,0-4.048,0A2.785,2.785,0,0,0,119.344,8a2.785,2.785,0,0,0,.816,2.04A2.725,2.725,0,0,0,122.176,10.864Zm6.5-8.32A.913.913,0,0,1,128,2.272a.894.894,0,0,1-.272-.656A.921.921,0,0,1,128,.952a.9.9,0,0,1,.672-.28.881.881,0,0,1,.656.28.921.921,0,0,1,.272.664.894.894,0,0,1-.272.656A.894.894,0,0,1,128.672,2.544Zm-.7,9.456V4h1.392v8Zm6.944-8.208a2.974,2.974,0,0,1,2.256.888,3.342,3.342,0,0,1,.848,2.408V12h-1.392V7.168a2.063,2.063,0,0,0-.528-1.512,1.951,1.951,0,0,0-1.456-.536,2.256,2.256,0,0,0-1.68.648,2.734,2.734,0,0,0-.64,1.992V12h-1.392V4h1.392V5.152A2.844,2.844,0,0,1,134.912,3.792ZM140.1,2.544a.913.913,0,0,1-.672-.272.894.894,0,0,1-.272-.656.921.921,0,0,1,.272-.664.9.9,0,0,1,.672-.28.881.881,0,0,1,.656.28.921.921,0,0,1,.272.664.894.894,0,0,1-.272.656A.894.894,0,0,1,140.1,2.544Zm-.7,9.456V4h1.392v8Zm6.944-8.208a2.974,2.974,0,0,1,2.256.888,3.342,3.342,0,0,1,.848,2.408V12h-1.392V7.168a2.063,2.063,0,0,0-.528-1.512,1.951,1.951,0,0,0-1.456-.536,2.256,2.256,0,0,0-1.68.648,2.734,2.734,0,0,0-.64,1.992V12h-1.392V4h1.392V5.152A2.844,2.844,0,0,1,146.336,3.792ZM157.456,4h1.376v7.664a3.37,3.37,0,0,1-1.2,2.76,4.4,4.4,0,0,1-2.88.984,5,5,0,0,1-2.32-.5,3.359,3.359,0,0,1-1.472-1.448l1.216-.688a2.614,2.614,0,0,0,2.608,1.344,2.782,2.782,0,0,0,1.96-.656,2.316,2.316,0,0,0,.712-1.792V10.528a3.4,3.4,0,0,1-3.008,1.6,3.887,3.887,0,0,1-2.9-1.216,4.085,4.085,0,0,1-1.184-2.96A4.058,4.058,0,0,1,151.552,5a3.9,3.9,0,0,1,2.9-1.208,3.38,3.38,0,0,1,3.008,1.584Zm-4.88,5.984a2.848,2.848,0,0,0,4.88-2.032,2.848,2.848,0,1,0-5.7,0A2.758,2.758,0,0,0,152.576,9.984Z" transform="translate(-4873.125 -4728)"/>
    <path id="Path_11784" data-name="Path 11784" d="M6.464,12.208A5.7,5.7,0,0,1,.608,6.4,5.7,5.7,0,0,1,6.464.592a5.593,5.593,0,0,1,2.824.736A5.314,5.314,0,0,1,11.3,3.312L10,4.064a3.6,3.6,0,0,0-1.432-1.48,4.119,4.119,0,0,0-2.1-.552A4.232,4.232,0,0,0,3.3,3.28,4.277,4.277,0,0,0,2.08,6.4a4.228,4.228,0,0,0,4.384,4.352,4.119,4.119,0,0,0,2.1-.552A3.632,3.632,0,0,0,10,8.736l1.3.736a5.238,5.238,0,0,1-2,1.992A5.589,5.589,0,0,1,6.464,12.208Zm11.184,0A5.7,5.7,0,0,1,11.792,6.4,5.7,5.7,0,0,1,17.648.592a5.593,5.593,0,0,1,2.824.736A5.314,5.314,0,0,1,22.48,3.312l-1.3.752a3.6,3.6,0,0,0-1.432-1.48,4.119,4.119,0,0,0-2.1-.552,4.232,4.232,0,0,0-3.16,1.248A4.277,4.277,0,0,0,13.264,6.4a4.228,4.228,0,0,0,4.384,4.352,4.119,4.119,0,0,0,2.1-.552,3.632,3.632,0,0,0,1.432-1.464l1.3.736a5.238,5.238,0,0,1-2,1.992A5.589,5.589,0,0,1,17.648,12.208ZM30.64.8V2.208H27.328V12H25.856V2.208h-3.3V.8ZM34.48,12,30.48.8h1.6l3.248,9.344L38.56.8h1.616L36.16,12ZM51.536.8V2.208H48.224V12H46.752V2.208h-3.3V.8Zm1.072,4.544a2.509,2.509,0,0,1,2.5-1.488V5.312a2.522,2.522,0,0,0-1.76.544,2.3,2.3,0,0,0-.736,1.9V12H51.216V4h1.392ZM62.1,4h1.392v8H62.1V10.624a3.394,3.394,0,0,1-3.024,1.584,3.838,3.838,0,0,1-2.864-1.224A4.131,4.131,0,0,1,55.024,8a4.131,4.131,0,0,1,1.184-2.984,3.838,3.838,0,0,1,2.864-1.224A3.394,3.394,0,0,1,62.1,5.376Zm-2.848,6.864a2.744,2.744,0,0,0,2.032-.824A2.785,2.785,0,0,0,62.1,8a2.785,2.785,0,0,0-.816-2.04,2.9,2.9,0,0,0-4.048,0A2.785,2.785,0,0,0,56.416,8a2.785,2.785,0,0,0,.816,2.04A2.725,2.725,0,0,0,59.248,10.864Zm6.5-8.32a.913.913,0,0,1-.672-.272.894.894,0,0,1-.272-.656.921.921,0,0,1,.272-.664.9.9,0,0,1,.672-.28.881.881,0,0,1,.656.28.921.921,0,0,1,.272.664.894.894,0,0,1-.272.656A.894.894,0,0,1,65.744,2.544ZM65.04,12V4h1.392v8Zm6.944-8.208a2.974,2.974,0,0,1,2.256.888,3.342,3.342,0,0,1,.848,2.408V12H73.7V7.168a2.063,2.063,0,0,0-.528-1.512,1.951,1.951,0,0,0-1.456-.536,2.256,2.256,0,0,0-1.68.648,2.734,2.734,0,0,0-.64,1.992V12H68V4h1.392V5.152A2.844,2.844,0,0,1,71.984,3.792Zm5.184-1.248a.913.913,0,0,1-.672-.272.894.894,0,0,1-.272-.656A.921.921,0,0,1,76.5.952a.9.9,0,0,1,.672-.28.881.881,0,0,1,.656.28.921.921,0,0,1,.272.664.894.894,0,0,1-.272.656A.894.894,0,0,1,77.168,2.544ZM76.464,12V4h1.392v8Zm6.944-8.208a2.974,2.974,0,0,1,2.256.888,3.342,3.342,0,0,1,.848,2.408V12H85.12V7.168a2.063,2.063,0,0,0-.528-1.512,1.951,1.951,0,0,0-1.456-.536,2.256,2.256,0,0,0-1.68.648,2.734,2.734,0,0,0-.64,1.992V12H79.424V4h1.392V5.152A2.844,2.844,0,0,1,83.408,3.792ZM94.528,4H95.9v7.664a3.37,3.37,0,0,1-1.2,2.76,4.4,4.4,0,0,1-2.88.984,5,5,0,0,1-2.32-.5,3.359,3.359,0,0,1-1.472-1.448l1.216-.688a2.614,2.614,0,0,0,2.608,1.344,2.782,2.782,0,0,0,1.96-.656,2.316,2.316,0,0,0,.712-1.792V10.528a3.4,3.4,0,0,1-3.008,1.6,3.887,3.887,0,0,1-2.9-1.216,4.085,4.085,0,0,1-1.184-2.96A4.058,4.058,0,0,1,88.624,5a3.9,3.9,0,0,1,2.9-1.208,3.38,3.38,0,0,1,3.008,1.584Zm-4.88,5.984a2.848,2.848,0,0,0,4.88-2.032,2.848,2.848,0,1,0-5.7,0A2.758,2.758,0,0,0,89.648,9.984Z" transform="translate(-4873.125 -4658)"/>
    <path id="Path_11787" data-name="Path 11787" d="M32,6.192a2.768,2.768,0,0,1,1.472,2.56,3.009,3.009,0,0,1-1.008,2.336,3.561,3.561,0,0,1-2.48.912H25.232V.8h4.416a3.486,3.486,0,0,1,2.424.888,2.914,2.914,0,0,1,.984,2.264A2.731,2.731,0,0,1,32,6.192ZM29.648,2.864H27.44V5.328h2.208a1.148,1.148,0,0,0,.856-.352,1.209,1.209,0,0,0,.344-.88,1.224,1.224,0,0,0-.336-.88A1.142,1.142,0,0,0,29.648,2.864Zm.336,7.072a1.244,1.244,0,0,0,.928-.376,1.305,1.305,0,0,0,.368-.952,1.285,1.285,0,0,0-.368-.936,1.244,1.244,0,0,0-.928-.376H27.44v2.64ZM41.2,11.008A4.232,4.232,0,0,1,33.968,8a4.232,4.232,0,1,1,8.464,0A4.092,4.092,0,0,1,41.2,11.008ZM36.64,9.584a2.242,2.242,0,0,0,3.1,0A2.146,2.146,0,0,0,40.368,8a2.146,2.146,0,0,0-.624-1.584,2.107,2.107,0,0,0-1.552-.624,2.08,2.08,0,0,0-1.544.624A2.161,2.161,0,0,0,36.032,8,2.176,2.176,0,0,0,36.64,9.584Zm13.5,1.424A4.232,4.232,0,0,1,42.912,8a4.232,4.232,0,1,1,8.464,0A4.092,4.092,0,0,1,50.144,11.008Zm-4.56-1.424a2.242,2.242,0,0,0,3.1,0A2.146,2.146,0,0,0,49.312,8a2.146,2.146,0,0,0-.624-1.584,2.107,2.107,0,0,0-1.552-.624,2.08,2.08,0,0,0-1.544.624A2.161,2.161,0,0,0,44.976,8,2.176,2.176,0,0,0,45.584,9.584ZM59.648,12h-2.4L54.336,8.368V12H52.272V.8h2.064V7.52L57.088,4h2.464L56.336,7.952Zm9.984-8H71.7v8H69.632v-.944a3.141,3.141,0,0,1-2.608,1.168A3.625,3.625,0,0,1,64.28,11a4.23,4.23,0,0,1-1.144-3A4.23,4.23,0,0,1,64.28,5a3.625,3.625,0,0,1,2.744-1.224,3.141,3.141,0,0,1,2.608,1.168ZM65.824,9.632A2.322,2.322,0,0,0,69,9.624,2.2,2.2,0,0,0,69.632,8,2.2,2.2,0,0,0,69,6.376a2.158,2.158,0,0,0-1.592-.632,2.132,2.132,0,0,0-1.584.632A2.214,2.214,0,0,0,65.2,8,2.241,2.241,0,0,0,65.824,9.632Zm14.432,2.592A4.141,4.141,0,0,1,76.032,8a4.141,4.141,0,0,1,4.224-4.224,4.146,4.146,0,0,1,2.128.56,3.723,3.723,0,0,1,1.456,1.5L82.064,6.88a1.811,1.811,0,0,0-.728-.784,2.116,2.116,0,0,0-1.1-.288,2.068,2.068,0,0,0-1.536.616A2.149,2.149,0,0,0,78.1,8,2.129,2.129,0,0,0,78.7,9.56a2.068,2.068,0,0,0,1.536.616,2.194,2.194,0,0,0,1.112-.28,1.763,1.763,0,0,0,.728-.776l1.792,1.024a4.007,4.007,0,0,1-1.488,1.512A4.1,4.1,0,0,1,80.256,12.224Zm10.832-1.216A4.232,4.232,0,0,1,83.856,8,4.232,4.232,0,1,1,92.32,8,4.092,4.092,0,0,1,91.088,11.008Zm-4.56-1.424a2.242,2.242,0,0,0,3.1,0A2.146,2.146,0,0,0,90.256,8a2.146,2.146,0,0,0-.624-1.584,2.107,2.107,0,0,0-1.552-.624,2.08,2.08,0,0,0-1.544.624A2.161,2.161,0,0,0,85.92,8,2.176,2.176,0,0,0,86.528,9.584ZM98.5,4h2.064v8H98.5v-.9a2.665,2.665,0,0,1-2.384,1.12,2.9,2.9,0,0,1-2.168-.88,3.34,3.34,0,0,1-.856-2.432V4h2.064V8.656a1.639,1.639,0,0,0,.432,1.224,1.573,1.573,0,0,0,1.152.424,1.7,1.7,0,0,0,1.28-.5A2.063,2.063,0,0,0,98.5,8.32Zm5.456,1.376a2.156,2.156,0,0,1,.952-1.152,2.9,2.9,0,0,1,1.48-.384v2.3a2.43,2.43,0,0,0-1.688.384,1.833,1.833,0,0,0-.744,1.648V12h-2.064V4h2.064Zm4.72.9q0,.32.424.52a5.654,5.654,0,0,0,1.032.352,10.666,10.666,0,0,1,1.216.384,2.36,2.36,0,0,1,1.032.776,2.145,2.145,0,0,1,.424,1.36,2.2,2.2,0,0,1-.92,1.9,3.821,3.821,0,0,1-2.3.664,3.365,3.365,0,0,1-3.36-1.9l1.792-1.008a1.483,1.483,0,0,0,1.568,1.04q1.1,0,1.1-.688,0-.32-.424-.52a6.052,6.052,0,0,0-1.032-.36,10.79,10.79,0,0,1-1.216-.4,2.5,2.5,0,0,1-1.032-.76,2,2,0,0,1-.424-1.3,2.235,2.235,0,0,1,.872-1.864,3.418,3.418,0,0,1,2.168-.68,3.624,3.624,0,0,1,1.776.44,3.216,3.216,0,0,1,1.264,1.256l-1.76.96a1.316,1.316,0,0,0-1.28-.816,1.172,1.172,0,0,0-.664.176A.549.549,0,0,0,108.672,6.272ZM115.2,8.848a2.05,2.05,0,0,0,2.256,1.5,2.111,2.111,0,0,0,1.792-.8l1.664.96a3.968,3.968,0,0,1-3.488,1.712,4.3,4.3,0,0,1-3.184-1.2A4.1,4.1,0,0,1,113.04,8a4.136,4.136,0,0,1,1.184-3.016,4.072,4.072,0,0,1,3.04-1.208,3.814,3.814,0,0,1,2.9,1.216A4.222,4.222,0,0,1,121.312,8a4.832,4.832,0,0,1-.08.848Zm-.032-1.6h4.08a1.934,1.934,0,0,0-.728-1.216,2.087,2.087,0,0,0-1.256-.4,2.171,2.171,0,0,0-1.376.424A2.026,2.026,0,0,0,115.168,7.248Z" transform="translate(-4838.125 -4583)"/>
    <path id="Path_11782" data-name="Path 11782" d="M0,0H210V14H0Z" transform="translate(-4873.125 -4773)" fill="#e5e5e5"/>
    <path id="Path_11783" data-name="Path 11783" d="M0,0H210V14H0Z" transform="translate(-4873.125 -4703)" fill="#e5e5e5"/>
    <path id="Path_11785" data-name="Path 11785" d="M0,0H210V14H0Z" transform="translate(-4873.125 -4633)" fill="#e5e5e5"/>
    <g id="Group_11140" data-name="Group 11140" transform="translate(-5317.835 -5400.985) rotate(20)">
      <rect id="Rectangle_4333" data-name="Rectangle 4333" width="81.86" height="52.277" rx="4" transform="translate(781.38 295.761)" fill="#3176ba"/>
      <path id="Path_11626" data-name="Path 11626" d="M-4431.129-8349.652a4.113,4.113,0,0,0,1.484-2.859c-.076-1.573.094-46.448-.014-47.328s-1.469-2.16-1.469-2.16h7.294a1.989,1.989,0,0,1,1.63,2.16c-.009,1.953.016,44.41.033,47.328s-2.235,2.859-2.235,2.859Z" transform="translate(5285.816 8697.69)" fill="#ff902c"/>
      <g id="Group_11139" data-name="Group 11139" transform="matrix(0.766, -0.643, 0.643, 0.766, 831.677, 307.188)">
        <path id="Path_11627" data-name="Path 11627" d="M6.369,1.725A9.206,9.206,0,0,0,4.714.93,4.729,4.729,0,0,0,2.927.84,3.38,3.38,0,0,0,1.208,1.4,2.276,2.276,0,0,0,.3,2.367,2.945,2.945,0,0,0,0,3.633,2.553,2.553,0,0,0,.515,5.092c.534.712.693.7,1.621,1.389S3.5,7.223,3.91,7.767a.952.952,0,0,1,.216.946,1.18,1.18,0,0,1-.348.564,1.5,1.5,0,0,1-.9.38,3.464,3.464,0,0,1-1.436-.119,3.832,3.832,0,0,1-.833-.277l-.228-.1L.415,10.9a13.652,13.652,0,0,0,1.84.325c.467,0,.377,0,.6-.01a6.744,6.744,0,0,0,.9-.117A6.136,6.136,0,0,0,5,10.7a4.08,4.08,0,0,0,.935-.614L6.56,9.4l.033,1.529,2.586-.171L9.146,9.232a4.191,4.191,0,0,0,.838.708,3.227,3.227,0,0,0,1.278.514,3.821,3.821,0,0,0,1.028.1,6.428,6.428,0,0,0,2.513-.432,3.566,3.566,0,0,0,.777-.349l-.16-7.327a2.4,2.4,0,0,0-.638-1.4A2.489,2.489,0,0,0,13.473.318,4.362,4.362,0,0,0,11.9.214a6.637,6.637,0,0,0-1.371.369,5.5,5.5,0,0,0-1.1.628l-.453.343L8.941,0a2.087,2.087,0,0,1-1.3.486A1.736,1.736,0,0,1,6.355.171Z" transform="translate(7.509 0) rotate(42)" fill="#1d3a49"/>
        <path id="Path_11628" data-name="Path 11628" d="M1.459.006a1.394,1.394,0,0,1,1.52,1.348A1.551,1.551,0,0,1,1.521,2.9,1.394,1.394,0,0,1,0,1.55,1.551,1.551,0,0,1,1.459.006Z" transform="translate(14.276 1.619) rotate(42)" fill="#1d3a49"/>
        <path id="Path_11629" data-name="Path 11629" d="M2.161,0l.073,3.4a2.344,2.344,0,0,1-.878.058A1.469,1.469,0,0,1,.3,2.979a1.163,1.163,0,0,1-.292-.685c-.081-.733.776-1.3.776-1.3Z" transform="translate(12.028 11.362) rotate(42)" fill="#3176ba"/>
        <path id="Path_11630" data-name="Path 11630" d="M3.755,3.818A6.58,6.58,0,0,0,2.186,2.77,8.259,8.259,0,0,1,.2,1.422.857.857,0,0,1,.847.014,3.353,3.353,0,0,1,2.355.222c.3.162,1.3.729,1.343.923S3.755,3.818,3.755,3.818Z" transform="translate(7.935 3.616) rotate(42)" fill="#3176ba"/>
        <path id="Path_11631" data-name="Path 11631" d="M3.576,0A6.4,6.4,0,0,1,2.124,1.287,9.9,9.9,0,0,0,.176,2.943a1.094,1.094,0,0,0-.166.742c.079.432.572.585.883.582a3.339,3.339,0,0,0,1.462-.423,6.477,6.477,0,0,0,1.3-1.125C3.653,2.588,3.576,0,3.576,0Z" transform="translate(12.786 13.022) rotate(-137)" fill="#3176ba"/>
      </g>
      <path id="Path_11632" data-name="Path 11632" d="M11.475,6.681l-.238.159L0,.159.238,0Z" transform="matrix(0.857, -0.515, 0.515, 0.857, 788.855, 314.014)" fill="#e4e4e4"/>
      <path id="Path_11633" data-name="Path 11633" d="M11.475,6.681l-.238.159L0,.159.238,0Z" transform="matrix(0.857, -0.515, 0.515, 0.857, 788.855, 320.903)" fill="#e4e4e4"/>
      <path id="Path_11634" data-name="Path 11634" d="M9.956,5.827l-.206.138L0,.138.206,0Z" transform="matrix(0.515, 0.857, -0.857, 0.515, 793.284, 312.137)" fill="#e4e4e4"/>
      <path id="Path_11635" data-name="Path 11635" d="M9.956,5.827l-.206.138L0,.138.206,0Z" transform="matrix(0.515, 0.857, -0.857, 0.515, 798.11, 312.137)" fill="#e4e4e4"/>
      <g id="Rectangle_4334" data-name="Rectangle 4334" transform="translate(788.674 311.971)" fill="none" stroke="#e4e4e4" stroke-width="1">
        <rect width="13.778" height="11.752" rx="5.876" stroke="none"/>
        <rect x="0.5" y="0.5" width="12.778" height="10.752" rx="5.376" fill="none"/>
      </g>
      <rect id="Rectangle_4335" data-name="Rectangle 4335" width="17.425" height="19.857" transform="translate(836.088 325.344)" fill="#1d3a49"/>
      <rect id="Rectangle_4336" data-name="Rectangle 4336" width="47.414" height="2.837" rx="1.418" transform="translate(785.433 301.839)" fill="#1d3a49"/>
      <path id="Path_11636" data-name="Path 11636" d="M.9-4.307V-7.2h.613v2.387H2.688v.507Zm2.37,0V-7.2h.614v2.893ZM5.921-6.731a.625.625,0,0,0-.534.26,1.211,1.211,0,0,0-.192.726q0,.968.727.968A2.3,2.3,0,0,0,6.66-4.93v.515a2.05,2.05,0,0,1-.8.149A1.213,1.213,0,0,1,4.9-4.65a1.621,1.621,0,0,1-.334-1.1,1.8,1.8,0,0,1,.164-.791,1.187,1.187,0,0,1,.472-.52,1.4,1.4,0,0,1,.721-.181,1.945,1.945,0,0,1,.847.2l-.2.5a3.275,3.275,0,0,0-.327-.134.973.973,0,0,0-.323-.055Zm3.1,2.424H7.352V-7.2H9.018v.5H7.968v.635h.98v.5H7.969v.747H9.023Zm3.251,0h-.779L10.235-6.5h-.018q.037.58.037.827v1.362H9.706V-7.2h.774l1.256,2.167h.014q-.033-.564-.033-.8V-7.2h.552ZM14.31-6.731a.625.625,0,0,0-.534.26,1.211,1.211,0,0,0-.189.726q0,.968.727.968a2.3,2.3,0,0,0,.738-.152v.515a2.05,2.05,0,0,1-.795.149,1.213,1.213,0,0,1-.966-.383,1.621,1.621,0,0,1-.334-1.1,1.8,1.8,0,0,1,.162-.791,1.187,1.187,0,0,1,.472-.52,1.4,1.4,0,0,1,.721-.181,1.945,1.945,0,0,1,.847.2l-.2.5a3.272,3.272,0,0,0-.327-.134.973.973,0,0,0-.322-.055Zm3.1,2.424H15.745V-7.2h1.666v.5H16.358v.635h.98v.5h-.978v.747h1.054Z" transform="translate(835.554 326.815)" fill="#1d3a49"/>
      <path id="Path_11637" data-name="Path 11637" d="M1.92,1.176a1.14,1.14,0,0,1-.324.875,1.326,1.326,0,0,1-.941.3H0V.041H.727a1.223,1.223,0,0,1,.88.3,1.1,1.1,0,0,1,.313.836Zm-.509.013q0-.745-.658-.745H.491V1.95H.7q.709,0,.709-.762Zm3.155.007a1.256,1.256,0,0,1-.284.883,1.056,1.056,0,0,1-.819.308,1.056,1.056,0,0,1-.817-.308,1.261,1.261,0,0,1-.284-.886A1.244,1.244,0,0,1,2.649.309,1.068,1.068,0,0,1,3.466,0a1.054,1.054,0,0,1,.816.307,1.259,1.259,0,0,1,.282.883Zm-1.689,0a.967.967,0,0,0,.147.584.515.515,0,0,0,.44.2q.587,0,.587-.781T3.466.413a.519.519,0,0,0-.441.2.963.963,0,0,0-.149.585Zm4.336,0a1.256,1.256,0,0,1-.284.883,1.056,1.056,0,0,1-.817.308A1.056,1.056,0,0,1,5.3,2.078a1.261,1.261,0,0,1-.287-.886A1.244,1.244,0,0,1,5.3.309,1.068,1.068,0,0,1,6.112,0a1.054,1.054,0,0,1,.816.307,1.259,1.259,0,0,1,.284.885Zm-1.689,0a.967.967,0,0,0,.147.584.515.515,0,0,0,.44.2q.587,0,.587-.781T6.112.413a.519.519,0,0,0-.442.2.963.963,0,0,0-.149.585Zm2.724-.126h.158A.606.606,0,0,0,8.749.991.277.277,0,0,0,8.86.748.253.253,0,0,0,8.747.514.689.689,0,0,0,8.4.447H8.248Zm0,.4v.888H7.755V.041h.674a1.154,1.154,0,0,1,.7.172.613.613,0,0,1,.226.522.614.614,0,0,1-.112.365.744.744,0,0,1-.318.249q.522.779.68,1.007H9.06l-.553-.888Zm3.988.245a.6.6,0,0,1-.226.494.98.98,0,0,1-.63.18,1.474,1.474,0,0,1-.655-.14V1.791a2.7,2.7,0,0,0,.4.147,1.175,1.175,0,0,0,.3.043.422.422,0,0,0,.248-.061.211.211,0,0,0,.087-.181.2.2,0,0,0-.038-.122.425.425,0,0,0-.112-.1,2.871,2.871,0,0,0-.3-.157,1.422,1.422,0,0,1-.318-.192.719.719,0,0,1-.17-.214.608.608,0,0,1-.065-.286.6.6,0,0,1,.208-.483.868.868,0,0,1,.576-.176,1.359,1.359,0,0,1,.345.043,2.367,2.367,0,0,1,.341.121l-.158.381a2.316,2.316,0,0,0-.306-.106.986.986,0,0,0-.238-.03A.315.315,0,0,0,11.3.484a.214.214,0,0,0-.075.17.21.21,0,0,0,.03.113.334.334,0,0,0,.1.093,2.962,2.962,0,0,0,.311.162,1.237,1.237,0,0,1,.446.311.608.608,0,0,1,.119.381ZM14.6.041v1.5a.863.863,0,0,1-.115.449.747.747,0,0,1-.334.3,1.186,1.186,0,0,1-.513.1.982.982,0,0,1-.688-.226.811.811,0,0,1-.247-.626V.042H13.2V1.461a.593.593,0,0,0,.108.393.446.446,0,0,0,.356.126.437.437,0,0,0,.349-.126.6.6,0,0,0,.109-.4V.041ZM15.725,1.13h.162a.538.538,0,0,0,.339-.089.313.313,0,0,0,.112-.26.321.321,0,0,0-.094-.255.441.441,0,0,0-.3-.081h-.223ZM16.833.763a.708.708,0,0,1-.234.572,1,1,0,0,1-.664.2h-.21v.82h-.493V.041h.739a.983.983,0,0,1,.64.181.661.661,0,0,1,.22.541Zm1.832,1.592H17.33V.041h1.335v.4h-.842V.95h.784v.4h-.784v.6h.843ZM19.7,1.071h.158a.606.606,0,0,0,.344-.077A.277.277,0,0,0,20.317.75.253.253,0,0,0,20.2.516a.689.689,0,0,0-.351-.067h-.149Zm0,.4v.888h-.491V.041h.676a1.154,1.154,0,0,1,.7.172.613.613,0,0,1,.224.522A.614.614,0,0,1,20.7,1.1a.744.744,0,0,1-.318.249q.521.779.68,1.007h-.545l-.552-.887ZM22.739.04h.5l-.789,2.314h-.534L21.127.041h.5l.435,1.378q.037.122.075.284t.048.226a4.054,4.054,0,0,1,.121-.51Zm.852,2.315V.041h.491V2.355Zm2.5-.643a.6.6,0,0,1-.226.494.98.98,0,0,1-.628.18,1.474,1.474,0,0,1-.655-.14V1.791a2.7,2.7,0,0,0,.4.147,1.175,1.175,0,0,0,.3.043.422.422,0,0,0,.248-.061.211.211,0,0,0,.086-.184.2.2,0,0,0-.038-.122.425.425,0,0,0-.112-.1,2.871,2.871,0,0,0-.3-.157,1.422,1.422,0,0,1-.318-.192.719.719,0,0,1-.17-.214.608.608,0,0,1-.063-.284.6.6,0,0,1,.208-.483A.868.868,0,0,1,25.4.008a1.359,1.359,0,0,1,.345.043,2.367,2.367,0,0,1,.343.122l-.158.381A2.316,2.316,0,0,0,25.62.447a.986.986,0,0,0-.238-.03.315.315,0,0,0-.214.067.214.214,0,0,0-.075.17.21.21,0,0,0,.03.113.334.334,0,0,0,.1.093,2.961,2.961,0,0,0,.311.162,1.237,1.237,0,0,1,.446.311.608.608,0,0,1,.119.381Zm2.585-.518a1.256,1.256,0,0,1-.284.883,1.235,1.235,0,0,1-1.634,0,1.261,1.261,0,0,1-.284-.886,1.244,1.244,0,0,1,.286-.883A1.068,1.068,0,0,1,27.581,0,1.054,1.054,0,0,1,28.4.309a1.259,1.259,0,0,1,.282.885Zm-1.689,0a.967.967,0,0,0,.147.584.515.515,0,0,0,.44.2q.587,0,.587-.781T27.581.412a.519.519,0,0,0-.442.2.963.963,0,0,0-.149.586Zm2.724-.124h.158a.606.606,0,0,0,.344-.077A.276.276,0,0,0,30.328.75a.253.253,0,0,0-.113-.234.689.689,0,0,0-.351-.067h-.15Zm0,.4v.888h-.49V.041H29.9a1.154,1.154,0,0,1,.7.172.613.613,0,0,1,.225.522.614.614,0,0,1-.112.365.744.744,0,0,1-.318.249q.522.779.682,1.007h-.546l-.552-.888Z" transform="translate(858.453 344.099) rotate(-90)" fill="#fff"/>
      <path id="Path_11638" data-name="Path 11638" d="M1.28-2.16H.449V-3.606H1.28v.251H.75v.318h.492v.251H.755v.373H1.28Zm1.43,0h-.35l-.334-.547-.334.547H1.361l.478-.746-.449-.7h.339l.312.52.306-.52h.331l-.457.717Zm.443-.766h.1a.334.334,0,0,0,.211-.056.2.2,0,0,0,.067-.162.2.2,0,0,0-.059-.16.276.276,0,0,0-.184-.051H3.154Zm.693-.23A.442.442,0,0,1,3.7-2.8a.624.624,0,0,1-.414.122H3.154v.515h-.3V-3.606h.462a.614.614,0,0,1,.4.114.413.413,0,0,1,.137.338Zm.23,1V-3.606h.306V-2.16Zm.935-.8h.1a.379.379,0,0,0,.218-.049A.173.173,0,0,0,5.4-3.162a.158.158,0,0,0-.071-.146.429.429,0,0,0-.219-.043H5.015Zm0,.249v.555h-.3V-3.606H5.13a.721.721,0,0,1,.437.108.383.383,0,0,1,.142.325.384.384,0,0,1-.067.227.467.467,0,0,1-.2.156q.327.486.425.63H5.526l-.345-.555Zm1.822.555H6V-3.606h.833v.251H6.31v.318H6.8v.251H6.31v.373h.527Zm1.113-.4a.374.374,0,0,1-.141.308.612.612,0,0,1-.392.113A.921.921,0,0,1,7-2.223v-.284a1.688,1.688,0,0,0,.248.092.735.735,0,0,0,.186.027.267.267,0,0,0,.155-.041.134.134,0,0,0,.054-.115.127.127,0,0,0-.019-.079.267.267,0,0,0-.067-.067,1.794,1.794,0,0,0-.188-.1.889.889,0,0,1-.2-.122.449.449,0,0,1-.106-.134.381.381,0,0,1-.041-.178.374.374,0,0,1,.13-.3.541.541,0,0,1,.359-.11.851.851,0,0,1,.215.027,1.479,1.479,0,0,1,.214.075l-.1.238a1.448,1.448,0,0,0-.191-.067.616.616,0,0,0-.149-.019.2.2,0,0,0-.134.041.134.134,0,0,0-.047.106.134.134,0,0,0,.019.071.206.206,0,0,0,.06.058A1.851,1.851,0,0,0,7.6-3a.774.774,0,0,1,.278.194.379.379,0,0,1,.075.242Z" transform="translate(783.95 331.556)" fill="#1d3a49"/>
      <path id="Path_11639" data-name="Path 11639" d="M-.228-2.081a.8.8,0,0,1-.217-.025v-.308a.72.72,0,0,0,.173.025A.2.2,0,0,0-.1-2.465.42.42,0,0,0-.046-2.7V-4.327H.32V-2.7a.684.684,0,0,1-.141.463.516.516,0,0,1-.407.16Zm.855-.68A.2.2,0,0,1,.68-2.912a.217.217,0,0,1,.156-.051.21.21,0,0,1,.156.052.2.2,0,0,1,.054.15.2.2,0,0,1-.055.148.207.207,0,0,1-.152.054.213.213,0,0,1-.154-.053.2.2,0,0,1-.057-.15ZM3.37-3.476a.855.855,0,0,1-.243.656,1,1,0,0,1-.706.228H1.931V-4.328h.545a.917.917,0,0,1,.66.224.825.825,0,0,1,.235.626Zm-.38.009q0-.56-.494-.56H2.3V-2.9h.158q.534,0,.534-.571Zm2.266,0a.942.942,0,0,1-.214.662.792.792,0,0,1-.613.232A.792.792,0,0,1,3.817-2.8.946.946,0,0,1,3.6-3.468a.935.935,0,0,1,.214-.662.8.8,0,0,1,.614-.228.79.79,0,0,1,.612.23.944.944,0,0,1,.212.663Zm-1.269,0a.725.725,0,0,0,.11.438.386.386,0,0,0,.33.147q.441,0,.441-.585t-.438-.586A.389.389,0,0,0,4.1-3.9a.722.722,0,0,0-.112.439Zm2.575.868h-1V-4.33h1v.3H5.929v.381h.588v.3H5.929V-2.9H6.56Z" transform="translate(784.481 344.551)" fill="#1d3a49"/>
      <path id="Path_11640" data-name="Path 11640" d="M4.78-8.625H.977v-.568L2.5-10.726a11.218,11.218,0,0,0,.917-1,2.565,2.565,0,0,0,.334-.585,1.678,1.678,0,0,0,.113-.614.973.973,0,0,0-.284-.735,1.076,1.076,0,0,0-.779-.272,1.961,1.961,0,0,0-.683.119,2.721,2.721,0,0,0-.718.431l-.349-.451A2.671,2.671,0,0,1,2.8-14.5a1.84,1.84,0,0,1,1.278.417,1.436,1.436,0,0,1,.463,1.122,2.167,2.167,0,0,1-.311,1.088,6.91,6.91,0,0,1-1.155,1.362L1.8-9.273v.033H4.78Zm4.465,0H5.438v-.568l1.526-1.533a11.218,11.218,0,0,0,.918-1,2.565,2.565,0,0,0,.334-.586,1.678,1.678,0,0,0,.111-.614.973.973,0,0,0-.281-.735,1.076,1.076,0,0,0-.78-.271,1.961,1.961,0,0,0-.683.119,2.721,2.721,0,0,0-.718.431l-.349-.448A2.671,2.671,0,0,1,7.259-14.5a1.84,1.84,0,0,1,1.278.417A1.436,1.436,0,0,1,9-12.962a2.167,2.167,0,0,1-.31,1.088,6.909,6.909,0,0,1-1.155,1.366L6.268-9.268v.033H9.244Zm3.669,0H12.24v-5.786h3.225v.6H12.912V-11.7h2.4v.6h-2.4Zm6.565,0H16.253v-5.786h3.225v.6H16.925v1.864h2.4v.594h-2.4v2.126h2.553Zm1.112-5.786h1.637a3.084,3.084,0,0,1,1.666.345,1.216,1.216,0,0,1,.515,1.088,1.256,1.256,0,0,1-.287.849,1.381,1.381,0,0,1-.837.433v.041q1.318.226,1.318,1.385a1.488,1.488,0,0,1-.524,1.211,2.232,2.232,0,0,1-1.469.434H20.59Zm.672,2.477H22.37a1.8,1.8,0,0,0,1.026-.224.863.863,0,0,0,.313-.754.763.763,0,0,0-.348-.7,2.176,2.176,0,0,0-1.108-.216h-.99Zm0,.57V-9.2H22.47a1.719,1.719,0,0,0,1.054-.271,1,1,0,0,0,.355-.849.9.9,0,0,0-.361-.791,1.936,1.936,0,0,0-1.1-.252Zm9.749,2.738H27.205v-.568l1.524-1.531a11.218,11.218,0,0,0,.918-1,2.565,2.565,0,0,0,.334-.586,1.678,1.678,0,0,0,.111-.614.973.973,0,0,0-.281-.735,1.076,1.076,0,0,0-.781-.272,1.961,1.961,0,0,0-.683.119,2.721,2.721,0,0,0-.718.431l-.348-.446a2.671,2.671,0,0,1,1.743-.668,1.84,1.84,0,0,1,1.278.417,1.436,1.436,0,0,1,.463,1.122,2.167,2.167,0,0,1-.309,1.088A6.91,6.91,0,0,1,29.3-10.508l-1.264,1.24v.033h2.976Zm4.5-2.9a4.225,4.225,0,0,1-.473,2.24,1.6,1.6,0,0,1-1.446.742A1.585,1.585,0,0,1,32.167-9.3a4.14,4.14,0,0,1-.486-2.222,4.224,4.224,0,0,1,.467-2.248,1.591,1.591,0,0,1,1.438-.728,1.593,1.593,0,0,1,1.43.764,4.124,4.124,0,0,1,.489,2.212Zm-3.161,0a4.237,4.237,0,0,0,.3,1.838.993.993,0,0,0,.945.576.993.993,0,0,0,.952-.584,4.274,4.274,0,0,0,.3-1.83,4.241,4.241,0,0,0-.3-1.826.994.994,0,0,0-.952-.582.993.993,0,0,0-.945.569,4.207,4.207,0,0,0-.3,1.836Zm7.592,2.9H36.132v-.568l1.524-1.531a11.218,11.218,0,0,0,.918-1,2.565,2.565,0,0,0,.334-.586,1.678,1.678,0,0,0,.111-.614.973.973,0,0,0-.281-.735,1.076,1.076,0,0,0-.78-.271,1.961,1.961,0,0,0-.683.119,2.721,2.721,0,0,0-.718.431l-.348-.446a2.671,2.671,0,0,1,1.743-.668,1.84,1.84,0,0,1,1.278.417,1.436,1.436,0,0,1,.463,1.122,2.167,2.167,0,0,1-.311,1.088,6.91,6.91,0,0,1-1.155,1.362L36.958-9.27v.033h2.976Zm2.47-3.539a2.127,2.127,0,0,1,1.438.453,1.554,1.554,0,0,1,.524,1.241A1.792,1.792,0,0,1,43.8-9.061a2.284,2.284,0,0,1-1.577.512,2.9,2.9,0,0,1-1.492-.313v-.632a2.27,2.27,0,0,0,.689.279,3.4,3.4,0,0,0,.811.1,1.621,1.621,0,0,0,1.082-.329,1.178,1.178,0,0,0,.386-.95q0-1.211-1.484-1.211a5.909,5.909,0,0,0-1,.115l-.341-.218.218-2.707h2.877v.606H41.647L41.5-12.071a4.611,4.611,0,0,1,.906-.093Z" transform="translate(783.23 345.724)" fill="#1d3a49"/>
      <line id="Line_2489" data-name="Line 2489" x2="4.458" transform="translate(788.877 316.631)" fill="none" stroke="#e4e4e4" stroke-width="0.5"/>
      <line id="Line_2490" data-name="Line 2490" x2="4.053" transform="translate(798.198 316.631)" fill="none" stroke="#e4e4e4" stroke-width="0.5"/>
      <line id="Line_2491" data-name="Line 2491" x2="4.053" transform="translate(798.198 319.063)" fill="none" stroke="#e4e4e4" stroke-width="0.5"/>
    </g>
  </g>
</svg>
