<svg width="12" height="12" viewBox="0 0 12 12" fill="none" xmlns="http://www.w3.org/2000/svg">
<path d="M11 2H8V0.5C8 0.367392 7.94732 0.240215 7.85355 0.146447C7.75979 0.0526784 7.63261 0 7.5 0L4.5 0C4.36739 0 4.24021 0.0526784 4.14645 0.146447C4.05268 0.240215 4 0.367392 4 0.5V2H1C0.734784 2 0.48043 2.10536 0.292893 2.29289C0.105357 2.48043 0 2.73478 0 3C0 3.26522 0.105357 3.51957 0.292893 3.70711C0.48043 3.89464 0.734784 4 1 4H11C11.2652 4 11.5196 3.89464 11.7071 3.70711C11.8946 3.51957 12 3.26522 12 3C12 2.73478 11.8946 2.48043 11.7071 2.29289C11.5196 2.10536 11.2652 2 11 2Z" fill="#C63F3F"/>
<path d="M9.0999 5.00501C8.83566 4.9807 8.57249 5.06156 8.3675 5.23005C8.1625 5.39854 8.03221 5.64107 8.0049 5.90501L7.5999 10H4.4049L3.9999 5.90001C3.98676 5.76935 3.94802 5.64255 3.88589 5.52685C3.82375 5.41116 3.73944 5.30884 3.63776 5.22573C3.53608 5.14262 3.41902 5.08035 3.29328 5.04248C3.16753 5.00461 3.03556 4.99188 2.9049 5.00501C2.77423 5.01814 2.64743 5.05688 2.53174 5.11902C2.41604 5.18116 2.31372 5.26547 2.23061 5.36715C2.14751 5.46883 2.08524 5.58589 2.04737 5.71163C2.0095 5.83737 1.99676 5.96935 2.0099 6.10001L2.4199 10.2C2.46787 10.6931 2.69776 11.1506 3.06474 11.4834C3.43173 11.8162 3.9095 12.0004 4.4049 12H7.5999C8.09616 12.0016 8.57516 11.818 8.9432 11.4851C9.31124 11.1522 9.54184 10.6939 9.5899 10.2L9.9999 6.10001C10.013 5.96896 10.0001 5.83662 9.96191 5.71057C9.92373 5.58453 9.86103 5.46727 9.7774 5.36552C9.69378 5.26378 9.59088 5.17955 9.47461 5.11769C9.35834 5.05582 9.231 5.01753 9.0999 5.00501Z" fill="#C63F3F"/>
</svg>
