<svg width="14" height="14" viewBox="0 0 18 18" fill="none" xmlns="http://www.w3.org/2000/svg">
<path d="M15.5831 8.68806L4.33313 1.18806C4.27665 1.15038 4.211 1.12874 4.14319 1.12544C4.07538 1.12215 4.00795 1.13732 3.94809 1.16935C3.88823 1.20138 3.83818 1.24906 3.8033 1.3073C3.76841 1.36554 3.74999 1.43217 3.75 1.50006V16.5001C3.74999 16.5679 3.76841 16.6346 3.8033 16.6928C3.83818 16.7511 3.88823 16.7987 3.94809 16.8308C4.00795 16.8628 4.07538 16.878 4.14319 16.8747C4.211 16.8714 4.27665 16.8497 4.33313 16.8121L15.5831 9.31206C15.6241 9.28473 15.6593 9.2496 15.6867 9.20867C15.7141 9.16774 15.7332 9.12181 15.7428 9.07351C15.7524 9.02521 15.7525 8.97548 15.7429 8.92717C15.7333 8.87886 15.7143 8.8329 15.687 8.79193C15.6597 8.75071 15.6243 8.71539 15.5831 8.68806Z" fill="white"/>
</svg>
