<?xml version="1.0" encoding="utf-8"?>
<!-- Generator: Adobe Illustrator 26.0.2, SVG Export Plug-In . SVG Version: 6.00 Build 0)  -->
<svg version="1.1" id="Layer_1" xmlns="http://www.w3.org/2000/svg" xmlns:xlink="http://www.w3.org/1999/xlink" width="155px" x="0px" y="0px"
	 viewBox="0 0 263 113" style="enable-background:new 0 0 263 113;" xml:space="preserve">
<style type="text/css">
	.st0{fill:#00B67A;}
	.st1{fill:#FFFFFF;}
</style>
<path d="M67.9,21.9h15.9v3h-6.3v16.7h-3.4V24.9h-6.2V21.9z M83.1,27.3H86V30h0.1c0.1-0.4,0.3-0.8,0.5-1.1c0.3-0.4,0.6-0.7,1-1
	s0.8-0.5,1.3-0.7c0.4-0.2,0.9-0.3,1.4-0.3c0.4,0,0.6,0,0.8,0c0.1,0,0.3,0.1,0.4,0.1v3c-0.2-0.1-0.4-0.1-0.7-0.1
	c-0.2,0-0.4-0.1-0.7-0.1c-0.5,0-1,0.1-1.5,0.3c-0.5,0.2-0.9,0.5-1.2,0.9s-0.6,0.9-0.8,1.5s-0.3,1.3-0.3,2.1v6.7h-3.1L83.1,27.3z
	 M105.8,41.5h-3.1v-2h-0.1c-0.4,0.7-1,1.3-1.7,1.7c-0.8,0.4-1.5,0.7-2.3,0.7c-1.9,0-3.2-0.4-4.1-1.4c-0.8-0.9-1.3-2.3-1.3-4.2v-9
	h3.1V36c0,1.3,0.2,2.1,0.7,2.6s1.2,0.8,2,0.8c0.7,0,1.2-0.1,1.6-0.3c0.4-0.2,0.8-0.5,1.1-0.8s0.5-0.8,0.6-1.2s0.2-1,0.2-1.5v-8.2
	h3.1L105.8,41.5L105.8,41.5z M111.1,37c0.1,0.9,0.4,1.5,1,1.9s1.3,0.5,2.2,0.5c0.3,0,0.6,0,1-0.1s0.7-0.1,1-0.3
	c0.3-0.1,0.6-0.3,0.8-0.6c0.2-0.3,0.3-0.6,0.3-1s-0.2-0.7-0.4-1c-0.3-0.3-0.6-0.4-1-0.6s-0.9-0.3-1.5-0.4c-0.5-0.1-1.1-0.2-1.7-0.4
	c-0.6-0.1-1.2-0.3-1.7-0.5s-1-0.4-1.5-0.8c-0.4-0.3-0.8-0.7-1-1.2c-0.3-0.5-0.4-1.1-0.4-1.8c0-0.8,0.2-1.4,0.6-1.9
	c0.4-0.5,0.9-0.9,1.4-1.3c0.6-0.3,1.2-0.5,1.9-0.7s1.4-0.2,2-0.2c0.7,0,1.4,0.1,2.1,0.2c0.7,0.2,1.3,0.4,1.8,0.8
	c0.5,0.3,1,0.8,1.3,1.4c0.4,0.5,0.6,1.2,0.7,2h-3.3c-0.2-0.8-0.5-1.3-1-1.5c-0.5-0.3-1.2-0.4-1.9-0.4c-0.2,0-0.5,0-0.8,0.1
	s-0.6,0.1-0.9,0.2c-0.3,0.1-0.5,0.3-0.7,0.4s-0.3,0.4-0.3,0.8s0.1,0.7,0.4,0.9c0.3,0.2,0.6,0.4,1,0.6s0.9,0.3,1.5,0.4
	c0.5,0.1,1.1,0.2,1.7,0.4s1.1,0.3,1.7,0.5c0.5,0.2,1,0.4,1.5,0.8c0.4,0.3,0.8,0.7,1,1.2c0.3,0.5,0.4,1.1,0.4,1.8
	c0,0.8-0.2,1.5-0.6,2.1c-0.4,0.6-0.9,1.1-1.5,1.4c-0.6,0.4-1.3,0.6-2,0.8c-0.8,0.2-1.5,0.3-2.2,0.3c-0.9,0-1.7-0.1-2.5-0.3
	c-0.8-0.2-1.4-0.5-2-0.9c-0.5-0.4-1-0.9-1.3-1.5s-0.5-1.3-0.5-2.2L111.1,37L111.1,37L111.1,37z M121.4,27.3h2.4V23h3.1v4.3h2.8v2.3
	h-2.8v7.6c0,0.3,0,0.6,0.1,0.9c0,0.2,0.1,0.4,0.2,0.6c0.1,0.2,0.3,0.3,0.4,0.4c0.2,0.1,0.5,0.1,0.8,0.1c0.2,0,0.4,0,0.7,0
	c0.2,0,0.4-0.1,0.7-0.1v2.4c-0.3,0.1-0.7,0.1-1,0.1c-0.3,0.1-0.7,0.1-1,0.1c-0.8,0-1.5-0.1-2-0.2c-0.5-0.2-0.9-0.4-1.2-0.7
	c-0.3-0.3-0.5-0.7-0.6-1.1s-0.2-1-0.2-1.6v-8.4h-2.4V27.3L121.4,27.3z M132,27.3h3v1.9h0.1c0.4-0.8,1-1.4,1.8-1.8s1.6-0.5,2.6-0.5
	c1.1,0,2.1,0.2,2.9,0.6c0.8,0.4,1.5,0.9,2.1,1.6c0.5,0.7,1,1.5,1.2,2.4c0.3,0.9,0.4,1.9,0.4,2.9s-0.1,1.9-0.4,2.8
	c-0.3,0.9-0.6,1.7-1.1,2.4c-0.5,0.7-1.1,1.2-1.9,1.6s-1.7,0.6-2.7,0.6c-0.4,0-0.9-0.1-1.4-0.1c-0.4-0.1-0.9-0.2-1.3-0.4
	s-0.8-0.4-1.2-0.7c-0.4-0.3-0.7-0.6-0.9-1h-0.1v7.1H132L132,27.3L132,27.3z M142.9,34.4c0-0.6-0.1-1.3-0.3-1.9s-0.4-1.1-0.8-1.6
	s-0.8-0.8-1.2-1.1c-0.5-0.3-1.1-0.4-1.7-0.4c-1.3,0-2.3,0.4-3,1.4c-0.7,0.9-1,2.1-1,3.7c0,0.7,0.1,1.4,0.3,2s0.4,1.1,0.8,1.6
	c0.3,0.4,0.8,0.8,1.3,1c0.5,0.3,1,0.4,1.7,0.4s1.3-0.2,1.8-0.4c0.5-0.3,0.9-0.7,1.2-1.1c0.3-0.5,0.5-1,0.7-1.6
	C142.8,35.7,142.9,35.1,142.9,34.4z M148.4,21.9h3.1v3h-3.1V21.9z M148.4,27.3h3.1v14.2h-3.1V27.3z M154.4,21.9h3.1v19.6h-3.1V21.9z
	 M167.1,41.9c-1.1,0-2.1-0.2-3-0.6s-1.6-0.9-2.2-1.5c-0.6-0.7-1.1-1.5-1.4-2.4c-0.3-0.9-0.5-1.9-0.5-3s0.2-2.1,0.5-3
	s0.8-1.7,1.4-2.4c0.6-0.7,1.4-1.2,2.2-1.5s1.9-0.6,3-0.6s2.1,0.2,3,0.6s1.6,0.9,2.2,1.5c0.6,0.7,1.1,1.5,1.4,2.4
	c0.3,0.9,0.5,1.9,0.5,3s-0.2,2.1-0.5,3s-0.8,1.7-1.4,2.4c-0.6,0.7-1.4,1.2-2.2,1.5C169.2,41.7,168.2,41.9,167.1,41.9z M167.1,39.4
	c0.7,0,1.3-0.2,1.8-0.4c0.5-0.3,0.9-0.7,1.3-1.2s0.6-1,0.7-1.6c0.2-0.6,0.2-1.2,0.2-1.8c0-0.6-0.1-1.2-0.2-1.8
	c-0.2-0.6-0.4-1.1-0.7-1.6s-0.8-0.8-1.3-1.1c-0.5-0.3-1.1-0.4-1.8-0.4s-1.3,0.2-1.8,0.4c-0.5,0.3-0.9,0.7-1.3,1.1
	c-0.3,0.5-0.6,1-0.7,1.6c-0.2,0.6-0.2,1.2-0.2,1.8c0,0.6,0.1,1.2,0.2,1.8s0.4,1.1,0.7,1.6s0.8,0.9,1.3,1.2
	C165.8,39.3,166.4,39.4,167.1,39.4z M175.2,27.3h2.4V23h3.1v4.3h2.8v2.3h-2.8v7.6c0,0.3,0,0.6,0.1,0.9c0,0.2,0.1,0.4,0.2,0.6
	c0.1,0.2,0.3,0.3,0.4,0.4c0.2,0.1,0.5,0.1,0.8,0.1c0.2,0,0.4,0,0.7,0c0.2,0,0.4-0.1,0.7-0.1v2.4c-0.3,0.1-0.7,0.1-1,0.1
	c-0.3,0.1-0.7,0.1-1,0.1c-0.8,0-1.5-0.1-2-0.2c-0.5-0.2-0.9-0.4-1.2-0.7c-0.3-0.3-0.5-0.7-0.6-1.1s-0.2-1-0.2-1.6v-8.4h-2.4V27.3
	L175.2,27.3z"/>
<polygon class="st0" points="45.4,35.5 52.6,30.3 52.6,30.3 52.6,30.3 53.6,29.6 53.6,29.6 64.2,21.9 49.8,21.9 45.4,8.2 41,21.9 
	26.6,21.9 38.2,30.3 33.8,44 45.4,35.5 57,44 53.6,33.4 "/>
<rect x="30" y="56.4" class="st0" width="38.7" height="38.7"/>
<rect x="71.8" y="56.4" class="st0" width="38.7" height="38.7"/>
<rect x="113.7" y="56.4" class="st0" width="38.7" height="38.7"/>
<rect x="155.5" y="56.4" class="st0" width="38.7" height="38.7"/>
<rect x="197.4" y="56.4" class="st0" width="38.7" height="38.7"/>
<path class="st1" d="M49.3,82.4l5.9-1.4l2.4,7.5L49.3,82.4z M62.9,72.6H52.5l-3.2-9.8l-3.2,9.8H35.8l8.4,6L41,88.4l8.4-6l5.1-3.7
	L62.9,72.6z M91.2,82.4l5.9-1.4l2.4,7.5L91.2,82.4z M104.7,72.6H94.4l-3.2-9.8L88,72.6H77.6l8.4,6l-3.2,9.8l8.4-6l5.1-3.7
	L104.7,72.6z M133,82.4l5.9-1.4l2.4,7.5L133,82.4z M146.5,72.6h-10.3l-3.2-9.8l-3.2,9.8h-10.3l8.4,6l-3.2,9.8l8.4-6l5.1-3.7
	L146.5,72.6z M174.9,82.4l5.9-1.4l2.4,7.5L174.9,82.4z M188.3,72.6h-10.3l-3.2-9.8l-3.2,9.8h-10.3l8.4,6l-3.2,9.8l8.4-6l5.1-3.7
	L188.3,72.6z M216.6,82.4l5.9-1.4l2.4,7.5L216.6,82.4z M230.1,72.6h-10.3l-3.2-9.8l-3.2,9.8h-10.3l8.4,6l-3.2,9.8l8.4-6l5.1-3.7
	L230.1,72.6z"/>
<g>
</g>
<g>
</g>
<g>
</g>
<g>
</g>
<g>
</g>
<g>
</g>
<g>
</g>
<g>
</g>
<g>
</g>
<g>
</g>
<g>
</g>
<g>
</g>
<g>
</g>
<g>
</g>
<g>
</g>
</svg>
