<svg width="157" height="29" viewBox="0 0 157 29" fill="none" xmlns="http://www.w3.org/2000/svg">
<rect width="28.7195" height="28.7195" fill="#51B37F"/>
<path d="M8.13786 23.9331L10.5312 16.5139L4.30859 11.9666H12.2065L14.5998 4.30811L17.2324 11.9666H24.6516L14.5998 19.2506L19.3863 18.1892L21.0616 23.9331L14.5998 19.2506L8.13786 23.9331Z" fill="white"/>
<rect x="32.0703" width="28.7195" height="28.7195" fill="#51B37F"/>
<path d="M40.2082 23.9331L42.6015 16.5139L36.3789 11.9666H44.2768L46.6701 4.30811L49.3027 11.9666H56.7219L46.6701 19.2506L51.4566 18.1892L53.132 23.9331L46.6701 19.2506L40.2082 23.9331Z" fill="white"/>
<rect x="64.1406" width="28.7195" height="28.7195" fill="#51B37F"/>
<path d="M72.2785 23.9331L74.6718 16.5139L68.4492 11.9666H76.3471L78.7404 4.30811L81.373 11.9666H88.7922L78.7404 19.2506L83.527 18.1892L85.2023 23.9331L78.7404 19.2506L72.2785 23.9331Z" fill="white"/>
<rect x="96.2109" width="28.7195" height="28.7195" fill="#51B37F"/>
<path d="M104.349 23.9331L106.742 16.5139L100.52 11.9666H108.417L110.811 4.30811L113.443 11.9666H120.863L110.811 19.2506L115.597 18.1892L117.273 23.9331L110.811 19.2506L104.349 23.9331Z" fill="white"/>
<rect x="128.281" width="28.7195" height="28.7195" fill="#51B37F"/>
<path d="M136.419 23.9331L138.812 16.5139L132.59 11.9666H140.488L142.881 4.30811L145.514 11.9666H152.933L142.881 19.2506L147.668 18.1892L149.343 23.9331L142.881 19.2506L136.419 23.9331Z" fill="white"/>
</svg>
