<svg width="27" height="20" xmlns="http://www.w3.org/2000/svg">
    <g fill-rule="nonzero" fill="none">
        <path d="M25.875 0H1.125C.504 0 0 .497 0 1.111V18.89C0 19.503.504 20 1.125 20h24.75c.621 0 1.125-.497 1.125-1.111V1.11C27 .497 26.496 0 25.875 0z" fill="#002781"/>
        <path d="M27 1.111C27 .497 26.496 0 25.875 0h-2.903L15.75 5.487V0h-4.5v5.487L4.028 0H1.125C.504 0 0 .497 0 1.111v1.437l6.884 5.23H0v4.444h6.884L0 17.452v1.437C0 19.503.504 20 1.125 20h2.903l7.222-5.487V20h4.5v-5.487L22.972 20h2.903c.621 0 1.125-.497 1.125-1.111v-1.436l-6.884-5.23H27V7.777h-6.884L27 2.548V1.11z" fill="#E6E6E6"/>
        <path fill="#D10D24" d="M27 8.889H14.625V0h-2.25v8.889H0v2.222h12.375V20h2.25v-8.889H27z"/>
        <path d="M11 12 1 19.975c.075.016.15.025.227.025h1.295L11 13.24V12zM16 8 26 .025A1.084 1.084 0 0 0 25.773 0h-1.295L16 6.761V8zM10 8 .342 1A1.006 1.006 0 0 0 0 1.75v.155L8.41 8H10zM17 12l9.658 7c.219-.195.342-.466.342-.75v-.155L18.59 12H17z" fill="#D10D24"/>
    </g>
</svg>
