<?xml version="1.0" encoding="utf-8"?>
<!-- Generator: Adobe Illustrator 26.0.1, SVG Export Plug-In . SVG Version: 6.00 Build 0)  -->
<svg version="1.1" id="Layer_1" xmlns="http://www.w3.org/2000/svg" width="175px" height="100px" xmlns:xlink="http://www.w3.org/1999/xlink" x="0px" y="0px"
	 viewBox="0 0 548.9 349.9" style="enable-background:new 0 0 548.9 349.9;" xml:space="preserve">
<style type="text/css">
	.st0{display:none;}
	.st1{display:none;fill:#101010;}
	.st2{display:none;fill:#FDFDFD;}
	.st3{fill:#274A76;}
	.st4{fill:#7F86A6;}
	.st5{fill:#595959;}
	.st6{fill:#969696;}
	.st7{fill:#FFFFFF;}
	.st8{fill:#FEFEFE;}
	.st9{fill:#FCFCFC;}
	.st10{fill:#AFAFAF;}
	.st11{fill:#010101;}
	.st12{fill:#020202;}
	.st13{fill:#030303;}
	.st14{fill:#8F8F8F;}
	.st15{fill:#5B5B5B;}
	.st16{fill:#F1F1F1;}
</style>
<g>
	<path class="st0" d="M3.5,347.5c0-115.1,0-230.2,0-345.3c178.2,0,356.5,0,534.7,0c0,115.1,0,230.2,0,345.3
		c-0.4,0.2-0.8,0.1-1.3,0.1c-177.4,0-354.8,0-532.2,0C4.3,347.6,3.9,347.7,3.5,347.5z"/>
	<path class="st1" d="M7.1,345.1c178.2,0,356.5,0,534.7,0c-0.1,0.1,0.1,0.2-0.1,0.2c-0.3,0-0.6,0-0.9,0c-177.5,0-355.1,0-532.6,0
		C7.8,345.3,7.4,345.6,7.1,345.1z"/>
	<path class="st2" d="M274.6,1.8c87.8,0,175.7,0,263.5,0c1.9,0,1.9,0,1.9,1.9c0,112.6,0,225.2,0,337.8c0,2.2,0.3,1.8-1.9,1.8
		c-175.7,0-351.3,0-527,0c-1.9,0-1.9,0-1.9-1.9c0-112.6,0-225.2,0-337.8c0-2.1-0.3-1.8,1.9-1.8C99,1.8,186.8,1.8,274.6,1.8z"/>
	<path class="st3" d="M150.6,165.9c43.8,0,87.6,0,131.4,0c1,0,2,0,3,0s1,0.1,0.9,1.1c-0.8,9-2.5,18-5.1,26.7
		c-2.5,8.3-5.6,16.1-9.6,23.8c-0.5,1-1.1,1.3-2.2,1.3c-79.1,0-158.2,0-237.3,0c-1.1,0-1.6-0.3-2.2-1.3
		c-6.7-12.9-11.1-26.6-13.5-40.9c-0.4-3-0.9-6.1-1.2-9.1c-0.1-1.4-0.1-1.4,1.3-1.4c1,0,1.8,0,2.8,0
		C63.1,165.9,106.9,165.9,150.6,165.9z"/>
	<path class="st3" d="M48.1,222.1c0.5,0,1.1,0,1.6,0c67,0,134.2,0,201.3,0c0.8,0,1.4,0,2.2,0c0.6,0.6,0.1,1.2-0.2,1.6
		c-2,3.1-4.3,6-6.7,8.9c-3.4,4.3-7.3,8.1-11.2,11.9c-1.3,1.3-2.7,2.4-3.9,3.6c-0.6,0.5-0.9,1.1-0.3,1.8c0.6,0.8,1.2,0.5,1.8,0
		c1.2-1,2.4-1.9,3.4-3c7.6-7.2,14.5-15.1,20.1-23.9c0.3-0.5,0.9-0.9,1.4-1.1c3.7,0,7.2,0,10.9,0c-17.7,32.9-58.5,67.3-113.9,68.8
		C95.2,292.5,51.4,256.9,32.4,222c1.8-0.1,3.7,0,5.4-0.1c1.7,0,3.6,0,5.3,0c1,0.3,1.5,1,2,1.7c3.2,4.8,6.7,9.5,10.5,13.9
		c1.9,2.2,3.9,4.4,6,6.5c2,1.9,4.2,3.9,6.3,5.8c1,0.9,1.5,0.9,2,0.2c0.5-0.6,0.5-1.2-0.1-1.7c-1.2-1.1-2.5-2.3-3.7-3.3
		c-6.2-5.6-11.5-11.9-16.5-18.6c-0.6-1-1.4-1.9-2-2.9C47.8,223.1,47.5,222.5,48.1,222.1z"/>
	<path d="M543,156.6c0,49.4,0,98.9,0,148.3c0,1.9,0,1.9-1.9,1.9c-76.8,0-153.7,0-230.5,0c-2.3,0-1.9,0.3-1.9-1.9
		c0-98.9,0-197.8,0-296.7c0-2.2-0.3-1.8,1.9-1.8c76.8,0,153.8,0,230.6,0c2.2,0,1.8-0.3,1.8,1.8C543,57.7,543,107.2,543,156.6z"/>
	<path class="st3" d="M177.8,113.1c4.7,3.6,7.9,8.4,10.5,13.6c1.9,3.7,3.6,7.4,5,11.4c0.3,1.1,0.3,1.1-0.6,1.5
		c-2.2,0.9-4.1,2-5.8,3.4c-2.9,2.4-4.7,5.3-5.2,9.1c0,0.2,0,0.4-0.2,0.6c-1-0.2-1.8-0.6-2.8-0.9c-2.8-0.4-5.5,0-8.1,1.1
		c-2.2,1-4.1,2.3-5.9,3.8c-0.8,0.6-0.8,0.6-1.4,0c-4.5-4.7-8.7-9.8-11.9-15.5c-1.7-3-3-6.1-3.4-9.5c-0.2,0-0.3,0.1-0.3,0.2
		c-1,3.1-2.6,5.8-4.5,8.3c-4.1,5.4-9,9.8-14.3,13.9c-0.6,0.5-0.8,0.5-1.3-0.1c-1.4-1.6-3-3.1-4.7-4.3c-2.8-1.9-5.9-2.9-9.3-2.6
		c-0.3,0-0.8,0.1-1.1,0.2c-0.3,0-0.6,0.2-1,0c0-0.6,0-1.3,0-1.9c-0.2-3.2-1.6-5.9-3.7-8.3c-1.6-1.8-3.4-3.2-5.5-4.5
		c-0.9-0.5-0.9-0.5-0.3-1.4c3.2-5.9,6.8-11.6,11.5-16.6c2-2.2,4.3-4.1,7.1-5.5c0.1-0.1,0.3-0.1,0.3-0.4c-0.8,0-1.5-0.1-2.3-0.1
		c-3.1-0.3-6-1.2-8.9-2.3c-5.6-2.3-10.9-5.3-15.8-8.6c-0.9-0.5-0.9-0.6-0.3-1.5c1.3-2.3,2.4-4.5,2.9-7.1c0.8-3.4,0.4-6.7-1.5-9.8
		c-0.1-0.1-0.1-0.2-0.1-0.3V79c0.1-0.2,0.2-0.2,0.4-0.2c3.1-0.8,5.4-2.5,7.2-5c1.7-2.3,2.7-4.8,3.4-7.5c0.1-0.2,0.1-0.4,0.1-0.6
		c0.2-0.9,0.3-0.9,1.2-0.8c2.6,0.4,5.2,1,7.7,1.7c4.2,1.2,8.4,2.5,12.4,4.5c2.5,1.3,4.7,2.7,6.7,4.7c0.1,0.1,0.2,0.1,0.3,0.2
		c0.2-0.1,0.1-0.3,0.1-0.4c-1.3-4-1.3-8.1-1-12.2c0.4-5.5,1.6-10.9,3.1-16.1c0.1-0.2,0.1-0.4,0.2-0.6c0.1-0.6,0.4-0.8,1.1-0.6
		c1.3,0.3,2.7,0.5,4,0.6c2.5,0.2,5,0,7.3-0.9c1.9-0.6,3.7-1.8,5.1-3.4c0.2-0.2,0.3-0.4,0.5-0.5c0.1,0,0.2,0,0.2,0.1
		c2.4,3.9,6,5.7,10.3,6.3c1.8,0.3,3.7,0.2,5.6,0.2c1,0,1.1,0,1.2,1c0.8,5.4,1.2,10.9,0.9,16.3c-0.1,2.7-0.4,5.3-1.2,7.9
		c-0.3,1.4-0.8,2.7-1.4,4c-0.1,0.3-0.3,0.5-0.3,0.9c0.1,0.2,0.3,0.1,0.3,0.1c3.6-2.6,7.6-3.9,11.8-4.8c5.2-1.2,10.4-1.7,15.8-1.8
		c1.3,0,1.3,0,1.4,1.3c0.2,2.4,0.8,4.6,1.6,6.8c1.4,3.3,3.7,6,7.2,7.4c0.1,0,0.2,0.1,0.3,0.2c0.1,0.3-0.2,0.5-0.4,0.8
		c-2.2,2.8-2.9,5.9-2.7,9.4c0.2,2.5,0.9,4.8,1.8,7.2c0.4,1,0.4,1-0.5,1.4c-6.6,3.1-13.3,5.8-20.6,6.9
		C183.2,113.4,180.5,113.5,177.8,113.1z"/>
	<path class="st3" d="M295.2,155.2c-0.5,39.1-14,73-41.3,101.1c-20.2,20.9-44.8,34.2-73.2,40.4c-7.6,1.6-15.3,2.6-23,2.9
		c-6.7,0.3-13.2,0.2-19.8-0.3c-17.7-1.5-34.5-6-50.5-13.9c-32.7-16.3-56.3-41.2-70.5-74.9C12.1,199,9,187,7.3,174.6
		c-1.2-8.7-1.6-17.5-1.2-26.4C7.9,115.8,19.1,86.9,40.1,62c10-11.9,21.6-21.8,34.9-30c0.2-0.1,0.3-0.2,0.5-0.3c1-0.5,1-0.5,1.5,0.4
		c0.5,0.9,1.1,1.8,1.6,2.7c0.3,0.5,0.3,0.9-0.3,1.2c-1.6,1-3.3,2-5,3.1c-28,19-47,44.8-56.7,77.3c-2.4,8.1-3.9,16.4-4.7,24.9
		c-0.8,7.9-1,15.7-0.4,23.7c2.4,31.7,14,59.6,35.3,83.4c16.3,18.2,35.8,31.2,59,39.1c8.9,3,18,5.1,27.3,6.2
		c5.7,0.8,11.5,1.2,17.3,1.1c33.8-0.2,63.9-10.9,90-32.6c17.8-14.9,31-32.9,39.7-54.3c4.3-10.5,7.2-21.5,8.8-32.8
		c1.1-7.3,1.5-14.6,1.4-22c-0.6-29.7-9.6-56.7-27.3-80.6c-10.7-14.4-23.7-26.4-38.9-35.8c-0.2-0.1-0.3-0.2-0.5-0.3
		c-0.5-0.2-0.5-0.5-0.2-1.1c0.6-1.1,1.3-2,1.8-3.1c0.3-0.4,0.5-0.5,1-0.2c1,0.6,1.9,1.2,2.9,1.8c28.3,18.7,48.1,43.9,59.1,76.1
		c3.2,9.7,5.4,19.6,6.5,29.7C294.9,144.6,295.2,149.9,295.2,155.2z"/>
	<path class="st3" d="M15,162.5c-0.4-5.8-0.2-11.7,0.1-17.5c0.5-7.6,1.7-15.3,3.7-22.7C24,101,33.9,82.3,48.2,65.8
		c9-10.3,19.5-19.2,31.1-26.4c1.6-1,1.4-1,2.3,0.6c1.2,1.9,2.3,3.9,3.4,5.8c0.3,1-0.3,1.3-1,1.7c-4.4,2.8-8.6,5.7-12.7,9
		C59,66.8,48.7,78.7,40.8,92.7c-6.8,11.9-11.4,24.6-14,38.2c-1,5.2-1.6,10.4-1.9,15.8c-0.3,5-0.2,9.9-0.1,15c0,0.4-0.1,0.9-0.4,1.1
		l0,0C21.2,162.7,18.1,162.8,15,162.5z"/>
	<path class="st3" d="M216.7,46c1.2-2,2.4-4.1,3.6-6.1c0.6-1.1,0.6-1.1,1.7-0.4c6.5,4,12.5,8.4,18.2,13.5C261,71.4,275,94,282.1,121
		c1.8,7.1,3.1,14.3,3.8,21.6c0.5,6.3,0.6,12.7,0.4,19c0,0.6-0.2,1-1,1c-2.4-0.1-4.8,0-7.2,0c-1.4,0-1.8-0.4-1.7-1.8
		c0.3-2.7,0.2-5.3,0.2-8c-0.2-11.7-1.9-23.4-5.3-34.7c-2.4-7.7-5.4-15.3-9.1-22.5c-4.5-8.4-9.8-16.4-16.1-23.6
		c-2.7-3-5.4-5.9-8.3-8.7c-5.9-5.6-12.4-10.8-19.3-15.2C217.6,47.9,216.2,47.5,216.7,46z"/>
	<path class="st4" d="M216.7,46c0.1,0.6,0.8,1,1.2,1.2c3.3,2,6.6,4.3,9.7,6.7c5.5,4.2,10.7,8.8,15.4,13.9
		c7.1,7.5,13.1,15.7,18.2,24.6c6.7,11.8,11.3,24.4,13.9,37.9c0.9,4.5,1.4,9,1.8,13.7c0.4,5,0.4,9.8,0.4,14.7c0,0.9-0.2,1.7-0.2,2.7
		c0,0.9,0.1,1.1,1.1,1.1c2.4,0,4.7,0,7.1,0c0.5,0,1-0.2,1.2-0.8c0.1,0.6-0.1,1-0.8,1c-2.9,0-5.7,0.1-8.6-0.1c-0.9,0-1.7,0-2.7-0.1
		c-1,0-1.1-0.1-1-1.1c0.2-4.3,0.3-8.6,0.1-12.9c-0.8-14.1-3.7-27.8-9-40.8c-5.1-12.3-11.9-23.5-20.6-33.5
		c-8.2-9.4-17.4-17.4-28-24.1c-0.1-0.1-0.3-0.2-0.4-0.3c-0.6-0.4-0.8-0.5-0.3-1.4C215.5,47.9,216.1,46.9,216.7,46z"/>
	<path class="st4" d="M24.2,162.6c-0.2-0.9-0.2-1.7-0.2-2.7c0-3.1-0.1-6.3,0-9.5c0.1-5.2,0.6-10.3,1.4-15.5c1.2-7.5,3-14.7,5.5-22
		c3.9-11.2,9.4-21.7,16.3-31.4c5.3-7.4,11.2-14.1,17.9-20.2c5.8-5.4,12.1-10.1,18.8-14.3c0.5-0.3,1.1-0.5,1.3-1.2
		c0.5,1,1.2,1.8,1.7,2.8c0.3,0.4,0.2,0.8-0.2,1.1c-0.3,0.2-0.6,0.4-1,0.6C76.1,56.3,67.6,63.5,60,71.8C52.9,79.5,46.8,88,41.9,97.3
		c-5.4,10.1-9.3,20.9-11.6,32.2c-1.1,5.4-1.8,10.8-2.3,16.3c-0.2,3-0.2,6-0.3,8.9c-0.1,2,0.1,4.1,0.1,6c0,0.3,0,0.6,0,1
		c0,0.6-0.3,1-0.9,1C26.1,162.6,25.2,162.6,24.2,162.6z"/>
	<path class="st3" d="M105.8,39.8c-1,0-1.8,0-2.6-0.2c-0.4-0.1-0.8-0.3-0.6-0.9c0.1-0.8,0.1-1.5,0.2-2.3c0-0.5,0.3-0.6,0.9-0.5
		c2,0.4,4.1,0.2,6.1-0.4c0.8-0.2,1.4-0.5,1.9-1.1c0.5-0.5,0.9-1.1,0.6-1.8c-0.2-0.8-0.9-1.1-1.5-1.2c-1.3-0.2-2.6,0-3.9,0.1
		c-1,0.1-2,0.1-3,0.1c-4.1-0.1-6.5-4.4-4.3-8c0.5-1,1.4-1.7,2.3-2.4c2.7-1.7,5.6-2.4,8.7-2.2c1.1,0.1,1.2,0.1,1.1,1.2
		c-0.1,0.8,0.2,1.7-0.3,2.4c-0.5,0.5-1.4,0-2.2,0c-1.5,0.1-2.9,0.3-4.3,1c-0.5,0.2-1.1,0.6-1.4,1.1c-0.9,1.2-0.2,2.6,1.2,2.7
		c1.1,0.1,2.2,0,3.1-0.1c1.3-0.2,2.6-0.2,3.9-0.2c4.5,0.1,5.8,4.6,4.4,7.3c-0.6,1.3-1.6,2.3-2.8,3C110.9,39.1,108.3,39.8,105.8,39.8
		z"/>
	<path d="M433.9,340.2c0.5,0.3,1,0.2,1.4,0.2c3.3,0,6.6,0,9.9,0c1.2,0,1.2,0,1.2,1.2c0,2.2,0.2,1.9-1.9,1.9c-4.5,0-9.1,0-13.7,0
		c-1.5,0-1.7-0.2-1.3-1.7c0.4-1.4,1.2-2.7,2.2-3.9c1.2-1.4,2.6-2.7,4-3.9c1.6-1.3,3.1-2.7,4.6-4.1c0.9-0.9,1.6-1.8,2.2-2.9
		c0.8-1.7,0.9-3.4-0.3-5c-1.4-1.7-3.2-2-5.3-1.6c-1.9,0.4-3.1,1.7-3.6,3.8c-0.2,1.3-0.2,1.3-1.5,1.2c-2-0.2-2.2-0.3-1.5-2.3
		c0.8-2.6,2.5-4.4,5.2-5.1c1.7-0.4,3.4-0.5,5.2-0.1c4.5,1,6.9,5.4,5.2,9.7c-0.5,1.4-1.4,2.5-2.4,3.6c-1.4,1.5-3,2.9-4.5,4.2
		c-1.1,1-2.2,1.8-3.2,2.8C434.9,338.7,434.4,339.3,433.9,340.2z"/>
	<path class="st4" d="M257.8,222.1c-3.1,5.1-6.7,9.8-10.5,14.4c-3.2,3.9-6.9,7.4-10.4,11c-1.4,1.4-2.9,2.7-4.4,4
		c-0.6,0.5-0.8,0.5-1.2-0.1c-0.3-0.4-0.8-0.9-1.1-1.3c-0.8-0.9-0.6-1.1,0.1-1.7c0.8-0.8,1.6-1.4,2.4-2c6.8-6,12.8-12.8,18.1-20.2
		c0.9-1.3,1.9-2.5,2.6-3.9C254.7,222.1,256.2,222.1,257.8,222.1z"/>
	<path class="st4" d="M48.1,222.1c0,0.5,0.3,1,0.6,1.4c2.8,4.2,5.9,8.2,9.1,11.9c2,2.4,4.2,4.7,6.5,6.9c2.2,2,4.3,4.1,6.6,5.9
		c1,0.9,1,0.9,0.1,1.9c-0.3,0.3-0.5,0.8-0.9,1.1c-0.6,0.8-0.6,0.8-1.4,0.1c-1.1-0.9-2-1.7-3.1-2.6c-7.4-6.7-14-14.2-19.6-22.4
		c-1-1.4-1.7-2.9-2.9-4.2C44.9,222.1,46.5,222.1,48.1,222.1z"/>
	<path class="st3" d="M214.1,28.1c0,0.1-0.1,0.3-0.2,0.5c-2.5,5.3-5,10.5-7.5,15.7c-0.4,0.8-0.4,0.8-1.2,0.4
		c-0.8-0.3-1.6-0.8-2.4-1.2c-0.8-0.4-0.8-0.4-0.4-1.3c1.2-2.6,2.5-5.1,3.7-7.6c0.8-1.5,1.5-3.1,2.3-4.6c0.4-1,0.4-1-0.5-1.4
		c-0.6-0.3-1.3-0.6-1.9-1c-0.3-0.2-0.5-0.4-0.3-0.8c0.3-0.8,0.6-1.4,1.1-2.2c0.2-0.4,0.4-0.4,0.9-0.2c2.2,1,4.3,2,6.3,3
		C213.9,27.6,214.1,27.7,214.1,28.1z"/>
	<path class="st3" d="M100.8,42c0,0.3-0.1,0.4-0.3,0.5c-1,0.4-1.9,1-3,1.4c-0.3,0.2-0.6,0.1-0.9-0.3c-0.1-0.2-0.2-0.5-0.4-0.8
		c-2.3-5-4.6-9.9-6.9-14.7c-0.1-0.2-0.2-0.4-0.3-0.6c-0.2-0.4-0.1-0.6,0.3-0.9c1-0.4,1.8-0.9,2.8-1.3c0.4-0.2,0.8-0.1,1,0.3
		c0.1,0.2,0.2,0.4,0.2,0.5c2.4,5.1,4.6,10,7,15.1C100.5,41.5,100.7,41.8,100.8,42z"/>
	<path class="st5" d="M192.9,53.3c0-2.2,1.6-3.8,3.8-3.8c2.2,0,3.9,1.7,3.9,3.9c0,2-1.8,3.8-3.9,3.8
		C194.5,57.1,192.9,55.5,192.9,53.3z"/>
	<path class="st6" d="M15,162.5c3.1,0,6.2,0,9.4,0c-0.3,0.2-0.8,0.2-1.1,0.2c-2.4,0-4.7,0-7.2,0C15.6,162.8,15.3,162.8,15,162.5z"/>
	<path class="st7" d="M159,201.2c0.9,1.2,2,1.5,3.4,1.3c0.5-0.1,1-0.3,1.4-0.5c0.4-0.2,0.6-0.8,1.2-0.6c0.5,0.1,0.8,0.6,1.1,1.1
		l0.1,0.1c1.1,1.4,1.2,1.5-0.4,2.5c-2.8,1.8-5.7,1.6-8.6,0.1c-1.3-0.6-2.3-1.6-3.2-2.6c-0.5-0.5-1-0.8-1.7-1c-4.5-1-7.5-3.7-8.5-8.3
		c-1.3-5.9,2.6-11.5,8.6-12.6c3.1-0.5,6-0.2,8.8,1.4c3.7,2.3,5.3,5.6,5,9.8c-0.2,4-2.3,6.9-5.8,8.7
		C159.8,200.7,159.4,200.8,159,201.2z"/>
	<path class="st7" d="M131,201.8c-1.5,0-2.8-0.2-4-0.5c-4.8-1.5-7.7-5.8-7.5-10.8c0.3-5,3.9-9,8.8-9.9c2.3-0.4,4.4-0.3,6.7,0.4
		c4.6,1.6,7.6,5.9,7.2,10.8c-0.4,5.1-3.9,9-8.8,9.8C132.5,201.7,131.7,201.8,131,201.8z"/>
	<path class="st7" d="M208.9,201.3c-1.5,0-2.9,0-4.3,0c-0.5,0-0.8-0.4-1.1-0.8c-1-1.4-1.9-2.8-2.9-4.2c-0.3-0.5-0.8-0.9-1.4-0.8
		c-0.9,0-1.7,0-2.7,0c-0.5,0-0.9,0.2-0.9,0.9c0,1.2,0,2.5,0,3.7c0,1.2,0,1.2-1.2,1.2c-0.9,0-1.7,0-2.6,0c-1,0-1.1-0.1-1.1-1.1
		c0-0.2,0-0.5,0-0.8c0-5.6,0-11.3,0-16.9c0-0.3,0-0.6,0-1c0-0.6,0.3-0.9,0.9-0.9c3.3,0,6.6-0.1,9.9,0.1c1,0.1,2,0.3,2.9,0.8
		c3.9,1.7,5.5,6.2,3.6,10c-0.5,1.2-1.5,2-2.6,2.7c-0.9,0.5-0.9,0.5-0.3,1.4c1,1.5,2,2.9,3,4.4C208.5,200.4,208.8,200.7,208.9,201.3z
		"/>
	<path class="st7" d="M189.3,201.3c-1.4,0-2.8,0-4.2,0c-0.4,0-0.6-0.3-0.8-0.6c-0.4-1-0.8-1.8-1.2-2.8c-0.2-0.6-0.5-1-1.3-0.9
		c-2.6,0-5.3,0-7.9,0c-0.5,0-1,0.2-1.2,0.8c-0.3,1-0.9,1.9-1.2,2.9c-0.2,0.5-0.5,0.8-1.1,0.8c-1.2,0-2.3,0-3.4,0
		c-0.5,0-0.8-0.2-0.4-0.8c0.1-0.2,0.2-0.4,0.3-0.6c2.7-6,5.4-11.9,8-18c0.4-0.9,0.9-1.4,1.8-1.3c0.9,0.1,1.7,0,2.7,0
		c0.5,0,1,0.2,1.2,0.8c0.2,0.6,0.5,1.3,0.9,1.9c2.5,5.5,5,11,7.4,16.5C189.2,200.3,189.6,200.7,189.3,201.3z"/>
	<path class="st7" d="M109.8,201.8c-2.6,0-5.1-0.5-7.3-1.7c-1.2-0.6-1.2-0.6-0.6-1.8c0.3-0.8,0.4-1.8,1.2-2.2
		c0.6-0.3,1.4,0.5,2.2,0.9c1.9,0.8,4,1.2,6,0.9c0.6-0.1,1.3-0.2,1.7-0.6c1.1-0.8,1.1-2,0-2.9c-0.5-0.4-1.3-0.6-1.9-0.9
		c-1.3-0.3-2.6-0.6-3.8-1c-0.6-0.2-1.2-0.3-1.8-0.5c-1.9-0.8-3.3-2-3.6-4.2c-0.3-2.3,0.4-4.2,2.3-5.6c1.4-1.1,3-1.5,4.7-1.7
		c2.8-0.3,5.5,0.1,8,1.3c0.9,0.4,0.9,0.4,0.5,1.3c-0.2,0.6-0.5,1.3-0.9,1.9c-0.3,0.8-0.3,0.8-1.1,0.4c-1.9-1-4.1-1.4-6.2-1.1
		c-0.6,0.1-1.2,0.2-1.6,0.5c-1.3,0.9-1.2,2.5,0.2,3.2c0.8,0.3,1.5,0.5,2.3,0.8c1.3,0.3,2.5,0.6,3.8,1c0.4,0.1,0.9,0.3,1.3,0.4
		c1.8,0.8,3.1,1.9,3.4,4c0.3,2.3-0.4,4.2-2.3,5.6c-1.7,1.3-3.7,1.6-5.7,1.8C110.3,201.8,110,201.8,109.8,201.8z"/>
	<path class="st7" d="M94.2,191c0-3,0-6,0-9.1c0-1.2,0-1.2,1.2-1.2c1,0,1.9,0,2.9,0c0.4,0,0.8,0.2,0.6,0.6c0,0.3,0,0.5,0,0.9
		c0,5.8,0,11.6,0,17.4c0,0.2,0,0.4,0,0.6c0,0.9-0.1,1-1,1c-1,0-1.8,0-2.8,0c-1.1,0-1.1,0-1.1-1.1C94.2,197.1,94.2,194.1,94.2,191z"
		/>
	<path class="st7" d="M201,238.3c0-2,0-4.1,0-6.2c0-1.2,0-1.2,1.1-1.2c2.4,0,4.7-0.1,7.1,0.1c4.7,0.5,7.5,4.5,6.5,9.1
		c-0.6,2.9-2.7,4.5-5.4,5.3c-0.8,0.2-1.5,0.3-2.3,0.3c-1.9,0-4,0-5.9,0c-1,0-1,0-1-1C201,242.7,201,240.5,201,238.3z"/>
	<path class="st7" d="M186.1,245.8c-1,0-2,0-3,0c-0.4,0-0.6-0.3-0.9-0.6c-0.6-0.9-1.2-1.7-1.8-2.6c-0.4-0.6-0.9-0.9-1.5-0.9
		c-2.5,0-2.2-0.1-2.2,2c0,2.3,0.3,2-2.2,2c-1.3,0-1.3,0-1.3-1.3c0-4.1,0-8.3,0-12.4c0-1.2,0-1.2,1.1-1.2c2.3,0,4.5-0.2,6.8,0.1
		c2,0.3,3.8,1.3,4.5,3.3c0.6,1.8,0.4,4.6-1.9,6.1c-0.8,0.4-0.8,0.5-0.2,1.3c0.9,1.2,1.7,2.4,2.5,3.7
		C186.1,245.6,186.1,245.7,186.1,245.8z"/>
	<path class="st7" d="M99.8,245.8c-1.1,0-1.9,0-2.9,0c-0.4,0-0.6-0.3-0.9-0.6c-0.6-0.9-1.3-1.7-1.8-2.6c-0.4-0.8-1-1-1.7-0.9
		c-2.4,0.1-1.9-0.1-2,2c0,2.3,0.3,2-2.2,2c-1.3,0-1.3,0-1.3-1.3c0-4.1,0-8.3,0-12.4c0-1.1,0.1-1.2,1.2-1.2c2.2,0,4.4-0.1,6.6,0.1
		c0.9,0.1,1.6,0.3,2.4,0.8c3.4,1.7,3.4,6.9,0.6,8.7c-0.1,0.1-0.3,0.2-0.4,0.3c-0.4,0.2-0.4,0.5-0.1,1c0.8,1.1,1.5,2.2,2.3,3.2
		C99.6,245.1,99.8,245.2,99.8,245.8z"/>
	<path class="st8" d="M160.1,238.2c0-2,0-4.1,0-6c0-1.2,0-1.3,1.2-1.3c2.9,0,5.9,0,8.8,0c1.1,0,1.2,0.1,1.2,1.2c0,0.2,0,0.3,0,0.5
		c0,1.1-0.1,1.1-1.2,1.1c-1.8,0-3.7,0-5.5,0c-1.1,0-1.1,0-1.1,1.1c0,2.5-0.2,2.2,2,2.2c1.3,0,2.6,0,3.8,0c1,0,1,0,1,0.9
		c0.1,1.7,0.1,1.7-1.7,1.7c-1.4,0-2.8,0-4.2,0c-0.9,0-1,0.1-1,1c0,2.9-0.3,2.4,2.4,2.5c1.5,0,3,0,4.5,0c1.1,0,1.1,0,1.1,1.1
		c0.1,1.7,0.1,1.7-1.7,1.7c-2.8,0-5.7,0-8.5,0c-1.3,0-1.4,0-1.4-1.3C160.1,242.4,160.1,240.4,160.1,238.2z"/>
	<path class="st7" d="M101.4,238.3c0-2.2,0-4.2,0-6.3c0-1.1,0.1-1.1,1.1-1.1c3,0,6,0,9,0c1.1,0,1.1,0.1,1.1,1.1
		c0.1,1.7,0.1,1.7-1.7,1.7c-1.7,0-3.3,0-5.1,0c-1,0-1,0.1-1,1.1c0,2.5-0.2,2.2,2,2.2c1.3,0,2.6,0,3.9,0c0.6,0,1,0.2,0.9,0.9
		c0,0.2,0,0.4,0,0.6c0,1.1,0,1.1-1.2,1.2c-1.5,0-3,0-4.5,0c-1.1,0-1.1,0.1-1.1,1.1c0,2.8-0.3,2.3,2.3,2.4c1.6,0,3.3,0,5,0
		c0.6,0,0.9,0.2,0.9,0.9c0,2.3,0,1.9-1.7,1.9c-2.8,0-5.7,0-8.5,0c-1.2,0-1.2,0-1.2-1.2C101.4,242.5,101.4,240.5,101.4,238.3z"/>
	<path class="st7" d="M127.5,241.3c0,0.8,0,1.4,0,2.2c0,0.5-0.2,1-0.8,1.2c-3.1,1.6-6.3,2-9.6,0.3c-2.8-1.5-4.2-4.6-3.7-7.9
		c0.5-3.2,2.9-5.6,6.1-6.2c1.6-0.3,3.2-0.2,4.7,0.2c1,0.3,1.8,0.8,2.7,1.5c0.6,0.5,0.6,0.6,0.1,1.3c-0.1,0.1-0.2,0.2-0.3,0.3
		c-1.1,1-1.1,1-2.4,0.2c-1.7-1.1-3.6-1.1-5.3-0.1c-1.6,1-2.3,2.5-2.2,4.3c0.1,3.7,3.7,5.3,6.8,4.1c0.4-0.2,0.5-0.5,0.5-1
		c0-0.9,0-1.7,0-2.7c0-0.6,0.2-0.9,0.9-0.9c2.6,0,2.3-0.1,2.3,2C127.5,240.6,127.5,240.9,127.5,241.3L127.5,241.3z"/>
	<path class="st8" d="M187.7,238.2c0-1.9,0-4,0-5.9c0-1.3,0-1.3,1.4-1.3c2.8,0,5.6,0,8.5,0c1.4,0,1.4,0,1.4,1.4c0,0.1,0,0.2,0,0.4
		c0,0.9-0.1,1-1,1c-1.8,0-3.7,0-5.6,0c-1.3,0-1.3,0-1.3,1.3c0,2.2-0.2,1.9,1.8,1.9c1.3,0,2.6,0,3.9,0c1,0,1,0,1.1,1v0.1
		c0,1.5,0,1.5-1.5,1.5c-1.5,0-2.9,0-4.4,0c-0.6,0-1,0.2-0.9,0.9c0,0.5,0,1.1,0,1.6c0,0.6,0.3,0.9,0.9,0.9c1.8,0,3.7,0,5.6,0
		c0.3,0,0.6,0,1,0c0.9,0.1,0.5,0.9,0.5,1.3c0,0.5,0.3,1.3-0.5,1.4c-0.2,0-0.4,0-0.6,0c-3,0-6,0-8.9,0c-1.3,0-1.3,0-1.3-1.4
		C187.7,242.3,187.7,240.3,187.7,238.2z"/>
	<path class="st7" d="M135.6,241.9c1.2,0.5,2.3,1.1,3.6,1.3c1,0.1,1.9,0.2,2.9-0.1c0.8-0.2,1.2-0.8,1.2-1.3c0-0.8-0.5-1.1-1.1-1.3
		c-0.8-0.3-1.5-0.4-2.3-0.6c-0.9-0.2-1.8-0.4-2.7-0.8c-1.4-0.5-2.4-1.5-2.5-3c-0.2-1.6,0.3-3,1.7-4c1-0.8,2.2-1.1,3.4-1.2
		c1.9-0.2,3.7,0.1,5.5,0.9c0.5,0.2,0.8,0.5,0.4,1.2c-0.3,0.5-0.3,1.2-0.8,1.6c-0.5,0.4-1.1-0.3-1.6-0.4c-1.2-0.3-2.4-0.5-3.7-0.3
		c-0.3,0.1-0.6,0.1-1,0.3c-1,0.6-1,1.8,0.1,2.4c0.6,0.3,1.4,0.4,2,0.6c1,0.2,1.9,0.5,2.9,0.9c1.5,0.5,2.7,1.5,2.8,3.2
		c0.1,1.8-0.6,3.2-2.2,4.1c-0.8,0.4-1.6,0.6-2.5,0.9c-2.4,0.3-4.5,0-6.7-1.1c-1-0.4-1-0.5-0.5-1.4c0.2-0.4,0.4-0.9,0.5-1.3
		C135.4,242.1,135.5,242,135.6,241.9z"/>
	<path class="st7" d="M200.6,262.9c0,0.5,0.2,1.1,0.4,1.5c0.5,1.1,1,2.3,1.5,3.3c0.2,0.4,0.2,0.8-0.3,1c-2.3,1-1.8,1-2.6-0.9
		c-0.4-1-0.9-2-1.4-3c-0.5-1.2-1.3-1.5-2.4-1.2c-1.1,0.4-1.5,1.4-1.1,2.6c0.4,1.3,1.1,2.5,1.6,3.8c0.4,1.1,0.4,1.1-0.5,1.5
		c-1.7,0.8-1.4,0.9-2.2-0.8c-1-2-1.8-4.1-2.7-6.1c-0.4-1-0.4-1.1,0.6-1.5c0.5-0.2,1.1-0.9,1.7-0.1c0.2,0.2,0.3-0.1,0.4-0.3
		c0.5-0.8,1.2-1.3,2-1.6s1.6-0.4,2.5-0.1c0.5,0.2,0.9,0.1,1.1-0.4c0.5-1.1,1.4-1.7,2.6-2.2c1.7-0.6,3.2-0.1,4.3,1.5
		c0.6,1,1,2,1.5,3.1c0.3,0.6,0.6,1.4,1,2c0.1,0.2,0.3,0.5,0,0.6c-0.6,0.4-1.3,0.8-2,1c-0.3,0.1-0.4-0.3-0.5-0.6
		c-0.4-1.1-1-2.2-1.4-3.2c-0.2-0.4-0.3-0.8-0.5-1.1c-0.5-0.8-1.2-1-1.9-0.8C201.2,261.3,200.6,262,200.6,262.9z"/>
	<path class="st7" d="M135.4,277c0.1-1.3,0.4-2.6,0.3-3.9c0-1.5-1.2-2.3-2.6-1.6c-0.6,0.3-1.1,0.9-1.2,1.6c-0.2,1.1-0.3,2.3-0.4,3.3
		c-0.2,1.8-0.2,1.8-2,1.6c-0.5-0.1-0.9-0.3-0.8-0.9c0.1-1.1,0.2-2,0.3-3.1c0.1-1.5,0.3-2.9,0.5-4.4c0.1-1,0.2-1,1.1-0.9
		c0.5,0.1,1.3-0.1,1.6,0.6c0.1,0.3,0.3,0.2,0.5,0.1c1.8-0.6,3.6-0.5,5,1c0.4,0.4,0.6,0.1,1,0c1.1-0.6,2.3-0.8,3.4-0.4
		c1.7,0.4,2.7,1.5,2.8,3.3c0.1,1.9-0.3,4-0.5,5.9c0,0.1,0,0.2-0.1,0.2c-0.6,0.5-1.4,0.1-2,0.1c-0.4,0-0.6-0.3-0.6-0.8
		c0.1-1,0.2-2,0.3-3c0.1-0.6,0.1-1.3,0.1-1.9c0-1-0.4-1.5-1.3-1.6c-0.9-0.2-1.6,0.1-2.2,0.8c-0.3,0.4-0.4,1-0.4,1.4
		c-0.1,1.3-0.3,2.5-0.4,3.8c-0.1,0.6-0.3,0.9-0.9,0.6c-0.1,0-0.2,0-0.2,0C135.2,278.6,135.2,278.6,135.4,277z"/>
	<path class="st8" d="M153,230.9c1.7,0,3.6,0,5.3,0c1,0,1.1,0.1,1.1,1.1c0.1,1.7,0.1,1.7-1.7,1.7c-0.6,0-1.4,0-2,0c-1,0-1,0.1-1,1.1
		c0,2.5,0,5,0,7.4c0,0.9,0,1.7,0,2.5c0,1-0.1,1-0.9,1c-0.6,0-1.3,0-1.9,0c-0.4,0-0.6-0.2-0.6-0.6c0-0.3,0-0.6,0-1c0-3,0-6,0-9.1
		c0-1.3,0-1.3-1.3-1.3c-0.8,0-1.6,0-2.4,0c-0.9,0-1-0.1-1-1c-0.1-1.9-0.1-1.9,1.8-1.9C149.8,230.9,151.5,230.9,153,230.9L153,230.9z
		"/>
	<path class="st7" d="M191.2,269.8c0,2.7-2.5,5-5.5,5c-2.7,0-4.7-2.2-4.8-4.8c0-2.7,2.5-5,5.5-5C189,264.8,191.2,267,191.2,269.8z"
		/>
	<path class="st7" d="M123.5,275.8c-1.3,0.5-2.5,0.5-3.8,0c-1.6-0.6-2.4-2-2.2-3.8c0.2-1.8,0.9-3.7,1.3-5.6c0-0.1,0.1-0.3,0.1-0.3
		c0.8-0.4,1.4,0.1,2.2,0.2c0.4,0.1,0.4,0.4,0.3,0.9c-0.2,1.2-0.5,2.3-0.9,3.4c-0.1,0.4-0.2,0.9-0.2,1.3c-0.1,1.1,0.3,1.6,1.1,1.9
		c0.9,0.3,1.8,0.1,2.4-0.6c0.3-0.4,0.4-0.9,0.5-1.4c0.3-1.2,0.5-2.3,0.9-3.4c0.1-0.6,0.4-0.9,1.1-0.6c2,0.5,1.8,0.3,1.4,2.2
		c-0.5,2-1,4.2-1.5,6.2c-0.3,1.1-0.3,1.1-1.4,0.9C124.2,276.8,123.5,276.8,123.5,275.8z"/>
	<path class="st7" d="M97.3,257.6c1.6,0.1,3.1,0.6,4.3,1.7c1.2,1,1.6,2.3,1.2,3.8c-0.6,1.9-1.6,3.6-2.5,5.4
		c-0.1,0.1-0.2,0.3-0.3,0.3c-0.3,0.1-2-0.8-2-1.1c0-0.6-0.2-0.5-0.6-0.5c-1.3,0.1-2.4-0.4-3.3-1.3c-1-0.9-1.2-2-0.8-3.2
		c0.5-1.2,1.5-1.6,2.9-1.5c1.1,0.1,1.9,0.6,2.8,1.1c0.3,0.1,0.8,0.6,1.1,0.2c0.3-0.4,0.1-1-0.2-1.4c-0.5-0.8-1.3-1-2.2-1.2
		c-0.2-0.1-0.5-0.1-0.8-0.1c-0.3,0-0.8,0.1-0.9-0.3c-0.1-0.5-0.2-1.1,0-1.5C96.5,257.5,96.9,257.7,97.3,257.6z"/>
	<path class="st7" d="M156.5,274.8c0,1.2,0,2.5,0,3.7c0,1,0,1.1-1,1.1c-0.6,0-1.4,0.3-1.7-0.5c-0.1-0.2-0.4,0.1-0.6,0.2
		c-1.1,0.6-2.3,0.8-3.4,0.4c-1.5-0.4-2.4-1.4-2.6-2.9c-0.2-1.8-0.1-3.8-0.2-5.7c0-0.5,0.2-0.8,0.8-0.8c0.1,0,0.2,0,0.2,0
		c1.7-0.1,1.7-0.1,1.7,1.6c0,1.2,0,2.5,0.1,3.7c0.1,1.4,1,1.9,2.3,1.7c1-0.1,1.6-0.9,1.7-2c0.1-1.2,0-2.5,0-3.7c0-1.4,0-1.4,1.4-1.4
		c0.2,0,0.4,0,0.6,0c0.5,0,0.8,0.2,0.8,0.8C156.4,272.3,156.4,273.5,156.5,274.8L156.5,274.8z"/>
	<path class="st7" d="M161.5,279.2c-1,0-1.7-0.1-2.6-0.3c-0.5-0.1-0.8-0.4-0.5-1c0.1-0.2,0.1-0.4,0.2-0.6c0.1-0.5,0.4-0.6,1-0.4
		c1,0.3,2,0.5,3.1,0.2c0.3-0.1,0.5-0.1,0.9-0.3c0.4-0.3,0.3-0.8-0.1-1c-0.4-0.2-0.9-0.2-1.2-0.2c-0.8,0-1.5-0.1-2.3-0.2
		c-1-0.2-1.7-0.8-1.9-1.7c-0.2-1.1,0-2,0.9-2.8c0.3-0.3,0.8-0.5,1.2-0.8c1.5-0.5,3.1-0.5,4.7-0.2c0.8,0.2,0.9,0.3,0.6,1.1
		c-0.3,1.2-0.3,1.2-1.6,1c-0.9-0.1-1.7-0.2-2.5,0.1c-0.3,0.1-0.8,0.3-0.8,0.8c0,0.4,0.4,0.5,0.9,0.6c0.5,0.1,1,0.1,1.5,0.2
		c0.5,0.1,1.1,0.1,1.6,0.2c1,0.2,1.6,0.8,1.8,1.7s0,1.9-0.8,2.7c-0.5,0.4-1.1,0.8-1.7,1C163,279.1,162.2,279.2,161.5,279.2z"/>
	<path class="st7" d="M129.6,238.3c0-2.2,0-4.2,0-6.3c0-1.1,0-1.1,1.1-1.1c2.7,0,2.3-0.2,2.4,2.3c0,3.7,0,7.3,0,11c0,0.3,0,0.6,0,1
		c0,0.3-0.2,0.5-0.5,0.5h-0.1c-2.6,0.3-2.7,0.2-2.7-2.4C129.6,241.8,129.6,240.1,129.6,238.3z"/>
	<path class="st8" d="M113,273.6c-3,0-5.5-2.4-5.4-5.1c0-2.4,1.5-4.2,3.9-4.6c2.2-0.4,4,0.2,5.4,1.9c0.4,0.4,0.9,1.1,0.5,1.7
		c-0.2,0.4-1,0.3-1.5,0.4c-0.4,0.1-0.6-0.2-0.9-0.5c-0.8-1.2-1.7-1.6-2.8-1.3c-1.1,0.3-1.8,1.4-1.8,2.7c0,1.6,1.6,2.8,3.1,2.3
		c0.3-0.1,0.6-0.5,1.1-0.3c0.5,0.3,1,0.9,1.3,1.4c0.2,0.3-0.1,0.4-0.3,0.6C115,273.3,114,273.6,113,273.6z"/>
	<path class="st7" d="M176.2,277c-2.6,0-4.4-1.5-4.8-3.9c-0.4-2.4,0.8-4.4,3.1-5.3c1.5-0.5,2.9-0.8,4.4,0c0.3,0.1,0.5,0.3,0.9,0.5
		c0.3,0.3,0.4,0.6,0,1c-0.2,0.1-0.4,0.3-0.5,0.5c-0.4,0.5-0.9,0.5-1.5,0.1c-1-0.6-2.3-0.3-3,0.5s-0.8,2.3,0,3.3
		c0.6,0.9,1.7,1.2,2.8,0.9c0.4-0.2,0.9-0.4,1.1-0.9c0.3-0.6,0.8-0.6,1.4-0.4c1.4,0.4,1.5,0.8,0.5,1.9
		C179.4,276.4,177.9,277,176.2,277z"/>
	<path class="st8" d="M104.4,270.7c-0.5-0.2-1.2-0.5-1.7-0.8c-0.2-0.1-0.3-0.3-0.2-0.5c0.1-0.3,0.2-0.5,0.3-0.9
		c1.3-3.1,2.6-6.3,3.9-9.5c0.1-0.3,0.2-0.5,0.3-0.9c0.1-0.1,0.2-0.3,0.3-0.3c0.8,0.1,1.4,0.4,2,0.9c0.2,0.1,0.1,0.3,0,0.5
		c-0.2,0.4-0.3,1-0.5,1.4c-1.2,3-2.5,6-3.8,9.1C105.1,270.2,105.1,270.7,104.4,270.7z"/>
	<path class="st9" d="M171.1,276.7c0,1-0.8,1.6-1.7,1.6c-1,0-1.7-0.9-1.6-1.8c0.1-0.9,0.9-1.6,1.8-1.5
		C170.4,274.9,171.1,275.8,171.1,276.7z"/>
	<path class="st8" d="M425.8,300.8c-36.5,0-73,0-109.3,0c-1.9,0-1.7,0.2-1.7-1.6c0-34.2,0-68.3,0-102.6c0-0.2,0-0.3,0-0.5
		c0-1.1,0-1.1,1.1-1.1c4.8,0,9.6,0,14.4,0c0.3,0,0.6,0,0.9,0c0.5,0,0.9-0.1,0.9-0.8c0-0.5,0-1.2,0-1.7c0-0.4-0.2-0.6-0.6-0.6
		c-0.3,0-0.6,0-1,0c-4.6,0-9.3,0-13.9,0c-0.3,0-0.6,0-0.9,0c-0.5,0-0.9-0.2-0.9-0.8c0-1.7,0-3.6,0-5.3c0-0.6,0.3-0.8,0.9-0.8
		c2.4,0,4.6,0,7,0c1.2,0,1.2,0,1.2-1.2c0-2.5,0.2-1.9-2-2c-2,0-4.1,0-6,0c-0.9,0-0.9,0-1-1c0-1.7,0-3.3,0-5.1c0-0.6,0.2-0.9,0.9-0.9
		c2.4,0,4.6,0,7,0c1.2,0,1.2,0,1.2-1.2c0-2.5,0.2-2-1.9-2c-1.9,0-4,0-5.9,0c-1.1,0-1.1,0-1.1-1.2c0-1.6,0-3.2,0-4.8
		c0-0.9,0-0.9,1-0.9c2.4,0,4.6,0,7,0c1.1,0,1.1,0,1.1-1.2c0-2.5,0.2-2-2-2c-2,0-4.1,0-6,0c-0.6,0-0.9-0.2-0.9-0.9c0-1.7,0-3.3,0-5.1
		c0-0.9,0-1,1-1c2.4,0,4.6,0,7,0c1.1,0,1.1,0,1.1-1.1c0-2.4,0.2-2-1.9-2c-2,0-4.1,0-6,0c-1,0-1,0-1-0.9c0-1.7,0-3.3,0-5.1
		c0-0.9,0-0.9,1-0.9c2.3,0,4.5,0,6.9,0c3.1,0,6.1,0,9.3,0c1,0,1,0,1-1c0.1-2.2,0.1-2.2-2.2-2.2c-4.7,0-9.6,0-14.3,0
		c-0.3,0-0.5,0-0.9,0c-0.5,0-0.6-0.2-0.6-0.6c0-1.8,0-3.7,0-5.5c0-0.8,0.4-0.6,0.9-0.6c2.4,0,4.6,0,7,0c1.1,0,1.2,0,1.2-1.1
		c0-2.6,0.3-2.2-2.2-2.2c-1.9,0-4,0-5.9,0c-0.9,0-1,0-1-0.9c0-1.7,0-3.3,0-5.1c0-0.6,0.2-0.9,0.9-0.9c2.4,0,4.6,0,7,0
		c1.2,0,1.2,0,1.2-1.2c0-2,0-2-2-2c-2,0-4.1,0-6,0c-0.6,0-0.9-0.2-0.9-0.9c0-1.7,0-3.3,0-5.1c0-0.9,0-0.9,1-0.9c2.4,0,4.6,0,7,0
		c1.1,0,1.1,0,1.1-1.2c0-2.4,0.2-2-1.9-2c-1.9,0-4,0-5.9,0c-1.1,0-1.1,0-1.1-1.1c0-1.6,0-3.3,0-5c0-0.6,0.2-0.9,0.9-0.9
		c2.4,0,4.6,0,7,0c1.2,0,1.2,0,1.2-1.2c0-2.4,0.3-1.9-2-1.9c-2,0-4.1,0-6,0c-0.9,0-0.9,0-1-1c0-1.6,0-3.3,0-5c0-1,0-1,1-1
		c5.2,0,10.3,0,15.5,0c1.7,0,1.6,0.2,1.5-1.5c0-1.9,0.2-1.7-1.7-1.7c-4.8,0-9.8,0-14.6,0c-0.3,0-0.5,0-0.9,0c-0.5,0-0.9-0.1-0.8-0.8
		c0-0.2,0-0.5,0-0.8c0-25.3,0-50.6,0-75.8c0-0.2,0-0.5,0-0.8c0-0.4,0.2-0.8,0.6-0.6c0.3,0,0.5,0,0.9,0c73.1,0,146,0,219.1,0
		c0.1,0,0.2,0,0.4,0c1.2,0,1.3,0,1.3,1.3c0,25.4,0,50.8,0,76.2c0,0.2,0,0.4,0,0.6c0,0.5-0.2,0.6-0.6,0.6c-0.3,0-0.5,0-0.9,0
		c-4.7,0-9.5,0-14.2,0c-0.3,0-0.5,0-0.9,0c-0.4,0-0.6,0.2-0.6,0.6c0,0.1,0,0.2,0,0.2c0,2.9-0.3,2.4,2.3,2.4c4.5,0,8.9,0,13.5,0
		c0.3,0,0.6,0,1,0c0.3,0,0.5,0.1,0.5,0.5c0,1.9,0,3.9,0,5.8c0,0.5-0.4,0.5-0.9,0.5c-2.2,0-4.4,0-6.6,0c-0.3,0-0.5,0-0.9,0
		c-0.5,0-0.8,0.2-0.8,0.8c0.1,2.9-0.4,2.4,2.4,2.5c1.9,0,3.8,0,5.7,0c1,0,1,0,1,1c0,1.6,0,3.3,0,5c0,0.9,0,1-1,1c-2,0-4.1,0-6.2,0
		c-0.3,0-0.6,0-1,0c-0.6,0-1,0.1-0.9,0.9c0,0.5,0,1,0,1.5c-0.1,0.8,0.3,0.9,0.9,0.9c2.2,0,4.2,0,6.3,0c2,0,1.8-0.2,1.8,1.8
		c0,1.4,0,2.8,0,4.2c0,0.6-0.2,0.9-0.9,0.9c-2.4,0-4.7,0-7.1,0c-1.1,0-1.1,0-1.1,1.1c0,2.7-0.3,2.2,2.2,2.3c1.9,0,4,0,5.9,0
		c0.9,0,1,0,1,1c0,1.7,0,3.3,0,5.1c0,0.6-0.3,0.9-0.9,0.9c-2.4,0-4.7,0-7.1,0c-1.1,0-1.1,0-1.1,1.1c0,2.7-0.3,2.2,2.2,2.2
		c1.9,0,4,0,5.9,0c0.9,0,0.9,0,0.9,1c0,1.6,0,3.2,0,4.8c0,1.1,0,1.1-1.2,1.1c-5.1,0-10.2,0-15.3,0c-1.7,0-1.5-0.2-1.5,1.6
		c0,0.1,0,0.2,0,0.4c0,1.2,0,1.3,1.3,1.3c5.1,0,10,0,15.1,0c0.3,0,0.6,0,1,0c0.4,0,0.6,0.2,0.6,0.6c0,1.8,0,3.7,0,5.5
		c0,0.6-0.3,0.8-0.9,0.8c-2,0-4.1,0-6,0c-0.4,0-1,0-1.4,0c-0.5,0-0.8,0.2-0.8,0.8c-0.1,2.4-0.2,2.4,2.3,2.4c1.9,0,4,0,5.9,0
		c0.6,0,0.9,0.2,0.9,0.9c0,1.7,0,3.3,0,5.1c0,0.9,0,1-1,1c-2.2,0-4.4,0-6.6,0c-0.3,0-0.5,0-0.9,0c-0.5,0-0.6,0.2-0.6,0.8
		c0,0.5,0,1.1,0,1.6c0,0.6,0.2,0.9,0.9,0.9c1.9,0,3.9,0,5.8,0c0.8,0,1.6-0.3,2.2,0.2c0.4,0.5,0.1,1.4,0.1,2c0,1.1,0,2.2,0,3.1
		c0,1.5,0.1,1.4-1.3,1.4c-2.2,0-4.4,0-6.6,0c-1.1,0-1.1,0-1.1,1.1c0,0.4,0,0.9,0,1.3c-0.1,0.6,0.3,0.9,0.9,0.9c2.2,0,4.4,0,6.6,0
		c0.3,0,0.5,0,0.9,0c0.4,0,0.6,0.1,0.6,0.6c0,1.8,0,3.7,0,5.6c0,0.5-0.3,0.6-0.8,0.6c-0.8,0-1.6,0-2.4,0c-1.7,0-3.3,0-5.1,0
		c-0.6,0-0.9,0.2-0.9,0.9c0.1,2.7-0.3,2.3,2.3,2.3c1.9,0,4,0,5.9,0c0.6,0,0.9,0.2,0.9,0.9c0,1.7,0,3.3,0,5.1c0,1,0,1-1.1,1
		c-1,0-1.8,0-2.8,0c-4.3,0-8.7,0-13,0c-1.1,0-1.1,0-1.2,1.1c0,2,0,2,2,2c4.8,0,9.6,0,14.4,0c0.3,0,0.5,0,0.9,0
		c0.4,0,0.6,0.2,0.6,0.6c0,0.3,0,0.5,0,0.9c0,34.2,0,68.6,0,102.8c0,1.7,0.2,1.5-1.6,1.5C498.9,300.8,462.3,300.8,425.8,300.8z"/>
	<path class="st7" d="M166.3,82.8c-2.2,5.2-4.3,10.3-6.7,15.5c-0.5,1.3-0.6,1.1,0.5,2c4.3,3.3,8.4,6.8,12.6,10.2
		c0.2,0.2,0.6,0.3,0.6,0.8c-0.5,0.1-1,0-1.5,0c-5.4-0.4-10.7-0.9-16-1.5c-1.1-0.1-1.1-0.3-1.5,1c-1.8,5.2-3.9,10.3-6,15.5
		c-0.1,0.2-0.1,0.5-0.4,0.9c-0.2-0.3-0.3-0.8-0.3-1.1c-1.3-5.4-2.6-10.7-3.7-16c-0.2-1.2-0.2-1.2-1.4-1.2c-4-0.1-8-0.3-12.1-0.6
		c-1.8-0.1-3.7-0.2-5.4-0.3c-0.1-0.4,0.3-0.5,0.5-0.6c4.7-2.9,9.6-5.8,14.4-8.6c1.1-0.6,1.1-0.6,0.8-1.7c-1.5-5.3-2.9-10.7-4.2-16
		c-0.1-0.2-0.1-0.4-0.2-0.9c0.5,0,0.8,0.4,1.1,0.6c4.2,3.6,8.3,7.1,12.3,10.8c1,0.9,0.8,1,1.9,0.1c4.7-3.1,9.5-6.2,14.3-9.1
		C166.5,82.3,166.5,82.5,166.3,82.8z"/>
	<path class="st7" d="M100.1,86.8c5.1,3.6,10.3,6.3,16,8.3c5.7,1.9,11.6,2.8,17.7,2.5c-0.2,0.5-0.6,0.5-0.9,0.8
		c-2.8,1.7-5.6,3.3-8.3,5.1c-1.8,1.2-3.8,1.5-5.9,1.3c-2.7-0.2-5.2-1-7.7-1.9c-4.5-1.7-8.7-4.1-12.8-6.7c-0.4-0.3-0.9-0.5-0.5-1.2
		c1.2-2.4,1.9-5,2.3-7.6C100,87.2,100,87.1,100.1,86.8z"/>
	<path class="st7" d="M198.8,84.2c-12.3,0.3-23.6,3.2-33.3,11c-0.3-0.3-0.1-0.6,0-0.9c1.3-3.2,2.7-6.3,4-9.6
		c0.5-1.3,1.4-2.3,2.5-3.1c1.7-1.3,3.6-2.2,5.6-2.9c4.3-1.5,8.7-2.3,13.2-2.8c1.4-0.1,2.9-0.2,4.3-0.3c0.5,0,0.9,0.1,1,0.6
		c0.4,2.7,1.4,5.2,2.7,7.5C198.8,83.9,198.8,84,198.8,84.2z"/>
	<path class="st7" d="M148.7,85.1c-0.4-0.1-0.6-0.4-1-0.8c-2.4-2-4.7-4.2-7.2-6.2c-1.5-1.2-2.4-2.7-2.9-4.5c-0.9-2.9-1-5.9-0.8-8.9
		c0.3-4.6,1.1-9.1,2.3-13.7c0.3-1.3,0.3-1.3,1.6-1.1c2.4,0.3,4.7,0.2,7-0.2c0.2,0,0.4,0,0.6,0c0.1,0.5-0.1,1-0.2,1.4
		c-1.5,5.3-2.4,10.5-2.5,16c-0.1,5.7,0.6,11.3,2.7,16.8c0.1,0.3,0.2,0.8,0.3,1.1C148.7,85,148.7,85,148.7,85.1z"/>
	<path class="st7" d="M181.6,142.7c-4.1-11.5-10.3-21.4-20.8-28.3c0.2-0.4,0.4-0.2,0.6-0.2c3.6,0.3,7.1,0.5,10.5,0.9
		c1.5,0.1,2.8,0.8,4,1.6c1.5,1.1,2.7,2.4,3.9,3.8c2.5,3.1,4.4,6.5,6.1,10c1,1.9,1.8,4,2.6,6c0.2,0.5,0.2,0.9-0.3,1.2
		c-2.4,1.2-4.4,2.8-6.1,4.7C181.9,142.6,181.8,142.7,181.6,142.7z"/>
	<path class="st7" d="M141.3,115.8c0.3,1.4,0.6,2.7,1,4c0.5,2.2,1,4.3,1.5,6.3c0.5,1.9,0.3,3.9-0.4,5.7c-0.8,1.9-1.8,3.7-3,5.4
		c-2.6,3.7-5.7,6.8-9,9.7c-0.9,0.9-1.8,1.6-2.8,2.4c-0.3,0.3-0.6,0.4-1,0.1c-2-1.9-4.3-3.6-7-4.7c0.2-0.5,0.6-0.8,1-1
		c4.5-3.6,8.5-7.5,11.9-12.2c3.2-4.4,5.8-9.3,7.3-14.6c0.1-0.2,0.1-0.4,0.2-0.8C141.1,116,141.1,116,141.3,115.8z"/>
	<path class="st10" d="M166.3,82.8c-0.1-0.2-0.2-0.3-0.2-0.5c0.1-0.2,0.3-0.4,0.5-0.3C166.8,82.3,166.5,82.5,166.3,82.8z"/>
	<path class="st3" d="M137.1,20.1c-1.5-3.4-4.3-5.3-8.1-5.7c-1.8-0.1-3.6,0.1-5.3,0.6c-4.8,1.6-7.5,6.1-6.7,11.1
		c0.9,4.8,4.8,8.2,10.1,8.2c0.4,0,1,0,1.6-0.2c2.8-0.4,5.3-1.5,7.1-3.9C138.4,27.1,138.6,23.6,137.1,20.1z M127.5,30.4
		c-3.4,0-5.9-2.7-5.9-6.3c0-3.3,2.7-5.9,6.1-5.8c3.3,0,5.8,2.7,5.8,6.3C133.5,27.9,131,30.4,127.5,30.4z"/>
	<path d="M465.4,332.4c-0.9-2.7-2.6-4.6-5.4-5.4c-2.8-0.8-5.3-0.1-7.3,2c-0.2,0.1-0.3,0.3-0.6,0.8c-0.4-2.8,0.4-5.9,1.7-7.4
		c0.4-0.5,1-1.1,1.6-1.5c2.2-1.3,5-0.5,6.1,1.6c0.3,0.6,0.1,1.5,0.9,1.7c0.6,0.2,1.4,0,2-0.1c0.9,0,1-0.1,0.8-0.9
		c-0.5-2.7-2-4.5-4.7-5.3c-3.9-1.1-8,0.1-10,4.3c-0.3,0.8-0.6,1.5-0.9,2.4c-0.9,3.2-1,6.5-0.6,9.7c0.2,1.7,0.5,3.6,1.4,5.2
		c1.7,3.2,4.5,4.5,8.1,4.3c3.2-0.2,5.4-2,6.6-5C465.8,336.7,466,334.6,465.4,332.4z M461.8,338.3c-1.6,3.4-6,4-8.2,0.9
		c-1.3-1.8-1.6-3.9-1-6c0.8-2.4,2.8-3.8,5.3-3.6c2.3,0.2,4,1.9,4.3,4.4c0.1,0.3,0.1,0.8,0.1,1.2
		C462.4,336.3,462.3,337.4,461.8,338.3z"/>
	<path class="st3" d="M163.9,18.6c-1.3-5.5-8.3-8.2-12.9-4.8c-2,1.5-2.8,3.6-2.5,5.9c0.2,2.2,1.5,3.7,3.4,4.5
		c0.9,0.4,1.7,0.5,2.7,0.6c1.7,0.1,3.3-0.3,4.8-1.3c0,2.6-1.7,4.8-4.4,4.8c-1,0.1-1.9,0-2.9-0.2c-0.6-0.1-1.2-0.9-1.7-0.5
		c-0.5,0.3-0.8,1.2-1.1,1.7c-0.1,0.1-0.1,0.3-0.2,0.4c-0.4,0.8-0.4,0.9,0.4,1.3c1.4,0.8,3,1,4.6,1.1c4.6,0.2,8.2-2.2,9.5-6.5
		C164.4,23.3,164.5,21,163.9,18.6z M159.1,19.6c-0.3,1.3-1.5,2-3,1.9c-2,0-3.4-1.4-3.2-3.2c0.1-1.2,0.8-1.9,1.8-2.3
		c1.4-0.4,2.8-0.3,3.9,0.8C159.3,17.5,159.5,18.5,159.1,19.6z"/>
	<path class="st3" d="M183.3,21.2c-0.9-4.8-5.6-7.6-10.2-6.2c-2.4,0.6-3.9,2.3-5,4.4c-1,1.9-1.4,4-1.5,6c0.1,0.8,0.1,1.6,0.3,2.2
		c0.5,3.3,2.4,5.7,5.7,6.6c3.7,1.1,7.1-0.3,9-3.8C183.3,27.5,183.8,24.4,183.3,21.2z M178,27.8c-0.2,0.6-0.6,1.3-1.1,1.8
		c-1.7,1.7-4.4,1.2-5.4-1.1c-0.1-0.4-0.3-0.8-0.3-1.2c-0.2-2.5,0.2-4.8,1.4-7c0.9-1.5,2.2-2.2,3.6-1.8c1.4,0.2,2.4,1.3,2.7,3
		c0.1,0.3,0.1,0.9,0.1,1.2C178.9,24.6,178.7,26.3,178,27.8z"/>
	<path class="st3" d="M197.6,20.4c-3.2-1.3-6.6-0.8-8.8,1.8c-2.7,2.9-4,6.5-3.4,10.5c0.4,3,2.3,5.2,5.2,6.1c2.9,1.1,5.7,0.5,8-1.6
		c2.6-2.6,3.7-5.8,3.9-8.7C202.4,24.4,200.6,21.6,197.6,20.4z M197.9,27.8c-0.3,2-1,4-2,5.7c-0.3,0.5-0.8,1-1.2,1.3
		c-1.9,1.4-4.6,0.3-5.1-2c-0.1-0.3-0.1-0.8-0.1-1.2c0.2-2.4,1-4.5,2.4-6.6c0.3-0.4,0.8-0.9,1.2-1.1c1.7-1.1,3.9-0.3,4.6,1.5
		C198.1,26.2,198.1,27.1,197.9,27.8z"/>
	<path d="M427,326c-0.3-1.8-0.9-3.6-1.9-5.2c-1-1.5-2.4-2.6-4.2-2.9c-3.9-0.8-7,0.4-8.8,4.3c-0.3,0.8-0.6,1.7-0.9,2.6
		c-0.4,1.9-0.5,3.9-0.5,5.8c0,1.6,0,3.2,0.2,4.7c0.2,1.7,0.8,3.3,1.5,4.8c2.5,4.7,10,5,12.8,0.4c0.8-1.3,1.3-2.7,1.6-4.2
		C427.5,332.9,427.5,329.4,427,326z M423.5,336.7c-0.2,1.2-0.6,2.3-1.5,3.1c-1.7,1.8-4.3,1.8-6,0.1c-0.8-0.8-1.3-1.8-1.5-2.9
		c-0.5-2-0.5-4.2-0.6-6.2c0-2,0.1-4.1,0.5-6.1c0.2-0.8,0.4-1.5,0.9-2.3c1.5-2.6,4.7-2.9,6.8-0.8c0.9,0.9,1.3,1.9,1.5,3.1
		C424.3,328.8,424.3,332.7,423.5,336.7z"/>
	<path d="M407.4,330.7c0-0.9,0-1.7-0.1-2.6c-0.1-2.5-0.6-4.8-1.9-7.1c-2.6-4.4-9.6-4.5-12.3-0.5c-0.9,1.4-1.5,2.8-1.8,4.4
		c-0.6,2.9-0.6,5.9-0.4,8.8c0.1,1.9,0.5,4,1.4,5.8s2.2,3.2,4.1,3.9c3.7,1.2,7.6,0.2,9.6-4c0.3-0.6,0.5-1.3,0.8-1.9
		C407.3,335.2,407.5,332.9,407.4,330.7z M403.6,336.8c-0.3,1.1-0.8,2.2-1.5,3c-1.8,1.8-4.3,1.8-6,0c-1-1.1-1.5-2.4-1.7-3.8
		c-0.5-3.8-0.6-7.5,0.1-11.3c0.1-0.8,0.4-1.5,0.8-2.3c1.5-2.7,4.7-3.1,6.9-0.9c0.8,0.8,1.2,1.7,1.4,2.8c0.5,2,0.6,4.2,0.6,6.2
		C404.2,332.7,404,334.8,403.6,336.8z"/>
	<path class="st9" d="M198.5,55.7c-0.8,1-1.7,1-2.7,0.8c-1.4-0.3-2.3-1.6-2.2-3.2c0.1-1.5,1-2.7,2.5-3c1.3-0.3,2.6,0.4,3.2,1.6
		C200,53.2,199.7,54.7,198.5,55.7c-0.4-0.3-0.8-0.8-1.1-1.2c-0.3-0.5-0.4-1,0.1-1.4c0.4-0.3,0.8-0.6,0.3-1.2
		c-0.4-0.5-1.1-0.4-1.6-0.3c-0.5,0.1-0.8,0.4-0.6,1c0.1,0.3-0.3,1.2,0.8,0.9c0.3-0.1,0.6,0.2,0.9,0.6
		C197.5,54.6,197.9,55.3,198.5,55.7z"/>
	<path class="st3" d="M161.2,191.1c0,3.8-2.8,6.7-6.6,6.6c-3.7-0.1-6.3-2.8-6.3-6.6c0-3.8,2.7-6.6,6.5-6.6
		C158.6,184.4,161.2,187.2,161.2,191.1z"/>
	<path class="st3" d="M137.2,191.1c0,3.8-2.7,6.6-6.3,6.6c-3.7,0-6.5-2.8-6.6-6.6c0-3.8,2.7-6.6,6.5-6.6
		C134.7,184.4,137.2,187.2,137.2,191.1z"/>
	<path class="st3" d="M195.7,188.1c0-1,0-1.8,0-2.8c0-0.4,0.2-0.8,0.6-0.8c1.6,0,3.2-0.2,4.7,0.2c2.2,0.5,3.2,2.2,2.7,4.4
		c-0.3,1.4-1.3,2.2-2.6,2.5c-1.6,0.3-3.2,0.2-5,0.2c-0.5,0-0.6-0.3-0.6-0.8C195.7,190,195.7,189.1,195.7,188.1z"/>
	<path class="st3" d="M178.1,185.7c1,2.4,1.9,4.8,2.9,7.1c-0.1,0.2-0.2,0.3-0.2,0.3c-1.7,0.2-3.6,0.1-5.3,0.1
		c-0.5,0-0.6-0.2-0.4-0.8c0.9-2.2,1.8-4.3,2.7-6.6C177.8,185.9,177.9,185.9,178.1,185.7z"/>
	<path class="st3" d="M204.4,238.3c0-1.2,0-2.5,0-3.7c0-0.5,0.2-0.9,0.9-0.9c1.1,0,2.2,0,3.2,0.1c2.3,0.2,3.8,1.9,3.9,4.3
		c0.1,2.4-1.3,4.1-3.4,4.6c-1.3,0.3-2.5,0.1-3.8,0.1c-0.5,0-0.8-0.3-0.8-0.9C204.4,240.8,204.4,239.6,204.4,238.3z"/>
	<path class="st3" d="M178.6,239c-2,0-1.8,0.2-1.9-1.9c0-0.8,0-1.6,0-2.4c0-0.5,0.2-0.9,0.8-0.9c1,0,1.9,0,2.9,0.1
		c1.4,0.2,2.2,1.1,2.2,2.4c0,1.4-0.6,2.3-2,2.6C179.9,239,179.2,238.9,178.6,239z"/>
	<path class="st3" d="M90.4,236.3c0-0.6,0-1.3,0-1.9c0-0.4,0.2-0.6,0.6-0.6c1.2,0,2.4-0.1,3.6,0.2s1.7,1.2,1.7,2.4
		c0,1.2-0.5,2-1.7,2.4c-1.2,0.4-2.5,0.2-3.7,0.2c-0.4,0-0.5-0.3-0.5-0.6C90.4,237.6,90.4,237,90.4,236.3L90.4,236.3z"/>
	<path class="st3" d="M188.4,269.9c0,1.4-1,2.4-2.4,2.4c-1.3,0-2.4-1.3-2.5-2.8c0-1.3,1.1-2.4,2.4-2.4
		C187.3,267.2,188.4,268.4,188.4,269.9z"/>
	<path class="st3" d="M97.7,265.6c-0.6,0-1.2-0.2-1.7-0.6c-0.3-0.3-0.4-0.8-0.2-1.2c0.2-0.4,0.5-0.6,1-0.5c0.9,0.1,1.5,0.5,2.2,0.9
		c0.2,0.1,0.2,0.4,0.1,0.6C98.8,265.4,98.3,265.6,97.7,265.6z"/>
	<path d="M425.7,85.1c32,0,57.9,25.9,57.9,57.9s-25.8,57.8-57.8,57.8s-58.1-26-57.9-58.3C368.1,111,393.6,85.2,425.7,85.1z"/>
	<path d="M423.6,39.5c-0.4-0.3-0.6-0.4-1-0.6c-2.5-1.8-3-5.2-1.2-7.6c0.4-0.6,1-1.3,1.5-1.8c0.9-1,1.4-2.2,1.7-3.3
		c0.1-0.3,0.2-0.6,0-1c-1.5,0.1-2.8,0.9-4.2,1.7c0-1.8,0-3.7,0-5.4c0.4-0.2,0.5,0.1,0.8,0.3c0.8,0.4,1.5,0.9,2.3,1.1
		c0.4,0.1,0.9,0.4,1.2,0.1c0.3-0.3,0-0.8-0.1-1.2c-0.2-1.1-0.9-1.9-1.4-2.8c0.9-0.3,4.1-0.4,5.4-0.1c-0.8,1.3-1.5,2.6-1.6,4.2
		c1.6,0,2.9-0.8,4.4-1.7c0.1,1.9,0,3.7,0.1,5.6c-1.4-0.9-2.8-1.7-4.4-1.7c0.1,1.5,0.6,2.7,1.5,3.9c0.4,0.5,0.9,1.1,1.4,1.6
		c2.8,3,1.7,7.1-1.2,8.7c-0.1,0.1-0.2,0.1-0.3,0.3c0.9,0.9,1.6,1.7,1.9,2.9c0.1,0.5,0.5,0.3,1,0.3c3-0.4,5.9-1.4,8.7-2.5
		c4.6-1.8,8.9-1.2,12.8,1.8c4.3,3.3,5.7,9.1,3.8,14.3c-0.2,0.6-0.5,1.3-0.9,1.9c-0.8,1.9-0.1,3.7,1.7,4.5c1.5,0.8,1.5,0.8,0.9,2.4
		c-2.4,5.8-4.6,11.6-7,17.5c-0.1,0.1-0.1,0.3-0.2,0.4c-0.1,0.6-0.4,0.8-1.1,0.4c-2.3-1-4.5-1.7-6.9-2.4c-13.9-3.8-27.7-3.1-41.1,2.2
		c-0.1,0.1-0.3,0.1-0.4,0.2c-0.6,0.4-0.9,0.1-1.1-0.4c-2.5-6.2-5-12.6-7.4-18.8c-0.2-0.6-0.1-0.9,0.4-1.2c3-1.4,3.6-2.7,2.2-5.8
		c-1.5-3.3-1.7-6.7-0.4-10.1c2.5-6.6,10-9.8,16.6-7.1c2.9,1.2,5.8,2,8.8,2.6c0.5,0.1,0.9,0,1-0.6C421.9,41,422.7,40.2,423.6,39.5z"
		/>
	<path d="M421.2,210.7c-0.1,0.6-0.5,1-0.8,1.3c-3.4,4.2-6.8,8.4-10.2,12.6c-0.9,1.1-1,1.7,0,2.8c4,4.5,8,9,11.8,13.5
		c0.3,0.3,0.6,0.8,1,1.1c-0.2,0.4-0.5,0.3-0.9,0.3c-2.9,0-5.9,0-8.8,0c-0.8,0-1.2-0.2-1.6-0.8c-3.1-4-6.3-7.9-9.6-11.8
		c-0.3-0.4-0.5-0.9-1.2-0.9c-0.8,0-1.6-0.1-2.4,0c-0.2,0-0.3,0.2-0.3,0.4c0,0.3,0,0.6,0,1c0,3.6,0,7.2,0,10.8c0,1.2,0,1.2-1.2,1.2
		c-2,0-4.1,0-6,0c-0.6,0-0.9-0.2-0.9-0.9c0-1.1,0-2.2,0-3.3c0-8.6,0-17.1,0-25.7c0-0.3,0-0.6,0-0.9c-0.1-0.6,0.2-0.9,0.9-0.9
		c2.2,0,4.2,0,6.3,0c0.9,0,0.9,0,0.9,1c0,3.4,0,6.9,0,10.3c0,0.3,0,0.6,0,1c0,0.5,0.2,0.9,0.9,0.9c0.1,0,0.2,0,0.2,0
		c1.4,0.2,2.4-0.3,3.3-1.5c2.8-3.7,5.7-7.2,8.5-10.9c0.5-0.6,1.1-1,1.9-0.9C415.7,210.7,418.4,210.7,421.2,210.7z"/>
	<path d="M467.5,242.2c-2.6,0-5.2,0-7.9,0c-0.5,0-0.6-0.4-0.9-0.8c-0.6-1.7-1.3-3.4-1.9-5.2c-0.4-1.2-0.4-1.2-1.7-1.2
		c-4.3,0-8.5,0-12.8,0c-1.3,0-1.3,0-1.7,1.2c-0.6,1.7-1.3,3.4-1.9,5.2c-0.1,0.4-0.2,0.8-0.9,0.8c-2.5,0-5.1,0-7.5,0
		c-0.1-0.5,0.1-1,0.3-1.3c4-9.7,8.1-19.4,12.1-29.1c0.5-1.3,0.3-1.2,1.7-1.2c3,0,6,0,9.1,0c0.8,0,1.2,0.2,1.5,1
		c4.1,9.9,8.2,19.8,12.3,29.7C467.4,241.6,467.6,241.8,467.5,242.2z"/>
	<path d="M477.2,234.9c1.9,0.4,3.8,0.9,5.6,1.2c3.7,0.6,7.2,1.1,11,0.6c1-0.1,1.8-0.3,2.7-0.8c1.1-0.6,1.6-1.5,1.5-2.8
		c-0.1-1.2-0.8-1.9-1.8-2.4c-1.9-0.8-4-1-5.9-1.2c-2-0.3-4-0.6-5.9-1.2c-0.4-0.1-0.9-0.3-1.3-0.4c-5.1-1.9-6.3-5.9-5.4-10.5
		c0.5-2.5,2.2-4.1,4.4-5.3c1.6-0.8,3.3-1.2,5.1-1.4c5.4-0.6,10.8-0.3,16,1c0.3,0.1,0.5,0.2,0.9,0.2c0.4,0.1,0.5,0.3,0.5,0.8
		c0,1.5,0,2.9,0,4.4c0,0.6-0.2,0.6-0.8,0.5c-1.9-0.4-3.8-0.8-5.7-1.1c-3-0.3-6-0.6-9-0.1c-0.6,0.1-1.3,0.3-1.9,0.5
		c-1,0.5-1.5,1.3-1.5,2.5s0.6,1.9,1.6,2.3c1.6,0.6,3.2,0.8,5,1.1c2.4,0.3,4.6,0.6,7,1.3c1.1,0.3,2.2,0.6,3.2,1.2
		c2.3,1.2,3.6,3.1,3.9,5.6c0.1,1.1,0.2,2.2,0.1,3.2c-0.3,3-1.9,5.2-4.6,6.6c-2.2,1.2-4.5,1.6-6.9,1.8c-5.3,0.5-10.4,0-15.6-1
		c-0.2,0-0.5-0.1-0.8-0.2c-1.1-0.3-1.1-0.3-1.1-1.4C477.2,238.3,477.2,236.7,477.2,234.9z"/>
	<path d="M368.2,221c0-3,0-6,0-8.9c0-1.6,0-1.4,1.5-1.4c1.7,0,3.6,0,5.3,0c1,0,1,0,1,0.9c0,6,0,12.2,0,18.2c0,1.7-0.3,3.6-0.9,5.2
		c-1.1,3.2-3.2,5.4-6.3,6.6c-3.1,1.1-6.5,1.3-9.7,1.1c-1.4-0.1-2.9-0.2-4.3-0.5c-5.4-1.3-8.4-4.6-9-10.2c-0.1-1.3-0.2-2.7-0.2-4.1
		c0-5.2,0-10.3,0-15.6c0-0.3,0-0.5,0-0.9c0-0.5,0.1-0.8,0.8-0.8c2.3,0,4.5,0,6.7,0c0.4,0,0.6,0.2,0.6,0.6c0,0.3,0,0.5,0,0.9
		c0,5.6,0,11.1,0,16.7c0,1,0.1,1.9,0.2,2.9c0.5,2.8,2,4.4,4.8,5c1.5,0.3,3.1,0.3,4.6,0c2.6-0.5,4.1-2,4.6-4.6
		c0.3-1.3,0.3-2.6,0.3-3.9C368.2,225.9,368.2,223.5,368.2,221z"/>
	<path d="M449.7,278.7c-0.3,4.3-0.6,8.6-1,12.9c-0.1,1-0.1,1-1.1,1c-0.2,0-0.5,0-0.8,0c-0.5,0-0.6-0.2-0.6-0.8
		c0.3-4.4,0.8-8.9,1.1-13.3c0.1-1.1,0.2-2.2,0.2-3.1c0-0.6,0.3-0.9,1-0.9c2.5-0.1,2.5-0.1,3.4,2.3c1.3,3.1,2.5,6.1,3.8,9.3
		c0.1,0.3,0.3,0.6,0.4,1.1c0.4-0.2,0.5-0.6,0.6-0.9c1.5-3.4,2.9-7,4.4-10.5c0.3-0.9,0.8-1.2,1.6-1.1c2.4,0.1,2.2-0.4,2.4,2.3
		c0.3,4.8,0.8,9.7,1.2,14.5c0.1,1.4,0.1,1.4-1.4,1.4c-1.1,0-1.1,0-1.1-1c-0.3-4.2-0.6-8.5-1-12.7c0-0.3,0-0.5-0.1-1
		c-0.4,0.3-0.5,0.8-0.6,1.2c-1.4,3.3-2.9,6.8-4.3,10.1c-0.4,1.1-1.2,1.4-2.3,1.1c-0.5-0.1-0.5-0.6-0.8-1c-1.5-3.4-2.9-6.8-4.3-10.2
		c-0.1-0.2-0.2-0.4-0.2-0.5C449.9,278.3,449.8,278.6,449.7,278.7z"/>
	<path d="M463,253.8c-0.4,0.3-0.4,0.8-0.6,1.2c-1.4,3.3-2.9,6.8-4.3,10.1c-0.3,0.8-0.8,0.9-1.5,1c-0.8,0-1.1-0.2-1.4-1
		c-1.4-3.3-2.8-6.7-4.2-10c-0.2-0.4-0.2-0.9-0.6-1.3c-0.3,1.9-0.3,3.9-0.5,5.7c-0.2,2.6-0.4,5.2-0.5,7.9c-0.1,1-0.1,1-1.1,1
		c-1.5,0.1-1.6,0.1-1.5-1.5c0.4-5.3,0.9-10.5,1.3-15.7c0.1-0.9,0.1-0.9,1-0.9c2.5-0.1,2.5-0.1,3.4,2.3c1.3,3,2.5,6.1,3.8,9.1
		c0.2,0.4,0.2,0.9,0.6,1.2c0.3-0.3,0.4-0.9,0.6-1.3c1.4-3.4,2.9-6.8,4.3-10.2c0.3-0.8,0.8-1.2,1.6-1.1c0.5,0.1,1,0,1.5,0
		s0.8,0.2,0.8,0.8c0.1,1.6,0.3,3.2,0.4,5c0.3,3.8,0.5,7.5,0.9,11.3c0.1,1.1,0,1.1-1.1,1.1c-0.2,0-0.4,0-0.6,0
		c-0.5,0-0.8-0.2-0.8-0.8c-0.1-1.2-0.2-2.4-0.2-3.6c-0.2-3-0.4-6-0.6-8.9C463.2,254.8,463.3,254.3,463,253.8z"/>
	<path d="M347,263.1c1.1-2.5,1.9-4.6,2.9-6.9c0.8-1.7,1.4-3.4,2.2-5.2c0.2-0.5,0.5-0.9,1.1-0.8c0.8,0.1,1.7-0.3,2.4,0.1
		c0.6,0.4,0.3,1.4,0.3,2.2c0.3,3.9,0.6,7.6,1,11.5c0.1,1.2,0.2,2.4,0.3,3.6c0.1,0.6-0.1,0.9-0.8,0.9c-0.2,0-0.3,0-0.5,0
		c-1.2,0-1.2,0-1.3-1.2c-0.3-4-0.5-8-0.9-11.9c0-0.4,0-1-0.2-1.5c-0.4,0.4-0.5,0.9-0.6,1.3c-1.4,3.3-2.9,6.8-4.3,10.1
		c-0.3,0.8-0.9,0.9-1.5,0.9c-0.8,0-1.1-0.2-1.4-1c-1.4-3.3-2.8-6.6-4.2-9.9c-0.2-0.4-0.3-0.9-0.6-1.3c-0.3,0.4-0.2,0.9-0.3,1.4
		c-0.3,3.9-0.5,7.9-0.9,11.7c0,0.2,0,0.5-0.1,0.8c0,0.4-0.2,0.5-0.6,0.6c-1.7,0.2-1.9,0-1.8-1.6c0.4-5.2,0.9-10.4,1.2-15.6
		c0-0.6,0.3-0.9,0.9-0.9c0.9,0.1,1.8-0.3,2.5,0.1c0.6,0.4,0.8,1.4,1,2.2c1.3,3,2.5,6.1,3.8,9.1C346.5,262.1,346.7,262.5,347,263.1z"
		/>
	<path class="st11" d="M389.4,264.1c0.2-0.4,0.1-0.9,0.1-1.2c0-3.7,0-7.3,0-11c0-0.3,0-0.5,0-0.9c0-0.4,0.1-0.6,0.5-0.6
		c0.1,0,0.2,0,0.4,0c1.7,0,1.5-0.1,1.5,1.4c0,5.1,0,10.1,0,15.2c0,0.3,0,0.6,0,1s-0.2,0.4-0.4,0.4c-0.6,0-1.4,0-2,0
		c-0.4,0-0.6-0.4-0.8-0.8c-0.6-1.2-1.3-2.5-2-3.7c-1.5-2.8-3-5.6-4.6-8.4c-0.2-0.3-0.4-0.6-0.6-1.2c-0.2,0.5-0.2,1-0.2,1.4
		c0,3.9,0,7.6,0,11.5c0,1.1,0,1.1-1.1,1.1c-0.2,0-0.5,0-0.8,0c-0.4,0-0.6-0.1-0.6-0.5c0-0.2,0-0.5,0-0.8c0-5.2,0-10.3,0-15.4
		c0-0.2,0-0.5,0-0.8c0-0.3,0.1-0.5,0.5-0.5c0.8,0,1.4,0,2.2,0c0.6,0,0.8,0.5,0.9,1c1.7,3.1,3.3,6.3,5.1,9.5c0.5,1,1,1.8,1.5,2.8
		C389,263.7,389,264,389.4,264.1z"/>
	<path d="M488.6,254.5c0,0.6,0,1.1,0,1.6c0,3.7,0,7.4,0,11.1c0,1.3,0,1.3-1.3,1.3c-0.2,0-0.3,0-0.5,0c-0.4,0-0.6-0.1-0.6-0.6
		c0-5.6,0-11.2,0-16.8c0-0.5,0.2-0.6,0.8-0.6c2.3-0.1,2.3-0.2,3.4,1.8c1.9,3.6,3.9,7.2,5.8,10.8c0.2,0.3,0.3,0.8,0.8,1.1
		c0.2-0.4,0.1-0.8,0.1-1.1c0-3.7,0-7.4,0-11.1c0-0.3,0-0.5,0-0.9c0-0.4,0.1-0.5,0.5-0.6c1.7-0.2,1.9-0.1,1.9,1.7c0,5,0,9.9,0,14.7
		c0,0.3,0,0.6,0,1c0,0.4-0.2,0.6-0.6,0.6c-0.5,0-1,0-1.5,0c-0.6,0-1-0.2-1.2-0.8c-0.6-1.3-1.4-2.6-2.2-3.9c-1.5-2.7-3-5.5-4.5-8.2
		C489.3,255.2,489.2,254.8,488.6,254.5z"/>
	<path d="M413.7,259.4c0-1.2,0-2.4,0-3.6c0.1-2.8,1.5-4.5,4.2-5.3c1.8-0.5,3.7-0.5,5.5-0.3c0.8,0.1,1.6,0.2,2.4,0.3
		c1,0.2,1,0.2,1,1.1c0,1.1,0,1.1-1.1,1c-1.6-0.2-3.2-0.3-5-0.2c-0.4,0-0.9,0-1.3,0.1c-2.4,0.4-3.3,1.6-3.3,4c0,1.9,0,3.9,0,5.8
		c0,2.4,1.1,3.7,3.6,4c1.7,0.3,3.4,0.1,5.1-0.4c0.5-0.2,0.9-0.4,0.8-1.1c0-0.8,0-1.6,0-2.4c0-0.6-0.2-0.9-0.9-0.8
		c-0.8,0-1.4,0-2.2,0c-0.6,0-0.9-0.2-0.9-0.9c0-0.2,0-0.4,0-0.6c0-0.5,0.2-0.6,0.6-0.6c1.6,0,3.2,0,4.8,0c0.4,0,0.6,0.2,0.6,0.6
		c0,2.2,0,4.2,0,6.3c0,0.4-0.2,0.6-0.5,0.9c-3.2,1.6-6.7,1.9-10,0.8c-2.3-0.8-3.3-2.5-3.6-4.7C413.6,261.9,413.7,260.7,413.7,259.4
		L413.7,259.4z"/>
	<path class="st11" d="M431.5,283.6c0-2.7,0-5.3,0-8c0-1.1,0-1.1,1.1-1.1c3,0,6,0,9.1,0c0.3,0,0.8-0.1,0.9,0.3
		c0.1,0.5,0.2,1.2,0,1.7c-0.1,0.3-0.5,0.2-0.9,0.2c-1.9,0-4,0-5.9,0c-0.3,0-0.6,0-0.9,0c-0.6-0.1-0.9,0.2-0.9,0.9c0,1.4,0,2.8,0,4.2
		c0,0.6,0.2,0.9,0.9,0.9c1.9,0,3.9,0,5.8,0c0.3,0,0.9-0.2,1,0.3c0.1,0.5,0.2,1.2-0.1,1.7c-0.1,0.3-0.5,0.2-0.9,0.2
		c-1.8,0-3.7,0-5.6,0c-1.2,0-1.2,0-1.2,1.2c0,1.1,0,2.2,0,3.1c0,1.3,0,1.3,1.2,1.3c2,0,4.1,0,6.2,0c0.2,0,0.5,0,0.8,0
		c0.5,0,0.6,0.2,0.6,0.6v0.1c0.1,1.4,0.1,1.4-1.3,1.4c-2.9,0-5.8,0-8.7,0c-1.3,0-1.3,0-1.3-1.2C431.5,288.8,431.5,286.1,431.5,283.6
		z"/>
	<path d="M411.1,268.3c-0.2,0.1-0.3,0.1-0.3,0.1c-2.2,0.2-2.2,0.2-2.8-1.8c-0.3-1-0.8-1.9-1.1-3c-0.2-0.5-0.4-0.9-1.1-0.9
		c-1.8,0-3.7,0-5.5,0c-0.6,0-0.9,0.2-1.1,0.8c-0.4,1.3-0.9,2.6-1.3,3.9c-0.3,1.1-0.3,1.1-1.4,1.1c-1.6,0-1.6,0-1.1-1.5
		c1.8-5.2,3.7-10.3,5.6-15.5c0.4-1.1,0.1-1.1,1.6-1.1c2,0,2,0,2.8,1.9c1.7,5,3.6,9.8,5.3,14.7C410.8,267.4,410.9,267.8,411.1,268.3z
		"/>
	<path d="M375.5,268.3c-0.1,0.1-0.2,0.1-0.3,0.1c-2.2,0.2-2.2,0.2-2.8-1.8c-0.3-1-0.8-1.9-1.1-3c-0.2-0.6-0.5-0.9-1.2-0.9
		c-1.7,0-3.6,0-5.3,0c-0.6,0-0.9,0.2-1.1,0.8c-0.4,1.3-0.9,2.6-1.3,3.9c-0.3,1.1-0.3,1.1-1.5,1.1c-0.4,0-0.9,0-1.2,0
		c-0.3-0.4-0.1-0.6,0-1c1.9-5.4,3.9-10.9,5.8-16.3c0.2-0.6,0.5-1,1.3-1c2.4,0,2.4,0,3.1,2.2c1.7,4.8,3.4,9.6,5.2,14.4
		C375.3,267.3,375.5,267.7,375.5,268.3z"/>
	<path class="st11" d="M470.9,259.3c0-2.7,0-5.3,0-8c0-1,0-1,1-1c3.1,0,6.1,0,9.3,0c0.9,0,0.9,0,0.9,1c0,1.3,0,1.3-1.2,1.3
		c-2.2,0-4.3,0-6.5,0c-0.9,0-0.9,0-1,1c0,1.3,0,2.6,0,3.9c0,1,0,1,1.1,1c1.8,0,3.7,0,5.6,0c0.3,0,0.6-0.1,1,0.2
		c0.1,0.2,0,1.6-0.1,1.7c-0.2,0.2-0.5,0.1-0.9,0.1c-1.7,0-3.4,0-5.2,0c-0.3,0-0.5,0-0.9,0c-0.4,0-0.6,0.2-0.6,0.6c0,1.5,0,2.9,0,4.4
		c0,0.6,0.3,0.6,0.9,0.6c2.2,0,4.2,0,6.3,0c0.3,0,0.6,0,0.9,0c0.6,0,0.9,0.2,0.8,0.9c0,0.2,0,0.5,0,0.8c0,0.4-0.2,0.6-0.6,0.6
		c-0.8,0-1.4,0-2.2,0c-2.5,0-5,0-7.4,0c-1.1,0-1.1,0-1.1-1.1C470.9,264.7,470.9,262,470.9,259.3z"/>
	<path class="st11" d="M431.9,259.3c0-2.7,0-5.3,0-8c0-1,0-1,1-1c3,0,6,0,9.1,0c1.1,0,1.1,0,1.1,1.1c0,1.2,0,1.2-1.2,1.2
		c-2.2,0-4.2,0-6.3,0c-1.1,0-1.1,0-1.1,1c0,1.4,0,2.7,0,4.1c0,0.6,0.2,0.9,0.9,0.8c1.9,0,3.9,0,5.8,0c0.3,0,0.9-0.2,1,0.3
		c0.1,0.5,0.2,1.1-0.1,1.6c-0.1,0.3-0.5,0.2-0.9,0.2c-1.6,0-3.3,0-5,0c-0.3,0-0.5,0-0.9,0c-0.6,0-1,0.1-0.9,0.9c0,1.4,0,2.7,0,4.1
		c0,0.6,0.3,0.9,1,0.9c2.2,0,4.4,0,6.6,0c0.3,0,0.5,0,0.9,0s0.4,0.2,0.4,0.5s0,0.5,0,0.9c0,0.6-0.3,0.8-0.9,0.8c-1.4,0-2.9,0-4.3,0
		c-1.7,0-3.6,0-5.3,0c-0.9,0-0.9,0-0.9-1C431.9,264.8,431.9,262,431.9,259.3z"/>
	<path d="M376.3,274.3c1.4,0.1,2.6,0.1,3.8,0.3c0.6,0.1,1,0.3,1,1.1c0,0.2,0,0.4,0,0.6c0,0.5-0.2,0.8-0.8,0.6
		c-1.4-0.3-2.7-0.4-4.1-0.4c-0.6,0-1.2,0.1-1.7,0.2c-0.9,0.2-1.6,0.6-1.8,1.6c-0.2,1,0,1.9,0.9,2.6c0.6,0.4,1.3,0.9,1.9,1.2
		c1.2,0.6,2.4,1.2,3.6,1.8c1.9,1.1,3,2.6,2.6,5.7c-0.2,1.5-1.1,2.4-2.6,2.9c-1.5,0.4-3,0.5-4.5,0.5c-1.4-0.1-2.7-0.3-4-0.5
		c-0.6-0.1-1-0.3-1-1.1c0-0.3,0-0.5,0-0.9c0-0.4,0.2-0.5,0.5-0.4c0.9,0.2,1.6,0.3,2.5,0.4c1.2,0.2,2.5,0.2,3.7,0.1
		c0.3,0,0.8-0.1,1.1-0.2c0.9-0.2,1.5-0.6,1.6-1.5c0.2-0.9,0-1.7-0.8-2.5c-0.4-0.4-0.9-0.6-1.4-0.9c-1.5-0.8-3-1.5-4.5-2.4
		c-2.2-1.2-2.9-2.7-2.4-5.8c0.2-1.4,1.2-2.3,2.6-2.7c0.3-0.1,0.8-0.2,1.1-0.2C374.7,274.4,375.5,274.3,376.3,274.3z"/>
	<path d="M480.9,277c-0.9-0.1-1.8-0.2-2.7-0.4c-1.3-0.2-2.5-0.2-3.8,0.1c-1,0.2-1.7,0.8-1.8,1.8c-0.2,1,0.1,1.8,1,2.5
		c0.9,0.6,1.8,1.1,2.8,1.5c1,0.5,2,1,3,1.6c2.2,1.3,3,4.1,2,6.3c-0.4,1.1-1.3,1.6-2.4,1.9c-1.5,0.4-3.1,0.5-4.6,0.4
		c-1.3-0.1-2.5-0.3-3.8-0.5c-1-0.1-1-0.2-1-1.2c0-0.4-0.1-0.9,0.1-1.3c1.9,0.4,3.8,0.8,5.7,0.8c0.6,0,1.3-0.1,1.8-0.2
		c0.8-0.2,1.4-0.5,1.6-1.4c0.2-1,0.1-1.8-0.6-2.6c-0.3-0.3-0.6-0.5-1.1-0.6c-1.3-0.6-2.6-1.3-3.8-1.9c-0.4-0.2-0.9-0.4-1.2-0.6
		c-2.2-1.4-2.9-4-1.9-6.5c0.4-1.1,1.3-1.7,2.4-1.9c2.6-0.6,5.2-0.4,7.7,0c0.4,0.1,0.5,0.3,0.5,0.8C481,275.9,481.1,276.4,480.9,277z
		"/>
	<path d="M412,277c-1-0.1-1.8-0.3-2.8-0.4c-1.3-0.1-2.5-0.2-3.8,0.1c-1,0.2-1.6,0.8-1.8,1.7c-0.2,1,0.1,1.8,1,2.5
		c0.6,0.5,1.4,0.9,2,1.2c1.2,0.6,2.5,1.3,3.7,1.9c2.4,1.3,2.8,3.7,2.2,6.2c-0.3,1.2-1.3,1.8-2.4,2.2c-1.3,0.4-2.7,0.5-4.1,0.5
		c-1.5,0-2.9-0.3-4.4-0.5c-0.6-0.1-1-0.4-0.9-1.1c0-0.4-0.1-0.9,0.1-1.3c1.1,0.2,2.2,0.4,3.2,0.5c1.4,0.2,2.9,0.2,4.3-0.1
		c0.9-0.2,1.7-0.5,1.8-1.6c0.1-1.1-0.1-2-1.1-2.7c-1-0.5-2-1.1-3-1.6c-1-0.5-2-1-3-1.6c-2-1.4-2.7-4.3-1.5-6.6
		c0.4-0.9,1.2-1.4,2.2-1.6c1-0.3,1.9-0.3,3-0.4c1.5,0,3,0.1,4.5,0.3c0.6,0.1,1,0.4,0.9,1.1C412.1,276.1,412.2,276.4,412,277z"/>
	<path class="st11" d="M383.4,274.6c0.1-0.1,0.1-0.1,0.2-0.1c2.5-0.2,2.5-0.2,3.6,1.9c1.2,2.3,2.4,4.5,3.6,6.7
		c0.2,0.3,0.3,0.6,0.5,1c0.4-0.3,0.5-0.8,0.8-1.1c1.3-2.5,2.6-5,3.8-7.4c0.4-1,1.1-1.4,2.2-1.3c0.4,0.1,0.9-0.1,1.2,0.1
		c0,0.4-0.3,0.8-0.4,1.2c-1.8,3.4-3.8,6.8-5.6,10.2c-0.4,0.6-0.5,1.4-0.5,2.2c0,1.2,0,2.5,0,3.7c0,0.5-0.2,0.9-0.8,0.9
		c-2,0-1.8,0.1-1.7-1.6c0.2-2.8-0.4-5.4-1.9-7.7c-1.5-2.4-2.7-4.8-4.1-7.3C383.7,275.6,383.4,275.2,383.4,274.6z"/>
	<path class="st12" d="M423,284.7c0,2.4,0,4.6,0,7c0,1,0,1-1,1c-1.6,0-1.5,0.2-1.5-1.4c0-4.3,0-8.5,0-12.8c0-0.3,0-0.5,0-0.9
		c0-0.5-0.2-0.9-0.9-0.9c-1.3,0-2.6,0-3.8,0c-0.6,0-1-0.2-0.9-0.9c0-0.2,0-0.5,0-0.8c0-0.3,0.1-0.5,0.5-0.5c0.2,0,0.4,0,0.6,0
		c3.7,0,7.4,0,11.1,0c0.3,0,0.9-0.2,1.1,0.2c0.2,0.5,0.2,1.2,0,1.7c-0.1,0.3-0.4,0.2-0.8,0.2c-1.2,0-2.4,0-3.6,0
		c-1.1,0-1.1,0-1.1,1.2C423,280.1,423,282.4,423,284.7z"/>
	<path class="st11" d="M507.9,260.4c0-2.3,0-4.4,0-6.7c0-1.2,0-1.2-1.2-1.2c-1,0-2,0-3,0c-1.3,0-1.3,0-1.3-1.3c0-1,0-1,1-1h0.1
		c3.8,0,7.5,0,11.3,0c0.3,0,0.9-0.2,1.1,0.2c0.2,0.5,0.2,1.2,0,1.7c-0.1,0.3-0.5,0.2-0.8,0.2c-1.2,0-2.3,0-3.4,0
		c-1.3,0-1.3,0-1.3,1.2c0,4.4,0,8.7,0,13.1c0,0.3,0,0.5,0,0.9c0,0.4-0.1,0.6-0.5,0.6c-0.1,0-0.2,0-0.4,0c-1.5,0.1-1.5,0.1-1.5-1.5
		C507.9,264.8,507.9,262.7,507.9,260.4z"/>
	<path class="st13" d="M457,39.5c0,1.1-0.9,2-1.9,2c-1.2,0-2-0.9-2-2c0-1.1,1-1.9,2-1.9C456.1,37.5,457,38.4,457,39.5z"/>
	<path class="st13" d="M458.7,61.7c-1.1,0-1.9-1-1.9-2c0-1.2,1-2,2.2-2c1.1,0,1.9,1,1.9,2C460.8,60.9,459.8,61.7,458.7,61.7z"/>
	<path class="st12" d="M395.3,43.8c0,1.1-0.9,2-1.9,2c-1.1,0-2-1-2-2c0-1.1,0.9-1.9,2-1.9C394.5,41.7,395.3,42.6,395.3,43.8z"/>
	<path class="st13" d="M434,40.8c-1.1,0-1.9-1-1.9-2c0-1.2,1-2,2.2-1.9c1.1,0,1.9,1,1.9,2C435.9,39.9,435,40.8,434,40.8z"/>
	<path class="st13" d="M393.4,54.4c0,1.1-0.9,2-1.9,2c-1.2,0-2-0.8-2-1.9c0-1.2,0.9-2.2,2-2.2C392.4,52.5,393.4,53.3,393.4,54.4z"/>
	<path class="st13" d="M450.1,38.8c-1.2,0-2-0.9-2-1.9c0-1.2,1-2.2,2-2c1.1,0,2,1,1.9,2C452.1,37.8,451.3,38.8,450.1,38.8z"/>
	<path class="st13" d="M393.4,48.9c0,1.1-0.9,1.9-2,1.9c-1.2,0-2-0.9-2-2c0-1.1,1-1.9,2-1.9C392.5,46.9,393.4,47.9,393.4,48.9z"/>
	<path class="st13" d="M462.5,48.9c0,1.1-0.9,1.9-2,2c-1.2,0-2-0.9-2-1.9c0-1.2,0.9-2.2,2-2C461.5,46.9,462.5,47.9,462.5,48.9z"/>
	<path class="st13" d="M460.5,52.5c1.1,0,2,1,2,2c0,1.2-1,2-2.2,2c-1.1,0-1.9-1-1.9-2C458.5,53.3,459.4,52.4,460.5,52.5z"/>
	<path class="st13" d="M401.7,38.8c-1.2,0-1.9-0.9-1.9-2c0-1.1,0.9-2,1.9-2s2.2,1,2,2.2C403.7,38,402.8,38.8,401.7,38.8z"/>
	<path class="st13" d="M460.5,43.8c0,1.1-1,2-2,2s-2-1-2-2.2c0-1.1,1-1.9,2-1.9C459.7,41.7,460.5,42.6,460.5,43.8z"/>
	<path class="st12" d="M398.9,39.6c0,1.1-1,1.9-2,1.9c-1.2,0-2-1-1.9-2.2c0.1-1.1,1-1.9,2-1.9C398.1,37.5,399,38.5,398.9,39.6z"/>
	<path class="st13" d="M395.1,59.7c0,1.1-0.9,2-1.9,2c-1.1,0-2-0.8-2-1.9c-0.1-1.2,0.9-2.2,1.9-2.2
		C394.1,57.8,395.1,58.6,395.1,59.7z"/>
	<path class="st12" d="M441.3,36.8c0,1.1-0.9,2-1.9,2s-2-0.8-2-1.9s0.9-2.2,2-2.2C440.3,34.8,441.2,35.7,441.3,36.8z"/>
	<path class="st12" d="M412.7,38.8c-1.1,0-2-0.9-2-1.9s0.8-2,1.9-2c1.2,0,2.2,0.9,2.2,2C414.7,38,413.7,38.8,412.7,38.8z"/>
	<path class="st12" d="M444.6,33.9c1.1,0,1.9,0.9,1.9,2c0,1.2-0.9,2-1.9,2c-1.2,0-2.2-1-2-2C442.7,34.7,443.5,33.9,444.6,33.9z"/>
	<path class="st12" d="M419.9,38.7c0,1.1-0.9,2-1.9,2c-1.1,0-2-1-2-2s1-1.9,2-1.9C419,36.7,419.9,37.6,419.9,38.7z"/>
	<path class="st12" d="M409.2,35.9c0,1.2-0.9,1.9-2,1.9c-1.1,0-2-0.9-2-1.9c0-1.2,1-2,2-2C408.3,33.9,409.2,34.7,409.2,35.9z"/>
	<path class="st14" d="M449.7,278.7c0-0.1,0-0.1,0-0.2c0-0.2,0-0.4,0.1-0.5c0.3-0.1,0.3,0.2,0.3,0.4
		C450,278.6,449.9,278.7,449.7,278.7z"/>
	<path class="st15" d="M198.5,55.7c-0.8,0-1.1-0.5-1.4-1.1c-0.2-0.3-0.3-1-0.9-0.9c-0.5,0.1-0.2,0.8-0.3,1.1c0,0.1,0,0.2,0,0.3
		c0,0.2-0.2,0.3-0.3,0.3c-0.2,0-0.3-0.1-0.3-0.3c-0.1-1.2-0.1-2.5,0-3.7c0-0.2,0.2-0.4,0.4-0.4c0.5,0,1.2-0.1,1.7,0
		c1,0.2,1.4,1.3,0.8,1.9c-0.6,0.6-0.5,1.1-0.1,1.7C198.3,55.1,198.4,55.4,198.5,55.7L198.5,55.7z"/>
	<path class="st7" d="M425.8,194.8c-28.5,0-51.6-23.1-51.9-51.2c-0.3-28.3,22.4-52,51.1-52.4c29.1-0.4,52.5,23.1,52.5,51.7
		C477.5,171.5,454.4,194.8,425.8,194.8z"/>
	<path class="st7" d="M447.5,67.8c1.2,0.3,2.2-0.1,2.8-1.1c0.6-1,0.6-2.4-0.1-3.3c-1.1-1.3-2.4-1.4-4.1-0.5c0.4-1.3,0.8-2.5,0.9-3.7
		c0.1-0.9,0-1.7-0.2-2.5c-0.4-1.5-1.5-1.7-2.6-0.6c-0.6,0.8-1.1,1.6-1.4,2.5c-0.3,1.1-0.5,2.2-0.5,3.2c-0.5,0-0.6-0.4-0.9-0.6
		c-1-0.8-2.3-0.9-3.2-0.3c-1.1,0.6-1.5,1.5-1.4,2.8c0.1,1.2,0.8,1.9,2,2.4c0.2-0.2,0-0.4,0-0.8c0-0.9,0.6-1.6,1.4-1.6
		c0.8,0,1.4,0.5,1.5,1.4c0.1,0.8-0.1,1.4-0.3,2c-0.9,2.2-2.5,3.3-4.6,3.9c-3.6,1-7.2-0.9-8.7-4.2c-0.2-0.5-0.4-1-0.4-1.7
		c2.9,0.4,5.2,1.9,7.1,4.3c0-3.9,0-7.5,0-11.3c-1.9,2.3-4.1,3.9-7.1,4.2c0.2-1.6,0.9-2.8,1.9-3.8c0.8-0.6,0.9-1.3,0.9-2.3
		c0-3.1,0-6.1,0-9.3c0-1.2,0.2-1.1,1-1.2c3.4-0.5,6.8-1.5,10.1-2.8c3.7-1.4,7-0.8,9.8,1.9s3.4,6,2.4,9.7c-0.2,0.8-0.5,1.4-0.9,2.2
		c-1.1,2.9-0.8,5.5,1.5,7.6c0.4,0.4,0.5,0.9,0.3,1.4c-1.1,2.7-2.2,5.5-3.3,8.2c-0.3,0.9-0.4,0.9-1.2,0.6c-2.8-0.9-4.6-2.7-5.3-5.6
		c-0.2-1.1-0.1-2.2,0.3-3.1c0.4-1,1.3-1.4,2.2-1c0.8,0.3,1.2,1.5,0.4,2.4C447.5,67.6,447.4,67.7,447.5,67.8z"/>
	<path class="st7" d="M424.3,62.4c-2.9-0.4-5.1-1.9-7-4.1c-0.2,3.7-0.1,7.3,0,11c1.9-2.2,4.1-3.7,7-4.1c0.2,0.4,0,0.8-0.1,1.1
		c-1.6,4.4-6.9,6.3-11,4c-1.5-0.9-2.5-2.2-2.9-3.9c-0.1-0.5-0.2-1-0.1-1.5c0.1-0.8,0.8-1.3,1.5-1.3c0.8,0,1.3,0.6,1.4,1.4
		c0,0.3-0.2,0.6,0,1c1.3-0.4,2-1.3,2.2-2.5c0.1-1.1-0.5-2.3-1.6-2.7c-1.5-0.6-2.8-0.2-3.9,1.2c-0.2-1.1-0.3-1.9-0.5-2.8
		c-0.2-1.1-0.8-2-1.4-2.9c-0.4-0.5-1-1-1.6-0.8c-0.6,0.2-0.9,0.8-1.1,1.3c-0.4,1.5-0.2,3,0.2,4.5c0.1,0.4,0.3,1,0.5,1.6
		c-1.6-0.8-3-0.8-4.2,0.6c-0.8,1-0.8,2.2-0.1,3.2c0.6,1,1.6,1.4,2.8,1.1c0.1-0.3-0.2-0.4-0.3-0.6c-0.3-0.8-0.2-1.6,0.5-1.9
		c0.8-0.4,1.6-0.2,2,0.5c0.8,1.3,0.8,2.7,0.3,4.1c-0.8,2.7-2.7,4.2-5.3,5.1c-0.5,0.2-0.9,0-1.1-0.5c-1.1-2.8-2.3-5.6-3.3-8.5
		c-0.2-0.5-0.2-0.9,0.2-1.2c2.4-2.3,2.8-5,1.5-8c-0.4-1-0.9-2-1.1-3.1c-0.6-3.6,0.4-6.6,3.1-8.8c2.8-2.4,6-2.9,9.4-1.6
		c3.2,1.3,6.5,2.3,9.9,2.8c1.2,0.2,1.2,0.2,1.2,1.3c0,3.1,0,6.2,0,9.4c0,0.8,0.2,1.3,0.8,1.8C423.5,59.6,424.1,60.8,424.3,62.4z"/>
	<path class="st8" d="M448.8,229.2c-1.4,0-2.9,0-4.3,0c-1,0-1.1-0.1-0.8-1c1.4-3.7,2.8-7.2,4.2-10.9c0.2-0.4,0.4-0.9,1-0.9
		s0.8,0.4,1,0.9c1.4,3.7,2.8,7.2,4.2,10.9c0.3,0.9,0.3,1-0.6,1C451.8,229.3,450.3,229.2,448.8,229.2z"/>
	<path class="st9" d="M403.2,253c0.9,2.6,1.7,5.1,2.6,7.6c-1.7,0-3.3,0-5,0c-0.3,0-0.4-0.2-0.3-0.5c0.1-0.2,0.1-0.4,0.2-0.6
		c0.6-1.9,1.3-3.8,1.9-5.7C402.8,253.5,402.8,253.2,403.2,253z"/>
	<path class="st8" d="M367.5,253c0.3,0.1,0.3,0.2,0.4,0.4c0.8,2.2,1.4,4.2,2.2,6.3c0.3,0.9,0.2,0.9-0.6,0.9c-1.5,0-2.9,0-4.5,0
		C365.7,257.9,366.6,255.5,367.5,253z"/>
	<path class="st16" d="M196.8,53c-0.5,0-0.8-0.1-0.8-0.6c0-0.4,0.2-0.6,0.6-0.6c0.6,0,1.1,0.3,1,0.8C197.5,53,197.1,53,196.8,53z"/>
	<path d="M458.7,115.6c0,0.2,0.1,0.4,0.1,0.6c0,4,0,8,0,11.8c0,0.8-0.3,1.1-0.9,1.5c-16.6,11.9-30,26.7-40.7,44
		c-1,1.6-1.9,3.2-2.9,5c-0.2,0.3-0.3,0.8-0.6,1.1c-0.4-0.2-0.5-0.6-0.9-1c-6.1-8.1-13.2-15-21.4-20.8c-0.8-0.5-1.1-1.1-1.1-1.9
		c0-4.5,0-9.1,0-13.7c0-0.3-0.1-0.8,0.2-1.2c0.4,0,0.9,0.3,1.3,0.4c6.6,3.1,12.7,7,18.5,11.4c0.2,0.2,0.4,0.3,0.6,0.5
		c0.3,0.2,0.5,0.2,0.8-0.1c0.4-0.5,0.9-1.1,1.3-1.5c10.5-12.3,22.5-22.9,36.4-31.3c2.6-1.6,5.3-3.1,8.1-4.5
		C457.9,115.9,458.2,115.7,458.7,115.6z"/>
</g>
</svg>
