<svg width="14" height="14" viewBox="0 0 14 14" fill="none" xmlns="http://www.w3.org/2000/svg">
<path d="M13.0004 11.0996C13.0004 10.4584 12.6224 9.8748 12.0312 9.628C11.2908 9.3188 10.0736 9 8.20039 9C6.32719 9 5.10999 9.3188 4.36959 9.628C3.77839 9.8748 3.40039 10.4584 3.40039 11.0996V13H13.0004V11.0996Z" stroke="#6A6A6A" stroke-linecap="round" stroke-linejoin="round"/>
<path d="M8.19844 7.4C6.65204 7.4 5.39844 6.1464 5.39844 4.6V3.8C5.39844 2.2536 6.65204 1 8.19844 1C9.74484 1 10.9984 2.2536 10.9984 3.8V4.6C10.9984 6.1464 9.74484 7.4 8.19844 7.4Z" stroke="#6A6A6A" stroke-linecap="round" stroke-linejoin="round"/>
<path d="M2.60156 5.39999V8.59999" stroke="#6A6A6A" stroke-linecap="round" stroke-linejoin="round"/>
<path d="M1 7H4.2" stroke="#6A6A6A" stroke-linecap="round" stroke-linejoin="round"/>
</svg>
