<svg xmlns="http://www.w3.org/2000/svg" xmlns:xlink="http://www.w3.org/1999/xlink" width="157" height="51" viewBox="0 0 157 51">
    <defs>
        <path id="gvhf5g1zaa" d="M0 0L157 0 157 46.866 0 46.866z"/>
    </defs>
    <g fill="none" fill-rule="evenodd">
        <g>
            <g>
                <path fill="#FFF" d="M55.078 0L24.812 29.355 16.256 17.805 11.978 21.227 23.969 37.163 58.817 3.74z" transform="translate(-142.000000, -3776.000000) translate(142.000000, 3776.000000)"/>
                <g>
                    <path fill="#FFF" d="M45.045 28.812c.801.813 1.82 1.218 3.053 1.218 1.234 0 2.257-.405 3.07-1.218.811-.812 1.217-1.855 1.217-3.13s-.406-2.319-1.218-3.13c-.812-.813-1.835-1.219-3.069-1.219-1.233 0-2.252.406-3.053 1.218-.802.812-1.203 1.856-1.203 3.131 0 1.275.401 2.318 1.203 3.13zm7.34-10.84h3.98v15.42h-3.98v-1.82c-1.192 1.502-2.868 2.252-5.027 2.252-2.056 0-3.819-.787-5.289-2.36-1.47-1.573-2.206-3.5-2.206-5.782 0-2.283.735-4.21 2.206-5.783 1.47-1.573 3.233-2.36 5.29-2.36 2.158 0 3.834.751 5.026 2.252v-1.82zM68.546 17.54c1.686 0 3.08.566 4.18 1.696 1.1 1.13 1.65 2.694 1.65 4.688v9.469h-3.979v-8.975c0-1.028-.278-1.815-.833-2.36-.555-.544-1.295-.817-2.22-.817-1.029 0-1.85.319-2.468.956-.617.637-.925 1.594-.925 2.868v8.328h-3.979V17.972h3.98v1.727c.965-1.44 2.497-2.16 4.594-2.16M86.589 21.796h-3.485v6.415c0 .535.133.925.4 1.172.268.247.659.385 1.173.416.513.031 1.15.026 1.912-.015v3.608c-2.735.31-4.662.051-5.783-.77-1.121-.823-1.681-2.293-1.681-4.41v-6.416h-2.683v-3.825h2.683v-3.115l3.979-1.202v4.317h3.485v3.825zM93.312 28.812c.802.813 1.82 1.218 3.053 1.218 1.234 0 2.257-.405 3.07-1.218.811-.812 1.218-1.855 1.218-3.13s-.407-2.319-1.219-3.13c-.812-.813-1.835-1.219-3.069-1.219-1.233 0-2.25.406-3.053 1.218-.802.812-1.203 1.856-1.203 3.131 0 1.275.401 2.318 1.203 3.13zm7.341-10.84h3.978v15.42h-3.978v-1.82c-1.193 1.502-2.869 2.252-5.028 2.252-2.056 0-3.819-.787-5.289-2.36-1.47-1.573-2.206-3.5-2.206-5.782 0-2.283.735-4.21 2.206-5.783 1.47-1.573 3.233-2.36 5.29-2.36 2.158 0 3.834.751 5.027 2.252v-1.82zM112.634 28.473c.812.792 1.845 1.187 3.1 1.187 1.254 0 2.287-.395 3.1-1.187.811-.79 1.217-1.804 1.217-3.038 0-1.213-.406-2.215-1.218-3.007-.812-.79-1.845-1.188-3.1-1.188-1.254 0-2.287.397-3.099 1.188-.813.792-1.218 1.794-1.218 3.007 0 1.234.405 2.247 1.218 3.038zm7.417-10.502h3.887v14.681c0 2.385-.787 4.205-2.36 5.46-1.573 1.253-3.47 1.881-5.69 1.881-1.666 0-3.13-.32-4.395-.957-1.265-.637-2.236-1.573-2.915-2.806l3.393-1.943c.781 1.438 2.128 2.16 4.04 2.16 1.254 0 2.241-.33 2.961-.989.72-.658 1.08-1.593 1.08-2.806v-1.665c-1.172 1.562-2.818 2.343-4.935 2.343-2.18 0-4.005-.765-5.475-2.297-1.47-1.532-2.205-3.398-2.205-5.598 0-2.179.74-4.04 2.221-5.583 1.48-1.542 3.3-2.312 5.46-2.312 2.116 0 3.762.781 4.933 2.343v-1.912zM130.847 24.233h7.865c-.227-1.05-.694-1.83-1.403-2.345-.71-.514-1.517-.77-2.422-.77-1.07 0-1.953.273-2.652.817-.7.545-1.162 1.31-1.388 2.298zm.062 3.084c.534 1.933 1.984 2.898 4.348 2.898 1.522 0 2.673-.514 3.455-1.541l3.207 1.85c-1.521 2.2-3.762 3.3-6.723 3.3-2.55 0-4.596-.77-6.138-2.312-1.542-1.544-2.313-3.486-2.313-5.83 0-2.323.76-4.261 2.282-5.813 1.522-1.552 3.475-2.33 5.86-2.33 2.262 0 4.128.782 5.598 2.345 1.47 1.563 2.205 3.495 2.205 5.799 0 .514-.051 1.058-.154 1.634h-11.627z" transform="translate(-142.000000, -3776.000000) translate(142.000000, 3776.000000) translate(0.000000, 3.783600)"/>
                    <g transform="translate(-142.000000, -3776.000000) translate(142.000000, 3776.000000) translate(0.000000, 3.783600)">
                        <mask id="56zych106b" fill="#fff">
                            <use xlink:href="#gvhf5g1zaa"/>
                        </mask>
                        <path fill="#FFF" d="M63.097 0L63.097 0 60.89 2.117 58.637 4.278 152.722 4.278 152.722 42.588 4.278 42.588 4.278 4.278 42.466 4.278 46.877 0 0 0 0 46.866 157 46.866 157 0z" mask="url(#56zych106b)"/>
                    </g>
                </g>
            </g>
        </g>
    </g>
</svg>
