<svg width="21" height="21" viewBox="0 0 21 21" xmlns="http://www.w3.org/2000/svg">
    <g fill="#3BD55A" fill-rule="nonzero">
        <path d="M13.462 7.257 8.7 11.887l-1.162-1.132a.92.92 0 0 0-1.274 0 .859.859 0 0 0 0 1.239l1.8 1.749A.913.913 0 0 0 8.7 14a.913.913 0 0 0 .637-.257l5.4-5.248a.86.86 0 0 0 .232-.846.889.889 0 0 0-.637-.62.919.919 0 0 0-.87.228z"/>
        <path d="M10.5 0C4.701 0 0 4.701 0 10.5S4.701 21 10.5 21 21 16.299 21 10.5C20.994 4.703 16.297.006 10.5 0zm0 17.5a7 7 0 1 1 0-14 7 7 0 0 1 0 14z"/>
    </g>
</svg>
