<svg width="58" height="40" viewBox="0 0 58 40" fill="none" xmlns="http://www.w3.org/2000/svg">
<rect width="58" height="39.7714" rx="4" fill="#00579F"/>
<path d="M24.8146 26.6519H21.5352L23.5864 13.9688H26.8656L24.8146 26.6519Z" fill="white"/>
<path d="M36.7007 14.2783C36.0539 14.0216 35.0279 13.7383 33.7593 13.7383C30.5208 13.7383 28.2402 15.4653 28.2262 17.9343C28.1993 19.756 29.859 20.7678 31.1004 21.3752C32.3691 21.9958 32.8004 22.4009 32.8004 22.9542C32.7875 23.8039 31.7752 24.1955 30.831 24.1955C29.5217 24.1955 28.8202 23.9936 27.754 23.5209L27.3222 23.3182L26.8633 26.1653C27.6324 26.5157 29.0495 26.8267 30.5208 26.8403C33.9618 26.8403 36.202 25.1401 36.2286 22.5089C36.2417 21.0651 35.3653 19.9588 33.4758 19.0548C32.3288 18.4745 31.6264 18.0831 31.6264 17.4894C31.6398 16.9496 32.2205 16.3967 33.5153 16.3967C34.5814 16.3696 35.3647 16.6259 35.9581 16.8823L36.2547 17.017L36.7007 14.2783Z" fill="white"/>
<path d="M41.0621 22.1587C41.3322 21.4301 42.3714 18.6101 42.3714 18.6101C42.3578 18.6371 42.641 17.868 42.8029 17.3958L43.0321 18.4886C43.0321 18.4886 43.6531 21.5246 43.788 22.1587C43.2755 22.1587 41.7099 22.1587 41.0621 22.1587ZM45.1102 13.9688H42.5735C41.7913 13.9688 41.197 14.1979 40.8595 15.0211L35.9883 26.6517H39.4293C39.4293 26.6517 39.9958 25.0863 40.1176 24.7491C40.4951 24.7491 43.8425 24.7491 44.3281 24.7491C44.4223 25.1944 44.7194 26.6517 44.7194 26.6517H47.7559L45.1102 13.9688Z" fill="white"/>
<path d="M18.7959 13.9688L15.5842 22.6174L15.2333 20.8634C14.6395 18.8394 12.7773 16.6404 10.6992 15.5471L13.641 26.6384H17.1089L22.2636 13.9688H18.7959Z" fill="white"/>
<path d="M12.5998 13.9688H7.32351L7.26953 14.225C11.3854 15.2775 14.1112 17.8145 15.2312 20.8639L14.0842 15.0349C13.8953 14.2248 13.315 13.9955 12.5998 13.9688Z" fill="#FAA61A"/>
</svg>
