<svg width="24" height="24" viewBox="0 0 24 24" fill="none" xmlns="http://www.w3.org/2000/svg">
<mask id="mask0_1683_6575" style="mask-type:alpha" maskUnits="userSpaceOnUse" x="0" y="0" width="24" height="24">
<rect width="24" height="24" fill="#D9D9D9"/>
</mask>
<g mask="url(#mask0_1683_6575)">
<path d="M12 16.968C13.25 16.968 14.3125 16.5317 15.1875 15.659C16.0625 14.7863 16.5 13.7267 16.5 12.48C16.5 11.2333 16.0625 10.1737 15.1875 9.301C14.3125 8.42833 13.25 7.992 12 7.992C10.75 7.992 9.6875 8.42833 8.8125 9.301C7.9375 10.1737 7.5 11.2333 7.5 12.48C7.5 13.7267 7.9375 14.7863 8.8125 15.659C9.6875 16.5317 10.75 16.968 12 16.968ZM12 15.1728C11.25 15.1728 10.6125 14.911 10.0875 14.3874C9.5625 13.8638 9.3 13.228 9.3 12.48C9.3 11.732 9.5625 11.0962 10.0875 10.5726C10.6125 10.049 11.25 9.7872 12 9.7872C12.75 9.7872 13.3875 10.049 13.9125 10.5726C14.4375 11.0962 14.7 11.732 14.7 12.48C14.7 13.228 14.4375 13.8638 13.9125 14.3874C13.3875 14.911 12.75 15.1728 12 15.1728ZM12 19.96C9.56667 19.96 7.35 19.2826 5.35 17.9279C3.35 16.5732 1.9 14.7572 1 12.48C1.9 10.2028 3.35 8.38678 5.35 7.03207C7.35 5.67736 9.56667 5 12 5C14.4333 5 16.65 5.67736 18.65 7.03207C20.65 8.38678 22.1 10.2028 23 12.48C22.1 14.7572 20.65 16.5732 18.65 17.9279C16.65 19.2826 14.4333 19.96 12 19.96Z" fill="white"/>
</g>
</svg>
