<svg width="20" height="20" viewBox="0 0 20 20" fill="none" xmlns="http://www.w3.org/2000/svg">
<g clip-path="url(#clip0_35_7839)">
<path d="M19.7698 16.5739L11.6761 1.62261C11.5122 1.32082 11.27 1.06884 10.9748 0.893261C10.6797 0.717679 10.3426 0.625 9.99923 0.625C9.65581 0.625 9.31876 0.717679 9.02363 0.893261C8.7285 1.06884 8.48622 1.32082 8.32235 1.62261L0.2286 16.5739C0.0709101 16.8617 -0.00844733 17.186 -0.00153752 17.5141C0.00537229 17.8423 0.0983072 18.1629 0.267975 18.4439C0.435964 18.7283 0.675552 18.9637 0.962863 19.1266C1.25017 19.2896 1.57517 19.3744 1.90548 19.3726H18.093C18.4219 19.3735 18.7454 19.2889 19.0318 19.1271C19.3182 18.9653 19.5577 18.7319 19.7267 18.4498C19.8958 18.1676 19.9886 17.8464 19.9962 17.5175C20.0038 17.1887 19.9258 16.8635 19.7698 16.5739ZM11.1542 6.87261L10.708 13.1226H9.45798L9.01173 6.87261H11.1542ZM10.083 16.8726C9.86319 16.8726 9.64834 16.8074 9.4656 16.6853C9.28285 16.5632 9.14042 16.3897 9.05631 16.1866C8.97221 15.9836 8.9502 15.7601 8.99308 15.5446C9.03596 15.329 9.14179 15.131 9.2972 14.9756C9.45261 14.8202 9.65062 14.7143 9.86618 14.6715C10.0817 14.6286 10.3052 14.6506 10.5082 14.7347C10.7113 14.8188 10.8848 14.9612 11.0069 15.144C11.1291 15.3267 11.1942 15.5416 11.1942 15.7614C11.1942 16.0561 11.0771 16.3387 10.8687 16.5471C10.6603 16.7555 10.3777 16.8726 10.083 16.8726Z" fill="#FFB900"/>
</g>
<defs>
<clipPath id="clip0_35_7839">
<rect width="20" height="20" fill="white"/>
</clipPath>
</defs>
</svg>
