<svg width="24" height="24" viewBox="0 0 24 24" fill="none" xmlns="http://www.w3.org/2000/svg">
<path d="M23.707 6.736L17.263 0.293C17.0755 0.105451 16.8212 5.66374e-05 16.556 0L7.444 0C7.1788 5.66374e-05 6.92449 0.105451 6.737 0.293L0.293 6.736C0.105451 6.92349 5.66374e-05 7.1778 0 7.443L0 16.557C5.66374e-05 16.8222 0.105451 17.0765 0.293 17.264L6.737 23.707C6.92449 23.8946 7.1788 23.9999 7.444 24H16.556C16.8212 23.9999 17.0755 23.8946 17.263 23.707L23.707 17.264C23.8946 17.0765 23.9999 16.8222 24 16.557V7.443C23.9999 7.1778 23.8946 6.92349 23.707 6.736ZM13.645 5L13 14H11L10.392 5H13.645ZM12 20C11.6044 20 11.2178 19.8827 10.8889 19.6629C10.56 19.4432 10.3036 19.1308 10.1522 18.7654C10.0009 18.3999 9.96126 17.9978 10.0384 17.6098C10.1156 17.2219 10.3061 16.8655 10.5858 16.5858C10.8655 16.3061 11.2219 16.1156 11.6098 16.0384C11.9978 15.9613 12.3999 16.0009 12.7654 16.1522C13.1308 16.3036 13.4432 16.56 13.6629 16.8889C13.8827 17.2178 14 17.6044 14 18C14 18.5304 13.7893 19.0391 13.4142 19.4142C13.0391 19.7893 12.5304 20 12 20Z" fill="#242429"/>
</svg>
