<svg width="19" height="19" viewBox="0 0 19 19" xmlns="http://www.w3.org/2000/svg">
    <path d="M18.768 5.333 13.667.232a.791.791 0 0 0-.56-.232H5.893a.791.791 0 0 0-.56.232l-5.101 5.1a.791.791 0 0 0-.232.56v7.216c0 .21.083.41.232.56l5.101 5.1c.149.149.35.232.56.232h7.214c.21 0 .411-.083.56-.232l5.101-5.1a.791.791 0 0 0 .232-.56V5.892a.791.791 0 0 0-.232-.56zm-7.966-1.375-.51 7.125H8.708l-.481-7.125h2.575zM9.5 15.833a1.583 1.583 0 1 1 0-3.166 1.583 1.583 0 0 1 0 3.166z" fill="#000" fill-rule="nonzero"/>
</svg>
