<?xml version="1.0" encoding="utf-8"?>
<!-- Generator: Adobe Illustrator 26.0.2, SVG Export Plug-In . SVG Version: 6.00 Build 0)  -->
<svg version="1.1" id="Layer_1" xmlns="http://www.w3.org/2000/svg" xmlns:xlink="http://www.w3.org/1999/xlink" x="0px" y="0px"
	 viewBox="0 0 1920 191.5" style="enable-background:new 0 0 1920 191.5;" xml:space="preserve">
<path d="M0,176.9c0.2,0,24.5,3.6,65.2,7.3c23.7,2.1,48,3.8,72.3,5c30.4,1.5,60.8,2.3,90.5,2.3c51.9,0.1,103.7-2.4,155.4-7.6
	c28.1-2.9,55.4-6.6,81.3-11.1c28-4.9,55.1-10.8,80.4-17.6c21.4-5.7,41.9-11.3,61.8-16.6c57.6-15.5,112.1-30.2,165.8-43.7
	c28.8-7.2,55-13.4,80.1-19.1c28-6.3,54.1-11.7,80-16.6c57-10.8,110.8-18.7,164.7-24.1c28.8-2.9,58.2-5.1,87.4-6.5
	c30.2-1.5,61.3-2.3,92.4-2.3c23,0,46.5,0.4,70.1,1.2c29.2,0,58,0.6,85.5,1.7c26.3,1.1,52.2,2.7,76.9,4.7c23.6,2,46.7,4.5,68.7,7.4
	c20.9,2.8,41.4,6,60.9,9.6c67.4,12.4,126.1,29.7,174.4,51.3c17.9,7.9,35.1,17.1,51.7,27.4c11.5,7.2,22.4,15.1,32.7,23.9
	c6.1,5.2,11.8,10.9,17.1,16.9c1.8,2,3.4,4.2,4.9,6.4V0H0V176.9z"/>
</svg>
