<?xml version="1.0" encoding="utf-8"?>
<!-- Generator: Adobe Illustrator 26.0.2, SVG Export Plug-In . SVG Version: 6.00 Build 0)  -->
<svg version="1.1" id="Layer_1" xmlns="http://www.w3.org/2000/svg" xmlns:xlink="http://www.w3.org/1999/xlink" x="0px" y="0px"
	 viewBox="0 0 1920 210.6" style="enable-background:new 0 0 1920 210.6;" xml:space="preserve">
<path d="M1455.4,17.9c-28,4.7-55.1,10.3-80.4,16.8c-21,5.4-41.7,10.7-61.7,15.9h-0.1c-57.6,14.9-112.1,28.9-165.8,41.8
	c-60.3,14.4-111.1,25.3-160.1,34.1c-57,10.3-110.9,17.9-164.7,23c-28.9,2.8-58.3,4.9-87.4,6.3c-30.3,1.5-61.4,2.2-92.4,2.2
	c-22.9,0-46.5-0.4-70.1-1.2c-29.2,0-58-0.5-85.5-1.6c-26.3-1-52.2-2.5-76.9-4.5c-23.5-1.9-46.7-4.3-68.7-7
	c-20.9-2.6-41.4-5.7-60.9-9.1c-67.4-11.9-126.1-28.4-174.4-49.1c-17.8-7.6-35.1-16.3-51.7-26.2c-11.4-7-22.3-14.6-32.6-23.1
	c-6.1-5-11.8-10.4-17.1-16.2c-1.8-1.9-3.4-4-4.9-6.1v197h1920v-197c-0.3-0.1-25.3-3.5-65.2-7c-23.6-2-47.9-3.6-72.3-4.8
	c-30.4-1.4-60.8-2.2-90.5-2.2c-54.2,0-106.5,2.4-155.4,7.2C1508.6,10,1481.3,13.6,1455.4,17.9z"/>
</svg>
