<svg xmlns="http://www.w3.org/2000/svg" xmlns:xlink="http://www.w3.org/1999/xlink" width="24" height="24" viewBox="0 0 24 24">
    <defs>
        <path id="9wbj7ndwaa" d="M12 1c6.075 0 11 4.925 11 11s-4.925 11-11 11S1 18.075 1 12 5.925 1 12 1zm0 2c-4.97 0-9 4.03-9 9s4.03 9 9 9 9-4.03 9-9-4.03-9-9-9zM8.293 8.293c.39-.39 1.024-.39 1.414 0L12 10.585l2.293-2.292c.36-.36.928-.388 1.32-.083l.094.083c.39.39.39 1.024 0 1.414L13.415 12l2.292 2.293c.36.36.388.928.083 1.32l-.083.094c-.39.39-1.024.39-1.414 0L12 13.415l-2.293 2.292c-.36.36-.928.388-1.32.083l-.094-.083c-.39-.39-.39-1.024 0-1.414L10.585 12 8.293 9.707c-.36-.36-.388-.928-.083-1.32z"/>
    </defs>
    <g fill="none" fill-rule="evenodd">
        <g>
            <g transform="translate(-1399.000000, -76.000000) translate(1399.000000, 76.000000)">
                <mask id="02l260pikb" fill="#fff">
                    <use xlink:href="#9wbj7ndwaa"/>
                </mask>
                <use fill="#000" fill-rule="nonzero" xlink:href="#9wbj7ndwaa"/>
                <g fill="#000" mask="url(#02l260pikb)">
                    <path d="M0 0H24V24H0z"/>
                </g>
            </g>
        </g>
    </g>
</svg>
