<svg width="1303" height="845" viewBox="0 0 1303 845" fill="none" xmlns="http://www.w3.org/2000/svg">
<path d="M696.641 -2.65038e-05L880.477 -1.84681e-05L1302.98 422.5L880.477 845L696.641 845L1119.14 422.5L696.641 -2.65038e-05Z" fill="white"/>
<path d="M696.641 -2.65038e-05L880.477 -1.84681e-05L1302.98 422.5L880.477 845L696.641 845L1119.14 422.5L696.641 -2.65038e-05Z" fill="white"/>
<path d="M696.641 -2.65038e-05L880.477 -1.84681e-05L1302.98 422.5L880.477 845L696.641 845L1119.14 422.5L696.641 -2.65038e-05Z" fill="#FFE500"/>
<path d="M348.326 -2.65038e-05L532.162 -1.84681e-05L954.662 422.5L532.162 845L348.326 845L770.826 422.5L348.326 -2.65038e-05Z" fill="white"/>
<path d="M348.326 -2.65038e-05L532.162 -1.84681e-05L954.662 422.5L532.162 845L348.326 845L770.826 422.5L348.326 -2.65038e-05Z" fill="white"/>
<path d="M348.326 -2.65038e-05L532.162 -1.84681e-05L954.662 422.5L532.162 845L348.326 845L770.826 422.5L348.326 -2.65038e-05Z" fill="#FFE500"/>
<path d="M0.000183105 -2.65038e-05L183.836 -1.84681e-05L606.336 422.5L183.836 845L0.000146169 845L422.5 422.5L0.000183105 -2.65038e-05Z" fill="white"/>
<path d="M0.000183105 -2.65038e-05L183.836 -1.84681e-05L606.336 422.5L183.836 845L0.000146169 845L422.5 422.5L0.000183105 -2.65038e-05Z" fill="white"/>
<path d="M0.000183105 -2.65038e-05L183.836 -1.84681e-05L606.336 422.5L183.836 845L0.000146169 845L422.5 422.5L0.000183105 -2.65038e-05Z" fill="#FFE500"/>
</svg>
