<svg xmlns="http://www.w3.org/2000/svg" width="24" height="17" viewBox="0 0 24 17">
    <g fill="none" fill-rule="evenodd">
        <g fill="#242429" fill-rule="nonzero">
            <g>
                <g>
                    <path d="M23.8 6.6s-.2-1.7-1-2.4c-.9-1-1.9-1-2.4-1C17 3 12 3 12 3s-5 0-8.4.2c-.5.1-1.5.1-2.4 1-.7.7-1 2.4-1 2.4S0 8.5 0 10.5v1.8c0 1.9.2 3.9.2 3.9s.2 1.7 1 2.4c.9 1 2.1.9 2.6 1 1.9.2 8.2.2 8.2.2s5 0 8.4-.3c.5-.1 1.5-.1 2.4-1 .7-.7 1-2.4 1-2.4s.2-1.9.2-3.9v-1.8c0-1.9-.2-3.8-.2-3.8zM9.5 14.5V7.8l6.5 3.4-6.5 3.3z" transform="translate(-233.000000, -954.000000) translate(77.000000, 951.000000) translate(156.000000, 0.000000)"/>
                </g>
            </g>
        </g>
    </g>
</svg>
